<svg version="1.1" xmlns="http://www.w3.org/2000/svg" xmlns:xlink="http://www.w3.org/1999/xlink" width="46.94813" height="34.03732" viewBox="0,0,46.94813,34.03732"><g transform="translate(-216.00108,-160.75001)"><g data-paper-data="{&quot;isPaintingLayer&quot;:true}" fill-rule="nonzero" stroke-linejoin="miter" stroke-miterlimit="10" stroke-dasharray="" stroke-dashoffset="0" style="mix-blend-mode: normal"><g stroke-width="1.5" stroke-linecap="butt"><path d="M229.90353,184.28692l2.09193,-7.7121l8.51529,2.91375l-1.80804,7.21618z" fill="#8e6d4a" stroke="#1c1a1f"/><path d="M237.52862,181.48832c1.16559,-2.03609 3.76105,-2.74176 5.79714,-1.57617c2.03609,1.16559 2.74176,3.76105 1.57617,5.79714c-1.16559,2.03609 -3.76104,2.74176 -5.79714,1.57617c-2.03609,-1.16559 -2.74177,-3.76105 -1.57617,-5.79714z" fill="#dbac68" stroke="#181714"/></g><g stroke-width="1.5" stroke-linecap="butt"><path d="M237.88044,178.41482l-0.19378,-7.35496l10.801,2.55661l-1.80804,7.21618z" fill="#8e6d4a" stroke="#1c1a1f"/><path d="M245.50554,175.61625c1.16559,-2.03609 3.76105,-2.74176 5.79714,-1.57617c2.03609,1.16559 2.74176,3.76105 1.57617,5.79714c-1.16559,2.03609 -3.76104,2.74176 -5.79714,1.57617c-2.03609,-1.16559 -2.74176,-3.76105 -1.57616,-5.79714z" fill="#dbac68" stroke="#181714"/></g><path d="M241.94219,183.64501l-0.25033,-6.67821c0,0 8.19758,-0.03106 10.15636,-0.03848c0.79732,-0.00302 1.4282,0.74307 1.74946,1.66029c0.32126,0.91722 0.51211,2.2016 0.05033,3.47821c-0.46178,1.27661 -1.07495,1.53665 -1.8654,1.53964c-1.9537,0.0074 -9.84042,0.03854 -9.84042,0.03854z" fill="#ce9252" stroke="#1e1b1a" stroke-width="1" stroke-linecap="butt"/><path d="M238.91588,182.05798v-3.53333c0,0 21.22095,0 22.6,0c0.46526,0 0.93333,0.43349 0.93333,0.73333c0,0.38649 0,1.44104 0,2.13333c0,0.42144 -0.26808,0.66667 -0.73333,0.66667c-1.37905,0 -22.8,0 -22.8,0z" fill="#8b95ac" stroke="#1e1b1a" stroke-width="1" stroke-linecap="butt"/><path d="M256.78254,181.52465c0,-0.93227 0,-2.34267 0,-2.8c0,-0.2848 0.46324,-0.6 0.73333,-0.6c0.21127,0 0.46678,0 0.8,0c0.32673,0 0.73333,0.35594 0.73333,0.66667c0,0.46509 0,1.82457 0,2.73333c0,0.50214 -0.44432,0.86667 -0.73333,0.86667c-0.19712,0 -0.4161,0 -0.73333,0c-0.35533,0 -0.8,-0.36377 -0.8,-0.86667z" fill="#8b95ac" stroke="#1e1b1a" stroke-width="1" stroke-linecap="butt"/><path d="M260.38253,180.79131v-0.86667c0,0 1.30012,0 1.56298,0c0.08868,0 0.1779,0.10633 0.1779,0.17987c0,0.0948 0,0.35346 0,0.52327c0,0.10337 -0.0511,0.16352 -0.13978,0.16352c-0.26286,0 -1.6011,0 -1.6011,0z" fill="#8b95ac" stroke="#1e1b1a" stroke-width="0.5" stroke-linecap="butt"/><path d="M253.44922,180.34729v-0.05664c0,0 2.20914,0 2.65579,0c0.15068,0 0.30228,0.00695 0.30228,0.01176c0,0.0062 0,0.0231 0,0.0342c0,0.00676 -0.08683,0.01069 -0.23751,0.01069c-0.44665,0 -2.72056,0 -2.72056,0z" fill="#8b95ac" stroke="#1e1b1a" stroke-width="0.5" stroke-linecap="butt"/><path d="M218.81409,180.01394c0,-6.54447 5.30532,-11.84979 11.84979,-11.84979c6.54447,0 11.8498,5.30532 11.8498,11.84979c0,6.54447 -5.30532,11.8498 -11.8498,11.8498c-6.54447,0 -11.84979,-5.30532 -11.84979,-11.8498z" fill="#fcc875" stroke="#191916" stroke-width="1.5" stroke-linecap="butt"/><path d="M239.05278,187.4584l-2.77778,-2l-1.55556,0.88889l-1.55556,-1.77778" fill="none" stroke="#d84646" stroke-width="1" stroke-linecap="round"/><path d="M218.81409,180.01394c0,-6.54447 5.30532,-11.84979 11.84979,-11.84979c6.54447,0 11.8498,5.30532 11.8498,11.84979c0,6.54447 -5.30532,11.8498 -11.8498,11.8498c-6.54447,0 -11.84979,-5.30532 -11.84979,-11.8498z" fill="none" stroke="#191916" stroke-width="1.5" stroke-linecap="butt"/><path d="M236.74966,185.68817l-0.624,-2.52495l-1.33806,-0.25089l-0.02573,-1.79481" fill="none" stroke="#d84646" stroke-width="1" stroke-linecap="round"/><path d="M240.38611,177.40282c0,2.05573 -1.19391,3.72222 -2.66667,3.72222c-1.47276,0 -2.66667,-1.6665 -2.66667,-3.72222c0,-2.05573 1.19391,-3.72222 2.66667,-3.72222c1.47276,0 2.66667,1.6665 2.66667,3.72222z" fill="#191916" stroke="none" stroke-width="0" stroke-linecap="butt"/><path d="M229.49721,168.3473c0,0 3.47706,1.26975 6.22207,3.04328c1.03051,0.6658 2.11127,2.8456 2.11127,2.8456" fill="none" stroke="#191916" stroke-width="1" stroke-linecap="round"/><path d="M237.83056,180.56952c0,0 0.65899,3.10201 -1.49013,6.59455c-1.42789,2.32047 -5.06543,4.40545 -5.06543,4.40545" fill="none" stroke="#191916" stroke-width="1" stroke-linecap="round"/><path d="M217.00108,180.12503c0,-7.54549 6.1168,-13.66229 13.66229,-13.66229c4.03325,0 5.12257,1.74767 5.2628,4.52704c0.12211,2.42033 -2.34216,5.62302 -2.34216,9.13525c0,3.7454 2.54626,7.13878 2.30795,9.60679c-0.24179,2.50405 -1.42848,4.05551 -5.22858,4.05551c-7.54549,0 -13.66229,-6.1168 -13.66229,-13.6623z" fill="#78999f" stroke="#191916" stroke-width="2" stroke-linecap="butt"/><path d="M225.17779,176.83932c0,1.49906 -1.19924,2.71429 -2.67857,2.71429c-1.47933,0 -2.67857,-1.21523 -2.67857,-2.71429c0,-1.49906 1.19924,-2.71429 2.67857,-2.71429c1.47933,0 2.67857,1.21523 2.67857,2.71429z" fill="#597a7f" stroke="none" stroke-width="0" stroke-linecap="butt"/><path d="M229.14395,174.55359c-3.0174,0.70027 -3.13608,-0.74848 -3.72253,-2.29682c-0.45304,-1.19611 -1.75866,-2.49944 -1.66929,-2.69951c0.10269,-0.22991 0.80478,-0.69632 2.27224,-1.40062c1.37346,-0.65918 3.12155,-0.82581 4.99615,-0.69391c1.13893,0.08014 0.16202,1.5095 0.05875,2.67257c-0.17288,1.94698 -0.34352,4.04886 -1.93532,4.41829z" fill="#597a7f" stroke="none" stroke-width="0" stroke-linecap="butt"/><path d="M222.99969,186.24779c-0.29016,0.27951 -1.53781,2.53601 -2.04665,1.98805c-1.27875,-1.37707 -2.24566,-3.27148 -2.59398,-4.75458c-0.37216,-1.5846 2.5506,-1.35252 2.66521,-1.57672c0.09973,-0.1951 3.38314,2.98719 1.97542,4.34326z" data-paper-data="{&quot;index&quot;:null}" fill="#597a7f" stroke="none" stroke-width="0" stroke-linecap="butt"/><path d="M221.28475,180.12503c0,-5.17969 4.19895,-9.37864 9.37864,-9.37864c5.17969,0 2.4453,4.19895 2.4453,9.37864c0,5.17969 2.73439,9.37864 -2.4453,9.37864c-5.17969,0 -9.37864,-4.19895 -9.37864,-9.37864z" fill="#90adad" stroke="#191916" stroke-width="0.5" stroke-linecap="butt"/><path d="M222.82454,178.99166c0,-1.94206 1.46269,-3.51641 3.26701,-3.51641c1.80432,0 3.26701,1.57435 3.26701,3.51641c0,1.94206 -1.46268,3.51642 -3.26701,3.51642c-1.80432,0 -3.26701,-1.57435 -3.26701,-3.51642z" fill="#d6e9e9" stroke="none" stroke-width="0" stroke-linecap="butt"/><path d="M229.5674,186.44927c1.80263,0.18947 2.58541,-1.31539 3.28574,-0.94306c1.00786,0.53582 0.96435,2.71205 -0.06619,3.25378c-0.61324,0.32236 -0.74749,0.54471 -3.10489,0.47416c-1.2093,-0.03619 -1.92049,-0.48745 -2.37276,-0.74602c-1.48405,-0.84844 0.4708,-2.22672 2.2581,-2.03885z" fill="#76a3a3" stroke="#191916" stroke-width="0" stroke-linecap="butt"/><path d="M225.90288,172.2939c1.08359,-0.71445 2.39735,-1.44728 4.83743,-1.32225c1.39397,0.07143 -1.0624,2.95774 -2.07692,3.22432c-2.96869,0.78007 -3.94549,-1.12076 -2.76051,-1.90207z" fill="#76a3a3" stroke="none" stroke-width="0" stroke-linecap="butt"/><path d="M246.75739,160.75001v0z" fill="#ffffff" stroke="#ffffe0" stroke-width="2" stroke-linecap="butt"/></g></g></svg>