<svg version="1.1" xmlns="http://www.w3.org/2000/svg" xmlns:xlink="http://www.w3.org/1999/xlink" width="772.37129" height="275.96201" viewBox="0,0,772.37129,275.96201"><g transform="translate(291.17219,66.23934)"><g stroke-miterlimit="10"><text transform="translate(-289.25213,-31.75502) scale(0.76803,0.76803)" font-size="40" xml:space="preserve" fill="#009fff" fill-rule="nonzero" stroke="#ffffff" stroke-width="5" stroke-linecap="butt" stroke-linejoin="miter" font-family="&quot;Microsoft YaHei&quot;, &quot;微软雅黑&quot;, STXihei, &quot;华文细黑&quot;" font-weight="normal" text-anchor="start"><tspan x="0" dy="0">原作者 @Cloud-Multiplayer</tspan><tspan x="0" dy="46.15px">云变量引擎 @griffpatch</tspan></text><path d="M176.2236,150.15889c44.47077,-0.00908 260.82468,-0.04297 286.51847,-0.04822c6.52906,-0.00133 11.94704,6.29152 11.94804,11.73588c0.00155,8.55569 0.00622,14.35021 0.00899,29.63813c0.00126,6.95535 -4.10479,11.73822 -11.26784,11.73799c-45.06196,-0.00141 -261.17325,-0.00662 -286.51846,-0.0074c-6.35607,-0.0002 -11.59831,-4.93563 -11.60002,-12.07527c-0.0037,-15.43918 -0.00984,-21.19789 -0.01187,-29.63811c-0.00126,-5.29181 3.97287,-11.34157 10.9227,-11.34298z" fill="#000000" fill-rule="evenodd" stroke="#000000" stroke-width="13" stroke-linecap="round" stroke-linejoin="round" opacity="0.42445"/><path d="M176.22361,150.49222c44.47077,-0.00908 260.82468,-0.04297 286.51847,-0.04822c6.52906,-0.00133 11.94704,6.29152 11.94804,11.73588c0.00155,8.55569 0.00622,14.35021 0.00899,29.63813c0.00126,6.95535 -4.10479,11.73822 -11.26784,11.73799c-45.06196,-0.00141 -261.17325,-0.00662 -286.51846,-0.0074c-6.35607,-0.0002 -11.59831,-4.93563 -11.60002,-12.07527c-0.0037,-15.43918 -0.00984,-21.19789 -0.01187,-29.63811c-0.00126,-5.29181 3.97287,-11.34157 10.9227,-11.34298z" fill="#000000" fill-rule="evenodd" stroke="none" stroke-width="0" stroke-linecap="round" stroke-linejoin="round" opacity="0.42445"/><text transform="translate(212.36128,190.76388) scale(0.89699,0.89699)" font-size="40" xml:space="preserve" fill="#000000" fill-rule="nonzero" stroke="#000000" stroke-width="5" stroke-linecap="butt" stroke-linejoin="miter" font-family="&quot;Microsoft YaHei&quot;, &quot;微软雅黑&quot;, STXihei, &quot;华文细黑&quot;" font-weight="normal" text-anchor="start"><tspan x="0" dy="0">选择一个皮肤</tspan></text><text transform="translate(212.36128,190.76424) scale(0.897,0.897)" font-size="40" xml:space="preserve" fill="#ffffff" fill-rule="nonzero" stroke="#ffffff" stroke-width="2" stroke-linecap="butt" stroke-linejoin="miter" font-family="&quot;Microsoft YaHei&quot;, &quot;微软雅黑&quot;, STXihei, &quot;华文细黑&quot;" font-weight="normal" text-anchor="start"><tspan x="0" dy="0">选择一个皮肤</tspan></text><text transform="translate(-289.25213,-31.75502) scale(0.76802,0.76802)" font-size="40" xml:space="preserve" fill="#009fff" fill-rule="nonzero" stroke="none" stroke-width="1" stroke-linecap="butt" stroke-linejoin="miter" font-family="&quot;Microsoft YaHei&quot;, &quot;微软雅黑&quot;, STXihei, &quot;华文细黑&quot;" font-weight="normal" text-anchor="start"><tspan x="0" dy="0">原作者 @Cloud-Multiplayer</tspan><tspan x="0" dy="46.15px">云变量引擎 @griffpatch</tspan></text></g></g></svg>