<svg version="1.1" xmlns="http://www.w3.org/2000/svg" xmlns:xlink="http://www.w3.org/1999/xlink" width="30.32437" height="299.26719" viewBox="0,0,30.32437,299.26719"><g transform="translate(-304.00895,-42.81166)"><g stroke-miterlimit="10"><path d="M304.02108,218.94714c0,-3.10286 0,-9.87133 0,-15.23018c0,-4.21577 3.34842,-7.55914 7.5633,-7.55914c5.31219,0 12.0007,0 15.09658,0c3.22655,0 7.65236,3.27436 7.65236,7.42553c0,5.35587 0,12.17131 0,15.29698c0,3.20659 -3.39519,7.58973 -7.65236,7.58973c-5.30561,0 -11.95006,0 -15.02978,0c-3.21946,0 -7.6301,-4.33771 -7.6301,-7.52293z" fill-opacity="0.4902" fill="#ffffff" stroke="none" stroke-width="0" stroke-linecap="butt"/><g stroke-linecap="butt"><path d="M304.02108,142.27293c0,-3.10286 0,-9.87133 0,-15.23018c0,-4.21577 3.34842,-7.55914 7.5633,-7.55914c5.31219,0 12.0007,0 15.09658,0c3.22655,0 7.65236,3.27436 7.65236,7.42553c0,5.35587 0,12.17131 0,15.29698c0,3.20659 -3.39519,7.58973 -7.65236,7.58973c-5.30561,0 -11.95006,0 -15.02978,0c-3.21946,0 -7.6301,-4.33771 -7.6301,-7.52293z" fill-opacity="0.4902" fill="#ffffff" stroke="none" stroke-width="0"/><path d="M312.04268,134.62124c0,-3.97368 3.2213,-7.19498 7.19498,-7.19498c3.97368,0 7.19498,3.2213 7.19498,7.19498c0,3.97368 -3.2213,7.19498 -7.19498,7.19498c-3.97368,0 -7.19498,-3.2213 -7.19498,-7.19498z" fill="#009bff" stroke="#ffffff" stroke-width="1"/><path d="M317.89838,144.47949v-2.6199h2.55272v2.6199z" fill="#ffffff" stroke="#ffffff" stroke-width="0.5"/><path d="M317.83612,127.41988v-2.6199h2.55273v2.6199z" fill="#ffffff" stroke="#ffffff" stroke-width="0.5"/><path d="M326.46262,135.98245v-2.61989h2.55273v2.61989z" fill="#ffffff" stroke="#ffffff" stroke-width="0.5"/><path d="M309.33906,135.98413v-2.61989h2.55273v2.61989z" fill="#ffffff" stroke="#ffffff" stroke-width="0.5"/><path d="M325.21001,142.44727l-1.85255,-1.85255l1.80505,-1.80505l1.85255,1.85255z" fill="#ffffff" stroke="#ffffff" stroke-width="0.5"/><path d="M313.07064,142.51286l-1.85255,-1.85255l1.80505,-1.80505l1.85255,1.85255z" fill="#ffffff" stroke="#ffffff" stroke-width="0.5"/><path d="M325.34108,130.30955l-1.85255,-1.85255l1.80505,-1.80505l1.85255,1.85255z" fill="#ffffff" stroke="#ffffff" stroke-width="0.5"/><path d="M313.01002,130.31122l-1.85255,-1.85255l1.80505,-1.80505l1.85255,1.85255z" fill="#ffffff" stroke="#ffffff" stroke-width="0.5"/><path d="M316.25837,134.63977c0,-1.61203 1.3068,-2.91883 2.91883,-2.91883c1.61203,0 2.91883,1.3068 2.91883,2.91883c0,1.61203 -1.3068,2.91883 -2.91883,2.91883c-1.61203,0 -2.91883,-1.3068 -2.91883,-2.91883z" fill="none" stroke="#ffffff" stroke-width="1"/></g><g stroke-linecap="butt"><path d="M304.02108,257.24931c0,-3.10286 0,-9.87133 0,-15.23018c0,-4.21577 3.34842,-7.55914 7.5633,-7.55914c5.31219,0 12.0007,0 15.09658,0c3.22655,0 7.65236,3.27436 7.65236,7.42553c0,5.35587 0,12.17131 0,15.29698c0,3.20659 -3.39519,7.58973 -7.65236,7.58973c-5.30561,0 -11.95006,0 -15.02978,0c-3.21946,0 -7.6301,-4.33771 -7.6301,-7.52293z" fill-opacity="0.4902" fill="#ffffff" stroke="none" stroke-width="0"/><g fill="#ffffff"><path d="M310.43836,247.15742c0,-2.26655 1.8374,-4.10396 4.10396,-4.10396c2.26655,0 4.10396,1.8374 4.10396,4.10396c0,2.26655 -1.8374,4.10396 -4.10396,4.10396c-2.26655,0 -4.10396,-1.8374 -4.10396,-4.10396z" stroke="#009bff" stroke-width="1"/><path d="M315.76225,250.89354c1.55681,0.9401 2.81619,2.39657 3.49149,4.23669c0.36318,0.98959 0.52576,2.00384 0.5084,2.99816c-0.00725,0.41515 -0.67763,1.2318 -1.22861,1.2318c-1.19657,0 -5.83861,0 -8.03103,0c-0.70688,0 -1.26617,-0.81612 -1.27345,-1.231c-0.01746,-0.99457 0.14511,-2.00909 0.50838,-2.99895c0.67532,-1.84011 1.93469,-3.29659 3.49149,-4.23669" stroke="#009bff" stroke-width="1"/><path d="M313.14777,251.61595v-1.83284h2.55003v1.83284z" stroke="none" stroke-width="0"/><path d="M317.43287,244.61391c0,-2.8423 2.30413,-5.14645 5.14644,-5.14645c2.8423,0 5.14645,2.30414 5.14645,5.14645c0,2.8423 -2.30414,5.14644 -5.14645,5.14644c-2.8423,0 -5.14644,-2.30413 -5.14644,-5.14644z" stroke="#009bff" stroke-width="1"/><path d="M324.1091,249.35072c1.95228,1.1789 3.53155,3.00535 4.37841,5.31289c0.49627,1.35224 0.69385,2.74118 0.62625,4.09449c-0.02034,0.4072 -0.59826,1.20996 -1.34772,1.20996c-2.72309,0 -9.18667,0 -10.62372,0c-0.55414,0 -1.19887,-0.8445 -1.21765,-1.27308c-0.05842,-1.33335 0.14066,-2.70014 0.62922,-4.03137c0.84685,-2.30755 2.42614,-4.13398 4.37841,-5.31289" stroke="#009bff" stroke-width="1"/><path d="M320.83051,250.25662v-2.2984h3.19779v2.2984z" stroke="none" stroke-width="0"/></g></g><g><path d="M304.02108,180.57439c0,-3.10286 0,-9.87133 0,-15.23018c0,-4.21577 3.34842,-7.55914 7.5633,-7.55914c5.31219,0 12.0007,0 15.09658,0c3.22655,0 7.65236,3.27436 7.65236,7.42553c0,5.35587 0,12.17131 0,15.29698c0,3.20659 -3.39519,7.58973 -7.65236,7.58973c-5.30561,0 -11.95006,0 -15.02978,0c-3.21946,0 -7.6301,-4.33771 -7.6301,-7.52293z" fill-opacity="0.4902" fill="#ffffff" stroke="none" stroke-width="0" stroke-linecap="butt"/><path d="M309.33906,174.9153c0,-1.09948 0,-4.42594 0,-6.32363c0,-0.81379 0.70247,-1.36483 1.80563,-1.36483c3.50082,0 11.03688,0 12.96347,0c0.8779,0 1.77312,0.62494 1.77312,1.52292c0,1.8528 0,4.868 0,5.95476c0,0.77214 -0.6439,1.71245 -1.66772,1.71245c-3.47198,0 -11.31305,0 -13.22694,0c-0.82423,0 -1.64755,-0.80738 -1.64755,-1.50166z" fill="#ffffff" stroke="#009bff" stroke-width="1" stroke-linecap="butt"/><path d="M317.5866,178.65558v-2.1208" fill="#00d9ff" stroke="#009bff" stroke-width="1" stroke-linecap="round"/><path d="M326.30544,170.22526c0,-0.42794 0,-1.52445 0,-2.26597c0,-0.42435 0.40725,-0.73246 0.70105,-0.73246c0.27289,0 0.8511,0 1.31743,0c0.38356,0 0.69143,0.37126 0.69143,0.67976c0,0.40754 0,1.49645 0,2.26597c0,0.47249 -0.3942,0.82457 -0.84952,0.82457c-0.4527,0 -0.96584,0 -1.21203,0c-0.27693,0 -0.64836,-0.4305 -0.64836,-0.77187z" fill="#ffffff" stroke="#009bff" stroke-width="1" stroke-linecap="butt"/><path d="M327.6605,171.07617l-0.00023,7.68628" fill="none" stroke="#009bff" stroke-width="1" stroke-linecap="round"/><path d="M319.68,178.65558h-4.18679" fill="#009bff" stroke="#009bff" stroke-width="1" stroke-linecap="round"/></g><path d="M304.02108,295.62791c0,-3.10286 0,-9.87133 0,-15.23018c0,-4.21577 3.34842,-7.55914 7.5633,-7.55914c5.31219,0 12.0007,0 15.09658,0c3.22655,0 7.65236,3.27436 7.65236,7.42553c0,5.35587 0,12.17131 0,15.29698c0,3.20659 -3.39519,7.58973 -7.65236,7.58973c-5.30561,0 -11.95006,0 -15.02978,0c-3.21946,0 -7.6301,-4.33771 -7.6301,-7.52293z" fill-opacity="0.4902" fill="#ffffff" stroke="none" stroke-width="0" stroke-linecap="butt"/><g fill="#ffffff" stroke-linecap="butt"><path d="M311.05471,282.99253c0,-2.8423 2.30413,-5.14645 5.14644,-5.14645c2.8423,0 5.14645,2.30414 5.14645,5.14645c0,2.8423 -2.30414,5.14644 -5.14645,5.14644c-2.8423,0 -5.14644,-2.30413 -5.14644,-5.14644z" stroke="#009bff" stroke-width="1"/><path d="M317.73094,287.72934c1.95228,1.1789 3.53155,3.00535 4.37841,5.31289c0.45094,1.22871 0.65527,2.48773 0.63812,3.7228c-0.0074,0.53314 -0.68087,1.58165 -1.24183,1.58165c-1.43473,0 -7.81469,0 -10.56048,0c-0.77745,0 -1.39214,-0.96445 -1.40499,-1.4545c-0.03344,-1.27571 0.16914,-2.57904 0.63556,-3.84995c0.84685,-2.30755 2.42614,-4.13398 4.37841,-5.31289" stroke="#009bff" stroke-width="1"/><path d="M314.45236,288.63524v-2.2984h3.19779v2.2984z" stroke="none" stroke-width="0"/></g><path d="M321.92076,282.01126c0,-0.83196 0,-1.79126 0,-2.24656c0,-0.50155 0.46758,-1.17436 1.16911,-1.17436c1.77909,0 5.06281,0 6.04074,0c0.54001,0 1.13081,0.54087 1.13081,0.97466c0,0.46984 0,1.57634 0,2.49618c0,0.78584 -0.40681,1.43544 -1.03097,1.43544c-1.74501,0 -5.18886,0 -6.19052,0c-0.53537,0 -1.11919,-0.68353 -1.11919,-1.48537z" fill="#ffffff" stroke="#009bff" stroke-width="1" stroke-linecap="butt"/><text transform="translate(323.62478,281.38964) scale(0.1511,0.1511)" font-size="40" xml:space="preserve" fill="#009bff" stroke="#009bff" stroke-width="1" stroke-linecap="butt" font-family="Sans Serif" font-weight="normal" text-anchor="start"><tspan x="0" dy="0">...</tspan></text><g><path d="M304.02108,103.9351c0,-3.10286 0,-9.87133 0,-15.23018c0,-4.21577 3.34842,-7.55914 7.5633,-7.55914c5.31219,0 12.0007,0 15.09658,0c3.22655,0 7.65236,3.27436 7.65236,7.42553c0,5.35587 0,12.17131 0,15.29698c0,3.20659 -3.39519,7.58973 -7.65236,7.58973c-5.30561,0 -11.95006,0 -15.02978,0c-3.21946,0 -7.6301,-4.33771 -7.6301,-7.52293z" fill-opacity="0.4902" fill="#ffffff" stroke="none" stroke-width="0" stroke-linecap="butt"/><path d="M313.53195,104.00277c0,-1.69905 0,-8.67553 0,-11.44579c0,-0.70818 -0.46095,-0.68052 -0.68422,-0.45725c-0.21409,0.21409 -0.86213,0.39593 -1.18357,0.0745c-0.57174,-0.57174 -1.42295,-1.42295 -1.73901,-1.739c-0.23547,-0.23547 -0.35699,-0.68631 -0.11395,-0.92936c0.5559,-0.5559 1.52188,-1.52189 1.86548,-1.86548c0.23869,-0.23869 0.82842,-0.5311 1.24887,-0.5311c0.79565,0 2.03226,0 2.52946,0c0.41107,0 1.26337,0.31323 1.618,0.66786c0.25674,0.25674 0.53518,0.53519 0.73219,0.73219c0.23917,0.23916 0.84348,0.35828 1.44407,0.3572c0.58992,-0.00106 1.17624,-0.11809 1.40943,-0.35128c0.20253,-0.20253 0.4915,-0.4915 0.75241,-0.75241c0.33509,-0.33509 0.84929,-0.62392 1.18963,-0.62392c0.87884,0 2.52429,0 3.03535,0c0.29712,0 0.90119,0.26873 1.25462,0.62216c0.51639,0.51639 1.21361,1.2136 1.51767,1.51767c0.2869,0.2869 0.4005,0.94233 0.04915,1.29368c-0.49016,0.49017 -1.13687,1.13687 -1.42282,1.42282c-0.27622,0.27623 -1.14595,0.14898 -1.38212,-0.08719c-0.21994,-0.21993 -0.63712,-0.11834 -0.63712,0.71212c0,2.88544 0,9.53344 0,11.25608c0,0.79569 -0.47017,1.62031 -1.21265,1.61822c-2.43118,-0.00686 -7.78211,-0.02194 -9.10704,-0.02568c-0.58082,-0.00163 -1.16384,-0.73879 -1.16384,-1.46607z" fill="#ffffff" stroke="#009bff" stroke-width="1" stroke-linecap="round"/></g><g><path d="M304.02108,65.60098c0,-3.10286 0,-9.87133 0,-15.23018c0,-4.21577 3.34842,-7.55914 7.5633,-7.55914c5.31219,0 12.0007,0 15.09658,0c3.22655,0 7.65236,3.27436 7.65236,7.42553c0,5.35587 0,12.17131 0,15.29698c0,3.20659 -3.39519,7.58973 -7.65236,7.58973c-5.30561,0 -11.95006,0 -15.02978,0c-3.21946,0 -7.6301,-4.33771 -7.6301,-7.52293z" fill-opacity="0.4902" fill="#ffffff" stroke="none" stroke-width="0" stroke-linecap="butt"/><g><path d="M310.15755,52.42676c0,-0.57608 0.54658,-1.33997 1.16522,-1.33997c1.99716,0 12.84129,0 16.56712,0c0.78813,0 1.25774,0.60578 1.25774,1.20743c0,1.33054 0,6.57768 0,9.14505c0,0.86835 -0.49473,1.43014 -1.30192,1.43014c-3.20905,0 -11.35649,0 -12.98862,0c-0.55749,0 -1.41897,0.18379 -1.91462,0.44076c-0.88566,0.45916 -2.22201,1.15199 -2.79194,1.44747c-0.51336,0.26614 -1.04952,-0.08374 -0.92573,-0.61822c0.13748,-0.59362 0.46149,-1.99269 0.68884,-2.97439c0.14038,-0.6062 0.24392,-1.75284 0.24392,-2.3765c0,-1.13882 0,-4.56826 0,-6.36178z" fill="#ffffff" stroke="#009bff" stroke-width="1" stroke-linecap="round"/><path d="M323.01553,56.90799c0,-0.58558 0.47471,-1.06029 1.06029,-1.06029c0.58558,0 1.06029,0.47471 1.06029,1.06029c0,0.58558 -0.47471,1.06029 -1.06029,1.06029c-0.58558,0 -1.06029,-0.47471 -1.06029,-1.06029z" fill="#009bff" stroke="none" stroke-width="0" stroke-linecap="butt"/><path d="M320.60557,56.90799c0,0.58558 -0.47471,1.06029 -1.06029,1.06029c-0.58558,0 -1.06029,-0.47471 -1.06029,-1.06029c0,-0.58558 0.47471,-1.06029 1.06029,-1.06029c0.58558,0 1.06029,0.47471 1.06029,1.06029z" fill="#009bff" stroke="none" stroke-width="0" stroke-linecap="butt"/><path d="M316.07501,56.90799c0,0.58558 -0.47471,1.06029 -1.06029,1.06029c-0.58558,0 -1.06029,-0.47471 -1.06029,-1.06029c0,-0.58558 0.47471,-1.06029 1.06029,-1.06029c0.58558,0 1.06029,0.47471 1.06029,1.06029z" fill="#009bff" stroke="none" stroke-width="0" stroke-linecap="butt"/></g></g><path d="M311.11456,134.63977c0,-4.45287 3.60977,-8.06264 8.06264,-8.06264c4.45287,0 8.06264,3.60977 8.06264,8.06264c0,4.45287 -3.60977,8.06264 -8.06264,8.06264c-4.45287,0 -8.06264,-3.60977 -8.06264,-8.06264z" fill="#ffffff" stroke="none" stroke-width="0" stroke-linecap="butt"/><path d="M316.54235,143.93149c0,-2.02219 0,-14.63375 0,-18.46503c0,-0.69631 0.47368,-1.1026 1.11043,-1.1026c1.01812,0 2.45314,0 3.03535,0c0.49273,0 1.12393,0.3817 1.12393,1.03936c0,3.76994 0,16.6076 0,18.5915c0,0.50467 -0.45492,0.92096 -0.93422,0.92096c-1.06313,0 -2.74198,0 -3.35153,0c-0.37255,0 -0.98396,-0.44827 -0.98396,-0.98421z" fill="#009bff" stroke="none" stroke-width="0" stroke-linecap="butt"/><path d="M323.88431,143.07307c-1.4299,-1.4299 -10.34762,-10.34762 -13.05675,-13.05675c-0.49236,-0.49236 -0.44472,-1.1146 0.00553,-1.56485c0.71992,-0.71992 1.73463,-1.73463 2.14631,-2.14631c0.34842,-0.34841 1.06465,-0.52483 1.52968,-0.0598c2.66575,2.66575 11.74335,11.74335 13.14619,13.14619c0.35686,0.35686 0.32954,0.9729 -0.00937,1.31181c-0.75175,0.75175 -1.93888,1.93888 -2.36989,2.3699c-0.26343,0.26344 -1.01274,0.37878 -1.39171,-0.00018z" fill="#009bff" stroke="none" stroke-width="0" stroke-linecap="butt"/><path d="M328.45677,137.28642c-2.02218,0 -14.63375,0 -18.46503,0c-0.69631,0 -1.1026,-0.47368 -1.1026,-1.11043c0,-1.01811 0,-2.45314 0,-3.03535c0,-0.49273 0.38171,-1.12393 1.03937,-1.12393c3.76994,0 16.60759,0 18.5915,0c0.50467,0 0.92097,0.45492 0.92097,0.93422c0,1.06313 0,2.74198 0,3.35153c0,0.37255 -0.44827,0.98396 -0.98421,0.98396z" fill="#009bff" stroke="none" stroke-width="0" stroke-linecap="butt"/><path d="M327.62748,129.93291c-1.4299,1.4299 -10.34762,10.34763 -13.05675,13.05676c-0.49236,0.49236 -1.1146,0.44471 -1.56485,-0.00554c-0.71992,-0.71992 -1.73463,-1.73463 -2.14631,-2.14631c-0.34842,-0.34841 -0.52483,-1.06465 -0.0598,-1.52968c2.66575,-2.66575 11.74334,-11.74335 13.14618,-13.14619c0.35686,-0.35686 0.9729,-0.32954 1.31182,0.00937c0.75175,0.75175 1.93887,1.93888 2.36989,2.3699c0.26343,0.26344 0.37879,1.01273 -0.00017,1.3917z" fill="#009bff" stroke="none" stroke-width="0" stroke-linecap="butt"/><path d="M311.11456,134.63977c0,-4.45287 3.60977,-8.06264 8.06264,-8.06264c4.45287,0 8.06264,3.60977 8.06264,8.06264c0,4.45287 -3.60977,8.06264 -8.06264,8.06264c-4.45287,0 -8.06264,-3.60977 -8.06264,-8.06264z" fill="#009bff" stroke="none" stroke-width="0" stroke-linecap="butt"/><path d="M314.06559,134.63977c0,-2.82306 2.28855,-5.11161 5.11161,-5.11161c2.82306,0 5.11161,2.28855 5.11161,5.11161c0,2.82306 -2.28855,5.11161 -5.11161,5.11161c-2.82306,0 -5.11161,-2.28855 -5.11161,-5.11161z" fill="#ffffff" stroke="none" stroke-width="0" stroke-linecap="butt"/><path d="M304.00895,334.55593c0,-3.10286 0,-9.87133 0,-15.23018c0,-4.21577 3.34842,-7.55914 7.5633,-7.55914c5.31219,0 12.0007,0 15.09658,0c3.22655,0 7.65236,3.27436 7.65236,7.42553c0,5.35587 0,12.17131 0,15.29698c0,3.20659 -3.39519,7.58973 -7.65236,7.58973c-5.30561,0 -11.95006,0 -15.02978,0c-3.21946,0 -7.6301,-4.33771 -7.6301,-7.52293z" fill-opacity="0.4902" fill="#ffffff" stroke="none" stroke-width="0" stroke-linecap="butt"/><path d="M308.38765,329.77884c0,-2.15589 0,-4.64176 0,-5.8216c0,-1.29969 1.21166,-3.04317 3.02956,-3.04317c4.61023,0 13.11946,0 15.65361,0c1.39935,0 2.93031,1.40158 2.93031,2.52568c0,1.21752 0,4.08483 0,6.46845c0,2.03638 -1.05418,3.71971 -2.67159,3.71971c-4.52191,0 -13.4461,0 -16.04174,0c-1.38733,0 -2.9002,-1.77126 -2.9002,-3.8491z" fill="#ffffff" stroke="#009bff" stroke-width="1" stroke-linecap="butt"/><text transform="translate(312.80335,328.16796) scale(0.39155,0.39155)" font-size="40" xml:space="preserve" fill="#009bff" stroke="#009bff" stroke-width="1" stroke-linecap="butt" font-family="Sans Serif" font-weight="normal" text-anchor="start"><tspan x="0" dy="0">...</tspan></text><path d="M326.00985,213.16828c0,0 0,3.53688 0,5.04792c0,1.23137 -1.41076,3.35224 -3.35074,3.35224c-3.3758,0 -8.35408,0 -10.28987,0c-1.53699,0 -3.46795,-1.881 -3.46795,-3.39089c0,-1.91413 0,-6.86492 0,-10.26399c0,-1.99379 2.16741,-3.45369 3.41812,-3.45369c1.52159,0 5.0591,0 5.0591,0v3.39088c0,0 -0.87901,0 -1.17702,0c-0.18249,0 -0.44136,0.17677 -0.44136,0.40568c0,0.31458 0,0.72764 0,0.91569c0,0.18984 0.23968,0.45114 0.41351,0.45114c0.29673,0 1.20487,0 1.20487,0l-0.01853,3.34405l3.51884,-0.01435c0,0 0,-0.85805 0,-1.15661c0,-0.18865 0.22183,-0.46177 0.39248,-0.46177c0.18708,0 0.6271,0 0.96036,0c0.23678,0 0.41967,0.29685 0.41967,0.49527c0,0.29879 0,1.1231 0,1.1231h3.35355z" fill="#ffffff" stroke="#009bff" stroke-width="1" stroke-linecap="round"/><g stroke-linecap="round"><path d="M329.37404,204.54244c0,1.51942 0,5.08618 0,5.08618l-3.36423,-0.00857c0,0 -0.00857,-0.90518 -0.00857,-1.20453c0,-0.15057 -0.20859,-0.39947 -0.42041,-0.39947c-0.34818,0 -0.76691,-0.00858 -0.9554,-0.00858c-0.1456,0 -0.3842,0.26713 -0.3842,0.42869c0,0.3034 0.00947,1.19606 0.00947,1.19606l-3.51299,0.01625l0.01087,-3.33906c0,0 -0.90947,0 -1.21509,0c-0.15094,0 -0.40683,-0.24735 -0.40683,-0.46447c0,-0.35586 0,-0.77509 0,-0.96198c0,-0.1393 0.27141,-0.35711 0.41667,-0.35711c0.30298,0 1.19667,0.00858 1.19667,0.00858v-3.39589c0,0 3.71355,0.02191 5.27427,0.03112c0.58396,0.00344 1.45459,0.33968 2.11298,0.9655c0.74603,0.70912 1.24679,1.75197 1.24679,2.40729z" fill="#009bff" stroke="none" stroke-width="0"/><path d="M326.68031,204.7728h-3.38257" fill="none" stroke="#ffffff" stroke-width="1"/><path d="M324.98902,206.46409v-3.38258" fill="none" stroke="#ffffff" stroke-width="1"/></g></g></g></svg>