<svg version="1.1" xmlns="http://www.w3.org/2000/svg" xmlns:xlink="http://www.w3.org/1999/xlink" width="43.50004" height="19.07672" viewBox="0,0,43.50004,19.07672"><g transform="translate(-243.76541,-169.9797)"><g data-paper-data="{&quot;isPaintingLayer&quot;:true}" fill-rule="nonzero" stroke-linecap="butt" stroke-linejoin="miter" stroke-miterlimit="10" stroke-dasharray="" stroke-dashoffset="0" style="mix-blend-mode: normal"><g stroke-width="1.5"><path d="M244.89418,184.9197c0,0 0.81047,-1.24966 1.42555,-2.86891c0.2728,-0.71817 0.10302,-1.89322 0.92725,-2.4084c2.68263,-1.67676 4.16746,-0.08625 4.16746,-0.08625l-1.80804,7.21618z" fill="#8e6d4a" stroke="#1c1a1f"/><path d="M248.43232,181.9472c1.16559,-2.03609 3.76105,-2.74176 5.79714,-1.57617c2.03609,1.16559 2.74176,3.76105 1.57617,5.79714c-1.16559,2.03609 -3.76104,2.74176 -5.79714,1.57617c-2.03609,-1.16559 -2.74177,-3.76105 -1.57617,-5.79714z" fill="#dbac68" stroke="#181714"/></g><g stroke-width="1.5"><path d="M248.47978,178.48242c0,0 -3.09916,-4.25568 -1.759,-6.52887c0.1088,-0.18454 1.07144,-1.14215 1.07144,-1.14215l11.29478,2.87267l-1.80804,7.21618z" fill="#8e6d4a" stroke="#1c1a1f"/><path d="M256.10488,175.7273c1.16559,-2.03609 3.76105,-2.74176 5.79714,-1.57617c2.03609,1.16559 2.74176,3.76105 1.57617,5.79714c-1.16559,2.03609 -3.76104,2.74176 -5.79714,1.57617c-2.03609,-1.16559 -2.74176,-3.76105 -1.57616,-5.79714z" fill="#dbac68" stroke="#181714"/></g><g><path d="M248.23913,182.93048v-4.73684c0,0 11.3958,-0.93504 15.62926,-0.79214c4.07639,0.1376 11.68653,1.45778 11.68653,1.45778v3.26316c0,0 -7.55988,1.4498 -11.68165,1.59763c-4.1928,0.15037 -15.63414,-0.78959 -15.63414,-0.78959z" fill="#4d5365" stroke="#1e1b1a" stroke-width="1"/><path d="M266.1865,181.64875v-2.36843c0,0 17.61258,0 19.79876,0c0.43398,0 0.78019,0.319 0.78019,0.55831c0,0.23552 0,0.75438 0,1.17647c0,0.35012 -0.34621,0.63365 -0.78019,0.63365c-2.18618,0 -19.79876,0 -19.79876,0z" fill="#a4b6c4" stroke="#1e1b1a" stroke-width="1"/><path d="M254.76969,179.31146l2.80588,-0.03954l-0.14435,3.87773l-2.79925,-0.00921z" fill="#59585f" stroke="#1e1b1a" stroke-width="0.75"/><path d="M257.86761,183.25039v-1.41176h2.82353v1.58824z" fill="#d3e0d5" stroke="#1e1b1a" stroke-width="0.5"/><path d="M248.1865,181.7602v-2.36842l10.79232,-0.23975l4.32424,-0.45466l3.1466,0.0102v3.68421l-3.25081,-0.03025l-4.17392,-0.54776z" fill="#7a778c" stroke="#1e1b1a" stroke-width="0.75"/><path d="M284.83355,181.35463v-1.83901h1.75542v1.83901z" fill="#a4b6c4" stroke="#1e1b1a" stroke-width="0.5"/><path d="M276.89238,181.41346v-1.83902h1.57895v1.83902z" fill="#a4b6c4" stroke="#1e1b1a" stroke-width="0.5"/><path d="M248.5778,180.55296v-0.7622l10.40693,-0.23119l4.16982,-0.43842l3.03424,0.00984v0.73875z" fill="#9996aa" stroke="none" stroke-width="0"/><path d="M264.95012,178.69737l1.49954,0.0102v3.68421l-1.54493,-0.03025z" fill="none" stroke="#1e1b1a" stroke-width="0.75"/><path d="M256.80767,179.20026l2.17114,-0.04823l0.04611,2.66174l-2.21654,-0.01096z" fill="#272e2d" stroke="#1e1b1a" stroke-width="0.75"/><path d="M258.97882,179.26269l1.30863,-0.17088l-0.00992,2.87862l-1.25259,-0.15051z" fill="#414142" stroke="#1e1b1a" stroke-width="0.75"/><path d="M254.45459,179.25253l1.17981,-0.02621l-0.0607,2.57039l-1.17702,-0.00611z" fill="#414142" stroke="#1e1b1a" stroke-width="0.75"/><path d="M258.63232,180.57392c0,0.40609 -0.3292,0.73529 -0.73529,0.73529c-0.40609,0 -0.73529,-0.3292 -0.73529,-0.73529c0,-0.40609 0.3292,-0.73529 0.73529,-0.73529c0.40609,0 0.73529,0.3292 0.73529,0.73529z" fill="#d3e0d5" stroke="none" stroke-width="0"/><path d="M257.39702,184.30921c0,0.61726 -0.50038,1.11765 -1.11764,1.11765c-0.61726,0 -1.11765,-0.50039 -1.11765,-1.11765c0,-0.61726 0.50039,-1.11764 1.11765,-1.11764c0.61726,0 1.11764,0.50038 1.11764,1.11764z" fill="#d3e0d5" stroke="#1e1b1a" stroke-width="0.5"/></g></g></g></svg>