<svg version="1.1" xmlns="http://www.w3.org/2000/svg" xmlns:xlink="http://www.w3.org/1999/xlink" width="460.681" height="355.90517" viewBox="0,0,460.681,355.90517"><g transform="translate(-71.87381,63.55001)"><g stroke-miterlimit="10"><path d="M108.19524,281.31664c0,-43.85523 0,-214.0596 0,-238.63976c0,-5.79772 5.02576,-10.48108 11.70165,-10.48108c35.41444,0 336.79779,0 400.22314,0c7.5109,0 11.68478,4.57062 11.68478,10.25341c0,24.40656 0,195.41366 0,239.04294c0,6.44729 -4.09993,10.113 -11.48478,10.113c-62.89724,0 -364.08387,0 -400.02313,0c-6.88676,0 -12.10164,-3.73239 -12.10164,-10.28851z" fill-opacity="0.76863" fill="#ffffff" stroke="#009fff" stroke-width="1.5" stroke-linecap="butt"/><text transform="translate(261.60004,-42.10001) scale(0.5,0.5)" font-size="40" xml:space="preserve" fill="#ff0000" stroke="none" stroke-width="1" stroke-linecap="butt" font-family="Sans Serif" font-weight="normal" text-anchor="start"><tspan x="0" dy="0"> </tspan></text><path d="M72.62381,283.96666c0,-4.42509 0,-9.61352 0,-12.17391c0,-2.9905 4.33804,-7.18759 7.39104,-7.18759c2.58471,0 7.78006,0 12.17391,0c4.05962,0 7.43505,4.19709 7.43505,7.18759c0,2.56039 0,7.74882 0,12.17391c0,4.15589 -4.52051,7.6385 -7.65244,7.6385c-2.57218,0 -7.64879,0 -11.95652,0c-4.03239,0 -7.39104,-3.4826 -7.39104,-7.6385z" fill-opacity="0.76863" fill="#ffffff" stroke="#009fff" stroke-width="1.5" stroke-linecap="butt"/><path d="M93.03981,272.29461l-6.91597,12.49068" fill="none" stroke="#009fff" stroke-width="3.5" stroke-linecap="round"/><path d="M86.12384,284.78529l-6.91597,-12.49069" fill="none" stroke="#009fff" stroke-width="3.5" stroke-linecap="round"/><path d="M99.62384,229.63496c0,4.42509 0,9.61351 0,12.17391c0,2.99051 -4.33804,7.1876 -7.39104,7.18759c-2.58471,0 -7.78006,0 -12.17391,0c-4.05963,0 -7.43505,-4.19709 -7.43505,-7.18759c0,-2.56039 0,-7.74882 0,-12.17391c0,-4.15589 4.5205,-7.6385 7.65243,-7.63849c2.57218,0 7.6488,0 11.95653,0c4.03239,0 7.39104,3.48261 7.39104,7.6385z" fill-opacity="0.76863" fill="#ffffff" stroke="#009fff" stroke-width="1.5" stroke-linecap="butt"/><path d="M79.20785,241.30702l6.91597,-12.49068" fill="none" stroke="#009fff" stroke-width="3.5" stroke-linecap="round"/><path d="M86.12384,228.81633l6.91598,12.49069" fill="none" stroke="#009fff" stroke-width="3.5" stroke-linecap="round"/><text transform="translate(83.74286,143.45713) scale(0.5,0.5)" font-size="40" xml:space="preserve" fill="#009fff" stroke="none" stroke-width="1" stroke-linecap="butt" font-family="Sans Serif" font-weight="normal" text-anchor="start"><tspan x="0" dy="0"> </tspan></text><text transform="translate(118.69743,55.57953) scale(0.38967,0.38967)" font-size="40" xml:space="preserve" fill="#000000" stroke="none" stroke-width="1" stroke-linecap="butt" font-family="Sans Serif" font-weight="normal" text-anchor="start"><tspan x="0" dy="0">此版本为紧急修复版本</tspan><tspan x="0" dy="48px">修复版本：Saychat v3.2.4</tspan><tspan x="0" dy="48px">该版本为：Saychat v3.2.5-Beta1.0</tspan><tspan x="0" dy="48px">（Saychat v3.2.5正式版将会有神秘人加入Saychat开发组）</tspan></text><text transform="translate(122.60001,164.59999) scale(0.5,0.5)" font-size="40" xml:space="preserve" fill="#3779a2" stroke="none" stroke-width="1" stroke-linecap="butt" font-family="Sans Serif" font-weight="normal" text-anchor="start"><tspan x="0" dy="0">所有制作人员移动至“关于”栏目</tspan></text></g></g></svg>