<svg version="1.1" xmlns="http://www.w3.org/2000/svg" xmlns:xlink="http://www.w3.org/1999/xlink" width="327.92675" height="193.13088" viewBox="0,0,327.92675,193.13088"><g transform="translate(-34.6733,1.40497)"><g stroke="none" stroke-miterlimit="10"><text transform="translate(34.83992,66.09206) scale(0.33324,0.33324)" font-size="40" xml:space="preserve" fill="#ffffff" stroke-width="1" font-family="Sans Serif" font-weight="normal" text-anchor="start"><tspan x="0" dy="0">为了您的账号安全所有项均区分大小写</tspan></text><text transform="translate(35.61563,131.74472) scale(0.5,0.5)" font-size="40" xml:space="preserve" fill="#ffffff" stroke-width="1" font-family="Sans Serif" font-weight="400" text-anchor="start"><tspan x="0" dy="0">用户名</tspan><tspan x="0" dy="48px"> </tspan><tspan x="0" dy="48px">    密码</tspan></text><path d="M109.60006,137.27954c0,-6.89113 0,-17.32228 0,-21c0,-2.5537 2.7253,-5.55365 6.39996,-5.55365c20.3516,0 200.69599,0 239.33333,0c4.66721,0 7.2667,4.07261 7.2667,7.22032c0,3.61594 0,12.36348 0,18.66667c0,4.06477 -2.59959,7.11301 -7.2667,7.11301c-38.55647,0 -218.22004,0 -239,0c-3.85194,0 -6.7333,-2.70006 -6.7333,-6.44635z" fill-opacity="0.8" fill="#ffffff" stroke-width="0"/><path d="M109.60005,185.27956c0,-6.89113 0,-17.32228 0,-21c0,-2.5537 2.7253,-5.55365 6.39996,-5.55365c20.3516,0 200.69599,0 239.33334,0c4.66721,0 7.2667,4.07261 7.2667,7.22032c0,3.61595 0,12.36349 0,18.66667c0,4.06476 -2.59959,7.11301 -7.2667,7.11301c-38.55647,0 -218.22005,0 -239,0c-3.85194,0 -6.7333,-2.70006 -6.7333,-6.44634z" fill-opacity="0.8" fill="#ffffff" stroke-width="0"/><text transform="translate(219.11571,32.60701) scale(0.79282,0.79282)" font-size="40" xml:space="preserve" fill="#ffffff" stroke-width="1" font-family="Sans Serif" font-weight="400" text-anchor="start"><tspan x="0" dy="0">登录</tspan></text></g></g></svg>