<svg version="1.1" xmlns="http://www.w3.org/2000/svg" xmlns:xlink="http://www.w3.org/1999/xlink" width="149.3982" height="257.01556" viewBox="0,0,149.3982,257.01556"><g transform="translate(-165.3009,-51.49221)"><g stroke-miterlimit="10"><path d="M178.75261,57.52512c30.33892,-0.00619 104.2603,-0.02931 121.78915,-0.0329c4.45427,-0.00091 8.15053,4.29221 8.15121,8.00647c0.00106,5.83688 0.00424,218.57144 0.00613,229.00118c0.00086,4.74509 -2.80038,8.00807 -7.68716,8.00791c-30.74225,-0.00096 -104.49811,-0.00452 -121.78915,-0.00505c-4.33625,-0.00014 -7.91262,-3.36719 -7.91379,-8.23801c-0.00252,-10.53294 -0.00671,-223.24306 -0.00809,-229.00117c-0.00086,-3.61019 2.71038,-7.73746 7.4517,-7.73842z" fill="#000000" fill-rule="evenodd" stroke="none" stroke-width="0" stroke-linecap="round" stroke-linejoin="round" opacity="0.42445"/><path d="M178.7526,57.52511c30.33892,-0.00619 104.2603,-0.02931 121.78915,-0.0329c4.45427,-0.0009 8.15053,4.29221 8.15121,8.00647c0.00106,5.83688 0.00425,218.57144 0.00614,229.00118c0.00086,4.74509 -2.80038,8.00806 -7.68716,8.00791c-30.74224,-0.00096 -104.4981,-0.00451 -121.78915,-0.00505c-4.33625,-0.00014 -7.91262,-3.36719 -7.91379,-8.23801c-0.00253,-10.53294 -0.00671,-223.24306 -0.0081,-229.00117c-0.00086,-3.61018 2.71038,-7.73747 7.4517,-7.73843z" fill="#000000" fill-rule="evenodd" stroke="#000000" stroke-width="0" stroke-linecap="round" stroke-linejoin="round" opacity="0.42445"/><path d="M178.7526,57.52511c30.33892,-0.00619 104.2603,-0.02931 121.78915,-0.0329c4.45427,-0.0009 8.15053,4.29221 8.15121,8.00647c0.00106,5.83688 0.00425,218.57144 0.00614,229.00118c0.00086,4.74509 -2.80038,8.00806 -7.68716,8.00791c-30.74224,-0.00096 -104.4981,-0.00451 -121.78915,-0.00505c-4.33625,-0.00014 -7.91262,-3.36719 -7.91379,-8.23801c-0.00253,-10.53294 -0.00671,-223.24306 -0.0081,-229.00117c-0.00086,-3.61018 2.71038,-7.73747 7.4517,-7.73843z" fill="#000000" fill-rule="evenodd" stroke="#000000" stroke-width="12" stroke-linecap="round" stroke-linejoin="round" opacity="0.42445"/><text transform="translate(178.46075,78.53337) scale(0.38393,0.38393)" font-size="40" xml:space="preserve" fill="#ffffff" fill-rule="nonzero" stroke="#ffffff" stroke-width="0.75" stroke-linecap="butt" stroke-linejoin="miter" font-family="Malgun Gothic" font-weight="normal" text-anchor="start"><tspan x="0" dy="0">[1] 对不起</tspan><tspan x="0" dy="46.150000000000006px">[2] 3Q歪维妈吃</tspan><tspan x="0" dy="46.150000000000006px">[3] 过来一下</tspan><tspan x="0" dy="46.150000000000006px">[4] 哈哈哈</tspan><tspan x="0" dy="46.150000000000006px">[5] 搞错了</tspan><tspan x="0" dy="46.150000000000006px">[6] 彳亍</tspan><tspan x="0" dy="46.150000000000006px">[7] 没事bro</tspan><tspan x="0" dy="46.150000000000006px">[8] 想干一场吗bro</tspan></text><text transform="translate(228.12195,282.25897) scale(0.39658,0.39658)" font-size="40" xml:space="preserve" fill="#ffffff" fill-rule="nonzero" stroke="#ffffff" stroke-width="1" stroke-linecap="butt" stroke-linejoin="miter" font-family="Malgun Gothic" font-weight="normal" text-anchor="start"><tspan x="0" dy="0">2/2</tspan></text></g></g></svg>