<svg version="1.1" xmlns="http://www.w3.org/2000/svg" xmlns:xlink="http://www.w3.org/1999/xlink" width="31.34116" height="31.6855" viewBox="0,0,31.34116,31.6855"><g transform="translate(-304.32942,-164.15725)"><g stroke-miterlimit="10"><path d="M312.61175,167.18057c21.50651,-0.00439 1.85052,-0.02078 14.27629,-0.02332c3.15752,-0.00064 5.77771,3.04264 5.77819,5.67559c0.00075,4.13762 0.00301,6.93991 0.00435,14.3333c0.00061,3.36368 -1.98512,5.67672 -5.44924,5.67661c-21.79242,-0.00068 -2.01909,-0.0032 -14.27629,-0.00358c-3.07386,-0.0001 -5.60906,-2.38692 -5.60989,-5.83972c-0.00179,-7.46654 -0.00476,-10.25151 -0.00574,-14.33329c-0.00061,-2.55917 1.92132,-5.4849 5.28233,-5.48558z" fill="#000000" fill-rule="evenodd" stroke="#000000" stroke-width="6" stroke-linecap="round" stroke-linejoin="round" opacity="0.42445"/><path d="M312.61175,167.18057c21.50651,-0.00439 1.85052,-0.02078 14.27629,-0.02332c3.15752,-0.00064 5.77771,3.04264 5.77819,5.67559c0.00075,4.13762 0.00301,6.93991 0.00435,14.3333c0.00061,3.36368 -1.98512,5.67672 -5.44924,5.67661c-21.79242,-0.00068 -2.01909,-0.0032 -14.27629,-0.00358c-3.07386,-0.0001 -5.60906,-2.38692 -5.60989,-5.83972c-0.00179,-7.46654 -0.00476,-10.25151 -0.00574,-14.33329c-0.00061,-2.55917 1.92132,-5.4849 5.28233,-5.48558z" fill="#000000" fill-rule="evenodd" stroke="#000000" stroke-width="0" stroke-linecap="round" stroke-linejoin="round" opacity="0.42445"/><path d="M313.17006,180.00001c0,-3.77776 3.06248,-6.84024 6.84024,-6.84024c3.77776,0 6.84024,3.06248 6.84024,6.84024c0,3.77776 -3.06248,6.84024 -6.84024,6.84024c-3.77776,0 -6.84024,-3.06248 -6.84024,-6.84024z" fill="#ffffff" fill-rule="nonzero" stroke="none" stroke-width="0" stroke-linecap="butt" stroke-linejoin="miter"/><path d="M317.75039,187.88297c0,-1.7156 0,-12.41508 0,-15.66548c0,-0.59074 0.39995,-0.93543 0.93758,-0.93543c0.85965,0 2.07128,0 2.56287,0c0.41604,0 0.94898,0.32384 0.94898,0.88178c0,3.19836 0,14.08966 0,15.77278c0,0.42816 -0.38411,0.78133 -0.7888,0.78133c-0.89765,0 -2.31517,0 -2.82984,0c-0.31456,0 -0.8308,-0.3803 -0.8308,-0.83499z" fill="#009bff" fill-rule="nonzero" stroke="none" stroke-width="0" stroke-linecap="butt" stroke-linejoin="miter"/><path d="M323.94952,187.15474c-1.20733,-1.21311 -8.73694,-8.77878 -11.02436,-11.07717c-0.41572,-0.41771 -0.37549,-0.94561 0.00467,-1.3276c0.60785,-0.61077 1.46463,-1.47164 1.81223,-1.8209c0.29419,-0.29558 0.89892,-0.44526 1.29157,-0.05073c2.25081,2.26158 9.91541,9.9629 11.09988,11.15304c0.30131,0.30275 0.27825,0.82539 -0.00791,1.11292c-0.63473,0.63778 -1.63707,1.64492 -2.00099,2.01059c-0.22242,0.2235 -0.8551,0.32135 -1.17508,-0.00016z" fill="#009bff" fill-rule="nonzero" stroke="none" stroke-width="0" stroke-linecap="butt" stroke-linejoin="miter"/><path d="M327.88295,182.24539c-1.71559,0 -12.41508,0 -15.66548,0c-0.59074,0 -0.93543,-0.40186 -0.93543,-0.94207c0,-0.86375 0,-2.08122 0,-2.57515c0,-0.41803 0.32385,-0.95352 0.88179,-0.95352c3.19837,0 14.08965,0 15.77278,0c0.42816,0 0.78134,0.38595 0.78134,0.79258c0,0.90195 0,2.32626 0,2.84339c0,0.31607 -0.38031,0.83478 -0.83499,0.83478z" fill="#009bff" fill-rule="nonzero" stroke="none" stroke-width="0" stroke-linecap="butt" stroke-linejoin="miter"/><path d="M327.1794,176.00677c-1.21311,1.21311 -8.77878,8.77879 -11.07717,11.07718c-0.41771,0.41771 -0.94561,0.37728 -1.32759,-0.0047c-0.61077,-0.61077 -1.47164,-1.47163 -1.8209,-1.8209c-0.29559,-0.29558 -0.44526,-0.90323 -0.05073,-1.29776c2.26159,-2.26158 9.9629,-9.9629 11.15304,-11.15304c0.30275,-0.30275 0.8254,-0.27958 1.11293,0.00795c0.63777,0.63778 1.6449,1.64491 2.01058,2.01058c0.22349,0.2235 0.32136,0.85919 -0.00015,1.1807z" fill="#009bff" fill-rule="nonzero" stroke="none" stroke-width="0" stroke-linecap="butt" stroke-linejoin="miter"/><path d="M313.17006,180.00001c0,-3.77776 3.06248,-6.84024 6.84024,-6.84024c3.77776,0 6.84024,3.06248 6.84024,6.84024c0,3.77776 -3.06248,6.84024 -6.84024,6.84024c-3.77776,0 -6.84024,-3.06248 -6.84024,-6.84024z" fill="#009bff" fill-rule="nonzero" stroke="none" stroke-width="0" stroke-linecap="butt" stroke-linejoin="miter"/><path d="M315.67367,180.00001c0,-2.39505 1.94157,-4.33662 4.33662,-4.33662c2.39505,0 4.33662,1.94158 4.33662,4.33662c0,2.39505 -1.94157,4.33662 -4.33662,4.33662c-2.39505,0 -4.33662,-1.94157 -4.33662,-4.33662z" fill="#ffffff" fill-rule="nonzero" stroke="none" stroke-width="0" stroke-linecap="butt" stroke-linejoin="miter"/></g></g></svg>