<svg version="1.1" xmlns="http://www.w3.org/2000/svg" xmlns:xlink="http://www.w3.org/1999/xlink" width="368.69824" height="38.76336" viewBox="0,0,368.69824,38.76336"><g transform="translate(-135.64354,-156.12386)"><g stroke-miterlimit="10"><path d="M136.39354,170.16688c1.16452,-0.98626 2.4634,-1.84387 3.80707,-2.6586c-0.44789,-5.36009 2.37382,-9.99121 3.76228,-10.63442c1.65719,-0.77185 7.3902,5.61737 8.24119,6.60362c3.76228,-0.55745 7.61414,-0.55745 11.37643,0c0.85099,-0.98626 6.58399,-7.37547 8.24119,-6.60362c1.38846,0.64321 4.21017,5.27433 3.76228,10.63442c1.34367,0.77185 2.64256,1.67235 3.80707,2.61572h322.40917c0.98945,0 1.79156,0.76794 1.79156,1.71524v17.15228c0,0.94729 -0.80211,1.71524 -1.79156,1.71524h-343.90793c-0.89578,0 -1.34367,0.42881 -1.79156,0.85761l-1.79156,1.71524c-0.44789,0.4288 -0.89578,0.85761 -1.79156,0.85761h-5.37469c-0.89578,0 -1.34367,-0.42881 -1.79156,-0.85761l-1.79156,-1.71524c-0.44789,-0.4288 -0.89578,-0.85761 -1.79156,-0.85761h-3.58313c-0.98945,0 -1.79156,-0.76794 -1.79156,-1.71524z" fill="#ffbf00" stroke="#cc9900" stroke-width="1.5"/><g stroke="none" stroke-width="1"><g><path d="M147.27728,167.24598c-0.08958,-0.23842 0.08958,-0.52452 0.31352,-0.5722l1.79156,-0.47684l-1.52283,-1.04904c-0.22394,-0.14306 -0.26873,-0.42916 -0.13436,-0.66757c0.13437,-0.23842 0.4031,-0.2861 0.62705,-0.14305l3.13523,2.28881l-3.71749,1.00136c0,0 -0.04479,0 -0.08958,0c-0.22394,0 -0.4031,-0.14306 -0.4031,-0.38147z" fill-opacity="0" fill="#000000"/><path d="M164.34192,167.62745c-0.04479,0 -0.08958,0 -0.08958,0l-3.71749,-1.00136l3.13523,-2.28881c0.22394,-0.14306 0.49268,-0.09537 0.62705,0.14305c0.13437,0.23842 0.08958,0.52452 -0.13436,0.66757l-1.52283,1.09673l1.79156,0.47683c0.22394,0.04769 0.4031,0.33379 0.31352,0.5722c-0.04479,0.19073 -0.22395,0.33379 -0.4031,0.33379z" fill-opacity="0" fill="#000000"/><path d="M161.38583,166.57841c0,-0.89539 0.68179,-1.62125 1.52283,-1.62125c0.84104,0 1.52283,0.72585 1.52283,1.62125c0,0.89539 -0.68179,1.62125 -1.52283,1.62125c-0.84104,0 -1.52283,-0.72585 -1.52283,-1.62125z" fill-opacity="0.6" fill="#000000"/><path d="M147.90433,166.57841c0,-0.89539 0.68179,-1.62125 1.52283,-1.62125c0.84104,0 1.52283,0.72585 1.52283,1.62125c0,0.89539 -0.68179,1.62125 -1.52283,1.62125c-0.84104,0 -1.52283,-0.72585 -1.52283,-1.62125z" fill-opacity="0.6" fill="#000000"/><path d="M156.81734,168.19966c-0.4031,0 -0.76141,-0.14306 -1.03015,-0.42916c-0.26873,0.2861 -0.58226,0.42916 -0.98536,0.42916c-0.4031,0 -0.80621,-0.14306 -1.03015,-0.42916c-0.44789,-0.52452 -0.49268,-1.23977 -0.49268,-1.33514c0,-0.23842 0.22395,-0.47683 0.44789,-0.47683v0c0.26873,0 0.44789,0.23842 0.44789,0.47683c0,0.19073 0.04479,0.81063 0.62705,0.81063c0.22394,0 0.31352,-0.09537 0.35831,-0.14306c0.13437,-0.14306 0.17915,-0.47683 0.17915,-0.61989c0,-0.04769 0,-0.04769 0,-0.09537c0,-0.23842 0.22395,-0.47683 0.44789,-0.47683v0c0.22394,0 0.44789,0.19073 0.44789,0.47683c0,0 0,0.04769 0,0.09537c0,0.14306 0.04479,0.42915 0.17916,0.5722c0.04479,0.04769 0.13436,0.14306 0.35831,0.14306c0.22394,0 0.31352,-0.09537 0.35831,-0.14306c0.13437,-0.19073 0.17916,-0.52452 0.13437,-0.61989c0,-0.23842 0.17915,-0.47683 0.4031,-0.52452c0.22394,0 0.44789,0.19074 0.49268,0.42916c0,0.09537 0.04479,0.8583 -0.35831,1.33513c-0.13437,0.2861 -0.44789,0.52453 -0.98536,0.52453z" fill-opacity="0.6" fill="#000000"/></g><path d="M169.13435,160.71333c0.76141,-2.00271 2.01551,-4.3392 2.59777,-4.0531c0.71663,0.38147 2.41861,3.767 2.23946,7.34327c0,0.2861 -0.31353,0.33379 -0.49268,0.23842c-1.34367,-0.76294 -2.8665,-1.33513 -3.85186,-1.71661c-0.62705,-0.23842 -0.8062,-0.90599 -0.49268,-1.81198z" fill="#ffd5e6"/><path d="M145.93361,162.52531c-0.98536,0.38147 -2.50819,0.95366 -3.85186,1.71661c-0.17915,0.09537 -0.49268,0.04769 -0.49268,-0.23842c-0.17915,-3.57627 1.52283,-6.9618 2.23946,-7.34327c0.58226,-0.2861 1.83635,2.05039 2.59777,4.0531c0.35831,0.90599 0.17916,1.57356 -0.49268,1.81198z" fill="#ffd5e6"/></g></g></g></svg>