<svg version="1.1" xmlns="http://www.w3.org/2000/svg" xmlns:xlink="http://www.w3.org/1999/xlink" width="103.95013" height="32.66821" viewBox="0,0,103.95013,32.66821"><g transform="translate(-268.02494,-163.48621)"><g stroke="none" stroke-miterlimit="10"><path d="M268.02494,187.89302c0,-5.84817 0,-13.2133 0,-16.5c0,-3.24183 4.00605,-7.54743 8.26407,-7.54743c11.47904,0 64.82969,0 86.5,0c5.68206,0 9.18606,3.44272 9.18606,7.79743c0,5.49133 0,12.43287 0,15.75c0,3.62795 -2.99453,8.7614 -7.93606,8.7614c-20.79012,0 -76.04356,0 -87.75,0c-4.25802,0 -8.26407,-3.66144 -8.26407,-8.2614z" fill="#27aaff" stroke-width="0"/><text transform="translate(285.1472,182.17602) scale(0.43566,0.43566)" font-size="40" xml:space="preserve" fill="#000000" stroke-width="1" font-family="Sans Serif" font-weight="400" text-anchor="start"><tspan x="0" dy="0">下载音乐</tspan></text><text transform="translate(303.51965,193.04357) scale(0.22429,0.22429)" font-size="40" xml:space="preserve" fill="#000000" stroke-width="1" font-family="Sans Serif" font-weight="normal" text-anchor="start"><tspan x="0" dy="0">注意版权</tspan></text></g></g></svg>