<svg version="1.1" xmlns="http://www.w3.org/2000/svg" xmlns:xlink="http://www.w3.org/1999/xlink" width="26.93249" height="27.43248" viewBox="0,0,26.93249,27.43248"><g transform="translate(-306.53376,-166.28376)"><g stroke-width="2" stroke-miterlimit="10"><path d="M307.53376,186.13337c0,-4.4899 0,-10.06945 0,-12.63089c0,-2.64248 3.48329,-6.21872 6.063,-6.21872c2.61308,0 8.44633,0 12.94035,0c3.33285,0 5.92914,3.57625 5.92914,6.21872c0,2.58314 0,8.23568 0,12.74469c0,3.59875 -3.54374,6.46907 -6.15225,6.46907c-2.62706,0 -8.4656,0 -12.94035,0c-3.28814,0 -5.83989,-2.93101 -5.83989,-6.58286z" fill="#555555" stroke="#000000" stroke-linecap="butt"/><g fill="none" stroke="#ffffff"><path d="M313.32534,178.12449c0,-2.76142 2.19457,-5 4.9017,-5c2.70714,0 4.9017,2.23858 4.9017,5c0,2.76142 -2.19457,5 -4.9017,5c-2.70714,0 -4.9017,-2.23858 -4.9017,-5z" stroke-linecap="butt"/><path d="M326.67466,186.87551l-4.74926,-4.8445" stroke-linecap="round"/></g></g></g></svg>