<svg version="1.1" xmlns="http://www.w3.org/2000/svg" xmlns:xlink="http://www.w3.org/1999/xlink" width="368.75915" height="23.38703" viewBox="0,0,368.75915,23.38703"><g transform="translate(-135.68669,-169.09038)"><g fill="#ffbf00" stroke="#cc9900" stroke-width="1.5" stroke-miterlimit="10"><path d="M136.43669,171.40375c0,-0.86343 0.80328,-1.56337 1.79417,-1.56337h3.58837c0.89709,0 1.34563,0.39085 1.79418,0.78168l1.79418,1.56336c0.44854,0.39084 0.89708,0.78167 1.79417,0.78167h5.38255c0.8971,0 1.34564,-0.39085 1.79418,-0.78167l1.79418,-1.56336c0.44854,-0.39084 0.89709,-0.78168 1.79418,-0.78168h343.93482c0.9909,0 1.79417,0.69994 1.79417,1.56337v15.63359c0,0.86343 -0.80328,1.56336 -1.79417,1.56336h-343.93482c-0.8971,0 -1.34564,0.39084 -1.79418,0.78167l-1.79418,1.56337c-0.44854,0.39084 -0.89709,0.78167 -1.79418,0.78167h-5.38255c-0.8971,0 -1.34563,-0.39084 -1.79417,-0.78167l-1.79418,-1.56337c-0.44855,-0.39084 -0.89709,-0.78167 -1.79418,-0.78167h-3.58837c-0.9909,0 -1.79417,-0.69994 -1.79417,-1.56336z"/></g></g></svg>