<svg version="1.1" xmlns="http://www.w3.org/2000/svg" xmlns:xlink="http://www.w3.org/1999/xlink" width="30.31224" height="30.31224" viewBox="0,0,30.31224,30.31224"><g transform="translate(-304.02108,-234.46)"><g stroke-miterlimit="10"><g><path d="M304.02108,257.24933c0,-3.10286 0,-9.87133 0,-15.23018c0,-4.21577 3.34842,-7.55914 7.5633,-7.55914c5.31219,0 12.0007,0 15.09658,0c3.22655,0 7.65236,3.27436 7.65236,7.42553c0,5.35587 0,12.17131 0,15.29698c0,3.20659 -3.39519,7.58973 -7.65236,7.58973c-5.30561,0 -11.95006,0 -15.02978,0c-3.21946,0 -7.6301,-4.33771 -7.6301,-7.52293z" fill-opacity="0.4902" fill="#ffffff" stroke="none" stroke-width="0"/><g fill="#ffffff"><path d="M310.43836,247.15744c0,-2.26655 1.8374,-4.10396 4.10396,-4.10396c2.26655,0 4.10396,1.8374 4.10396,4.10396c0,2.26655 -1.8374,4.10396 -4.10396,4.10396c-2.26655,0 -4.10396,-1.8374 -4.10396,-4.10396z" stroke="#009bff" stroke-width="1"/><path d="M315.76225,250.89356c1.55681,0.9401 2.81619,2.39657 3.49149,4.23669c0.36318,0.98959 0.52576,2.00384 0.5084,2.99816c-0.00725,0.41515 -0.67763,1.2318 -1.22861,1.2318c-1.19657,0 -5.83861,0 -8.03103,0c-0.70688,0 -1.26617,-0.81612 -1.27345,-1.231c-0.01746,-0.99457 0.14511,-2.00909 0.50838,-2.99895c0.67532,-1.84011 1.93469,-3.29659 3.49149,-4.23669" stroke="#009bff" stroke-width="1"/><path d="M313.14777,251.61597v-1.83284h2.55003v1.83284z" stroke="none" stroke-width="0"/><path d="M317.43287,244.61393c0,-2.8423 2.30413,-5.14645 5.14644,-5.14645c2.8423,0 5.14645,2.30414 5.14645,5.14645c0,2.8423 -2.30414,5.14644 -5.14645,5.14644c-2.8423,0 -5.14644,-2.30413 -5.14644,-5.14644z" stroke="#009bff" stroke-width="1"/><path d="M324.1091,249.35074c1.95228,1.1789 3.53155,3.00535 4.37841,5.31289c0.49627,1.35224 0.69385,2.74118 0.62625,4.09449c-0.02034,0.4072 -0.59826,1.20996 -1.34772,1.20996c-2.72309,0 -9.18667,0 -10.62372,0c-0.55414,0 -1.19887,-0.8445 -1.21765,-1.27308c-0.05842,-1.33335 0.14066,-2.70014 0.62922,-4.03137c0.84685,-2.30755 2.42614,-4.13398 4.37841,-5.31289" stroke="#009bff" stroke-width="1"/><path d="M320.83051,250.25664v-2.2984h3.19779v2.2984z" stroke="none" stroke-width="0"/></g></g></g></g></svg>