<svg version="1.1" xmlns="http://www.w3.org/2000/svg" xmlns:xlink="http://www.w3.org/1999/xlink" width="571.16068" height="291.85783" viewBox="0,0,571.16068,291.85783"><g transform="translate(-54.72342,-38.54273)"><g stroke-miterlimit="10"><path d="M54.72342,136.30242c0,-15.00839 0,-44.32175 0,-52.74976c0,-4.44359 3.98107,-9.2442 8.43168,-9.2442c13.80577,0 86.21817,0 112.42242,0c5.91554,0 9.47622,4.24687 9.47622,10.53077c0,14.86139 0,41.11631 0,49.5333c0,5.11013 -3.81272,10.93592 -10.10079,10.93592c-26.62321,0 -97.61982,0 -111.48557,0c-4.59662,0 -8.74396,-3.56189 -8.74396,-9.00605z" fill-opacity="0.74902" fill="#ffffff" stroke="#000000" stroke-width="0"/><path d="M282.62197,65.79142c0,-6.90796 0,-19.09117 0,-22.80423c0,-2.11554 2.04357,-4.44445 4.58355,-4.44445c11.07978,0 89.75039,0 107.59236,0c2.3029,0 3.59242,1.83611 3.59242,3.61231c0,3.6758 0,17.40874 0,24.39394c0,2.50071 -1.76643,4.13661 -4.01827,4.13661c-10.49971,0 -89.79359,0 -108.02205,0c-2.38802,0 -3.72801,-1.97659 -3.72801,-4.89418z" fill-opacity="0.74902" fill="#ffffff" stroke="#000000" stroke-width="0"/><path d="M54.72342,321.73869c0,-30.60569 0,-132.69071 0,-148.88298c0,-4.23978 4.82773,-7.77222 10.00475,-7.77222c14.39997,0 83.10568,0 109.74106,0c6.57344,0 10.58451,3.76647 10.58451,8.23236c0,16.62263 0,118.97088 0,148.88298c0,5.1921 -4.84909,8.20174 -10.04391,8.20174c-14.67624,0 -85.55614,0 -111.09256,0c-5.74401,0 -9.19385,-3.18749 -9.19385,-8.66187z" fill-opacity="0.74902" fill="#ffffff" stroke="#000000" stroke-width="0"/><text transform="translate(65.66955,194.51841) scale(0.46843,0.5)" font-size="40" xml:space="preserve" fill="#000000" stroke="none" stroke-width="1" font-family="Sans Serif" font-weight="normal" text-anchor="start"><tspan x="0" dy="0">相对湿度</tspan><tspan x="0" dy="46.150000000000006px"> </tspan><tspan x="0" dy="46.150000000000006px">云量</tspan><tspan x="0" dy="46.150000000000006px"> </tspan><tspan x="0" dy="46.150000000000006px">大气压强</tspan></text><path d="M202.61244,137.0167c0,-15.00839 0,-44.32175 0,-52.74976c0,-4.44359 3.98107,-9.2442 8.43168,-9.2442c13.80577,0 86.21817,0 112.42242,0c5.91554,0 9.47622,4.24687 9.47622,10.53077c0,14.86139 0,41.11631 0,49.5333c0,5.11013 -3.81272,10.93592 -10.10079,10.93592c-26.62321,0 -97.61982,0 -111.48557,0c-4.59662,0 -8.74396,-3.56189 -8.74396,-9.00605z" fill-opacity="0.74902" fill="#ffffff" stroke="#000000" stroke-width="0"/><text transform="translate(213.52172,100.63947) scale(0.46843,0.5)" font-size="40" xml:space="preserve" fill="#000000" stroke="none" stroke-width="1" font-family="Sans Serif" font-weight="normal" text-anchor="start"><tspan x="0" dy="0">日出日落</tspan></text><text transform="translate(213.52172,119.10234) scale(0.34359,0.36675)" font-size="40" xml:space="preserve" fill="#000000" stroke="none" stroke-width="1" font-family="Sans Serif" font-weight="normal" text-anchor="start"><tspan x="0" dy="0">日出：</tspan><tspan x="0" dy="46.150000000000006px">日落：</tspan></text><path d="M349.67229,137.0167c0,-15.00839 0,-44.32175 0,-52.74976c0,-4.44359 3.98107,-9.2442 8.43168,-9.2442c13.80577,0 86.21817,0 112.42242,0c5.91554,0 9.47622,4.24687 9.47622,10.53077c0,14.86139 0,41.11631 0,49.5333c0,5.11013 -3.81272,10.93592 -10.10079,10.93592c-26.62321,0 -97.61982,0 -111.48557,0c-4.59662,0 -8.74396,-3.56189 -8.74396,-9.00605z" fill-opacity="0.74902" fill="#ffffff" stroke="#000000" stroke-width="0"/><text transform="translate(360.58157,100.63947) scale(0.46843,0.5)" font-size="40" xml:space="preserve" fill="#000000" stroke="none" stroke-width="1" font-family="Sans Serif" font-weight="normal" text-anchor="start"><tspan x="0" dy="0">当日月相</tspan></text><path d="M495.55378,137.0167c0,-15.00839 0,-44.32175 0,-52.74976c0,-4.44359 3.98107,-9.2442 8.43168,-9.2442c13.80577,0 86.21817,0 112.42242,0c5.91554,0 9.47622,4.24687 9.47622,10.53077c0,14.86139 0,41.11631 0,49.5333c0,5.11013 -3.81272,10.93592 -10.10079,10.93592c-26.62321,0 -97.61982,0 -111.48557,0c-4.59662,0 -8.74396,-3.56189 -8.74396,-9.00605z" fill-opacity="0.74902" fill="#ffffff" stroke="#000000" stroke-width="0"/><text transform="translate(506.46305,100.63947) scale(0.46843,0.5)" font-size="40" xml:space="preserve" fill="#000000" stroke="none" stroke-width="1" font-family="Sans Serif" font-weight="normal" text-anchor="start"><tspan x="0" dy="0">紫外线强度</tspan></text><path d="M495.55378,236.50121c0,-16.90762 0,-54.249 0,-63.6c0,-4.1539 3.92099,-8.35325 8.31839,-8.35325c13.85535,0 87.49455,0 113.17191,0c5.53384,0 8.84003,2.98089 8.84003,7.75325c0,16.85312 0,56.04721 0,65.2c0,3.73903 -2.78674,7.39408 -7.52843,7.39408c-24.66147,0 -102.20491,0 -115.60773,0c-3.8625,0 -7.19416,-3.25206 -7.19416,-8.39408z" fill-opacity="0.74902" fill="#ffffff" stroke="#000000" stroke-width="0"/><path d="M350.2338,236.50121c0,-16.90762 0,-54.249 0,-63.6c0,-4.1539 3.92098,-8.35325 8.3184,-8.35325c13.85535,0 87.49455,0 113.17191,0c5.53384,0 8.84002,2.9809 8.84002,7.75324c0,16.85312 0,56.04721 0,65.2c0,3.73902 -2.78674,7.39408 -7.52842,7.39408c-24.66147,0 -102.20491,0 -115.60773,0c-3.8625,0 -7.19417,-3.25207 -7.19417,-8.39408z" fill-opacity="0.74902" fill="#ffffff" stroke="#000000" stroke-width="0"/><text transform="translate(506.46305,190.16471) scale(0.46843,0.5)" font-size="40" xml:space="preserve" fill="#000000" stroke="none" stroke-width="1" font-family="Sans Serif" font-weight="normal" text-anchor="start"><tspan x="0" dy="0">夜间风</tspan></text><text transform="translate(361.14307,190.16471) scale(0.46843,0.5)" font-size="40" xml:space="preserve" fill="#000000" stroke="none" stroke-width="1" font-family="Sans Serif" font-weight="normal" text-anchor="start"><tspan x="0" dy="0">白日风</tspan></text><path d="M203.1478,236.50121c0,-16.90762 0,-54.249 0,-63.6c0,-4.1539 3.92098,-8.35325 8.3184,-8.35325c13.85535,0 87.49455,0 113.17191,0c5.53384,0 8.84002,2.9809 8.84002,7.75324c0,16.85312 0,56.04721 0,65.2c0,3.73902 -2.78674,7.39408 -7.52843,7.39408c-24.66147,0 -102.20491,0 -115.60773,0c-3.8625,0 -7.19417,-3.25207 -7.19417,-8.39408z" fill-opacity="0.74902" fill="#ffffff" stroke="#000000" stroke-width="0"/><text transform="translate(214.05708,190.16471) scale(0.46843,0.5)" font-size="40" xml:space="preserve" fill="#000000" stroke="none" stroke-width="1" font-family="Sans Serif" font-weight="normal" text-anchor="start"><tspan x="0" dy="0">当日降水量</tspan></text></g></g></svg>