<svg version="1.1" xmlns="http://www.w3.org/2000/svg" xmlns:xlink="http://www.w3.org/1999/xlink" width="394.64131" height="203.77553" viewBox="0,0,394.64131,203.77553"><g transform="translate(-96.3135,-10.67604)"><g stroke-miterlimit="10"><text transform="translate(96.84762,28.30194) scale(0.41086,0.41086)" font-size="40" xml:space="preserve" fill="#ffffff" stroke="none" stroke-width="1" stroke-linecap="butt" font-family="Sans Serif" font-weight="normal" text-anchor="start"><tspan x="0" dy="0">v3.2之后的版本发送消息长度和发送频率遵循以下表格</tspan><tspan x="0" dy="46.150000000000006px">修改：</tspan></text><path d="M465.43098,213.45158h-346.22503l-0.00002,-158.72124h346.22503z" fill="none" stroke="#ffffff" stroke-width="2" stroke-linecap="round"/><path d="M119.20586,83.93002h346.22503" fill="none" stroke="#ffffff" stroke-width="2" stroke-linecap="round"/><path d="M119.20586,116.25828h346.22503" fill="none" stroke="#ffffff" stroke-width="2" stroke-linecap="round"/><path d="M119.20587,148.69081h346.22503" fill="none" stroke="#ffffff" stroke-width="2" stroke-linecap="round"/><path d="M119.20586,181.01904h346.22503" fill="none" stroke="#ffffff" stroke-width="2" stroke-linecap="round"/><path d="M195.95938,212.20014v-156.42697" fill="none" stroke="#ffffff" stroke-width="2" stroke-linecap="round"/><path d="M331.21142,54.73034v156.42697" fill="none" stroke="#ffffff" stroke-width="2" stroke-linecap="round"/><g fill="#ffffff" stroke="none" stroke-width="1" stroke-linecap="butt" font-family="Sans Serif" font-weight="normal" font-size="40" text-anchor="start"><text transform="translate(230.01348,74.17779) scale(0.40389,0.40389)" font-size="40" xml:space="preserve" fill="#ffffff"><tspan x="0" dy="0">发送频率</tspan></text><text transform="translate(350.88857,75.55346) scale(0.41311,0.41311)" font-size="40" xml:space="preserve" fill="#ffffff"><tspan x="0" dy="0">发送消息长度</tspan></text><text transform="translate(232.99281,202.8377) scale(0.48887,0.48887)" font-size="40" xml:space="preserve" fill="#ffffff"><tspan x="0" dy="0">无限制</tspan></text><text transform="translate(233.42304,138.31786) scale(0.48887,0.48887)" font-size="40" xml:space="preserve" fill="#ffffff"><tspan x="0" dy="0">3秒/条</tspan></text><text transform="translate(373.24935,106.25297) scale(0.48887,0.48887)" font-size="40" xml:space="preserve" fill="#ffffff"><tspan x="0" dy="0">100字</tspan></text><text transform="translate(373.90665,202.86155) scale(0.48887,0.48887)" font-size="40" xml:space="preserve" fill="#ffffff"><tspan x="0" dy="0">300字</tspan></text><text transform="translate(373.24935,172.34722) scale(0.48887,0.48887)" font-size="40" xml:space="preserve" fill="#ffffff"><tspan x="0" dy="0">200字</tspan></text><text transform="translate(373.24935,140.32342) scale(0.48887,0.48887)" font-size="40" xml:space="preserve" fill="#ffffff"><tspan x="0" dy="0">150字</tspan></text><text transform="translate(136.40376,105.53143) scale(0.48887,0.48887)" font-size="40" xml:space="preserve" fill="#ffffff"><tspan x="0" dy="0">游客</tspan></text><text transform="translate(125.13245,194.60024) scale(0.30007,0.30007)" font-size="40" xml:space="preserve" fill="#ffffff"><tspan x="0" dy="0">作者/管理员</tspan><tspan x="0" dy="48px">      SVIP</tspan></text><text transform="translate(125.13245,168.48917) scale(0.27085,0.27085)" font-size="40" xml:space="preserve" fill="#ffffff"><tspan x="0" dy="0">VIP/内测用户</tspan></text><text transform="translate(130.88942,129.21846) scale(0.30287,0.30287)" font-size="40" xml:space="preserve" fill="#ffffff"><tspan x="0" dy="0">普通用户/</tspan><tspan x="0" dy="46.150000000000006px">测试账号</tspan></text><text transform="translate(233.42299,106.04514) scale(0.48887,0.48887)" font-size="40" xml:space="preserve" fill="#ffffff"><tspan x="0" dy="0">5秒/条</tspan></text><text transform="translate(233.42304,170.59059) scale(0.48887,0.48887)" font-size="40" xml:space="preserve" fill="#ffffff"><tspan x="0" dy="0">2秒/条</tspan></text></g></g></g></svg>