<svg version="1.1" xmlns="http://www.w3.org/2000/svg" xmlns:xlink="http://www.w3.org/1999/xlink" width="48.75535" height="36.01986" viewBox="0,0,48.75535,36.01986"><g transform="translate(-285.34384,-154.7395)"><g stroke-miterlimit="10"><path d="M286.34384,184.94162c0,-1.89883 0,-3.89757 0,-5.0486c0,-1.81252 2.06721,-4.56891 4.19616,-4.56891c5.31167,0 28.42144,0 38.18246,0c2.69846,0 4.37672,2.75639 4.37672,4.56891c0,1.15103 0,3.14977 0,5.0486c0,2.49512 -2.00746,4.81774 -4.08909,4.81774c-5.2649,0 -28.44278,0 -38.25436,0c-2.71928,0 -4.41188,-2.91004 -4.41188,-4.81774z" fill="#ffffff" stroke="#ffffff" stroke-width="2"/><path d="M286.34385,165.357c0,-1.89882 0,-3.89757 0,-5.04859c0,-1.81252 2.06721,-4.56891 4.19616,-4.56891c5.31167,0 28.42144,0 38.18246,0c2.69846,0 4.37672,2.75639 4.37672,4.56891c0,1.15102 0,3.14977 0,5.04859c0,2.49513 -2.00746,4.81774 -4.08909,4.81774c-5.26491,0 -28.44278,0 -38.25436,0c-2.71928,0 -4.41188,-2.91004 -4.41188,-4.81774z" fill="#ffffff" stroke="#ffffff" stroke-width="2"/><text transform="translate(288.787,165.15716) scale(0.18334,0.18334)" font-size="40" xml:space="preserve" fill="#000000" stroke="none" stroke-width="1" font-family="Sans Serif" font-weight="normal" text-anchor="start"><tspan x="0" dy="0">刷新消息</tspan></text><text transform="translate(288.88082,184.74178) scale(0.18334,0.18334)" font-size="40" xml:space="preserve" fill="#000000" stroke="none" stroke-width="1" font-family="Sans Serif" font-weight="normal" text-anchor="start"><tspan x="0" dy="0">重加载头像</tspan></text></g></g></svg>