<svg version="1.1" xmlns="http://www.w3.org/2000/svg" xmlns:xlink="http://www.w3.org/1999/xlink" width="31.34116" height="31.6855" viewBox="0,0,31.34116,31.6855"><g transform="translate(-224.32942,-164.15725)"><g data-paper-data="{&quot;isPaintingLayer&quot;:true}" stroke-miterlimit="10" stroke-dasharray="" stroke-dashoffset="0" style="mix-blend-mode: normal"><path d="M232.61175,167.18057c21.50651,-0.00439 1.85052,-0.02078 14.27629,-0.02332c3.15752,-0.00064 5.77771,3.04264 5.77819,5.67559c0.00075,4.13762 0.00301,6.93991 0.00435,14.3333c0.00061,3.36368 -1.98512,5.67672 -5.44924,5.67661c-21.79242,-0.00068 -2.01909,-0.0032 -14.27629,-0.00358c-3.07386,-0.0001 -5.60906,-2.38692 -5.60989,-5.83972c-0.00179,-7.46654 -0.00476,-10.25151 -0.00574,-14.33329c-0.00061,-2.55917 1.92132,-5.4849 5.28233,-5.48558z" data-paper-data="{&quot;origRot&quot;:0,&quot;index&quot;:null}" fill="#000000" fill-rule="evenodd" stroke="#000000" stroke-width="6" stroke-linecap="round" stroke-linejoin="round" opacity="0.42445"/><path d="M232.61175,167.18057c21.50651,-0.00439 1.85052,-0.02078 14.27629,-0.02332c3.15752,-0.00064 5.77771,3.04264 5.77819,5.67559c0.00075,4.13762 0.00301,6.93991 0.00435,14.3333c0.00061,3.36368 -1.98512,5.67672 -5.44924,5.67661c-21.79242,-0.00068 -2.01909,-0.0032 -14.27629,-0.00358c-3.07386,-0.0001 -5.60906,-2.38692 -5.60989,-5.83972c-0.00179,-7.46654 -0.00476,-10.25151 -0.00574,-14.33329c-0.00061,-2.55917 1.92132,-5.4849 5.28233,-5.48558z" data-paper-data="{&quot;origRot&quot;:0,&quot;index&quot;:null}" fill="#000000" fill-rule="evenodd" stroke="#000000" stroke-width="0" stroke-linecap="round" stroke-linejoin="round" opacity="0.42445"/><path d="M235.68589,187.86583c0,-3.86667 0,-10.28279 0,-12.39592c0,-1.3333 1.14231,-2.13962 2.72945,-1.13725c2.86712,1.81075 7.18586,4.53976 8.84456,5.59561c1.23246,0.78452 1.5358,2.98443 0.26424,3.7608c-1.61781,0.98779 -5.81888,3.55283 -8.75387,5.34485c-1.77326,1.0827 -3.08437,0.63464 -3.08437,-1.16809z" fill="#000000" fill-rule="nonzero" stroke="none" stroke-width="none" stroke-linecap="butt" stroke-linejoin="miter"/><path d="M233.93589,186.11583c0,-3.86668 0,-10.28279 0,-12.39592c0,-1.3333 1.14231,-2.13962 2.72945,-1.13725c2.86712,1.81075 7.18586,4.53976 8.84456,5.5956c1.23246,0.78452 1.5358,2.98443 0.26424,3.76081c-1.61781,0.98778 -5.81888,3.55282 -8.75387,5.34484c-1.77326,1.0827 -3.08437,0.63464 -3.08437,-1.16809z" fill="#ffffff" fill-rule="nonzero" stroke="none" stroke-width="none" stroke-linecap="butt" stroke-linejoin="miter"/></g></g></svg>