<svg version="1.1" xmlns="http://www.w3.org/2000/svg" xmlns:xlink="http://www.w3.org/1999/xlink" width="71.7424" height="71.7424" viewBox="0,0,71.7424,71.7424"><g transform="translate(-284.1288,-144.12881)"><g stroke="none" stroke-miterlimit="10"><path d="M284.1288,207.97036c0,-15.29857 0,-48.18866 0,-56.44551c0,-3.68229 4.07087,-7.39604 8.01557,-7.39604c8.41966,0 40.60918,0 55.75715,0c4.86301,0 7.96968,3.84544 7.96968,7.6255c0,8.32424 0,40.98437 0,56.21606c0,2.27319 -0.95711,4.1582 -2.40002,5.5162c-1.61962,1.52432 -3.85132,2.38464 -6.02857,2.38464c-8.60468,0 -40.90499,0 -55.75715,0c-4.62392,0 -7.55666,-3.07531 -7.55666,-7.90084z" fill="#ffffff" stroke-width="0"/><text transform="translate(292.3904,209.89413) scale(0.34512,0.34512)" font-size="40" xml:space="preserve" fill="#000000" stroke-width="1" font-family="Sans Serif" font-weight="normal" text-anchor="start"><tspan x="0" dy="0">检查更新</tspan></text><text transform="translate(294.56762,185.37471) scale(0.7045,0.7045)" font-size="40" xml:space="preserve" fill="#000000" stroke-width="1" font-family="Sans Serif" font-weight="normal" text-anchor="start"><tspan x="0" dy="0">Ver.</tspan></text></g></g></svg>