<svg version="1.1" xmlns="http://www.w3.org/2000/svg" xmlns:xlink="http://www.w3.org/1999/xlink" width="15.99578" height="13.50054" viewBox="0,0,15.99578,13.50054"><g transform="translate(-312.00157,-174.49947)"><g fill="#000000" stroke="none" stroke-miterlimit="10"><g><path d="M316.271,186.44001c-0.08892,-0.09258 -0.22303,-0.12601 -0.345,-0.086c-1.16482,0.37728 -2.44202,0.00883 -3.22691,-0.9309c-0.78489,-0.93973 -0.91995,-2.26214 -0.34122,-3.34113c0.57873,-1.07899 1.75509,-1.698 2.97213,-1.56397c0.12717,0.01453 0.25146,-0.04489 0.32,-0.153c0.91154,-1.4711 2.51938,-2.36581 4.25,-2.365c1.74054,-0.0011 3.35625,0.90354 4.265,2.388c0.07228,0.11518 0.20702,0.17524 0.341,0.152c1.24456,-0.20661 2.48541,0.38748 3.10483,1.48655c0.61942,1.09906 0.48505,2.46823 -0.33623,3.42589c-0.82128,0.95766 -2.15395,1.29919 -3.33459,0.85456c-0.12722,-0.04923 -0.27158,-0.0164 -0.365,0.083c-0.914,0.99 -2.222,1.61 -3.675,1.61c-1.37275,0.00131 -2.6854,-0.56296 -3.629,-1.56zM323.806,185.10401c0.78596,0.58526 1.88021,0.51487 2.5847,-0.16628c0.70449,-0.68115 0.8117,-1.77241 0.25323,-2.57763c-0.55847,-0.80522 -1.61811,-1.08722 -2.50293,-0.66609c-0.195,0.092 -0.45,0.01 -0.53,-0.19c-0.60566,-1.50339 -2.05849,-2.49285 -3.67925,-2.50578c-1.62075,-0.01292 -3.08919,0.95324 -3.71875,2.44678c-0.077,0.182 -0.301,0.264 -0.485,0.192c-0.88101,-0.34413 -1.88266,-0.02405 -2.40084,0.76722c-0.51818,0.79127 -0.41121,1.83736 0.2564,2.50737c0.66761,0.67002 1.7133,0.78074 2.50643,0.2654c0.166,-0.108 0.401,-0.074 0.513,0.089c0.74589,1.08624 1.97932,1.73494 3.297,1.734c1.3514,0.00101 2.61174,-0.68108 3.35,-1.813c0.117,-0.18 0.383,-0.211 0.555,-0.083z"/><path d="M316.009,178.63701c-0.371,0.087 -0.702,0.297 -0.94,0.597c-0.041,-0.17 -0.064,-0.343 -0.069,-0.517c-0.00027,-0.67612 0.2682,-1.32462 0.74629,-1.80271c0.47809,-0.47809 1.12659,-0.74656 1.80271,-0.74629c0.10624,0.00393 0.21212,0.01462 0.317,0.032c0.69003,-1.0607 1.86961,-1.70054 3.135,-1.70054c1.26539,0 2.44497,0.63985 3.135,1.70054c0.9203,-0.15268 1.84856,0.22314 2.40342,0.97308c0.55486,0.74993 0.64275,1.74752 0.22758,2.58292c-0.258,-0.222 -0.548,-0.403 -0.86,-0.538c0.17268,-0.47139 0.10212,-0.99758 -0.18863,-1.40684c-0.29075,-0.40926 -0.76441,-0.64907 -1.26637,-0.64117c-0.0362,0.00186 -0.07227,0.00587 -0.108,0.012l-0.084,0.012c-0.37903,0.04738 -0.75195,-0.1253 -0.961,-0.445c-0.50516,-0.77907 -1.37049,-1.24929 -2.299,-1.24929c-0.92851,0 -1.79384,0.47023 -2.299,1.24929c-0.20905,0.3197 -0.58197,0.49238 -0.961,0.445l-0.084,-0.012c-0.03573,-0.00614 -0.0718,-0.01015 -0.108,-0.012c-0.82179,0.00161 -1.49851,0.64626 -1.54,1.467z"/></g></g></g></svg>