<svg version="1.1" xmlns="http://www.w3.org/2000/svg" xmlns:xlink="http://www.w3.org/1999/xlink" width="385.38288" height="62.56006" viewBox="0,0,385.38288,62.56006"><g transform="translate(-127.30856,-148.71997)"><g stroke-miterlimit="10"><path d="M128.55856,198.55555c0,-12.37801 0,-31.22448 0,-38c0,-4.82514 4.8733,-10.58558 11.27477,-10.58558c32.41543,0 296.75039,0 358.66667,0c8.28123,0 12.94144,4.70601 12.94144,11.25225c0,11.86443 0,29.77368 0,36.66667c0,5.38401 -4.53526,12.14114 -12.60811,12.14114c-61.2945,0 -326.52605,0 -359,0c-6.40147,0 -11.27477,-4.79562 -11.27477,-11.47448z" fill="#ffffff" stroke="#009cff" stroke-width="2.5"/><text transform="translate(192.22073,172.66667) scale(0.5,0.5)" font-size="40" xml:space="preserve" fill="#000000" stroke="none" stroke-width="1" font-family="Sans Serif" font-weight="normal" text-anchor="start"><tspan x="0" dy="0">天气</tspan></text><text transform="translate(192.22073,197.49386) scale(0.40834,0.40834)" font-size="40" xml:space="preserve" fill="#000000" stroke="none" stroke-width="1" font-family="Sans Serif" font-weight="normal" text-anchor="start"><tspan x="0" dy="0">操作频繁，请15秒刷新一次</tspan></text><path d="M152.99035,195.22425c-0.19778,-0.1931 -0.48623,-0.26076 -0.74923,-0.17575c-0.63129,0.19424 -1.30652,0.30062 -2.0049,0.30062c-3.59124,0 -6.50495,-2.79575 -6.50495,-6.24364c0,-3.44788 2.9137,-6.24364 6.50263,-6.24364c0.23943,-0.0002 0.47871,0.01214 0.71686,0.037c0.27269,0.03143 0.54017,-0.0916 0.69373,-0.31911c1.91241,-2.95532 5.32328,-4.92092 9.21284,-4.92092c3.91268,0 7.33974,1.98871 9.24521,4.9718c0.16264,0.24226 0.45242,0.36633 0.73997,0.3168c0.34918,-0.0555 0.70761,-0.08556 1.07068,-0.08556c3.59124,0 6.50495,2.79576 6.50495,6.24364c0,3.44788 -2.91138,6.24364 -6.50263,6.24364c-0.80936,0 -1.58403,-0.14105 -2.30089,-0.40006c-0.27371,-0.10207 -0.58177,-0.03521 -0.78855,0.17112c-2.0891,2.15551 -4.96701,3.36563 -7.96873,3.35076c-2.95117,0.01424 -5.78485,-1.15523 -7.86699,-3.2467zM169.32555,192.44466c0.72147,0.51799 1.61873,0.82324 2.58997,0.82324c2.39339,0 4.33354,-1.86384 4.33354,-4.16242c0,-2.29858 -1.94015,-4.16242 -4.33354,-4.16242c-0.66831,0 -1.29961,0.14568 -1.86384,0.40237c-0.42086,0.19424 -0.97354,0.02312 -1.14697,-0.39311c-1.28572,-3.05706 -4.40523,-5.20997 -8.04735,-5.20997c-3.59357,0 -6.67606,2.09741 -7.99185,5.08742c-0.1665,0.37924 -0.6521,0.54805 -1.05217,0.39773c-0.49024,-0.18269 -1.02212,-0.28443 -1.57942,-0.28443c-2.39339,0 -4.33585,1.86384 -4.33585,4.16242c0,2.29858 1.94246,4.16242 4.33816,4.16242c0.86948,0 1.68117,-0.24743 2.36103,-0.67061c0.36075,-0.22662 0.86949,-0.15493 1.11461,0.185c1.66253,2.28351 4.32326,3.62636 7.14781,3.60744c2.89535,0.01938 5.61322,-1.39323 7.26112,-3.77393c0.25438,-0.37461 0.83017,-0.43937 1.20247,-0.17112zM152.37986,162.92152c-0.10602,-0.62626 0.29716,-1.22581 0.91715,-1.36386c0.61999,-0.13805 1.23945,0.2338 1.40918,0.84587l0.592,2.65933c0.10584,0.42099 -0.02533,0.86624 -0.34248,1.16266c-0.31715,0.29641 -0.77024,0.39719 -1.18313,0.26318c-0.41289,-0.13401 -0.72042,-0.48168 -0.80304,-0.90785zM144.03052,168.02088c0.34556,-0.54267 1.05914,-0.71369 1.61315,-0.38658l2.30089,1.46379c0.54838,0.35731 0.70657,1.08967 0.35456,1.64146c-0.35199,0.55179 -1.0828,0.71705 -1.63798,0.37038l-2.29858,-1.46379c-0.53072,-0.36365 -0.67761,-1.08256 -0.33205,-1.62525zM142.02583,179.16306c-0.1424,-0.64367 0.26397,-1.28093 0.90764,-1.42332l2.65932,-0.592c0.64367,-0.14239 1.28092,0.26396 1.42333,0.90765c0.1424,0.64367 -0.26398,1.28092 -0.90765,1.42333l-2.65933,0.59199c-0.64367,0.14239 -1.28091,-0.26396 -1.42332,-0.90765zM165.93481,173.7353c-0.06657,-0.60616 0.33465,-1.16498 0.93028,-1.29571l2.65932,-0.59199c0.64367,-0.14304 1.28144,0.26281 1.42448,0.90648c0.14302,0.64367 -0.26282,1.28143 -0.90649,1.42448l-2.65932,0.59199c-0.08512,0.01835 -0.17193,0.02764 -0.25899,0.02774c-0.60981,0.00162 -1.12269,-0.45683 -1.18927,-1.06298zM161.33832,166.13351l1.46379,-2.29859c0.36365,-0.53072 1.08258,-0.67759 1.62525,-0.33205c0.54267,0.34556 0.71369,1.05913 0.38658,1.61315l-1.46379,2.29859c-0.35401,0.55523 -1.09084,0.71874 -1.64648,0.36537c-0.55523,-0.35401 -0.71875,-1.09085 -0.36538,-1.64648zM150.94677,169.89774c2.15619,-1.98709 5.21151,-2.66712 8.00694,-1.78215c2.79543,0.88495 4.90277,3.19938 5.52261,6.06528c0.07609,0.39066 0.12323,0.78638 0.14106,1.18397c-0.79783,-0.27497 -1.62139,-0.46865 -2.45813,-0.5781c-0.00693,-0.02776 -0.00464,-0.05782 -0.01157,-0.08788c-0.72671,-3.08581 -3.79977,-5.01353 -6.89428,-4.32475c-3.0945,0.68879 -5.05978,3.73799 -4.40901,6.8407c0.11632,0.49051 0.29752,0.96335 0.53881,1.40598c-0.63376,0.4882 -1.34404,0.86798 -2.10202,1.12385c-0.34224,-0.63361 -0.60124,-1.31115 -0.76311,-2.01183c-0.65422,-2.85827 0.27253,-5.84798 2.42872,-7.83507z" fill="#000000" stroke="none" stroke-width="1"/></g></g></svg>