<svg version="1.1" xmlns="http://www.w3.org/2000/svg" xmlns:xlink="http://www.w3.org/1999/xlink" width="597.21326" height="89.91936" viewBox="0,0,597.21326,89.91936"><g transform="translate(-39.36967,-266.78618)"><g fill="#ffffff" stroke="#009fff" stroke-width="2.5" stroke-miterlimit="10"><path d="M40.61967,347.05232c0,-18.2728 0,-60.7873 0,-70.80908c0,-4.13907 2.75258,-8.20705 6.90681,-8.20705c35.78625,0 517.28074,0 580.8871,0c4.51027,0 6.91935,3.41906 6.91935,8.85484c0,8.47387 -0.25166,36.44441 -0.37489,49.63327c-0.03996,4.27623 -3.87514,7.01086 -7.20275,7.02163c-5.4199,0.01754 -22.18468,0.07179 -31.75837,0.10277c-4.10469,0.01328 -6.85393,3.50564 -6.83026,5.96157c0.01961,2.0352 0.05862,6.08394 0.0923,9.57921c0.0327,3.39397 -2.17106,6.26607 -6.34782,6.26607c-59.11895,0 -507.96998,0 -535.22336,0c-4.24636,0 -7.0681,-3.23017 -7.0681,-8.40323z"/></g></g></svg>