<svg version="1.1" xmlns="http://www.w3.org/2000/svg" xmlns:xlink="http://www.w3.org/1999/xlink" width="30.00532" height="17.8485" viewBox="0,0,30.00532,17.8485"><g transform="translate(-239.58334,-170.50716)"><g data-paper-data="{&quot;isPaintingLayer&quot;:true}" fill-rule="nonzero" stroke-linecap="butt" stroke-linejoin="miter" stroke-miterlimit="10" stroke-dasharray="" stroke-dashoffset="0" style="mix-blend-mode: normal"><g stroke-width="1.5"><path d="M240.50288,184.04504l2.09193,-7.7121l8.51529,2.91375l-1.80804,7.21618z" fill="#8e6d4a" stroke="#1c1a1f"/><path d="M248.12798,181.24644c1.16559,-2.03609 3.76105,-2.74176 5.79714,-1.57617c2.03609,1.16559 2.74176,3.76105 1.57617,5.79714c-1.16559,2.03609 -3.76104,2.74176 -5.79714,1.57617c-2.03609,-1.16559 -2.74177,-3.76105 -1.57617,-5.79714z" fill="#dbac68" stroke="#181714"/></g><g stroke-width="1.5"><path d="M246.28456,178.81638l-0.19378,-7.35496l10.801,2.55661l-1.80804,7.21618z" fill="#8e6d4a" stroke="#1c1a1f"/><path d="M253.90966,176.01778c1.16559,-2.03609 3.76105,-2.74176 5.79714,-1.57617c2.03609,1.16559 2.74176,3.76105 1.57617,5.79714c-1.16559,2.03609 -3.76104,2.74176 -5.79714,1.57617c-2.03609,-1.16559 -2.74176,-3.76105 -1.57616,-5.79714z" fill="#dbac68" stroke="#181714"/></g><path d="M262.7874,181.32651v-1.53334c0,0 5.55155,0 5.68355,0c0.04453,0 0.25764,0.18812 0.25764,0.31824c0,0.16772 0,0.62536 0,0.92579c0,0.18289 -0.19396,0.28931 -0.23849,0.28931c-0.132,0 -5.70269,0 -5.70269,0z" fill="#4d4c5a" stroke="#1e1b1a" stroke-width="1"/><path d="M259.36442,181.46444v-1.77472c0,0 9.2033,0 9.42213,0c0.07383,0 0.42711,0.21774 0.42711,0.36835c0,0.19412 0,0.7238 0,1.07153c0,0.21168 -0.32155,0.33486 -0.39537,0.33486c-0.21882,0 -9.45385,-0.00001 -9.45385,-0.00001z" fill="#8b95ac" stroke="#1e1b1a" stroke-width="0.75"/><path d="M265.99157,181.55096c0,-0.56731 0,-1.56019 0,-1.89655c0,-0.21925 0.19537,-0.4787 0.41802,-0.4787c0.19786,0 0.41726,0 0.54025,0c0.18102,0 0.45958,0.25946 0.45958,0.4787c0,0.33637 0,1.32924 0,1.89655c0,0.24434 -0.27855,0.40974 -0.45958,0.40974c-0.12299,0 -0.3424,0 -0.54025,0c-0.22265,0 -0.41802,-0.1654 -0.41802,-0.40974z" fill="#8b95ac" stroke="#1e1b1a" stroke-width="0.5"/><path d="M252.29062,183.11555v-5.18039c0,0 2.72704,-0.31391 5.21268,-0.11211c1.91956,0.15584 3.69516,0.83938 3.95962,0.83938c0.20476,0 1.18457,0.63557 1.18457,1.07518c0,0.56665 0,0.84005 0,1.85505c0,0.6179 -0.8918,0.97744 -1.09655,0.97744c-0.27465,0 -2.19717,0.83898 -4.21986,0.96129c-2.44693,0.14796 -5.04045,-0.41583 -5.04045,-0.41583z" fill="#4f495a" stroke="#1e1b1a" stroke-width="1"/><path d="M258.82877,181.45882v-1.93128c0,0 -0.14138,-0.44047 0.57983,-0.44047c0.6867,0 0.53843,0.44047 0.53843,0.44047v1.93128c0,0 0.0606,0.52703 -0.62125,0.50823c-0.43304,-0.01194 -0.497,-0.50823 -0.497,-0.50823z" fill="#828282" stroke="#1e1b1a" stroke-width="0.75"/><path d="M256.63366,181.45882v-1.93128c0,0 -0.14138,-0.44047 0.57983,-0.44047c0.6867,0 0.53843,0.44047 0.53843,0.44047v1.93128c0,0 0.0606,0.52703 -0.62125,0.50823c-0.43304,-0.01194 -0.497,-0.50823 -0.497,-0.50823z" fill="#828282" stroke="#1e1b1a" stroke-width="0.75"/><path d="M254.39714,181.45882v-1.93128c0,0 -0.14139,-0.44047 0.57983,-0.44047c0.6867,0 0.53841,0.44047 0.53841,0.44047v1.93128c0,0 0.0606,0.52703 -0.62125,0.50823c-0.43303,-0.01194 -0.497,-0.50823 -0.497,-0.50823z" fill="#828282" stroke="#1e1b1a" stroke-width="0.75"/><path d="M262.43333,181.76667c0,0 0.26667,-0.86258 0.26667,-1.26667c0,-0.37082 -0.26667,-1.06666 -0.26667,-1.06666l1.2,0.26667l-0.06667,1.86666z" fill="#636363" stroke="#1e1b1a" stroke-width="0.5"/><path d="M260.3,181.7v-2.06667h1.93333v2.06667z" fill="#c4c4c4" stroke="#1e1b1a" stroke-width="0.5"/></g></g></svg>