<svg version="1.1" xmlns="http://www.w3.org/2000/svg" xmlns:xlink="http://www.w3.org/1999/xlink" width="95.39153" height="35.91699" viewBox="0,0,95.39153,35.91699"><g transform="translate(-276.16514,-158.44917)"><g stroke="none" stroke-miterlimit="10"><path d="M276.16514,188.68315c0,-5.82611 0,-14.47586 0,-17.69858c0,-2.41289 2.78095,-5.35073 5.86523,-5.35073c10.04284,0 64.75884,0 78.61464,0c2.0361,0 3.18986,2.22193 3.18986,5.35073c0,6.12392 0,15.72194 0,18.93336c0,2.07669 -1.46691,4.44823 -4.01305,4.44823c-15.25669,0 -69.26337,0 -78.61464,0c-2.6955,0 -5.04203,-2.39065 -5.04203,-5.68301z" fill="#009fff" stroke-width="0"/><text transform="translate(285.2084,183.47916) scale(0.28993,0.28993)" font-size="40" xml:space="preserve" fill-opacity="0.8" fill="#ffffff" stroke-width="1" font-family="Sans Serif" font-weight="normal" text-anchor="start"><tspan x="0" dy="0">抄袭相关事项</tspan></text><g><path d="M356.11307,166.17097c0,-4.26463 3.45717,-7.7218 7.7218,-7.7218c4.26463,0 7.7218,3.45717 7.7218,7.7218c0,4.26463 -3.45717,7.7218 -7.7218,7.7218c-4.26463,0 -7.7218,-3.45717 -7.7218,-7.7218z" fill-opacity="0.8" fill="#ff0000" stroke-width="0"/><text transform="translate(359.52772,169.12364) scale(0.21536,0.21536)" font-size="40" xml:space="preserve" fill="#ffffff" stroke-width="1" font-family="&quot;WJH2&quot;, Sans Serif" font-weight="normal" text-anchor="start"><tspan x="0" dy="0">新</tspan></text></g></g></g></svg>