<svg version="1.1" xmlns="http://www.w3.org/2000/svg" xmlns:xlink="http://www.w3.org/1999/xlink" width="32.94017" height="32.94017" viewBox="0,0,32.94017,32.94017"><g transform="translate(-303.52991,-163.52991)"><g stroke="none" stroke-miterlimit="10"><path d="M303.52992,189.57764c0,-6.27695 0,-15.11655 0,-18.84174c0,-4.21179 3.14173,-7.20598 7.25686,-7.20598c3.67406,0 12.98728,0 19.22837,0c4.08532,0 6.45494,3.98277 6.45494,7.08216c0,3.59193 0,12.33868 0,18.6661c0,4.10513 -3.20938,7.19191 -7.45314,7.19191c-6.5007,0 -15.42853,0 -18.96555,0c-2.90454,0 -6.52149,-2.93757 -6.52149,-6.89246z" fill="#ffffff" stroke-width="NaN"/><path d="M323.8688,171.8169c0,1.8521 0,7.18739 0,7.18739h2.66099c0.33418,0 0.64084,0.18977 0.788,0.48955c0.15127,0.29978 0.11551,0.65459 -0.08389,0.92276l-6.53364,8.64979c-0.16502,0.21865 -0.4263,0.34792 -0.69998,0.34792c-0.27504,0 -0.53905,-0.13064 -0.70409,-0.34792l-6.53083,-8.64979c-0.20077,-0.26817 -0.2324,-0.62706 -0.08389,-0.92276c0.14853,-0.29978 0.45383,-0.48955 0.78798,-0.48955h2.65824c0,0 0,-5.47836 0,-7.14224c0,-0.47711 0.56686,-1.15782 1.37417,-1.1738c1.65803,-0.03281 4.33029,-0.08567 5.18913,-0.1024c0.51629,-0.01005 1.17781,0.60671 1.17781,1.23106z" fill="#009bff" stroke-width="1"/></g></g></svg>