<svg version="1.1" xmlns="http://www.w3.org/2000/svg" xmlns:xlink="http://www.w3.org/1999/xlink" width="614.1289" height="351.49304" viewBox="0,0,614.1289,351.49304"><g transform="translate(-13.639,1.40347)"><g stroke-miterlimit="10"><path d="M468.47506,339.88788c0,-4.34587 0,-9.02664 0,-11.6138c0,-3.74663 4.48787,-9.30771 8.77216,-9.30771c8.74184,0 40.98409,0 56.87202,0c5.44426,0 8.96819,4.34784 8.96819,9.30771c0,4.50207 0,9.5084 0,12.22505c0,3.7706 -3.06239,9.39106 -7.89004,9.39106c-15.53383,0 -49.34432,0 -58.21969,0c-4.17216,0 -8.50262,-4.75724 -8.50262,-10.00232z" fill-opacity="0.76471" fill="#009dff" stroke="#000000" stroke-width="0"/><path d="M390.08412,340.08726c0,-4.34587 0,-9.02664 0,-11.6138c0,-3.74663 4.48787,-9.3077 8.77216,-9.3077c8.74184,0 40.98409,0 56.87202,0c5.44426,0 8.96818,4.34784 8.96818,9.3077c0,4.50207 0,9.5084 0,12.22505c0,3.7706 -3.06238,9.39106 -7.89004,9.39106c-15.53383,0 -49.34432,0 -58.21969,0c-4.17216,0 -8.50262,-4.75724 -8.50262,-10.00231z" fill-opacity="0.76471" fill="#009dff" stroke="#000000" stroke-width="0"/><text transform="translate(488.53551,339.40259) scale(0.43114,0.43114)" font-size="40" xml:space="preserve" fill="#ffffff" stroke="none" stroke-width="1" font-family="Sans Serif" font-weight="normal" text-anchor="start"><tspan x="0" dy="0">日志</tspan></text><text transform="translate(410.14465,339.60196) scale(0.43114,0.43114)" font-size="40" xml:space="preserve" fill="#ffffff" stroke="none" stroke-width="1" font-family="Sans Serif" font-weight="normal" text-anchor="start"><tspan x="0" dy="0">反馈</tspan></text><path d="M546.997,340.08726c0,-4.34587 0,-9.02664 0,-11.6138c0,-3.74663 4.48787,-9.3077 8.77216,-9.3077c8.74184,0 40.98409,0 56.87202,0c5.44426,0 8.96818,4.34784 8.96818,9.3077c0,4.50207 0,9.5084 0,12.22505c0,3.7706 -3.06238,9.39106 -7.89004,9.39106c-15.53383,0 -49.34432,0 -58.21969,0c-4.17216,0 -8.50262,-4.75724 -8.50262,-10.00232z" fill-opacity="0.76471" fill="#009dff" stroke="#000000" stroke-width="0"/><text transform="translate(567.05754,339.60196) scale(0.43114,0.43114)" font-size="40" xml:space="preserve" fill="#ffffff" stroke="none" stroke-width="1" font-family="Sans Serif" font-weight="normal" text-anchor="start"><tspan x="0" dy="0">退出</tspan></text><g stroke="none"><path d="M27.47407,127.73045c0,-4.61075 0,-18.13659 0,-26.19791c0,-3.70529 2.3613,-6.25611 6.4186,-6.25611c22.69083,0 98.42771,0 110.83734,0c3.36778,0 6.21465,3.71305 6.21465,6.83189c0,4.67191 0,18.23053 0,26.19792c0,3.58648 -2.77337,6.04002 -6.07071,6.04002c-12.25233,0 -87.61965,0 -110.6934,0c-4.2334,0 -6.70648,-3.57719 -6.70648,-6.6158z" fill-opacity="0.76471" fill="#009dff" stroke-width="0"/><text transform="translate(68.19173,121.11663) scale(0.52544,0.52544)" font-size="40" xml:space="preserve" fill="#ffffff" stroke-width="1" font-family="Sans Serif" font-weight="normal" text-anchor="start"><tspan x="0" dy="0">登录</tspan></text></g><path d="M27.47407,186.04101c0,-4.61076 0,-18.13659 0,-26.19791c0,-3.70529 2.3613,-6.25611 6.4186,-6.25611c22.69083,0 98.42771,0 110.83734,0c3.36778,0 6.21465,3.71305 6.21465,6.83189c0,4.67191 0,18.23053 0,26.19792c0,3.58648 -2.77337,6.04002 -6.07071,6.04002c-12.25233,0 -87.61965,0 -110.6934,0c-4.2334,0 -6.70648,-3.57719 -6.70648,-6.6158z" fill-opacity="0.76471" fill="#009dff" stroke="none" stroke-width="0"/><text transform="translate(68.19173,175.18713) scale(0.52544,0.52544)" font-size="40" xml:space="preserve" fill="#ffffff" stroke="none" stroke-width="1" font-family="Sans Serif" font-weight="normal" text-anchor="start"><tspan x="0" dy="0">关于</tspan></text><g stroke="none"><path d="M27.47407,244.35156c0,-4.61076 0,-18.1366 0,-26.19792c0,-3.70529 2.3613,-6.25611 6.4186,-6.25611c22.69083,0 98.42771,0 110.83734,0c3.36778,0 6.21465,3.71305 6.21465,6.83189c0,4.67191 0,18.23053 0,26.19792c0,3.58648 -2.77337,6.04002 -6.07071,6.04002c-12.25233,0 -87.61965,0 -110.6934,0c-4.2334,0 -6.70648,-3.57719 -6.70648,-6.61579z" fill-opacity="0.76471" fill="#009dff" stroke-width="0"/><text transform="translate(68.19173,237.73773) scale(0.52544,0.52544)" font-size="40" xml:space="preserve" fill="#ffffff" stroke-width="1" font-family="Sans Serif" font-weight="normal" text-anchor="start"><tspan x="0" dy="0">鸣谢</tspan></text></g><g stroke="none"><path d="M27.47407,303.64121c0,-4.61076 0,-18.13659 0,-26.19791c0,-3.70529 2.3613,-6.25611 6.4186,-6.25611c22.69083,0 98.42771,0 110.83734,0c3.36778,0 6.21465,3.71305 6.21465,6.83189c0,4.67191 0,18.23052 0,26.19791c0,3.58648 -2.77337,6.04002 -6.07071,6.04002c-12.25233,0 -87.61965,0 -110.6934,0c-4.2334,0 -6.70648,-3.57719 -6.70648,-6.6158z" fill-opacity="0.76471" fill="#009dff" stroke-width="0"/><text transform="translate(47.17418,297.02737) scale(0.52544,0.52544)" font-size="40" xml:space="preserve" fill="#ffffff" stroke-width="1" font-family="Sans Serif" font-weight="normal" text-anchor="start"><tspan x="0" dy="0">使用条例</tspan></text></g><text transform="translate(220.61571,32.60851) scale(0.79282,0.79282)" font-size="40" xml:space="preserve" fill="#ffffff" stroke="none" stroke-width="1" font-family="Sans Serif" font-weight="400" text-anchor="start"><tspan x="0" dy="0">主页</tspan></text><g font-family="Sans Serif" font-weight="normal" font-size="40" text-anchor="start"><text transform="translate(14.63817,74.4719) scale(0.39967,0.39967)" font-size="40" xml:space="preserve" fill="#ffffff" stroke="#ffffff" stroke-width="5"><tspan x="0" dy="0">Saychat 3.2.5-Beta1</tspan></text><text transform="translate(14.63817,74.4719) scale(0.39967,0.39967)" font-size="40" xml:space="preserve" fill="#009fff" stroke="none" stroke-width="1"><tspan x="0" dy="0">Saychat 3.2.5-Beta1</tspan></text></g><g font-family="Sans Serif" font-weight="normal" font-size="40" text-anchor="start"><text transform="translate(551.17305,32.94855) scale(0.46847,0.46847)" font-size="40" xml:space="preserve" fill="#ffffff" stroke="#ffffff" stroke-width="5"><tspan x="0" dy="0">紧急修复</tspan></text><text transform="translate(551.17305,32.94855) scale(0.46847,0.46847)" font-size="40" xml:space="preserve" fill="#009fff" stroke="none" stroke-width="1"><tspan x="0" dy="0">紧急修复</tspan></text></g><text transform="translate(51.90239,189.88309) scale(0.31088,0.31088)" font-size="40" xml:space="preserve" fill="#ffffff" stroke="none" stroke-width="1" font-family="Sans Serif" font-weight="normal" text-anchor="start"><tspan x="0" dy="0">所有制作人员</tspan></text></g></g></svg>