<svg version="1.1" xmlns="http://www.w3.org/2000/svg" xmlns:xlink="http://www.w3.org/1999/xlink" width="44.06269" height="31.7111" viewBox="0,0,44.06269,31.7111"><g transform="translate(-299.21842,-164.14445)"><g fill="#000000" stroke="#000000" stroke-miterlimit="10"><path d="M304.96407,195.85555c-0.98625,0 -1.99399,0 -2.625,0c-1.19006,0 -3.12065,-1.14877 -3.12065,-2.99306c0,-6.60011 0,-22.10769 0,-25.75c0,-1.49749 1.44164,-2.96804 2.99565,-2.96804c1.23458,0 2.54008,0 3.25,0c1.00432,0 2.45,1.54119 2.45,3.09304c0,3.73291 0,19.45886 0,25.875c0,1.69726 -1.45016,2.74306 -2.95,2.74306z" stroke-width="0" stroke-linecap="butt"/><path d="M319.86711,191.52421c-4.88234,-3.02239 -13.48852,-8.35003 -16.0223,-9.91858c-1.38294,-0.85611 -1.71592,-2.50193 0.0287,-3.59684c4.46655,-2.80315 12.79868,-8.03227 15.51334,-9.73596c1.67651,-1.05214 3.65488,-0.15655 3.67575,1.7412c0.0364,3.31257 0.15501,14.10637 0.21866,19.89726c0.02478,2.25544 -1.35539,2.88737 -3.41414,1.61291z" stroke-width="5" stroke-linecap="round"/><path d="M337.36711,191.52421c-4.88234,-3.02239 -13.48852,-8.35003 -16.0223,-9.91858c-1.38294,-0.85611 -1.71592,-2.50193 0.0287,-3.59684c4.46655,-2.80315 12.79868,-8.03227 15.51334,-9.73596c1.67651,-1.05214 3.65488,-0.15655 3.67575,1.7412c0.0364,3.31257 0.15501,14.10637 0.21866,19.89726c0.02478,2.25544 -1.35539,2.88737 -3.41414,1.61291z" stroke-width="5" stroke-linecap="round"/></g></g></svg>