<svg version="1.1" xmlns="http://www.w3.org/2000/svg" xmlns:xlink="http://www.w3.org/1999/xlink" width="206.3037" height="67.65876" viewBox="0,0,206.3037,67.65876"><g transform="translate(-216.84815,-146.17062)"><g stroke-miterlimit="10"><path d="M236.06068,155.2157c41.57937,-0.00849 142.88833,-0.04018 166.91156,-0.04508c6.10455,-0.00124 11.17027,5.88246 11.1712,10.97283c0.00145,7.99942 0.00582,13.41719 0.00841,27.71112c0.00118,6.50313 -3.83791,10.97502 -10.53523,10.97481c-42.13212,-0.00132 -143.21424,-0.00619 -166.91156,-0.00692c-5.94281,-0.00019 -10.84421,-4.61473 -10.84581,-11.29015c-0.00346,-14.43535 -0.0092,-19.81964 -0.0111,-27.7111c-0.00118,-4.94774 3.71456,-10.60417 10.21253,-10.60548z" fill="#000000" fill-rule="evenodd" stroke="#000000" stroke-width="18" stroke-linecap="round" stroke-linejoin="round" opacity="0.42445"/><path d="M236.06068,155.2157c41.57937,-0.00849 142.88833,-0.04018 166.91156,-0.04508c6.10455,-0.00124 11.17027,5.88246 11.1712,10.97283c0.00145,7.99942 0.00582,13.41719 0.00841,27.71112c0.00118,6.50313 -3.83791,10.97502 -10.53523,10.97481c-42.13212,-0.00132 -143.21424,-0.00619 -166.91156,-0.00692c-5.94281,-0.00019 -10.84421,-4.61473 -10.84581,-11.29015c-0.00346,-14.43535 -0.0092,-19.81964 -0.0111,-27.7111c-0.00118,-4.94774 3.71456,-10.60417 10.21253,-10.60548z" fill="#000000" fill-rule="evenodd" stroke="#000000" stroke-width="0" stroke-linecap="round" stroke-linejoin="round" opacity="0.42445"/><text transform="translate(261.82333,188.39018) scale(0.72721,0.72721)" font-size="40" xml:space="preserve" fill="#000000" fill-rule="nonzero" stroke="#000000" stroke-width="5" stroke-linecap="butt" stroke-linejoin="miter" font-family="Sans Serif" font-weight="normal" text-anchor="start"><tspan x="0" dy="0">选择房间</tspan></text><text transform="translate(261.82333,188.39018) scale(0.72721,0.72721)" font-size="40" xml:space="preserve" fill="#ffffff" fill-rule="nonzero" stroke="none" stroke-width="1" stroke-linecap="butt" stroke-linejoin="miter" font-family="Sans Serif" font-weight="normal" text-anchor="start"><tspan x="0" dy="0">选择房间</tspan></text></g></g></svg>