<svg version="1.1" xmlns="http://www.w3.org/2000/svg" xmlns:xlink="http://www.w3.org/1999/xlink" width="30.31224" height="30.31224" viewBox="0,0,30.31224,30.31224"><g transform="translate(-304.02108,-272.83859)"><g stroke-miterlimit="10"><path d="M304.02108,295.62791c0,-3.10286 0,-9.87133 0,-15.23018c0,-4.21577 3.34842,-7.55914 7.5633,-7.55914c5.31219,0 12.0007,0 15.09658,0c3.22655,0 7.65236,3.27436 7.65236,7.42553c0,5.35587 0,12.17131 0,15.29698c0,3.20659 -3.39519,7.58973 -7.65236,7.58973c-5.30561,0 -11.95006,0 -15.02978,0c-3.21946,0 -7.6301,-4.33771 -7.6301,-7.52293z" fill-opacity="0.4902" fill="#ffffff" stroke="none" stroke-width="0"/><g fill="#ffffff"><path d="M311.05471,282.99253c0,-2.8423 2.30413,-5.14645 5.14644,-5.14645c2.8423,0 5.14645,2.30414 5.14645,5.14645c0,2.8423 -2.30414,5.14644 -5.14645,5.14644c-2.8423,0 -5.14644,-2.30413 -5.14644,-5.14644z" stroke="#009bff" stroke-width="1"/><path d="M317.73094,287.72935c1.95228,1.1789 3.53155,3.00535 4.37841,5.31289c0.45094,1.22871 0.65527,2.48773 0.63812,3.7228c-0.0074,0.53314 -0.68087,1.58165 -1.24183,1.58165c-1.43473,0 -7.81469,0 -10.56048,0c-0.77745,0 -1.39214,-0.96445 -1.40499,-1.4545c-0.03344,-1.27571 0.16914,-2.57904 0.63556,-3.84995c0.84685,-2.30755 2.42614,-4.13398 4.37841,-5.31289" stroke="#009bff" stroke-width="1"/><path d="M314.45236,288.63525v-2.2984h3.19779v2.2984z" stroke="none" stroke-width="0"/></g><path d="M321.92076,282.01126c0,-0.83196 0,-1.79126 0,-2.24656c0,-0.50155 0.46758,-1.17436 1.16911,-1.17436c1.77909,0 5.06281,0 6.04074,0c0.54001,0 1.13081,0.54087 1.13081,0.97466c0,0.46984 0,1.57634 0,2.49618c0,0.78584 -0.40681,1.43544 -1.03097,1.43544c-1.74501,0 -5.18886,0 -6.19052,0c-0.53537,0 -1.11919,-0.68353 -1.11919,-1.48537z" fill="#ffffff" stroke="#009bff" stroke-width="1"/><text transform="translate(323.62478,281.38964) scale(0.1511,0.1511)" font-size="40" xml:space="preserve" fill="#009bff" stroke="#009bff" stroke-width="1" font-family="Sans Serif" font-weight="normal" text-anchor="start"><tspan x="0" dy="0">...</tspan></text></g></g></svg>