<svg version="1.1" xmlns="http://www.w3.org/2000/svg" xmlns:xlink="http://www.w3.org/1999/xlink" width="52.09301" height="16.49612" viewBox="0,0,52.09301,16.49612"><g transform="translate(-293.95349,-171.75194)"><g stroke-miterlimit="10"><path d="M293.95349,184.32298c0,-3.03723 0,-7.00832 0,-8.74245c0,-1.64697 1.399,-3.82859 3.7261,-3.82859c10.33544,0 38.97827,0 44.67698,0c1.9277,0 3.68993,1.61098 3.68993,3.70801c0,2.92635 0,6.79923 0,8.56158c0,1.77557 -1.7298,4.22653 -3.62962,4.22653c-5.65689,0 -34.27473,0 -44.67698,0c-2.3633,0 -3.78638,-1.71538 -3.78638,-3.92507z" fill="#ffffff" stroke="none" stroke-width="0" stroke-linecap="butt"/><text transform="translate(310.34859,182.19499) scale(0.19025,0.19025)" font-size="40" xml:space="preserve" fill="#009bff" stroke="none" stroke-width="1" stroke-linecap="butt" font-family="Sans Serif" font-weight="normal" text-anchor="start"><tspan x="0" dy="0">退出登录</tspan></text><path d="M303.5055,183.68241h-4.90003v-7.36487h5.00004" fill="none" stroke="#009bff" stroke-width="1.5" stroke-linecap="round"/><path d="M302.18457,179.40957c0,0 2.82758,-0.00115 4.11177,-0.00115c0.33639,0 0.60907,0.26085 0.60907,0.58255c0,0.32176 -0.27268,0.58251 -0.60907,0.58251c-1.07665,0 -4.10847,0.00119 -4.10847,0.00119c0,0 0.20354,0.19702 1.14256,1.0951c0.23787,0.22753 0.23787,0.59633 0,0.82381c-0.238,0.22747 -0.62353,0.22753 -0.86136,0c-0.7614,-0.72815 -2.1851,-2.09001 -2.1851,-2.09001c-0.23783,-0.22753 -0.23783,-0.59639 0,-0.82381c0,0 1.2286,-1.17517 2.1676,-2.0733c0.238,-0.22764 0.62358,-0.22764 0.86136,0c0.23787,0.22749 0.23787,0.59639 0,0.82369c-0.76142,0.72848 -1.12837,1.07941 -1.12837,1.07941z" fill="#009bff" stroke="none" stroke-width="0" stroke-linecap="butt"/></g></g></svg>