<svg version="1.1" xmlns="http://www.w3.org/2000/svg" xmlns:xlink="http://www.w3.org/1999/xlink" width="101.6669" height="66.84212" viewBox="0,0,101.6669,66.84212"><g transform="translate(-269.16643,-128.15788)"><g stroke-miterlimit="10"><path d="M270.41667,186.04167c0,-4.30299 0,-9.30189 0,-11.875c0,-3.2264 3.95429,-7.91667 8.125,-7.91667c11.28668,0 63.82666,0 83.54167,0c4.67149,0 7.5,4.39898 7.5,7.5c0,2.48719 0,7.35586 0,11.66667c0,4.46605 -3.49901,8.33333 -7.29167,8.33333c-10.79424,0 -63.34319,0 -83.75,0c-5.04457,0 -8.125,-3.52535 -8.125,-7.70833z" fill="#ffffff" stroke="#009fff" stroke-width="2.5"/><text transform="translate(288.85417,185.58735) scale(0.38932,0.38932)" font-size="40" xml:space="preserve" fill="#009fff" stroke="none" stroke-width="1" font-family="Sans Serif" font-weight="normal" text-anchor="start"><tspan x="0" dy="0">检查错误</tspan></text><path d="M270.41643,149.19955c0,-4.30299 0,-9.30189 0,-11.875c0,-3.2264 3.95429,-7.91667 8.125,-7.91667c11.28668,0 63.82666,0 83.54167,0c4.67149,0 7.5,4.39898 7.5,7.5c0,2.48719 0,7.35586 0,11.66667c0,4.46605 -3.49901,8.33333 -7.29167,8.33333c-10.79424,0 -63.34319,0 -83.75,0c-5.04457,0 -8.125,-3.52535 -8.125,-7.70833z" fill="#ffffff" stroke="#009fff" stroke-width="2.5"/><text transform="translate(288.85393,148.74524) scale(0.38932,0.38932)" font-size="40" xml:space="preserve" fill="#009fff" stroke="none" stroke-width="1" font-family="Sans Serif" font-weight="normal" text-anchor="start"><tspan x="0" dy="0">错误报告</tspan></text></g></g></svg>