<svg version="1.1" xmlns="http://www.w3.org/2000/svg" xmlns:xlink="http://www.w3.org/1999/xlink" width="164.66828" height="153.69143" viewBox="0,0,164.66828,153.69143"><g transform="translate(-160.53172,-114.3419)"><g data-paper-data="{&quot;isPaintingLayer&quot;:true}" fill-rule="nonzero" stroke="none" stroke-width="0" stroke-linecap="butt" stroke-linejoin="miter" stroke-miterlimit="10" stroke-dasharray="" stroke-dashoffset="0" style="mix-blend-mode: normal"><path d="M305.67051,163.48333c0,7.16298 0.70236,42.7216 -2.39355,48.68021c-4.50027,8.66154 -36.57222,33.21495 -46.59377,36.46373c-6.20719,2.01224 -8.16295,-4.39394 -14.67294,-4.39394c-8.06203,0 -17.4166,4.8476 -23.91012,1.09123c-13.03929,-7.54297 -20.00014,-28.55356 -20.00014,-44.59123c0,-9.98572 -5.60357,-23.58558 0.10728,-30.92768c8.02874,-10.32207 -6.36809,-37.32232 7.80297,-37.32232c9.16881,0 47.00129,-5.2522 54.52632,-1.41554c0.47494,0.24215 15.17974,-0.48049 15.61226,-0.16444c10.84008,7.92104 24.27167,7.21203 24.27167,21.57998z" fill="#fcfcff"/><path d="M267,250.79153c0,9.52238 -7.83502,17.2418 -17.5,17.2418c-9.66498,0 -17.5,-7.71942 -17.5,-17.2418c0,-9.52238 7.83502,-17.2418 17.5,-17.2418c9.66498,0 17.5,7.71942 17.5,17.2418z" fill="#fcfcff"/><path d="M286,239.08333c0,7.12447 -5.59644,12.9 -12.5,12.9c-6.90356,0 -12.5,-5.77553 -12.5,-12.9c0,-7.12447 5.59644,-12.9 12.5,-12.9c6.90356,0 12.5,5.77552 12.5,12.9z" fill="#fcfcff"/><path d="M292.95,231.98334c0,7.12447 -5.59644,12.9 -12.5,12.9c-6.90356,0 -12.5,-5.77553 -12.5,-12.9c0,-7.12447 5.59644,-12.9 12.5,-12.9c6.90356,0 12.5,5.77553 12.5,12.9z" fill="#fcfcff"/><path d="M275.5,246.88334c0,7.12447 -5.59644,12.9 -12.5,12.9c-6.90356,0 -12.5,-5.77552 -12.5,-12.9c0,-7.12447 5.59644,-12.9 12.5,-12.9c6.90356,0 12.5,5.77553 12.5,12.9z" fill="#fcfcff"/><path d="M316.5,224.39433c0,10.0455 -7.89098,18.189 -17.625,18.189c-9.73402,0 -17.625,-8.1435 -17.625,-18.189c0,-10.0455 7.89098,-18.189 17.625,-18.189c9.73402,0 17.625,8.14348 17.625,18.189z" fill="#fcfcff"/><path d="M325.2,209.02458c0,10.47063 -8.11484,18.95875 -18.125,18.95875c-10.01016,0 -18.125,-8.48812 -18.125,-18.95875c0,-10.47063 8.11484,-18.95875 18.125,-18.95875c10.01016,0 18.125,8.48812 18.125,18.95875z" fill="#fcfcff"/><path d="M323.7,190.83334c0,6.46174 -5.59644,11.7 -12.5,11.7c-6.90356,0 -12.5,-5.23827 -12.5,-11.7c0,-6.46174 5.59644,-11.7 12.5,-11.7c6.90356,0 12.5,5.23826 12.5,11.7z" fill="#fcfcff"/><path d="M321.3,171.78334c0,8.89179 -5.59644,16.1 -12.5,16.1c-6.90356,0 -12.5,-7.20821 -12.5,-16.1c0,-8.89179 5.59644,-16.1 12.5,-16.1c6.90356,0 12.5,7.20821 12.5,16.1z" fill="#fcfcff"/><path d="M319.35,152.24133c0,8.14179 -7.05151,14.742 -15.75,14.742c-8.69849,0 -15.75,-6.60021 -15.75,-14.742c0,-8.14179 7.05151,-14.742 15.75,-14.742c8.69849,0 15.75,6.60022 15.75,14.742z" fill="#fcfcff"/><path d="M308.65,134.07334c0,9.82184 -8.50659,17.784 -19,17.784c-10.49341,0 -19,-7.96216 -19,-17.784c0,-9.82184 8.50659,-17.784 19,-17.784c10.49341,0 19,7.96217 19,17.784z" fill="#fcfcff"/><path d="M253.55,154.23334c0,6.46174 -5.59644,11.7 -12.5,11.7c-6.90356,0 -12.5,-5.23826 -12.5,-11.7c0,-6.46174 5.59644,-11.7 12.5,-11.7c6.90356,0 12.5,5.23827 12.5,11.7z" fill="#fcfcff"/><path d="M287.72564,129.92241c0,8.60488 -7.29231,15.58051 -16.28782,15.58051c-8.99552,0 -16.28782,-6.97563 -16.28782,-15.58051c0,-8.60488 7.29231,-15.58051 16.28782,-15.58051c8.99552,0 16.28782,6.97563 16.28782,15.58051z" fill="#fcfcff"/><path d="M231.52692,143.68334c0,5.46762 -4.58391,9.9 -10.23846,9.9c-5.65455,0 -10.23846,-4.43238 -10.23846,-9.9c0,-5.46762 4.58391,-9.9 10.23846,-9.9c5.65455,0 10.23846,4.43238 10.23846,9.9z" fill="#fcfcff"/><path d="M245.45,157.08334c0,6.46174 -5.59644,11.7 -12.5,11.7c-6.90356,0 -12.5,-5.23826 -12.5,-11.7c0,-6.46174 5.59644,-11.7 12.5,-11.7c6.90356,0 12.5,5.23827 12.5,11.7z" fill="#fcfcff"/><path d="M227.65,153.34174c0,7.37764 -6.17847,13.3584 -13.8,13.3584c-7.62153,0 -13.8,-5.98076 -13.8,-13.3584c0,-7.37764 6.17847,-13.3584 13.8,-13.3584c7.62153,0 13.8,5.98076 13.8,13.3584z" fill="#fcfcff"/><path d="M224.85,162.34174c0,7.37765 -6.17847,13.3584 -13.8,13.3584c-7.62153,0 -13.8,-5.98075 -13.8,-13.3584c0,-7.37765 6.17847,-13.3584 13.8,-13.3584c7.62153,0 13.8,5.98075 13.8,13.3584z" fill="#fcfcff"/><path d="M218.85,181.83134c0,9.3049 -8.05887,16.848 -18,16.848c-9.94113,0 -18,-7.5431 -18,-16.848c0,-9.3049 8.05887,-16.848 18,-16.848c9.94113,0 18,7.5431 18,16.848z" fill="#fcfcff"/><path d="M225.25,201.14174c0,7.37765 -6.17847,13.3584 -13.8,13.3584c-7.62153,0 -13.8,-5.98075 -13.8,-13.3584c0,-7.37765 6.17847,-13.3584 13.8,-13.3584c7.62153,0 13.8,5.98075 13.8,13.3584z" fill="#fcfcff"/><path d="M219.65,210.54174c0,5.38942 -4.51341,9.7584 -10.08099,9.7584c-5.56758,0 -10.08099,-4.36898 -10.08099,-9.7584c0,-5.38942 4.51341,-9.7584 10.08099,-9.7584c5.56758,0 10.08099,4.36898 10.08099,9.7584z" fill="#fcfcff"/><path d="M217.41667,194.58334c-4.14213,0 -7.5,-3.20862 -7.5,-7.16666c0,-3.95804 3.35787,-7.16666 7.5,-7.16666c4.14213,0 7.5,3.20862 7.5,7.16666c0,3.95804 -3.35787,7.16666 -7.5,7.16666z" fill="#fcb400"/><path d="M239.25,224.34174c0,7.37765 -6.17847,13.3584 -13.8,13.3584c-7.62153,0 -13.8,-5.98075 -13.8,-13.3584c0,-7.37765 6.17847,-13.3584 13.8,-13.3584c7.62153,0 13.8,5.98076 13.8,13.3584z" fill="#fcfcff"/><path d="M241.65,228.74174c0,7.37765 -6.17847,13.3584 -13.8,13.3584c-7.62153,0 -13.8,-5.98075 -13.8,-13.3584c0,-7.37765 6.17847,-13.3584 13.8,-13.3584c7.62153,0 13.8,5.98075 13.8,13.3584z" fill="#fcfcff"/><path d="M254.65,166.07626c0,5.91335 -4.74578,10.70707 -10.6,10.70707c-5.85422,0 -10.6,-4.79372 -10.6,-10.70707c0,-5.91335 4.74578,-10.70707 10.6,-10.70707c5.85422,0 10.6,4.79372 10.6,10.70707z" fill="#484855"/><path d="M248.05,168.29647c0,6.24807 -5.01441,11.31313 -11.2,11.31313c-6.18559,0 -11.2,-5.06506 -11.2,-11.31313c0,-6.24807 5.01441,-11.31313 11.2,-11.31313c6.18559,0 11.2,5.06506 11.2,11.31313z" fill="#484855"/><path d="M224.7283,211.18334c-2.755,0 -4.98837,-2.1341 -4.98837,-4.76666c0,-2.63256 2.23337,-4.76666 4.98837,-4.76666c2.755,0 4.98837,2.1341 4.98837,4.76666c0,2.63256 -2.23337,4.76666 -4.98837,4.76666z" fill="#fcb400"/><path d="M242.85,174.89647c0,6.24806 -5.01441,11.31313 -11.2,11.31313c-6.18559,0 -11.2,-5.06507 -11.2,-11.31313c0,-6.24806 5.01441,-11.31313 11.2,-11.31313c6.18559,0 11.2,5.06507 11.2,11.31313z" fill="#484855"/><path d="M243.05,182.29647c0,6.24806 -5.01441,11.31313 -11.2,11.31313c-6.18559,0 -11.2,-5.06507 -11.2,-11.31313c0,-6.24806 5.01441,-11.31313 11.2,-11.31313c6.18559,0 11.2,5.06507 11.2,11.31313z" fill="#484855"/><path d="M249.45,193.89647c0,6.24806 -5.01441,11.31313 -11.2,11.31313c-6.18559,0 -11.2,-5.06507 -11.2,-11.31313c0,-6.24806 5.01441,-11.31313 11.2,-11.31313c6.18559,0 11.2,5.06507 11.2,11.31313z" fill="#484855"/><path d="M251.45,203.89647c0,6.24806 -5.01441,11.31313 -11.2,11.31313c-6.18559,0 -11.2,-5.06507 -11.2,-11.31313c0,-6.24806 5.01441,-11.31313 11.2,-11.31313c6.18559,0 11.2,5.06507 11.2,11.31313z" fill="#484855"/><path d="M260.85,201.69647c0,6.24806 -5.01441,11.31313 -11.2,11.31313c-6.18559,0 -11.2,-5.06507 -11.2,-11.31313c0,-6.24806 5.01441,-11.31313 11.2,-11.31313c6.18559,0 11.2,5.06507 11.2,11.31313z" fill="#484855"/><path d="M273.45,197.69647c0,5.58532 -5.01441,10.11313 -11.2,10.11313c-6.18559,0 -11.2,-4.52781 -11.2,-10.11313c0,-5.58532 5.01441,-10.11313 11.2,-10.11313c6.18559,0 11.2,4.52781 11.2,10.11313z" fill="#484855"/><path d="M272.05,189.49647c0,5.58533 -5.01441,10.11314 -11.2,10.11314c-6.18559,0 -11.2,-4.52781 -11.2,-10.11313c0,-5.58533 5.01441,-10.11313 11.2,-10.11313c6.18559,0 11.2,4.5278 11.2,10.11313z" fill="#484855"/><path d="M275.65,174.43845c0,6.87877 -5.23827,12.45512 -11.7,12.45512c-6.46173,0 -11.7,-5.57636 -11.7,-12.45512c0,-6.87877 5.23827,-12.45512 11.7,-12.45512c6.46173,0 11.7,5.57635 11.7,12.45512z" fill="#484855"/><path d="M260.45,182.03846c0,6.87877 -5.23827,12.45512 -11.7,12.45512c-6.46173,0 -11.7,-5.57635 -11.7,-12.45512c0,-6.87877 5.23827,-12.45512 11.7,-12.45512c6.46173,0 11.7,5.57635 11.7,12.45512z" fill="#484855"/><path d="M278.22564,132.17241c0,8.60488 -7.29232,15.58051 -16.28782,15.58051c-8.99552,0 -16.28782,-6.97563 -16.28782,-15.58051c0,-8.60488 7.29232,-15.58051 16.28782,-15.58051c8.99552,0 16.28782,6.97563 16.28782,15.58051z" fill="#fcfcff"/><path d="M250.30834,148.63441c-8.1686,2.70518 -17.08309,-2.02443 -19.91107,-10.56384c-2.82799,-8.53944 1.50144,-17.65498 9.67003,-20.36015c8.1686,-2.70518 17.08309,2.02443 19.91107,10.56384c2.82799,8.53944 -1.50144,17.65498 -9.67003,20.36015z" fill="#fcfcff"/><path d="M220.95776,152.25063c-9.60341,3.18034 -20.08373,-2.38002 -23.40845,-12.41939c-3.32472,-10.03939 1.76517,-20.75608 11.36858,-23.93642c9.60341,-3.18034 20.08373,2.38002 23.40845,12.41939c3.32472,10.03939 -1.76517,20.75608 -11.36858,23.93642z" fill="#fcfcff"/><path d="M207.95776,160.50063c-9.60341,3.18034 -20.08373,-2.38002 -23.40845,-12.41939c-3.32472,-10.03939 1.76517,-20.75609 11.36858,-23.93643c9.60341,-3.18034 20.08373,2.38002 23.40845,12.41939c3.32472,10.03939 -1.76517,20.75609 -11.36858,23.93643z" fill="#fcfcff"/><path d="M204.20776,176.50063c-9.60341,3.18034 -20.08373,-2.38002 -23.40845,-12.41939c-3.32472,-10.03939 1.76517,-20.75609 11.36858,-23.93643c9.60341,-3.18034 20.08373,2.38002 23.40845,12.41939c3.32472,10.03939 -1.76517,20.75609 -11.36858,23.93643z" fill="#fcfcff"/><path d="M190.59777,203.102c-11.82085,3.91469 -24.7211,-2.92958 -28.8135,-15.28705c-4.0924,-12.3575 2.17275,-25.5487 13.9936,-29.46339c11.82085,-3.91469 24.7211,2.92958 28.8135,15.28705c4.0924,12.3575 -2.17275,25.5487 -13.9936,29.46339z" fill="#fcfcff"/><path d="M249.5,237.03271c0,13.80745 -11.36077,25.00062 -25.375,25.00062c-14.01423,0 -25.375,-11.19317 -25.375,-25.00062c0,-13.80745 11.36077,-25.00061 25.375,-25.00061c14.01423,0 25.375,11.19316 25.375,25.00061z" fill="#fcfcff"/><path d="M217.00665,217.40772c0,9.32014 -7.66861,16.87561 -17.12833,16.87561c-9.45972,0 -17.12833,-7.55548 -17.12833,-16.87561c0,-9.32014 7.66861,-16.87561 17.12833,-16.87561c9.45972,0 17.12833,7.55547 17.12833,16.87561z" fill="#fcfcff"/><path d="M214.50666,206.65772c0,9.32014 -7.66862,16.87562 -17.12833,16.87562c-9.45971,0 -17.12832,-7.55548 -17.12832,-16.87562c0,-9.32014 7.66861,-16.87561 17.12832,-16.87561c9.45971,0 17.12833,7.55547 17.12833,16.87561z" fill="#fcfcff"/></g></g></svg>