<svg version="1.1" xmlns="http://www.w3.org/2000/svg" xmlns:xlink="http://www.w3.org/1999/xlink" width="78.65439" height="126.38409" viewBox="0,0,78.65439,126.38409"><g transform="translate(-285.34384,-64.37527)"><g stroke-miterlimit="10"><path d="M286.34384,183.24502c0,-2.56752 0,-5.27013 0,-6.8265c0,-2.45081 2.79519,-6.17788 5.67387,-6.17788c7.18221,0 38.43026,0 51.62869,0c3.64874,0 5.91802,3.72707 5.91802,6.17788c0,1.55637 0,4.25898 0,6.8265c0,3.3738 -2.7144,6.51434 -5.5291,6.51434c-7.11898,0 -38.45911,0 -51.72591,0c-3.6769,0 -5.96555,-3.93483 -5.96555,-6.51434z" fill="#ffffff" stroke="#009fff" stroke-width="2"/><path d="M286.34385,156.76353c0,-2.56751 0,-5.27013 0,-6.82649c0,-2.45081 2.79519,-6.17788 5.67387,-6.17788c7.18221,0 38.43026,0 51.62869,0c3.64874,0 5.91802,3.72707 5.91802,6.17788c0,1.55636 0,4.25898 0,6.82649c0,3.37381 -2.7144,6.51434 -5.5291,6.51434c-7.11899,0 -38.45911,0 -51.72591,0c-3.6769,0 -5.96555,-3.93483 -5.96555,-6.51434z" fill="#ffffff" stroke="#009fff" stroke-width="2"/><text transform="translate(298.12214,156.49331) scale(0.2479,0.2479)" font-size="40" xml:space="preserve" fill="#000000" stroke="none" stroke-width="1" font-family="Sans Serif" font-weight="normal" text-anchor="start"><tspan x="0" dy="0">刷新消息</tspan></text><text transform="translate(293.16413,182.9748) scale(0.2479,0.2479)" font-size="40" xml:space="preserve" fill="#000000" stroke="none" stroke-width="1" font-family="Sans Serif" font-weight="normal" text-anchor="start"><tspan x="0" dy="0">重加载头像</tspan></text><text transform="translate(294.27013,136.65403) scale(0.29605,0.29605)" font-size="40" xml:space="preserve" fill="#000000" stroke="none" stroke-width="1" font-family="Sans Serif" font-weight="normal" text-anchor="start"><tspan x="0" dy="0">手动刷新</tspan></text><text transform="translate(288.38445,73.34852) scale(0.20917,0.20917)" font-size="40" xml:space="preserve" fill="#ffffff" stroke="none" stroke-width="1" font-family="&quot;Microsoft YaHei&quot;, &quot;微软雅黑&quot;, STXihei, &quot;华文细黑&quot;" font-weight="normal" text-anchor="start"><tspan x="0" dy="0">即将添加自定义群聊</tspan><tspan x="0" dy="46.15px">尽情期待！</tspan></text></g></g></svg>