<svg version="1.1" xmlns="http://www.w3.org/2000/svg" xmlns:xlink="http://www.w3.org/1999/xlink" width="24.34401" height="25.85795" viewBox="0,0,24.34401,25.85795"><g transform="translate(-218.60072,-166.14596)"><g data-paper-data="{&quot;isPaintingLayer&quot;:true}" fill-rule="nonzero" stroke-linejoin="miter" stroke-miterlimit="10" stroke-dasharray="" stroke-dashoffset="0" style="mix-blend-mode: normal"><path d="M242.94473,178.73966c0,2.76076 -0.23137,5.10592 -2.73865,6.61888c-0.18076,0.10908 -1.8082,0.67155 -1.81289,1.08603c-0.00846,0.74794 0.0002,5.11757 -0.2525,5.16272c-2.63537,0.47085 -8.44138,0.64147 -10.15168,-0.16401c-0.12643,-0.05955 0.01791,-4.00391 -0.23285,-5.01272c-0.09403,-0.37829 -1.48351,-0.68263 -1.72026,-0.81608c-2.65683,-1.49759 -3.23642,-4.01801 -3.23642,-6.87482c0,-4.59381 4.50965,-8.31782 10.07262,-8.31782c5.56295,0 10.07262,3.72402 10.07262,8.31782z" fill="#000000" stroke="#000000" stroke-width="0" stroke-linecap="butt"/><path d="M239.74597,175.46379c0,2.76076 -0.23137,5.10592 -2.73865,6.61888c-0.18076,0.10908 -1.8082,0.67155 -1.81289,1.08603c-0.00846,0.74794 0.0002,5.11757 -0.2525,5.16272c-2.63537,0.47085 -8.44138,0.64147 -10.15168,-0.16401c-0.12643,-0.05955 0.01791,-4.00391 -0.23285,-5.01272c-0.09403,-0.37829 -1.48351,-0.68263 -1.72026,-0.81608c-2.65683,-1.49759 -3.23642,-4.01801 -3.23642,-6.87482c0,-4.59381 4.50965,-8.31782 10.07262,-8.31782c5.56295,0 10.07262,3.72402 10.07262,8.31782z" fill="#ffffff" stroke="#000000" stroke-width="2" stroke-linecap="butt"/><path d="M236.63274,181.17599c-0.18076,0.10908 -2.5694,1.25195 -2.57408,1.66643c-0.00846,0.74794 0.24167,4.56517 -0.01104,4.61032c-2.63537,0.47085 -6.58592,0.89785 -8.29621,0.09237c-0.12643,-0.05955 0.01791,-3.90602 -0.23285,-4.91483c-0.09403,-0.37829 1.74417,-1.56783 7.30713,-1.56783c5.56295,0 5.86344,-10.20412 5.86344,-5.6103c0,0 0.45088,4.2109 -2.05639,5.72385z" fill="#ebebeb" stroke="none" stroke-width="0" stroke-linecap="butt"/><g fill="none" stroke="#000000" stroke-width="1.5" stroke-linecap="round"><path d="M235.12983,174.26921l-3.17937,2.545"/><path d="M232.12232,174.26921l2.6638,2.545"/></g><g fill="none" stroke="#000000" stroke-width="1.5" stroke-linecap="round"><path d="M227.65402,174.41888l-3.17937,2.545"/><path d="M227.31031,176.88906l-2.6638,-2.545"/></g><path d="M228.72812,179.6212c0,-0.49608 0.46167,-0.89823 1.03116,-0.89823c0.56949,0 1.03114,0.40215 1.03114,0.89823c0,0.49608 -0.46165,0.89823 -1.03114,0.89823c-0.56949,0 -1.03116,-0.40215 -1.03116,-0.89823z" fill="#000000" stroke="none" stroke-width="0.5" stroke-linecap="butt"/></g></g></svg>