<svg version="1.1" xmlns="http://www.w3.org/2000/svg" xmlns:xlink="http://www.w3.org/1999/xlink" width="48.30206" height="48.30206" viewBox="0,0,48.30206,48.30206"><defs><radialGradient cx="320.00001" cy="180.00002" r="24.15103" gradientUnits="userSpaceOnUse" id="color-1"><stop offset="0" stop-color="#009fff"/><stop offset="1" stop-color="#009fff" stop-opacity="0"/></radialGradient></defs><g transform="translate(-295.84898,-155.84898)"><g stroke="none" stroke-miterlimit="10"><path d="M295.84898,180.00002c0,-13.33825 10.81278,-24.15103 24.15103,-24.15103c13.33825,0 24.15103,10.81278 24.15103,24.15103c0,13.33825 -10.81278,24.15103 -24.15103,24.15103c-13.33825,0 -24.15103,-10.81278 -24.15103,-24.15103z" fill="url(#color-1)" stroke-width="0"/><path d="M302.02212,180.00002c0,-9.92891 8.04898,-17.97789 17.97789,-17.97789c9.92891,0 17.97789,8.04898 17.97789,17.97789c0,9.92891 -8.04898,17.97789 -17.97789,17.97789c-9.92891,0 -17.97789,-8.04898 -17.97789,-17.97789z" fill="#009fff" stroke-width="0"/><path d="M313.39978,176.87956c1.49384,0 5.7971,0 5.7971,0v-2.14626c0,-0.26954 0.15306,-0.51688 0.39486,-0.63557c0.2418,-0.12201 0.52797,-0.09317 0.74426,0.06766l6.97663,5.26981c0.17636,0.1331 0.28062,0.34384 0.28062,0.56458c0,0.22184 -0.10537,0.43478 -0.28062,0.5679l-6.97663,5.26754c-0.21629,0.16194 -0.50577,0.18745 -0.74426,0.06766c-0.2418,-0.11979 -0.39486,-0.36604 -0.39486,-0.63556v-2.14404c0,0 -4.41866,0 -5.76069,0c-0.38482,0 -0.93386,-0.45721 -0.94675,-1.10836c-0.02647,-1.33731 -0.0691,-3.49266 -0.08259,-4.18537c-0.00811,-0.41642 0.48935,-0.94998 0.99293,-0.94998z" fill="#ffffff" stroke-width="1"/></g></g></svg>