<svg version="1.1" xmlns="http://www.w3.org/2000/svg" xmlns:xlink="http://www.w3.org/1999/xlink" width="45.72132" height="28.19386" viewBox="0,0,45.72132,28.19386"><g transform="translate(-217.07684,-165.90307)"><g data-paper-data="{&quot;isPaintingLayer&quot;:true}" fill-rule="nonzero" stroke-linecap="butt" stroke-linejoin="miter" stroke-miterlimit="10" stroke-dasharray="" stroke-dashoffset="0" style="mix-blend-mode: normal"><g data-paper-data="{&quot;index&quot;:null}" stroke-width="1.5"><path d="M242.27669,173.53699l1.80804,7.21618l-7.68196,2.91375l-2.09193,-7.7121z" fill="#8e6d4a" stroke="#1c1a1f"/><path d="M242.67878,172.95628c2.0361,-1.16559 4.63155,-0.45992 5.79714,1.57617c1.16559,2.03609 0.45992,4.63155 -1.57617,5.79714c-2.03609,1.16559 -4.63155,0.45992 -5.79714,-1.57617c-1.1656,-2.03609 -0.45992,-4.63155 1.57617,-5.79714z" fill="#dbac68" stroke="#181714"/></g><g stroke-width="1.5"><path d="M234.06083,184.81464l2.09193,-7.7121l7.68196,2.91375l-1.80804,7.21618z" fill="#8e6d4a" stroke="#1c1a1f"/><path d="M240.8526,182.01604c1.16559,-2.03609 3.76105,-2.74176 5.79714,-1.57617c2.03609,1.16559 2.74176,3.76105 1.57617,5.79714c-1.16559,2.03609 -3.76104,2.74176 -5.79714,1.57617c-2.03609,-1.16559 -2.74177,-3.76105 -1.57617,-5.79714z" fill="#dbac68" stroke="#181714"/></g><g><path d="M248.37143,181.97538c0,-1.3191 0,-3.65064 0,-4.31257c0,-0.34542 0.27997,-0.70868 0.70154,-0.70868c1.07898,0 3.08548,0 3.6994,0c0.35042,0 0.74138,0.39636 0.74138,0.76469c0,0.66364 0,2.89126 0,4.20057c0,0.58278 -0.25452,0.98362 -0.64402,0.98362c-1.07512,0 -3.17866,0 -3.79676,0c-0.33467,0 -0.70154,-0.37495 -0.70154,-0.92762z" fill="#8b95ac" stroke="#1e1b1a" stroke-width="0.75"/><path d="M248.82934,177.74679c0,0 0,-0.15544 0,-0.23008c0,-0.07073 0.13781,-0.20664 0.2899,-0.20664c0.45971,0 2.81548,0 3.65691,0c0.18698,0 0.29917,0.13591 0.29917,0.20664c0,0.07463 0,0.23008 0,0.23008c0,0 -0.14266,0.13182 -0.37432,0.13182c-0.89834,0 -3.1351,0 -3.58176,0c-0.15209,0 -0.2899,-0.13182 -0.2899,-0.13182z" fill="#b2b8c8" stroke="none" stroke-width="0"/><path d="M249.15641,181.88543c0.44666,0 2.68342,0 3.58176,0c0.23166,0 0.37432,0.13182 0.37432,0.13182c0,0 0,0.15544 0,0.23008c0,0.07073 -0.1122,0.20664 -0.29917,0.20664c-0.84142,0 -3.19721,0 -3.65691,0c-0.15209,0 -0.2899,-0.13591 -0.2899,-0.20664c0,-0.07463 0,-0.23008 0,-0.23008c0,0 0.13781,-0.13182 0.2899,-0.13182z" data-paper-data="{&quot;index&quot;:null}" fill="#76809a" stroke="none" stroke-width="0"/><path d="M240.08379,180.92997c0,-0.68742 0,-1.45633 0,-1.85894c0,-0.52457 0.74027,-1.61089 1.34029,-1.61089c0.45378,0 1.45566,0.13762 2.20966,0.13762c0.77952,0 1.23161,0.35644 1.44895,0.96045c0.18702,0.51975 0.39371,2.39149 0,3.17304c-0.21734,0.43143 -0.85955,0.76816 -1.44895,0.76816c-0.50865,0 -1.53552,0.32552 -2.35455,0.32552c-0.66651,0 -1.19539,-1.15918 -1.19539,-1.89495z" fill="#99642b" stroke="#1e1b1a" stroke-width="0.75"/><path d="M243.13168,180.96841c0,-0.12236 -0.21743,-0.11333 -0.40967,-0.11348c-0.45695,-0.00037 -2.31472,-0.00187 -2.31472,-0.00187l-0.00832,-1.82279c0,0 1.8972,0 2.34818,0c0.1825,0 0.38453,-0.00542 0.38453,-0.11447c0,-0.11176 0.18695,-0.33948 0.36893,-0.33948c0.5176,0 2.98485,0 2.98485,0v2.79275c0,0 -2.53987,0 -3.03508,0c-0.16046,0 -0.3187,-0.27099 -0.3187,-0.40067z" fill="#8b95ac" stroke="#1e1b1a" stroke-width="0.75"/><path d="M254.25332,178.98914c0,0 6.68248,0 7.73212,0c0.27172,0 0.43772,0.19001 0.43772,0.41371c0,0.16114 0,0.66756 0,0.93934c0,0.31088 -0.15845,0.51832 -0.48796,0.51832c-1.12805,0 -7.63553,0 -7.63553,0z" fill="#8b95ac" stroke="#1e1b1a" stroke-width="0.75"/><path d="M246.01929,179.83813c0.00666,-1.60013 0.79786,-2.3089 1.38753,-2.61508c0.35115,-0.18232 0.63083,0.17991 0.63083,0.54792c0,0.67029 0,2.82466 0,4.04383c0,0.47735 -0.32837,0.7824 -0.61613,0.67151c-0.60026,-0.2313 -1.40999,-0.78384 -1.40223,-2.64819z" fill="#8b95ac" stroke="#1e1b1a" stroke-width="0.75"/><path d="M259.86052,179.96048v-0.09185h2.40442v0.09185z" fill="#b2b8c8" stroke="#1e1b1a" stroke-width="0.25"/><path d="M246.47013,180.15312c-0.04483,-1.74814 0.63064,-2.23334 1.09675,-2.5295c0.07714,-0.049 0.09853,0.16567 -0.0793,0.46157c-0.12453,0.2072 -0.42334,0.41591 -0.54195,0.76541c-0.12654,0.37287 -0.12743,1.02674 -0.2033,1.3513c-0.11692,0.50016 -0.27415,0.52815 -0.27219,-0.04879z" fill="#b2b8c8" stroke="none" stroke-width="0"/><path d="M248.00809,181.16242c0,0 -0.73118,-0.3818 -0.71236,-1.37398c0.01838,-0.96801 0.71236,-1.18132 0.71236,-1.18132c0,0 4.74439,0 5.58886,0c0.24749,0 0.65831,0.11794 0.75026,0.17876c0.09586,0.06342 0.29844,0.48239 0.30178,0.68583c0.00312,0.19069 0.00976,0.5949 0.01486,0.90566c0.00381,0.23204 -0.22379,0.55686 -0.32824,0.6225c-0.09178,0.05767 -0.38516,0.16253 -0.53773,0.16253c-0.6949,0 -5.78978,0.00002 -5.78978,0.00002z" fill="#8b95ac" stroke="#1e1b1a" stroke-width="0.75"/><path d="M255.1023,179.62139v-0.2107h6.87038v0.38353c0,0 -0.13044,-0.06895 -0.35484,-0.06895c-1.27735,0 -5.59923,0 -6.23679,0c-0.15414,0 -0.27876,-0.10388 -0.27876,-0.10388z" fill="#b2b8c8" stroke="none" stroke-width="0"/><path d="M247.77736,179.44303c0,0 0.04161,-0.14528 0.10019,-0.21858c0.05859,-0.07329 0.23146,-0.19631 0.23146,-0.19631c0,0 4.39439,0 5.6478,0c0.27853,0 0.47071,0.22931 0.47071,0.2965c0,0.07089 0,0.11839 0,0.11839c0,0 -0.12823,0.15029 -0.42442,0.15029c-1.32349,0 -5.00033,0 -5.63564,0c-0.1834,0 -0.39009,-0.15029 -0.39009,-0.15029z" fill="#b2b8c8" stroke="none" stroke-width="0"/><path d="M255.38942,180.08079c0.63756,0 4.95944,0 6.23679,0c0.2244,0 0.35484,-0.0574 0.35484,-0.0574v0.40694h-6.87038v-0.23411c0,0 0.12462,-0.11543 0.27876,-0.11543z" data-paper-data="{&quot;index&quot;:null}" fill="#76809a" stroke="none" stroke-width="0"/><path d="M240.82786,179.65624c0.00766,-0.06334 0.02196,-0.18141 0.02196,-0.18141c0,0 1.85293,-0.02505 2.19812,-0.02505c0.13969,0 0.29434,-0.1878 0.29434,-0.1878c0,0 0.1431,-0.25984 0.28239,-0.25984c0.39619,0 2.13442,0 2.13442,0l-0.15029,0.44776c0,0 -1.0558,0.06452 -1.85061,0.06679c-0.16178,0.00046 -0.1627,0.18401 -0.31502,0.25462c-0.06512,0.03019 -0.23979,0.10355 -0.33237,0.10852c-0.50365,0.02706 -1.56898,0.01065 -2.05641,0.00107c-0.15621,-0.00306 -0.23496,-0.15504 -0.22653,-0.22466z" fill="#b2b8c8" stroke="none" stroke-width="0"/><path d="M245.61111,180.48757l0.14797,0.44776c0,0 -1.7115,0 -2.1016,0c-0.13714,0 -0.27804,-0.25985 -0.27804,-0.25985c0,0 -0.02072,-0.20566 0.17078,-0.22178c0.3937,-0.03315 2.0609,0.03387 2.0609,0.03387z" data-paper-data="{&quot;index&quot;:null}" fill="#76809a" stroke="none" stroke-width="0"/><path d="M248.16745,180.14317c0.63531,0 4.31215,0 5.63564,0c0.29619,0 0.42442,0.15029 0.42442,0.15029c0,0 0,0.04748 0,0.11839c0,0.06719 -0.19218,0.2965 -0.47071,0.2965c-1.2534,0 -5.6478,0 -5.6478,0c0,0 -0.17287,-0.12302 -0.23146,-0.19631c-0.05859,-0.07329 -0.10019,-0.21858 -0.10019,-0.21858c0,0 0.20669,-0.15029 0.39009,-0.15029z" data-paper-data="{&quot;index&quot;:null}" fill="#76809a" stroke="none" stroke-width="0"/><g><path d="M253.77495,181.11899c0,-0.66173 0,-1.81987 0,-2.21221c0,-0.25574 0.18775,-0.55838 0.40171,-0.55838c0.19013,0 0.40098,0 0.51916,0c0.17396,0 0.44164,0.30264 0.44164,0.55838c0,0.39235 0,1.55048 0,2.21221c0,0.28501 -0.26767,0.47793 -0.44164,0.47793c-0.11819,0 -0.32904,0 -0.51916,0c-0.21396,0 -0.40171,-0.19293 -0.40171,-0.47793z" fill="#8b95ac" stroke="#1e1b1a" stroke-width="0.5"/><path d="M254.0691,179.18157c0,-0.12832 0,-0.3529 0,-0.42899c0,-0.04959 0.10992,-0.10828 0.23518,-0.10828c0.11131,0 0.23476,0 0.30394,0c0.10184,0 0.25856,0.05869 0.25856,0.10828c0,0.07609 0,0.30066 0,0.42899c0,0.05527 -0.15671,0.09268 -0.25856,0.09268c-0.0692,0 -0.19263,0 -0.30394,0c-0.12526,0 -0.23518,-0.03741 -0.23518,-0.09268z" fill="#b2b8c8" stroke="none" stroke-width="0"/><path d="M254.06911,181.22668c0,-0.12833 0,-0.3529 0,-0.42898c0,-0.0496 0.10991,-0.10828 0.23518,-0.10828c0.11132,0 0.23474,0 0.30394,0c0.10184,0 0.25856,0.05869 0.25856,0.10828c0,0.07608 0,0.30066 0,0.42898c0,0.05527 -0.15671,0.09268 -0.25856,0.09268c-0.0692,0 -0.19263,0 -0.30394,0c-0.12526,0 -0.23518,-0.03741 -0.23518,-0.09268z" fill="#76809a" stroke="none" stroke-width="0"/></g></g><path d="M221.99988,180.00001c0,-6.54447 5.30532,-11.84979 11.84979,-11.84979c6.54447,0 11.8498,5.30532 11.8498,11.84979c0,6.54447 -5.30532,11.8498 -11.8498,11.8498c-6.54447,0 -11.84979,-5.30532 -11.84979,-11.8498z" fill="#fcc875" stroke="#191916" stroke-width="1.5"/><g><path d="M220.66178,179.87499c0,-7.50939 -0.72202,-13.22192 5.48033,-13.22192c6.20235,0 12.73034,6.21254 12.73034,13.72192c0,7.50939 -6.90298,12.97194 -13.10534,12.97194c-6.20235,0 -5.10533,-5.96254 -5.10533,-13.47194z" fill="#674832" stroke="#191916" stroke-width="1.5"/><path d="M220.06461,180.33212c0,-4.85057 3.24774,-8.78272 7.25405,-8.78272c4.00631,0 7.25406,3.93215 7.25406,8.78272c0,4.85057 -3.24775,8.78272 -7.25406,8.78272c-4.00631,0 -7.25405,-3.93215 -7.25405,-8.78272z" fill="#7c5839" stroke="#191916" stroke-width="1"/><path d="M217.57684,180.45082c0,-4.2616 2.85339,-7.7163 6.37325,-7.7163c3.51985,0 6.37325,3.4547 6.37325,7.7163c0,4.2616 -2.85339,7.7163 -6.37325,7.7163c-3.51985,0 -6.37325,-3.45469 -6.37325,-7.7163z" fill="#af7d51" stroke="#191916" stroke-width="1"/><path d="M218.54657,177.66271c0.82199,-2.58996 2.89598,-4.42819 5.3246,-4.42819c2.39547,0 4.44594,1.7884 5.29025,4.32256c0.26567,0.7974 -2.60034,1.41072 -5.40597,1.44018c-2.89514,0.03041 -5.45278,-0.56608 -5.20889,-1.33456z" fill="#bd9562" stroke="none" stroke-width="0"/></g></g></g></svg>