<svg version="1.1" xmlns="http://www.w3.org/2000/svg" xmlns:xlink="http://www.w3.org/1999/xlink" width="524.12613" height="217.36379" viewBox="0,0,524.12613,217.36379"><g transform="translate(-77.13393,-11.91955)"><g stroke-miterlimit="10"><path d="M77.78393,58.84053c0,-2.61039 0,-7.57441 0,-11.83673c0,-4.14968 2.58302,-7.63424 7.3845,-7.63424c60.72559,0 476.30136,0 509.24729,0c4.0919,0 6.84433,4.62266 6.84433,7.83832c0,2.58799 0,7.64933 0,12.04082c0,4.33858 -2.75242,8.02335 -6.84433,8.02335c-33.02996,0 -450.64409,0 -509.70501,0c-4.50773,0 -6.92678,-5.04138 -6.92678,-8.43152z" fill-opacity="0.74902" fill="#ffffff" stroke="#000000" stroke-width="0"/><text transform="translate(77.78393,33.36956) scale(0.5,0.5)" font-size="40" xml:space="preserve" fill-opacity="0.74902" fill="#000000" stroke="none" stroke-width="1" font-family="Sans Serif" font-weight="normal" text-anchor="start"><tspan x="0" dy="0">API HOST:</tspan></text><path d="M77.78393,123.52994c0,-2.61039 0,-7.57441 0,-11.83673c0,-4.14968 2.58303,-7.63424 7.38451,-7.63424c60.72559,0 476.30137,0 509.24729,0c4.0919,0 6.84433,4.62266 6.84433,7.83832c0,2.58799 0,7.64933 0,12.04082c0,4.33858 -2.75241,8.02335 -6.84433,8.02335c-33.02995,0 -450.64409,0 -509.705,0c-4.50772,0 -6.92678,-5.04138 -6.92678,-8.43152z" fill-opacity="0.74902" fill="#ffffff" stroke="#000000" stroke-width="0"/><text transform="translate(77.78393,98.05897) scale(0.5,0.5)" font-size="40" xml:space="preserve" fill-opacity="0.74902" fill="#000000" stroke="none" stroke-width="1" font-family="Sans Serif" font-weight="normal" text-anchor="start"><tspan x="0" dy="0">API KEY:</tspan></text><path d="M268.24766,220.73455c0,-6.03472 0,-13.92499 0,-17.37058c0,-3.27239 2.77968,-7.60711 7.40346,-7.60711c20.53569,0 77.44678,0 88.76965,0c3.83019,0 7.33158,3.20089 7.33158,7.36752c0,5.81445 0,13.50953 0,17.01119c0,3.52793 -3.43697,8.39778 -7.21178,8.39778c-11.2398,0 -68.10122,0 -88.76965,0c-4.6957,0 -7.52326,-3.40832 -7.52326,-7.7988z" fill="#009bff" stroke="#009bff" stroke-width="1.5"/><text transform="translate(302.30546,218.5249) scale(0.44236,0.44236)" font-size="40" xml:space="preserve" fill="#ffffff" stroke="none" stroke-width="1" font-family="Sans Serif" font-weight="normal" text-anchor="start"><tspan x="0" dy="0">保存</tspan></text></g></g></svg>