<svg version="1.1" xmlns="http://www.w3.org/2000/svg" xmlns:xlink="http://www.w3.org/1999/xlink" width="403.30105" height="102.21916" viewBox="0,0,403.30105,102.21916"><g transform="translate(-118.09951,-141.43631)"><g stroke-miterlimit="10"><text transform="translate(233.50489,179.24425) scale(0.61232,0.61232)" font-size="40" xml:space="preserve" fill="#009fff" stroke="#009fff" stroke-width="4" stroke-linecap="butt" font-family="Sans Serif" font-weight="normal" text-anchor="start"><tspan x="0" dy="0">.</tspan></text><text transform="translate(397.13297,179.24428) scale(0.61233,0.61233)" font-size="40" xml:space="preserve" fill="#009fff" stroke="#009fff" stroke-width="4" stroke-linecap="butt" font-family="Sans Serif" font-weight="normal" text-anchor="start"><tspan x="0" dy="0">.</tspan></text><path d="M164.87733,199.73506v8.91697" fill="none" stroke="#009fff" stroke-width="4" stroke-linecap="round"/><path d="M301.69338,178.67608c0,-19.46239 15.77738,-35.23977 35.23977,-35.23977c19.46239,0 35.23977,15.77738 35.23977,35.23977c0,19.46239 -15.77738,35.23977 -35.23977,35.23977c-19.46239,0 -35.23977,-15.77738 -35.23977,-35.23977z" fill="none" stroke="#009fff" stroke-width="4" stroke-linecap="butt"/><path d="M336.93316,144.98531v67.38154" fill="none" stroke="#009fff" stroke-width="4" stroke-linecap="round"/><path d="M461.42579,167.22074v-17.03901h58.47478v17.03901z" fill="none" stroke="#009fff" stroke-width="3" stroke-linecap="butt"/><path d="M461.42579,188.51951v-17.03901h58.47478v17.03901z" fill="none" stroke="#009fff" stroke-width="3" stroke-linecap="butt"/><path d="M461.42579,209.81827v-17.03901h58.47478v17.03901z" fill="none" stroke="#009fff" stroke-width="3" stroke-linecap="butt"/><path d="M120.09951,199.21394v-47.86597h89.55568v47.86597z" fill="none" stroke="#009fff" stroke-width="4" stroke-linecap="butt"/><path d="M155.14971,208.65203h19.4552" fill="none" stroke="#009fff" stroke-width="4" stroke-linecap="round"/><path d="M468.00904,158.70124c0,-1.71098 1.38702,-3.098 3.098,-3.098c1.71098,0 3.098,1.38702 3.098,3.098c0,1.71098 -1.38702,3.098 -3.098,3.098c-1.71098,0 -3.098,-1.38702 -3.098,-3.098z" fill="#009fff" stroke="#009fff" stroke-width="0.5" stroke-linecap="butt"/><path d="M468.00904,180c0,-1.71098 1.38702,-3.098 3.098,-3.098c1.71098,0 3.098,1.38702 3.098,3.098c0,1.71098 -1.38702,3.098 -3.098,3.098c-1.71098,0 -3.098,-1.38702 -3.098,-3.098z" fill="#009fff" stroke="#009fff" stroke-width="0.5" stroke-linecap="butt"/><path d="M468.00904,201.29876c0,-1.71098 1.38702,-3.098 3.098,-3.098c1.71098,0 3.098,1.38702 3.098,3.098c0,1.71098 -1.38702,3.098 -3.098,3.098c-1.71098,0 -3.098,-1.38702 -3.098,-3.098z" fill="#009fff" stroke="#009fff" stroke-width="0.5" stroke-linecap="butt"/><path d="M371.59431,178.67608h-69.3223" fill="none" stroke="#009fff" stroke-width="4" stroke-linecap="round"/><path d="M362.97466,155.85783c0,0 -16.17,12.41593 -26.12519,12.41593c-9.69657,0 -24.83187,-12.15727 -24.83187,-12.15727" fill="none" stroke="#009fff" stroke-width="4" stroke-linecap="round"/><path d="M308.91362,199.62797c0,0 18.40872,-10.86394 28.19452,-10.86394c9.87201,0 25.86653,12.15727 25.86653,12.15727" fill="none" stroke="#009fff" stroke-width="4" stroke-linecap="round"/><path d="M353.86631,178.10304c0,18.85711 -7.57312,34.14382 -16.91504,34.14382c-9.34192,0 -16.91504,-15.28671 -16.91504,-34.14382c0,-18.85711 7.57312,-34.14382 16.91504,-34.14382c9.34192,0 16.91504,15.28671 16.91504,34.14382z" fill="none" stroke="#009fff" stroke-width="4" stroke-linecap="butt"/><text transform="translate(149.70048,238.91272) scale(0.37942,0.37942)" font-size="40" xml:space="preserve" fill="#ffffff" stroke="#ffffff" stroke-width="1" stroke-linecap="butt" font-family="Sans Serif" font-weight="normal" text-anchor="start"><tspan x="0" dy="0">本机</tspan></text><text transform="translate(314.16675,237.84074) scale(0.37944,0.37944)" font-size="40" xml:space="preserve" fill="#ffffff" stroke="#ffffff" stroke-width="1" stroke-linecap="butt" font-family="Sans Serif" font-weight="normal" text-anchor="start"><tspan x="0" dy="0">互联网</tspan></text><text transform="translate(467.89705,238.37697) scale(0.37944,0.37944)" font-size="40" xml:space="preserve" fill="#ffffff" stroke="#ffffff" stroke-width="1" stroke-linecap="butt" font-family="Sans Serif" font-weight="normal" text-anchor="start"><tspan x="0" dy="0">服务器</tspan></text></g></g></svg>