<svg version="1.1" xmlns="http://www.w3.org/2000/svg" xmlns:xlink="http://www.w3.org/1999/xlink" width="79.24053" height="77.93529" viewBox="0,0,79.24053,77.93529"><g transform="translate(-284.1288,-144.12881)"><g stroke-miterlimit="10"><path d="M311.45367,210.76504l2.48343,-11.62345l49.13551,10.49815l-2.48343,11.62345z" fill="#ff0000" stroke="#000000" stroke-width="0.5" stroke-linecap="butt"/><path d="M284.1288,207.97036c0,-15.29857 0,-48.18866 0,-56.44551c0,-3.68229 4.07087,-7.39604 8.01557,-7.39604c8.41966,0 40.60918,0 55.75715,0c4.86301,0 7.96968,3.84544 7.96968,7.6255c0,8.32424 0,40.98437 0,56.21606c0,2.27319 -0.95711,4.1582 -2.40002,5.5162c-1.61962,1.52432 -3.85132,2.38464 -6.02857,2.38464c-8.60468,0 -40.90499,0 -55.75715,0c-4.62392,0 -7.55666,-3.07531 -7.55666,-7.90084z" fill="#ffffff" stroke="none" stroke-width="0" stroke-linecap="butt"/><text transform="translate(290.01726,209.98367) scale(0.26117,0.26117)" font-size="40" xml:space="preserve" fill="#000000" stroke="none" stroke-width="1" stroke-linecap="butt" font-family="Sans Serif" font-weight="normal" text-anchor="start"><tspan x="0" dy="0">SEC错误检查</tspan></text><path d="M300.18119,174.8536h8.20779l7.00665,-14.41368l5.00475,26.22489l8.0076,-12.81216h11.41083" fill="none" stroke="#000000" stroke-width="2.5" stroke-linecap="round"/><path d="M298.43139,173.55236c0,-11.91201 9.6566,-21.56861 21.56861,-21.56861c11.91201,0 21.56861,9.6566 21.56861,21.56861c0,11.91201 -9.6566,21.56861 -21.56861,21.56861c-11.91201,0 -21.56861,-9.6566 -21.56861,-21.56861z" fill="none" stroke="#000000" stroke-width="2.5" stroke-linecap="butt"/><text transform="translate(326.22383,158.97334) scale(0.33452,0.33452)" font-size="40" xml:space="preserve" fill="#009fff" stroke="none" stroke-width="1" stroke-linecap="butt" font-family="Sans Serif" font-weight="normal" text-anchor="start"><tspan x="0" dy="0">V1.1</tspan></text><path d="M312.80226,221.81411v-11.88579h50.24449v11.88579z" fill="#ff0000" stroke="#000000" stroke-width="0.5" stroke-linecap="butt"/><text transform="translate(322.39903,218.47045) scale(0.19407,0.19407)" font-size="40" xml:space="preserve" fill="#ffffff" stroke="#000000" stroke-width="0" stroke-linecap="butt" font-family="Sans Serif" font-weight="normal" text-anchor="start"><tspan x="0" dy="0">即将下架</tspan></text></g></g></svg>