<svg version="1.1" xmlns="http://www.w3.org/2000/svg" xmlns:xlink="http://www.w3.org/1999/xlink" width="44.07424" height="31.7111" viewBox="0,0,44.07424,31.7111"><g transform="translate(-296.70733,-164.14445)"><g fill="#000000" stroke="#000000" stroke-miterlimit="10"><path d="M332.08592,193.11249c0,-6.41614 0,-22.14209 0,-25.875c0,-1.55185 1.44568,-3.09304 2.45,-3.09304c0.70992,0 2.01542,0 3.25,0c1.55401,0 2.99565,1.47055 2.99565,2.96804c0,3.64231 0,19.14989 0,25.75c0,1.84429 -1.93059,2.99306 -3.12065,2.99306c-0.63101,0 -1.63875,0 -2.625,0c-1.49984,0 -2.95,-1.0458 -2.95,-2.74306z" stroke-width="0" stroke-linecap="butt"/><path d="M316.71874,189.91129c0.06364,-5.79088 0.18225,-16.58469 0.21866,-19.89726c0.02086,-1.89775 1.99924,-2.79334 3.67574,-1.7412c2.71466,1.70368 11.04679,6.93281 15.51334,9.73595c1.74463,1.09491 1.41164,2.74073 0.0287,3.59684c-2.53378,1.56854 -11.13996,6.89617 -16.0223,9.91857c-2.05875,1.27446 -3.43892,0.64252 -3.41414,-1.61291z" stroke-width="5" stroke-linecap="round"/><path d="M299.21874,189.91129c0.06364,-5.79089 0.18225,-16.58469 0.21866,-19.89726c0.02086,-1.89775 1.99924,-2.79334 3.67575,-1.7412c2.71465,1.70369 11.04679,6.93281 15.51334,9.73596c1.74462,1.09491 1.41164,2.74073 0.0287,3.59684c-2.53379,1.56854 -11.13996,6.89618 -16.0223,9.91858c-2.05874,1.27446 -3.43892,0.64252 -3.41414,-1.61291z" stroke-width="5" stroke-linecap="round"/></g></g></svg>