<svg version="1.1" xmlns="http://www.w3.org/2000/svg" xmlns:xlink="http://www.w3.org/1999/xlink" width="385.98355" height="38.9651" viewBox="0,0,385.98355,38.9651"><g transform="translate(-118.16941,-153.11716)"><g stroke-miterlimit="10"><path d="M136.84704,183.85662c0,-2.91499 0,-6.00552 0,-7.7907c0,-2.81987 2.87499,-7.14815 6.93369,-7.14815c26.71002,0 304.87754,0 352.46512,0c4.47144,0 6.90711,3.42314 6.90711,7.14815c0,2.90788 0,5.99973 0,7.7907c0,2.84116 -2.52019,7.22565 -7.13967,7.22565c-48.25359,0 -325.56571,0 -352.23256,0c-4.0587,0 -6.93369,-3.46689 -6.93369,-7.22565z" fill="#ffffff" stroke="#e1db3e" stroke-width="2"/><g fill="#e1db3e" stroke="none"><g stroke-width="0"><g><path d="M127.40644,162.50345l2.72298,-8.37321l1.16436,0.16081l-2.72298,8.37321z"/><path d="M130.10923,154.15683l11.31893,-1.03966l0.09333,0.89145l-11.31894,1.03967z"/><path d="M145.01399,161.12032l-4.6432,-7.58119l1.0874,-0.41857l4.6432,7.58119z"/></g><path d="M146.08583,160.64549l-2.72299,8.37321l-1.16436,-0.16081l2.72299,-8.37321z"/><path d="M143.35388,168.98485l-11.31894,1.03966l-0.09332,-0.89145l11.31894,-1.03966z"/><path d="M128.4919,162.05138l4.6432,7.58119l-1.08741,0.41858l-4.64319,-7.58119z"/></g><text transform="translate(131.59944,164.14481) rotate(-5.21685) scale(0.15617,0.15617)" font-size="40" xml:space="preserve" fill="#e1db3e" stroke-width="1" font-family="&quot;Microsoft YaHei&quot;, &quot;微软雅黑&quot;, STXihei, &quot;华文细黑&quot;" font-weight="normal" text-anchor="start"><tspan x="0" dy="0">XJY</tspan></text><path d="M118.43828,168.99689l-0.26887,-2.51667c0,0 2.25836,1.69609 3.86428,2.50116c0.57107,0.28629 2.01121,0.93642 3.30305,1.32865c2.34095,0.71075 4.78138,0.94647 4.78138,0.94647c0,0 3.57697,-2.26158 4.36114,-2.19887c0.50303,0.04023 1.30324,1.08415 1.30324,1.08415c0,0 -1.47813,1.14449 -0.89095,1.17381c0.67494,0.0337 0.61251,-0.29344 1.43965,-0.47881c0.10002,-0.02241 0.62259,-0.2103 1.17348,-0.25135c0.6475,-0.04825 1.32917,0.05208 1.33674,0.06121c0.01072,0.01292 0.39506,-0.00883 1.01136,0.17454c0.3943,0.11731 0.9529,0.05783 1.33375,0.39351c0.41194,0.36307 1.85433,0.95111 2.09391,1.4627c0.25439,0.54321 -0.70485,1.00149 -0.63932,1.05634c0.01579,0.01322 -0.80266,-0.97237 -1.83396,-1.44804c-1.24959,-0.57635 -2.82825,-0.65742 -3.82765,-0.56752c-1.00166,0.09011 -2.10663,0.67182 -2.50492,0.95207c-1.14876,0.80831 -1.74903,2.09329 -1.74329,2.09937c0.10952,0.11601 0.5399,0.38165 0.98909,0.64362c0.57647,0.33619 1.1839,0.66632 1.1839,0.66632l0.13988,-1.53471c0,0 -0.10193,-0.54583 -0.02261,-0.53976c0.01891,0.00145 0.22236,0.13567 0.31992,-0.0741c0.17683,-0.3802 0.32999,-1.15052 0.32999,-1.15052l2.83403,-0.33624l0.69963,0.43451c0,0 0.57256,-0.09489 0.95033,0.09806c0.38813,0.19825 0.58038,0.68664 0.47522,0.85135c-0.20729,0.32467 -2.25511,0.34997 -2.31651,0.3987c-0.15313,0.12153 0.31711,-0.90233 0.12624,-0.87248c-0.49994,0.07819 -1.01799,-0.18284 -1.34523,-0.00137c-0.26356,0.14617 0.13564,0.4752 0.23008,0.54942c0.31404,0.24677 3.16606,-0.00773 3.17794,0.06169c0.02947,0.17227 -1.21743,0.23275 -1.21743,0.23275l-1.73501,1.2648l-1.93497,-0.87311l0.26154,1.46468l0.10937,0.77789l-1.49288,1.8632l2.23306,-0.22747l1.26787,2.27618l0.48927,3.04279l-3.12225,-2.06915l-1.27781,-0.60417c0,0 -0.48678,-0.26797 -0.74423,-0.19447c-0.20786,0.05935 0.32435,1.03987 0.32435,1.03987c0,0 0.43624,0.44191 1.03566,0.82122c0.30398,0.19236 1.07926,0.57246 1.8232,0.78353c0.38628,0.1096 1.04746,0.31873 1.93897,0.17699c0.56568,-0.08993 1.31545,-0.23744 1.87991,-0.47622c0.71732,-0.30346 0.96445,-0.57572 0.96316,-0.56119c-0.00094,0.01068 0.96561,-0.60617 1.58223,-1.434c0.71038,-0.95367 0.97928,-2.10729 0.97928,-2.10729c0,0 -0.58635,0.29141 -0.94956,0.56519c-0.2279,0.17178 -1.1073,0.75085 -1.95994,1.54976c-1.18605,1.11133 -2.39543,2.50076 -2.39543,2.50076l-0.7614,-2.76692l1.10645,-2.67698l2.4704,-0.34296c0,0 -0.0563,-0.31308 -0.2668,-0.49783c-0.17246,-0.15136 -0.6209,-0.22001 -0.9963,-0.4899c-0.44867,-0.32259 -0.81734,-0.83819 -0.81734,-0.83819c0,0 -0.13184,-1.62713 -0.06418,-1.94127c0.04859,-0.22562 0.33716,-0.23245 0.33716,-0.23245c0,0 0.3635,1.16873 0.62848,1.25906c0.2648,0.09027 1.01063,-0.41264 1.01063,-0.41264c0,0 1.09113,-0.79125 1.74573,-1.80384c0.06115,-0.0946 -1.95455,-1.32633 -2.1802,-1.53166c-0.27849,-0.25342 -1.91805,-0.38372 -1.79408,-0.63248c0.0347,-0.06965 0.64869,0.15783 0.96519,0.02622c0.17683,-0.07354 0.16497,-0.5335 0.13872,-0.55752c-0.33185,-0.30368 -1.0652,-0.49183 -1.0652,-0.49183c0,0 0.17951,-1.51875 1.73677,-1.33363c0.34916,0.04151 1.22705,0.29713 1.91303,0.70699c0.82056,0.49026 1.43247,1.14436 1.43256,1.14433c0.00802,-0.00316 0.24831,-0.46458 0.92713,-0.78742c1.53479,-0.7299 2.66902,-0.88685 4.27499,-1.68686c1.60598,-0.80002 2.24584,-1.2728 3.11837,-1.99618c0.91883,-0.76177 2.25998,-2.49699 2.25998,-2.49699l0.63942,-0.03163l0.20356,2.05061c0,0 -0.46648,0.99743 -1.50756,1.85406c-1.26216,1.03852 -3.16059,1.99368 -3.07715,2.00592c0.78314,0.11476 3.33099,-0.75029 3.75794,-0.60231c0.29445,0.10205 -0.41141,0.84337 -0.41141,0.84337l-0.79396,1.08271c0,0 -0.47609,0.02456 -0.62322,0.08321c-0.15269,0.06088 -0.27685,0.27564 -0.27685,0.27564l-3.72826,0.31724c0,0 -0.10824,0.27537 -0.01821,0.31627c0.25269,0.11479 0.68804,0.12575 1.31006,0.24762c0.99636,0.19523 2.11694,0.20956 1.95476,0.5375c-0.47389,0.9582 -1.13995,1.25983 -1.13995,1.25983c0,0 -0.72,0.19597 -1.37482,0.18758c-0.89287,-0.01145 -1.7854,-0.21735 -1.68137,-0.10594c0.46595,0.49899 0.89277,0.90879 1.13393,1.35347c0.28612,0.52758 -1.4002,0.87144 -1.4002,0.87144c0,0 -0.65732,0.06514 -1.13229,-0.11242c-0.61045,-0.22821 -1.06803,-0.69305 -1.0113,-0.47393c0.16992,0.65618 0.60932,1.10298 0.65446,1.57912c0.05409,0.57055 -1.1687,1.10782 -1.1687,1.10782c0,0 0.03132,0.98117 0.0416,1.15843c0.01551,0.26743 -0.63571,1.60465 -0.74124,1.89759c-0.31198,0.866 -1.4334,1.72543 -1.59031,1.92522c-0.13469,0.17149 -0.659,0.66953 -1.27437,0.99194c-0.59634,0.31243 -1.28503,0.45235 -1.36542,0.43769c-0.03975,-0.00724 -1.56173,0.3112 -2.84123,0.25885c-1.00108,-0.04096 -1.75105,-0.42268 -2.20711,-0.61109c-0.9703,-0.40087 -1.74017,-1.09873 -1.77587,-1.12399c-0.2889,-0.20443 -1.31925,-1.55673 -1.42816,-1.61503c-0.15512,-0.08304 -0.37912,-0.74798 -0.28322,-1.08479c0.06521,-0.22905 0.34781,-0.37742 0.24807,-0.46252c-0.67791,-0.57834 -2.06949,-1.06898 -2.25025,-1.02113c-0.3143,0.08318 0.20024,-1.57242 -0.23782,-1.47262c-0.72608,0.16543 -1.73173,0.38874 -2.26259,0.35354c-0.17915,-0.01188 -0.40352,-0.56732 -0.57322,-0.59183c-0.22872,-0.03301 0.78447,-1.69815 0.55179,-1.72032c-0.78665,-0.07494 -1.92302,0.83656 -2.58328,0.69831c-0.96101,-0.20122 -1.25289,-0.78972 -1.68491,-1.0424c-0.48914,-0.28607 2.27136,-0.55234 2.95412,-1.0375c0.46174,-0.3281 0.22351,-0.6164 0.22351,-0.6164l-4.39534,0.32012c0,0 -2.10945,-1.26106 -1.7667,-1.59936c0.21557,-0.21279 3.87399,-0.33502 3.87399,-0.33502c0,0 -2.19026,-0.68341 -3.08756,-1.16001c-0.82466,-0.43802 -2.09674,-1.5936 -2.09674,-1.5936z" stroke-width="0"/></g></g></g></svg>