<svg version="1.1" xmlns="http://www.w3.org/2000/svg" xmlns:xlink="http://www.w3.org/1999/xlink" width="382.88288" height="60.06006" viewBox="0,0,382.88288,60.06006"><g transform="translate(-128.55856,-149.96997)"><g stroke-miterlimit="10"><path d="M128.55856,198.55555c0,-12.37801 0,-31.22448 0,-38c0,-4.82514 4.8733,-10.58558 11.27477,-10.58558c32.41543,0 296.75039,0 358.66667,0c8.28123,0 12.94144,4.70601 12.94144,11.25225c0,11.86443 0,29.77368 0,36.66667c0,5.38401 -4.53526,12.14114 -12.60811,12.14114c-61.2945,0 -326.52605,0 -359,0c-6.40147,0 -11.27477,-4.79562 -11.27477,-11.47448z" fill="#ffffff" stroke="none" stroke-width="2.5" stroke-linecap="butt"/><path d="M136.81262,191.42978c0,-4.84943 0,-15.42783 0,-23.80314c0,-6.58879 5.23323,-11.81412 11.82063,-11.81412c8.30238,0 18.75581,0 23.59433,0c5.04275,0 11.95981,5.11748 11.95981,11.60531c0,8.37065 0,19.02245 0,23.90753c0,5.01155 -5.30631,11.86193 -11.95981,11.86193c-8.2921,0 -18.67666,0 -23.48993,0c-5.03167,0 -11.92502,-6.77938 -11.92502,-11.75753z" fill-opacity="0.4902" fill="#ffffff" stroke="#009fff" stroke-width="2" stroke-linecap="butt"/><path d="M151.67708,191.53554c0,-2.65543 0,-13.55892 0,-17.88855c0,-1.1068 -0.72041,-1.06359 -1.06937,-0.71463c-0.33459,0.33459 -1.34742,0.6188 -1.84979,0.11643c-0.89356,-0.89356 -2.22392,-2.22392 -2.71788,-2.71787c-0.36801,-0.36801 -0.55794,-1.07263 -0.17809,-1.45249c0.86882,-0.86882 2.37853,-2.37854 2.91554,-2.91554c0.37305,-0.37305 1.29474,-0.83005 1.95186,-0.83005c1.24352,0 3.1762,0 3.95327,0c0.64246,0 1.97451,0.48954 2.52876,1.0438c0.40126,0.40126 0.83643,0.83644 1.14434,1.14434c0.37379,0.37378 1.31826,0.55996 2.25692,0.55827c0.92198,-0.00166 1.83834,-0.18457 2.20278,-0.54901c0.31654,-0.31654 0.76816,-0.76816 1.17593,-1.17593c0.52371,-0.52371 1.32735,-0.97511 1.85926,-0.97511c1.37353,0 3.94519,0 4.74392,0c0.46437,0 1.40847,0.42 1.96084,0.97237c0.80706,0.80706 1.89674,1.89672 2.37196,2.37196c0.44839,0.44839 0.62593,1.47277 0.07682,2.02189c-0.76607,0.76608 -1.77681,1.77681 -2.22371,2.22371c-0.4317,0.43171 -1.79099,0.23284 -2.1601,-0.13627c-0.34374,-0.34373 -0.99575,-0.18495 -0.99575,1.11297c0,4.50963 0,14.89974 0,17.59205c0,1.24357 -0.73482,2.53237 -1.89524,2.5291c-3.79967,-0.01072 -12.1626,-0.03429 -14.23333,-0.04013c-0.90776,-0.00255 -1.81895,-1.15466 -1.81895,-2.29131z" fill="#ffffff" stroke="#009bff" stroke-width="2" stroke-linecap="round"/><text transform="translate(192.22073,172.66667) scale(0.5,0.5)" font-size="40" xml:space="preserve" fill="#000000" stroke="none" stroke-width="1" stroke-linecap="butt" font-family="Sans Serif" font-weight="normal" text-anchor="start"><tspan x="0" dy="0">个性化</tspan></text><text transform="translate(192.22073,197.49386) scale(0.40834,0.40834)" font-size="40" xml:space="preserve" fill="#000000" stroke="none" stroke-width="1" stroke-linecap="butt" font-family="Sans Serif" font-weight="normal" text-anchor="start"><tspan x="0" dy="0">您没有权限使用该气泡框！</tspan></text></g></g></svg>