<svg version="1.1" xmlns="http://www.w3.org/2000/svg" xmlns:xlink="http://www.w3.org/1999/xlink" width="16" height="16.00002" viewBox="0,0,16,16.00002"><g transform="translate(-312,-171.99997)"><g fill="#000000" stroke="none" stroke-miterlimit="10"><path d="M314.5,175.708l2.128,-1.277c0.05839,0.16051 0.11241,0.32256 0.162,0.486l-1.804,1.083l1.805,1.083c-0.056,0.188 -0.115,0.357 -0.161,0.486l-2.13,-1.277v10.708h1.5v1h-4v-1h1.5v-13.134c-0.39197,-0.2263 -0.58307,-0.68766 -0.46593,-1.12485c0.11714,-0.43718 0.51332,-0.74118 0.96593,-0.74118c0.45261,0 0.84878,0.30399 0.96593,0.74118c0.11714,0.43718 -0.07396,0.89854 -0.46593,1.12485z"/><path d="M317.805,174.82c0.099,0.36 0.195,0.797 0.195,1.18c0,0.364 -0.086,0.775 -0.179,1.12l-0.048,0.171c0.345,-0.083 0.767,-0.181 1.227,-0.281v-2.588c-0.502,0.01 -0.956,0.027 -1.302,0.042c0.03805,0.11793 0.07373,0.23663 0.107,0.356zM320,174.413v2.392c0.508,-0.099 1.023,-0.187 1.5,-0.25v-2.094c-0.474,-0.032 -0.991,-0.045 -1.5,-0.047zM322.5,176.459c0.49948,-0.02919 0.99968,-0.0442 1.5,-0.045v-1.59c-0.505,-0.101 -1.022,-0.193 -1.5,-0.26zM325,176.422c0.6,0.011 1.132,0.033 1.5,0.05v-1.084c-0.34,-0.084 -0.88,-0.217 -1.5,-0.354zM317.11,173.492c0.612,-0.034 3.19,-0.165 4.94,0.01c1.817,0.182 4.531,0.873 5.001,0.995c0.26418,0.06869 0.44869,0.30704 0.449,0.58v1.816c0.00025,0.16502 -0.06748,0.32285 -0.18724,0.43637c-0.11976,0.11352 -0.281,0.1727 -0.44576,0.16363c-0.557,-0.032 -3.124,-0.165 -4.817,0.005c-1.615,0.161 -4.027,0.756 -4.733,0.936c-0.483,0.124 -0.879,-0.352 -0.713,-0.796c0.09533,-0.25543 0.17908,-0.51502 0.251,-0.778c0.087,-0.32 0.145,-0.63 0.145,-0.86c0,-0.244 -0.066,-0.575 -0.159,-0.912c-0.091,-0.327 -0.198,-0.622 -0.258,-0.781c-0.06821,-0.17901 -0.047,-0.37981 0.05711,-0.54062c0.10411,-0.16081 0.27865,-0.26235 0.46989,-0.27338zM319,183.5c0,-2.48528 2.01472,-4.5 4.5,-4.5c2.48528,0 4.5,2.01472 4.5,4.5c0,2.48528 -2.01472,4.5 -4.5,4.5c-2.48528,0 -4.5,-2.01472 -4.5,-4.5zM323.116,184.344h0.768l0.316,-2.785c0.036,-0.317 -0.288,-0.59 -0.7,-0.59c-0.413,0 -0.736,0.273 -0.7,0.59zM323.5045,184.92972c-0.30171,0 -0.54978,0.23784 -0.5625,0.53928c-0.00871,0.20662 0.09656,0.40139 0.27418,0.50729c0.17762,0.10591 0.39902,0.10591 0.57664,0c0.17762,-0.10591 0.28289,-0.30067 0.27418,-0.50729c-0.01272,-0.30144 -0.26079,-0.53928 -0.5625,-0.53928z"/></g></g></svg>