<svg version="1.1" xmlns="http://www.w3.org/2000/svg" xmlns:xlink="http://www.w3.org/1999/xlink" width="385.38288" height="89.48864" viewBox="0,0,385.38288,89.48864"><g transform="translate(-127.30856,-134.24886)"><g stroke-miterlimit="10"><path d="M128.55856,198.55555c0,-12.37801 0,-31.22448 0,-38c0,-4.82514 4.8733,-10.58558 11.27477,-10.58558c32.41543,0 296.75039,0 358.66667,0c8.28123,0 12.94144,4.70601 12.94144,11.25225c0,11.86443 0,29.77368 0,36.66667c0,5.38401 -4.53526,12.14114 -12.60811,12.14114c-61.2945,0 -326.52605,0 -359,0c-6.40147,0 -11.27477,-4.79562 -11.27477,-11.47448z" fill="#ffffff" stroke="#009cff" stroke-width="2.5" stroke-linecap="butt"/><text transform="translate(192.22073,172.66666) scale(0.5,0.5)" font-size="40" xml:space="preserve" fill="#000000" stroke="none" stroke-width="1" stroke-linecap="butt" font-family="Sans Serif" font-weight="normal" text-anchor="start"><tspan x="0" dy="0">发送消息</tspan></text><text transform="translate(192.22073,197.49385) scale(0.40834,0.40834)" font-size="40" xml:space="preserve" fill="#000000" stroke="none" stroke-width="1" stroke-linecap="butt" font-family="Sans Serif" font-weight="normal" text-anchor="start"><tspan x="0" dy="0">发送的消息包含敏感词，请修改</tspan></text><g><path d="M135.81262,191.71489c0,-8.35099 0,-18.79696 0,-23.60125c0,-4.96435 7.221,-11.71448 12.40357,-11.71448c4.80136,0 14.9504,0 23.08443,0c6.6084,0 11.88676,5.43822 11.88676,12.2313c0,8.44633 0,18.98721 0,23.77351c0,4.85288 -7.10272,11.36995 -12.23131,11.36995c-4.6441,0 -14.3558,0 -22.39534,0c-7.00966,0 -12.74812,-5.35431 -12.74812,-12.05903z" fill="#000000" stroke="#000000" stroke-width="0" stroke-linecap="butt"/><text transform="translate(137.12818,200.17402) scale(1.42809,1.42809)" font-size="40" xml:space="preserve" fill="#ffffff" stroke="none" stroke-width="1" stroke-linecap="butt" font-family="Handwriting" font-weight="normal" text-anchor="start"><tspan x="0" dy="0">C</tspan></text><text transform="translate(145.05286,196.65781) scale(1.63803,1.63803)" font-size="40" xml:space="preserve" fill="#00d9ff" stroke="none" stroke-width="1" stroke-linecap="butt" font-family="Handwriting" font-weight="normal" text-anchor="start"><tspan x="0" dy="0">s</tspan></text><g stroke-width="0.5"><path d="M165.24414,172.28818c0,0 0,4.44063 0,5.55338c0,0.47817 -0.21727,0.55516 -0.40546,0.14781c-0.43133,-0.93363 -2.12979,-4.61006 -2.12979,-4.61006z" fill="#ffffff" stroke="#ffffff" stroke-linecap="round"/><path d="M155.0013,174.92613c-0.8431,0 -1.79376,-0.88731 -1.79376,-1.71224c0,-0.39275 0,-0.77137 0,-1.03337c0,-0.64796 0.72253,-1.74727 1.79376,-1.74727c2.58324,0 7.19424,0 8.59087,0c0.78906,0 1.65626,1.09709 1.65626,1.74436c0,0.81248 0,2.74851 0,2.74851c0,0 -8.23203,0 -10.24713,0z" fill="#ffffff" stroke="#ffffff" stroke-linecap="butt"/><path d="M156.07969,173.41877c-0.38771,0 -0.70202,-0.31431 -0.70202,-0.70202c0,-0.38771 0.31431,-0.70201 0.70202,-0.70201c0.38771,0 0.70202,0.3143 0.70202,0.70201c0,0.38771 -0.31431,0.70202 -0.70202,0.70202z" fill="#000000" stroke="none" stroke-linecap="butt"/><path d="M158.98133,173.41877c-0.38771,0 -0.70202,-0.31431 -0.70202,-0.70202c0,-0.38771 0.31431,-0.70201 0.70202,-0.70201c0.38771,0 0.70202,0.3143 0.70202,0.70201c0,0.38771 -0.31431,0.70202 -0.70202,0.70202z" fill="#000000" stroke="none" stroke-linecap="butt"/><path d="M161.97659,173.41877c-0.38771,0 -0.70201,-0.31431 -0.70201,-0.70202c0,-0.38771 0.3143,-0.70201 0.70201,-0.70201c0.38771,0 0.70201,0.3143 0.70201,0.70201c0,0.38771 -0.3143,0.70202 -0.70201,0.70202z" fill="#000000" stroke="none" stroke-linecap="butt"/></g><g stroke-width="0.5"><path d="M153.2118,188.92182c0,0 0,-4.44063 0,-5.55338c0,-0.47817 0.21727,-0.55516 0.40546,-0.14781c0.43133,0.93363 2.12979,4.61005 2.12979,4.61005z" fill="#ffffff" stroke="#ffffff" stroke-linecap="round"/><path d="M163.45465,186.28386c0.8431,0 1.79376,0.88731 1.79376,1.71223c0,0.39275 0,0.77137 0,1.03337c0,0.64796 -0.72254,1.74728 -1.79376,1.74728c-2.58324,0 -7.19424,0 -8.59086,0c-0.78906,0 -1.65627,-1.09709 -1.65627,-1.74436c0,-0.81248 0,-2.7485 0,-2.7485c0,0 8.23203,0 10.24713,0z" fill="#ffffff" stroke="#ffffff" stroke-linecap="butt"/><path d="M162.37625,187.79122c0.38771,0 0.70201,0.3143 0.70201,0.70201c0,0.38771 -0.3143,0.70202 -0.70201,0.70202c-0.38771,0 -0.70202,-0.31431 -0.70202,-0.70202c0,-0.38771 0.31431,-0.70201 0.70202,-0.70201z" fill="#000000" stroke="none" stroke-linecap="butt"/><path d="M159.4746,187.79122c0.38771,0 0.70201,0.3143 0.70201,0.70201c0,0.38771 -0.3143,0.70202 -0.70201,0.70202c-0.38771,0 -0.70202,-0.31431 -0.70202,-0.70202c0,-0.38771 0.31431,-0.70201 0.70202,-0.70201z" fill="#000000" stroke="none" stroke-linecap="butt"/><path d="M156.47935,187.79122c0.38771,0 0.70201,0.3143 0.70201,0.70201c0,0.38771 -0.3143,0.70202 -0.70201,0.70202c-0.38771,0 -0.70202,-0.31431 -0.70202,-0.70202c0,-0.38771 0.31431,-0.70201 0.70202,-0.70201z" fill="#000000" stroke="none" stroke-linecap="butt"/></g></g></g></g></svg>