<svg version="1.1" xmlns="http://www.w3.org/2000/svg" xmlns:xlink="http://www.w3.org/1999/xlink" width="385.38288" height="62.56006" viewBox="0,0,385.38288,62.56006"><g transform="translate(-127.30856,-148.71997)"><g stroke-miterlimit="10"><path d="M128.55856,198.55555c0,-12.37801 0,-31.22448 0,-38c0,-4.82514 4.8733,-10.58558 11.27477,-10.58558c32.41543,0 296.75039,0 358.66667,0c8.28123,0 12.94144,4.70601 12.94144,11.25225c0,11.86443 0,29.77368 0,36.66667c0,5.38401 -4.53526,12.14114 -12.60811,12.14114c-61.2945,0 -326.52605,0 -359,0c-6.40147,0 -11.27477,-4.79562 -11.27477,-11.47448z" fill="#ffffff" stroke="#009cff" stroke-width="2.5"/><text transform="translate(192.22073,172.66667) scale(0.5,0.5)" font-size="40" xml:space="preserve" fill="#000000" stroke="none" stroke-width="1" font-family="Sans Serif" font-weight="normal" text-anchor="start"><tspan x="0" dy="0">天气</tspan></text><text transform="translate(192.22073,197.49386) scale(0.40834,0.40834)" font-size="40" xml:space="preserve" fill="#000000" stroke="none" stroke-width="1" font-family="Sans Serif" font-weight="normal" text-anchor="start"><tspan x="0" dy="0">请点击刷新以刷新天气数据</tspan></text><path d="M152.99034,195.22424c-0.19777,-0.1931 -0.48622,-0.26076 -0.74923,-0.17574c-0.63129,0.19424 -1.30653,0.30063 -2.0049,0.30063c-3.59124,0 -6.50495,-2.79576 -6.50495,-6.24365c0,-3.44787 2.9137,-6.24363 6.50263,-6.24363c0.23943,-0.0002 0.47871,0.01214 0.71685,0.037c0.27269,0.03144 0.54017,-0.0916 0.69373,-0.31911c1.9124,-2.95532 5.32328,-4.92092 9.21284,-4.92092c3.91268,0 7.33973,1.98871 9.2452,4.97179c0.16264,0.24226 0.45243,0.36633 0.73997,0.3168c0.34918,-0.0555 0.70761,-0.08556 1.07068,-0.08556c3.59124,0 6.50495,2.79576 6.50495,6.24363c0,3.44787 -2.91139,6.24363 -6.50263,6.24363c-0.80936,0 -1.58404,-0.14104 -2.30089,-0.40005c-0.27371,-0.10207 -0.58178,-0.03521 -0.78855,0.17112c-2.0891,2.1555 -4.96701,3.36563 -7.96873,3.35076c-2.95116,0.01423 -5.78485,-1.15523 -7.86699,-3.2467zM169.32555,192.44466c0.72148,0.51799 1.61872,0.82324 2.58996,0.82324c2.3934,0 4.33354,-1.86384 4.33354,-4.16242c0,-2.29858 -1.94015,-4.16242 -4.33354,-4.16242c-0.6683,0 -1.29961,0.14568 -1.86384,0.40236c-0.42086,0.19424 -0.97354,0.02312 -1.14697,-0.39311c-1.28572,-3.05707 -4.40524,-5.20997 -8.04736,-5.20997c-3.59357,0 -6.67606,2.0974 -7.99185,5.08742c-0.1665,0.37924 -0.6521,0.54804 -1.05217,0.39773c-0.49024,-0.18269 -1.02212,-0.28443 -1.57941,-0.28443c-2.3934,0 -4.33585,1.86384 -4.33585,4.16242c0,2.29858 1.94247,4.16242 4.33816,4.16242c0.86948,0 1.68116,-0.24743 2.36102,-0.67061c0.36074,-0.22662 0.86949,-0.15493 1.11461,0.185c1.66254,2.28351 4.32326,3.62636 7.14781,3.60744c2.89535,0.01939 5.61322,-1.39322 7.26112,-3.77393c0.25437,-0.37461 0.83017,-0.43937 1.20247,-0.17112zM152.37986,162.92151c-0.10602,-0.62627 0.29716,-1.2258 0.91715,-1.36385c0.61999,-0.13805 1.23945,0.23379 1.40918,0.84586l0.592,2.65934c0.10584,0.42099 -0.02533,0.86624 -0.34247,1.16265c-0.31714,0.29641 -0.77024,0.3972 -1.18313,0.26318c-0.41289,-0.13401 -0.72042,-0.48168 -0.80304,-0.90785zM144.03052,168.02088c0.34556,-0.54267 1.05914,-0.71369 1.61315,-0.38658l2.30089,1.46379c0.54839,0.35732 0.70657,1.08967 0.35456,1.64146c-0.352,0.55179 -1.0828,0.71705 -1.63798,0.37038l-2.29858,-1.46379c-0.53072,-0.36365 -0.67761,-1.08256 -0.33205,-1.62525zM142.02582,179.16306c-0.1424,-0.64367 0.26397,-1.28093 0.90764,-1.42332l2.65932,-0.592c0.64367,-0.14239 1.28092,0.26396 1.42332,0.90764c0.1424,0.64367 -0.26397,1.28092 -0.90764,1.42332l-2.65932,0.592c-0.64367,0.14239 -1.28092,-0.26396 -1.42332,-0.90764zM165.93481,173.7353c-0.06657,-0.60615 0.33465,-1.16499 0.93028,-1.29571l2.65932,-0.592c0.64367,-0.14304 1.28144,0.26282 1.42448,0.90648c0.14303,0.64367 -0.26282,1.28143 -0.90649,1.42448l-2.65932,0.592c-0.08512,0.01835 -0.17194,0.02764 -0.25899,0.02774c-0.60981,0.00163 -1.1227,-0.45683 -1.18926,-1.06299zM161.33831,166.13351l1.46379,-2.29859c0.36365,-0.53072 1.08258,-0.6776 1.62525,-0.33205c0.54267,0.34556 0.71369,1.05914 0.38658,1.61315l-1.46379,2.29859c-0.354,0.55523 -1.09084,0.71873 -1.64648,0.36537c-0.55523,-0.354 -0.71875,-1.09084 -0.36538,-1.64648zM150.94677,169.89773c2.15619,-1.98708 5.2115,-2.66712 8.00693,-1.78215c2.79543,0.88496 4.90277,3.19938 5.52262,6.06529c0.07609,0.39066 0.12323,0.78638 0.14106,1.18397c-0.79783,-0.27497 -1.62139,-0.46865 -2.45814,-0.57811c-0.00693,-0.02775 -0.00463,-0.05782 -0.01157,-0.08788c-0.72671,-3.08581 -3.79977,-5.01353 -6.89428,-4.32474c-3.09451,0.6888 -5.05978,3.73799 -4.40901,6.8407c0.11632,0.49051 0.29753,0.96334 0.53881,1.40598c-0.63376,0.4882 -1.34405,0.86798 -2.10203,1.12385c-0.34225,-0.63362 -0.60124,-1.31115 -0.76311,-2.01183c-0.65422,-2.85828 0.27253,-5.84799 2.42872,-7.83507z" fill="#000000" stroke="none" stroke-width="1"/></g></g></svg>