<svg version="1.1" xmlns="http://www.w3.org/2000/svg" xmlns:xlink="http://www.w3.org/1999/xlink" width="258.7093" height="223.99835" viewBox="0,0,258.7093,223.99835"><g transform="translate(-26.52125,-12.92429)"><g stroke="none" stroke-miterlimit="10"><text transform="translate(26.71837,164.63893) scale(0.39425,0.39425)" font-size="40" xml:space="preserve" fill="#ffffff" stroke-width="1" font-family="Sans Serif" font-weight="400" text-anchor="start"><tspan x="0" dy="0">用户名</tspan><tspan x="0" dy="48px"> </tspan><tspan x="0" dy="48px">密码</tspan></text><path d="M85.05568,169.00318c0,-5.43371 0,-13.65876 0,-16.55867c0,-2.01361 2.14892,-4.3791 5.04642,-4.3791c16.0474,0 158.25038,0 188.71623,0c3.68013,0 5.72985,3.21129 5.72985,5.69328c0,2.8512 0,9.7487 0,14.71882c0,3.2051 -2.0498,5.60866 -5.72985,5.60866c-30.40208,0 -172.06824,0 -188.4534,0c-3.03729,0 -5.30926,-2.12902 -5.30926,-5.083z" fill-opacity="0.8" fill="#ffffff" stroke-width="0"/><path d="M85.05567,206.85158c0,-5.43371 0,-13.65876 0,-16.55867c0,-2.01361 2.14892,-4.3791 5.04642,-4.3791c16.0474,0 158.25038,0 188.71624,0c3.68013,0 5.72985,3.21129 5.72985,5.69328c0,2.85121 0,9.74871 0,14.71882c0,3.2051 -2.0498,5.60866 -5.72985,5.60866c-30.40208,0 -172.06824,0 -188.4534,0c-3.03729,0 -5.30926,-2.12902 -5.30926,-5.08299z" fill-opacity="0.8" fill="#ffffff" stroke-width="0"/><text transform="translate(220.61571,46.93627) scale(0.79282,0.79282)" font-size="40" xml:space="preserve" fill="#ffffff" stroke-width="1" font-family="Sans Serif" font-weight="400" text-anchor="start"><tspan x="0" dy="0">登录</tspan></text><text transform="translate(27.2263,232.68509) scale(0.339,0.339)" font-size="40" xml:space="preserve" fill-opacity="0.5098" fill="#ffffff" stroke-width="1" font-family="Sans Serif" font-weight="normal" text-anchor="start"><tspan x="0" dy="0">访客无需填写信息，直接点击“访客”</tspan></text></g></g></svg>