<svg version="1.1" xmlns="http://www.w3.org/2000/svg" xmlns:xlink="http://www.w3.org/1999/xlink" width="16.00614" height="16.00011" viewBox="0,0,16.00614,16.00011"><g transform="translate(-311.99693,-171.99994)"><g fill="#000000" stroke="none" stroke-miterlimit="10"><path d="M327.05952,176.23081c1.39181,2.60571 1.23437,5.76636 -0.4095,8.22086c-1.64387,2.4545 -4.5066,3.80331 -7.44595,3.50827c-0.214,-0.021 -0.423,-0.057 -0.631,-0.094c-0.043,-0.008 -0.087,-0.011 -0.13,-0.02c-3.74631,-0.74099 -6.44613,-4.02711 -6.44613,-7.846c0,-3.81889 2.69983,-7.10501 6.44613,-7.846c0.043,-0.009 0.087,-0.012 0.13,-0.02c0.209,-0.03973 0.4195,-0.07108 0.631,-0.094c0.265,-0.027 0.53,-0.04 0.795,-0.04c2.95413,-0.00147 5.66864,1.62516 7.06045,4.23087zM326.76058,183.25584c1.25117,-2.59634 0.90389,-5.67996 -0.8934,-7.93298c-1.7973,-2.25302 -4.72665,-3.27685 -7.53611,-2.63392c2.58347,1.52965 4.16792,4.30914 4.16792,7.3115c0,3.00236 -1.58444,5.78185 -4.16792,7.3115c0.54716,0.12522 1.1067,0.18828 1.668,0.188c2.88208,0.00196 5.51034,-1.64776 6.76151,-4.2441z"/></g></g></svg>