<svg version="1.1" xmlns="http://www.w3.org/2000/svg" xmlns:xlink="http://www.w3.org/1999/xlink" width="368.75915" height="23.36456" viewBox="0,0,368.75915,23.36456"><g transform="translate(-135.68669,-167.85154)"><g fill="#ffbf00" stroke="#cc9900" stroke-width="1.5" stroke-miterlimit="10"><path d="M136.43669,170.4236c0,-1.00629 0.80328,-1.82206 1.79417,-1.82206h3.58837c0.89709,0 1.34563,0.45552 1.79418,0.91103l1.79418,1.82204c0.44854,0.45551 0.89708,0.91102 1.79417,0.91102h5.38255c0.8971,0 1.34564,-0.45552 1.79418,-0.91102l1.79418,-1.82204c0.44854,-0.45551 0.89709,-0.91103 1.79418,-0.91103h343.93482c0.9909,0 1.79417,0.81576 1.79417,1.82206v18.22046c0,1.00629 -0.80328,1.82204 -1.79417,1.82204h-343.93482c-0.8971,0 -15.25053,0 -16.14762,0h-3.58837c-0.9909,0 -1.79417,-0.81575 -1.79417,-1.82204z"/></g></g></svg>