<svg version="1.1" xmlns="http://www.w3.org/2000/svg" xmlns:xlink="http://www.w3.org/1999/xlink" width="277.98331" height="261.69879" viewBox="0,0,277.98331,261.69879"><g transform="translate(-105.87318,-61.56765)"><g data-paper-data="{&quot;isPaintingLayer&quot;:true}" fill-rule="evenodd" stroke-linecap="round" stroke-linejoin="round" stroke-miterlimit="10" stroke-dasharray="" stroke-dashoffset="0" style="mix-blend-mode: normal"><path d="M150.7399,194.98324c3.37473,-3.40443 8.31239,-3.40599 11.68269,-0.00853c3.37029,3.39747 3.37707,8.37983 0.0006,11.78601c-3.37647,3.40618 -8.30048,3.40798 -11.6825,-0.00131c-3.38202,-3.40929 -3.37552,-8.37175 -0.00079,-11.77618z" data-paper-data="{&quot;origRot&quot;:0,&quot;index&quot;:null}" fill="#ffffff" stroke="none" stroke-width="0" opacity="0.42445"/><path d="M148.12106,173.61679c5.65862,-5.70842 13.93791,-5.71104 19.58909,-0.0143c5.65118,5.69674 5.66254,14.05098 0.001,19.76234c-5.66154,5.71136 -13.91793,5.71437 -19.58876,-0.0022c-5.67084,-5.71657 -5.65994,-14.03742 -0.00132,-19.74585z" data-paper-data="{&quot;origRot&quot;:0,&quot;index&quot;:null}" fill="#ffffff" stroke="none" stroke-width="0" opacity="0.42445"/><path d="M188.0855,129.08751c32.69732,-32.98506 80.53765,-33.00019 113.19194,-0.0826c32.65429,32.91758 32.71993,81.19102 0.00578,114.19306c-32.71415,33.00204 -80.42219,33.01943 -113.1901,-0.0127c-32.76792,-33.03212 -32.70494,-81.11269 -0.00762,-114.09777z" data-paper-data="{&quot;origRot&quot;:0,&quot;index&quot;:null}" fill="none" stroke="#ffffff" stroke-width="11.5" opacity="0.42445"/><path d="M137.28347,246.10823c4.98689,-5.03078 12.28335,-5.03308 17.26367,-0.0126c4.98033,5.02048 4.99034,12.383 0.00088,17.41636c-4.98946,5.03337 -12.26574,5.03602 -17.26339,-0.00194c-4.99766,-5.03795 -4.98805,-12.37105 -0.00116,-17.40183z" data-paper-data="{&quot;origRot&quot;:0,&quot;index&quot;:null}" fill="#ffffff" stroke="none" stroke-width="0" opacity="0.42445"/><path d="M110.12106,148.28345c5.65862,-5.70842 13.93791,-5.71103 19.58909,-0.01429c5.65118,5.69674 5.66254,14.05098 0.001,19.76234c-5.66154,5.71136 -13.91793,5.71437 -19.58876,-0.0022c-5.67084,-5.71657 -5.65994,-14.03743 -0.00132,-19.74585z" data-paper-data="{&quot;origRot&quot;:0,&quot;index&quot;:null}" fill="#ffffff" stroke="none" stroke-width="0" opacity="0.42445"/><path d="M137.12106,178.61679c5.65862,-5.70842 13.93791,-5.71104 19.58909,-0.0143c5.65118,5.69674 5.66254,14.05098 0.001,19.76234c-5.66154,5.71136 -13.91793,5.71437 -19.58877,-0.0022c-5.67085,-5.71657 -5.65994,-14.03742 -0.00132,-19.74585z" data-paper-data="{&quot;origRot&quot;:0,&quot;index&quot;:null}" fill="#ffffff" stroke="none" stroke-width="0" opacity="0.42445"/><path d="M199.32277,202.82021c5.92731,-5.97948 14.59973,-5.98222 20.51925,-0.01497c5.91952,5.96725 5.93142,14.71817 0.00105,20.70073c-5.93037,5.98256 -14.57881,5.98571 -20.51891,-0.0023c-5.94012,-5.98801 -5.9287,-14.70398 -0.00138,-20.68346z" data-paper-data="{&quot;origRot&quot;:0,&quot;index&quot;:null}" fill="#ffffff" stroke="none" stroke-width="0" opacity="0.42445"/><path d="M216.22267,218.04407c4.46186,-4.50113 10.99012,-4.50319 15.44612,-0.01127c4.45599,4.49192 4.46495,11.07929 0.00079,15.58273c-4.46416,4.50344 -10.97438,4.50582 -15.44587,-0.00173c-4.4715,-4.50755 -4.4629,-11.0686 -0.00104,-15.56973z" data-paper-data="{&quot;origRot&quot;:0,&quot;index&quot;:null}" fill="#ffffff" stroke="none" stroke-width="0" opacity="0.42445"/><path d="M216.556,223.04407c4.46186,-4.50113 10.99013,-4.50319 15.44612,-0.01127c4.45599,4.49192 4.46495,11.07928 0.00079,15.58273c-4.46416,4.50344 -10.97438,4.50583 -15.44587,-0.00172c-4.4715,-4.50755 -4.4629,-11.06861 -0.00104,-15.56974z" data-paper-data="{&quot;origRot&quot;:0,&quot;index&quot;:null}" fill="#ffffff" stroke="none" stroke-width="0" opacity="0.42445"/><path d="M175.02808,210.53976c3.79574,-3.82915 9.3494,-3.8309 13.14015,-0.00959c3.79075,3.82132 3.79837,9.42525 0.00067,13.25637c-3.7977,3.83112 -9.336,3.83315 -13.13994,-0.00147c-3.80395,-3.83461 -3.79663,-9.41616 -0.00088,-13.24531z" data-paper-data="{&quot;origRot&quot;:0,&quot;index&quot;:null}" fill="#ffffff" stroke="none" stroke-width="0" opacity="0.42445"/><path d="M207.12317,132.19291c6.85988,-6.92025 16.89676,-6.92341 23.74761,-0.01732c6.85085,6.90609 6.86462,17.03382 0.00121,23.95763c-6.86341,6.92381 -16.87254,6.92748 -23.74722,-0.00265c-6.8747,-6.93013 -6.86148,-17.01741 -0.0016,-23.93766z" data-paper-data="{&quot;origRot&quot;:0,&quot;index&quot;:null}" fill="#ffffff" stroke="none" stroke-width="0" opacity="0.42445"/><path d="M188.78985,151.85957c6.85988,-6.92025 16.89675,-6.92342 23.7476,-0.01732c6.85085,6.90609 6.86462,17.03382 0.00121,23.95763c-6.86341,6.92381 -16.87253,6.92748 -23.74721,-0.00265c-6.8747,-6.93013 -6.86148,-17.01741 -0.0016,-23.93766z" data-paper-data="{&quot;origRot&quot;:0,&quot;index&quot;:null}" fill="#ffffff" stroke="none" stroke-width="0" opacity="0.42445"/><path d="M186.87364,140.92704c4.3073,-4.3452 10.60941,-4.34719 14.91104,-0.01088c4.30163,4.33631 4.31027,10.69548 0.00076,15.04292c-4.30951,4.34744 -10.59421,4.34974 -14.91079,-0.00166c-4.3166,-4.35141 -4.3083,-10.68517 -0.001,-15.03038z" data-paper-data="{&quot;origRot&quot;:0,&quot;index&quot;:null}" fill="#ffffff" stroke="none" stroke-width="0" opacity="0.42445"/><path d="M181.87364,168.59371c4.3073,-4.3452 10.60941,-4.34719 14.91104,-0.01087c4.30163,4.33631 4.31027,10.69548 0.00076,15.04291c-4.30951,4.34743 -10.59421,4.34974 -14.9108,-0.00167c-4.3166,-4.3514 -4.3083,-10.68517 -0.001,-15.03037z" data-paper-data="{&quot;origRot&quot;:0,&quot;index&quot;:null}" fill="#ffffff" stroke="none" stroke-width="0" opacity="0.42445"/><path d="M175.20697,154.5937c4.3073,-4.3452 10.60941,-4.34719 14.91104,-0.01087c4.30163,4.33631 4.31027,10.69548 0.00076,15.04291c-4.30951,4.34743 -10.59421,4.34974 -14.9108,-0.00167c-4.3166,-4.3514 -4.3083,-10.68517 -0.001,-15.03037z" data-paper-data="{&quot;origRot&quot;:0,&quot;index&quot;:null}" fill="#ffffff" stroke="none" stroke-width="0" opacity="0.42445"/><path d="M163.20697,141.59371c4.3073,-4.3452 10.60941,-4.34719 14.91104,-0.01087c4.30163,4.33631 4.31027,10.69548 0.00076,15.04291c-4.30951,4.34743 -10.59421,4.34974 -14.9108,-0.00167c-4.3166,-4.3514 -4.3083,-10.68517 -0.001,-15.03037z" data-paper-data="{&quot;origRot&quot;:0,&quot;index&quot;:null}" fill="#ffffff" stroke="none" stroke-width="0" opacity="0.42445"/><path d="M142.85684,118.89874c2.50878,-2.53086 6.17945,-2.53202 8.68493,-0.00633c2.50548,2.52568 2.51051,6.22958 0.00044,8.76174c-2.51007,2.53216 -6.17059,2.5335 -8.68479,-0.00097c-2.5142,-2.53447 -2.50937,-6.22358 -0.00059,-8.75443z" data-paper-data="{&quot;origRot&quot;:0,&quot;index&quot;:null}" fill="#ffffff" stroke="none" stroke-width="0" opacity="0.42445"/><path d="M204.44737,245.31835c3.06302,-3.08998 7.5446,-3.09139 10.60359,-0.00774c3.05899,3.08365 3.06514,7.6058 0.00054,10.69737c-3.0646,3.09156 -7.53379,3.0932 -10.60342,-0.00118c-3.06963,-3.09438 -3.06373,-7.59848 -0.00071,-10.68845z" data-paper-data="{&quot;origRot&quot;:0,&quot;index&quot;:null}" fill="#ffffff" stroke="none" stroke-width="0" opacity="0.42445"/><path d="M199.81742,261.04193c6.22016,-6.2749 15.32104,-6.27779 21.53301,-0.01572c6.21197,6.26207 6.22447,15.44532 0.00111,21.72347c-6.22336,6.27812 -15.29909,6.28146 -21.53268,-0.0024c-6.2336,-6.28386 -6.2216,-15.43045 -0.00144,-21.70535z" data-paper-data="{&quot;origRot&quot;:0,&quot;index&quot;:null}" fill="#ffffff" stroke="none" stroke-width="0" opacity="0.42445"/><path d="M193.73881,286.61796c4.33931,-4.3775 10.68827,-4.37951 15.02186,-0.01096c4.3336,4.36855 4.34232,10.77497 0.00077,15.15473c-4.34154,4.37974 -10.67295,4.38208 -15.02163,-0.00167c-4.34869,-4.38375 -4.34031,-10.76459 -0.001,-15.14209z" data-paper-data="{&quot;origRot&quot;:0,&quot;index&quot;:null}" fill="#ffffff" stroke="none" stroke-width="0" opacity="0.42445"/><path d="M184.75587,285.98554c7.02623,-7.08808 17.30651,-7.09133 24.3235,-0.01775c7.01699,7.07358 7.03111,17.44691 0.00125,24.53864c-7.02986,7.09171 -17.28171,7.09549 -24.32313,-0.0027c-7.04142,-7.09819 -7.02786,-17.43011 -0.00163,-24.51819z" data-paper-data="{&quot;origRot&quot;:0,&quot;index&quot;:null}" fill="#ffffff" stroke="none" stroke-width="0" opacity="0.42445"/><path d="M236.75588,276.98554c7.02623,-7.08808 17.30651,-7.09134 24.3235,-0.01776c7.01699,7.07358 7.03112,17.44691 0.00126,24.53865c-7.02986,7.09172 -17.28172,7.09548 -24.32313,-0.00271c-7.04142,-7.09819 -7.02786,-17.4301 -0.00162,-24.51818z" data-paper-data="{&quot;origRot&quot;:0,&quot;index&quot;:null}" fill="#ffffff" stroke="none" stroke-width="0" opacity="0.42445"/><path d="M226.01118,278.22598c4.70213,-4.74352 11.58196,-4.7457 16.2779,-0.01188c4.69594,4.73382 4.7054,11.67591 0.00084,16.42188c-4.70456,4.74595 -11.56536,4.74848 -16.27765,-0.00181c-4.7123,-4.75029 -4.70322,-11.66467 -0.00109,-16.40819z" data-paper-data="{&quot;origRot&quot;:0,&quot;index&quot;:null}" fill="#ffffff" stroke="none" stroke-width="0" opacity="0.42445"/><path d="M275.93852,296.16405c6.38147,-6.43763 15.71835,-6.44059 22.09142,-0.01612c6.37307,6.42447 6.3859,15.84587 0.00114,22.28683c-6.38476,6.44094 -15.69584,6.44436 -22.09109,-0.00246c-6.39525,-6.44681 -6.38294,-15.83062 -0.00147,-22.26825z" data-paper-data="{&quot;origRot&quot;:0,&quot;index&quot;:null}" fill="#ffffff" stroke="none" stroke-width="0" opacity="0.42445"/><path d="M293.47873,279.51857c2.21672,-2.23623 5.46007,-2.23726 7.67388,-0.0056c2.21381,2.23166 2.21826,5.50437 0.0004,7.74176c-2.21787,2.23738 -5.45225,2.23857 -7.67376,-0.00085c-2.22151,-2.23942 -2.21724,-5.49907 -0.00051,-7.7353z" data-paper-data="{&quot;origRot&quot;:0,&quot;index&quot;:null}" fill="#ffffff" stroke="none" stroke-width="0" opacity="0.42445"/><path d="M328.24107,222.31012c6.7845,-6.84422 16.71111,-6.84735 23.48668,-0.01714c6.77557,6.83021 6.78922,16.84666 0.00121,23.69441c-6.78801,6.84774 -16.68714,6.85136 -23.48631,-0.00262c-6.79916,-6.85398 -6.78608,-16.83044 -0.00158,-23.67466z" data-paper-data="{&quot;origRot&quot;:0,&quot;index&quot;:null}" fill="#ffffff" stroke="none" stroke-width="0" opacity="0.42445"/><path d="M309.82433,230.22032c5.78533,-5.83625 14.25002,-5.83893 20.02773,-0.01462c5.77771,5.82431 5.78935,14.36561 0.00103,20.20487c-5.78832,5.83925 -14.22958,5.84235 -20.02741,-0.00223c-5.79783,-5.84458 -5.78667,-14.35178 -0.00134,-20.18803z" data-paper-data="{&quot;origRot&quot;:0,&quot;index&quot;:null}" fill="#ffffff" stroke="none" stroke-width="0" opacity="0.42445"/><path d="M258.15766,241.88699c5.78533,-5.83625 14.25002,-5.83892 20.02773,-0.01461c5.77771,5.82431 5.78935,14.36561 0.00103,20.20488c-5.78832,5.83925 -14.22958,5.84235 -20.02741,-0.00223c-5.79784,-5.84458 -5.78668,-14.35178 -0.00135,-20.18803z" data-paper-data="{&quot;origRot&quot;:0,&quot;index&quot;:null}" fill="#ffffff" stroke="none" stroke-width="0" opacity="0.42445"/><path d="M263.82433,219.55365c5.78533,-5.83625 14.25001,-5.83893 20.02772,-0.01462c5.77771,5.82431 5.78935,14.36561 0.00103,20.20487c-5.78832,5.83925 -14.22957,5.84235 -20.02741,-0.00223c-5.79784,-5.84458 -5.78668,-14.35178 -0.00135,-20.18803z" data-paper-data="{&quot;origRot&quot;:0,&quot;index&quot;:null}" fill="#ffffff" stroke="none" stroke-width="0" opacity="0.42445"/><path d="M236.15766,221.55365c5.78533,-5.83625 14.25002,-5.83892 20.02772,-0.01461c5.77771,5.82431 5.78935,14.36561 0.00103,20.20487c-5.78832,5.83925 -14.22957,5.84234 -20.02741,-0.00223c-5.79784,-5.84457 -5.78668,-14.35178 -0.00135,-20.18803z" data-paper-data="{&quot;origRot&quot;:0,&quot;index&quot;:null}" fill="#ffffff" stroke="none" stroke-width="0" opacity="0.42445"/><path d="M244.53435,230.94192c5.45845,-5.50649 13.44487,-5.50902 18.89613,-0.01379c5.45126,5.49523 5.46224,13.55393 0.00097,19.06327c-5.46127,5.50932 -13.42558,5.51224 -18.89583,-0.0021c-5.47025,-5.51435 -5.45972,-13.54089 -0.00127,-19.04738z" data-paper-data="{&quot;origRot&quot;:0,&quot;index&quot;:null}" fill="#ffffff" stroke="none" stroke-width="0" opacity="0.42445"/><path d="M207.27628,189.65892c1.5624,-1.57616 3.8484,-1.57688 5.40875,-0.00395c1.56035,1.57293 1.56349,3.87962 0.00028,5.45659c-1.56321,1.57697 -3.84288,1.5778 -5.40866,-0.0006c-1.56578,-1.5784 -1.56277,-3.87589 -0.00036,-5.45204z" data-paper-data="{&quot;origRot&quot;:0,&quot;index&quot;:null}" fill="#ffffff" stroke="none" stroke-width="0" opacity="0.42445"/><path d="M294.05826,189.59566c6.6004,-6.65849 16.25763,-6.66155 22.84933,-0.01669c6.5917,6.64486 6.60498,16.38952 0.00118,23.05145c-6.6038,6.66191 -16.23431,6.66544 -22.84897,-0.00256c-6.61466,-6.66799 -6.60194,-16.37372 -0.00154,-23.03221z" data-paper-data="{&quot;origRot&quot;:0,&quot;index&quot;:null}" fill="#ffffff" stroke="none" stroke-width="0" opacity="0.42445"/><path d="M298.05827,183.26233c6.6004,-6.65849 16.25763,-6.66154 22.84933,-0.01668c6.5917,6.64486 6.60498,16.38952 0.00118,23.05145c-6.6038,6.66191 -16.23431,6.66544 -22.84897,-0.00256c-6.61466,-6.66799 -6.60194,-16.37372 -0.00154,-23.03221z" data-paper-data="{&quot;origRot&quot;:0,&quot;index&quot;:null}" fill="#ffffff" stroke="none" stroke-width="0" opacity="0.42445"/><path d="M352.94629,119.79083c7.33931,-7.40389 18.07766,-7.4073 25.40728,-0.01855c7.32963,7.38874 7.3444,18.2243 0.00131,25.63203c-7.34309,7.4077 -18.05172,7.41162 -25.40688,-0.00284c-7.35516,-7.41446 -7.34102,-18.20674 -0.00171,-25.61064z" data-paper-data="{&quot;origRot&quot;:0,&quot;index&quot;:null}" fill="#ffffff" stroke="none" stroke-width="0" opacity="0.42445"/><path d="M278.74598,159.22991c3.07617,-3.10324 7.57699,-3.10466 10.6491,-0.00778c3.07211,3.09689 3.0783,7.63846 0.00055,10.7433c-3.07775,3.10483 -7.56612,3.10648 -10.64893,-0.00119c-3.08281,-3.10767 -3.07688,-7.6311 -0.00072,-10.73433z" data-paper-data="{&quot;origRot&quot;:0,&quot;index&quot;:null}" fill="#ffffff" stroke="none" stroke-width="0" opacity="0.42445"/><path d="M268.74598,142.22992c3.07617,-3.10324 7.57699,-3.10467 10.6491,-0.00778c3.07211,3.09689 3.07831,7.63846 0.00056,10.7433c-3.07775,3.10483 -7.56613,3.10648 -10.64894,-0.00119c-3.08281,-3.10767 -3.07689,-7.63109 -0.00072,-10.73433z" data-paper-data="{&quot;origRot&quot;:0,&quot;index&quot;:null}" fill="#ffffff" stroke="none" stroke-width="0" opacity="0.42445"/><path d="M267.07931,132.56325c3.07617,-3.10324 7.57699,-3.10467 10.6491,-0.00778c3.07211,3.09689 3.07831,7.63846 0.00056,10.7433c-3.07775,3.10483 -7.56613,3.10648 -10.64894,-0.00119c-3.08281,-3.10767 -3.07689,-7.63109 -0.00072,-10.73433z" data-paper-data="{&quot;origRot&quot;:0,&quot;index&quot;:null}" fill="#ffffff" stroke="none" stroke-width="0" opacity="0.42445"/><path d="M257.30067,134.12267c3.81507,-3.84865 9.39701,-3.85042 13.20705,-0.00965c3.81004,3.84077 3.81772,9.47325 0.00069,13.32388c-3.81704,3.85062 -9.38354,3.85266 -13.20685,-0.00148c-3.82331,-3.85414 -3.81596,-9.4641 -0.00089,-13.31275z" data-paper-data="{&quot;origRot&quot;:0,&quot;index&quot;:null}" fill="#ffffff" stroke="none" stroke-width="0" opacity="0.42445"/><path d="M321.07931,107.22991c3.07617,-3.10324 7.57699,-3.10466 10.6491,-0.00778c3.07211,3.09689 3.0783,7.63846 0.00055,10.7433c-3.07775,3.10483 -7.56612,3.10648 -10.64893,-0.00119c-3.08281,-3.10767 -3.07688,-7.6311 -0.00072,-10.73433z" data-paper-data="{&quot;origRot&quot;:0,&quot;index&quot;:null}" fill="#ffffff" stroke="none" stroke-width="0" opacity="0.42445"/><path d="M268.9451,95.1116c5.56158,-5.61053 13.69888,-5.61311 19.25312,-0.01407c5.55424,5.59905 5.56544,13.81001 0.00099,19.42344c-5.56444,5.6134 -13.67922,5.61637 -19.25281,-0.00216c-5.57359,-5.61854 -5.56288,-13.79669 -0.0013,-19.40721z" data-paper-data="{&quot;origRot&quot;:0,&quot;index&quot;:null}" fill="#ffffff" stroke="none" stroke-width="0" opacity="0.42445"/><path d="M260.94509,105.1116c5.56158,-5.61052 13.69888,-5.61311 19.25312,-0.01407c5.55424,5.59905 5.56543,13.81001 0.00099,19.42344c-5.56444,5.6134 -13.67922,5.61637 -19.25281,-0.00217c-5.57359,-5.61853 -5.56288,-13.79669 -0.0013,-19.40721z" data-paper-data="{&quot;origRot&quot;:0,&quot;index&quot;:null}" fill="#ffffff" stroke="none" stroke-width="0" opacity="0.42445"/><path d="M283.50312,116.05255c4.16273,-4.19937 10.25335,-4.20131 14.41059,-0.01053c4.15725,4.19078 4.16562,10.33653 0.00074,14.53807c-4.16488,4.20152 -10.23864,4.20375 -14.41036,-0.00162c-4.17173,-4.20537 -4.16371,-10.32656 -0.00097,-14.52593z" data-paper-data="{&quot;origRot&quot;:0,&quot;index&quot;:null}" fill="#ffffff" stroke="none" stroke-width="0" opacity="0.42445"/><path d="M313.83646,139.71922c4.16273,-4.19937 10.25335,-4.20131 14.4106,-0.01053c4.15724,4.19078 4.16562,10.33653 0.00074,14.53808c-4.16487,4.20153 -10.23864,4.20374 -14.41037,-0.00162c-4.17172,-4.20537 -4.1637,-10.32655 -0.00097,-14.52592z" data-paper-data="{&quot;origRot&quot;:0,&quot;index&quot;:null}" fill="#ffffff" stroke="none" stroke-width="0" opacity="0.42445"/><path d="M274.83646,68.71921c4.16273,-4.19937 10.25335,-4.20131 14.4106,-0.01053c4.15724,4.19078 4.16562,10.33653 0.00074,14.53807c-4.16487,4.20153 -10.23864,4.20374 -14.41037,-0.00162c-4.17172,-4.20537 -4.1637,-10.32656 -0.00097,-14.52592z" data-paper-data="{&quot;origRot&quot;:0,&quot;index&quot;:null}" fill="#ffffff" stroke="none" stroke-width="0" opacity="0.42445"/><path d="M236.16979,66.71921c4.16273,-4.19937 10.25335,-4.20131 14.4106,-0.01053c4.15724,4.19078 4.16562,10.33653 0.00074,14.53807c-4.16487,4.20153 -10.23864,4.20375 -14.41037,-0.00162c-4.17172,-4.20537 -4.1637,-10.32655 -0.00097,-14.52592z" data-paper-data="{&quot;origRot&quot;:0,&quot;index&quot;:null}" fill="#ffffff" stroke="none" stroke-width="0" opacity="0.42445"/><path d="M237.89542,65.7872c5.57337,-5.62242 13.72793,-5.62502 19.29396,-0.0141c5.56602,5.61092 5.57723,13.8393 0.00099,19.46464c-5.57624,5.62531 -13.70824,5.62828 -19.29365,-0.00217c-5.58541,-5.63045 -5.57467,-13.82595 -0.0013,-19.44837z" data-paper-data="{&quot;origRot&quot;:0,&quot;index&quot;:null}" fill="#ffffff" stroke="none" stroke-width="0" opacity="0.42445"/><path d="M209.45011,90.67152c6.31228,-6.36783 15.54795,-6.37078 21.85191,-0.01597c6.30396,6.35481 6.31665,15.67409 0.00113,22.04522c-6.31553,6.3711 -15.52565,6.37447 -21.85156,-0.00246c-6.32591,-6.37692 -6.31375,-15.65896 -0.00147,-22.02679z" data-paper-data="{&quot;origRot&quot;:0,&quot;index&quot;:null}" fill="#ffffff" stroke="none" stroke-width="0" opacity="0.42445"/><path d="M167.90654,80.7843c4.70012,-4.74149 11.577,-4.74368 16.27092,-0.01189c4.69392,4.73179 4.70337,11.67092 0.00084,16.41486c-4.70254,4.74392 -11.56039,4.74643 -16.27066,-0.00183c-4.71027,-4.74826 -4.70122,-11.65966 -0.0011,-16.40114z" data-paper-data="{&quot;origRot&quot;:0,&quot;index&quot;:null}" fill="#ffffff" stroke="none" stroke-width="0" opacity="0.42445"/><path d="M176.13049,66.66546c3.22231,-3.25067 7.93696,-3.25217 11.15502,-0.00815c3.21806,3.24402 3.22454,8.00135 0.00057,11.2537c-3.22396,3.25234 -7.92557,3.25405 -11.15484,-0.00125c-3.22927,-3.25531 -3.22306,-7.99363 -0.00075,-11.24429z" data-paper-data="{&quot;origRot&quot;:0,&quot;index&quot;:null}" fill="#ffffff" stroke="none" stroke-width="0" opacity="0.42445"/><path d="M154.2304,84.7577c2.0233,-2.04111 4.98365,-2.04205 7.00428,-0.00512c2.02063,2.03693 2.0247,5.02408 0.00036,7.06624c-2.02434,2.04215 -4.9765,2.04323 -7.00416,-0.00079c-2.02767,-2.04402 -2.02378,-5.01923 -0.00047,-7.06033z" data-paper-data="{&quot;origRot&quot;:0,&quot;index&quot;:null}" fill="#ffffff" stroke="none" stroke-width="0" opacity="0.42445"/></g></g></svg>