<svg version="1.1" xmlns="http://www.w3.org/2000/svg" xmlns:xlink="http://www.w3.org/1999/xlink" width="26.56842" height="26.56842" viewBox="0,0,26.56842,26.56842"><g transform="translate(-321.78158,-172.70263)"><g stroke-miterlimit="10"><path d="M321.78158,193.71183c0,-5.06277 0,-12.19249 0,-15.1971c0,-3.39708 2.53401,-5.8121 5.85314,-5.8121c2.96337,0 10.4751,0 15.50894,0c3.29508,0 5.20634,3.21236 5.20634,5.71223c0,2.89713 0,9.95196 0,15.05544c0,3.31106 -2.58858,5.80075 -6.01144,5.80075c-5.24324,0 -12.44413,0 -15.29697,0c-2.34271,0 -5.26001,-2.36934 -5.26001,-5.55922z" fill="#009bff" stroke="none" stroke-width="none" stroke-linecap="butt"/><path d="M330.90776,181.82882l8.31605,8.31605" fill="none" stroke="#ffffff" stroke-width="2.5" stroke-linecap="round"/><path d="M330.90776,190.14487l8.31605,-8.31605" fill="none" stroke="#ffffff" stroke-width="2.5" stroke-linecap="round"/></g></g></svg>