<svg version="1.1" xmlns="http://www.w3.org/2000/svg" xmlns:xlink="http://www.w3.org/1999/xlink" width="53" height="50.25" viewBox="0,0,53,50.25"><g transform="translate(-293.2,-155.73749)"><g stroke-miterlimit="10"><path d="M293.2,205.98749v-50.25h53v50.25z" fill-opacity="0.01176" fill="#ffffff" stroke="none" stroke-width="0" stroke-linecap="butt"/><path d="M309.41393,180.67518" fill="none" stroke="#000000" stroke-width="6" stroke-linecap="butt"/><path d="M309.41393,180.67518" fill="none" stroke="#000000" stroke-width="6" stroke-linecap="butt"/><path d="M309.41393,180.67518" fill="none" stroke="#000000" stroke-width="6" stroke-linecap="butt"/><path d="M314.41056,169.90476c0.19055,-0.10209 0.38495,-0.19958 0.58312,-0.29228c5.91114,-2.76492 12.94448,-0.2144 15.7094,5.69673c1.80064,3.8496 1.3469,8.17514 -0.82129,11.48771" fill="none" stroke="#000000" stroke-width="5" stroke-linecap="butt"/><path d="M327.0361,189.81117c-0.62304,0.46065 -1.30086,0.8665 -2.02977,1.20744c-5.91114,2.76492 -12.94448,0.2144 -15.7094,-5.69673c-1.74959,-3.74046 -1.37081,-7.93026 0.64103,-11.20356" fill="none" stroke="#000000" stroke-width="5" stroke-linecap="butt"/><g fill="none" stroke="#000000" stroke-width="3" stroke-linecap="round"><path d="M318.44966,162.16579l-8.5446,8.34588"/><path d="M321.11049,173.14701l-11.18052,-2.5325"/></g><path d="M312.30055,170.1687c0,-0.94433 0.76554,-1.70987 1.70987,-1.70987c0.94433,0 1.70987,0.76554 1.70987,1.70987c0,0.94433 -0.76554,1.70987 -1.70987,1.70987c-0.94433,0 -1.70987,-0.76554 -1.70987,-1.70987z" fill="#000000" stroke="none" stroke-width="0.5" stroke-linecap="butt"/><g fill="none" stroke="#000000" stroke-width="3" stroke-linecap="round"><path d="M328.81404,189.74948l-8.80329,8.08473"/><path d="M317.60862,186.77675l11.18294,2.86917"/></g><path d="M326.33428,189.91336c0,0.94433 -0.76554,1.70987 -1.70987,1.70987c-0.94433,0 -1.70987,-0.76554 -1.70987,-1.70987c0,-0.94433 0.76554,-1.70987 1.70987,-1.70987c0.94433,0 1.70987,0.76554 1.70987,1.70987z" fill="#000000" stroke="none" stroke-width="0.5" stroke-linecap="butt"/></g></g></svg>