<svg version="1.1" xmlns="http://www.w3.org/2000/svg" xmlns:xlink="http://www.w3.org/1999/xlink" width="122.76787" height="32.42857" viewBox="0,0,122.76787,32.42857"><g transform="translate(-304.03571,-163.78571)"><g stroke-miterlimit="10"><path d="M325.76429,164.28571c0.83525,0 78.55242,-0.25 79.81071,-0.25c3.78286,0 9.06715,0 13.38572,0c4.26805,0 7.59286,4.48971 7.59286,7.80714c0,3.24293 0,10.33928 0,16c0,4.51796 -4.53812,8.12143 -7.87857,8.12143c-2.80574,0 -8.47199,0 -13.60001,0c-1.02073,0 -2.02014,0 -2.97142,0c-0.15068,0 -76.30015,-0.25471 -76.4483,-0.26401c-3.99218,-0.25049 -3.19457,-31.41456 0.10901,-31.41456z" fill-opacity="0.10196" fill="#ffffff" stroke="#ffffff" stroke-width="0.5" stroke-linecap="butt"/><path d="M304.03571,187.7c0,-5.63674 0,-12.64143 0,-15.85714c0,-3.31744 4.46071,-7.80714 7.76429,-7.80714c3.34632,0 10.81638,0 16.57143,0c4.26805,0 7.59286,4.48971 7.59286,7.80714c0,3.24293 0,10.33928 0,16c0,4.51796 -4.53812,8.12143 -7.87857,8.12143c-3.36422,0 -10.84106,0 -16.57143,0c-4.2108,0 -7.47857,-3.67967 -7.47857,-8.26429z" fill="#ffffff" stroke="#000000" stroke-width="0" stroke-linecap="butt"/><g fill="none" stroke="#000000" stroke-width="2"><path d="M310.55482,177.39818c0,-3.83081 3.10549,-6.9363 6.9363,-6.9363c3.83081,0 6.9363,3.10549 6.9363,6.9363c0,3.83081 -3.10549,6.9363 -6.9363,6.9363c-3.83081,0 -6.9363,-3.10549 -6.9363,-6.9363z" stroke-linecap="butt"/><path d="M322.7246,182.81754l6.72058,6.72058" stroke-linecap="round"/></g><text transform="translate(344.73125,186.67969) scale(0.44336,0.44336)" font-size="40" xml:space="preserve" fill="#ffffff" stroke="none" stroke-width="1" stroke-linecap="butt" font-family="Sans Serif" font-weight="normal" text-anchor="start"><tspan x="0" dy="0">切换地区</tspan></text></g></g></svg>