<svg version="1.1" xmlns="http://www.w3.org/2000/svg" xmlns:xlink="http://www.w3.org/1999/xlink" width="71.7424" height="71.7424" viewBox="0,0,71.7424,71.7424"><g transform="translate(-284.1288,-144.12881)"><g stroke="none" stroke-miterlimit="10"><path d="M284.1288,207.97036c0,-15.29857 0,-48.18866 0,-56.44551c0,-3.68229 4.07087,-7.39604 8.01557,-7.39604c8.41966,0 40.60918,0 55.75715,0c4.86301,0 7.96968,3.84544 7.96968,7.6255c0,8.32424 0,40.98437 0,56.21606c0,2.27319 -0.95711,4.1582 -2.40002,5.5162c-1.61962,1.52432 -3.85132,2.38464 -6.02857,2.38464c-8.60468,0 -40.90499,0 -55.75715,0c-4.62392,0 -7.55666,-3.07531 -7.55666,-7.90084z" fill="#ffffff" stroke-width="0"/><path d="M312.14999,190.07271c-0.21511,-0.21003 -0.52885,-0.28362 -0.81491,-0.19115c-0.68663,0.21127 -1.42105,0.32697 -2.18063,0.32697c-3.90601,0 -7.07509,-3.0408 -7.07509,-6.79088c0,-3.75007 3.16908,-6.79088 7.07257,-6.79088c0.26042,-0.00023 0.52067,0.0132 0.77969,0.04024c0.29659,0.03419 0.58752,-0.09964 0.75454,-0.34709c2.08002,-3.21435 5.78985,-5.35222 10.02032,-5.35222c4.25562,0 7.98305,2.16302 10.05553,5.40755c0.17689,0.26349 0.49209,0.39844 0.80484,0.34457c0.37979,-0.06036 0.76963,-0.09306 1.16451,-0.09306c3.90601,0 7.07509,3.0408 7.07509,6.79088c0,3.75007 -3.16656,6.79088 -7.07257,6.79088c-0.8803,0 -1.72287,-0.15342 -2.50256,-0.43512c-0.29769,-0.11101 -0.63276,-0.03829 -0.85766,0.18612c-2.2722,2.34442 -5.40236,3.66062 -8.66717,3.64444c-3.20982,0.01548 -6.29187,-1.25648 -8.55651,-3.53126zM329.91694,187.04951c0.78472,0.56339 1.7606,0.89539 2.81696,0.89539c2.60317,0 4.71337,-2.0272 4.71337,-4.52725c0,-2.50005 -2.1102,-4.52725 -4.71337,-4.52725c-0.72688,0 -1.41351,0.15845 -2.0272,0.43763c-0.45776,0.21127 -1.05887,0.02515 -1.24751,-0.42757c-1.39842,-3.32501 -4.79134,-5.66661 -8.75269,-5.66661c-3.90853,0 -7.26121,2.28123 -8.69232,5.53331c-0.18109,0.41248 -0.70927,0.59609 -1.14439,0.4326c-0.53321,-0.1987 -1.11169,-0.30936 -1.71784,-0.30936c-2.60317,0 -4.71589,2.0272 -4.71589,4.52725c0,2.50005 2.11272,4.52725 4.7184,4.52725c0.94569,0 1.82851,-0.26912 2.56796,-0.72939c0.39236,-0.24648 0.94569,-0.16851 1.2123,0.20121c1.80825,2.48366 4.70218,3.9442 7.7743,3.92362c3.14912,0.02109 6.1052,-1.51533 7.89754,-4.10471c0.27667,-0.40745 0.90294,-0.47788 1.30787,-0.18612zM311.486,154.93872c-0.11531,-0.68115 0.32321,-1.33324 0.99754,-1.48339c0.67433,-0.15015 1.34809,0.25428 1.53269,0.92l0.64388,2.89241c0.11511,0.45789 -0.02755,0.94217 -0.37249,1.26456c-0.34494,0.32239 -0.83776,0.43201 -1.28683,0.28625c-0.44908,-0.14576 -0.78357,-0.5239 -0.87342,-0.98742zM302.40486,160.48504c0.37585,-0.59024 1.15197,-0.77624 1.75454,-0.42047l2.50256,1.59208c0.59644,0.38863 0.76849,1.18517 0.38563,1.78533c-0.38285,0.60016 -1.17771,0.77989 -1.78154,0.40284l-2.50005,-1.59208c-0.57725,-0.39552 -0.737,-1.17746 -0.36115,-1.7677zM300.22446,172.6038c-0.15488,-0.70009 0.2871,-1.39319 0.98719,-1.54807l2.89241,-0.64388c0.70009,-0.15488 1.39319,0.2871 1.54807,0.98719c0.15488,0.70009 -0.2871,1.39319 -0.98719,1.54807l-2.89241,0.64388c-0.70009,0.15488 -1.39319,-0.2871 -1.54807,-0.98719zM326.22902,166.70032c-0.0724,-0.65929 0.36398,-1.26709 1.01182,-1.40928l2.89241,-0.64388c0.70009,-0.15557 1.39375,0.28585 1.54933,0.98593c0.15557,0.70009 -0.28585,1.39375 -0.98593,1.54933l-2.89241,0.64388c-0.09257,0.01995 -0.187,0.03006 -0.2817,0.03018c-0.66325,0.00176 -1.22111,-0.49687 -1.29351,-1.15616zM321.22965,158.43225l1.59208,-2.50005c0.39552,-0.57725 1.17746,-0.737 1.7677,-0.36115c0.59024,0.37585 0.77624,1.15197 0.42047,1.75454l-1.59208,2.50005c-0.38503,0.60389 -1.18645,0.78173 -1.79078,0.39739c-0.60389,-0.38503 -0.78173,-1.18645 -0.39739,-1.79078zM309.92731,162.52639c2.34518,-2.16125 5.66827,-2.90089 8.70872,-1.93836c3.04045,0.96253 5.33249,3.4798 6.00666,6.5969c0.08276,0.4249 0.13404,0.85531 0.15342,1.28775c-0.86776,-0.29906 -1.7635,-0.50973 -2.67359,-0.62878c-0.00755,-0.03018 -0.00503,-0.06288 -0.01258,-0.09558c-0.79041,-3.35628 -4.13281,-5.45296 -7.49855,-4.7038c-3.36573,0.74916 -5.50326,4.06561 -4.79545,7.44027c0.12652,0.53351 0.3236,1.04777 0.58603,1.52921c-0.6893,0.531 -1.46186,0.94406 -2.28626,1.22236c-0.37224,-0.68915 -0.65394,-1.42608 -0.83,-2.18817c-0.71156,-3.10879 0.29642,-6.36055 2.6416,-8.5218z" fill="#000000" stroke-width="1"/><text transform="translate(306.1952,208.7248) scale(0.34512,0.34512)" font-size="40" xml:space="preserve" fill="#000000" stroke-width="1" font-family="Sans Serif" font-weight="normal" text-anchor="start"><tspan x="0" dy="0">天气</tspan></text></g></g></svg>