<svg version="1.1" xmlns="http://www.w3.org/2000/svg" xmlns:xlink="http://www.w3.org/1999/xlink" width="16.00035" height="15.99966" viewBox="0,0,16.00035,15.99966"><g transform="translate(-311.99982,-172.00017)"><g fill="#000000" stroke="none" stroke-miterlimit="10"><path d="M324,179.5v2.063c0.97515,0.25179 1.61097,1.1894 1.48406,2.1885c-0.12691,0.9991 -0.97692,1.74799 -1.98406,1.74799c-1.00714,0 -1.85715,-0.74889 -1.98406,-1.74799c-0.12691,-0.9991 0.50891,-1.93671 1.48406,-2.1885v-2.063c0,-0.27614 0.22386,-0.5 0.5,-0.5c0.27614,0 0.5,0.22386 0.5,0.5z"/><path d="M322.19982,180.39917l-0.532,0.356c-1.20902,0.80728 -1.74734,2.31064 -1.32556,3.70187c0.42178,1.39123 1.7043,2.34257 3.15805,2.34257c1.45376,0 2.73628,-0.95134 3.15806,-2.34257c0.42178,-1.39123 -0.11654,-2.8946 -1.32556,-3.70187l-0.533,-0.356v-5.899c0,-0.71797 -0.58203,-1.3 -1.3,-1.3c-0.71797,0 -1.3,0.58203 -1.3,1.3zM320.99982,174.50017c0,-1.38071 1.11929,-2.5 2.5,-2.5c1.38071,0 2.5,1.11929 2.5,2.5v5.258c1.64812,1.10119 2.38162,3.1511 1.80624,5.0479c-0.57537,1.8968 -2.3241,3.19376 -4.30624,3.19376c-1.98215,0 -3.73087,-1.29696 -4.30624,-3.19376c-0.57537,-1.8968 0.15812,-3.94671 1.80624,-5.0479zM315.71882,173.21917c0,-0.12095 -0.09805,-0.219 -0.219,-0.219c-0.12095,0 -0.219,0.09805 -0.219,0.219v0.565l-0.283,-0.282c-0.05378,-0.06162 -0.13741,-0.08814 -0.21688,-0.06877c-0.07947,0.01937 -0.14151,0.08142 -0.16088,0.16089c-0.01938,0.07946 0.00714,0.1631 0.06876,0.21688l0.592,0.592v0.784c0.00006,0.00635 0.0004,0.01268 0.001,0.019c-0.31119,0.05207 -0.59313,0.2147 -0.794,0.458c-0.00486,-0.00354 -0.00986,-0.00688 -0.015,-0.01l-0.68,-0.392l-0.216,-0.809c-0.01844,-0.07752 -0.07752,-0.13891 -0.15427,-0.1603c-0.07676,-0.02139 -0.15908,0.00061 -0.21494,0.05742c-0.05586,0.05682 -0.07646,0.1395 -0.05379,0.21588l0.104,0.387l-0.49,-0.283c-0.06788,-0.04251 -0.15356,-0.04457 -0.22341,-0.00537c-0.06985,0.0392 -0.11273,0.1134 -0.11181,0.19349c0.00092,0.08009 0.04549,0.15329 0.11622,0.19088l0.49,0.283l-0.386,0.103c-0.07752,0.01844 -0.13891,0.07752 -0.1603,0.15428c-0.02139,0.07676 0.00061,0.15908 0.05742,0.21495c0.05681,0.05587 0.1395,0.07646 0.21588,0.05378l0.809,-0.217l0.679,0.392c0.00522,0.00288 0.01056,0.00555 0.016,0.008c-0.11073,0.29599 -0.11073,0.62202 0,0.918c-0.00544,0.00245 -0.01078,0.00512 -0.016,0.008l-0.68,0.392l-0.808,-0.217c-0.07639,-0.02268 -0.15907,-0.00208 -0.21588,0.05379c-0.05681,0.05587 -0.07881,0.13818 -0.05742,0.21494c0.02139,0.07676 0.08278,0.13584 0.1603,0.15427l0.386,0.103l-0.49,0.283c-0.10494,0.06047 -0.14098,0.19457 -0.0805,0.2995c0.06047,0.10494 0.19457,0.14097 0.2995,0.0805l0.49,-0.284l-0.104,0.387c-0.02268,0.07638 -0.00208,0.15906 0.05379,0.21588c0.05586,0.05682 0.13818,0.07881 0.21494,0.05742c0.07676,-0.02139 0.13584,-0.08278 0.15427,-0.1603l0.216,-0.81l0.68,-0.391c0.00513,-0.00313 0.01013,-0.00646 0.015,-0.01c0.197,0.238 0.476,0.405 0.794,0.458c-0.00027,0.00633 -0.00027,0.01267 0,0.019v0.784l-0.593,0.592c-0.08588,0.08588 -0.08588,0.22512 0,0.311c0.08588,0.08588 0.22512,0.08588 0.311,0l0.282,-0.283v0.565c0,0.12095 0.09805,0.219 0.219,0.219c0.12095,0 0.219,-0.09805 0.219,-0.219v-0.565l0.283,0.282c0.05378,0.06162 0.13742,0.08814 0.21689,0.06877c0.07947,-0.01937 0.1415,-0.08141 0.16088,-0.16088c0.01938,-0.07946 -0.00714,-0.16311 -0.06876,-0.21689l-0.592,-0.592v-0.785c-0.00009,-0.00601 -0.00042,-0.01201 -0.001,-0.018c0.31119,-0.05207 0.59313,-0.2147 0.794,-0.458c0.00486,0.00353 0.00986,0.00688 0.015,0.01l0.68,0.392l0.216,0.809c0.01844,0.07752 0.07752,0.13891 0.15427,0.1603c0.07676,0.02139 0.15908,-0.00061 0.21495,-0.05742c0.05586,-0.05682 0.07646,-0.1395 0.05378,-0.21588l-0.104,-0.387l0.49,0.283c0.10413,0.05534 0.23338,0.01829 0.29239,-0.08382c0.059,-0.1021 0.02656,-0.23259 -0.07339,-0.29518l-0.49,-0.283l0.387,-0.103c0.11681,-0.03148 0.18598,-0.15169 0.1545,-0.2685c-0.03148,-0.11681 -0.15169,-0.18598 -0.2685,-0.1545l-0.809,0.217l-0.679,-0.392c-0.0052,-0.00322 -0.01055,-0.00622 -0.016,-0.009c0.11023,-0.29539 0.11023,-0.62061 0,-0.916c0.00545,-0.00278 0.0108,-0.00578 0.016,-0.009l0.68,-0.392l0.808,0.217c0.11681,0.03148 0.23702,-0.03769 0.2685,-0.1545c0.03148,-0.11681 -0.03769,-0.23702 -0.1545,-0.2685l-0.387,-0.103l0.49,-0.283c0.10494,-0.06047 0.14098,-0.19456 0.0805,-0.2995c-0.06047,-0.10494 -0.19457,-0.14097 -0.2995,-0.0805l-0.49,0.284l0.104,-0.387c0.02268,-0.07638 0.00208,-0.15906 -0.05378,-0.21588c-0.05586,-0.05682 -0.13819,-0.07881 -0.21495,-0.05742c-0.07676,0.02139 -0.13584,0.08278 -0.15427,0.1603l-0.216,0.81l-0.68,0.391c-0.00513,0.00313 -0.01013,0.00646 -0.015,0.01c-0.20094,-0.24323 -0.48285,-0.40584 -0.794,-0.458c0.00025,-0.006 0.00025,-0.012 0,-0.018v-0.785l0.593,-0.592c0.0856,-0.0856 0.0856,-0.2244 0,-0.31c-0.0856,-0.0856 -0.2244,-0.0856 -0.31,0l-0.282,0.283v-0.565zM314.99982,187.00017c1.65686,0 3,-1.34314 3,-3c0,-1.65686 -1.34314,-3 -3,-3c-1.65686,0 -3,1.34314 -3,3c0,1.65686 1.34314,3 3,3zM314.53282,182.70617c-0.024,-0.212 0.192,-0.393 0.467,-0.393c0.275,0 0.491,0.181 0.467,0.393l-0.211,1.857h-0.512l-0.21,-1.857zM315.37782,185.31317c0,0.20711 -0.16789,0.375 -0.375,0.375c-0.20711,0 -0.375,-0.16789 -0.375,-0.375c0,-0.20711 0.16789,-0.375 0.375,-0.375c0.20711,0 0.375,0.16789 0.375,0.375z"/></g></g></svg>