<svg version="1.1" xmlns="http://www.w3.org/2000/svg" xmlns:xlink="http://www.w3.org/1999/xlink" width="657.65766" height="719.4985" viewBox="0,0,657.65766,719.4985"><defs><linearGradient x1="320" y1="-359.4985" x2="320" y2="0.5015" gradientUnits="userSpaceOnUse" id="color-1"><stop offset="0" stop-color="#000000" stop-opacity="0"/><stop offset="1" stop-color="#000000"/></linearGradient></defs><g transform="translate(8.82883,359.4985)"><g stroke-miterlimit="10"><path d="M-8.82883,360v-360h657.65766v360z" fill="#000000" stroke="#000000" stroke-width="0" stroke-linecap="butt"/><text transform="translate(11.5916,26.13609) scale(0.5,0.5)" font-size="40" xml:space="preserve" fill="#ffffff" stroke="none" stroke-width="1" stroke-linecap="butt" font-family="Sans Serif" font-weight="normal" text-anchor="start"><tspan x="0" dy="0">SCT错误检查</tspan></text><path d="M-8.82883,0.5015v-360h657.65766v360z" fill="url(#color-1)" stroke="#000000" stroke-width="0" stroke-linecap="butt"/><path d="M144.26105,32.03735v-24.65166h42.35581v24.65166z" fill="#009fff" stroke="#000000" stroke-width="0" stroke-linecap="butt"/><path d="M131.9295,19.71724c0,-6.81053 5.52102,-12.33155 12.33155,-12.33155c6.81053,0 12.33155,5.52102 12.33155,12.33155c0,6.81053 -5.52102,12.33155 -12.33155,12.33155c-6.81053,0 -12.33155,-5.52102 -12.33155,-12.33155z" fill="#009fff" stroke="#000000" stroke-width="0" stroke-linecap="butt"/><path d="M174.28531,19.71724c0,-6.81053 5.52102,-12.33155 12.33155,-12.33155c6.81053,0 12.33156,5.52102 12.33156,12.33155c0,6.81053 -5.52103,12.33155 -12.33156,12.33155c-6.81053,0 -12.33155,-5.52102 -12.33155,-12.33155z" fill="#009fff" stroke="#000000" stroke-width="0" stroke-linecap="butt"/><text transform="translate(146.07923,27.11774) scale(0.5,0.5)" font-size="40" xml:space="preserve" fill="#ffffff" stroke="none" stroke-width="1" stroke-linecap="butt" font-family="Sans Serif" font-weight="normal" text-anchor="start"><tspan x="0" dy="0">v1.1</tspan></text><text transform="translate(13.97117,131.20946) scale(0.5,0.5)" font-size="40" xml:space="preserve" fill="#ffffff" stroke="none" stroke-width="1" stroke-linecap="butt" font-family="Sans Serif" font-weight="normal" text-anchor="start"><tspan x="0" dy="0">多余的角色</tspan></text><text transform="translate(13.97117,160.20946) scale(0.5,0.5)" font-size="40" xml:space="preserve" fill="#ffffff" stroke="none" stroke-width="1" stroke-linecap="butt" font-family="Sans Serif" font-weight="normal" text-anchor="start"><tspan x="0" dy="0">缺失的角色</tspan></text><text transform="translate(13.97117,189.20946) scale(0.5,0.5)" font-size="40" xml:space="preserve" fill="#ffffff" stroke="none" stroke-width="1" stroke-linecap="butt" font-family="Sans Serif" font-weight="normal" text-anchor="start"><tspan x="0" dy="0">多余的扩展</tspan></text><text transform="translate(13.97117,218.20946) scale(0.5,0.5)" font-size="40" xml:space="preserve" fill="#ffffff" stroke="none" stroke-width="1" stroke-linecap="butt" font-family="Sans Serif" font-weight="normal" text-anchor="start"><tspan x="0" dy="0">缺失的扩展</tspan></text><path d="M17.44745,98.53522h605.10511" fill="none" stroke="#ffffff" stroke-width="2.5" stroke-linecap="round"/><path d="M622.55255,38.50793h-605.10511" fill="none" stroke="#ffffff" stroke-width="2.5" stroke-linecap="round"/><text transform="translate(220.30031,25.38499) scale(0.5,0.5)" font-size="40" xml:space="preserve" fill="#ff0000" stroke="none" stroke-width="1" stroke-linecap="butt" font-family="Sans Serif" font-weight="normal" text-anchor="start"><tspan x="0" dy="0">Tip:如果发现错误很可能是盗版Saychat</tspan></text></g></g></svg>