<svg version="1.1" xmlns="http://www.w3.org/2000/svg" xmlns:xlink="http://www.w3.org/1999/xlink" width="32.94017" height="32.94017" viewBox="0,0,32.94017,32.94017"><g transform="translate(-303.52991,-163.52991)"><g stroke="none" stroke-miterlimit="10"><path d="M303.52992,170.42238c0,-3.95489 3.61694,-6.89246 6.52148,-6.89246c3.53702,0 12.46485,0 18.96555,0c4.24375,0 7.45313,3.08678 7.45313,7.19191c0,6.32742 0,15.07416 0,18.6661c0,3.09939 -2.36961,7.08216 -6.45494,7.08216c-6.24108,0 -15.5543,0 -19.22836,0c-4.11514,0 -7.25687,-2.9942 -7.25687,-7.20598c0,-3.7252 0,-12.56479 0,-18.84174z" fill="#ffffff" stroke-width="NaN"/><path d="M323.86879,188.18309c0,0.62435 -0.66152,1.24112 -1.17781,1.23107c-0.85884,-0.01673 -3.5311,-0.06958 -5.18913,-0.1024c-0.80731,-0.01598 -1.37417,-0.69668 -1.37417,-1.1738c0,-1.66388 0,-7.14224 0,-7.14224h-2.65824c-0.33415,0 -0.63945,-0.18977 -0.78798,-0.48955c-0.14851,-0.29569 -0.11688,-0.65459 0.08389,-0.92276l6.53083,-8.64979c0.16504,-0.21727 0.42905,-0.34792 0.70409,-0.34792c0.27368,0 0.53495,0.12926 0.69998,0.34792l6.53364,8.64979c0.19941,0.26817 0.23517,0.62297 0.0839,0.92276c-0.14716,0.29979 -0.45382,0.48955 -0.788,0.48955h-2.66099c0,0 0,5.33529 0,7.18739z" fill="#009bff" stroke-width="1"/></g></g></svg>