<svg version="1.1" xmlns="http://www.w3.org/2000/svg" xmlns:xlink="http://www.w3.org/1999/xlink" width="150.20768" height="360.13043" viewBox="0,0,150.20768,360.13043"><defs><linearGradient x1="0" y1="180" x2="149" y2="180" gradientUnits="userSpaceOnUse" id="color-1"><stop offset="0" stop-color="#000000" stop-opacity="0.74902"/><stop offset="1" stop-color="#000000" stop-opacity="0.50196"/></linearGradient></defs><g transform="translate(1.20768,0)"><g stroke-miterlimit="10"><path d="M0,360v-360h149v360z" fill="url(#color-1)" stroke="#000000" stroke-width="0" stroke-linecap="butt"/><text transform="translate(8.93999,27.99797) scale(0.5,0.5)" font-size="40" xml:space="preserve" fill="#ffffff" stroke="none" stroke-width="1" stroke-linecap="butt" font-family="Sans Serif" font-weight="normal" text-anchor="start"><tspan x="0" dy="0">天气 2.0</tspan></text><text transform="translate(7.5,68.61538) scale(0.5,0.5)" font-size="40" xml:space="preserve" fill="#ffffff" stroke="none" stroke-width="1" stroke-linecap="butt" font-family="Sans Serif" font-weight="normal" text-anchor="start"><tspan x="0" dy="0">当前天气</tspan></text><path d="M-0.20768,81.77458h107.08767" fill="none" stroke="#ffffff" stroke-width="2" stroke-linecap="round"/><text transform="translate(7.5,109.26923) scale(0.5,0.5)" font-size="40" xml:space="preserve" fill="#ffffff" stroke="none" stroke-width="1" stroke-linecap="butt" font-family="Sans Serif" font-weight="normal" text-anchor="start"><tspan x="0" dy="0">24小时预报</tspan></text><path d="M-0.20768,121.32601h107.08767" fill="none" stroke="#ffffff" stroke-width="2" stroke-linecap="round"/><text transform="translate(7.5,147.88461) scale(0.5,0.5)" font-size="40" xml:space="preserve" fill="#ffffff" stroke="none" stroke-width="1" stroke-linecap="butt" font-family="Sans Serif" font-weight="normal" text-anchor="start"><tspan x="0" dy="0">30天预报</tspan></text><text transform="translate(7.5,188.26923) scale(0.5,0.5)" font-size="40" xml:space="preserve" fill="#ffffff" stroke="none" stroke-width="1" stroke-linecap="butt" font-family="Sans Serif" font-weight="normal" text-anchor="start"><tspan x="0" dy="0">预警信息</tspan></text><text transform="translate(7.5,228.42307) scale(0.5,0.5)" font-size="40" xml:space="preserve" fill="#ffffff" stroke="none" stroke-width="1" stroke-linecap="butt" font-family="Sans Serif" font-weight="normal" text-anchor="start"><tspan x="0" dy="0">设置</tspan></text><text transform="translate(7.5,267.65384) scale(0.5,0.5)" font-size="40" xml:space="preserve" fill="#ffffff" stroke="none" stroke-width="1" stroke-linecap="butt" font-family="Sans Serif" font-weight="normal" text-anchor="start"><tspan x="0" dy="0">关于天气</tspan></text><path d="M125.56945,30.64466c-0.13967,-0.13637 -0.34339,-0.18416 -0.52914,-0.12411c-0.44584,0.13718 -0.92272,0.2123 -1.41594,0.2123c-2.53628,0 -4.59405,-1.97448 -4.59405,-4.4095c0,-2.43502 2.05777,-4.4095 4.59241,-4.4095c0.1691,-0.00014 0.33808,0.00857 0.50627,0.02613c0.19258,0.02219 0.38149,-0.0647 0.48994,-0.22537c1.35062,-2.08716 3.75951,-3.47533 6.50646,-3.47533c2.76329,0 5.18361,1.40451 6.52933,3.51127c0.11485,0.17108 0.31952,0.25872 0.52261,0.22373c0.2466,-0.03919 0.49974,-0.06043 0.75614,-0.06043c2.53628,0 4.59405,1.97448 4.59405,4.4095c0,2.43502 -2.05614,4.4095 -4.59241,4.4095c-0.5716,0 -1.1187,-0.09962 -1.62498,-0.28254c-0.19329,-0.07208 -0.41087,-0.02486 -0.5569,0.12085c-1.4754,1.5223 -3.50789,2.37694 -5.62783,2.36644c-2.08423,0.01005 -4.08548,-0.81587 -5.55598,-2.29295zM137.10601,28.68161c0.50954,0.36582 1.14321,0.5814 1.82913,0.5814c1.69031,0 3.06052,-1.31632 3.06052,-2.93966c0,-1.62335 -1.37021,-2.93966 -3.06052,-2.93966c-0.47198,0 -0.91783,0.10288 -1.31632,0.28416c-0.29724,0.13718 -0.68755,0.01632 -0.81004,-0.27763c-0.90803,-2.15902 -3.11115,-3.67948 -5.68336,-3.67948c-2.53791,0 -4.7149,1.48126 -5.64416,3.59293c-0.11758,0.26783 -0.46054,0.38705 -0.74308,0.2809c-0.34622,-0.12902 -0.72185,-0.20088 -1.11544,-0.20088c-1.69031,0 -3.06215,1.31632 -3.06215,2.93966c0,1.62335 1.37185,2.93966 3.06379,2.93966c0.61406,0 1.1873,-0.17475 1.66745,-0.47361c0.25477,-0.16005 0.61406,-0.10941 0.78718,0.13064c1.17414,1.61271 3.05326,2.56108 5.04806,2.54772c2.04481,0.01369 3.96427,-0.98394 5.12808,-2.6653c0.17964,-0.26456 0.5863,-0.3103 0.84923,-0.12085zM125.13831,7.83122c-0.07487,-0.44228 0.20986,-0.86571 0.64773,-0.9632c0.43785,-0.09749 0.87535,0.16511 0.99521,0.59738l0.41809,1.87812c0.07474,0.29731 -0.01788,0.61177 -0.24186,0.82111c-0.22398,0.20933 -0.54398,0.28051 -0.83557,0.18586c-0.2916,-0.09465 -0.50879,-0.34018 -0.56714,-0.64116zM119.24167,11.43259c0.24404,-0.38326 0.748,-0.50403 1.13927,-0.27302l1.62498,1.03378c0.38729,0.25234 0.499,0.76956 0.25039,1.15926c-0.24859,0.3897 -0.76471,0.5064 -1.1568,0.26158l-1.62335,-1.03378c-0.37482,-0.25682 -0.47855,-0.76456 -0.2345,-1.14782zM117.82588,19.30163c-0.10057,-0.45458 0.18642,-0.90463 0.641,-1.0052l1.87812,-0.41809c0.45458,-0.10057 0.90463,0.18642 1.0052,0.641c0.10057,0.45458 -0.18642,0.90463 -0.641,1.0052l-1.87812,0.41809c-0.45458,0.10057 -0.90463,-0.18642 -1.0052,-0.641zM134.71134,15.46834c-0.04701,-0.42809 0.23634,-0.82275 0.657,-0.91509l1.87812,-0.41809c0.45458,-0.10101 0.90499,0.1856 1.00602,0.64019c0.10101,0.45458 -0.1856,0.90499 -0.64019,1.00602l-1.87812,0.41809c-0.0601,0.01295 -0.12142,0.01952 -0.18292,0.0196c-0.43066,0.00114 -0.79289,-0.32263 -0.83991,-0.75073zM131.46511,10.09966l1.03378,-1.62335c0.25682,-0.37482 0.76456,-0.47855 1.14782,-0.2345c0.38326,0.24404 0.50403,0.748 0.27302,1.13927l-1.03378,1.62335c-0.25,0.39212 -0.77039,0.50759 -1.1628,0.25803c-0.39212,-0.25 -0.50759,-0.77039 -0.25803,-1.1628zM124.1262,12.7581c1.52279,-1.40335 3.68056,-1.88362 5.6548,-1.25863c1.97424,0.62499 3.46253,2.25953 3.90028,4.28354c0.05374,0.2759 0.08704,0.55537 0.09962,0.83617c-0.56346,-0.19419 -1.14509,-0.33098 -1.73603,-0.40828c-0.0049,-0.0196 -0.00326,-0.04083 -0.00817,-0.06206c-0.51323,-2.17933 -2.68354,-3.54075 -4.86901,-3.05431c-2.18546,0.48645 -3.57341,2.63991 -3.11381,4.83117c0.08215,0.34642 0.21012,0.68034 0.38052,0.99295c-0.44758,0.34479 -0.94923,0.613 -1.48453,0.79371c-0.24171,-0.44748 -0.42462,-0.92599 -0.53894,-1.42083c-0.46204,-2.01862 0.19247,-4.13008 1.71527,-5.53343z" fill="#ffffff" stroke="none" stroke-width="1" stroke-linecap="butt"/><path d="M-0.20768,161.11538h107.08767" fill="none" stroke="#ffffff" stroke-width="2" stroke-linecap="round"/><path d="M-0.20768,201.5h107.08767" fill="none" stroke="#ffffff" stroke-width="2" stroke-linecap="round"/><path d="M0.29232,241.88461h107.08767" fill="none" stroke="#ffffff" stroke-width="2" stroke-linecap="round"/><path d="M0,282.21795h107.08767" fill="none" stroke="#ffffff" stroke-width="2" stroke-linecap="round"/><path d="M-0.20768,42.10792h107.08767" fill="none" stroke="#ffffff" stroke-width="2" stroke-linecap="round"/><text transform="translate(0,356.86818) scale(0.24338,0.26098)" font-size="40" xml:space="preserve" fill="#ffffff" stroke="none" stroke-width="1" stroke-linecap="butt" font-family="Sans Serif" font-weight="normal" text-anchor="start"><tspan x="0" dy="0">天气服务由和风天气驱动</tspan></text><text transform="translate(7.5,309.65384) scale(0.5,0.5)" font-size="40" xml:space="preserve" fill="#ff2f2f" stroke="none" stroke-width="1" stroke-linecap="butt" font-family="Sans Serif" font-weight="normal" text-anchor="start"><tspan x="0" dy="0">退出</tspan></text><path d="M0,324.21795h107.08767" fill="none" stroke="#ffffff" stroke-width="2" stroke-linecap="round"/></g></g></svg>