<svg version="1.1" xmlns="http://www.w3.org/2000/svg" xmlns:xlink="http://www.w3.org/1999/xlink" width="53" height="50.25" viewBox="0,0,53,50.25"><g transform="translate(-293.2,-155.73749)"><g stroke-miterlimit="10"><path d="M310.43495,175.79229c0.32879,-0.72109 0.72508,-1.42095 1.19034,-2.09072c4.20102,-6.04751 12.43485,-7.35191 18.39076,-2.91351c5.95591,4.4384 7.37856,12.93892 3.17755,18.98641c-4.20102,6.04751 -12.43485,7.35191 -18.39076,2.91351c-0.53367,-0.39769 -1.03095,-0.828 -1.49104,-1.28624" fill="none" stroke="#ffffff" stroke-width="6" stroke-linecap="butt"/><g fill="none" stroke="#ffffff" stroke-width="5.5" stroke-linecap="round"><path d="M309.64535,164.6785l-5.25277,17.63932"/><path d="M321.76989,176.04459l-17.26376,6.37968"/></g><path d="M307.3874,176.49254c0,-1.38071 1.11929,-2.5 2.5,-2.5c1.38071,0 2.5,1.11929 2.5,2.5c0,1.38071 -1.11929,2.5 -2.5,2.5c-1.38071,0 -2.5,-1.11929 -2.5,-2.5z" fill="#ffffff" stroke="none" stroke-width="0.5" stroke-linecap="butt"/><path d="M293.2,205.98749v-50.25h53v50.25z" fill-opacity="0.01176" fill="#ffffff" stroke="none" stroke-width="0" stroke-linecap="butt"/><path d="M309.41393,180.67518" fill="none" stroke="#000000" stroke-width="6" stroke-linecap="butt"/><path d="M309.41393,180.67518" fill="none" stroke="#000000" stroke-width="6" stroke-linecap="butt"/><path d="M309.41393,180.67518" fill="none" stroke="#000000" stroke-width="6" stroke-linecap="butt"/><path d="M338.91689,198.11722l-33.63556,-33.63556" fill="none" stroke="#ff0000" stroke-width="6" stroke-linecap="round"/><path d="M338.91689,164.48166l-33.63556,33.63556" fill="none" stroke="#ff0000" stroke-width="6" stroke-linecap="round"/></g></g></svg>