<svg version="1.1" xmlns="http://www.w3.org/2000/svg" xmlns:xlink="http://www.w3.org/1999/xlink" width="45.12667" height="20.7" viewBox="0,0,45.12667,20.7"><g transform="translate(-297.43667,-169.65)"><g stroke="#009bff" stroke-miterlimit="10"><path d="M298.18667,184.2c0,-2.97342 0,-6.41384 0,-8.2c0,-2.27408 2.90202,-5.6 5.6,-5.6c5.18252,0 23.38751,0 32.6,0c3.28505,0 5.42667,3.32592 5.42667,5.6c0,1.78616 0,5.22657 0,8.2c0,2.92613 -3.15755,5.4 -6.02667,5.4c-5.119,0 -22.10951,0 -31.4,0c-3.71591,0 -6.2,-2.47387 -6.2,-5.4z" fill="#ffffff" stroke-width="1.5"/><path d="M301.52752,183.15062c0,-2.23766 0,-5.02475 0,-6.32342c0,-1.36994 1.39733,-3.25092 3.16941,-3.25092c2.28936,0 5.20419,0 6.53961,0c1.36772,0 3.23601,1.44026 3.23601,3.25092c0,2.29146 0,5.17615 0,6.48556c0,1.32501 -1.46088,3.11098 -3.29005,3.11098c-2.27466,0 -5.11884,0 -6.43151,0c-1.36371,0 -3.22346,-1.45525 -3.22346,-3.27312z" fill="#009bff" stroke-width="1"/></g></g></svg>