<svg version="1.1" xmlns="http://www.w3.org/2000/svg" xmlns:xlink="http://www.w3.org/1999/xlink" width="555.13251" height="297.32902" viewBox="0,0,555.13251,297.32902"><g transform="translate(-8.4406,-5.99203)"><g stroke="none" stroke-miterlimit="10"><path d="M11.87447,60.19664c0,-3.03124 0,-6.23333 0,-8.13628c0,-3.17934 3.83187,-8.19682 8.2616,-8.19682c15.41926,0 104.81626,0 131.7943,0c4.86968,0 7.70562,3.99569 7.70562,8.19682c0,2.97172 0,6.04623 0,7.88202c0,3.12243 -2.93457,7.98407 -7.95988,7.98407c-27.34468,0 -116.59352,0 -131.7943,0c-4.30722,0 -8.00734,-3.71505 -8.00734,-7.72981z" fill="#555555" stroke-width="0"/><path d="M76.42689,303.32105v-6.59662h487.14622v6.59662z" fill="#000000" stroke-width="0"/><text transform="translate(8.60001,17.62896) scale(0.31882,0.31882)" font-size="40" xml:space="preserve" fill="#ffffff" stroke-width="1" font-family="&quot;WJH2&quot;, Sans Serif" font-weight="normal" text-anchor="start"><tspan x="0" dy="0">音乐2.0 For Saychat3</tspan></text></g></g></svg>