<svg version="1.1" xmlns="http://www.w3.org/2000/svg" xmlns:xlink="http://www.w3.org/1999/xlink" width="61.92771" height="29.32459" viewBox="0,0,61.92771,29.32459"><g transform="translate(-208.78614,-164.93772)"><g data-paper-data="{&quot;isPaintingLayer&quot;:true}" fill-rule="nonzero" stroke-linecap="butt" stroke-linejoin="miter" stroke-miterlimit="10" stroke-dasharray="" stroke-dashoffset="0" style="mix-blend-mode: normal"><g><g stroke-width="1.5"><path d="M228.34258,184.51967c0,0 0.81047,-1.24966 1.42555,-2.86891c0.2728,-0.71817 0.10302,-1.89322 0.92725,-2.4084c2.68263,-1.67676 4.16746,-0.08625 4.16746,-0.08625l-1.80804,7.21618z" fill="#8e6d4a" stroke="#1c1a1f"/><path d="M231.88072,181.54718c1.16559,-2.03609 3.76105,-2.74176 5.79714,-1.57617c2.03609,1.16559 2.74176,3.76105 1.57617,5.79714c-1.16559,2.03609 -3.76104,2.74176 -5.79714,1.57617c-2.03609,-1.16559 -2.74177,-3.76105 -1.57617,-5.79714z" fill="#dbac68" stroke="#181714"/></g><g stroke-width="1.5"><path d="M231.92818,178.0824c0,0 -3.09916,-4.25568 -1.759,-6.52887c0.1088,-0.18454 1.07144,-1.14215 1.07144,-1.14215l11.29478,2.87267l-1.80804,7.21618z" fill="#8e6d4a" stroke="#1c1a1f"/><path d="M239.55328,175.32728c1.16559,-2.03609 3.76105,-2.74176 5.79714,-1.57617c2.03609,1.16559 2.74176,3.76105 1.57617,5.79714c-1.16559,2.03609 -3.76104,2.74176 -5.79714,1.57617c-2.03609,-1.16559 -2.74176,-3.76105 -1.57616,-5.79714z" fill="#dbac68" stroke="#181714"/></g><g><path d="M231.68753,182.53046v-4.73684c0,0 11.3958,-0.93504 15.62926,-0.79214c4.07639,0.1376 11.68653,1.45778 11.68653,1.45778v3.26316c0,0 -7.55988,1.4498 -11.68165,1.59763c-4.1928,0.15037 -15.63414,-0.78959 -15.63414,-0.78959z" fill="#4d5365" stroke="#1e1b1a" stroke-width="1"/><path d="M249.6349,181.24872v-2.36843c0,0 17.61258,0 19.79876,0c0.43398,0 0.78019,0.319 0.78019,0.55831c0,0.23552 0,0.75438 0,1.17647c0,0.35012 -0.34621,0.63365 -0.78019,0.63365c-2.18618,0 -19.79876,0 -19.79876,0z" fill="#a4b6c4" stroke="#1e1b1a" stroke-width="1"/><path d="M238.21809,178.91144l2.80588,-0.03954l-0.14435,3.87773l-2.79925,-0.00921z" fill="#59585f" stroke="#1e1b1a" stroke-width="0.75"/><path d="M241.31601,182.85037v-1.41176h2.82353v1.58824z" fill="#d3e0d5" stroke="#1e1b1a" stroke-width="0.5"/><path d="M231.6349,181.36018v-2.36842l10.79232,-0.23975l4.32424,-0.45466l3.1466,0.0102v3.68421l-3.25081,-0.03025l-4.17392,-0.54776z" fill="#7a778c" stroke="#1e1b1a" stroke-width="0.75"/><path d="M268.28198,180.95461v-1.83901h1.75542v1.83901z" fill="#a4b6c4" stroke="#1e1b1a" stroke-width="0.5"/><path d="M260.34079,181.01344v-1.83902h1.57895v1.83902z" fill="#a4b6c4" stroke="#1e1b1a" stroke-width="0.5"/><path d="M232.0262,180.15294v-0.7622l10.40693,-0.23119l4.16982,-0.43842l3.03424,0.00984v0.73875z" fill="#9996aa" stroke="none" stroke-width="0"/><path d="M248.39853,178.29734l1.49954,0.0102v3.68421l-1.54493,-0.03025z" fill="none" stroke="#1e1b1a" stroke-width="0.75"/><path d="M240.25607,178.80024l2.17114,-0.04823l0.04611,2.66174l-2.21654,-0.01096z" fill="#272e2d" stroke="#1e1b1a" stroke-width="0.75"/><path d="M242.42722,178.86267l1.30863,-0.17088l-0.00992,2.87862l-1.25259,-0.15051z" fill="#414142" stroke="#1e1b1a" stroke-width="0.75"/><path d="M237.90299,178.8525l1.17981,-0.02621l-0.0607,2.57039l-1.17702,-0.00611z" fill="#414142" stroke="#1e1b1a" stroke-width="0.75"/><path d="M242.08072,180.1739c0,0.40609 -0.3292,0.73529 -0.73529,0.73529c-0.40609,0 -0.73529,-0.3292 -0.73529,-0.73529c0,-0.40609 0.3292,-0.73529 0.73529,-0.73529c0.40609,0 0.73529,0.3292 0.73529,0.73529z" fill="#d3e0d5" stroke="none" stroke-width="0"/><path d="M240.84542,183.90918c0,0.61726 -0.50038,1.11765 -1.11764,1.11765c-0.61726,0 -1.11765,-0.50039 -1.11765,-1.11765c0,-0.61726 0.50039,-1.11764 1.11765,-1.11764c0.61726,0 1.11764,0.50038 1.11764,1.11764z" fill="#d3e0d5" stroke="#1e1b1a" stroke-width="0.5"/></g></g><g><path d="M211.59865,179.60006c0,-6.54447 5.30532,-11.84979 11.84979,-11.84979c6.54447,0 11.8498,5.30532 11.8498,11.84979c0,6.54447 -5.30532,11.8498 -11.8498,11.8498c-6.54447,0 -11.84979,-5.30532 -11.84979,-11.8498z" fill="#fcc875" stroke="#191916" stroke-width="1.5"/><path d="M209.78614,179.60001c0,-7.54549 6.1168,-13.66229 13.66229,-13.66229c7.54549,0 4.7873,6.1168 4.7873,13.66229c0,7.54549 2.7582,13.6623 -4.7873,13.6623c-7.54549,0 -13.66229,-6.1168 -13.66229,-13.6623z" fill="#558850" stroke="#191916" stroke-width="2"/><path d="M217.96284,176.3143c0,1.49906 -1.19924,2.71429 -2.67857,2.71429c-1.47933,0 -2.67857,-1.21523 -2.67857,-2.71429c0,-1.49906 1.19924,-2.71429 2.67857,-2.71429c1.47933,0 2.67857,1.21523 2.67857,2.71429z" fill="#715727" stroke="none" stroke-width="0"/><path d="M221.92899,174.02858c-3.0174,0.70027 -3.13608,-0.74848 -3.72253,-2.29682c-0.45304,-1.19611 -1.75866,-2.49944 -1.66929,-2.69951c0.10269,-0.22991 0.80478,-0.69632 2.27224,-1.40062c1.37346,-0.65918 3.12155,-0.82581 4.99615,-0.69391c1.13893,0.08014 0.16202,1.5095 0.05875,2.67257c-0.17288,1.94698 -0.34352,4.04886 -1.93532,4.41829z" fill="#715727" stroke="none" stroke-width="0"/><path d="M215.78473,185.72278c-0.29016,0.27951 -1.53781,2.53601 -2.04665,1.98805c-1.27875,-1.37707 -2.24566,-3.27148 -2.59398,-4.75458c-0.37216,-1.5846 2.5506,-1.35252 2.66521,-1.57672c0.09973,-0.1951 3.38314,2.98719 1.97542,4.34326z" data-paper-data="{&quot;index&quot;:null}" fill="#715727" stroke="none" stroke-width="0"/><path d="M214.06979,179.60001c0,-5.17969 4.19895,-9.37864 9.37864,-9.37864c5.17969,0 9.37864,4.19895 9.37864,9.37864c0,5.17969 -4.19895,9.37864 -9.37864,9.37864c-5.17969,0 -9.37864,-4.19895 -9.37864,-9.37864z" fill="#5eb057" stroke="#191916" stroke-width="0.5"/><path d="M216.07626,179.60001c0,-2.67844 2.01731,-4.84974 4.50578,-4.84974c2.48847,0 4.50578,2.1713 4.50578,4.84974c0,2.67844 -2.01729,4.84975 -4.50577,4.84975c-2.48847,0 -4.50578,-2.1713 -4.50578,-4.84975z" fill="#a2d99d" stroke="none" stroke-width="0"/><path d="M223.21912,185.99092c1.80263,0.18947 2.58541,-1.31539 3.28574,-0.94306c1.00786,0.53582 1.23102,2.44538 0.20048,2.98711c-0.61324,0.32236 -1.01416,0.81138 -3.37156,0.74083c-5.17737,-0.15496 -2.44665,-3.02999 -0.11466,-2.78487z" fill="#8b6b2f" stroke="#191916" stroke-width="0"/><path d="M229.8812,179.53176c-0.19584,-1.21753 -0.27825,-0.75072 -0.07611,-1.26746c0.29091,-0.74365 1.59436,-1.72199 2.31178,-1.12108c0.42691,0.35758 0.47994,1.85949 0.47562,2.68139c-0.01532,2.91096 -2.45793,1.28224 -2.71128,-0.29284z" fill="#8b6b2f" stroke="#191916" stroke-width="0"/><path d="M230.84834,181.52027c0.29944,-1.02534 0.09494,-0.66988 0.38448,-1.03681c0.4167,-0.52806 1.03833,-1.39206 1.24407,-0.73752c0.12243,0.38949 0.28716,0.64119 -0.00168,2.00072c-0.63433,2.98583 -2.01426,1.10004 -1.62688,-0.22639z" fill="#8b6b2f" stroke="#191916" stroke-width="0"/><path d="M218.68792,171.76889c1.08359,-0.71445 2.39735,-1.44728 4.83743,-1.32225c1.39397,0.07143 -1.0624,2.95774 -2.07692,3.22432c-2.96869,0.78007 -3.94549,-1.12076 -2.76051,-1.90207z" fill="#8b6b2f" stroke="none" stroke-width="0"/><path d="M229.24855,175.38571c0,0.86788 -0.73553,1.57143 -1.64286,1.57143c-0.90732,0 -1.64286,-0.70355 -1.64286,-1.57143c0,-0.86788 0.73553,-1.57143 1.64286,-1.57143c0.90732,0 1.64286,0.70355 1.64286,1.57143z" fill="#715727" stroke="none" stroke-width="0"/><path d="M228.17712,173.74287c0,0.63118 -0.46371,1.14286 -1.03571,1.14286c-0.57201,0 -1.03571,-0.51167 -1.03571,-1.14286c0,-0.63118 0.46371,-1.14286 1.03571,-1.14286c0.57201,0 1.03571,0.51167 1.03571,1.14286z" fill="#715727" stroke="none" stroke-width="0"/></g></g></g></svg>