<svg version="1.1" xmlns="http://www.w3.org/2000/svg" xmlns:xlink="http://www.w3.org/1999/xlink" width="33.96522" height="18.49191" viewBox="0,0,33.96522,18.49191"><g transform="translate(-239.58333,-170.21668)"><g data-paper-data="{&quot;isPaintingLayer&quot;:true}" fill-rule="nonzero" stroke-linecap="butt" stroke-linejoin="miter" stroke-miterlimit="10" stroke-dasharray="" stroke-dashoffset="0" style="mix-blend-mode: normal"><g stroke-width="1.5"><path d="M240.50287,184.39797l2.09193,-7.7121l8.51529,2.91375l-1.80804,7.21618z" fill="#8e6d4a" stroke="#1c1a1f"/><path d="M248.12797,181.59937c1.16559,-2.03609 3.76105,-2.74176 5.79714,-1.57617c2.03609,1.16559 2.74176,3.76105 1.57617,5.79714c-1.16559,2.03609 -3.76104,2.74176 -5.79714,1.57617c-2.03609,-1.16559 -2.74177,-3.76105 -1.57617,-5.79714z" fill="#dbac68" stroke="#181714"/></g><g stroke-width="1.5"><path d="M248.47978,178.5259l-0.19378,-7.35496l10.801,2.55661l-1.80804,7.21618z" fill="#8e6d4a" stroke="#1c1a1f"/><path d="M256.10488,175.7273c1.16559,-2.03609 3.76105,-2.74176 5.79714,-1.57617c2.03609,1.16559 2.74176,3.76105 1.57617,5.79714c-1.16559,2.03609 -3.76104,2.74176 -5.79714,1.57617c-2.03609,-1.16559 -2.74176,-3.76105 -1.57616,-5.79714z" fill="#dbac68" stroke="#181714"/></g><path d="M252.54153,183.75606l-0.25033,-6.67821c0,0 8.19758,-0.03106 10.15636,-0.03848c0.79732,-0.00302 1.4282,0.74307 1.74946,1.66029c0.32126,0.91722 0.51211,2.2016 0.05033,3.47821c-0.46178,1.27661 -1.07495,1.53665 -1.8654,1.53964c-1.9537,0.0074 -9.84042,0.03854 -9.84042,0.03854z" fill="#ce9252" stroke="#1e1b1a" stroke-width="1"/><path d="M249.51522,182.16903v-3.53333c0,0 21.22095,0 22.6,0c0.46526,0 0.93333,0.43349 0.93333,0.73333c0,0.38649 0,1.44104 0,2.13333c0,0.42144 -0.26808,0.66667 -0.73333,0.66667c-1.37905,0 -22.8,0 -22.8,0z" fill="#8b95ac" stroke="#1e1b1a" stroke-width="1"/><path d="M267.38189,181.6357c0,-0.93227 0,-2.34267 0,-2.8c0,-0.2848 0.46324,-0.6 0.73333,-0.6c0.21127,0 0.46678,0 0.8,0c0.32673,0 0.73333,0.35594 0.73333,0.66667c0,0.46509 0,1.82457 0,2.73333c0,0.50214 -0.44432,0.86667 -0.73333,0.86667c-0.19712,0 -0.4161,0 -0.73333,0c-0.35533,0 -0.8,-0.36377 -0.8,-0.86667z" fill="#8b95ac" stroke="#1e1b1a" stroke-width="1"/><path d="M270.98189,180.90236v-0.86667c0,0 1.30012,0 1.56298,0c0.08868,0 0.1779,0.10633 0.1779,0.17987c0,0.0948 0,0.35346 0,0.52327c0,0.10337 -0.0511,0.16352 -0.13978,0.16352c-0.26286,0 -1.6011,0 -1.6011,0z" fill="#8b95ac" stroke="#1e1b1a" stroke-width="0.5"/><path d="M264.04856,180.45834v-0.05664c0,0 2.20914,0 2.65579,0c0.15068,0 0.30228,0.00695 0.30228,0.01176c0,0.0062 0,0.0231 0,0.0342c0,0.00676 -0.08683,0.01069 -0.23751,0.01069c-0.44665,0 -2.72056,0 -2.72056,0z" fill="#8b95ac" stroke="#1e1b1a" stroke-width="0.5"/></g></g></svg>