<svg version="1.1" xmlns="http://www.w3.org/2000/svg" xmlns:xlink="http://www.w3.org/1999/xlink" width="38.63313" height="18.13897" viewBox="0,0,38.63313,18.13897"><g transform="translate(-239.58333,-170.21668)"><g data-paper-data="{&quot;isPaintingLayer&quot;:true}" fill-rule="nonzero" stroke-linejoin="miter" stroke-miterlimit="10" stroke-dasharray="" stroke-dashoffset="0" style="mix-blend-mode: normal"><g stroke-width="1.5" stroke-linecap="butt"><path d="M240.50288,184.04504l2.09193,-7.7121l8.51529,2.91375l-1.80804,7.21618z" fill="#8e6d4a" stroke="#1c1a1f"/><path d="M248.12798,181.24644c1.16559,-2.03609 3.76105,-2.74176 5.79714,-1.57617c2.03609,1.16559 2.74176,3.76105 1.57617,5.79714c-1.16559,2.03609 -3.76104,2.74176 -5.79714,1.57617c-2.03609,-1.16559 -2.74177,-3.76105 -1.57617,-5.79714z" fill="#dbac68" stroke="#181714"/></g><g stroke-width="1.5" stroke-linecap="butt"><path d="M248.47979,178.52591l-0.19378,-7.35496l10.801,2.55661l-1.80804,7.21618z" fill="#8e6d4a" stroke="#1c1a1f"/><path d="M256.10489,175.72731c1.16559,-2.03609 3.76105,-2.74176 5.79714,-1.57617c2.03609,1.16559 2.74176,3.76105 1.57617,5.79714c-1.16559,2.03609 -3.76104,2.74176 -5.79714,1.57617c-2.03609,-1.16559 -2.74176,-3.76105 -1.57616,-5.79714z" fill="#dbac68" stroke="#181714"/></g><g stroke="#1e1b1a"><path d="M252.29062,183.11555v-5.18039c0,0 8.56539,0 9.1723,0c0.20476,0 1.18457,0.63557 1.18457,1.07518c0,0.56665 0,2.11278 0,3.12778c0,0.6179 -0.8918,0.97744 -1.09655,0.97744c-0.60691,0 -9.26031,0 -9.26031,0z" fill="#8b95ac" stroke-width="1" stroke-linecap="butt"/><g stroke-linecap="butt"><path d="M268.24194,181.32651v-1.53334c0,0 8.85316,0 9.06366,0c0.07102,0 0.41086,0.18812 0.41086,0.31824c0,0.16772 0,0.62536 0,0.92579c0,0.18289 -0.30931,0.28931 -0.38033,0.28931c-0.2105,0 -9.09419,0 -9.09419,0z" fill="#4d4c5a" stroke-width="1"/><path d="M264.55229,181.46444v-1.77472c0,0 10.01313,0 10.25121,0c0.08033,0 0.46469,0.21774 0.46469,0.36835c0,0.19412 0,0.7238 0,1.07153c0,0.21168 -0.34984,0.33486 -0.43016,0.33486c-0.23808,0 -10.28573,-0.00001 -10.28573,-0.00001z" fill="#8b95ac" stroke-width="0.75"/><path d="M274.13849,181.46444v-1.77472c0,0 0.4614,0 0.69948,0c0.08033,0 0.46469,0.21774 0.46469,0.36835c0,0.19412 0,0.7238 0,1.07153c0,0.21168 -0.34984,0.33486 -0.43016,0.33486c-0.23808,0 -0.73401,-0.00001 -0.73401,-0.00001z" fill="#4d4c5a" stroke-width="0.75"/><path d="M271.44611,181.55096c0,-0.56731 0,-1.56019 0,-1.89655c0,-0.21925 0.19537,-0.4787 0.41802,-0.4787c0.19786,0 0.41726,0 0.54025,0c0.18102,0 0.45958,0.25946 0.45958,0.4787c0,0.33637 0,1.32924 0,1.89655c0,0.24434 -0.27855,0.40974 -0.45958,0.40974c-0.12299,0 -0.3424,0 -0.54025,0c-0.22265,0 -0.41802,-0.1654 -0.41802,-0.40974z" fill="#8b95ac" stroke-width="0.5"/></g><path d="M258.55159,181.51647v-1.96552c0,0 -0.11771,-0.44828 0.48275,-0.44828c0.57173,0 0.44828,0.44828 0.44828,0.44828v1.96552c0,0 0.05045,0.53637 -0.51724,0.51724c-0.36054,-0.01215 -0.41379,-0.51724 -0.41379,-0.51724z" fill="none" stroke-width="0.75" stroke-linecap="butt"/><path d="M256.724,181.51647v-1.96552c0,0 -0.11771,-0.44828 0.48275,-0.44828c0.57173,0 0.44828,0.44828 0.44828,0.44828v1.96552c0,0 0.05045,0.53637 -0.51724,0.51724c-0.36054,-0.01215 -0.41379,-0.51724 -0.41379,-0.51724z" fill="none" stroke-width="0.75" stroke-linecap="butt"/><path d="M254.86193,181.51647v-1.96552c0,0 -0.11772,-0.44828 0.48275,-0.44828c0.57173,0 0.44827,0.44828 0.44827,0.44828v1.96552c0,0 0.05045,0.53637 -0.51724,0.51724c-0.36053,-0.01215 -0.41379,-0.51724 -0.41379,-0.51724z" fill="none" stroke-width="0.75" stroke-linecap="butt"/><g><path d="M261.59082,183.11555c-0.04604,-0.00124 -0.66672,-0.53085 -0.75473,-1.21089c-0.13636,-1.05365 0.04277,-2.48819 0.04277,-3.03727c0,-0.42323 0.67564,-0.9326 0.78093,-0.93223c5.42138,0.01926 7.76659,0.53212 7.87005,1.07518c0.10604,0.55664 -0.05358,2.11419 0,3.12778c0.03449,0.65239 -2.29814,1.12932 -7.93901,0.97743z" fill="#ce9252" stroke-width="1" stroke-linecap="butt"/><g stroke-width="0.5"><path d="M261.01476,180.62165v-0.00626c0,0 6.71171,0 7.18728,0c0.16044,0 0.92822,0.00077 0.92822,0.0013c0,0.00069 0,0.00256 0,0.00378c0,0.00074 -0.6988,0.00118 -0.85924,0.00118c-0.47557,0 -7.25624,0 -7.25624,0z" fill="#8b95ac" stroke-linecap="butt"/><path d="M266.27572,182.16302l1.34483,-0.15517" fill="none" stroke-linecap="round"/><path d="M263.03434,182.28156l1.34483,-0.01293" fill="none" stroke-linecap="round"/><path d="M267.68952,179.17811l-1.34483,-0.15517" data-paper-data="{&quot;index&quot;:null}" fill="none" stroke-linecap="round"/><path d="M264.44814,178.91733l-1.34483,-0.01293" data-paper-data="{&quot;index&quot;:null}" fill="none" stroke-linecap="round"/></g></g></g></g></g></svg>