<svg version="1.1" xmlns="http://www.w3.org/2000/svg" xmlns:xlink="http://www.w3.org/1999/xlink" width="53" height="50.25" viewBox="0,0,53,50.25"><g transform="translate(-293.19999,-155.73749)"><g stroke-width="0" stroke-miterlimit="10"><path d="M293.2,205.98749v-50.25h53v50.25z" fill-opacity="0.01176" fill="#ffffff" stroke="none"/><path d="M323.80435,193.11249c0,-6.41614 0,-22.14209 0,-25.875c0,-1.55185 1.44568,-3.09304 2.45,-3.09304c0.70992,0 2.01542,0 3.25,0c1.55401,0 2.99565,1.47055 2.99565,2.96804c0,3.64231 0,19.14989 0,25.75c0,1.84429 -1.93059,2.99306 -3.12065,2.99306c-0.63101,0 -1.63875,0 -2.625,0c-1.49984,0 -2.95,-1.0458 -2.95,-2.74306z" fill="#000000" stroke="#000000"/><path d="M307.5,193.11249c0,-6.41614 0,-22.14209 0,-25.875c0,-1.55185 1.44568,-3.09304 2.45,-3.09304c0.70992,0 2.01542,0 3.25,0c1.55401,0 2.99565,1.47055 2.99565,2.96804c0,3.64231 0,19.14989 0,25.75c0,1.84429 -1.93059,2.99306 -3.12065,2.99306c-0.63101,0 -1.63875,0 -2.625,0c-1.49984,0 -2.95,-1.0458 -2.95,-2.74306z" fill="#000000" stroke="#000000"/></g></g></svg>