<svg version="1.1" xmlns="http://www.w3.org/2000/svg" xmlns:xlink="http://www.w3.org/1999/xlink" width="61" height="52.66667" viewBox="0,0,61,52.66667"><g transform="translate(-211.91667,-159.25)"><g data-paper-data="{&quot;isPaintingLayer&quot;:true}" fill-rule="nonzero" stroke="none" stroke-width="0" stroke-linecap="butt" stroke-linejoin="miter" stroke-miterlimit="10" stroke-dasharray="" stroke-dashoffset="0" style="mix-blend-mode: normal"><path d="M224.08333,204.91667c-4.14214,0 -7.5,-3.20863 -7.5,-7.16667c0,-3.95804 3.35786,-7.16667 7.5,-7.16667c4.14214,0 7.5,3.20863 7.5,7.16667c0,3.95804 -3.35786,7.16667 -7.5,7.16667z" fill="#fcb400"/><path d="M219.41667,194.58333c-4.14213,0 -7.5,-3.20862 -7.5,-7.16666c0,-3.95804 3.35787,-7.16666 7.5,-7.16666c4.14213,0 7.5,3.20862 7.5,7.16666c0,3.95804 -3.35787,7.16666 -7.5,7.16666z" fill="#fcb400"/><path d="M226.75,183.91666c-4.14213,0 -7.5,-3.20862 -7.5,-7.16666c0,-3.95804 3.35787,-7.16666 7.5,-7.16666c4.14213,0 7.5,3.20862 7.5,7.16666c0,3.95804 -3.35787,7.16666 -7.5,7.16666z" fill="#fcb400"/><path d="M241.91667,187.91666c-8.28427,0 -15,-6.41725 -15,-14.33333c0,-7.91608 6.71573,-14.33333 15,-14.33333c8.28427,0 15,6.41725 15,14.33333c0,7.91608 -6.71573,14.33333 -15,14.33333z" fill="#484855"/><path d="M260.99807,189.25c-6.58246,0 -11.9186,-5.59644 -11.9186,-12.5c0,-6.90356 5.33614,-12.5 11.9186,-12.5c6.58246,0 11.9186,5.59644 11.9186,12.5c0,6.90356 -5.33614,12.5 -11.9186,12.5z" fill="#484855"/><path d="M259.33139,207.91667c-6.58245,0 -11.9186,-5.59644 -11.9186,-12.5c0,-6.90356 5.33614,-12.5 11.9186,-12.5c6.58247,0 11.91861,5.59644 11.91861,12.5c0,6.90356 -5.33615,12.5 -11.91861,12.5z" fill="#484855"/><path d="M238.99806,211.91667c-6.58246,0 -11.9186,-5.59644 -11.9186,-12.5c0,-6.90356 5.33614,-12.49999 11.9186,-12.49999c6.58247,0 11.91861,5.59643 11.91861,12.49999c0,6.90356 -5.33615,12.5 -11.91861,12.5z" fill="#484855"/><path d="M248.99806,210.58333c-6.58246,0 -11.9186,-5.59644 -11.9186,-12.5c0,-6.90356 5.33614,-12.49999 11.9186,-12.49999c6.58246,0 11.91861,5.59643 11.91861,12.49999c0,6.90356 -5.33615,12.5 -11.91861,12.5z" fill="#484855"/><path d="M237.3314,200.91666c-6.58246,0 -11.9186,-5.59644 -11.9186,-12.5c0,-6.90356 5.33614,-12.49999 11.9186,-12.49999c6.58246,0 11.9186,5.59643 11.9186,12.49999c0,6.90356 -5.33614,12.5 -11.9186,12.5z" fill="#484855"/><path d="M249.33141,198.91667c-6.58246,0 -11.91861,-5.59644 -11.91861,-12.5c0,-6.90356 5.33615,-12.49999 11.91861,-12.49999c6.58246,0 11.9186,5.59643 11.9186,12.49999c0,6.90356 -5.33614,12.5 -11.9186,12.5z" fill="#484855"/></g></g></svg>