<svg version="1.1" xmlns="http://www.w3.org/2000/svg" xmlns:xlink="http://www.w3.org/1999/xlink" width="24.29853" height="17.48106" viewBox="0,0,24.29853,17.48106"><g transform="translate(-239.29678,-171.6442)"><g data-paper-data="{&quot;isPaintingLayer&quot;:true}" fill-rule="nonzero" stroke-linecap="butt" stroke-linejoin="miter" stroke-miterlimit="10" stroke-dasharray="" stroke-dashoffset="0" style="mix-blend-mode: normal"><g data-paper-data="{&quot;index&quot;:null}" stroke-width="1.5"><path d="M248.42706,173.53699l1.80804,7.21618l-7.68196,2.91375l-2.09193,-7.7121z" fill="#8e6d4a" stroke="#1c1a1f"/><path d="M248.82915,172.95628c2.0361,-1.16559 4.63155,-0.45992 5.79714,1.57617c1.16559,2.03609 0.45992,4.63155 -1.57617,5.79714c-2.03609,1.16559 -4.63155,0.45992 -5.79714,-1.57617c-1.1656,-2.03609 -0.45992,-4.63155 1.57617,-5.79714z" fill="#dbac68" stroke="#181714"/></g><g stroke-width="1.5"><path d="M240.2112,184.81464l2.09193,-7.7121l7.68196,2.91375l-1.80804,7.21618z" fill="#8e6d4a" stroke="#1c1a1f"/><path d="M247.00297,182.01604c1.16559,-2.03609 3.76105,-2.74176 5.79714,-1.57617c2.03609,1.16559 2.74176,3.76105 1.57617,5.79714c-1.16559,2.03609 -3.76104,2.74176 -5.79714,1.57617c-2.03609,-1.16559 -2.74177,-3.76105 -1.57617,-5.79714z" fill="#dbac68" stroke="#181714"/></g><path d="M246.70761,182.84371v-4.60771c0,0 13.20698,0 15.36241,0c0.73118,0 1.02529,0.58657 1.02529,1.00972c0,0.506 0,1.71509 0,2.61193c0,0.5647 -0.59867,0.98607 -1.22242,0.98607c-2.03492,0 -15.16529,0 -15.16529,0z" fill="#cecece" stroke="#1e1b1a" stroke-width="1"/><path d="M260.28184,180.92529v-0.77654c0,0 1.94529,0 2.26278,0c0.10771,0 0.15101,0.09886 0.15101,0.17016c0,0.08527 0,0.28905 0,0.4402c0,0.09517 -0.08819,0.16619 -0.18006,0.16619c-0.29972,0 -2.23374,0 -2.23374,0z" fill="#cecece" stroke="#1e1b1a" stroke-width="0.5"/><path d="M254.30719,182.57735c0,0 0,-1.03491 0,-1.40219c0,-0.2059 0.27763,-0.61345 0.67198,-0.61345c0.77945,0 2.01492,0 2.46395,0c0.3233,0 0.71679,0.3112 0.71679,0.56964c0,0.37151 0,1.44601 0,1.44601z" fill="#868686" stroke="#1e1b1a" stroke-width="0.5"/></g></g></svg>