<svg version="1.1" xmlns="http://www.w3.org/2000/svg" xmlns:xlink="http://www.w3.org/1999/xlink" width="88.44166" height="21.1867" viewBox="0,0,88.44166,21.1867"><g transform="translate(-195.77917,-169.40665)"><g data-paper-data="{&quot;isPaintingLayer&quot;:true}" fill-rule="nonzero" stroke="none" stroke-linecap="butt" stroke-linejoin="miter" stroke-miterlimit="10" stroke-dasharray="" stroke-dashoffset="0" style="mix-blend-mode: normal"><path d="M195.77917,187.75c0,-4.61161 0,-13.45125 0,-15.875c0,-1.20719 1.59527,-2.46835 3.59583,-2.46835c8.86115,0 66.07967,0 81.5,0c2.13861,0 3.34583,1.33457 3.34583,2.59335c0,2.52088 0,11.67166 0,16.125c0,1.501 -1.20722,2.46835 -3.34583,2.46835c-15.42033,0 -72.63885,0 -81.5,0c-2.00057,0 -3.59583,-1.1298 -3.59583,-2.84335z" fill="#191916" stroke-width="NaN"/><path d="M199.44583,184.125c0,-1.3835 0,-5.22623 0,-7.875c0,-1.55018 0.86787,-2.69142 2.42917,-2.69142c13.1256,0 68.63416,0 76.125,0c1.45144,0 2.55417,1.26461 2.55417,2.31642c0,1.43714 0,5.36003 0,8c0,1.48662 -1.10273,2.56642 -2.55417,2.56642c-7.33614,0 -61.33135,0 -76.125,0c-2.10878,0 -2.42917,-1.35781 -2.42917,-2.31642z" fill="#294b29" stroke-width="NaN"/><path d="M199.44583,184.125c0,-1.3835 0,-5.22623 0,-7.875c0,-1.55018 0.86787,-2.69142 2.42917,-2.69142c13.1256,0 48.50916,0 56,0c1.45144,0 2.55417,1.26461 2.55417,2.31642c0,1.43714 0,5.36003 0,8c0,1.48662 -1.10273,2.56642 -2.55417,2.56642c-7.33614,0 -41.20635,0 -56,0c-2.10878,0 -2.42917,-1.35781 -2.42917,-2.31642z" fill="#3bff3c" stroke-width="NaN"/></g></g></svg>