<svg version="1.1" xmlns="http://www.w3.org/2000/svg" xmlns:xlink="http://www.w3.org/1999/xlink" width="30.3621" height="31.18664" viewBox="0,0,30.3621,31.18664"><g transform="translate(-221.94395,-164.40668)"><g data-paper-data="{&quot;isPaintingLayer&quot;:true}" fill-rule="nonzero" stroke-linecap="butt" stroke-linejoin="miter" stroke-miterlimit="10" stroke-dasharray="" stroke-dashoffset="0" style="mix-blend-mode: normal"><g><path d="M227.85646,180.0802c0,-6.54447 5.30532,-11.84979 11.84979,-11.84979c6.54447,0 11.8498,5.30532 11.8498,11.84979c0,6.54447 -5.30532,11.8498 -11.8498,11.8498c-6.54447,0 -11.84979,-5.30532 -11.84979,-11.8498z" fill="#fcc875" stroke="#191916" stroke-width="1.5"/><path d="M222.94395,180.08015c0,-2.2774 7.02792,-4.42465 6.89567,-6.31285c-0.27332,-3.9026 -6.54928,-6.6986 -1.99098,-7.2499c0.54334,-0.06572 5.09652,-2.39953 11.85759,-0.09954c7.14347,2.43008 4.7873,6.1168 4.7873,13.66229c0,7.54549 2.49708,11.59445 -4.7873,13.5623c-6.09289,2.1 -11.17967,0.0739 -11.65906,0.023c-4.76492,-0.50586 1.56534,-3.46121 1.84488,-7.58288c0.12288,-1.81178 -6.9481,-3.84892 -6.9481,-6.00243z" fill="#319aea" stroke="#191916" stroke-width="2"/><path d="M233.91507,180.38715c0,-4.69158 0.84218,-11.11787 4.69638,-11.11787c3.85421,0 9.26089,6.42629 9.26089,11.11787c0,4.69158 -6.29973,11.00383 -10.15394,11.00383c-3.85421,0 -3.80333,-6.31225 -3.80333,-11.00383z" fill="#4db1ff" stroke="#191916" stroke-width="0.5"/><path d="M235.04151,180.38717c0,-2.4437 0.31142,-6.47751 2.28684,-6.47751c1.97541,0 4.86678,4.03381 4.86678,6.47751c0,2.4437 -2.69289,7.16179 -4.66831,7.16179c-1.97541,0 -2.4853,-4.71808 -2.4853,-7.16179z" fill="#c0e4ff" stroke="none" stroke-width="0"/></g></g></g></svg>