<svg version="1.1" xmlns="http://www.w3.org/2000/svg" xmlns:xlink="http://www.w3.org/1999/xlink" width="464.55733" height="105.76803" viewBox="0,0,464.55733,105.76803"><g transform="translate(-7.72134,-172.11597)"><g stroke-miterlimit="10"><path d="M23.13281,179.2254c16.91453,-0.01219 402.35144,-0.08703 433.38256,-0.10942c5.53494,-0.00399 8.75545,3.06843 8.75573,8.37196c0.00152,30.49195 0.00673,57.77236 0.00757,74.84293c0.00023,4.63205 -3.93831,8.55365 -8.58751,8.55314c-17.10804,-0.0019 -403.01576,-0.01348 -433.55822,-0.01685c-5.31755,-0.00059 -8.40105,-3.82388 -8.40134,-8.36044c-0.00114,-16.9075 -0.00819,-44.25185 -0.01026,-74.84295c-0.00036,-5.33667 3.84818,-8.43506 8.41145,-8.43835z" fill="#000000" fill-rule="evenodd" stroke="#000000" stroke-width="14" stroke-linecap="round" stroke-linejoin="round" opacity="0.42445"/><path d="M23.13281,179.2254c16.91453,-0.01219 402.35144,-0.08703 433.38256,-0.10941c5.53494,-0.00399 8.75545,3.06843 8.75573,8.37196c0.00152,30.49195 0.00673,57.77236 0.00757,74.84293c0.00023,4.63205 -3.93831,8.55365 -8.58751,8.55314c-17.10804,-0.0019 -403.01576,-0.01348 -433.55822,-0.01685c-5.31755,-0.00059 -8.40105,-3.82388 -8.40134,-8.36044c-0.00114,-16.9075 -0.00819,-44.25185 -0.01026,-74.84295c-0.00036,-5.33667 3.84818,-8.43506 8.41145,-8.43835z" fill="#000000" fill-rule="evenodd" stroke="#000000" stroke-width="0" stroke-linecap="round" stroke-linejoin="round" opacity="0.42445"/><text transform="translate(58.7601,219.56219) scale(0.45311,0.45311)" font-size="40" xml:space="preserve" fill="#ffffff" fill-rule="nonzero" stroke="#000000" stroke-width="8" stroke-linecap="butt" stroke-linejoin="miter" font-family="Sans Serif" font-weight="normal" text-anchor="start"><tspan x="0" dy="0">服务器断开连接，可能是因为游戏发生变化，</tspan><tspan x="0" dy="48px">                             请稍后再试</tspan></text><text transform="translate(58.7521,219.56255) scale(0.45312,0.45312)" font-size="40" xml:space="preserve" fill="#ffffff" fill-rule="nonzero" stroke="#ffffff" stroke-width="1" stroke-linecap="butt" stroke-linejoin="miter" font-family="Sans Serif" font-weight="normal" text-anchor="start"><tspan x="0" dy="0">服务器断开连接，可能是因为游戏发生变化，</tspan><tspan x="0" dy="48px">                             请稍后再试</tspan></text></g></g></svg>