<svg version="1.1" xmlns="http://www.w3.org/2000/svg" xmlns:xlink="http://www.w3.org/1999/xlink" width="27.2621" height="29.32459" viewBox="0,0,27.2621,29.32459"><g transform="translate(-225.33771,-165.33771)"><g data-paper-data="{&quot;isPaintingLayer&quot;:true}" fill-rule="nonzero" stroke-linecap="butt" stroke-linejoin="miter" stroke-miterlimit="10" stroke-dasharray="" stroke-dashoffset="0" style="mix-blend-mode: normal"><path d="M228.15023,180.00006c0,-6.54447 5.30532,-11.84979 11.84979,-11.84979c6.54447,0 11.8498,5.30532 11.8498,11.84979c0,6.54447 -5.30532,11.8498 -11.8498,11.8498c-6.54447,0 -11.84979,-5.30532 -11.84979,-11.8498z" fill="#fcc875" stroke="#191916" stroke-width="1.5"/><path d="M226.33772,180.00001c0,-7.54549 6.1168,-13.66229 13.66229,-13.66229c7.54549,0 4.7873,6.1168 4.7873,13.66229c0,7.54549 2.7582,13.6623 -4.7873,13.6623c-7.54549,0 -13.66229,-6.1168 -13.66229,-13.6623z" fill="#558850" stroke="#191916" stroke-width="2"/><path d="M234.51442,176.7143c0,1.49906 -1.19924,2.71429 -2.67857,2.71429c-1.47933,0 -2.67857,-1.21523 -2.67857,-2.71429c0,-1.49906 1.19924,-2.71429 2.67857,-2.71429c1.47933,0 2.67857,1.21523 2.67857,2.71429z" fill="#715727" stroke="none" stroke-width="0"/><path d="M238.48057,174.42858c-3.0174,0.70027 -3.13608,-0.74848 -3.72253,-2.29682c-0.45304,-1.19611 -1.75866,-2.49944 -1.66929,-2.69951c0.10269,-0.22991 0.80478,-0.69632 2.27224,-1.40062c1.37346,-0.65918 3.12155,-0.82581 4.99615,-0.69391c1.13893,0.08014 0.16202,1.5095 0.05875,2.67257c-0.17288,1.94698 -0.34352,4.04886 -1.93532,4.41829z" fill="#715727" stroke="none" stroke-width="0"/><path d="M232.33631,186.12278c-0.29016,0.27951 -1.53781,2.53601 -2.04665,1.98805c-1.27875,-1.37707 -2.24566,-3.27148 -2.59398,-4.75458c-0.37216,-1.5846 2.5506,-1.35252 2.66521,-1.57672c0.09973,-0.1951 3.38314,2.98719 1.97542,4.34326z" data-paper-data="{&quot;index&quot;:null}" fill="#715727" stroke="none" stroke-width="0"/><path d="M230.62137,180.00001c0,-5.17969 4.19895,-9.37864 9.37864,-9.37864c5.17969,0 9.37864,4.19895 9.37864,9.37864c0,5.17969 -4.19895,9.37864 -9.37864,9.37864c-5.17969,0 -9.37864,-4.19895 -9.37864,-9.37864z" fill="#5eb057" stroke="#191916" stroke-width="0.5"/><path d="M232.62784,180.00001c0,-2.67844 2.01731,-4.84974 4.50578,-4.84974c2.48847,0 4.50578,2.1713 4.50578,4.84974c0,2.67844 -2.01729,4.84975 -4.50577,4.84975c-2.48847,0 -4.50578,-2.1713 -4.50578,-4.84975z" fill="#a2d99d" stroke="none" stroke-width="0"/><path d="M239.7707,186.39093c1.80263,0.18947 2.58541,-1.31539 3.28574,-0.94306c1.00786,0.53582 1.23102,2.44538 0.20048,2.98711c-0.61324,0.32236 -1.01416,0.81138 -3.37156,0.74083c-5.17737,-0.15496 -2.44665,-3.02999 -0.11466,-2.78487z" fill="#8b6b2f" stroke="#191916" stroke-width="0"/><path d="M246.43278,179.93177c-0.19584,-1.21753 -0.27825,-0.75072 -0.07611,-1.26746c0.29091,-0.74365 1.59436,-1.72199 2.31178,-1.12108c0.42691,0.35758 0.47994,1.85949 0.47562,2.68139c-0.01532,2.91096 -2.45793,1.28224 -2.71128,-0.29284z" fill="#8b6b2f" stroke="#191916" stroke-width="0"/><path d="M247.39991,181.92027c0.29944,-1.02534 0.09494,-0.66988 0.38448,-1.03681c0.4167,-0.52806 1.03833,-1.39206 1.24407,-0.73752c0.12243,0.38949 0.28716,0.64119 -0.00168,2.00072c-0.63433,2.98583 -2.01426,1.10004 -1.62688,-0.22639z" fill="#8b6b2f" stroke="#191916" stroke-width="0"/><path d="M235.2395,172.16889c1.08359,-0.71445 2.39735,-1.44728 4.83743,-1.32225c1.39397,0.07143 -1.0624,2.95774 -2.07692,3.22432c-2.96869,0.78007 -3.94549,-1.12076 -2.76051,-1.90207z" fill="#8b6b2f" stroke="none" stroke-width="0"/><path d="M245.80013,175.78572c0,0.86788 -0.73553,1.57143 -1.64286,1.57143c-0.90732,0 -1.64286,-0.70355 -1.64286,-1.57143c0,-0.86788 0.73553,-1.57143 1.64286,-1.57143c0.90732,0 1.64286,0.70355 1.64286,1.57143z" fill="#715727" stroke="none" stroke-width="0"/><path d="M244.7287,174.14287c0,0.63118 -0.46371,1.14286 -1.03571,1.14286c-0.57201,0 -1.03571,-0.51167 -1.03571,-1.14286c0,-0.63118 0.46371,-1.14286 1.03571,-1.14286c0.57201,0 1.03571,0.51167 1.03571,1.14286z" fill="#715727" stroke="none" stroke-width="0"/></g></g></svg>