<svg version="1.1" xmlns="http://www.w3.org/2000/svg" xmlns:xlink="http://www.w3.org/1999/xlink" width="18.17192" height="17.64637" viewBox="0,0,18.17192,17.64637"><g transform="translate(-311.99693,-171.16646)"><g stroke-miterlimit="10"><path d="M321.55694,172.154c3.74631,0.74099 6.44613,4.02711 6.44613,7.846c0,3.81889 -2.69983,7.10501 -6.44613,7.846c-0.043,0.009 -0.087,0.012 -0.13,0.02c-0.20902,0.03959 -0.41952,0.07094 -0.631,0.094c-3.03437,0.30458 -5.97797,-1.14249 -7.58999,-3.73123c-1.61202,-2.58874 -1.61202,-5.8688 0,-8.45754c1.61202,-2.58874 4.55562,-4.03581 7.58999,-3.73123c0.2115,0.02291 0.422,0.05427 0.631,0.094c0.044,0.008 0.087,0.011 0.129,0.02zM317.50103,180.0005c0,-3.00236 1.58444,-5.78185 4.16792,-7.3115c-3.00652,-0.68524 -6.12602,0.53982 -7.86282,3.0878c-1.7368,2.54798 -1.7368,5.89941 0,8.4474c1.7368,2.54798 4.85631,3.77304 7.86282,3.0878c-2.58347,-1.52965 -4.16792,-4.30914 -4.16792,-7.3115z" fill="#000000" stroke="none" stroke-width="1"/><path d="M312.5,180c0,-4.14214 3.35786,-7.5 7.5,-7.5c4.14214,0 7.5,3.35786 7.5,7.5c0,4.14214 -3.35786,7.5 -7.5,7.5c-4.14214,0 -7.5,-3.35786 -7.5,-7.5z" fill="#ffffff" stroke="#000000" stroke-width="0"/><text transform="translate(316.95,184.83125) scale(0.31853,0.31853)" font-size="40" xml:space="preserve" fill="#000000" stroke="none" stroke-width="1" font-family="Sans Serif" font-weight="normal" text-anchor="start"><tspan x="0" dy="0">？</tspan></text></g></g></svg>