<svg version="1.1" xmlns="http://www.w3.org/2000/svg" xmlns:xlink="http://www.w3.org/1999/xlink" width="665.16517" height="415.91592" viewBox="0,0,665.16517,415.91592"><g transform="translate(7.92792,25.85581)"><g stroke-miterlimit="10"><path d="M-7.92792,390.06011v-415.91592h665.16517v415.91592z" fill-opacity="0.50196" fill="#cccccc" stroke="#000dff" stroke-width="0"/><path d="M165.53699,220.03606c0,-21.40154 0,-68.31642 0,-80.14495c0,-5.29839 4.55282,-10.67077 10.39091,-10.67077c27.59531,0 238.67819,0 288.17293,0c6.63146,0 10.36217,4.20825 10.36217,10.83933c0,21.40035 0,68.03538 0,79.89212c0,5.36516 -3.79393,10.82788 -10.53072,10.82788c-49.82362,0 -260.61321,0 -288.08865,0c-5.79458,0 -10.30663,-4.16729 -10.30663,-10.74361z" fill="#ffffff" stroke="#009bff" stroke-width="2.5"/><text transform="translate(243.62,162.6515) scale(0.5,0.5)" font-size="40" xml:space="preserve" fill="#000000" stroke="none" stroke-width="1" font-family="Sans Serif" font-weight="normal" text-anchor="start"><tspan x="0" dy="0">连接服务器中......</tspan></text></g></g></svg>