<svg version="1.1" xmlns="http://www.w3.org/2000/svg" xmlns:xlink="http://www.w3.org/1999/xlink" width="111.30782" height="115.45188" viewBox="0,0,111.30782,115.45188"><g transform="translate(1.01664,-22.28236)"><g stroke-miterlimit="10"><g fill="none" stroke="#000000" stroke-width="2.5" stroke-linecap="round"><path d="M78.8955,80.4h12.75"/><path d="M14.8955,80.4h12.75"/><path d="M53.0955,54.525v-12.75"/><path d="M53.0955,117.775v-12.75"/></g><path d="M14.5955,80.4c0,-21.26296 17.23703,-38.5 38.5,-38.5c21.26296,0 38.5,17.23704 38.5,38.5c0,21.26296 -17.23704,38.5 -38.5,38.5c-21.26296,0 -38.5,-17.23704 -38.5,-38.5z" fill="none" stroke="#000000" stroke-width="2.5" stroke-linecap="butt"/><text transform="translate(49.48924,37.08715) scale(0.3451,0.3451)" font-size="40" xml:space="preserve" fill="#ffffff" stroke="none" stroke-width="1" stroke-linecap="butt" font-family="Sans Serif" font-weight="normal" text-anchor="start"><tspan x="0" dy="0">0</tspan></text><text transform="translate(93.98089,84.38159) scale(0.3451,0.3451)" font-size="40" xml:space="preserve" fill="#ffffff" stroke="none" stroke-width="1" stroke-linecap="butt" font-family="Sans Serif" font-weight="normal" text-anchor="start"><tspan x="0" dy="0">24</tspan></text><text transform="translate(45.5413,133.42049) scale(0.3451,0.3451)" font-size="40" xml:space="preserve" fill="#ffffff" stroke="none" stroke-width="1" stroke-linecap="butt" font-family="Sans Serif" font-weight="normal" text-anchor="start"><tspan x="0" dy="0">48</tspan></text><text transform="translate(-0.84409,83.75659) scale(0.3451,0.3451)" font-size="40" xml:space="preserve" fill="#ffffff" stroke="none" stroke-width="1" stroke-linecap="butt" font-family="Sans Serif" font-weight="normal" text-anchor="start"><tspan x="0" dy="0">72</tspan></text><text transform="translate(82.48924,51.21492) scale(0.3451,0.3451)" font-size="40" xml:space="preserve" fill="#ffffff" stroke="none" stroke-width="1" stroke-linecap="butt" font-family="Sans Serif" font-weight="normal" text-anchor="start"><tspan x="0" dy="0">12</tspan></text><text transform="translate(83.31422,116.75382) scale(0.3451,0.3451)" font-size="40" xml:space="preserve" fill="#ffffff" stroke="none" stroke-width="1" stroke-linecap="butt" font-family="Sans Serif" font-weight="normal" text-anchor="start"><tspan x="0" dy="0">36</tspan></text><text transform="translate(10.98089,121.75659) scale(0.3451,0.3451)" font-size="40" xml:space="preserve" fill="#ffffff" stroke="none" stroke-width="1" stroke-linecap="butt" font-family="Sans Serif" font-weight="normal" text-anchor="start"><tspan x="0" dy="0">60</tspan></text><text transform="translate(10.98089,50.38158) scale(0.3451,0.3451)" font-size="40" xml:space="preserve" fill="#ffffff" stroke="none" stroke-width="1" stroke-linecap="butt" font-family="Sans Serif" font-weight="normal" text-anchor="start"><tspan x="0" dy="0">84</tspan></text></g></g></svg>