<svg version="1.1" xmlns="http://www.w3.org/2000/svg" xmlns:xlink="http://www.w3.org/1999/xlink" width="267.37462" height="256.33733" viewBox="0,0,267.37462,256.33733"><g transform="translate(-110.23132,-62.73897)"><g data-paper-data="{&quot;isPaintingLayer&quot;:true}" stroke="none" stroke-width="0" stroke-miterlimit="10" stroke-dasharray="" stroke-dashoffset="0" style="mix-blend-mode: normal"><g fill="#ffffff" fill-rule="evenodd" stroke-linecap="round" stroke-linejoin="round"><path d="M139.62505,230.2463c9.84919,-9.93589 24.25982,-9.94044 34.09605,-0.02488c9.83624,9.91556 9.85603,24.45663 0.00175,34.39763c-9.85428,9.94098 -24.22505,9.94627 -34.09553,-0.00378c-9.87048,-9.95006 -9.85147,-24.43308 -0.00228,-34.36896z" data-paper-data="{&quot;origRot&quot;:0,&quot;index&quot;:null}" opacity="0.42445"/><path d="M139.62505,230.2463c9.84919,-9.93589 24.25982,-9.94044 34.09605,-0.02488c9.83624,9.91556 9.85603,24.45663 0.00175,34.39763c-9.85428,9.94098 -24.22505,9.94627 -34.09553,-0.00378c-9.87048,-9.95006 -9.85147,-24.43308 -0.00228,-34.36896z" data-paper-data="{&quot;origRot&quot;:0,&quot;index&quot;:null}" opacity="0.42445"/></g><g fill="#ffffff" fill-rule="evenodd" stroke-linecap="round" stroke-linejoin="round"><path d="M185.03273,264.11111c11.0583,-11.15565 27.23803,-11.16076 38.28179,-0.02793c11.04376,11.13282 11.06599,27.459 0.00197,38.62039c-11.06402,11.16136 -27.199,11.16731 -38.28121,-0.00425c-11.08221,-11.17156 -11.06087,-27.43256 -0.00257,-38.58821z" data-paper-data="{&quot;origRot&quot;:0,&quot;index&quot;:null}" opacity="0.42445"/><path d="M185.03273,264.11111c11.0583,-11.15565 27.23803,-11.16076 38.28179,-0.02793c11.04376,11.13282 11.06599,27.459 0.00197,38.62039c-11.06402,11.16136 -27.199,11.16731 -38.28121,-0.00425c-11.08221,-11.17156 -11.06087,-27.43256 -0.00257,-38.58821z" data-paper-data="{&quot;origRot&quot;:0,&quot;index&quot;:null}" opacity="0.42445"/></g><g fill="#ffffff" fill-rule="evenodd" stroke-linecap="round" stroke-linejoin="round"><path d="M262.03274,272.11112c11.0583,-11.15564 27.23802,-11.16076 38.28178,-0.02793c11.04376,11.13283 11.06598,27.45899 0.00197,38.62039c-11.06402,11.16136 -27.19899,11.16731 -38.2812,-0.00425c-11.08221,-11.17156 -11.06086,-27.43256 -0.00257,-38.58821z" data-paper-data="{&quot;origRot&quot;:0,&quot;index&quot;:null}" opacity="0.42445"/><path d="M262.03274,272.11112c11.0583,-11.15564 27.23802,-11.16076 38.28178,-0.02793c11.04376,11.13283 11.06598,27.45899 0.00197,38.62039c-11.06402,11.16136 -27.19899,11.16731 -38.2812,-0.00425c-11.08221,-11.17156 -11.06086,-27.43256 -0.00257,-38.58821z" data-paper-data="{&quot;origRot&quot;:0,&quot;index&quot;:null}" opacity="0.42445"/></g><g fill="#ffffff" fill-rule="evenodd" stroke-linecap="round" stroke-linejoin="round"><path d="M308.03274,208.61112c11.0583,-11.15564 27.23802,-11.16076 38.28179,-0.02793c11.04376,11.13283 11.06598,27.45899 0.00197,38.62039c-11.06401,11.16136 -27.199,11.16731 -38.2812,-0.00425c-11.08221,-11.17156 -11.06086,-27.43256 -0.00257,-38.5882z" data-paper-data="{&quot;origRot&quot;:0,&quot;index&quot;:null}" opacity="0.42445"/><path d="M308.03274,208.61112c11.0583,-11.15564 27.23802,-11.16076 38.28179,-0.02793c11.04376,11.13283 11.06598,27.45899 0.00197,38.62039c-11.06401,11.16136 -27.199,11.16731 -38.2812,-0.00425c-11.08221,-11.17156 -11.06086,-27.43256 -0.00257,-38.5882z" data-paper-data="{&quot;origRot&quot;:0,&quot;index&quot;:null}" opacity="0.42445"/></g><g fill="#ffffff" fill-rule="evenodd" stroke-linecap="round" stroke-linejoin="round"><path d="M331.03274,119.86112c11.0583,-11.15564 27.23802,-11.16076 38.28179,-0.02794c11.04376,11.13282 11.06598,27.459 0.00197,38.62039c-11.06401,11.16136 -27.199,11.16731 -38.2812,-0.00425c-11.08221,-11.17156 -11.06086,-27.43256 -0.00257,-38.5882z" data-paper-data="{&quot;origRot&quot;:0,&quot;index&quot;:null}" opacity="0.42445"/><path d="M331.03274,119.86112c11.0583,-11.15564 27.23802,-11.16076 38.28179,-0.02794c11.04376,11.13282 11.06598,27.459 0.00197,38.62039c-11.06401,11.16136 -27.199,11.16731 -38.2812,-0.00425c-11.08221,-11.17156 -11.06086,-27.43256 -0.00257,-38.5882z" data-paper-data="{&quot;origRot&quot;:0,&quot;index&quot;:null}" opacity="0.42445"/></g><g fill="#ffffff" fill-rule="evenodd" stroke-linecap="round" stroke-linejoin="round"><path d="M118.53273,143.36111c11.0583,-11.15564 27.23802,-11.16076 38.28179,-0.02793c11.04376,11.13282 11.06598,27.459 0.00197,38.62039c-11.06401,11.16136 -27.199,11.16731 -38.2812,-0.00425c-11.08221,-11.17156 -11.06086,-27.43256 -0.00257,-38.58821z" data-paper-data="{&quot;origRot&quot;:0,&quot;index&quot;:null}" opacity="0.42445"/><path d="M118.53273,143.36111c11.0583,-11.15564 27.23802,-11.16076 38.28179,-0.02793c11.04376,11.13282 11.06598,27.459 0.00197,38.62039c-11.06401,11.16136 -27.199,11.16731 -38.2812,-0.00425c-11.08221,-11.17156 -11.06086,-27.43256 -0.00257,-38.58821z" data-paper-data="{&quot;origRot&quot;:0,&quot;index&quot;:null}" opacity="0.42445"/></g><g fill="#ffffff" fill-rule="evenodd" stroke-linecap="round" stroke-linejoin="round"><path d="M228.55764,70.12771c9.75938,-9.84529 24.03861,-9.8498 33.78515,-0.02465c9.74654,9.82515 9.76616,24.23362 0.00174,34.08398c-9.76442,9.85033 -24.00416,9.85558 -33.78464,-0.00375c-9.78048,-9.85933 -9.76164,-24.21029 -0.00226,-34.05558z" data-paper-data="{&quot;origRot&quot;:0,&quot;index&quot;:null}" opacity="0.42445"/><path d="M228.55764,70.12771c9.75938,-9.84529 24.03861,-9.8498 33.78515,-0.02465c9.74654,9.82515 9.76616,24.23362 0.00174,34.08398c-9.76442,9.85033 -24.00416,9.85558 -33.78464,-0.00375c-9.78048,-9.85933 -9.76164,-24.21029 -0.00226,-34.05558z" data-paper-data="{&quot;origRot&quot;:0,&quot;index&quot;:null}" opacity="0.42445"/></g><path d="M201.03274,94.19445c11.0583,-11.15564 27.23802,-11.16076 38.28179,-0.02794c11.04376,11.13282 11.06598,27.459 0.00197,38.62039c-11.06401,11.16136 -27.199,11.16731 -38.2812,-0.00425c-11.08221,-11.17156 -11.06086,-27.43256 -0.00257,-38.5882z" data-paper-data="{&quot;origRot&quot;:0,&quot;index&quot;:null}" fill="#ffffff" fill-rule="evenodd" stroke-linecap="round" stroke-linejoin="round" opacity="0.42445"/><path d="M201.03274,94.19445c11.0583,-11.15564 27.23802,-11.16076 38.28179,-0.02794c11.04376,11.13282 11.06598,27.459 0.00197,38.62039c-11.06401,11.16136 -27.199,11.16731 -38.2812,-0.00425c-11.08221,-11.17156 -11.06086,-27.43256 -0.00257,-38.5882z" data-paper-data="{&quot;origRot&quot;:0,&quot;index&quot;:null}" fill="#ffffff" fill-rule="evenodd" stroke-linecap="round" stroke-linejoin="round" opacity="0.42445"/><path d="M156.78242,87.91644c6.72855,-6.78778 16.5733,-6.7909 23.29301,-0.017c6.71971,6.7739 6.73323,16.70776 0.0012,23.49904c-6.73203,6.79126 -16.54956,6.79488 -23.29265,-0.00259c-6.7431,-6.79747 -6.73011,-16.69167 -0.00156,-23.47945z" data-paper-data="{&quot;origRot&quot;:0,&quot;index&quot;:null}" fill="#ffffff" fill-rule="evenodd" stroke-linecap="round" stroke-linejoin="round" opacity="0.42445"/><path d="M167.95076,84.43659c9.617,-9.70165 23.68791,-9.7061 33.29227,-0.0243c9.60435,9.6818 9.62368,23.88009 0.00172,33.58674c-9.62197,9.70663 -23.65398,9.71181 -33.29176,-0.00369c-9.6378,-9.7155 -9.61923,-23.8571 -0.00224,-33.55875z" data-paper-data="{&quot;origRot&quot;:0,&quot;index&quot;:null}" fill="#ffffff" fill-rule="evenodd" stroke-linecap="round" stroke-linejoin="round" opacity="0.42445"/><path d="M174.84138,69.31775c8.13919,-8.21083 20.04788,-8.2146 28.17637,-0.02056c8.12848,8.19404 8.14484,20.21052 0.00145,28.42559c-8.14339,8.21505 -20.01915,8.21943 -28.17594,-0.00313c-8.15679,-8.22255 -8.14108,-20.19107 -0.00189,-28.4019z" data-paper-data="{&quot;origRot&quot;:0,&quot;index&quot;:null}" fill="#ffffff" fill-rule="evenodd" stroke-linecap="round" stroke-linejoin="round" opacity="0.42445"/><path d="M145.17471,117.98442c8.13919,-8.21084 20.04788,-8.2146 28.17638,-0.02057c8.12849,8.19404 8.14485,20.21053 0.00145,28.42559c-8.14339,8.21504 -20.01916,8.21943 -28.17594,-0.00313c-8.15679,-8.22255 -8.14108,-20.19106 -0.00189,-28.4019z" data-paper-data="{&quot;origRot&quot;:0,&quot;index&quot;:null}" fill="#ffffff" fill-rule="evenodd" stroke-linecap="round" stroke-linejoin="round" opacity="0.42445"/><path d="M164.20883,137.05292c13.51304,-13.63199 33.28437,-13.63824 46.77966,-0.03414c13.49527,13.6041 13.52243,33.5544 0.00241,47.19342c-13.52002,13.63898 -33.23668,13.64625 -46.77893,-0.0052c-13.54226,-13.65145 -13.51618,-33.52209 -0.00315,-47.15408z" data-paper-data="{&quot;origRot&quot;:0,&quot;index&quot;:null}" fill="#ffffff" fill-rule="evenodd" stroke-linecap="round" stroke-linejoin="round" opacity="0.42445"/><path d="M173.8755,120.38625c13.51304,-13.63199 33.28437,-13.63825 46.77966,-0.03414c13.49527,13.6041 13.52244,33.5544 0.00241,47.19341c-13.52003,13.63898 -33.23668,13.64626 -46.77893,-0.00519c-13.54226,-13.65145 -13.51618,-33.52209 -0.00315,-47.15408z" data-paper-data="{&quot;origRot&quot;:0,&quot;index&quot;:null}" fill="#ffffff" fill-rule="evenodd" stroke-linecap="round" stroke-linejoin="round" opacity="0.42445"/><path d="M262.84138,71.98442c8.13919,-8.21084 20.04788,-8.2146 28.17638,-0.02057c8.12848,8.19404 8.14485,20.21053 0.00145,28.42559c-8.14339,8.21505 -20.01916,8.21943 -28.17593,-0.00313c-8.15679,-8.22255 -8.14108,-20.19106 -0.00189,-28.40189z" data-paper-data="{&quot;origRot&quot;:0,&quot;index&quot;:null}" fill="#ffffff" fill-rule="evenodd" stroke-linecap="round" stroke-linejoin="round" opacity="0.42445"/><path d="M279.50804,87.98442c8.13919,-8.21084 20.04788,-8.2146 28.17637,-0.02057c8.12849,8.19404 8.14485,20.21053 0.00145,28.42559c-8.14339,8.21505 -20.01916,8.21943 -28.17594,-0.00313c-8.15679,-8.22255 -8.14108,-20.19106 -0.00189,-28.40189z" data-paper-data="{&quot;origRot&quot;:0,&quot;index&quot;:null}" fill="#ffffff" fill-rule="evenodd" stroke-linecap="round" stroke-linejoin="round" opacity="0.42445"/><path d="M292.87809,126.90923c11.29633,-11.39576 27.82432,-11.40099 39.1058,-0.02854c11.28147,11.37245 11.30418,28.05005 0.00201,39.45169c-11.30216,11.40161 -27.78445,11.40769 -39.10519,-0.00434c-11.32075,-11.41203 -11.29895,-28.02304 -0.00263,-39.4188z" data-paper-data="{&quot;origRot&quot;:0,&quot;index&quot;:null}" fill="#ffffff" fill-rule="evenodd" stroke-linecap="round" stroke-linejoin="round" opacity="0.42445"/><path d="M148.99524,211.54305c6.124,-6.1779 15.08419,-6.18073 21.20014,-0.01547c6.11594,6.16526 6.12825,15.20657 0.00109,21.38765c-6.12716,6.18107 -15.06258,6.18437 -21.19981,-0.00235c-6.13724,-6.18672 -6.12542,-15.19193 -0.00143,-21.36983z" data-paper-data="{&quot;origRot&quot;:0,&quot;index&quot;:null}" fill="#ffffff" fill-rule="evenodd" stroke-linecap="round" stroke-linejoin="round" opacity="0.42445"/><path d="M243.66191,284.20972c6.124,-6.17791 15.08419,-6.18074 21.20014,-0.01548c6.11594,6.16526 6.12825,15.20657 0.00109,21.38765c-6.12716,6.18107 -15.06258,6.18437 -21.19981,-0.00235c-6.13724,-6.18672 -6.12542,-15.19192 -0.00143,-21.36982z" data-paper-data="{&quot;origRot&quot;:0,&quot;index&quot;:null}" fill="#ffffff" fill-rule="evenodd" stroke-linecap="round" stroke-linejoin="round" opacity="0.42445"/><path d="M275.53881,256.36281c7.73615,-7.80425 19.05514,-7.80783 26.78112,-0.01955c7.72597,7.78828 7.74153,19.20973 0.00138,27.018c-7.74015,7.80825 -19.02784,7.81241 -26.78071,-0.00297c-7.75288,-7.81539 -7.73794,-19.19123 -0.0018,-26.99548z" data-paper-data="{&quot;origRot&quot;:0,&quot;index&quot;:null}" fill="#ffffff" fill-rule="evenodd" stroke-linecap="round" stroke-linejoin="round" opacity="0.42445"/><path d="M293.87215,230.36282c7.73615,-7.80425 19.05514,-7.80783 26.78112,-0.01955c7.72598,7.78828 7.74153,19.20973 0.00138,27.018c-7.74015,7.80825 -19.02784,7.81241 -26.78071,-0.00297c-7.75288,-7.81539 -7.73795,-19.19122 -0.0018,-26.99547z" data-paper-data="{&quot;origRot&quot;:0,&quot;index&quot;:null}" fill="#ffffff" fill-rule="evenodd" stroke-linecap="round" stroke-linejoin="round" opacity="0.42445"/><path d="M330.94482,239.49501c6.05682,-6.11014 14.91874,-6.11294 20.9676,-0.01531c6.04886,6.09764 6.06103,15.03977 0.00108,21.15305c-6.05995,6.11327 -14.89736,6.11653 -20.96727,-0.00233c-6.06992,-6.11886 -6.05823,-15.02528 -0.00141,-21.13542z" data-paper-data="{&quot;origRot&quot;:0,&quot;index&quot;:null}" fill="#ffffff" fill-rule="evenodd" stroke-linecap="round" stroke-linejoin="round" opacity="0.42445"/><path d="M347.99151,224.29573c3.5922,-3.62382 8.84805,-3.62548 12.43553,-0.00908c3.58747,3.6164 3.5947,8.91983 0.00064,12.54552c-3.59406,3.62568 -8.83537,3.62761 -12.43533,-0.00138c-3.59997,-3.62899 -3.59303,-8.91124 -0.00084,-12.53506z" data-paper-data="{&quot;origRot&quot;:0,&quot;index&quot;:null}" fill="#ffffff" fill-rule="evenodd" stroke-linecap="round" stroke-linejoin="round" opacity="0.42445"/><path d="M342.31372,153.58699c4.46545,-4.50476 10.99898,-4.50683 15.45856,-0.01129c4.45958,4.49554 4.46855,11.08822 0.0008,15.59529c-4.46776,4.50706 -10.98322,4.50946 -15.45832,-0.00172c-4.4751,-4.51118 -4.46648,-11.07753 -0.00104,-15.58228z" data-paper-data="{&quot;origRot&quot;:0,&quot;index&quot;:null}" fill="#ffffff" fill-rule="evenodd" stroke-linecap="round" stroke-linejoin="round" opacity="0.42445"/><g fill="#ffffff" fill-rule="evenodd" stroke-linecap="round" stroke-linejoin="round"><path d="M282.03274,174.86112c11.0583,-11.15564 27.23802,-11.16076 38.28179,-0.02794c11.04376,11.13282 11.06598,27.459 0.00197,38.62039c-11.06401,11.16136 -27.199,11.16731 -38.2812,-0.00425c-11.08221,-11.17156 -11.06086,-27.43256 -0.00257,-38.5882z" data-paper-data="{&quot;origRot&quot;:0,&quot;index&quot;:null}" opacity="0.42445"/><path d="M282.03274,174.86112c11.0583,-11.15564 27.23802,-11.16076 38.28179,-0.02794c11.04376,11.13282 11.06598,27.459 0.00197,38.62039c-11.06401,11.16136 -27.199,11.16731 -38.2812,-0.00425c-11.08221,-11.17156 -11.06086,-27.43256 -0.00257,-38.5882z" data-paper-data="{&quot;origRot&quot;:0,&quot;index&quot;:null}" opacity="0.42445"/></g><g fill="#ffffff" fill-rule="evenodd" stroke-linecap="round" stroke-linejoin="round"><path d="M245.69941,126.52779c11.0583,-11.15564 27.23802,-11.16076 38.28179,-0.02794c11.04376,11.13282 11.06598,27.459 0.00197,38.62039c-11.06401,11.16136 -27.199,11.16731 -38.2812,-0.00425c-11.08221,-11.17156 -11.06086,-27.43256 -0.00257,-38.5882z" data-paper-data="{&quot;origRot&quot;:0,&quot;index&quot;:null}" opacity="0.42445"/><path d="M245.69941,126.52779c11.0583,-11.15564 27.23802,-11.16076 38.28179,-0.02794c11.04376,11.13282 11.06598,27.459 0.00197,38.62039c-11.06401,11.16136 -27.199,11.16731 -38.2812,-0.00425c-11.08221,-11.17156 -11.06086,-27.43256 -0.00257,-38.5882z" data-paper-data="{&quot;origRot&quot;:0,&quot;index&quot;:null}" opacity="0.42445"/></g><g fill="#ffffff" fill-rule="evenodd" stroke-linecap="round" stroke-linejoin="round"><path d="M243.36607,99.19445c11.0583,-11.15564 27.23802,-11.16076 38.28179,-0.02794c11.04376,11.13282 11.06598,27.459 0.00197,38.62039c-11.06401,11.16136 -27.199,11.16731 -38.2812,-0.00425c-11.08221,-11.17156 -11.06086,-27.43256 -0.00257,-38.5882z" data-paper-data="{&quot;origRot&quot;:0,&quot;index&quot;:null}" opacity="0.42445"/><path d="M243.36607,99.19445c11.0583,-11.15564 27.23802,-11.16076 38.28179,-0.02794c11.04376,11.13282 11.06598,27.459 0.00197,38.62039c-11.06401,11.16136 -27.199,11.16731 -38.2812,-0.00425c-11.08221,-11.17156 -11.06086,-27.43256 -0.00257,-38.5882z" data-paper-data="{&quot;origRot&quot;:0,&quot;index&quot;:null}" opacity="0.42445"/></g><g fill="#ffffff" fill-rule="evenodd" stroke-linecap="round" stroke-linejoin="round"><path d="M205.36607,127.52778c11.0583,-11.15564 27.23802,-11.16076 38.28179,-0.02794c11.04376,11.13282 11.06598,27.459 0.00197,38.62039c-11.06401,11.16136 -27.199,11.16731 -38.2812,-0.00425c-11.08221,-11.17156 -11.06086,-27.43256 -0.00257,-38.5882z" data-paper-data="{&quot;origRot&quot;:0,&quot;index&quot;:null}" opacity="0.42445"/><path d="M205.36607,127.52778c11.0583,-11.15564 27.23802,-11.16076 38.28179,-0.02794c11.04376,11.13282 11.06598,27.459 0.00197,38.62039c-11.06401,11.16136 -27.199,11.16731 -38.2812,-0.00425c-11.08221,-11.17156 -11.06086,-27.43256 -0.00257,-38.5882z" data-paper-data="{&quot;origRot&quot;:0,&quot;index&quot;:null}" opacity="0.42445"/></g><g fill="#ffffff" fill-rule="evenodd" stroke-linecap="round" stroke-linejoin="round"><path d="M183.03274,161.52779c11.0583,-11.15564 27.23802,-11.16076 38.28179,-0.02794c11.04376,11.13282 11.06598,27.459 0.00197,38.62039c-11.06401,11.16136 -27.199,11.16731 -38.2812,-0.00425c-11.08221,-11.17156 -11.06086,-27.43256 -0.00257,-38.5882z" data-paper-data="{&quot;origRot&quot;:0,&quot;index&quot;:null}" opacity="0.42445"/><path d="M183.03274,161.52779c11.0583,-11.15564 27.23802,-11.16076 38.28179,-0.02794c11.04376,11.13282 11.06598,27.459 0.00197,38.62039c-11.06401,11.16136 -27.199,11.16731 -38.2812,-0.00425c-11.08221,-11.17156 -11.06086,-27.43256 -0.00257,-38.5882z" data-paper-data="{&quot;origRot&quot;:0,&quot;index&quot;:null}" opacity="0.42445"/></g><g fill="#ffffff" fill-rule="evenodd" stroke-linecap="round" stroke-linejoin="round"><path d="M145.6994,169.52779c11.0583,-11.15564 27.23802,-11.16076 38.28179,-0.02794c11.04376,11.13282 11.06598,27.459 0.00197,38.62039c-11.06401,11.16136 -27.199,11.16731 -38.2812,-0.00425c-11.08221,-11.17156 -11.06086,-27.43256 -0.00257,-38.5882z" data-paper-data="{&quot;origRot&quot;:0,&quot;index&quot;:null}" opacity="0.42445"/><path d="M145.6994,169.52779c11.0583,-11.15564 27.23802,-11.16076 38.28179,-0.02794c11.04376,11.13282 11.06598,27.459 0.00197,38.62039c-11.06401,11.16136 -27.199,11.16731 -38.2812,-0.00425c-11.08221,-11.17156 -11.06086,-27.43256 -0.00257,-38.5882z" data-paper-data="{&quot;origRot&quot;:0,&quot;index&quot;:null}" opacity="0.42445"/></g><g fill="#ffffff" fill-rule="evenodd" stroke-linecap="round" stroke-linejoin="round"><path d="M180.03273,194.86112c11.0583,-11.15564 27.23802,-11.16076 38.28179,-0.02794c11.04376,11.13282 11.06598,27.459 0.00197,38.62039c-11.06401,11.16136 -27.199,11.16731 -38.2812,-0.00425c-11.08221,-11.17156 -11.06086,-27.43256 -0.00257,-38.5882z" data-paper-data="{&quot;origRot&quot;:0,&quot;index&quot;:null}" opacity="0.42445"/><path d="M180.03273,194.86112c11.0583,-11.15564 27.23802,-11.16076 38.28179,-0.02794c11.04376,11.13282 11.06598,27.459 0.00197,38.62039c-11.06401,11.16136 -27.199,11.16731 -38.2812,-0.00425c-11.08221,-11.17156 -11.06086,-27.43256 -0.00257,-38.5882z" data-paper-data="{&quot;origRot&quot;:0,&quot;index&quot;:null}" opacity="0.42445"/></g><g fill="#ffffff" fill-rule="evenodd" stroke-linecap="round" stroke-linejoin="round"><path d="M199.6994,191.19445c11.0583,-11.15564 27.23802,-11.16076 38.28179,-0.02794c11.04376,11.13282 11.06598,27.459 0.00197,38.62039c-11.06401,11.16136 -27.199,11.16731 -38.2812,-0.00425c-11.08221,-11.17156 -11.06086,-27.43256 -0.00257,-38.5882z" data-paper-data="{&quot;origRot&quot;:0,&quot;index&quot;:null}" opacity="0.42445"/><path d="M199.6994,191.19445c11.0583,-11.15564 27.23802,-11.16076 38.28179,-0.02794c11.04376,11.13282 11.06598,27.459 0.00197,38.62039c-11.06401,11.16136 -27.199,11.16731 -38.2812,-0.00425c-11.08221,-11.17156 -11.06086,-27.43256 -0.00257,-38.5882z" data-paper-data="{&quot;origRot&quot;:0,&quot;index&quot;:null}" opacity="0.42445"/></g><g fill="#ffffff" fill-rule="evenodd" stroke-linecap="round" stroke-linejoin="round"><path d="M231.03273,208.52779c11.0583,-11.15564 27.23802,-11.16076 38.28179,-0.02794c11.04376,11.13282 11.06598,27.459 0.00197,38.62039c-11.06401,11.16136 -27.199,11.16731 -38.2812,-0.00425c-11.08221,-11.17156 -11.06086,-27.43256 -0.00257,-38.5882z" data-paper-data="{&quot;origRot&quot;:0,&quot;index&quot;:null}" opacity="0.42445"/><path d="M231.03273,208.52779c11.0583,-11.15564 27.23802,-11.16076 38.28179,-0.02794c11.04376,11.13282 11.06598,27.459 0.00197,38.62039c-11.06401,11.16136 -27.199,11.16731 -38.2812,-0.00425c-11.08221,-11.17156 -11.06086,-27.43256 -0.00257,-38.5882z" data-paper-data="{&quot;origRot&quot;:0,&quot;index&quot;:null}" opacity="0.42445"/></g><g fill="#ffffff" fill-rule="evenodd" stroke-linecap="round" stroke-linejoin="round"><path d="M251.6994,204.52779c11.0583,-11.15564 27.23802,-11.16076 38.28179,-0.02794c11.04376,11.13282 11.06598,27.459 0.00197,38.62039c-11.06401,11.16136 -27.199,11.16731 -38.2812,-0.00425c-11.08221,-11.17156 -11.06086,-27.43256 -0.00257,-38.5882z" data-paper-data="{&quot;origRot&quot;:0,&quot;index&quot;:null}" opacity="0.42445"/><path d="M251.6994,204.52779c11.0583,-11.15564 27.23802,-11.16076 38.28179,-0.02794c11.04376,11.13282 11.06598,27.459 0.00197,38.62039c-11.06401,11.16136 -27.199,11.16731 -38.2812,-0.00425c-11.08221,-11.17156 -11.06086,-27.43256 -0.00257,-38.5882z" data-paper-data="{&quot;origRot&quot;:0,&quot;index&quot;:null}" opacity="0.42445"/></g><g fill="#ffffff" fill-rule="evenodd" stroke-linecap="round" stroke-linejoin="round"><path d="M260.36607,223.19446c11.0583,-11.15564 27.23802,-11.16076 38.28179,-0.02794c11.04376,11.13282 11.06598,27.459 0.00197,38.62039c-11.06401,11.16136 -27.199,11.16731 -38.2812,-0.00425c-11.08221,-11.17156 -11.06086,-27.43256 -0.00257,-38.5882z" data-paper-data="{&quot;origRot&quot;:0,&quot;index&quot;:null}" opacity="0.42445"/><path d="M260.36607,223.19446c11.0583,-11.15564 27.23802,-11.16076 38.28179,-0.02794c11.04376,11.13282 11.06598,27.459 0.00197,38.62039c-11.06401,11.16136 -27.199,11.16731 -38.2812,-0.00425c-11.08221,-11.17156 -11.06086,-27.43256 -0.00257,-38.5882z" data-paper-data="{&quot;origRot&quot;:0,&quot;index&quot;:null}" opacity="0.42445"/></g><g fill="#ffffff" fill-rule="evenodd" stroke-linecap="round" stroke-linejoin="round"><path d="M230.36607,257.86112c11.0583,-11.15564 27.23802,-11.16076 38.28179,-0.02794c11.04376,11.13282 11.06598,27.459 0.00197,38.62039c-11.06401,11.16136 -27.199,11.16731 -38.2812,-0.00425c-11.08221,-11.17156 -11.06086,-27.43256 -0.00257,-38.5882z" data-paper-data="{&quot;origRot&quot;:0,&quot;index&quot;:null}" opacity="0.42445"/><path d="M230.36607,257.86112c11.0583,-11.15564 27.23802,-11.16076 38.28179,-0.02794c11.04376,11.13282 11.06598,27.459 0.00197,38.62039c-11.06401,11.16136 -27.199,11.16731 -38.2812,-0.00425c-11.08221,-11.17156 -11.06086,-27.43256 -0.00257,-38.5882z" data-paper-data="{&quot;origRot&quot;:0,&quot;index&quot;:null}" opacity="0.42445"/></g><g fill="#ffffff" fill-rule="evenodd" stroke-linecap="round" stroke-linejoin="round"><path d="M227.03273,248.19445c11.0583,-11.15564 27.23802,-11.16076 38.28179,-0.02794c11.04376,11.13282 11.06598,27.459 0.00197,38.62039c-11.06401,11.16136 -27.199,11.16731 -38.2812,-0.00425c-11.08221,-11.17156 -11.06086,-27.43256 -0.00257,-38.5882z" data-paper-data="{&quot;origRot&quot;:0,&quot;index&quot;:null}" opacity="0.42445"/><path d="M227.03273,248.19445c11.0583,-11.15564 27.23802,-11.16076 38.28179,-0.02794c11.04376,11.13282 11.06598,27.459 0.00197,38.62039c-11.06401,11.16136 -27.199,11.16731 -38.2812,-0.00425c-11.08221,-11.17156 -11.06086,-27.43256 -0.00257,-38.5882z" data-paper-data="{&quot;origRot&quot;:0,&quot;index&quot;:null}" opacity="0.42445"/></g><g fill="#ffffff" fill-rule="evenodd" stroke-linecap="round" stroke-linejoin="round"><path d="M200.03273,235.19445c11.0583,-11.15564 27.23802,-11.16076 38.28179,-0.02794c11.04376,11.13282 11.06598,27.459 0.00197,38.62039c-11.06401,11.16136 -27.199,11.16731 -38.2812,-0.00425c-11.08221,-11.17156 -11.06086,-27.43256 -0.00257,-38.5882z" data-paper-data="{&quot;origRot&quot;:0,&quot;index&quot;:null}" opacity="0.42445"/><path d="M200.03273,235.19445c11.0583,-11.15564 27.23802,-11.16076 38.28179,-0.02794c11.04376,11.13282 11.06598,27.459 0.00197,38.62039c-11.06401,11.16136 -27.199,11.16731 -38.2812,-0.00425c-11.08221,-11.17156 -11.06086,-27.43256 -0.00257,-38.5882z" data-paper-data="{&quot;origRot&quot;:0,&quot;index&quot;:null}" opacity="0.42445"/></g><g fill="#ffffff" fill-rule="evenodd" stroke-linecap="round" stroke-linejoin="round"><path d="M183.36606,195.86112c11.0583,-11.15564 27.23802,-11.16076 38.28179,-0.02794c11.04376,11.13282 11.06598,27.459 0.00197,38.62039c-11.06401,11.16136 -27.199,11.16731 -38.2812,-0.00425c-11.08221,-11.17156 -11.06086,-27.43256 -0.00257,-38.5882z" data-paper-data="{&quot;origRot&quot;:0,&quot;index&quot;:null}" opacity="0.42445"/><path d="M183.36606,195.86112c11.0583,-11.15564 27.23802,-11.16076 38.28179,-0.02794c11.04376,11.13282 11.06598,27.459 0.00197,38.62039c-11.06401,11.16136 -27.199,11.16731 -38.2812,-0.00425c-11.08221,-11.17156 -11.06086,-27.43256 -0.00257,-38.5882z" data-paper-data="{&quot;origRot&quot;:0,&quot;index&quot;:null}" opacity="0.42445"/></g><g fill="#ffffff" fill-rule="evenodd" stroke-linecap="round" stroke-linejoin="round"><path d="M177.03273,165.52779c11.0583,-11.15564 27.23802,-11.16076 38.28179,-0.02794c11.04376,11.13282 11.06598,27.459 0.00197,38.62039c-11.06401,11.16136 -27.199,11.16731 -38.2812,-0.00425c-11.08221,-11.17156 -11.06086,-27.43256 -0.00257,-38.5882z" data-paper-data="{&quot;origRot&quot;:0,&quot;index&quot;:null}" opacity="0.42445"/><path d="M177.03273,165.52779c11.0583,-11.15564 27.23802,-11.16076 38.28179,-0.02794c11.04376,11.13282 11.06598,27.459 0.00197,38.62039c-11.06401,11.16136 -27.199,11.16731 -38.2812,-0.00425c-11.08221,-11.17156 -11.06086,-27.43256 -0.00257,-38.5882z" data-paper-data="{&quot;origRot&quot;:0,&quot;index&quot;:null}" opacity="0.42445"/></g><g fill="#ffffff" fill-rule="evenodd" stroke-linecap="round" stroke-linejoin="round"><path d="M178.03273,142.86112c11.0583,-11.15564 27.23802,-11.16076 38.28179,-0.02794c11.04376,11.13282 11.06598,27.459 0.00197,38.62039c-11.06401,11.16136 -27.199,11.16731 -38.2812,-0.00425c-11.08221,-11.17156 -11.06086,-27.43256 -0.00257,-38.5882z" data-paper-data="{&quot;origRot&quot;:0,&quot;index&quot;:null}" opacity="0.42445"/><path d="M178.03273,142.86112c11.0583,-11.15564 27.23802,-11.16076 38.28179,-0.02794c11.04376,11.13282 11.06598,27.459 0.00197,38.62039c-11.06401,11.16136 -27.199,11.16731 -38.2812,-0.00425c-11.08221,-11.17156 -11.06086,-27.43256 -0.00257,-38.5882z" data-paper-data="{&quot;origRot&quot;:0,&quot;index&quot;:null}" opacity="0.42445"/></g><g fill="#ffffff" fill-rule="evenodd" stroke-linecap="round" stroke-linejoin="round"><path d="M206.36606,127.86112c11.0583,-11.15564 27.23802,-11.16076 38.28179,-0.02794c11.04376,11.13282 11.06598,27.459 0.00197,38.62039c-11.06401,11.16136 -27.199,11.16731 -38.2812,-0.00425c-11.08221,-11.17156 -11.06086,-27.43256 -0.00257,-38.5882z" data-paper-data="{&quot;origRot&quot;:0,&quot;index&quot;:null}" opacity="0.42445"/><path d="M206.36606,127.86112c11.0583,-11.15564 27.23802,-11.16076 38.28179,-0.02794c11.04376,11.13282 11.06598,27.459 0.00197,38.62039c-11.06401,11.16136 -27.199,11.16731 -38.2812,-0.00425c-11.08221,-11.17156 -11.06086,-27.43256 -0.00257,-38.5882z" data-paper-data="{&quot;origRot&quot;:0,&quot;index&quot;:null}" opacity="0.42445"/></g><g fill="#ffffff" fill-rule="evenodd" stroke-linecap="round" stroke-linejoin="round"><path d="M253.36607,130.52779c11.0583,-11.15564 27.23802,-11.16076 38.28179,-0.02794c11.04376,11.13282 11.06598,27.459 0.00197,38.62039c-11.06401,11.16136 -27.199,11.16731 -38.2812,-0.00425c-11.08221,-11.17156 -11.06086,-27.43256 -0.00257,-38.5882z" data-paper-data="{&quot;origRot&quot;:0,&quot;index&quot;:null}" opacity="0.42445"/><path d="M253.36607,130.52779c11.0583,-11.15564 27.23802,-11.16076 38.28179,-0.02794c11.04376,11.13282 11.06598,27.459 0.00197,38.62039c-11.06401,11.16136 -27.199,11.16731 -38.2812,-0.00425c-11.08221,-11.17156 -11.06086,-27.43256 -0.00257,-38.5882z" data-paper-data="{&quot;origRot&quot;:0,&quot;index&quot;:null}" opacity="0.42445"/></g><g fill="#ffffff" fill-rule="evenodd" stroke-linecap="round" stroke-linejoin="round"><path d="M261.03273,142.19445c11.0583,-11.15564 27.23802,-11.16076 38.28179,-0.02794c11.04376,11.13282 11.06598,27.459 0.00197,38.62039c-11.06401,11.16136 -27.199,11.16731 -38.2812,-0.00425c-11.08221,-11.17156 -11.06086,-27.43256 -0.00257,-38.5882z" data-paper-data="{&quot;origRot&quot;:0,&quot;index&quot;:null}" opacity="0.42445"/><path d="M261.03273,142.19445c11.0583,-11.15564 27.23802,-11.16076 38.28179,-0.02794c11.04376,11.13282 11.06598,27.459 0.00197,38.62039c-11.06401,11.16136 -27.199,11.16731 -38.2812,-0.00425c-11.08221,-11.17156 -11.06086,-27.43256 -0.00257,-38.5882z" data-paper-data="{&quot;origRot&quot;:0,&quot;index&quot;:null}" opacity="0.42445"/></g><g fill="#ffffff" fill-rule="evenodd" stroke-linecap="round" stroke-linejoin="round"><path d="M269.6994,209.52778c11.0583,-11.15564 27.23802,-11.16076 38.28179,-0.02794c11.04376,11.13282 11.06598,27.459 0.00197,38.62039c-11.06401,11.16136 -27.199,11.16731 -38.2812,-0.00425c-11.08221,-11.17156 -11.06086,-27.43256 -0.00257,-38.5882z" data-paper-data="{&quot;origRot&quot;:0,&quot;index&quot;:null}" opacity="0.42445"/><path d="M269.6994,209.52778c11.0583,-11.15564 27.23802,-11.16076 38.28179,-0.02794c11.04376,11.13282 11.06598,27.459 0.00197,38.62039c-11.06401,11.16136 -27.199,11.16731 -38.2812,-0.00425c-11.08221,-11.17156 -11.06086,-27.43256 -0.00257,-38.5882z" data-paper-data="{&quot;origRot&quot;:0,&quot;index&quot;:null}" opacity="0.42445"/></g><g fill="#ffffff" fill-rule="evenodd" stroke-linecap="round" stroke-linejoin="round"><g><path d="M276.03273,138.94445c11.0583,-11.15564 27.23802,-11.16076 38.28179,-0.02794c11.04376,11.13282 11.06598,27.459 0.00197,38.62039c-11.06401,11.16136 -27.199,11.16731 -38.2812,-0.00425c-11.08221,-11.17156 -11.06086,-27.43256 -0.00257,-38.5882z" data-paper-data="{&quot;origRot&quot;:0,&quot;index&quot;:null}" opacity="0.42445"/><path d="M276.03273,138.94445c11.0583,-11.15564 27.23802,-11.16076 38.28179,-0.02794c11.04376,11.13282 11.06598,27.459 0.00197,38.62039c-11.06401,11.16136 -27.199,11.16731 -38.2812,-0.00425c-11.08221,-11.17156 -11.06086,-27.43256 -0.00257,-38.5882z" data-paper-data="{&quot;origRot&quot;:0,&quot;index&quot;:null}" opacity="0.42445"/></g><g><path d="M278.53273,141.94445c11.0583,-11.15564 27.23802,-11.16076 38.28179,-0.02794c11.04376,11.13282 11.06598,27.459 0.00197,38.62039c-11.06401,11.16136 -27.199,11.16731 -38.2812,-0.00425c-11.08221,-11.17156 -11.06086,-27.43256 -0.00257,-38.5882z" data-paper-data="{&quot;origRot&quot;:0,&quot;index&quot;:null}" opacity="0.42445"/><path d="M278.53273,141.94445c11.0583,-11.15564 27.23802,-11.16076 38.28179,-0.02794c11.04376,11.13282 11.06598,27.459 0.00197,38.62039c-11.06401,11.16136 -27.199,11.16731 -38.2812,-0.00425c-11.08221,-11.17156 -11.06086,-27.43256 -0.00257,-38.5882z" data-paper-data="{&quot;origRot&quot;:0,&quot;index&quot;:null}" opacity="0.42445"/></g></g><g fill="#ffffff" fill-rule="evenodd" stroke-linecap="round" stroke-linejoin="round"><g><path d="M288.03273,166.19445c11.0583,-11.15564 27.23802,-11.16076 38.28179,-0.02794c11.04376,11.13282 11.06598,27.459 0.00197,38.62039c-11.06401,11.16136 -27.199,11.16731 -38.2812,-0.00425c-11.08221,-11.17156 -11.06086,-27.43256 -0.00257,-38.5882z" data-paper-data="{&quot;origRot&quot;:0,&quot;index&quot;:null}" opacity="0.42445"/><path d="M288.03273,166.19445c11.0583,-11.15564 27.23802,-11.16076 38.28179,-0.02794c11.04376,11.13282 11.06598,27.459 0.00197,38.62039c-11.06401,11.16136 -27.199,11.16731 -38.2812,-0.00425c-11.08221,-11.17156 -11.06086,-27.43256 -0.00257,-38.5882z" data-paper-data="{&quot;origRot&quot;:0,&quot;index&quot;:null}" opacity="0.42445"/></g><g><path d="M290.53273,169.19445c11.0583,-11.15564 27.23802,-11.16076 38.28179,-0.02794c11.04376,11.13282 11.06598,27.459 0.00197,38.62039c-11.06401,11.16136 -27.199,11.16731 -38.2812,-0.00425c-11.08221,-11.17156 -11.06086,-27.43256 -0.00257,-38.5882z" data-paper-data="{&quot;origRot&quot;:0,&quot;index&quot;:null}" opacity="0.42445"/><path d="M290.53273,169.19445c11.0583,-11.15564 27.23802,-11.16076 38.28179,-0.02794c11.04376,11.13282 11.06598,27.459 0.00197,38.62039c-11.06401,11.16136 -27.199,11.16731 -38.2812,-0.00425c-11.08221,-11.17156 -11.06086,-27.43256 -0.00257,-38.5882z" data-paper-data="{&quot;origRot&quot;:0,&quot;index&quot;:null}" opacity="0.42445"/></g></g><g fill="#ffffff" fill-rule="evenodd" stroke-linecap="round" stroke-linejoin="round"><g><path d="M276.53273,191.69445c11.0583,-11.15564 27.23802,-11.16076 38.28179,-0.02794c11.04376,11.13282 11.06598,27.459 0.00197,38.62039c-11.06401,11.16136 -27.199,11.16731 -38.2812,-0.00425c-11.08221,-11.17156 -11.06086,-27.43256 -0.00257,-38.5882z" data-paper-data="{&quot;origRot&quot;:0,&quot;index&quot;:null}" opacity="0.42445"/><path d="M276.53273,191.69445c11.0583,-11.15564 27.23802,-11.16076 38.28179,-0.02794c11.04376,11.13282 11.06598,27.459 0.00197,38.62039c-11.06401,11.16136 -27.199,11.16731 -38.2812,-0.00425c-11.08221,-11.17156 -11.06086,-27.43256 -0.00257,-38.5882z" data-paper-data="{&quot;origRot&quot;:0,&quot;index&quot;:null}" opacity="0.42445"/></g><g><path d="M279.03273,194.69445c11.0583,-11.15564 27.23802,-11.16076 38.28179,-0.02794c11.04376,11.13282 11.06598,27.459 0.00197,38.62039c-11.06401,11.16136 -27.199,11.16731 -38.2812,-0.00425c-11.08221,-11.17156 -11.06086,-27.43256 -0.00257,-38.5882z" data-paper-data="{&quot;origRot&quot;:0,&quot;index&quot;:null}" opacity="0.42445"/><path d="M279.03273,194.69445c11.0583,-11.15564 27.23802,-11.16076 38.28179,-0.02794c11.04376,11.13282 11.06598,27.459 0.00197,38.62039c-11.06401,11.16136 -27.199,11.16731 -38.2812,-0.00425c-11.08221,-11.17156 -11.06086,-27.43256 -0.00257,-38.5882z" data-paper-data="{&quot;origRot&quot;:0,&quot;index&quot;:null}" opacity="0.42445"/></g></g><g fill="#ffffff" fill-rule="evenodd" stroke-linecap="round" stroke-linejoin="round"><g><path d="M252.53273,216.69445c11.0583,-11.15564 27.23802,-11.16076 38.28179,-0.02794c11.04376,11.13282 11.06598,27.459 0.00197,38.62039c-11.06401,11.16136 -27.199,11.16731 -38.2812,-0.00425c-11.08221,-11.17156 -11.06086,-27.43256 -0.00257,-38.5882z" data-paper-data="{&quot;origRot&quot;:0,&quot;index&quot;:null}" opacity="0.42445"/><path d="M252.53273,216.69445c11.0583,-11.15564 27.23802,-11.16076 38.28179,-0.02794c11.04376,11.13282 11.06598,27.459 0.00197,38.62039c-11.06401,11.16136 -27.199,11.16731 -38.2812,-0.00425c-11.08221,-11.17156 -11.06086,-27.43256 -0.00257,-38.5882z" data-paper-data="{&quot;origRot&quot;:0,&quot;index&quot;:null}" opacity="0.42445"/></g><g><path d="M255.03273,219.69445c11.0583,-11.15564 27.23802,-11.16076 38.28179,-0.02794c11.04376,11.13282 11.06598,27.459 0.00197,38.62039c-11.06401,11.16136 -27.199,11.16731 -38.2812,-0.00425c-11.08221,-11.17156 -11.06086,-27.43256 -0.00257,-38.5882z" data-paper-data="{&quot;origRot&quot;:0,&quot;index&quot;:null}" opacity="0.42445"/><path d="M255.03273,219.69445c11.0583,-11.15564 27.23802,-11.16076 38.28179,-0.02794c11.04376,11.13282 11.06598,27.459 0.00197,38.62039c-11.06401,11.16136 -27.199,11.16731 -38.2812,-0.00425c-11.08221,-11.17156 -11.06086,-27.43256 -0.00257,-38.5882z" data-paper-data="{&quot;origRot&quot;:0,&quot;index&quot;:null}" opacity="0.42445"/></g></g><g fill="#ffffff" fill-rule="evenodd" stroke-linecap="round" stroke-linejoin="round"><g><path d="M260.03273,205.69445c11.0583,-11.15564 27.23802,-11.16076 38.28179,-0.02794c11.04376,11.13282 11.06598,27.459 0.00197,38.62039c-11.06401,11.16136 -27.199,11.16731 -38.2812,-0.00425c-11.08221,-11.17156 -11.06086,-27.43256 -0.00257,-38.5882z" data-paper-data="{&quot;origRot&quot;:0,&quot;index&quot;:null}" opacity="0.42445"/><path d="M260.03273,205.69445c11.0583,-11.15564 27.23802,-11.16076 38.28179,-0.02794c11.04376,11.13282 11.06598,27.459 0.00197,38.62039c-11.06401,11.16136 -27.199,11.16731 -38.2812,-0.00425c-11.08221,-11.17156 -11.06086,-27.43256 -0.00257,-38.5882z" data-paper-data="{&quot;origRot&quot;:0,&quot;index&quot;:null}" opacity="0.42445"/></g><g><path d="M262.53273,208.69445c11.0583,-11.15564 27.23802,-11.16076 38.28179,-0.02794c11.04376,11.13282 11.06598,27.459 0.00197,38.62039c-11.06401,11.16136 -27.199,11.16731 -38.2812,-0.00425c-11.08221,-11.17156 -11.06086,-27.43256 -0.00257,-38.5882z" data-paper-data="{&quot;origRot&quot;:0,&quot;index&quot;:null}" opacity="0.42445"/><path d="M262.53273,208.69445c11.0583,-11.15564 27.23802,-11.16076 38.28179,-0.02794c11.04376,11.13282 11.06598,27.459 0.00197,38.62039c-11.06401,11.16136 -27.199,11.16731 -38.2812,-0.00425c-11.08221,-11.17156 -11.06086,-27.43256 -0.00257,-38.5882z" data-paper-data="{&quot;origRot&quot;:0,&quot;index&quot;:null}" opacity="0.42445"/></g></g><g fill="#ffffff" fill-rule="evenodd" stroke-linecap="round" stroke-linejoin="round"><g><path d="M235.53273,239.69445c11.0583,-11.15564 27.23802,-11.16076 38.28179,-0.02794c11.04376,11.13282 11.06598,27.459 0.00197,38.62039c-11.06401,11.16136 -27.199,11.16731 -38.2812,-0.00425c-11.08221,-11.17156 -11.06086,-27.43256 -0.00257,-38.5882z" data-paper-data="{&quot;origRot&quot;:0,&quot;index&quot;:null}" opacity="0.42445"/><path d="M235.53273,239.69445c11.0583,-11.15564 27.23802,-11.16076 38.28179,-0.02794c11.04376,11.13282 11.06598,27.459 0.00197,38.62039c-11.06401,11.16136 -27.199,11.16731 -38.2812,-0.00425c-11.08221,-11.17156 -11.06086,-27.43256 -0.00257,-38.5882z" data-paper-data="{&quot;origRot&quot;:0,&quot;index&quot;:null}" opacity="0.42445"/></g><g><path d="M238.03273,242.69445c11.0583,-11.15564 27.23802,-11.16076 38.28179,-0.02794c11.04376,11.13282 11.06598,27.459 0.00197,38.62039c-11.06401,11.16136 -27.199,11.16731 -38.2812,-0.00425c-11.08221,-11.17156 -11.06086,-27.43256 -0.00257,-38.5882z" data-paper-data="{&quot;origRot&quot;:0,&quot;index&quot;:null}" opacity="0.42445"/><path d="M238.03273,242.69445c11.0583,-11.15564 27.23802,-11.16076 38.28179,-0.02794c11.04376,11.13282 11.06598,27.459 0.00197,38.62039c-11.06401,11.16136 -27.199,11.16731 -38.2812,-0.00425c-11.08221,-11.17156 -11.06086,-27.43256 -0.00257,-38.5882z" data-paper-data="{&quot;origRot&quot;:0,&quot;index&quot;:null}" opacity="0.42445"/></g></g><g fill="#ffffff" fill-rule="evenodd" stroke-linecap="round" stroke-linejoin="round"><g><path d="M259.21435,223.2787c11.1127,11.10146 11.0551,27.28107 -0.12044,38.28161c-11.17554,11.00053 -27.50168,10.95947 -38.62011,-0.14772c-11.11839,-11.10719 -11.06181,-27.24208 0.15262,-38.2809c11.21443,-11.03883 27.47522,-10.95445 38.58792,0.14699z" data-paper-data="{&quot;origRot&quot;:0,&quot;index&quot;:null}" opacity="0.42445"/><path d="M259.21435,223.2787c11.1127,11.10146 11.0551,27.28107 -0.12044,38.28161c-11.17554,11.00053 -27.50168,10.95947 -38.62011,-0.14772c-11.11839,-11.10719 -11.06181,-27.24208 0.15262,-38.2809c11.21443,-11.03883 27.47522,-10.95445 38.58792,0.14699z" data-paper-data="{&quot;origRot&quot;:0,&quot;index&quot;:null}" opacity="0.42445"/></g><g><path d="M256.20468,225.76705c11.1127,11.10146 11.0551,27.28107 -0.12044,38.28161c-11.17554,11.00053 -27.50168,10.95947 -38.62011,-0.14772c-11.11839,-11.10719 -11.06181,-27.24208 0.15262,-38.2809c11.21443,-11.03883 27.47522,-10.95445 38.58792,0.14699z" data-paper-data="{&quot;origRot&quot;:0,&quot;index&quot;:null}" opacity="0.42445"/><path d="M256.20468,225.76705c11.1127,11.10146 11.0551,27.28107 -0.12044,38.28161c-11.17554,11.00053 -27.50168,10.95947 -38.62011,-0.14772c-11.11839,-11.10719 -11.06181,-27.24208 0.15262,-38.2809c11.21443,-11.03883 27.47522,-10.95445 38.58792,0.14699z" data-paper-data="{&quot;origRot&quot;:0,&quot;index&quot;:null}" opacity="0.42445"/></g></g><g fill="#ffffff" fill-rule="evenodd" stroke-linecap="round" stroke-linejoin="round"><g><path d="M245.27841,206.72456c11.1127,11.10146 11.0551,27.28107 -0.12044,38.28161c-11.17554,11.00053 -27.50168,10.95947 -38.62011,-0.14772c-11.11839,-11.10719 -11.06181,-27.24208 0.15262,-38.2809c11.21443,-11.03883 27.47522,-10.95445 38.58792,0.14699z" data-paper-data="{&quot;origRot&quot;:0,&quot;index&quot;:null}" opacity="0.42445"/><path d="M245.27841,206.72456c11.1127,11.10146 11.0551,27.28107 -0.12044,38.28161c-11.17554,11.00053 -27.50168,10.95947 -38.62011,-0.14772c-11.11839,-11.10719 -11.06181,-27.24208 0.15262,-38.2809c11.21443,-11.03883 27.47522,-10.95445 38.58792,0.14699z" data-paper-data="{&quot;origRot&quot;:0,&quot;index&quot;:null}" opacity="0.42445"/></g><g><path d="M242.26874,209.21291c11.1127,11.10146 11.0551,27.28107 -0.12044,38.28161c-11.17554,11.00053 -27.50168,10.95947 -38.62011,-0.14772c-11.11839,-11.10719 -11.06181,-27.24208 0.15262,-38.2809c11.21443,-11.03883 27.47522,-10.95445 38.58792,0.14699z" data-paper-data="{&quot;origRot&quot;:0,&quot;index&quot;:null}" opacity="0.42445"/><path d="M242.26874,209.21291c11.1127,11.10146 11.0551,27.28107 -0.12044,38.28161c-11.17554,11.00053 -27.50168,10.95947 -38.62011,-0.14772c-11.11839,-11.10719 -11.06181,-27.24208 0.15262,-38.2809c11.21443,-11.03883 27.47522,-10.95445 38.58792,0.14699z" data-paper-data="{&quot;origRot&quot;:0,&quot;index&quot;:null}" opacity="0.42445"/></g></g><g fill="#ffffff" fill-rule="evenodd" stroke-linecap="round" stroke-linejoin="round"><g><path d="M211.37362,182.09296c11.1127,11.10146 11.0551,27.28107 -0.12044,38.28161c-11.17554,11.00053 -27.50168,10.95947 -38.62011,-0.14772c-11.11839,-11.10719 -11.06181,-27.24208 0.15262,-38.2809c11.21443,-11.03883 27.47522,-10.95445 38.58792,0.14699z" data-paper-data="{&quot;origRot&quot;:0,&quot;index&quot;:null}" opacity="0.42445"/><path d="M211.37362,182.09296c11.1127,11.10146 11.0551,27.28107 -0.12044,38.28161c-11.17554,11.00053 -27.50168,10.95947 -38.62011,-0.14772c-11.11839,-11.10719 -11.06181,-27.24208 0.15262,-38.2809c11.21443,-11.03883 27.47522,-10.95445 38.58792,0.14699z" data-paper-data="{&quot;origRot&quot;:0,&quot;index&quot;:null}" opacity="0.42445"/></g><g><path d="M208.36396,184.58132c11.1127,11.10146 11.0551,27.28107 -0.12044,38.28161c-11.17554,11.00053 -27.50168,10.95947 -38.62011,-0.14772c-11.11839,-11.10719 -11.06181,-27.24208 0.15262,-38.2809c11.21443,-11.03883 27.47522,-10.95445 38.58792,0.14699z" data-paper-data="{&quot;origRot&quot;:0,&quot;index&quot;:null}" opacity="0.42445"/><path d="M208.36396,184.58132c11.1127,11.10146 11.0551,27.28107 -0.12044,38.28161c-11.17554,11.00053 -27.50168,10.95947 -38.62011,-0.14772c-11.11839,-11.10719 -11.06181,-27.24208 0.15262,-38.2809c11.21443,-11.03883 27.47522,-10.95445 38.58792,0.14699z" data-paper-data="{&quot;origRot&quot;:0,&quot;index&quot;:null}" opacity="0.42445"/></g></g><g fill="#ffffff" fill-rule="evenodd" stroke-linecap="round" stroke-linejoin="round"><g><path d="M243.21435,190.7787c11.1127,11.10145 11.05511,27.28108 -0.12044,38.28161c-11.17554,11.00052 -27.50168,10.95947 -38.62011,-0.14772c-11.11839,-11.10718 -11.0618,-27.24208 0.15263,-38.2809c11.21443,-11.03883 27.47523,-10.95445 38.58792,0.147z" data-paper-data="{&quot;origRot&quot;:0,&quot;index&quot;:null}" opacity="0.42445"/><path d="M243.21435,190.7787c11.1127,11.10145 11.05511,27.28108 -0.12044,38.28161c-11.17554,11.00052 -27.50168,10.95947 -38.62011,-0.14772c-11.11839,-11.10718 -11.0618,-27.24208 0.15263,-38.2809c11.21443,-11.03883 27.47523,-10.95445 38.58792,0.147z" data-paper-data="{&quot;origRot&quot;:0,&quot;index&quot;:null}" opacity="0.42445"/></g><g><path d="M240.20468,193.26705c11.1127,11.10145 11.0551,27.28108 -0.12044,38.28161c-11.17554,11.00052 -27.50168,10.95946 -38.62011,-0.14772c-11.11839,-11.10718 -11.0618,-27.24208 0.15263,-38.28089c11.21443,-11.03883 27.47522,-10.95445 38.58792,0.147z" data-paper-data="{&quot;origRot&quot;:0,&quot;index&quot;:null}" opacity="0.42445"/><path d="M240.20468,193.26705c11.1127,11.10145 11.0551,27.28108 -0.12044,38.28161c-11.17554,11.00052 -27.50168,10.95946 -38.62011,-0.14772c-11.11839,-11.10718 -11.0618,-27.24208 0.15263,-38.28089c11.21443,-11.03883 27.47522,-10.95445 38.58792,0.147z" data-paper-data="{&quot;origRot&quot;:0,&quot;index&quot;:null}" opacity="0.42445"/></g></g><g fill="#ffffff" fill-rule="evenodd" stroke-linecap="round" stroke-linejoin="round"><g><path d="M233.27841,178.22456c11.11269,11.10145 11.0551,27.28107 -0.12044,38.28161c-11.17554,11.00052 -27.50168,10.95947 -38.6201,-0.14772c-11.11839,-11.10718 -11.0618,-27.24208 0.15263,-38.2809c11.21443,-11.03883 27.47522,-10.95445 38.58792,0.147z" data-paper-data="{&quot;origRot&quot;:0,&quot;index&quot;:null}" opacity="0.42445"/><path d="M233.27841,178.22456c11.11269,11.10145 11.0551,27.28107 -0.12044,38.28161c-11.17554,11.00052 -27.50168,10.95947 -38.6201,-0.14772c-11.11839,-11.10718 -11.0618,-27.24208 0.15263,-38.2809c11.21443,-11.03883 27.47522,-10.95445 38.58792,0.147z" data-paper-data="{&quot;origRot&quot;:0,&quot;index&quot;:null}" opacity="0.42445"/></g><g><path d="M230.26874,180.71291c11.1127,11.10145 11.0551,27.28107 -0.12044,38.28161c-11.17554,11.00052 -27.50168,10.95946 -38.62011,-0.14772c-11.11839,-11.10718 -11.0618,-27.24208 0.15263,-38.28089c11.21443,-11.03883 27.47522,-10.95445 38.58792,0.147z" data-paper-data="{&quot;origRot&quot;:0,&quot;index&quot;:null}" opacity="0.42445"/><path d="M230.26874,180.71291c11.1127,11.10145 11.0551,27.28107 -0.12044,38.28161c-11.17554,11.00052 -27.50168,10.95946 -38.62011,-0.14772c-11.11839,-11.10718 -11.0618,-27.24208 0.15263,-38.28089c11.21443,-11.03883 27.47522,-10.95445 38.58792,0.147z" data-paper-data="{&quot;origRot&quot;:0,&quot;index&quot;:null}" opacity="0.42445"/></g></g><g fill="#ffffff" fill-rule="evenodd" stroke-linecap="round" stroke-linejoin="round"><g><path d="M199.37363,153.59297c11.1127,11.10145 11.0551,27.28107 -0.12044,38.28161c-11.17554,11.00053 -27.50168,10.95946 -38.6201,-0.14772c-11.11839,-11.10718 -11.0618,-27.24208 0.15263,-38.28089c11.21443,-11.03883 27.47522,-10.95445 38.58792,0.14699z" data-paper-data="{&quot;origRot&quot;:0,&quot;index&quot;:null}" opacity="0.42445"/><path d="M199.37363,153.59297c11.1127,11.10145 11.0551,27.28107 -0.12044,38.28161c-11.17554,11.00053 -27.50168,10.95946 -38.6201,-0.14772c-11.11839,-11.10718 -11.0618,-27.24208 0.15263,-38.28089c11.21443,-11.03883 27.47522,-10.95445 38.58792,0.14699z" data-paper-data="{&quot;origRot&quot;:0,&quot;index&quot;:null}" opacity="0.42445"/></g><g><path d="M196.36396,156.08131c11.1127,11.10145 11.0551,27.28108 -0.12044,38.28162c-11.17554,11.00053 -27.50168,10.95946 -38.62011,-0.14772c-11.11839,-11.10718 -11.0618,-27.24208 0.15263,-38.2809c11.21443,-11.03883 27.47522,-10.95446 38.58792,0.14699z" data-paper-data="{&quot;origRot&quot;:0,&quot;index&quot;:null}" opacity="0.42445"/><path d="M196.36396,156.08131c11.1127,11.10145 11.0551,27.28108 -0.12044,38.28162c-11.17554,11.00053 -27.50168,10.95946 -38.62011,-0.14772c-11.11839,-11.10718 -11.0618,-27.24208 0.15263,-38.2809c11.21443,-11.03883 27.47522,-10.95446 38.58792,0.14699z" data-paper-data="{&quot;origRot&quot;:0,&quot;index&quot;:null}" opacity="0.42445"/></g></g><g fill="#ffffff" fill-rule="evenodd" stroke-linecap="round" stroke-linejoin="round"><g><path d="M185.12775,93.45117c9.77055,-12.29922 25.85246,-14.07561 38.04863,-4.21875c12.19616,9.85687 14.00559,26.08248 4.23,38.38804c-9.77559,12.30553 -25.81295,14.07785 -38.05157,4.18669c-12.23863,-9.89117 -13.99761,-26.05676 -4.22707,-38.35598z" data-paper-data="{&quot;origRot&quot;:0,&quot;index&quot;:null}" opacity="0.42445"/><path d="M185.12775,93.45117c9.77055,-12.29922 25.85246,-14.07561 38.04863,-4.21875c12.19616,9.85687 14.00559,26.08248 4.23,38.38804c-9.77559,12.30553 -25.81295,14.07785 -38.05157,4.18669c-12.23863,-9.89117 -13.99761,-26.05676 -4.22707,-38.35598z" data-paper-data="{&quot;origRot&quot;:0,&quot;index&quot;:null}" opacity="0.42445"/></g><g><path d="M187.94115,96.15944c9.77055,-12.29922 25.85246,-14.07561 38.04863,-4.21874c12.19616,9.85687 14.00559,26.08248 4.23,38.38804c-9.77559,12.30553 -25.81295,14.07785 -38.05157,4.18669c-12.23863,-9.89117 -13.99761,-26.05676 -4.22707,-38.35598z" data-paper-data="{&quot;origRot&quot;:0,&quot;index&quot;:null}" opacity="0.42445"/><path d="M187.94115,96.15944c9.77055,-12.29922 25.85246,-14.07561 38.04863,-4.21874c12.19616,9.85687 14.00559,26.08248 4.23,38.38804c-9.77559,12.30553 -25.81295,14.07785 -38.05157,4.18669c-12.23863,-9.89117 -13.99761,-26.05676 -4.22707,-38.35598z" data-paper-data="{&quot;origRot&quot;:0,&quot;index&quot;:null}" opacity="0.42445"/></g></g><g fill="#ffffff" fill-rule="evenodd" stroke-linecap="round" stroke-linejoin="round"><g><path d="M170.2596,109.17339c9.77055,-12.29922 25.85246,-14.07561 38.04863,-4.21874c12.19616,9.85687 14.00559,26.08248 4.23,38.38804c-9.77559,12.30553 -25.81295,14.07785 -38.05157,4.18669c-12.23863,-9.89117 -13.99761,-26.05676 -4.22707,-38.35598z" data-paper-data="{&quot;origRot&quot;:0,&quot;index&quot;:null}" opacity="0.42445"/><path d="M170.2596,109.17339c9.77055,-12.29922 25.85246,-14.07561 38.04863,-4.21874c12.19616,9.85687 14.00559,26.08248 4.23,38.38804c-9.77559,12.30553 -25.81295,14.07785 -38.05157,4.18669c-12.23863,-9.89117 -13.99761,-26.05676 -4.22707,-38.35598z" data-paper-data="{&quot;origRot&quot;:0,&quot;index&quot;:null}" opacity="0.42445"/></g><g><path d="M173.073,111.88167c9.77055,-12.29922 25.85246,-14.07561 38.04863,-4.21875c12.19616,9.85687 14.00559,26.08248 4.23,38.38804c-9.77559,12.30553 -25.81295,14.07785 -38.05157,4.18669c-12.23863,-9.89117 -13.99761,-26.05676 -4.22707,-38.35598z" data-paper-data="{&quot;origRot&quot;:0,&quot;index&quot;:null}" opacity="0.42445"/><path d="M173.073,111.88167c9.77055,-12.29922 25.85246,-14.07561 38.04863,-4.21875c12.19616,9.85687 14.00559,26.08248 4.23,38.38804c-9.77559,12.30553 -25.81295,14.07785 -38.05157,4.18669c-12.23863,-9.89117 -13.99761,-26.05676 -4.22707,-38.35598z" data-paper-data="{&quot;origRot&quot;:0,&quot;index&quot;:null}" opacity="0.42445"/></g></g><g fill="#ffffff" fill-rule="evenodd" stroke-linecap="round" stroke-linejoin="round"><g><path d="M149.62908,145.65121c9.77055,-12.29922 25.85246,-14.07561 38.04863,-4.21874c12.19616,9.85687 14.00559,26.08248 4.23,38.38804c-9.77559,12.30553 -25.81295,14.07785 -38.05157,4.18669c-12.23863,-9.89117 -13.99761,-26.05676 -4.22707,-38.35598z" data-paper-data="{&quot;origRot&quot;:0,&quot;index&quot;:null}" opacity="0.42445"/><path d="M149.62908,145.65121c9.77055,-12.29922 25.85246,-14.07561 38.04863,-4.21874c12.19616,9.85687 14.00559,26.08248 4.23,38.38804c-9.77559,12.30553 -25.81295,14.07785 -38.05157,4.18669c-12.23863,-9.89117 -13.99761,-26.05676 -4.22707,-38.35598z" data-paper-data="{&quot;origRot&quot;:0,&quot;index&quot;:null}" opacity="0.42445"/></g><g><path d="M152.44248,148.35949c9.77055,-12.29922 25.85246,-14.07561 38.04864,-4.21875c12.19616,9.85687 14.00559,26.08248 4.23,38.38804c-9.77559,12.30553 -25.81295,14.07785 -38.05157,4.18669c-12.23863,-9.89117 -13.99761,-26.05676 -4.22708,-38.35598z" data-paper-data="{&quot;origRot&quot;:0,&quot;index&quot;:null}" opacity="0.42445"/><path d="M152.44248,148.35949c9.77055,-12.29922 25.85246,-14.07561 38.04864,-4.21875c12.19616,9.85687 14.00559,26.08248 4.23,38.38804c-9.77559,12.30553 -25.81295,14.07785 -38.05157,4.18669c-12.23863,-9.89117 -13.99761,-26.05676 -4.22708,-38.35598z" data-paper-data="{&quot;origRot&quot;:0,&quot;index&quot;:null}" opacity="0.42445"/></g></g><g fill="#ffffff" fill-rule="evenodd" stroke-linecap="round" stroke-linejoin="round"><g><path d="M253.62775,113.95117c9.77055,-12.29922 25.85246,-14.07561 38.04863,-4.21875c12.19617,9.85686 14.0056,26.08248 4.23001,38.38804c-9.7756,12.30553 -25.81296,14.07785 -38.05157,4.18669c-12.23863,-9.89117 -13.99761,-26.05676 -4.22707,-38.35598z" data-paper-data="{&quot;origRot&quot;:0,&quot;index&quot;:null}" opacity="0.42445"/><path d="M253.62775,113.95117c9.77055,-12.29922 25.85246,-14.07561 38.04863,-4.21875c12.19617,9.85686 14.0056,26.08248 4.23001,38.38804c-9.7756,12.30553 -25.81296,14.07785 -38.05157,4.18669c-12.23863,-9.89117 -13.99761,-26.05676 -4.22707,-38.35598z" data-paper-data="{&quot;origRot&quot;:0,&quot;index&quot;:null}" opacity="0.42445"/></g><g><path d="M256.44115,116.65944c9.77055,-12.29922 25.85246,-14.0756 38.04864,-4.21874c12.19616,9.85686 14.00559,26.08248 4.23,38.38804c-9.7756,12.30553 -25.81295,14.07785 -38.05157,4.18669c-12.23862,-9.89117 -13.99761,-26.05676 -4.22708,-38.35598z" data-paper-data="{&quot;origRot&quot;:0,&quot;index&quot;:null}" opacity="0.42445"/><path d="M256.44115,116.65944c9.77055,-12.29922 25.85246,-14.0756 38.04864,-4.21874c12.19616,9.85686 14.00559,26.08248 4.23,38.38804c-9.7756,12.30553 -25.81295,14.07785 -38.05157,4.18669c-12.23862,-9.89117 -13.99761,-26.05676 -4.22708,-38.35598z" data-paper-data="{&quot;origRot&quot;:0,&quot;index&quot;:null}" opacity="0.42445"/></g></g><g fill="#ffffff" fill-rule="evenodd" stroke-linecap="round" stroke-linejoin="round"><g><path d="M231.7596,122.17339c9.77054,-12.29922 25.85246,-14.07561 38.04863,-4.21874c12.19617,9.85686 14.00559,26.08248 4.23,38.38804c-9.77559,12.30553 -25.81295,14.07785 -38.05157,4.18669c-12.23863,-9.89117 -13.9976,-26.05676 -4.22707,-38.35598z" data-paper-data="{&quot;origRot&quot;:0,&quot;index&quot;:null}" opacity="0.42445"/><path d="M231.7596,122.17339c9.77054,-12.29922 25.85246,-14.07561 38.04863,-4.21874c12.19617,9.85686 14.00559,26.08248 4.23,38.38804c-9.77559,12.30553 -25.81295,14.07785 -38.05157,4.18669c-12.23863,-9.89117 -13.9976,-26.05676 -4.22707,-38.35598z" data-paper-data="{&quot;origRot&quot;:0,&quot;index&quot;:null}" opacity="0.42445"/></g><g><path d="M234.57301,124.88167c9.77054,-12.29922 25.85246,-14.07561 38.04863,-4.21875c12.19617,9.85686 14.00559,26.08249 4.23,38.38805c-9.77559,12.30553 -25.81295,14.07785 -38.05156,4.18668c-12.23863,-9.89117 -13.99761,-26.05676 -4.22708,-38.35598z" data-paper-data="{&quot;origRot&quot;:0,&quot;index&quot;:null}" opacity="0.42445"/><path d="M234.57301,124.88167c9.77054,-12.29922 25.85246,-14.07561 38.04863,-4.21875c12.19617,9.85686 14.00559,26.08249 4.23,38.38805c-9.77559,12.30553 -25.81295,14.07785 -38.05156,4.18668c-12.23863,-9.89117 -13.99761,-26.05676 -4.22708,-38.35598z" data-paper-data="{&quot;origRot&quot;:0,&quot;index&quot;:null}" opacity="0.42445"/></g></g><g fill="#ffffff" fill-rule="evenodd" stroke-linecap="round" stroke-linejoin="round"><g><path d="M204.62908,149.15121c9.77054,-12.29922 25.85245,-14.07561 38.04863,-4.21874c12.19617,9.85686 14.00559,26.08248 4.23,38.38804c-9.7756,12.30553 -25.81295,14.07785 -38.05157,4.18669c-12.23863,-9.89117 -13.9976,-26.05677 -4.22707,-38.35598z" data-paper-data="{&quot;origRot&quot;:0,&quot;index&quot;:null}" opacity="0.42445"/><path d="M204.62908,149.15121c9.77054,-12.29922 25.85245,-14.07561 38.04863,-4.21874c12.19617,9.85686 14.00559,26.08248 4.23,38.38804c-9.7756,12.30553 -25.81295,14.07785 -38.05157,4.18669c-12.23863,-9.89117 -13.9976,-26.05677 -4.22707,-38.35598z" data-paper-data="{&quot;origRot&quot;:0,&quot;index&quot;:null}" opacity="0.42445"/></g><g><path d="M207.44248,151.85949c9.77054,-12.29922 25.85246,-14.07561 38.04864,-4.21875c12.19617,9.85686 14.00559,26.08249 4.23,38.38805c-9.7756,12.30553 -25.81295,14.07785 -38.05157,4.18669c-12.23863,-9.89117 -13.99761,-26.05677 -4.22708,-38.35598z" data-paper-data="{&quot;origRot&quot;:0,&quot;index&quot;:null}" opacity="0.42445"/><path d="M207.44248,151.85949c9.77054,-12.29922 25.85246,-14.07561 38.04864,-4.21875c12.19617,9.85686 14.00559,26.08249 4.23,38.38805c-9.7756,12.30553 -25.81295,14.07785 -38.05157,4.18669c-12.23863,-9.89117 -13.99761,-26.05677 -4.22708,-38.35598z" data-paper-data="{&quot;origRot&quot;:0,&quot;index&quot;:null}" opacity="0.42445"/></g></g><path d="M199.89967,187.93405c0,2.34721 -1.90279,4.25 -4.25,4.25c-2.34721,0 -4.25,-1.90279 -4.25,-4.25c0,-2.34721 1.90279,-4.25 4.25,-4.25c2.34721,0 4.25,1.90279 4.25,4.25z" fill="#fce7af" fill-rule="nonzero" stroke-linecap="butt" stroke-linejoin="miter"/><path d="M227.89967,143.30905c0,2.69239 -2.18261,4.875 -4.875,4.875c-2.69239,0 -4.875,-2.18261 -4.875,-4.875c0,-2.69239 2.18261,-4.875 4.875,-4.875c2.69239,0 4.875,2.18261 4.875,4.875z" fill="#d8d8d8" fill-rule="nonzero" stroke-linecap="butt" stroke-linejoin="miter"/><path d="M291.14967,158.68405c0,3.17563 -2.57437,5.75 -5.75,5.75c-3.17564,0 -5.75,-2.57437 -5.75,-5.75c0,-3.17563 2.57436,-5.75 5.75,-5.75c3.17563,0 5.75,2.57437 5.75,5.75z" fill="#d8d8d8" fill-rule="nonzero" stroke-linecap="butt" stroke-linejoin="miter"/><path d="M287.64967,206.80905c0,3.38274 -2.74226,6.125 -6.125,6.125c-3.38274,0 -6.125,-2.74226 -6.125,-6.125c0,-3.38274 2.74226,-6.125 6.125,-6.125c3.38274,0 6.125,2.74226 6.125,6.125z" fill="#d8d8d8" fill-rule="nonzero" stroke-linecap="butt" stroke-linejoin="miter"/><path d="M288.64967,198.80905c0,2.96853 -2.40647,5.375 -5.375,5.375c-2.96853,0 -5.375,-2.40647 -5.375,-5.375c0,-2.96853 2.40647,-5.375 5.375,-5.375c2.96853,0 5.375,2.40647 5.375,5.375z" fill="#d8d8d8" fill-rule="nonzero" stroke-linecap="butt" stroke-linejoin="miter"/><path d="M280.39967,200.80905c0,3.1066 -2.5184,5.625 -5.625,5.625c-3.1066,0 -5.625,-2.5184 -5.625,-5.625c0,-3.1066 2.5184,-5.625 5.625,-5.625c3.1066,0 5.625,2.5184 5.625,5.625z" fill="#d8d8d8" fill-rule="nonzero" stroke-linecap="butt" stroke-linejoin="miter"/><path d="M255.89967,213.55905c0,1.58782 -1.28718,2.875 -2.875,2.875c-1.58782,0 -2.875,-1.28718 -2.875,-2.875c0,-1.58782 1.28718,-2.875 2.875,-2.875c1.58782,0 2.875,1.28718 2.875,2.875z" fill="#d8d8d8" fill-rule="nonzero" stroke-linecap="butt" stroke-linejoin="miter"/><path d="M255.89967,214.18405c0,3.17564 -2.57436,5.75 -5.75,5.75c-3.17564,0 -5.75,-2.57436 -5.75,-5.75c0,-3.17564 2.57436,-5.75 5.75,-5.75c3.17564,0 5.75,2.57436 5.75,5.75z" fill="#d8d8d8" fill-rule="nonzero" stroke-linecap="butt" stroke-linejoin="miter"/><path d="M229.64967,152.55905c0,3.38274 -2.74226,6.125 -6.125,6.125c-3.38274,0 -6.125,-2.74226 -6.125,-6.125c0,-3.38274 2.74226,-6.125 6.125,-6.125c3.38274,0 6.125,2.74226 6.125,6.125z" fill="#d8d8d8" fill-rule="nonzero" stroke-linecap="butt" stroke-linejoin="miter"/><path d="M229.14967,157.43405c0,1.933 -1.567,3.5 -3.5,3.5c-1.933,0 -3.5,-1.567 -3.5,-3.5c0,-1.933 1.567,-3.5 3.5,-3.5c1.933,0 3.5,1.567 3.5,3.5z" fill="#d8d8d8" fill-rule="nonzero" stroke-linecap="butt" stroke-linejoin="miter"/><path d="M227.89967,199.93405c0,3.72792 -3.02208,6.75 -6.75,6.75c-3.72792,0 -6.75,-3.02208 -6.75,-6.75c0,-3.72792 3.02208,-6.75 6.75,-6.75c3.72792,0 6.75,3.02208 6.75,6.75z" fill="#d8d8d8" fill-rule="nonzero" stroke-linecap="butt" stroke-linejoin="miter"/><path d="M232.14967,200.80905c0,2.27818 -1.84682,4.125 -4.125,4.125c-2.27818,0 -4.125,-1.84682 -4.125,-4.125c0,-2.27818 1.84682,-4.125 4.125,-4.125c2.27818,0 4.125,1.84682 4.125,4.125z" fill="#d8d8d8" fill-rule="nonzero" stroke-linecap="butt" stroke-linejoin="miter"/><path d="M228.39967,206.43405c0,2.48528 -2.01472,4.5 -4.5,4.5c-2.48528,0 -4.5,-2.01472 -4.5,-4.5c0,-2.48528 2.01472,-4.5 4.5,-4.5c2.48528,0 4.5,2.01472 4.5,4.5z" fill="#d8d8d8" fill-rule="nonzero" stroke-linecap="butt" stroke-linejoin="miter"/></g></g></svg>