<svg version="1.1" xmlns="http://www.w3.org/2000/svg" xmlns:xlink="http://www.w3.org/1999/xlink" width="30.31224" height="30.31224" viewBox="0,0,30.31224,30.31224"><g transform="translate(-304.02108,-157.78509)"><g stroke-miterlimit="10"><g><path d="M304.02108,180.57441c0,-3.10286 0,-9.87133 0,-15.23018c0,-4.21577 3.34842,-7.55914 7.5633,-7.55914c5.31219,0 12.0007,0 15.09658,0c3.22655,0 7.65236,3.27436 7.65236,7.42553c0,5.35587 0,12.17131 0,15.29698c0,3.20659 -3.39519,7.58973 -7.65236,7.58973c-5.30561,0 -11.95006,0 -15.02978,0c-3.21946,0 -7.6301,-4.33771 -7.6301,-7.52293z" fill-opacity="0.4902" fill="#ffffff" stroke="none" stroke-width="0" stroke-linecap="butt"/><path d="M309.33906,174.91532c0,-1.09948 0,-4.42594 0,-6.32363c0,-0.81379 0.70247,-1.36483 1.80563,-1.36483c3.50082,0 11.03688,0 12.96347,0c0.8779,0 1.77312,0.62494 1.77312,1.52292c0,1.8528 0,4.868 0,5.95476c0,0.77214 -0.6439,1.71245 -1.66772,1.71245c-3.47198,0 -11.31305,0 -13.22694,0c-0.82423,0 -1.64755,-0.80738 -1.64755,-1.50166z" fill="#ffffff" stroke="#009bff" stroke-width="1" stroke-linecap="butt"/><path d="M317.5866,176.53479v2.1208" fill="#00d9ff" stroke="#009bff" stroke-width="1" stroke-linecap="round"/><path d="M326.30544,170.22528c0,-0.42794 0,-1.52445 0,-2.26597c0,-0.42435 0.40725,-0.73246 0.70105,-0.73246c0.27289,0 0.8511,0 1.31743,0c0.38356,0 0.69143,0.37126 0.69143,0.67976c0,0.40754 0,1.49645 0,2.26597c0,0.47249 -0.3942,0.82457 -0.84952,0.82457c-0.4527,0 -0.96584,0 -1.21203,0c-0.27693,0 -0.64836,-0.4305 -0.64836,-0.77187z" fill="#ffffff" stroke="#009bff" stroke-width="1" stroke-linecap="butt"/><path d="M327.66027,178.76247l0.00023,-7.68628" fill="none" stroke="#009bff" stroke-width="1" stroke-linecap="round"/><path d="M315.49321,178.6556h4.18679" fill="#009bff" stroke="#009bff" stroke-width="1" stroke-linecap="round"/></g></g></g></svg>