<svg version="1.1" xmlns="http://www.w3.org/2000/svg" xmlns:xlink="http://www.w3.org/1999/xlink" width="28.8026" height="22.5687" viewBox="0,0,28.8026,22.5687"><g transform="translate(-214.82599,-168.21565)"><g data-paper-data="{&quot;isPaintingLayer&quot;:true}" fill-rule="nonzero" stroke-linecap="butt" stroke-linejoin="miter" stroke-miterlimit="10" stroke-dasharray="" stroke-dashoffset="0" style="mix-blend-mode: normal"><g fill="#000000" stroke="none" stroke-width="0"><path d="M219.26423,178.95571c0,-2.26695 1.8228,-4.10465 4.07131,-4.10465c2.24851,0 4.07131,1.8377 4.07131,4.10465c0,2.26695 -1.8228,4.10467 -4.07131,4.10467c-2.24851,0 -4.07131,-1.83773 -4.07131,-4.10467z"/><path d="M218.41368,189.26227c0,0 -1.1445,-5.63829 0.8769,-6.75692c1.28381,-0.71046 1.39645,1.17971 4.22572,1.07435c2.53574,-0.09443 3.00681,-2.03183 4.29273,-1.39009c1.98146,0.98889 0.75163,7.07268 0.75163,7.07268z"/></g><g fill="#000000" stroke="none"><path d="M225.86076,177.10778c0,-3.00819 2.4188,-5.44681 5.40253,-5.44681c2.98373,0 5.40253,2.43862 5.40253,5.44681c0,3.00819 -2.4188,5.44681 -5.40253,5.44681c-2.98373,0 -5.40253,-2.43862 -5.40253,-5.44681z" stroke-width="0.5"/><path d="M224.73209,190.78435c0,0 -1.51872,-7.48189 1.16362,-8.96629c1.70359,-0.94278 1.85307,1.56544 5.60745,1.42562c3.36487,-0.1253 3.98997,-2.69619 5.69633,-1.84461c2.62933,1.31221 0.9974,9.38527 0.9974,9.38527z" stroke-width="0"/></g><g fill="#000000" stroke="none"><path d="M233.95492,178.38288c0,-2.26695 1.8228,-4.10465 4.07131,-4.10465c2.24851,0 4.07131,1.8377 4.07131,4.10465c0,2.26695 -1.8228,4.10467 -4.07131,4.10467c-2.24851,0 -4.07131,-1.83773 -4.07131,-4.10467z" stroke-width="0.5"/><path d="M233.10437,188.68942c0,0 -1.1445,-5.63829 0.8769,-6.75692c1.28381,-0.71046 1.39645,1.17971 4.22572,1.07435c2.53574,-0.09443 3.00681,-2.03183 4.29273,-1.39009c1.98146,0.98889 0.75163,7.07268 0.75163,7.07268z" stroke-width="0"/></g><g fill="#ffffff" stroke="#000000" stroke-width="2"><path d="M216.99929,176.20415c0,-2.26695 1.8228,-4.10465 4.07131,-4.10465c2.24851,0 4.07131,1.8377 4.07131,4.10465c0,2.26695 -1.8228,4.10467 -4.07131,4.10467c-2.24851,0 -4.07131,-1.83773 -4.07131,-4.10467z"/><path d="M216.14874,186.5107c0,0 -1.1445,-5.63829 0.8769,-6.75692c1.28381,-0.71046 1.39645,1.17971 4.22572,1.07435c2.53574,-0.09443 3.00681,-2.03183 4.29273,-1.39009c1.98146,0.98889 0.75163,7.07268 0.75163,7.07268z"/></g><g fill="#ffffff" stroke="#000000" stroke-width="2"><path d="M231.37836,176.79073c0,-2.26695 1.8228,-4.10467 4.07131,-4.10467c2.24851,0 4.07131,1.83773 4.07131,4.10467c0,2.26695 -1.8228,4.10467 -4.07131,4.10467c-2.24851,0 -4.07131,-1.83773 -4.07131,-4.10467z"/><path d="M230.5278,187.09728c0,0 -1.1445,-5.63829 0.8769,-6.75692c1.28381,-0.71046 1.39645,1.17971 4.22572,1.07435c2.53574,-0.09443 3.00681,-2.03183 4.2927,-1.39009c1.98146,0.98886 0.75163,7.07266 0.75163,7.07266z"/></g><g fill="#ffffff" stroke="#000000" stroke-width="2"><path d="M223.03482,174.61906c0,-2.98422 2.4188,-5.40341 5.40253,-5.40341c2.98373,0 5.40253,2.41919 5.40253,5.40341c0,2.98422 -2.4188,5.40341 -5.40253,5.40341c-2.98373,0 -5.40253,-2.41919 -5.40253,-5.40341z"/><path d="M221.90615,188.18666c0,0 -1.51872,-7.42227 1.16362,-8.89484c1.70359,-0.93523 1.85307,1.55296 5.60745,1.41425c3.36487,-0.12432 3.98997,-2.67471 5.69633,-1.82992c2.62934,1.30175 0.9974,9.31047 0.9974,9.31047z"/></g></g></g></svg>