<svg version="1.1" xmlns="http://www.w3.org/2000/svg" xmlns:xlink="http://www.w3.org/1999/xlink" width="28.31328" height="28.2858" viewBox="0,0,28.31328,28.2858"><g transform="translate(-305.84336,-165.8571)"><g stroke-miterlimit="10"><path d="M305.84337,188.62603c0,-5.6877 0,-14.1412 0,-17.33465c0,-2.43576 3.41001,-5.43428 6.06713,-5.43428c3.1564,0 10.95801,0 16.42665,0c3.34659,0 5.81949,2.44116 5.81949,5.76446c0,5.59079 0,13.67816 0,16.83938c0,2.53317 -2.55553,5.69707 -5.98416,5.68191c-5.43157,-0.02401 -13.05431,-0.05503 -16.17944,-0.05503c-2.6853,0 -6.14968,-2.24814 -6.14968,-5.46179z" fill="#009bff" stroke="none" stroke-width="0" stroke-linecap="butt"/><path d="M316.21174,182.2656c0,-1.98987 1.61311,-3.60297 3.60297,-3.60297c1.98987,0 3.60297,1.6131 3.60297,3.60297c0,1.98987 -1.6131,3.60297 -3.60297,3.60297c-1.98987,0 -3.60297,-1.61311 -3.60297,-3.60297z" fill="none" stroke="#ffffff" stroke-width="1.5" stroke-linecap="butt"/><path d="M312.0117,181.9156c-0.00138,-4.45113 4.03009,-7.69876 7.70007,-7.78242c3.96042,-0.09029 8.10769,3.34594 8.27654,7.78242" fill="none" stroke="#ffffff" stroke-width="1.5" stroke-linecap="round"/></g></g></svg>