<svg version="1.1" xmlns="http://www.w3.org/2000/svg" xmlns:xlink="http://www.w3.org/1999/xlink" width="126.66009" height="26.12469" viewBox="0,0,126.66009,26.12469"><g transform="translate(-256.66995,-166.93766)"><g stroke-miterlimit="10"><path d="M256.66996,183.15408c0,-3.34658 0,-4.59851 0,-6.58568c0,-3.19815 3.7224,-9.63074 7.91747,-9.63074c13.3973,0 85.44876,0 110.30552,0c5.2855,0 8.43709,5.03166 8.43709,8.3286c0,1.94125 0,5.20603 0,8.41314c0,4.75486 -3.75,9.38295 -7.9697,9.38295c-13.07515,0 -84.24384,0 -110.77292,0c-6.51115,0 -7.91747,-5.1319 -7.91747,-9.90826z" fill-opacity="0.74902" fill="#dcdcdc" stroke="#000000" stroke-width="0"/><text transform="translate(264.16463,184.28957) scale(0.34909,0.34909)" font-size="40" xml:space="preserve" fill="#009fff" stroke="none" stroke-width="1" font-family="Sans Serif" font-weight="normal" text-anchor="start"><tspan x="0" dy="0">昵称演示</tspan></text><path d="M331.5566,187.31718v-15c0,0 32.59717,0 40.03146,0c2.8706,0 5.96854,2.37144 5.96854,4.94453c0,2.02167 0,4.16782 0,5.38605c0,1.86147 -2.61987,4.66942 -4.40361,4.66942c-6.27828,0 -41.59639,0 -41.59639,0z" fill-opacity="0.74902" fill="#00ff2d" stroke="#000000" stroke-width="0.5"/><text transform="translate(344.32297,183.13312) scale(0.25272,0.25272)" font-size="40" xml:space="preserve" fill-opacity="0.74902" fill="#000000" stroke="none" stroke-width="1" font-family="Sans Serif" font-weight="normal" text-anchor="start"><tspan x="0" dy="0">免费</tspan></text></g></g></svg>