<svg version="1.1" xmlns="http://www.w3.org/2000/svg" xmlns:xlink="http://www.w3.org/1999/xlink" width="368.30592" height="33.44995" viewBox="0,0,368.30592,33.44995"><defs><linearGradient x1="307.83984" y1="181.80495" x2="307.83984" y2="200.74375" gradientTransform="translate(-654.12284,-477.63412) scale(2.43683,2.43683)" gradientUnits="userSpaceOnUse" id="color-1"><stop offset="0" stop-color="#009fff"/><stop offset="1" stop-color="#d4d4d4"/></linearGradient></defs><g transform="translate(-55.84704,-167.89157)"><g stroke-miterlimit="10"><path d="M423.15296,168.91781c0,0 0,10.79308 0,14.87659c0,2.85814 -2.61494,7.28791 -7.40004,7.28791c-49.01627,0 -325.74702,0 -352.12121,0c-3.97681,0 -6.78467,-4.31976 -6.78467,-7.13639c0,-4.08736 0,-15.0281 0,-15.0281z" fill="#aee0ff" stroke="#009fff" stroke-width="2"/><path d="M57.81161,179.88308v-11.9915h364.22889v11.9915z" fill="#aee0ff" stroke="none" stroke-width="0"/><text transform="translate(268.43239,196.00672) scale(0.41037,0.41037)" font-size="40" xml:space="preserve" fill="#ffffff" stroke="#ffffff" stroke-width="2" font-family="Sans Serif" font-weight="normal" text-anchor="start"><tspan x="0" dy="0">Second AVS</tspan></text><text transform="translate(268.43239,196.00672) scale(0.41037,0.41037)" font-size="40" xml:space="preserve" fill="url(#color-1)" stroke="none" stroke-width="1" font-family="Sans Serif" font-weight="normal" text-anchor="start"><tspan x="0" dy="0">Second AVS</tspan></text><text transform="translate(361.02568,195.81691) scale(0.39455,0.39455)" font-size="40" xml:space="preserve" fill="#009fff" stroke="#ffffff" stroke-width="2" font-family="Sans Serif" font-weight="normal" text-anchor="start"><tspan x="0" dy="0">二周年</tspan></text><text transform="translate(361.02567,195.81693) scale(0.39455,0.39455)" font-size="40" xml:space="preserve" fill="#009fff" stroke="none" stroke-width="1" font-family="Sans Serif" font-weight="normal" text-anchor="start"><tspan x="0" dy="0">二周年</tspan></text></g></g></svg>