<svg version="1.1" xmlns="http://www.w3.org/2000/svg" xmlns:xlink="http://www.w3.org/1999/xlink" width="3813.98314" height="2640.63803" viewBox="0,0,3813.98314,2640.63803"><g transform="translate(1671.06593,1140.31902)"><g data-paper-data="{&quot;isPaintingLayer&quot;:true}" fill="none" fill-rule="nonzero" stroke="#000000" stroke-width="1" stroke-linecap="butt" stroke-linejoin="miter" stroke-miterlimit="10" stroke-dasharray="" stroke-dashoffset="0" style="mix-blend-mode: normal"><path d="M-1670.56593,-1139.81902h3812.98314v13.33254h-3812.98314z"/><path d="M-1670.56593,-1126.48647h3812.98314v13.33247h-3812.98314z"/><path d="M-1670.56593,-1113.154h3812.98314v13.33247h-3812.98314z"/><path d="M-1670.56593,-1099.8216h3812.98314v13.33247h-3812.98314z"/><path d="M-1670.56593,-1086.48912h3812.98314v13.33247h-3812.98314z"/><path d="M-1670.56593,-1073.15665h3812.98314v13.33247h-3812.98314z"/><path d="M-1670.56593,-1059.82418h3812.98314v13.33247h-3812.98314z"/><path d="M-1670.56593,-1046.49171h3812.98314v13.33247h-3812.98314z"/><path d="M-1670.56593,-1033.15923h3812.98314v13.33254h-3812.98314z"/><path d="M-1670.56593,-1019.82676h3812.98314v13.33247h-3812.98314z"/><path d="M-1670.56593,-1006.49429h3812.98314v13.33247h-3812.98314z"/><path d="M-1670.56593,-993.16188h3812.98314v13.33247h-3812.98314z"/><path d="M-1670.56593,-979.82941h3812.98314v13.33247h-3812.98314z"/><path d="M-1670.56593,-966.49694h3812.98314v13.33247h-3812.98314z"/><path d="M-1670.56593,-953.16447h3812.98314v13.33247h-3812.98314z"/><path d="M-1670.56593,-939.83199h3812.98314v13.33247h-3812.98314z"/><path d="M-1670.56593,-926.49952h3812.98314v13.33254h-3812.98314z"/><path d="M-1670.56593,-913.16698h3812.98314v13.33247h-3812.98314z"/><path d="M-1670.56593,-899.8345h3812.98314v13.33247h-3812.98314z"/><path d="M-1670.56593,-886.5021h3812.98314v13.33247h-3812.98314z"/><path d="M-1670.56593,-873.16963h3812.98314v13.33247h-3812.98314z"/><path d="M-1670.56593,-859.83716h3812.98314v13.33247h-3812.98314z"/><path d="M-1670.56593,-846.50468h3812.98314v13.33247h-3812.98314z"/><path d="M-1670.56593,-833.17221h3812.98314v13.3324h-3812.98314z"/><path d="M-1670.56593,-819.83981h3812.98314v13.33254h-3812.98314z"/><path d="M-1670.56593,-806.50727h3812.98314v13.33247h-3812.98314z"/><path d="M-1670.56593,-793.17479h3812.98314v13.33247h-3812.98314z"/><path d="M-1670.56593,-779.84239h3812.98314v13.33247h-3812.98314z"/><path d="M-1670.56593,-766.50992h3812.98314v13.33247h-3812.98314z"/><path d="M-1670.56593,-753.17744h3812.98314v13.33247h-3812.98314z"/><path d="M-1670.56593,-739.84497h3812.98314v13.33247h-3812.98314z"/><path d="M-1670.56593,-726.5125h3812.98314v13.33247h-3812.98314z"/><path d="M-1670.56593,-713.18003h3812.98314v13.33254h-3812.98314z"/><path d="M-1670.56593,-699.84748h3812.98314v13.33247h-3812.98314z"/><path d="M-1670.56593,-686.51501h3812.98314v13.33247h-3812.98314z"/><path d="M-1670.56593,-673.28613h3812.98314v13.33247h-3812.98314z"/><path d="M-1670.56593,-659.95366h3812.98314v13.33247h-3812.98314z"/><path d="M-1670.56593,-646.62118h3812.98314v13.33247h-3812.98314z"/><path d="M-1670.56593,-633.28871h3812.98314v13.33247h-3812.98314z"/><path d="M-1670.56593,-619.95624h3812.98314v13.3324h-3812.98314z"/><path d="M-1670.56593,-606.62384h3812.98314v13.33254h-3812.98314z"/><path d="M-1670.56593,-593.29129h3812.98314v13.33247h-3812.98314z"/><path d="M-1670.56593,-579.95882h3812.98314v13.33247h-3812.98314z"/><path d="M-1670.56593,-566.62642h3812.98314v13.33247h-3812.98314z"/><path d="M-1670.56593,-553.29394h3812.98314v13.33247h-3812.98314z"/><path d="M-1670.56593,-539.96147h3812.98314v13.33247h-3812.98314z"/><path d="M-1670.56593,-526.629h3812.98314v13.33247h-3812.98314z"/><path d="M-1670.56593,-513.29653h3812.98314v13.33247h-3812.98314z"/><path d="M-1670.56593,-499.96405h3812.98314v13.33254h-3812.98314z"/><path d="M-1670.56593,-486.63151h3812.98314v13.33247h-3812.98314z"/><path d="M-1670.56593,-473.29904h3812.98314v13.33247h-3812.98314z"/><path d="M-1670.56593,-459.96663h3812.98314v13.33247h-3812.98314z"/><path d="M-1670.56593,-446.63416h3812.98314v13.33247h-3812.98314z"/><path d="M-1670.56593,-433.30169h3812.98314v13.33247h-3812.98314z"/><path d="M-1670.56593,-419.96922h3812.98314v13.3324h-3812.98314z"/><path d="M-1670.56593,-406.63681h3812.98314v13.33247h-3812.98314z"/><path d="M-1670.56593,-393.30434h3812.98314v13.33254h-3812.98314z"/><path d="M-1670.56593,-379.9718h3812.98314v13.33247h-3812.98314z"/><path d="M-1670.56593,-366.63932h3812.98314v13.33247h-3812.98314z"/><path d="M-1670.56593,-353.30692h3812.98314v13.33247h-3812.98314z"/><path d="M-1670.56593,-339.97445h3812.98314v13.33247h-3812.98314z"/><path d="M-1670.56593,-326.64198h3812.98314v13.3324h-3812.98314z"/><path d="M-1670.56593,-313.3095h3812.98314v13.33247h-3812.98314z"/><path d="M-1670.56593,-299.97703h3812.98314v13.33247h-3812.98314z"/><path d="M-1670.56593,-286.64456h3812.98314v13.33254h-3812.98314z"/><path d="M-1670.56593,-273.31201h3812.98314v13.33247h-3812.98314z"/><path d="M-1670.56593,-259.97954h3812.98314v13.33247h-3812.98314z"/><path d="M-1670.56593,-246.64714h3812.98314v13.33247h-3812.98314z"/><path d="M-1670.56593,-233.31467h3812.98314v13.3324h-3812.98314z"/><path d="M-1670.56593,-219.98226h3812.98314v13.33247h-3812.98314z"/><path d="M-1670.56593,-206.64979h3812.98314v13.33247h-3812.98314z"/><path d="M-1670.56593,-193.31732h3812.98314v13.33247h-3812.98314z"/><path d="M-1670.56593,-179.98485h3812.98314v13.33254h-3812.98314z"/><path d="M-1670.56593,-166.6523h3812.98314v13.33247h-3812.98314z"/><path d="M-1670.56593,-153.31983h3812.98314v13.33247h-3812.98314z"/><path d="M-1670.56593,-139.98743h3812.98314v13.33247h-3812.98314z"/><path d="M-1670.56593,-126.65495h3812.98314v13.33247h-3812.98314z"/><path d="M-1670.56593,-113.32248h3812.98314v13.33247h-3812.98314z"/><path d="M-1670.56593,-99.99001h3812.98314v13.33247h-3812.98314z"/><path d="M-1670.56593,-86.65754h3812.98314v13.33247h-3812.98314z"/><path d="M-1670.56593,-73.32506h3812.98314v13.33254h-3812.98314z"/><path d="M-1670.56593,-59.99252h3812.98314v13.33247h-3812.98314z"/><path d="M-1670.56593,-46.66005h3812.98314v13.3324h-3812.98314z"/><path d="M-1670.56593,-33.32764h3812.98314v13.3324h-3812.98314z"/><path d="M-1670.56593,-19.99524h3812.98314v13.33247h-3812.98314z"/><path d="M-1670.56593,-6.66277h3812.98314v13.33247h-3812.98314z"/><path d="M-1670.56593,6.6697h3812.98314v13.33247h-3812.98314z"/><path d="M-1670.56593,20.00218h3812.98314v13.33247h-3812.98314z"/><path d="M-1670.56593,33.33465h3812.98314v13.33254h-3812.98314z"/><path d="M-1670.56593,46.66719h3812.98314v13.3324h-3812.98314z"/><path d="M-1670.56593,59.99966h3812.98314v13.33247h-3812.98314z"/><path d="M-1670.56593,73.33207h3812.98314v13.33247h-3812.98314z"/><path d="M-1670.56593,86.66454h3812.98314v13.33247h-3812.98314z"/><path d="M-1670.56593,99.99701h3812.98314v13.33247h-3812.98314z"/><path d="M-1670.56593,113.32949h3812.98314v13.33247h-3812.98314z"/><path d="M-1670.56593,126.66196h3812.98314v13.33247h-3812.98314z"/><path d="M-1670.56593,139.99443h3812.98314v13.33254h-3812.98314z"/><path d="M-1670.56593,153.32697h3812.98314v13.3324h-3812.98314z"/><path d="M-1670.56593,166.65938h3812.98314v13.33247h-3812.98314z"/><path d="M-1670.56593,180.00822h3812.98314v13.33247h-3812.98314z"/><path d="M-1670.56593,193.34069h3812.98314v13.33247h-3812.98314z"/><path d="M-1670.56593,206.67317h3812.98314v13.33247h-3812.98314z"/><path d="M-1670.56593,220.00557h3812.98314v13.33247h-3812.98314z"/><path d="M-1670.56593,233.33804h3812.98314v13.33247h-3812.98314z"/><path d="M-1670.56593,246.67051h3812.98314v13.33254h-3812.98314z"/><path d="M-1670.56593,260.00306h3812.98314v13.33247h-3812.98314z"/><path d="M-1670.56593,273.33553h3812.98314v13.33247h-3812.98314z"/><path d="M-1670.56593,286.66793h3812.98314v13.33247h-3812.98314z"/><path d="M-1670.56593,300.00041h3812.98314v13.33247h-3812.98314z"/><path d="M-1670.56593,313.33288h3812.98314v13.33247h-3812.98314z"/><path d="M-1670.56593,326.66535h3812.98314v13.33247h-3812.98314z"/><path d="M-1670.56593,339.99782h3812.98314v13.33247h-3812.98314z"/><path d="M-1670.56593,353.3303h3812.98314v13.33254h-3812.98314z"/><path d="M-1670.56593,366.66284h3812.98314v13.33247h-3812.98314z"/><path d="M-1670.56593,379.99531h3812.98314v13.33247h-3812.98314z"/><path d="M-1670.56593,393.32772h3812.98314v13.3324h-3812.98314z"/><path d="M-1670.56593,406.66012h3812.98314v13.33247h-3812.98314z"/><path d="M-1670.56593,419.99259h3812.98314v13.33247h-3812.98314z"/><path d="M-1670.56593,433.32506h3812.98314v13.33247h-3812.98314z"/><path d="M-1670.56593,446.65754h3812.98314v13.33247h-3812.98314z"/><path d="M-1670.56593,459.99001h3812.98314v13.33254h-3812.98314z"/><path d="M-1670.56593,473.32255h3812.98314v13.33247h-3812.98314z"/><path d="M-1670.56593,486.65503h3812.98314v13.3324h-3812.98314z"/><path d="M-1670.56593,499.98743h3812.98314v13.3324h-3812.98314z"/><path d="M-1670.56593,513.3199h3812.98314v13.33247h-3812.98314z"/><path d="M-1670.56593,526.65237h3812.98314v13.33247h-3812.98314z"/><path d="M-1670.56593,539.98485h3812.98314v13.33247h-3812.98314z"/><path d="M-1670.56593,553.31732h3812.98314v13.33247h-3812.98314z"/><path d="M-1670.56593,566.64979h3812.98314v13.33254h-3812.98314z"/><path d="M-1670.56593,579.98233h3812.98314v13.33247h-3812.98314z"/><path d="M-1670.56593,593.31474h3812.98314v13.33247h-3812.98314z"/><path d="M-1670.56593,606.64714h3812.98314v13.33247h-3812.98314z"/><path d="M-1670.56593,619.97961h3812.98314v13.33247h-3812.98314z"/><path d="M-1670.56593,633.31209h3812.98314v13.33247h-3812.98314z"/><path d="M-1670.56593,646.64456h3812.98314v13.33247h-3812.98314z"/><path d="M-1670.56593,659.97703h3812.98314v13.33247h-3812.98314z"/><path d="M-1670.56593,673.3095h3812.98314v13.33254h-3812.98314z"/><path d="M-1670.56593,686.64205h3812.98314v13.33247h-3812.98314z"/><path d="M-1670.56593,699.97452h3812.98314v13.33247h-3812.98314z"/><path d="M-1670.56593,713.30692h3812.98314v13.33247h-3812.98314z"/><path d="M-1670.56593,726.63939h3812.98314v13.33247h-3812.98314z"/><path d="M-1670.56593,739.97187h3812.98314v13.33247h-3812.98314z"/><path d="M-1670.56593,753.30434h3812.98314v13.33247h-3812.98314z"/><path d="M-1670.56593,766.63681h3812.98314v13.33247h-3812.98314z"/><path d="M-1670.56593,779.96929h3812.98314v13.33254h-3812.98314z"/><path d="M-1670.56593,793.30176h3812.98314v13.33247h-3812.98314z"/><path d="M-1670.56593,806.63423h3812.98314v13.33247h-3812.98314z"/><path d="M-1670.56593,819.96663h3812.98314v13.33247h-3812.98314z"/><path d="M-1670.56593,833.29911h3812.98314v13.33247h-3812.98314z"/><path d="M-1670.56593,846.63158h3812.98314v13.33247h-3812.98314z"/><path d="M-1670.56593,859.96405h3812.98314v13.33247h-3812.98314z"/><path d="M-1670.56593,873.29653h3812.98314v13.33247h-3812.98314z"/><path d="M-1670.56593,886.629h3812.98314v13.33254h-3812.98314z"/><path d="M-1670.56593,899.96154h3812.98314v13.33247h-3812.98314z"/><path d="M-1670.56593,913.29401h3812.98314v13.33247h-3812.98314z"/><path d="M-1670.56593,926.62642h3812.98314v13.33247h-3812.98314z"/><path d="M-1670.56593,939.95889h3812.98314v13.33247h-3812.98314z"/><path d="M-1670.56593,953.29136h3812.98314v13.33247h-3812.98314z"/><path d="M-1670.56593,966.62384h3812.98314v13.33247h-3812.98314z"/><path d="M-1670.56593,979.95631h3812.98314v13.33247h-3812.98314z"/><path d="M-1670.56593,993.28871h3812.98314v13.33254h-3812.98314z"/><path d="M-1670.56593,1006.62125h3812.98314v13.33247h-3812.98314z"/><path d="M-1670.56593,1019.95373h3812.98314v13.33247h-3812.98314z"/><path d="M-1670.56593,1033.18261h3812.98314v13.33247h-3812.98314z"/><path d="M-1670.56593,1046.51508h3812.98314v13.33247h-3812.98314z"/><path d="M-1670.56593,1059.84755h3812.98314v13.33247h-3812.98314z"/><path d="M-1670.56593,1073.18003h3812.98314v13.33247h-3812.98314z"/><path d="M-1670.56593,1086.5125h3812.98314v13.33247h-3812.98314z"/><path d="M-1670.56593,1099.84497h3812.98314v13.33254h-3812.98314z"/><path d="M-1670.56593,1113.17752h3812.98314v13.33247h-3812.98314z"/><path d="M-1670.56593,1126.50999h3812.98314v13.33247h-3812.98314z"/><path d="M-1670.56593,1139.84239h3812.98314v13.33247h-3812.98314z"/><path d="M-1670.56593,1153.17486h3812.98314v13.3324h-3812.98314z"/><path d="M-1670.56593,1166.50727h3812.98314v13.33247h-3812.98314z"/><path d="M-1670.56593,1179.83974h3812.98314v13.33247h-3812.98314z"/><path d="M-1670.56593,1193.17221h3812.98314v13.33247h-3812.98314z"/><path d="M-1670.56593,1206.50468h3812.98314v13.33254h-3812.98314z"/><path d="M-1670.56593,1219.83723h3812.98314v13.33247h-3812.98314z"/><path d="M-1670.56593,1233.1697h3812.98314v13.33247h-3812.98314z"/><path d="M-1670.56593,1246.5021h3812.98314v13.3324h-3812.98314z"/><path d="M-1670.56593,1259.83457h3812.98314v13.33247h-3812.98314z"/><path d="M-1670.56593,1273.16705h3812.98314v13.33247h-3812.98314z"/><path d="M-1670.56593,1286.49952h3812.98314v13.33247h-3812.98314z"/><path d="M-1670.56593,1299.83199h3812.98314v13.33247h-3812.98314z"/><path d="M-1670.56593,1313.16447h3812.98314v13.33254h-3812.98314z"/><path d="M-1670.56593,1326.49701h3812.98314v13.33247h-3812.98314z"/><path d="M-1670.56593,1339.82948h3812.98314v13.33247h-3812.98314z"/><path d="M-1670.56593,1353.16188h3812.98314v13.33247h-3812.98314z"/><path d="M-1670.56593,1366.49429h3812.98314v13.33247h-3812.98314z"/><path d="M-1670.56593,1379.82676h3812.98314v13.33247h-3812.98314z"/><path d="M-1670.56593,1393.15923h3812.98314v13.33247h-3812.98314z"/><path d="M-1670.56593,1406.49171h3812.98314v13.33247h-3812.98314z"/><path d="M-1670.56593,1419.82418h3812.98314v13.33254h-3812.98314z"/><path d="M-1670.56593,1433.15672h3812.98314v13.33247h-3812.98314z"/><path d="M-1670.56593,1446.48919h3812.98314v13.33247h-3812.98314z"/><path d="M-1670.56593,1459.8216h3812.98314v13.33247h-3812.98314z"/><path d="M-1670.56593,1473.15407h3812.98314v13.33247h-3812.98314z"/><path d="M-1670.56593,1486.48654h3812.98314v13.33247h-3812.98314z"/><g><path d="M-1479.79129,1476.59588v-2606.29679h13.33247v2606.29679z"/><path d="M-1466.45882,1476.59588v-2606.29679h13.33247v2606.29679z"/><path d="M-1453.12634,1476.59588v-2606.29679h13.33247v2606.29679z"/><path d="M-1439.79387,1476.59588v-2606.29679h13.33247v2606.29679z"/><path d="M-1426.4614,1476.59588v-2606.29679h13.33247v2606.29679z"/><path d="M-1413.12892,1476.59588v-2606.29679h13.33254v2606.29679z"/><path d="M-1399.79645,1476.59588v-2606.29679h13.33247v2606.29679z"/><path d="M-1386.46398,1476.59588v-2606.29679h13.33247v2606.29679z"/><path d="M-1373.13158,1476.59588v-2606.29679h13.33247v2606.29679z"/><path d="M-1359.7991,1476.59588v-2606.29679h13.33247v2606.29679z"/><path d="M-1346.46663,1476.59588v-2606.29679h13.33247v2606.29679z"/><path d="M-1333.13416,1476.59588v-2606.29679h13.33247v2606.29679z"/><path d="M-1319.80169,1476.59588v-2606.29679h13.33247v2606.29679z"/><path d="M-1306.46921,1476.59588v-2606.29679h13.33254v2606.29679z"/><path d="M-1293.13667,1476.59588v-2606.29679h13.33247v2606.29679z"/><path d="M-1279.8042,1476.59588v-2606.29679h13.33247v2606.29679z"/><path d="M-1266.47179,1476.59588v-2606.29679h13.33247v2606.29679z"/><path d="M-1253.13932,1476.59588v-2606.29679h13.33247v2606.29679z"/><path d="M-1239.80685,1476.59588v-2606.29679h13.33247v2606.29679z"/><path d="M-1226.47438,1476.59588v-2606.29679h13.33247v2606.29679z"/><path d="M-1213.1419,1476.59588v-2606.29679h13.33247v2606.29679z"/><path d="M-1199.8095,1476.59588v-2606.29679h13.33254v2606.29679z"/><path d="M-1186.47696,1476.59588v-2606.29679h13.33247v2606.29679z"/><path d="M-1173.14448,1476.59588v-2606.29679h13.33247v2606.29679z"/><path d="M-1159.81208,1476.59588v-2606.29679h13.33247v2606.29679z"/><path d="M-1146.47961,1476.59588v-2606.29679h13.33247v2606.29679z"/><path d="M-1133.14714,1476.59588v-2606.29679h13.33247v2606.29679z"/><path d="M-1119.81466,1476.59588v-2606.29679h13.33247v2606.29679z"/><path d="M-1106.48219,1476.59588v-2606.29679h13.33247v2606.29679z"/><path d="M-1093.14972,1476.59588v-2606.29679h13.33254v2606.29679z"/><path d="M-1079.81717,1476.59588v-2606.29679h13.33247v2606.29679z"/><path d="M-1066.4847,1476.59588v-2606.29679h13.33247v2606.29679z"/><path d="M-1053.1523,1476.59588v-2606.29679h13.33247v2606.29679z"/><path d="M-1039.81983,1476.59588v-2606.29679h13.33247v2606.29679z"/><path d="M-1026.48735,1476.59588v-2606.29679h13.33247v2606.29679z"/><path d="M-1013.15495,1476.59588v-2606.29679h13.33247v2606.29679z"/><path d="M-999.82248,1476.59588v-2606.29679h13.33247v2606.29679z"/><path d="M-986.49001,1476.59588v-2606.29679h13.33254v2606.29679z"/><path d="M-973.15746,1476.59588v-2606.29679h13.33247v2606.29679z"/><path d="M-959.82499,1476.59588v-2606.29679h13.33247v2606.29679z"/><path d="M-946.49259,1476.59588v-2606.29679h13.33247v2606.29679z"/><path d="M-933.16011,1476.59588v-2606.29679h13.33247v2606.29679z"/><path d="M-919.82764,1476.59588v-2606.29679h13.33247v2606.29679z"/><path d="M-906.49517,1476.59588v-2606.29679h13.33247v2606.29679z"/><path d="M-893.1627,1476.59588v-2606.29679h13.33247v2606.29679z"/><path d="M-879.83022,1476.59588v-2606.29679h13.33254v2606.29679z"/><path d="M-866.49768,1476.59588v-2606.29679h13.33247v2606.29679z"/><path d="M-853.16521,1476.59588v-2606.29679h13.33247v2606.29679z"/><path d="M-839.8328,1476.59588v-2606.29679h13.33247v2606.29679z"/><path d="M-826.50033,1476.59588v-2606.29679h13.33247v2606.29679z"/><path d="M-813.16793,1476.59588v-2606.29679h13.33247v2606.29679z"/><path d="M-799.83546,1476.59588v-2606.29679h13.33247v2606.29679z"/><path d="M-786.50298,1476.59588v-2606.29679h13.33247v2606.29679z"/><path d="M-773.17051,1476.59588v-2606.29679h13.33254v2606.29679z"/><path d="M-759.83797,1476.59588v-2606.29679h13.33247v2606.29679z"/><path d="M-746.5055,1476.59588v-2606.29679h13.33247v2606.29679z"/><path d="M-733.17309,1476.59588v-2606.29679h13.33247v2606.29679z"/><path d="M-719.84062,1476.59588v-2606.29679h13.33247v2606.29679z"/><path d="M-706.50815,1476.59588v-2606.29679h13.33247v2606.29679z"/><path d="M-693.17567,1476.59588v-2606.29679h13.33247v2606.29679z"/><path d="M-679.8432,1476.59588v-2606.29679h13.33247v2606.29679z"/><path d="M-666.51073,1476.59588v-2606.29679h13.33254v2606.29679z"/><path d="M-653.17819,1476.59588v-2606.29679h13.33247v2606.29679z"/><path d="M-639.84578,1476.59588v-2606.29679h13.33247v2606.29679z"/><path d="M-626.61683,1476.59588v-2606.29679h13.33247v2606.29679z"/><path d="M-613.28436,1476.59588v-2606.29679h13.33247v2606.29679z"/><path d="M-599.95196,1476.59588v-2606.29679h13.33247v2606.29679z"/><path d="M-586.61948,1476.59588v-2606.29679h13.33247v2606.29679z"/><path d="M-573.28701,1476.59588v-2606.29679h13.33247v2606.29679z"/><path d="M-559.95454,1476.59588v-2606.29679h13.33254v2606.29679z"/><path d="M-546.62199,1476.59588v-2606.29679h13.33247v2606.29679z"/><path d="M-533.28952,1476.59588v-2606.29679h13.33247v2606.29679z"/><path d="M-519.95712,1476.59588v-2606.29679h13.33247v2606.29679z"/><path d="M-506.62465,1476.59588v-2606.29679h13.33247v2606.29679z"/><path d="M-493.29217,1476.59588v-2606.29679h13.33247v2606.29679z"/><path d="M-479.9597,1476.59588v-2606.29679h13.33247v2606.29679z"/><path d="M-466.62723,1476.59588v-2606.29679h13.33247v2606.29679z"/><path d="M-453.29476,1476.59588v-2606.29679h13.33254v2606.29679z"/><path d="M-439.96221,1476.59588v-2606.29679h13.33247v2606.29679z"/><path d="M-426.62974,1476.59588v-2606.29679h13.33247v2606.29679z"/><path d="M-413.29741,1476.59588v-2606.29679h13.33247v2606.29679z"/><path d="M-399.96493,1476.59588v-2606.29679h13.33247v2606.29679z"/><path d="M-386.63246,1476.59588v-2606.29679h13.33247v2606.29679z"/><path d="M-373.29999,1476.59588v-2606.29679h13.33247v2606.29679z"/><path d="M-359.96752,1476.59588v-2606.29679h13.33247v2606.29679z"/><path d="M-346.63504,1476.59588v-2606.29679h13.33254v2606.29679z"/><path d="M-333.3025,1476.59588v-2606.29679h13.33247v2606.29679z"/><path d="M-319.97003,1476.59588v-2606.29679h13.33247v2606.29679z"/><path d="M-306.63762,1476.59588v-2606.29679h13.33247v2606.29679z"/><path d="M-293.30515,1476.59588v-2606.29679h13.33247v2606.29679z"/><path d="M-279.97268,1476.59588v-2606.29679h13.33247v2606.29679z"/><path d="M-266.64021,1476.59588v-2606.29679h13.33247v2606.29679z"/><path d="M-253.30773,1476.59588v-2606.29679h13.33247v2606.29679z"/><path d="M-239.97526,1476.59588v-2606.29679h13.33254v2606.29679z"/><path d="M-226.64279,1476.59588v-2606.29679h13.33247v2606.29679z"/><path d="M-213.31032,1476.59588v-2606.29679h13.33247v2606.29679z"/><path d="M-199.97791,1476.59588v-2606.29679h13.33247v2606.29679z"/><path d="M-186.64544,1476.59588v-2606.29679h13.33247v2606.29679z"/><path d="M-173.31297,1476.59588v-2606.29679h13.33247v2606.29679z"/><path d="M-159.98049,1476.59588v-2606.29679h13.33247v2606.29679z"/><path d="M-146.64802,1476.59588v-2606.29679h13.33247v2606.29679z"/><path d="M-133.31555,1476.59588v-2606.29679h13.33254v2606.29679z"/><path d="M-119.98301,1476.59588v-2606.29679h13.33247v2606.29679z"/><path d="M-106.65053,1476.59588v-2606.29679h13.33247v2606.29679z"/><path d="M-93.31813,1476.59588v-2606.29679h13.33247v2606.29679z"/><path d="M-79.98566,1476.59588v-2606.29679h13.33247v2606.29679z"/><path d="M-66.65318,1476.59588v-2606.29679h13.33247v2606.29679z"/><path d="M-53.32071,1476.59588v-2606.29679h13.33247v2606.29679z"/><path d="M-39.98824,1476.59588v-2606.29679h13.33247v2606.29679z"/><path d="M-26.65584,1476.59588v-2606.29679h13.33254v2606.29679z"/><path d="M-13.32329,1476.59588v-2606.29679h13.33247v2606.29679z"/><path d="M0.00918,1476.59588v-2606.29679h13.33247v2606.29679z"/><path d="M13.34158,1476.59588v-2606.29679h13.33247v2606.29679z"/><path d="M26.67405,1476.59588v-2606.29679h13.33247v2606.29679z"/><path d="M40.00653,1476.59588v-2606.29679h13.33247v2606.29679z"/><path d="M53.339,1476.59588v-2606.29679h13.33247v2606.29679z"/><path d="M66.67147,1476.59588v-2606.29679h13.33247v2606.29679z"/><path d="M80.00395,1476.59588v-2606.29679h13.33254v2606.29679z"/><path d="M93.33649,1476.59588v-2606.29679h13.33247v2606.29679z"/><path d="M106.66896,1476.59588v-2606.29679h13.33247v2606.29679z"/><path d="M120.00136,1476.59588v-2606.29679h13.33247v2606.29679z"/><path d="M133.33384,1476.59588v-2606.29679h13.33247v2606.29679z"/><path d="M146.66631,1476.59588v-2606.29679h13.33247v2606.29679z"/><path d="M159.99878,1476.59588v-2606.29679h13.33247v2606.29679z"/><path d="M173.33118,1476.59588v-2606.29679h13.33247v2606.29679z"/><path d="M186.66366,1476.59588v-2606.29679h13.33254v2606.29679z"/><path d="M199.9962,1476.59588v-2606.29679h13.33247v2606.29679z"/><path d="M213.32867,1476.59588v-2606.29679h13.33247v2606.29679z"/><path d="M226.67745,1476.59588v-2606.29679h13.33247v2606.29679z"/><path d="M240.00992,1476.59588v-2606.29679h13.33247v2606.29679z"/><path d="M253.34239,1476.59588v-2606.29679h13.33247v2606.29679z"/><path d="M266.67487,1476.59588v-2606.29679h13.33247v2606.29679z"/><path d="M280.00734,1476.59588v-2606.29679h13.33247v2606.29679z"/><path d="M293.33981,1476.59588v-2606.29679h13.33254v2606.29679z"/><path d="M306.67236,1476.59588v-2606.29679h13.33247v2606.29679z"/><path d="M320.00483,1476.59588v-2606.29679h13.33247v2606.29679z"/><path d="M333.33723,1476.59588v-2606.29679h13.33247v2606.29679z"/><path d="M346.6697,1476.59588v-2606.29679h13.33247v2606.29679z"/><path d="M360.00218,1476.59588v-2606.29679h13.33247v2606.29679z"/><path d="M373.33465,1476.59588v-2606.29679h13.33247v2606.29679z"/><path d="M386.66712,1476.59588v-2606.29679h13.33247v2606.29679z"/><path d="M399.99959,1476.59588v-2606.29679h13.33254v2606.29679z"/><path d="M413.33207,1476.59588v-2606.29679h13.33247v2606.29679z"/><path d="M426.66454,1476.59588v-2606.29679h13.33247v2606.29679z"/><path d="M439.99694,1476.59588v-2606.29679h13.33247v2606.29679z"/><path d="M453.32941,1476.59588v-2606.29679h13.33247v2606.29679z"/><path d="M466.66189,1476.59588v-2606.29679h13.33247v2606.29679z"/><path d="M479.99436,1476.59588v-2606.29679h13.33247v2606.29679z"/><path d="M493.32683,1476.59588v-2606.29679h13.33247v2606.29679z"/><path d="M506.65931,1476.59588v-2606.29679h13.33254v2606.29679z"/><path d="M519.99185,1476.59588v-2606.29679h13.33247v2606.29679z"/><path d="M533.32432,1476.59588v-2606.29679h13.33247v2606.29679z"/><path d="M546.65672,1476.59588v-2606.29679h13.33247v2606.29679z"/><path d="M559.9892,1476.59588v-2606.29679h13.33247v2606.29679z"/><path d="M573.32167,1476.59588v-2606.29679h13.33247v2606.29679z"/><path d="M586.65414,1476.59588v-2606.29679h13.33247v2606.29679z"/><path d="M599.98655,1476.59588v-2606.29679h13.33247v2606.29679z"/><path d="M613.31902,1476.59588v-2606.29679h13.33254v2606.29679z"/><path d="M626.65156,1476.59588v-2606.29679h13.33247v2606.29679z"/><path d="M639.98403,1476.59588v-2606.29679h13.33247v2606.29679z"/><path d="M653.31644,1476.59588v-2606.29679h13.33247v2606.29679z"/><path d="M666.64891,1476.59588v-2606.29679h13.33247v2606.29679z"/><path d="M679.98138,1476.59588v-2606.29679h13.33247v2606.29679z"/><path d="M693.31386,1476.59588v-2606.29679h13.33247v2606.29679z"/><path d="M706.64633,1476.59588v-2606.29679h13.33247v2606.29679z"/><path d="M719.9788,1476.59588v-2606.29679h13.33254v2606.29679z"/><path d="M733.31134,1476.59588v-2606.29679h13.33247v2606.29679z"/><path d="M746.64382,1476.59588v-2606.29679h13.33247v2606.29679z"/><path d="M759.97622,1476.59588v-2606.29679h13.33247v2606.29679z"/><path d="M773.30869,1476.59588v-2606.29679h13.33247v2606.29679z"/><path d="M786.64116,1476.59588v-2606.29679h13.33247v2606.29679z"/><path d="M799.97357,1476.59588v-2606.29679h13.33247v2606.29679z"/><path d="M813.30604,1476.59588v-2606.29679h13.33247v2606.29679z"/><path d="M826.63851,1476.59588v-2606.29679h13.33254v2606.29679z"/><path d="M839.97106,1476.59588v-2606.29679h13.33247v2606.29679z"/><path d="M853.30353,1476.59588v-2606.29679h13.33247v2606.29679z"/><path d="M866.63593,1476.59588v-2606.29679h13.33247v2606.29679z"/><path d="M879.9684,1476.59588v-2606.29679h13.33247v2606.29679z"/><path d="M893.30088,1476.59588v-2606.29679h13.33247v2606.29679z"/><path d="M906.63335,1476.59588v-2606.29679h13.33247v2606.29679z"/><path d="M919.96582,1476.59588v-2606.29679h13.33247v2606.29679z"/><path d="M933.2983,1476.59588v-2606.29679h13.33254v2606.29679z"/><path d="M946.63084,1476.59588v-2606.29679h13.33247v2606.29679z"/><path d="M959.96331,1476.59588v-2606.29679h13.33247v2606.29679z"/><path d="M973.29571,1476.59588v-2606.29679h13.33247v2606.29679z"/><path d="M986.62812,1476.59588v-2606.29679h13.33247v2606.29679z"/><path d="M999.96059,1476.59588v-2606.29679h13.33247v2606.29679z"/><path d="M1013.29306,1476.59588v-2606.29679h13.33247v2606.29679z"/><path d="M1026.62553,1476.59588v-2606.29679h13.33247v2606.29679z"/><path d="M1039.95801,1476.59588v-2606.29679h13.33254v2606.29679z"/><path d="M1053.29055,1476.59588v-2606.29679h13.33247v2606.29679z"/><path d="M1066.62302,1476.59588v-2606.29679h13.33247v2606.29679z"/><path d="M1079.8519,1476.59588v-2606.29679h13.33247v2606.29679z"/><path d="M1093.18438,1476.59588v-2606.29679h13.33247v2606.29679z"/><path d="M1106.51685,1476.59588v-2606.29679h13.33247v2606.29679z"/><path d="M1119.84932,1476.59588v-2606.29679h13.33247v2606.29679z"/><path d="M1133.1818,1476.59588v-2606.29679h13.33247v2606.29679z"/><path d="M1146.51427,1476.59588v-2606.29679h13.33254v2606.29679z"/><path d="M1159.84674,1476.59588v-2606.29679h13.33247v2606.29679z"/><path d="M1173.17921,1476.59588v-2606.29679h13.33247v2606.29679z"/><path d="M1186.51162,1476.59588v-2606.29679h13.33247v2606.29679z"/><path d="M1199.84409,1476.59588v-2606.29679h13.33247v2606.29679z"/><path d="M1213.17656,1476.59588v-2606.29679h13.33247v2606.29679z"/><path d="M1226.50904,1476.59588v-2606.29679h13.33247v2606.29679z"/><path d="M1239.84151,1476.59588v-2606.29679h13.33247v2606.29679z"/><path d="M1253.17398,1476.59588v-2606.29679h13.33254v2606.29679z"/><path d="M1266.50652,1476.59588v-2606.29679h13.33247v2606.29679z"/><path d="M1279.839,1476.59588v-2606.29679h13.33247v2606.29679z"/><path d="M1293.1714,1476.59588v-2606.29679h13.33247v2606.29679z"/><path d="M1306.50387,1476.59588v-2606.29679h13.33247v2606.29679z"/><path d="M1319.83634,1476.59588v-2606.29679h13.33247v2606.29679z"/><path d="M1333.16882,1476.59588v-2606.29679h13.33247v2606.29679z"/><path d="M1346.50129,1476.59588v-2606.29679h13.33247v2606.29679z"/><path d="M1359.83369,1476.59588v-2606.29679h13.33254v2606.29679z"/><path d="M1373.16624,1476.59588v-2606.29679h13.33247v2606.29679z"/><path d="M1386.49871,1476.59588v-2606.29679h13.33247v2606.29679z"/><path d="M1399.83111,1476.59588v-2606.29679h13.33247v2606.29679z"/><path d="M1413.16358,1476.59588v-2606.29679h13.33247v2606.29679z"/><path d="M1426.49606,1476.59588v-2606.29679h13.33247v2606.29679z"/><path d="M1439.82853,1476.59588v-2606.29679h13.33247v2606.29679z"/><path d="M1453.161,1476.59588v-2606.29679h13.33247v2606.29679z"/><path d="M1466.49348,1476.59588v-2606.29679h13.33254v2606.29679z"/><path d="M1479.82602,1476.59588v-2606.29679h13.33247v2606.29679z"/><path d="M1493.15849,1476.59588v-2606.29679h13.33247v2606.29679z"/><path d="M1506.49089,1476.59588v-2606.29679h13.33247v2606.29679z"/><path d="M1519.82337,1476.59588v-2606.29679h13.33247v2606.29679z"/><path d="M1533.15584,1476.59588v-2606.29679h13.33247v2606.29679z"/><path d="M1546.48831,1476.59588v-2606.29679h13.33247v2606.29679z"/><path d="M1559.82071,1476.59588v-2606.29679h13.33247v2606.29679z"/><path d="M1573.15319,1476.59588v-2606.29679h13.33254v2606.29679z"/><path d="M1586.48573,1476.59588v-2606.29679h13.33247v2606.29679z"/><path d="M1599.8182,1476.59588v-2606.29679h13.33247v2606.29679z"/><path d="M1613.15061,1476.59588v-2606.29679h13.33247v2606.29679z"/><path d="M1626.48308,1476.59588v-2606.29679h13.33247v2606.29679z"/><path d="M1639.81555,1476.59588v-2606.29679h13.33247v2606.29679z"/><path d="M1653.14802,1476.59588v-2606.29679h13.33247v2606.29679z"/><path d="M1666.4805,1476.59588v-2606.29679h13.33247v2606.29679z"/><path d="M1679.81297,1476.59588v-2606.29679h13.33254v2606.29679z"/><path d="M1693.14551,1476.59588v-2606.29679h13.33247v2606.29679z"/><path d="M1706.47799,1476.59588v-2606.29679h13.33247v2606.29679z"/><path d="M1719.81039,1476.59588v-2606.29679h13.33247v2606.29679z"/><path d="M1733.14286,1476.59588v-2606.29679h13.33247v2606.29679z"/><path d="M1746.47526,1476.59588v-2606.29679h13.33247v2606.29679z"/><path d="M1759.80774,1476.59588v-2606.29679h13.33247v2606.29679z"/><path d="M1773.14021,1476.59588v-2606.29679h13.33247v2606.29679z"/><path d="M1786.47268,1476.59588v-2606.29679h13.33254v2606.29679z"/><path d="M1799.80523,1476.59588v-2606.29679h13.33247v2606.29679z"/><path d="M1813.1377,1476.59588v-2606.29679h13.33247v2606.29679z"/><path d="M1826.4701,1476.59588v-2606.29679h13.33247v2606.29679z"/><path d="M1839.80257,1476.59588v-2606.29679h13.33247v2606.29679z"/><path d="M1853.13505,1476.59588v-2606.29679h13.33247v2606.29679z"/><path d="M1866.46752,1476.59588v-2606.29679h13.33247v2606.29679z"/><path d="M1879.79999,1476.59588v-2606.29679h13.33247v2606.29679z"/><path d="M1893.13246,1476.59588v-2606.29679h13.33254v2606.29679z"/><path d="M1906.46501,1476.59588v-2606.29679h13.33247v2606.29679z"/><path d="M1919.79748,1476.59588v-2606.29679h13.33247v2606.29679z"/></g></g></g></svg>