<svg version="1.1" xmlns="http://www.w3.org/2000/svg" xmlns:xlink="http://www.w3.org/1999/xlink" width="22.24556" height="23.36147" viewBox="0,0,22.24556,23.36147"><g transform="translate(-233.21917,-168.72482)"><g data-paper-data="{&quot;isPaintingLayer&quot;:true}" fill-rule="nonzero" stroke-width="1.5" stroke-linecap="butt" stroke-linejoin="miter" stroke-miterlimit="10" stroke-dasharray="" stroke-dashoffset="0" style="mix-blend-mode: normal"><g><path d="M235.51144,177.44511l2.79524,-4.32379c0,0 -0.87763,-3.59114 0.55736,-3.53665c2.42917,0.09224 9.81194,0.37257 9.81194,0.37257l0.21064,7.43625z" fill="#8e6d4a" stroke="#1c1a1f"/><path d="M246.34571,172.68888c0.57159,-2.27543 2.87953,-3.65664 5.15496,-3.08505c2.27543,0.57159 3.65664,2.87953 3.08505,5.15496c-0.57159,2.27543 -2.87953,3.65663 -5.15496,3.08505c-2.27543,-0.57159 -3.65665,-2.87953 -3.08505,-5.15496z" fill="#dbac68" stroke="#181714"/></g><g><path d="M237.64478,186.57845l-2.87143,-3.79046l13.23596,0.50258l0.21064,7.43626c0,0 -7.22525,0.02789 -9.68945,0.0374c-1.5198,0.00587 -0.88572,-4.18578 -0.88572,-4.18578z" fill="#8e6d4a" stroke="#1c1a1f"/><path d="M245.67904,186.02221c0.57159,-2.27543 2.87954,-3.65664 5.15496,-3.08506c2.27543,0.57159 3.65664,2.87954 3.08505,5.15496c-0.57159,2.27543 -2.87953,3.65663 -5.15496,3.08505c-2.27543,-0.57159 -3.65665,-2.87953 -3.08505,-5.15496z" fill="#dbac68" stroke="#181714"/></g></g></g></svg>