<svg version="1.1" xmlns="http://www.w3.org/2000/svg" xmlns:xlink="http://www.w3.org/1999/xlink" width="1204.74743" height="670.07789" viewBox="0,0,1204.74743,670.07789"><g transform="translate(-37.28312,-25.71296)"><g stroke-miterlimit="10"><path d="M37.78312,671.82448c0,-108.57315 0,-559.51069 0,-621.11041c0,-13.66908 9.87973,-24.50111 23.74089,-24.50111c88.91759,0 992.97453,0 1155.16111,0c16.05973,0 24.84543,8.85614 24.84543,24.50111c0,109.90198 0,554.81307 0,618.0953c0,14.67522 -8.47223,26.48148 -23.98398,26.48148c-160.34844,0 -1072.9281,0 -1155.16111,0c-14.33145,0 -24.60234,-8.46542 -24.60234,-23.46639z" fill="#ffffff" stroke="#009bff" stroke-width="1"/><path d="M99.68468,622.59497v-523.68613h1079.94432v523.68613z" fill="none" stroke="#000000" stroke-width="2.5"/><text transform="translate(101.30504,72.27476) scale(0.69521,0.69521)" font-size="40" xml:space="preserve" fill="#000000" stroke="none" stroke-width="1" font-family="&quot;WJH2&quot;, Sans Serif" font-weight="normal" text-anchor="start"><tspan x="0" dy="0">康康作者的新视频</tspan></text><text transform="translate(215.09608,350.10327) scale(0.92296,0.92296)" font-size="40" xml:space="preserve" fill="#000000" stroke="none" stroke-width="1" font-family="Sans Serif" font-weight="normal" text-anchor="start"><tspan x="0" dy="0">如果你能看到这里的文本，那说明网页还正在加载中</tspan><tspan x="0" dy="46.15px">           加载速度受当前设备的网速和性能影响</tspan></text></g></g></svg>