<svg version="1.1" xmlns="http://www.w3.org/2000/svg" xmlns:xlink="http://www.w3.org/1999/xlink" width="352.75594" height="31.92857" viewBox="0,0,352.75594,31.92857"><g transform="translate(-224.16157,-67.2864)"><g stroke-miterlimit="10"><path d="M224.16158,90.63313c0,-5.13321 0,-11.37755 0,-14.36715c0,-3.30315 3.48615,-7.89908 8.16925,-7.89908c25.67887,0 251.09416,0 298.83666,0c5.69335,0 8.86005,3.42398 8.86005,7.6878c0,5.15351 0,11.53392 0,14.57843c0,3.33503 -2.93231,8.00137 -8.2262,8.00137c-46.19809,0 -272.24218,0 -298.83666,0c-5.01894,0 -8.8031,-3.59047 -8.8031,-8.00137z" fill-opacity="0.74902" fill="#ffffff" stroke="none" stroke-width="0" stroke-linecap="butt"/><path d="M544.98894,90.95069c0,-5.63674 0,-12.64143 0,-15.85714c0,-3.31744 4.46071,-7.80714 7.76429,-7.80714c3.34632,0 10.81638,0 16.57143,0c4.26805,0 7.59286,4.48971 7.59286,7.80714c0,3.24293 0,10.33928 0,16c0,4.51796 -4.53812,8.12143 -7.87857,8.12143c-3.36422,0 -10.84106,0 -16.57143,0c-4.2108,0 -7.47857,-3.67967 -7.47857,-8.26429z" fill="#ffffff" stroke="#000000" stroke-width="0" stroke-linecap="butt"/><g fill="none" stroke="#000000" stroke-width="2"><path d="M551.50803,80.64887c0,-3.83081 3.10549,-6.9363 6.9363,-6.9363c3.83081,0 6.9363,3.10549 6.9363,6.9363c0,3.83081 -3.10549,6.9363 -6.9363,6.9363c-3.83081,0 -6.9363,-3.10549 -6.9363,-6.9363z" stroke-linecap="butt"/><path d="M570.39841,92.78881l-6.72058,-6.72058" stroke-linecap="round"/></g></g></g></svg>