<svg version="1.1" xmlns="http://www.w3.org/2000/svg" xmlns:xlink="http://www.w3.org/1999/xlink" width="101.84659" height="31.27632" viewBox="0,0,101.84659,31.27632"><g transform="translate(-269.0767,-164.36184)"><g stroke-miterlimit="10"><path d="M277.27489,167.38479c21.1639,-0.00432 72.73017,-0.02045 84.95799,-0.02295c3.10722,-0.00063 5.68567,2.99417 5.68614,5.58518c0.00074,4.0717 0.00296,6.82935 0.00428,14.10496c0.0006,3.31009 -1.9535,5.58629 -5.36243,5.58618c-21.44525,-0.00067 -72.89605,-0.00315 -84.95799,-0.00352c-3.02489,-0.0001 -5.5197,-2.34889 -5.52052,-5.74669c-0.00176,-7.34759 -0.00468,-10.0882 -0.00565,-14.10495c-0.0006,-2.5184 1.89071,-5.39752 5.19818,-5.39819z" fill="#000000" fill-rule="evenodd" stroke="#000000" stroke-width="6" stroke-linecap="round" stroke-linejoin="round" opacity="0.42445"/><path d="M277.27489,167.38479c21.1639,-0.00432 72.73017,-0.02045 84.95799,-0.02295c3.10722,-0.00063 5.68567,2.99417 5.68614,5.58518c0.00074,4.0717 0.00296,6.82935 0.00428,14.10496c0.0006,3.31009 -1.9535,5.58629 -5.36243,5.58618c-21.44525,-0.00067 -72.89605,-0.00315 -84.95799,-0.00352c-3.02489,-0.0001 -5.5197,-2.34889 -5.52052,-5.74669c-0.00176,-7.34759 -0.00468,-10.0882 -0.00565,-14.10495c-0.0006,-2.5184 1.89071,-5.39752 5.19818,-5.39819z" fill="#000000" fill-rule="evenodd" stroke="#000000" stroke-width="0" stroke-linecap="round" stroke-linejoin="round" opacity="0.42445"/><text transform="translate(305.91404,184.22579) scale(0.35215,0.35215)" font-size="40" xml:space="preserve" fill="#ffffff" fill-rule="nonzero" stroke="#ffffff" stroke-width="1" stroke-linecap="butt" stroke-linejoin="miter" font-family="Sans Serif" font-weight="normal" text-anchor="start"><tspan x="0" dy="0">返回</tspan></text></g></g></svg>