<svg version="1.1" xmlns="http://www.w3.org/2000/svg" xmlns:xlink="http://www.w3.org/1999/xlink" width="211.00752" height="225.29038" viewBox="0,0,211.00752,225.29038"><g transform="translate(-214.1552,-67.35481)"><g stroke="none" stroke-miterlimit="10"><path d="M222.34898,82.37805v157.74402c0,4.14855 3.36307,7.51162 7.51162,7.51162h30.08731c4.68262,0 9.09746,2.18342 11.93957,5.90488l12.01463,15.73195c1.42106,1.86073 3.62848,2.95244 5.96978,2.95244h60.25629c2.34131,0 4.54873,-1.09171 5.96978,-2.95244l12.01463,-15.73195c2.84212,-3.72146 7.25695,-5.90488 11.93957,-5.90488h30.08731c4.14855,0 7.51162,-3.36307 7.51162,-7.51162v-157.74402c0,-4.14855 -3.36307,-7.51162 -7.51162,-7.51162h-180.27888c-4.14855,0 -7.51162,3.36307 -7.51162,7.51162zM214.83735,82.37805c0,-8.29711 6.72613,-15.02324 15.02324,-15.02324h180.27888c8.29711,0 15.02324,6.72613 15.02324,15.02324v157.74402c0,8.29711 -6.72613,15.02324 -15.02324,15.02324h-30.08731c-2.34131,0 -4.54873,1.09171 -5.96979,2.95244l-12.01463,15.73195c-2.84212,3.72146 -7.25695,5.90488 -11.93957,5.90488h-60.25629c-4.68262,0 -9.09745,-2.18342 -11.93957,-5.90488l-12.01463,-15.73195c-1.42106,-1.86073 -3.62848,-2.95244 -5.96978,-2.95244h-30.08731c-8.29711,0 -15.02324,-6.72613 -15.02324,-15.02324z" fill-opacity="0.2" fill="#ffffff" fill-rule="nonzero"/><path d="M409.45734,229.30629c8.29711,0 15.02324,6.72613 15.02324,15.02324v7.05997c0,8.29711 -6.72613,15.02324 -15.02324,15.02324h-26.59661c-2.18995,0 -4.27086,0.9557 -5.69789,2.61688l-15.79081,18.38182c-2.85405,3.32235 -7.01587,5.23375 -11.39578,5.23375h-61.31671c-4.37991,0 -8.54173,-1.9114 -11.39578,-5.23375l-15.79081,-18.38182c-1.42702,-1.66118 -3.50793,-2.61688 -5.69789,-2.61688h-26.59661c-8.29711,0 -15.02324,-6.72613 -15.02324,-15.02324v-3.8407c0,-8.19254 6.56377,-14.87457 14.75501,-15.02085z" fill="#cc3c3c" fill-rule="evenodd"/><path d="M229.86061,67.35481h180.27888c8.29711,0 15.02324,6.72613 15.02324,15.02324v157.74402c0,8.29711 -6.72613,15.02324 -15.02324,15.02324h-30.08731c-2.34131,0 -4.54873,1.09171 -5.96979,2.95244l-12.01463,15.73195c-2.84212,3.72146 -7.25695,5.90488 -11.93957,5.90488h-60.25629c-4.68262,0 -9.09745,-2.18342 -11.93957,-5.90488l-12.01463,-15.73195c-1.42106,-1.86073 -3.62848,-2.95244 -5.96978,-2.95244h-30.08731c-8.29711,0 -15.02324,-6.72613 -15.02324,-15.02324v-157.74402c0,-8.29711 6.72613,-15.02324 15.02324,-15.02324z" fill-opacity="0.34118" fill="#ff4d4d" fill-rule="evenodd"/></g></g></svg>