<svg version="1.1" xmlns="http://www.w3.org/2000/svg" xmlns:xlink="http://www.w3.org/1999/xlink" width="600.48702" height="254.95583" viewBox="0,0,600.48702,254.95583"><g transform="translate(-19.72728,-6.81446)"><g stroke-miterlimit="10"><path d="M19.92891,135.38376c0,-5.12679 0,-12.18202 0,-15.13889c0,-2.62763 2.33786,-6.05622 5.84888,-6.05622c29.1953,0 409.12177,0 470.11112,0c5.34046,0 8.2355,3.15047 8.2355,7.02844c0,4.4922 0,9.9606 0,12.63889c0,3.06651 -2.49475,7.42627 -7.12439,7.42627c-57.15296,0 -439.66274,0 -470.52778,0c-3.90515,0 -6.54332,-2.53397 -6.54332,-5.89849z" fill-opacity="0.70196" fill="#ffffff" stroke="none" stroke-width="0"/><path d="M144.9402,214.45212c0,-4.1201 0,-8.8215 0,-11.29545c0,-3.23343 3.57935,-7.98561 7.91099,-7.98561c17.31588,0 130.93357,0 160.25415,0c4.39387,0 6.89469,3.29328 6.89469,7.27964c0,4.36707 0,9.56592 0,12.17791c0,3.12993 -2.9046,7.63605 -7.95364,7.63605c-30.98426,0 -142.72508,0 -159.54819,0c-4.15588,0 -7.558,-3.60285 -7.558,-7.81254z" fill-opacity="0.70196" fill="#ffffff" stroke="#000000" stroke-width="0"/><path d="M327.22729,253.48643c0,-4.17702 0,-8.95225 0,-11.48148c0,-3.34089 3.55349,-8.28889 8.25698,-8.28889c24.84074,0 235.29697,0 277.30758,0c4.68877,0 7.27928,3.44018 7.27928,7.54815c0,4.26503 0,9.24988 0,11.85186c0,3.33445 -2.72566,8.26666 -7.6457,8.26666c-42.85248,0 -252.17181,0 -276.94115,0c-4.70349,0 -8.25698,-3.63717 -8.25698,-7.89629z" fill-opacity="0.70196" fill="#ffffff" stroke="#000000" stroke-width="0"/><text transform="translate(152.0732,213.55198) scale(0.35064,0.35954)" font-size="40" xml:space="preserve" fill="#000000" stroke="none" stroke-width="1" font-family="Sans Serif" font-weight="normal" text-anchor="start"><tspan x="0" dy="0">加入时间</tspan></text><path d="M19.72728,253.87399c0,-4.17702 0,-8.95225 0,-11.48148c0,-3.34089 3.64364,-8.28889 8.46644,-8.28889c25.4709,0 241.26601,0 284.34234,0c4.80772,0 7.46394,3.44018 7.46394,7.54815c0,4.26503 0,9.24988 0,11.85185c0,3.33446 -2.7948,8.26667 -7.83966,8.26667c-43.93957,0 -258.56893,0 -283.96662,0c-4.8228,0 -8.46644,-3.63717 -8.46644,-7.8963z" fill-opacity="0.70196" fill="#ffffff" stroke="#000000" stroke-width="0"/><path d="M143.61377,174.75694c0,-4.1201 0,-8.8215 0,-11.29545c0,-3.23343 3.57935,-7.98561 7.91098,-7.98561c17.31588,0 130.93357,0 160.25415,0c4.39387,0 6.89469,3.29329 6.89469,7.27964c0,4.36707 0,9.56592 0,12.1779c0,3.12993 -2.9046,7.63605 -7.95364,7.63605c-30.98426,0 -142.72507,0 -159.54818,0c-4.15588,0 -7.558,-3.60285 -7.558,-7.81254z" fill-opacity="0.70196" fill="#ffffff" stroke="#000000" stroke-width="0"/><text transform="translate(150.74678,173.85681) scale(0.35954,0.35954)" font-size="40" xml:space="preserve" fill="#000000" stroke="none" stroke-width="1" font-family="Sans Serif" font-weight="normal" text-anchor="start"><tspan x="0" dy="0">加入版本</tspan></text><path d="M19.92891,92.21754c0,-4.3808 0,-9.54797 0,-12.1894c0,-3.26282 3.28523,-8.01546 8.1454,-8.01546c38.29866,0 511.59357,0 582.99932,0c5.84531,0 8.9975,3.6925 8.9975,8.01546c0,4.27902 0,9.17575 0,11.72058c0,2.03848 -2.81577,7.98738 -8.05985,7.98738c-68.18687,0 -546.92342,0 -584.40579,0c-4.59471,0 -7.67657,-3.41415 -7.67657,-7.51855z" fill-opacity="0.70196" fill="#ffffff" stroke="#000000" stroke-width="0"/><text transform="translate(27.06192,90.92898) scale(0.35954,0.35954)" font-size="40" xml:space="preserve" fill="#000000" stroke="none" stroke-width="1" font-family="Sans Serif" font-weight="normal" text-anchor="start"><tspan x="0" dy="0">个性签名</tspan></text><text transform="translate(27.06193,132.04993) scale(0.35954,0.35954)" font-size="40" xml:space="preserve" fill="#000000" stroke="none" stroke-width="1" font-family="Sans Serif" font-weight="normal" text-anchor="start"><tspan x="0" dy="0">简介</tspan></text><path d="M19.92891,175.45367c0,-4.34061 0,-9.76811 0,-12.55358c0,-3.41829 4.0346,-8.57318 8.42384,-8.57318c12.6427,0 74.82069,0 98.59155,0c5.75883,0 9.26347,2.9856 9.26347,6.73607c0,4.60635 0,10.36649 0,13.16595c0,3.14971 -3.13325,7.65462 -8.34491,7.65462c-23.20755,0 -87.62853,0 -100.12247,0c-4.10581,0 -7.81147,-2.84406 -7.81147,-6.42988z" fill-opacity="0.70196" fill="#ffffff" stroke="#000000" stroke-width="0"/><text transform="translate(27.06192,173.17088) scale(0.35954,0.35954)" font-size="40" xml:space="preserve" fill="#000000" stroke="none" stroke-width="1" font-family="Sans Serif" font-weight="normal" text-anchor="start"><tspan x="0" dy="0">年龄</tspan></text><path d="M19.92891,216.64697c0,-4.34061 0,-9.76811 0,-12.55358c0,-3.41829 4.0346,-8.57317 8.42384,-8.57317c12.6427,0 74.82069,0 98.59155,0c5.75883,0 9.26347,2.9856 9.26347,6.73606c0,4.60635 0,10.36649 0,13.16595c0,3.14971 -3.13325,7.65463 -8.34491,7.65463c-23.20755,0 -87.62853,0 -100.12248,0c-4.10581,0 -7.81147,-2.84407 -7.81147,-6.42989z" fill-opacity="0.70196" fill="#ffffff" stroke="#000000" stroke-width="0"/><text transform="translate(27.06193,214.36417) scale(0.35954,0.35954)" font-size="40" xml:space="preserve" fill="#000000" stroke="none" stroke-width="1" font-family="Sans Serif" font-weight="normal" text-anchor="start"><tspan x="0" dy="0">性别</tspan></text><text transform="translate(27.06193,251.73749) scale(0.35954,0.35954)" font-size="40" xml:space="preserve" fill="#000000" stroke="none" stroke-width="1" font-family="Sans Serif" font-weight="normal" text-anchor="start"><tspan x="0" dy="0">邮箱</tspan></text><text transform="translate(338.75238,251.73749) scale(0.35954,0.35954)" font-size="40" xml:space="preserve" fill="#000000" stroke="none" stroke-width="1" font-family="Sans Serif" font-weight="normal" text-anchor="start"><tspan x="0" dy="0">Bilibili</tspan></text><path d="M329.06457,173.93861c0,-4.1201 0,-8.8215 0,-11.29545c0,-3.23343 3.57935,-7.98561 7.91099,-7.98561c17.31588,0 130.93356,0 160.25415,0c4.39387,0 6.89469,3.29328 6.89469,7.27964c0,4.36707 0,9.56592 0,12.17791c0,3.12993 -2.90461,7.63605 -7.95364,7.63605c-30.98425,0 -142.72507,0 -159.54818,0c-4.15588,0 -7.558,-3.60285 -7.558,-7.81254z" fill-opacity="0.70196" fill="#ffffff" stroke="#000000" stroke-width="0"/><text transform="translate(336.19759,173.03847) scale(0.35954,0.35954)" font-size="40" xml:space="preserve" fill="#000000" stroke="none" stroke-width="1" font-family="Sans Serif" font-weight="normal" text-anchor="start"><tspan x="0" dy="0">共创世界ID</tspan></text><path d="M329.06458,213.63379c0,-4.1201 0,-8.8215 0,-11.29545c0,-3.23343 3.57935,-7.9856 7.91098,-7.9856c17.31588,0 130.93356,0 160.25415,0c4.39387,0 6.89469,3.29328 6.89469,7.27964c0,4.36707 0,9.56592 0,12.1779c0,3.12993 -2.9046,7.63605 -7.95364,7.63605c-30.98426,0 -142.72507,0 -159.54819,0c-4.15588,0 -7.558,-3.60285 -7.558,-7.81254z" fill-opacity="0.70196" fill="#ffffff" stroke="#000000" stroke-width="0"/><text transform="translate(336.1976,212.73365) scale(0.35954,0.35954)" font-size="40" xml:space="preserve" fill="#000000" stroke="none" stroke-width="1" font-family="Sans Serif" font-weight="normal" text-anchor="start"><tspan x="0" dy="0">QQ</tspan></text><path d="M512.00002,213.21017c0,-14.78178 0,-41.77096 0,-49.5315c0,-4.10615 3.9042,-8.48748 8.11538,-8.48748c11.90869,0 69.53735,0 91.53846,0c5.32295,0 8.56044,4.50967 8.56044,8.70377c0,7.8035 0,34.60168 0,49.3152c0,5.90732 -3.93705,9.86668 -8.17583,9.86668c-12.01846,0 -70.28106,0 -91.92308,0c-5.05771,0 -8.11538,-3.95812 -8.11538,-9.86668z" fill-opacity="0.70196" fill="#ffffff" stroke="#000000" stroke-width="0"/><text transform="translate(519.13304,173.57212) scale(0.35954,0.35954)" font-size="40" xml:space="preserve" fill="#000000" stroke="none" stroke-width="1" font-family="Sans Serif" font-weight="normal" text-anchor="start"><tspan x="0" dy="0">Saychat ID</tspan></text><path d="M74.35428,6.81446c0,0 485.5391,0.5694 520.38654,0.5694c4.48029,0 7.51895,2.73486 7.51895,5.44543c0,5.61375 0,26.69455 0,38.73234c0,5.09255 -3.43338,8.56668 -8.41835,8.56668c-36.77949,0 -519.46061,-0.949 -519.46061,-0.949z" fill-opacity="0.70196" fill="#ffffff" stroke="#000000" stroke-width="0"/><path d="M512.00001,133.70398c0,-4.84265 0,-10.69231 0,-13.33333c0,-2.66975 3.15384,-6.18199 6.71429,-6.18199c11.37366,0 72.57378,0 94.04762,0c4.66267,0 7.45238,3.62586 7.45238,7.84866c0,4.08588 0,8.73062 0,11.19048c0,3.25349 -2.6949,8.05446 -7.21429,8.05446c-21.25572,0 -82.86973,0 -94.28571,0c-3.56045,0 -6.71429,-3.41742 -6.71429,-7.57827z" fill-opacity="0.70196" fill="#ffffff" stroke="none" stroke-width="0"/><text transform="translate(519.13304,132.14355) scale(0.35954,0.35954)" font-size="40" xml:space="preserve" fill="#000000" stroke="none" stroke-width="1" font-family="Sans Serif" font-weight="normal" text-anchor="start"><tspan x="0" dy="0">ID</tspan></text></g></g></svg>