<svg version="1.1" xmlns="http://www.w3.org/2000/svg" xmlns:xlink="http://www.w3.org/1999/xlink" width="580.43909" height="292.75132" viewBox="0,0,580.43909,292.75132"><g transform="translate(-54.72343,-37.80085)"><g stroke-miterlimit="10"><path d="M372.37501,324.18854c0,-8.4548 0,-46.54552 0,-61.81818c0,-3.94182 2.31617,-6.36364 6.3826,-6.36364c26.97967,0 131.00531,0 146.79971,0c3.93499,0 7.18042,2.05419 7.18042,5.45454c0,14.38148 0,52.84297 0,61.81819c0,3.64878 -2.16413,7.27272 -5.98369,7.27272c-26.81221,0 -135.19799,0 -149.19317,0c-2.92291,0 -5.18586,-3.11399 -5.18586,-6.36363z" fill-opacity="0.74902" fill="#ffffff" stroke="#ffffff" stroke-width="0" stroke-linecap="butt"/><path d="M185.65235,324.03695c0,-8.4548 0,-46.54552 0,-61.81818c0,-3.94182 2.62219,-6.36364 7.22591,-6.36364c30.54438,0 148.3145,0 166.19576,0c4.45491,0 8.12914,2.05419 8.12914,5.45455c0,14.38148 0,52.84296 0,61.81818c0,3.64878 -2.45006,7.27272 -6.77428,7.27272c-30.35481,0 -153.06117,0 -168.90547,0c-3.3091,0 -5.87104,-3.11399 -5.87104,-6.36363z" fill-opacity="0.74902" fill="#ffffff" stroke="#ffffff" stroke-width="0" stroke-linecap="butt"/><path d="M54.72343,321.04152c0,-38.60923 0,-184.50005 0,-206.15393c0,-5.26383 3.3494,-9.5586 8.92292,-9.5586c24.94305,0 94.43115,0 107.60521,0c4.21949,0 7.98617,4.48192 7.98617,9.9324c0,21.96991 0.23809,169.40382 0.23809,207.92299c0,5.95585 -3.49975,7.2162 -8.9403,7.2162c-24.63826,0 -93.96214,0 -107.40555,0c-4.4161,0 -8.40654,-3.403 -8.40654,-9.35906z" fill-opacity="0.74902" fill="#ffffff" stroke="#000000" stroke-width="0" stroke-linecap="butt"/><text transform="translate(64.01229,127.24716) scale(0.36446,0.36446)" font-size="40" xml:space="preserve" fill="#000000" stroke="none" stroke-width="1" stroke-linecap="butt" font-family="Sans Serif" font-weight="normal" text-anchor="start"><tspan x="0" dy="0">体感温度</tspan><tspan x="0" dy="48px"> </tspan><tspan x="0" dy="48px">相对湿度</tspan><tspan x="0" dy="48px"> </tspan><tspan x="0" dy="48px">大气压强</tspan><tspan x="0" dy="48px"> </tspan><tspan x="0" dy="48px">云量</tspan><tspan x="0" dy="48px"> </tspan><tspan x="0" dy="48px">能见度</tspan><tspan x="0" dy="48px"> </tspan><tspan x="0" dy="48px">风</tspan></text><text transform="translate(192.41515,274.68143) scale(0.32396,0.32396)" font-size="40" xml:space="preserve" fill="#000000" stroke="none" stroke-width="1" stroke-linecap="butt" font-family="Sans Serif" font-weight="normal" text-anchor="start"><tspan x="0" dy="0">空气污染指数</tspan></text><text transform="translate(192.41515,296.6219) scale(0.30523,0.3094)" font-size="40" xml:space="preserve" fill="#000000" stroke="none" stroke-width="1" stroke-linecap="butt" font-family="Sans Serif" font-weight="normal" text-anchor="start"><tspan x="0" dy="0">PM10    PM2.5    no²    so²    o³</tspan></text><text transform="translate(380.73116,275.13599) scale(0.32396,0.32396)" font-size="40" xml:space="preserve" fill="#000000" stroke="none" stroke-width="1" stroke-linecap="butt" font-family="Sans Serif" font-weight="normal" text-anchor="start"><tspan x="0" dy="0">日升日落时间</tspan></text><path d="M538.89951,320.69417c0,-16.01502 0,-47.50175 0,-56.02072c0,-4.17023 3.47764,-8.50994 7.14342,-8.50994c9.61821,0 53.31624,0 71.67728,0c5.03436,0 8.16393,4.48795 8.16393,8.76342c0,8.62528 0,40.16299 0,56.02073c0,5.59202 -4.18368,9.23418 -8.4069,9.23418c-10.19267,0 -53.26192,0 -70.94835,0c-4.71769,0 -7.62937,-3.75136 -7.62937,-9.48767z" fill-opacity="0.74902" fill="#ffffff" stroke="#000000" stroke-width="0" stroke-linecap="butt"/><text transform="translate(553.23493,274.16697) scale(0.36446,0.36446)" font-size="40" xml:space="preserve" fill="#000000" stroke="none" stroke-width="1" stroke-linecap="butt" font-family="Sans Serif" font-weight="normal" text-anchor="start"><tspan x="0" dy="0">今夜月相</tspan></text><text transform="translate(381.18571,297.94057) scale(0.34592,0.34592)" font-size="40" xml:space="preserve" fill="#000000" stroke="none" stroke-width="1" stroke-linecap="butt" font-family="Sans Serif" font-weight="normal" text-anchor="start"><tspan x="0" dy="0">日出：</tspan><tspan x="0" dy="46.150000000000006px">日落：</tspan></text><path d="M603.23394,61.46513c0,-5.63674 0,-12.64143 0,-15.85714c0,-3.31744 4.46071,-7.80714 7.76429,-7.80714c3.34632,0 10.81638,0 16.57143,0c4.26805,0 7.59286,4.48971 7.59286,7.80714c0,3.24293 0,10.33928 0,16c0,4.51796 -4.53812,8.12143 -7.87857,8.12143c-3.36422,0 -10.84106,0 -16.57143,0c-4.2108,0 -7.47857,-3.67967 -7.47857,-8.26429z" fill-opacity="0.74902" fill="#ffffff" stroke="none" stroke-width="0" stroke-linecap="butt"/><path d="M626.14132,53.1536c0.01642,0.20153 0.02479,0.40533 0.02479,0.61108c0,4.10129 -3.32475,7.42606 -7.42606,7.42606c-4.1013,0 -7.42606,-3.32475 -7.42606,-7.42606c0,-4.06202 3.26139,-7.3623 7.30845,-7.42514" fill="none" stroke="#000000" stroke-width="2" stroke-linecap="butt"/><path d="M626.50677,51.87736l-4.25687,4.17228" fill="none" stroke="#000000" stroke-width="2" stroke-linecap="round"/><path d="M629.1877,57.20167l-2.64264,-5.34278" fill="none" stroke="#000000" stroke-width="2" stroke-linecap="round"/></g></g></svg>