<svg version="1.1" xmlns="http://www.w3.org/2000/svg" xmlns:xlink="http://www.w3.org/1999/xlink" width="43.8392" height="6.90672" viewBox="0,0,43.8392,6.90672"><defs><linearGradient x1="198.71373" y1="180" x2="229.80294" y2="180" gradientUnits="userSpaceOnUse" id="color-1"><stop offset="0" stop-color="#ffffff" stop-opacity="0"/><stop offset="1" stop-color="#ffffff"/></linearGradient></defs><g transform="translate(-198.71373,-176.54665)"><g data-paper-data="{&quot;isPaintingLayer&quot;:true}" fill-rule="evenodd" stroke-linecap="round" stroke-linejoin="round" stroke-miterlimit="10" stroke-dasharray="" stroke-dashoffset="0" style="mix-blend-mode: normal"><path d="M229.34105,177.55111c2.28261,-0.00084 10.27933,-0.00397 11.59815,-0.00446c0.33513,-0.00012 0.61322,0.58124 0.61327,1.08421c0.00008,0.79041 0.00032,1.32573 0.00046,2.7381c0.00007,0.64257 -0.21069,1.08443 -0.57835,1.08441c-2.31296,-0.00013 -10.29722,-0.00061 -11.59815,-0.00068c-0.32625,-0.00002 -0.59533,-0.45597 -0.59542,-1.11556c-0.00019,-1.42634 -0.00051,-1.95835 -0.00061,-2.73809c-0.00007,-0.48888 0.20392,-1.04778 0.56064,-1.04791z" data-paper-data="{&quot;origRot&quot;:0,&quot;index&quot;:null}" fill="#ffffff" stroke="#ffffff" stroke-width="2" opacity="0.42445"/><path d="M229.34105,177.5511c2.28261,-0.00084 10.27933,-0.00397 11.59815,-0.00446c0.33513,-0.00012 0.61322,0.58124 0.61327,1.08421c0.00008,0.79041 0.00032,1.32573 0.00046,2.7381c0.00006,0.64257 -0.21069,1.08443 -0.57836,1.08441c-2.31296,-0.00013 -10.29722,-0.00061 -11.59815,-0.00068c-0.32625,-0.00002 -0.59532,-0.45597 -0.59541,-1.11556c-0.00019,-1.42634 -0.00051,-1.95835 -0.00061,-2.73809c-0.00006,-0.48888 0.20392,-1.04778 0.56065,-1.04791z" data-paper-data="{&quot;origRot&quot;:0,&quot;index&quot;:null}" fill="#ffffff" stroke="#000000" stroke-width="0" opacity="0.42445"/><path d="M200.07839,177.55111c5.55603,-0.00084 25.02058,-0.00397 28.23069,-0.00446c0.81572,-0.00012 1.49263,0.58124 1.49275,1.08421c0.0002,0.79041 0.00077,1.32573 0.00112,2.7381c0.00015,0.64257 -0.51284,1.08443 -1.40777,1.08441c-5.62991,-0.00013 -25.06413,-0.00061 -28.23069,-0.00068c-0.7941,-0.00002 -1.44905,-0.45597 -1.44928,-1.11556c-0.00046,-1.42634 -0.00123,-1.95835 -0.00148,-2.73809c-0.00015,-0.48888 0.49636,-1.04778 1.36465,-1.04791z" data-paper-data="{&quot;origRot&quot;:0,&quot;index&quot;:null}" fill="url(#color-1)" stroke="#000000" stroke-width="0" opacity="0.42445"/><path d="M229.34105,177.55111c2.28261,-0.00084 10.27933,-0.00397 11.59815,-0.00446c0.33513,-0.00012 0.61322,0.58124 0.61327,1.08421c0.00008,0.79041 0.00032,1.32573 0.00046,2.7381c0.00007,0.64257 -0.21069,1.08443 -0.57835,1.08441c-2.31296,-0.00013 -10.29722,-0.00061 -11.59815,-0.00068c-0.32625,-0.00002 -0.59533,-0.45597 -0.59542,-1.11556c-0.00019,-1.42634 -0.00051,-1.95835 -0.00061,-2.73809c-0.00007,-0.48888 0.20392,-1.04778 0.56064,-1.04791z" data-paper-data="{&quot;origRot&quot;:0,&quot;index&quot;:null}" fill="#ffffff" stroke="#000000" stroke-width="0" opacity="0.42445"/></g></g></svg>