<svg version="1.1" xmlns="http://www.w3.org/2000/svg" xmlns:xlink="http://www.w3.org/1999/xlink" width="71.7424" height="84.47496" viewBox="0,0,71.7424,84.47496"><g transform="translate(-284.1288,-131.39625)"><g stroke-miterlimit="10"><path d="M284.1288,207.97036c0,-15.29857 0,-48.18866 0,-56.44551c0,-3.68229 4.07087,-7.39604 8.01557,-7.39604c8.41966,0 40.60918,0 55.75715,0c4.86301,0 7.96968,3.84544 7.96968,7.6255c0,8.32424 0,40.98437 0,56.21606c0,2.27319 -0.95711,4.1582 -2.40002,5.5162c-1.61962,1.52432 -3.85132,2.38464 -6.02857,2.38464c-8.60468,0 -40.90499,0 -55.75715,0c-4.62392,0 -7.55666,-3.07531 -7.55666,-7.90084z" fill="#ffffff" stroke="none" stroke-width="0" stroke-linecap="butt"/><text transform="translate(304.02378,208.49535) scale(0.34512,0.34512)" font-size="40" xml:space="preserve" fill="#000000" stroke="none" stroke-width="1" stroke-linecap="butt" font-family="Sans Serif" font-weight="normal" text-anchor="start"><tspan x="0" dy="0">音乐</tspan></text><g><text transform="translate(301.74489,192.01395) scale(1.413,1.413)" font-size="40" xml:space="preserve" fill-opacity="0.60392" fill="#545454" stroke="none" stroke-width="1" stroke-linecap="butt" font-family="&quot;ZHSCNMT-GBK&quot;, Sans Serif" font-weight="normal" text-anchor="start"><tspan x="0" dy="0">2</tspan></text><path d="M307.26174,184.84296c0,-5.43391 4.40506,-9.83898 9.83897,-9.83898c5.43392,0 9.83897,4.40506 9.83897,9.83898c0,5.43391 -4.40506,9.83897 -9.83897,9.83897c-5.43392,0 -9.83897,-4.40506 -9.83897,-9.83897z" fill="#000000" stroke="none" stroke-width="0" stroke-linecap="butt"/><path d="M320.93947,184.7897l9.21057,-32.50893l5.62222,-2.09733l-9.21057,32.50893z" fill="#000000" stroke="#000000" stroke-width="0.5" stroke-linecap="butt"/><path d="M330.02142,152.11348l5.92764,-2.43236l7.81292,6.348l-9.27785,-1.22077" fill="none" stroke="#000000" stroke-width="0.5" stroke-linecap="round"/><path d="M335.8118,151.39714v-1.0745h0.29847v1.0745z" fill="#000000" stroke="#000000" stroke-width="0.5" stroke-linecap="butt"/><path d="M334.81837,154.52195v-2.61575h3.60698v2.61575z" fill="#000000" stroke="#000000" stroke-width="0.5" stroke-linecap="butt"/><path d="M335.8922,150.25414v-0.22027h0.33041v0.22027z" fill="#000000" stroke="#000000" stroke-width="0.5" stroke-linecap="butt"/><path d="M335.34152,151.87866v-0.46808h0.88109v0.46808z" fill="#000000" stroke="#000000" stroke-width="0.5" stroke-linecap="butt"/><path d="M336.05741,150.9425v-0.52315h0.46808v0.52315z" fill="#000000" stroke="#000000" stroke-width="0.5" stroke-linecap="butt"/><path d="M336.19508,151.79605v-0.68835h0.99124v0.68835z" fill="#000000" stroke="#000000" stroke-width="0.5" stroke-linecap="butt"/><path d="M336.33275,150.85989v-0.41301h0.44055v0.41301z" fill="#000000" stroke="#000000" stroke-width="0.5" stroke-linecap="butt"/><path d="M336.88343,151.02511v-0.24781h0.16521v0.24781z" fill="#000000" stroke="#000000" stroke-width="0.5" stroke-linecap="butt"/><path d="M337.10371,151.9888v-0.66082h0.71589v0.66082z" fill="#000000" stroke="#000000" stroke-width="0.5" stroke-linecap="butt"/><path d="M337.9022,151.87866v-0.30288h0.16521v0.30288z" fill="#000000" stroke="#000000" stroke-width="0.5" stroke-linecap="butt"/><path d="M335.31398,154.82482v-0.57822h2.01v0.57822z" fill="#000000" stroke="#000000" stroke-width="0.5" stroke-linecap="butt"/><path d="M337.18631,155.10017v-0.46808h3.44178v0.46808z" fill="#000000" stroke="#000000" stroke-width="0.5" stroke-linecap="butt"/><path d="M338.4389,153.39304v-1.10137h0.33041v1.10137z" fill="#000000" stroke="#000000" stroke-width="0.5" stroke-linecap="butt"/><path d="M338.46644,154.52195v-1.07384h0.49561v1.07384z" fill="#000000" stroke="#000000" stroke-width="0.5" stroke-linecap="butt"/><path d="M338.85191,153.11769v-0.55068h0.27534v0.55068z" fill="#000000" stroke="#000000" stroke-width="0.5" stroke-linecap="butt"/><path d="M339.09972,154.93496v-1.59699h1.21151v1.59699z" fill="#000000" stroke="#000000" stroke-width="0.5" stroke-linecap="butt"/><path d="M339.04466,153.31044v-0.55068h0.41301v0.55068z" fill="#000000" stroke="#000000" stroke-width="0.5" stroke-linecap="butt"/><path d="M339.48519,153.28291v-0.22027h0.22027v0.22027z" fill="#000000" stroke="#000000" stroke-width="0.5" stroke-linecap="butt"/><path d="M340.25616,154.49441v-0.79849h0.46808v0.79849z" fill="#000000" stroke="#000000" stroke-width="0.5" stroke-linecap="butt"/><path d="M340.83437,154.63208v-0.55068h0.35795v0.55068z" fill="#000000" stroke="#000000" stroke-width="0.5" stroke-linecap="butt"/><path d="M339.70547,155.2929v-0.19274h2.67082v0.19274z" fill="#000000" stroke="#000000" stroke-width="0.5" stroke-linecap="butt"/><path d="M340.64163,155.2929v-0.66082h1.21151v0.66082z" fill="#000000" stroke="#000000" stroke-width="0.5" stroke-linecap="butt"/><path d="M341.19232,154.54948v-0.16521h0.27534v0.16521z" fill="#000000" stroke="#000000" stroke-width="0.5" stroke-linecap="butt"/><path d="M341.30245,155.48564v-0.11014h0.77096v0.11014z" fill="#000000" stroke="#000000" stroke-width="0.5" stroke-linecap="butt"/><path d="M342.26615,155.70591v-0.19274h0.41301v0.19274z" fill="#000000" stroke="#000000" stroke-width="0.5" stroke-linecap="butt"/><path d="M342.59656,155.64167v-0.06425h0.27534v0.06425z" fill="#000000" stroke="#000000" stroke-width="0.5" stroke-linecap="butt"/><path d="M342.87191,155.87112v-0.19274h0.30288v0.19274z" fill="#000000" stroke="#000000" stroke-width="0.5" stroke-linecap="butt"/></g><text transform="translate(335.4905,191.44973) scale(0.5,0.5)" font-size="40" xml:space="preserve" fill="#000000" stroke="none" stroke-width="1" stroke-linecap="butt" font-family="&quot;Microsoft YaHei&quot;, &quot;微软雅黑&quot;, STXihei, &quot;华文细黑&quot;" font-weight="normal" text-anchor="start"><tspan x="0" dy="0">.1</tspan></text></g></g></svg>