<svg version="1.1" xmlns="http://www.w3.org/2000/svg" xmlns:xlink="http://www.w3.org/1999/xlink" width="382.88288" height="60.06006" viewBox="0,0,382.88288,60.06006"><g transform="translate(-128.55856,-149.96997)"><g stroke="none" stroke-miterlimit="10"><path d="M128.55856,198.55555c0,-12.37801 0,-31.22448 0,-38c0,-4.82514 4.8733,-10.58558 11.27477,-10.58558c32.41543,0 296.75039,0 358.66667,0c8.28123,0 12.94144,4.70601 12.94144,11.25225c0,11.86443 0,29.77368 0,36.66667c0,5.38401 -4.53526,12.14114 -12.60811,12.14114c-61.2945,0 -326.52605,0 -359,0c-6.40147,0 -11.27477,-4.79562 -11.27477,-11.47448z" fill="#ffffff" stroke-width="2.5"/><text transform="translate(192.22073,172.66667) scale(0.5,0.5)" font-size="40" xml:space="preserve" fill="#000000" stroke-width="1" font-family="Sans Serif" font-weight="normal" text-anchor="start"><tspan x="0" dy="0">检查更新</tspan></text><text transform="translate(192.22073,188.82691) scale(0.31001,0.31001)" font-size="40" xml:space="preserve" fill="#000000" stroke-width="1" font-family="Sans Serif" font-weight="normal" text-anchor="start"><tspan x="0" dy="0">正在获取更新信息</tspan><tspan x="0" dy="48px">因使用国外服务器托管可能会很慢</tspan></text><text transform="translate(141.61728,187.44024) scale(0.62002,0.62002)" font-size="40" xml:space="preserve" fill="#000000" stroke-width="1" font-family="Sans Serif" font-weight="normal" text-anchor="start"><tspan x="0" dy="0">Ver.</tspan></text></g></g></svg>