<svg version="1.1" xmlns="http://www.w3.org/2000/svg" xmlns:xlink="http://www.w3.org/1999/xlink" width="47.50422" height="31.18664" viewBox="0,0,47.50422,31.18664"><g transform="translate(-215.43775,-164.32656)"><g data-paper-data="{&quot;isPaintingLayer&quot;:true}" fill-rule="nonzero" stroke-linecap="butt" stroke-linejoin="miter" stroke-miterlimit="10" stroke-dasharray="" stroke-dashoffset="0" style="mix-blend-mode: normal"><g stroke-width="1.5"><path d="M233.85618,184.04506l2.09193,-7.7121l8.51529,2.91375l-1.80804,7.21618z" fill="#8e6d4a" stroke="#1c1a1f"/><path d="M241.48129,181.24646c1.16559,-2.03609 3.76105,-2.74176 5.79714,-1.57617c2.03609,1.16559 2.74176,3.76105 1.57617,5.79714c-1.16559,2.03609 -3.76104,2.74176 -5.79714,1.57617c-2.03609,-1.16559 -2.74177,-3.76105 -1.57617,-5.79714z" fill="#dbac68" stroke="#181714"/></g><g stroke-width="1.5"><path d="M240.56643,178.45926l-0.19378,-7.35496l10.801,2.55661l-1.80804,7.21618z" fill="#8e6d4a" stroke="#1c1a1f"/><path d="M248.19154,175.66066c1.16559,-2.03609 3.76105,-2.74176 5.79714,-1.57617c2.03609,1.16559 2.74176,3.76105 1.57617,5.79714c-1.16559,2.03609 -3.76104,2.74176 -5.79714,1.57617c-2.03609,-1.16559 -2.74176,-3.76105 -1.57616,-5.79714z" fill="#dbac68" stroke="#181714"/></g><path d="M256.14068,181.32653v-1.53334c0,0 5.55155,0 5.68355,0c0.04453,0 0.25764,0.18812 0.25764,0.31824c0,0.16772 0,0.62536 0,0.92579c0,0.18289 -0.19396,0.28931 -0.23849,0.28931c-0.132,0 -5.70269,0 -5.70269,0z" fill="#4d4c5a" stroke="#1e1b1a" stroke-width="1"/><path d="M252.71773,181.46446v-1.77472c0,0 9.2033,0 9.42213,0c0.07383,0 0.42711,0.21774 0.42711,0.36835c0,0.19412 0,0.7238 0,1.07153c0,0.21168 -0.32155,0.33486 -0.39537,0.33486c-0.21882,0 -9.45385,-0.00001 -9.45385,-0.00001z" fill="#8b95ac" stroke="#1e1b1a" stroke-width="0.75"/><path d="M259.34488,181.55098c0,-0.56731 0,-1.56019 0,-1.89655c0,-0.21925 0.19537,-0.4787 0.41802,-0.4787c0.19786,0 0.41726,0 0.54025,0c0.18102,0 0.45958,0.25946 0.45958,0.4787c0,0.33637 0,1.32924 0,1.89655c0,0.24434 -0.27855,0.40974 -0.45958,0.40974c-0.12299,0 -0.3424,0 -0.54025,0c-0.22265,0 -0.41802,-0.1654 -0.41802,-0.40974z" fill="#8b95ac" stroke="#1e1b1a" stroke-width="0.5"/><path d="M245.64393,183.11557v-5.18039c0,0 2.72704,-0.31391 5.21268,-0.11211c1.91956,0.15584 3.69516,0.83938 3.95962,0.83938c0.20476,0 1.18457,0.63557 1.18457,1.07518c0,0.56665 0,0.84005 0,1.85505c0,0.6179 -0.8918,0.97744 -1.09655,0.97744c-0.27465,0 -2.19717,0.83898 -4.21986,0.96129c-2.44693,0.14796 -5.04045,-0.41583 -5.04045,-0.41583z" fill="#4f495a" stroke="#1e1b1a" stroke-width="1"/><path d="M252.18207,181.45884v-1.93128c0,0 -0.14138,-0.44047 0.57983,-0.44047c0.6867,0 0.53843,0.44047 0.53843,0.44047v1.93128c0,0 0.0606,0.52703 -0.62125,0.50823c-0.43304,-0.01194 -0.497,-0.50823 -0.497,-0.50823z" fill="#828282" stroke="#1e1b1a" stroke-width="0.75"/><path d="M249.98697,181.45884v-1.93128c0,0 -0.14138,-0.44047 0.57983,-0.44047c0.6867,0 0.53843,0.44047 0.53843,0.44047v1.93128c0,0 0.0606,0.52703 -0.62125,0.50823c-0.43304,-0.01194 -0.497,-0.50823 -0.497,-0.50823z" fill="#828282" stroke="#1e1b1a" stroke-width="0.75"/><path d="M247.75045,181.45884v-1.93128c0,0 -0.14139,-0.44047 0.57983,-0.44047c0.6867,0 0.53841,0.44047 0.53841,0.44047v1.93128c0,0 0.0606,0.52703 -0.62125,0.50823c-0.43303,-0.01194 -0.497,-0.50823 -0.497,-0.50823z" fill="#828282" stroke="#1e1b1a" stroke-width="0.75"/><path d="M255.78664,181.76669c0,0 0.26667,-0.86258 0.26667,-1.26667c0,-0.37082 -0.26667,-1.06666 -0.26667,-1.06666l1.2,0.26667l-0.06667,1.86666z" fill="#636363" stroke="#1e1b1a" stroke-width="0.5"/><path d="M253.65331,181.70001v-2.06667h1.93333v2.06667z" fill="#c4c4c4" stroke="#1e1b1a" stroke-width="0.5"/><path d="M221.35026,180.00007c0,-6.54447 5.30532,-11.84979 11.84979,-11.84979c6.54447,0 11.8498,5.30532 11.8498,11.84979c0,6.54447 -5.30532,11.8498 -11.8498,11.8498c-6.54447,0 -11.84979,-5.30532 -11.84979,-11.8498z" fill="#fcc875" stroke="#191916" stroke-width="1.5"/><path d="M216.43775,180.00002c0,-2.2774 7.02792,-4.42465 6.89567,-6.31285c-0.27332,-3.9026 -6.54928,-6.6986 -1.99098,-7.2499c0.54334,-0.06572 5.09652,-2.39953 11.85759,-0.09954c7.14347,2.43008 4.7873,6.1168 4.7873,13.66229c0,7.54549 2.49708,11.59445 -4.7873,13.5623c-6.09289,2.1 -11.17967,0.0739 -11.65906,0.023c-4.76492,-0.50586 1.56534,-3.46121 1.84488,-7.58288c0.12288,-1.81178 -6.9481,-3.84892 -6.9481,-6.00243z" fill="#319aea" stroke="#191916" stroke-width="2"/><path d="M227.40888,180.30703c0,-4.69158 0.84218,-11.11787 4.69638,-11.11787c3.8542,0 9.26089,6.42629 9.26089,11.11787c0,4.69158 -6.29974,11.00383 -10.15394,11.00383c-3.8542,0 -3.80333,-6.31225 -3.80333,-11.00383z" fill="#4db1ff" stroke="#191916" stroke-width="0.5"/><path d="M228.53531,180.30705c0,-2.4437 0.31143,-6.47751 2.28684,-6.47751c1.97541,0 4.86678,4.03381 4.86678,6.47751c0,2.4437 -2.69289,7.16179 -4.66831,7.16179c-1.97541,0 -2.4853,-4.71808 -2.4853,-7.16179z" fill="#c0e4ff" stroke="none" stroke-width="0"/></g></g></svg>