<svg version="1.1" xmlns="http://www.w3.org/2000/svg" xmlns:xlink="http://www.w3.org/1999/xlink" width="31.34116" height="31.6855" viewBox="0,0,31.34116,31.6855"><g transform="translate(-224.32942,-164.15725)"><g data-paper-data="{&quot;isPaintingLayer&quot;:true}" stroke-miterlimit="10" stroke-dasharray="" stroke-dashoffset="0" style="mix-blend-mode: normal"><path d="M247.38825,167.18058c3.36101,0.00068 5.28294,2.92641 5.28233,5.48558c-0.00098,4.08178 -0.00395,6.86675 -0.00574,14.33329c-0.00083,3.4528 -2.53603,5.83962 -5.60989,5.83972c-12.2572,0.00038 7.51613,0.0029 -14.27629,0.00358c-3.46412,0.00011 -5.44985,-2.31293 -5.44924,-5.67661c0.00134,-7.39339 0.0036,-10.19568 0.00435,-14.3333c0.00048,-2.63295 2.62067,-5.67623 5.77819,-5.67559c12.42577,0.00254 -7.23022,0.01893 14.27629,0.02332z" data-paper-data="{&quot;origRot&quot;:0,&quot;index&quot;:null}" fill="#000000" fill-rule="evenodd" stroke="#000000" stroke-width="6" stroke-linecap="round" stroke-linejoin="round" opacity="0.42445"/><path d="M247.38825,167.18058c3.36101,0.00068 5.28294,2.92641 5.28233,5.48558c-0.00098,4.08178 -0.00395,6.86675 -0.00574,14.33329c-0.00083,3.4528 -2.53603,5.83962 -5.60989,5.83972c-12.2572,0.00038 7.51613,0.0029 -14.27629,0.00358c-3.46412,0.00011 -5.44985,-2.31293 -5.44924,-5.67661c0.00134,-7.39339 0.0036,-10.19568 0.00435,-14.3333c0.00048,-2.63295 2.62067,-5.67623 5.77819,-5.67559c12.42577,0.00254 -7.23022,0.01893 14.27629,0.02332z" data-paper-data="{&quot;origRot&quot;:0,&quot;index&quot;:null}" fill="#000000" fill-rule="evenodd" stroke="#000000" stroke-width="0" stroke-linecap="round" stroke-linejoin="round" opacity="0.42445"/><path d="M246.3141,187.86583c0,1.80273 -1.31111,2.25079 -3.08437,1.16809c-2.93499,-1.79202 -7.13606,-4.35706 -8.75387,-5.34485c-1.27156,-0.77637 -0.96822,-2.97628 0.26424,-3.7608c1.6587,-1.05585 5.97744,-3.78486 8.84456,-5.59561c1.58714,-1.00237 2.72945,-0.19605 2.72945,1.13725c0,2.11313 0,8.52925 0,12.39592z" data-paper-data="{&quot;index&quot;:null}" fill="#000000" fill-rule="nonzero" stroke="none" stroke-width="NaN" stroke-linecap="butt" stroke-linejoin="miter"/><path d="M244.1891,186.11582c0,1.80273 -1.31111,2.25079 -3.08437,1.16809c-2.93499,-1.79202 -7.13606,-4.35706 -8.75387,-5.34484c-1.27156,-0.77638 -0.96822,-2.97629 0.26424,-3.76081c1.6587,-1.05584 5.97744,-3.78485 8.84456,-5.5956c1.58714,-1.00237 2.72945,-0.19605 2.72945,1.13725c0,2.11313 0,8.52924 0,12.39592z" data-paper-data="{&quot;index&quot;:null}" fill="#ffffff" fill-rule="nonzero" stroke="none" stroke-width="NaN" stroke-linecap="butt" stroke-linejoin="miter"/></g></g></svg>