<svg version="1.1" xmlns="http://www.w3.org/2000/svg" xmlns:xlink="http://www.w3.org/1999/xlink" width="103.3982" height="31.6855" viewBox="0,0,103.3982,31.6855"><g transform="translate(-188.3009,-164.15725)"><g stroke-miterlimit="10"><path d="M196.58323,167.18057c21.50651,-0.00439 73.90756,-0.02078 86.33333,-0.02332c3.15752,-0.00064 5.77771,3.04264 5.77819,5.67559c0.00075,4.13762 0.00301,6.93991 0.00435,14.3333c0.00061,3.36368 -1.98512,5.67672 -5.44924,5.67661c-21.79242,-0.00068 -74.07613,-0.0032 -86.33333,-0.00358c-3.07386,-0.0001 -5.60906,-2.38692 -5.60989,-5.83972c-0.00179,-7.46654 -0.00476,-10.25151 -0.00574,-14.33329c-0.00061,-2.55917 1.92132,-5.4849 5.28233,-5.48558z" fill="#000000" fill-rule="evenodd" stroke="#000000" stroke-width="6" stroke-linecap="round" stroke-linejoin="round" opacity="0.42445"/><path d="M196.58323,167.18057c21.50651,-0.00439 73.90756,-0.02078 86.33333,-0.02332c3.15752,-0.00064 5.77771,3.04264 5.77819,5.67559c0.00075,4.13762 0.00301,6.93991 0.00435,14.3333c0.00061,3.36368 -1.98512,5.67672 -5.44924,5.67661c-21.79242,-0.00068 -74.07613,-0.0032 -86.33333,-0.00358c-3.07386,-0.0001 -5.60906,-2.38692 -5.60989,-5.83972c-0.00179,-7.46654 -0.00476,-10.25151 -0.00574,-14.33329c-0.00061,-2.55917 1.92132,-5.4849 5.28233,-5.48558z" fill="#000000" fill-rule="evenodd" stroke="#000000" stroke-width="0" stroke-linecap="round" stroke-linejoin="round" opacity="0.42445"/><text transform="translate(225.68601,184.2942) scale(0.35785,0.35785)" font-size="40" xml:space="preserve" fill="#ffffff" fill-rule="nonzero" stroke="#ffffff" stroke-width="1" stroke-linecap="butt" stroke-linejoin="miter" font-family="Sans Serif" font-weight="normal" text-anchor="start"><tspan x="0" dy="0">复活</tspan></text></g></g></svg>