<svg version="1.1" xmlns="http://www.w3.org/2000/svg" xmlns:xlink="http://www.w3.org/1999/xlink" width="722.22222" height="489.48949" viewBox="0,0,722.22222,489.48949"><g transform="translate(41.11111,119.54957)"><g stroke-miterlimit="10"><path d="M-41.11111,369.93993v-489.48949h722.22222v489.48949z" fill-opacity="0.50196" fill="#cccccc" stroke="#000000" stroke-width="0"/><path d="M116.19048,240.09524c0,-16.13283 0,-89.7148 0,-119.52381c0,-7.79377 4.13798,-12.59524 11.57143,-12.59524c61.61653,0 349.66112,0 384.28571,0c6.68837,0 11.7619,5.91887 11.7619,12.11905c0,16.24576 0,89.89166 0,119.52381c0,7.68106 -5.30001,12.40476 -12.23809,12.40476c-35.18373,0 -322.3027,-0.2381 -383.80952,-0.2381c-7.43331,0 -11.57143,-5.57551 -11.57143,-11.69048z" fill="#ffffff" stroke="#009bff" stroke-width="1"/><path d="M136.18435,206.79527v-24.65166h367.6313v24.65166z" fill="#ffffff" stroke="#009fff" stroke-width="1.5"/></g></g></svg>