<svg version="1.1" xmlns="http://www.w3.org/2000/svg" xmlns:xlink="http://www.w3.org/1999/xlink" width="405.79846" height="397.51934" viewBox="0,0,405.79846,397.51934"><g transform="translate(-117.10077,63.55001)"><g stroke-miterlimit="10"><path d="M117.10077,323.3059c0,-45.45331 0,-207.65226 0,-233.12811c0,-6.00899 4.81445,-10.86301 11.20964,-10.86301c33.9254,0 322.63677,0 383.39534,0c7.1951,0 11.19348,4.73717 11.19348,10.62704c0,18.75322 0,161.47005 0,197.84543c0,5.3646 -3.30286,8.41888 -7.81854,8.42245c-7.72222,0.0061 -18.99123,0.015 -23.35483,0.01844c-3.44857,0.00272 -7.75417,4.15463 -7.75552,7.48476c-0.00165,4.08867 -0.00584,14.45945 -0.00885,21.91952c-0.00192,4.76128 -2.93233,8.33691 -8.26006,8.33691c-50.77107,0 -319.38179,0 -347.00783,0c-6.5972,0 -11.59281,-3.8684 -11.59281,-10.66342z" fill-opacity="0.76863" fill="#ffffff" stroke="none" stroke-width="0"/><text transform="translate(261.60006,-42.10001) scale(0.5,0.5)" font-size="40" xml:space="preserve" fill="#ff0000" stroke="none" stroke-width="1" font-family="Sans Serif" font-weight="400" text-anchor="start"><tspan x="0" dy="0"> </tspan></text><text transform="translate(127.16138,112.46119) scale(0.47898,0.47898)" font-size="40" xml:space="preserve" fill="#000000" stroke="none" stroke-width="1" font-family="Sans Serif" font-weight="400" text-anchor="start"><tspan x="0" dy="0">摄表&amp;DVD加入神秘Saychat开发群😳😳</tspan><tspan x="0" dy="48px"> </tspan><tspan x="0" dy="48px">这个版本砍掉了5000积木和300多个素材🤗</tspan></text><text transform="translate(128.01892,304.11859) scale(0.29785,0.29785)" font-size="40" xml:space="preserve" fill="#000000" stroke="#000000" stroke-width="0" font-family="Sans Serif" font-weight="400" text-anchor="start"><tspan x="0" dy="0">“灵感枯竭，能力缺陷”你好，我是摄表</tspan><tspan x="0" dy="46.150000000000006px">正式加入Saychat开发团队 - Thanks,MCsc_ Junjie.</tspan></text><text transform="translate(127.16138,202.4612) scale(0.47898,0.47898)" font-size="40" xml:space="preserve" fill="#ff0000" stroke="none" stroke-width="1" font-family="Sans Serif" font-weight="400" text-anchor="start"><tspan x="0" dy="0">退出登录需要在聊天页点击左上角的头像！</tspan></text></g></g></svg>