<svg version="1.1" xmlns="http://www.w3.org/2000/svg" xmlns:xlink="http://www.w3.org/1999/xlink" width="368.19824" height="39.34415" viewBox="0,0,368.19824,39.34415"><g transform="translate(-135.89354,-152.87144)"><g stroke-miterlimit="10"><path d="M136.39354,168.43696c1.16452,-1.11777 2.4634,-2.08973 3.80707,-3.0131c-0.44789,-6.0748 2.37382,-11.32343 3.76228,-12.05241c1.65719,-0.87477 7.3902,6.36639 8.24119,7.48415c3.76228,-0.63178 7.61414,-0.63178 11.37643,0c0.85099,-1.11777 6.58399,-8.35892 8.24119,-7.48415c1.38846,0.72898 4.21017,5.97761 3.76228,12.05241c1.34367,0.87477 2.64256,1.89534 3.80707,2.9645h322.40917c0.98945,0 1.79156,0.87033 1.79156,1.94394v19.43936c0,1.0736 -0.80211,1.94394 -1.79156,1.94394h-363.61511c-0.98945,0 -1.79156,-0.87033 -1.79156,-1.94394z" fill="#ffbf00" stroke="#cc9900"/><path d="M147.2773,167.51359c-0.08958,-0.24299 0.08958,-0.53458 0.31352,-0.58318l1.79156,-0.48599l-1.52283,-1.06917c-0.22394,-0.1458 -0.26873,-0.43739 -0.13436,-0.68038c0.13437,-0.24299 0.4031,-0.29159 0.62705,-0.14579l3.13523,2.33272l-3.71749,1.02057c0,0 -0.04479,0 -0.08958,0c-0.22394,0 -0.4031,-0.1458 -0.4031,-0.38879z" fill-opacity="0" fill="#000000" stroke="none"/><path d="M164.34194,167.90238c-0.04479,0 -0.08958,0 -0.08958,0l-3.71749,-1.02057l3.13523,-2.33272c0.22394,-0.1458 0.49268,-0.0972 0.62705,0.14579c0.13437,0.24299 0.08958,0.53458 -0.13436,0.68038l-1.52283,1.11777l1.79156,0.48598c0.22394,0.0486 0.4031,0.34019 0.31352,0.58318c-0.04479,0.19439 -0.22395,0.34019 -0.4031,0.34019z" fill-opacity="0" fill="#000000" stroke="none"/><path d="M161.38584,166.83319c0,-0.91257 0.68179,-1.65235 1.52283,-1.65235c0.84104,0 1.52283,0.73978 1.52283,1.65235c0,0.91257 -0.68179,1.65235 -1.52283,1.65235c-0.84104,0 -1.52283,-0.73978 -1.52283,-1.65235z" fill-opacity="0.6" fill="#000000" stroke="none"/><path d="M147.90435,166.83319c0,-0.91257 0.68179,-1.65235 1.52283,-1.65235c0.84104,0 1.52283,0.73978 1.52283,1.65235c0,0.91257 -0.68179,1.65235 -1.52283,1.65235c-0.84104,0 -1.52283,-0.73978 -1.52283,-1.65235z" fill-opacity="0.6" fill="#000000" stroke="none"/><path d="M156.81737,168.48556c-0.4031,0 -0.76141,-0.1458 -1.03015,-0.43739c-0.26873,0.29159 -0.58226,0.43739 -0.98536,0.43739c-0.4031,0 -0.80621,-0.1458 -1.03015,-0.43739c-0.44789,-0.53458 -0.49268,-1.26356 -0.49268,-1.36076c0,-0.24299 0.22395,-0.48598 0.44789,-0.48598v0c0.26873,0 0.44789,0.24299 0.44789,0.48598c0,0.19439 0.04479,0.82618 0.62705,0.82618c0.22394,0 0.31352,-0.0972 0.35831,-0.1458c0.13437,-0.1458 0.17915,-0.48598 0.17915,-0.63178c0,-0.0486 0,-0.0486 0,-0.0972c0,-0.24299 0.22395,-0.48598 0.44789,-0.48598v0c0.22394,0 0.44789,0.19439 0.44789,0.48598c0,0 0,0.0486 0,0.0972c0,0.1458 0.04479,0.43738 0.17916,0.58318c0.04479,0.0486 0.13436,0.1458 0.35831,0.1458c0.22394,0 0.31352,-0.0972 0.35831,-0.1458c0.13437,-0.19439 0.17916,-0.53458 0.13437,-0.63178c0,-0.24299 0.17915,-0.48598 0.4031,-0.53458c0.22394,0 0.44789,0.1944 0.49268,0.43739c0,0.0972 0.04479,0.87477 -0.35831,1.36075c-0.13437,0.29159 -0.44789,0.53459 -0.98536,0.53459z" fill-opacity="0.6" fill="#000000" stroke="none"/><path d="M169.13437,160.85561c0.76141,-2.04113 2.01551,-4.42245 2.59777,-4.13086c0.71663,0.38879 2.41861,3.83927 2.23946,7.48415c0,0.29159 -0.31353,0.34019 -0.49268,0.24299c-1.34367,-0.77758 -2.8665,-1.36075 -3.85186,-1.74954c-0.62705,-0.24299 -0.8062,-0.92337 -0.49268,-1.84674z" fill="#ffd5e6" stroke="none"/><path d="M145.93363,162.70235c-0.98536,0.38879 -2.50819,0.97196 -3.85186,1.74954c-0.17915,0.0972 -0.49268,0.0486 -0.49268,-0.24299c-0.17915,-3.64488 1.52283,-7.09537 2.23946,-7.48415c0.58226,-0.29159 1.83635,2.08973 2.59777,4.13086c0.35831,0.92337 0.17916,1.60375 -0.49268,1.84674z" fill="#ffd5e6" stroke="none"/></g></g></svg>