<svg version="1.1" xmlns="http://www.w3.org/2000/svg" xmlns:xlink="http://www.w3.org/1999/xlink" width="55.99999" height="40.75554" viewBox="0,0,55.99999,40.75554"><g transform="translate(-211.91667,-169.25001)"><g data-paper-data="{&quot;isPaintingLayer&quot;:true}" fill="#fcb400" fill-rule="nonzero" stroke="none" stroke-width="0" stroke-linecap="butt" stroke-linejoin="miter" stroke-miterlimit="10" stroke-dasharray="" stroke-dashoffset="0" style="mix-blend-mode: normal"><path d="M224.08333,204.91667c-4.14214,0 -7.5,-3.20863 -7.5,-7.16667c0,-3.95804 3.35786,-7.16667 7.5,-7.16667c4.14214,0 7.5,3.20863 7.5,7.16667c0,3.95804 -3.35786,7.16667 -7.5,7.16667z"/><path d="M219.41667,194.58333c-4.14213,0 -7.5,-3.20862 -7.5,-7.16666c0,-3.95804 3.35787,-7.16666 7.5,-7.16666c4.14213,0 7.5,3.20862 7.5,7.16666c0,3.95804 -3.35787,7.16666 -7.5,7.16666z"/><path d="M226.75,183.91666c-4.14213,0 -7.5,-3.20862 -7.5,-7.16666c0,-3.95804 3.35787,-7.16666 7.5,-7.16666c4.14213,0 7.5,3.20862 7.5,7.16666c0,3.95804 -3.35787,7.16666 -7.5,7.16666z"/><path d="M235.08333,187.40555c-5.2467,0 -9.5,-4.06425 -9.5,-9.07777c0,-5.01352 4.2533,-9.07777 9.5,-9.07777c5.2467,0 9.5,4.06425 9.5,9.07777c0,5.01352 -4.2533,9.07777 -9.5,9.07777z"/><path d="M246.25,191.3611c-5.52284,0 -10,-4.27816 -10,-9.55555c0,-5.27738 4.47716,-9.55555 10,-9.55555c5.52284,0 10,4.27816 10,9.55555c0,5.27738 -4.47716,9.55555 -10,9.55555z"/><path d="M258.08333,184.33888c-3.58985,0 -6.5,-2.78081 -6.5,-6.21111c0,-3.4303 2.91015,-6.2111 6.5,-6.2111c3.58985,0 6.5,2.7808 6.5,6.2111c0,3.4303 -2.91015,6.21111 -6.5,6.21111z"/><path d="M259.58333,194.00555c-4.60237,0 -8.33333,-3.56514 -8.33333,-7.96296c0,-4.39782 3.73097,-7.96296 8.33333,-7.96296c4.60237,0 8.33333,3.56513 8.33333,7.96296c0,4.39782 -3.73097,7.96296 -8.33333,7.96296z"/><path d="M251.25,207.00555c-5.52284,0 -10,-4.27817 -10,-9.55555c0,-5.27738 4.47716,-9.55555 10,-9.55555c5.52284,0 10,4.27816 10,9.55555c0,5.27738 -4.47716,9.55555 -10,9.55555z"/><path d="M235.91667,210.00555c-5.52284,0 -10,-4.27817 -10,-9.55555c0,-5.27739 4.47716,-9.55554 10,-9.55554c5.52284,0 10,4.27816 10,9.55554c0,5.27739 -4.47716,9.55555 -10,9.55555z"/><path d="M236.58333,200.67222c-7.73198,0 -14,-5.98943 -14,-13.37777c0,-7.38834 6.26802,-13.37776 14,-13.37776c7.73198,0 14.00001,5.98942 14.00001,13.37776c0,7.38834 -6.26803,13.37777 -14.00001,13.37777z"/></g></g></svg>