<svg version="1.1" xmlns="http://www.w3.org/2000/svg" xmlns:xlink="http://www.w3.org/1999/xlink" width="121.4" height="111.99999" viewBox="0,0,121.4,111.99999"><g transform="translate(-182.85,-133.78334)"><g data-paper-data="{&quot;isPaintingLayer&quot;:true}" fill-rule="nonzero" stroke="none" stroke-width="0" stroke-linecap="butt" stroke-linejoin="miter" stroke-miterlimit="10" stroke-dasharray="" stroke-dashoffset="0" style="mix-blend-mode: normal"><path d="M293.67051,188.48333c0,7.16298 3.45236,19.7216 0.35645,25.68021c-4.50027,8.66154 -14.82222,5.96495 -24.84377,9.21373c-6.20719,2.01224 -12.91295,8.60606 -19.42294,8.60606c-8.06203,0 -17.4166,4.8476 -23.91012,1.09123c-13.03929,-7.54297 -20.00014,-28.55356 -20.00014,-44.59123c0,-9.98572 -5.60357,-23.58558 0.10728,-30.92768c8.02874,-10.32207 29.63191,-12.57232 43.80297,-12.57232c9.7475,0 23.35318,-5.65356 30.63858,-0.32998c10.84008,7.92104 13.27167,29.46203 13.27167,43.82998z" fill="#fcfcff"/><path d="M260.25,232.88333c0,7.12447 -5.59644,12.9 -12.5,12.9c-6.90356,0 -12.5,-5.77553 -12.5,-12.9c0,-7.12447 5.59644,-12.9 12.5,-12.9c6.90356,0 12.5,5.77553 12.5,12.9z" fill="#fcfcff"/><path d="M272.25,225.08333c0,7.12447 -5.59644,12.9 -12.5,12.9c-6.90356,0 -12.5,-5.77553 -12.5,-12.9c0,-7.12447 5.59644,-12.9 12.5,-12.9c6.90356,0 12.5,5.77552 12.5,12.9z" fill="#fcfcff"/><path d="M297.45,213.48334c0,7.12447 -5.59644,12.9 -12.5,12.9c-6.90356,0 -12.5,-5.77553 -12.5,-12.9c0,-7.12447 5.59644,-12.9 12.5,-12.9c6.90356,0 12.5,5.77553 12.5,12.9z" fill="#fcfcff"/><path d="M279.25,220.88334c0,7.12447 -5.59644,12.9 -12.5,12.9c-6.90356,0 -12.5,-5.77552 -12.5,-12.9c0,-7.12447 5.59644,-12.9 12.5,-12.9c6.90356,0 12.5,5.77553 12.5,12.9z" fill="#fcfcff"/><path d="M304.25,204.68333c0,7.12447 -5.59644,12.9 -12.5,12.9c-6.90356,0 -12.5,-5.77553 -12.5,-12.9c0,-7.12447 5.59644,-12.9 12.5,-12.9c6.90356,0 12.5,5.77552 12.5,12.9z" fill="#fcfcff"/><path d="M302.45,191.28333c0,6.46173 -5.59644,11.7 -12.5,11.7c-6.90356,0 -12.5,-5.23827 -12.5,-11.7c0,-6.46173 5.59644,-11.7 12.5,-11.7c6.90356,0 12.5,5.23827 12.5,11.7z" fill="#fcfcff"/><path d="M301.45,175.08334c0,6.46174 -5.59644,11.7 -12.5,11.7c-6.90356,0 -12.5,-5.23827 -12.5,-11.7c0,-6.46174 5.59644,-11.7 12.5,-11.7c6.90356,0 12.5,5.23826 12.5,11.7z" fill="#fcfcff"/><path d="M299.05,167.28334c0,8.89179 -5.59644,16.1 -12.5,16.1c-6.90356,0 -12.5,-7.20821 -12.5,-16.1c0,-8.89179 5.59644,-16.1 12.5,-16.1c6.90356,0 12.5,7.20821 12.5,16.1z" fill="#fcfcff"/><path d="M290.85,147.28333c0,6.46174 -5.59644,11.7 -12.5,11.7c-6.90356,0 -12.5,-5.23826 -12.5,-11.7c0,-6.46174 5.59644,-11.7 12.5,-11.7c6.90356,0 12.5,5.23827 12.5,11.7z" fill="#fcfcff"/><path d="M277.65,145.48334c0,6.46174 -5.59644,11.7 -12.5,11.7c-6.90356,0 -12.5,-5.23826 -12.5,-11.7c0,-6.46174 5.59644,-11.7 12.5,-11.7c6.90356,0 12.5,5.23827 12.5,11.7z" fill="#fcfcff"/><path d="M268.05,147.48334c0,6.46174 -5.59644,11.7 -12.5,11.7c-6.90356,0 -12.5,-5.23826 -12.5,-11.7c0,-6.46174 5.59644,-11.7 12.5,-11.7c6.90356,0 12.5,5.23827 12.5,11.7z" fill="#fcfcff"/><path d="M252.47564,144.99313c0,4.97597 -3.99041,9.00979 -8.91282,9.00979c-4.92242,0 -8.91282,-4.03382 -8.91282,-9.00979c0,-4.97597 3.99041,-9.00979 8.91282,-9.00979c4.92242,0 8.91282,4.03382 8.91282,9.00979z" fill="#fcfcff"/><path d="M231.52692,143.68334c0,5.46762 -4.58391,9.9 -10.23846,9.9c-5.65455,0 -10.23846,-4.43238 -10.23846,-9.9c0,-5.46762 4.58391,-9.9 10.23846,-9.9c5.65455,0 10.23846,4.43238 10.23846,9.9z" fill="#fcfcff"/><path d="M245.45,157.08334c0,6.46174 -5.59644,11.7 -12.5,11.7c-6.90356,0 -12.5,-5.23826 -12.5,-11.7c0,-6.46174 5.59644,-11.7 12.5,-11.7c6.90356,0 12.5,5.23827 12.5,11.7z" fill="#fcfcff"/><path d="M227.65,153.34174c0,7.37764 -6.17847,13.3584 -13.8,13.3584c-7.62153,0 -13.8,-5.98076 -13.8,-13.3584c0,-7.37764 6.17847,-13.3584 13.8,-13.3584c7.62153,0 13.8,5.98076 13.8,13.3584z" fill="#fcfcff"/><path d="M224.85,162.34174c0,7.37765 -6.17847,13.3584 -13.8,13.3584c-7.62153,0 -13.8,-5.98075 -13.8,-13.3584c0,-7.37765 6.17847,-13.3584 13.8,-13.3584c7.62153,0 13.8,5.98075 13.8,13.3584z" fill="#fcfcff"/><path d="M218.85,181.83134c0,9.3049 -8.05887,16.848 -18,16.848c-9.94113,0 -18,-7.5431 -18,-16.848c0,-9.3049 8.05887,-16.848 18,-16.848c9.94113,0 18,7.5431 18,16.848z" fill="#fcfcff"/><path d="M225.25,201.14174c0,7.37765 -6.17847,13.3584 -13.8,13.3584c-7.62153,0 -13.8,-5.98075 -13.8,-13.3584c0,-7.37765 6.17847,-13.3584 13.8,-13.3584c7.62153,0 13.8,5.98075 13.8,13.3584z" fill="#fcfcff"/><path d="M219.65,210.54174c0,5.38942 -4.51341,9.7584 -10.08099,9.7584c-5.56758,0 -10.08099,-4.36898 -10.08099,-9.7584c0,-5.38942 4.51341,-9.7584 10.08099,-9.7584c5.56758,0 10.08099,4.36898 10.08099,9.7584z" fill="#fcfcff"/><path d="M217.41667,194.58334c-4.14213,0 -7.5,-3.20862 -7.5,-7.16666c0,-3.95804 3.35787,-7.16666 7.5,-7.16666c4.14213,0 7.5,3.20862 7.5,7.16666c0,3.95804 -3.35787,7.16666 -7.5,7.16666z" fill="#fcb400"/><path d="M239.25,224.34174c0,7.37765 -6.17847,13.3584 -13.8,13.3584c-7.62153,0 -13.8,-5.98075 -13.8,-13.3584c0,-7.37765 6.17847,-13.3584 13.8,-13.3584c7.62153,0 13.8,5.98076 13.8,13.3584z" fill="#fcfcff"/><path d="M241.65,228.74174c0,7.37765 -6.17847,13.3584 -13.8,13.3584c-7.62153,0 -13.8,-5.98075 -13.8,-13.3584c0,-7.37765 6.17847,-13.3584 13.8,-13.3584c7.62153,0 13.8,5.98075 13.8,13.3584z" fill="#fcfcff"/><path d="M254.65,166.07626c0,5.91335 -4.74578,10.70707 -10.6,10.70707c-5.85422,0 -10.6,-4.79372 -10.6,-10.70707c0,-5.91335 4.74578,-10.70707 10.6,-10.70707c5.85422,0 10.6,4.79372 10.6,10.70707z" fill="#484855"/><path d="M248.05,168.29647c0,6.24807 -5.01441,11.31313 -11.2,11.31313c-6.18559,0 -11.2,-5.06506 -11.2,-11.31313c0,-6.24807 5.01441,-11.31313 11.2,-11.31313c6.18559,0 11.2,5.06506 11.2,11.31313z" fill="#484855"/><path d="M224.7283,211.18334c-2.755,0 -4.98837,-2.1341 -4.98837,-4.76666c0,-2.63256 2.23337,-4.76666 4.98837,-4.76666c2.755,0 4.98837,2.1341 4.98837,4.76666c0,2.63256 -2.23337,4.76666 -4.98837,4.76666z" fill="#fcb400"/><path d="M242.85,174.89647c0,6.24806 -5.01441,11.31313 -11.2,11.31313c-6.18559,0 -11.2,-5.06507 -11.2,-11.31313c0,-6.24806 5.01441,-11.31313 11.2,-11.31313c6.18559,0 11.2,5.06507 11.2,11.31313z" fill="#484855"/><path d="M243.05,182.29647c0,6.24806 -5.01441,11.31313 -11.2,11.31313c-6.18559,0 -11.2,-5.06507 -11.2,-11.31313c0,-6.24806 5.01441,-11.31313 11.2,-11.31313c6.18559,0 11.2,5.06507 11.2,11.31313z" fill="#484855"/><path d="M245.45,195.89647c0,6.24806 -5.01441,11.31313 -11.2,11.31313c-6.18559,0 -11.2,-5.06507 -11.2,-11.31313c0,-6.24806 5.01441,-11.31313 11.2,-11.31313c6.18559,0 11.2,5.06507 11.2,11.31313z" fill="#484855"/><path d="M251.45,203.89647c0,6.24806 -5.01441,11.31313 -11.2,11.31313c-6.18559,0 -11.2,-5.06507 -11.2,-11.31313c0,-6.24806 5.01441,-11.31313 11.2,-11.31313c6.18559,0 11.2,5.06507 11.2,11.31313z" fill="#484855"/><path d="M260.85,201.69647c0,6.24806 -5.01441,11.31313 -11.2,11.31313c-6.18559,0 -11.2,-5.06507 -11.2,-11.31313c0,-6.24806 5.01441,-11.31313 11.2,-11.31313c6.18559,0 11.2,5.06507 11.2,11.31313z" fill="#484855"/><path d="M273.45,197.69647c0,5.58532 -5.01441,10.11313 -11.2,10.11313c-6.18559,0 -11.2,-4.52781 -11.2,-10.11313c0,-5.58532 5.01441,-10.11313 11.2,-10.11313c6.18559,0 11.2,4.52781 11.2,10.11313z" fill="#484855"/><path d="M272.05,189.49647c0,5.58533 -5.01441,10.11314 -11.2,10.11314c-6.18559,0 -11.2,-4.52781 -11.2,-10.11313c0,-5.58533 5.01441,-10.11313 11.2,-10.11313c6.18559,0 11.2,4.5278 11.2,10.11313z" fill="#484855"/><path d="M275.65,174.43845c0,6.87877 -5.23827,12.45512 -11.7,12.45512c-6.46173,0 -11.7,-5.57636 -11.7,-12.45512c0,-6.87877 5.23827,-12.45512 11.7,-12.45512c6.46173,0 11.7,5.57635 11.7,12.45512z" fill="#484855"/><path d="M260.45,182.03846c0,6.87877 -5.23827,12.45512 -11.7,12.45512c-6.46173,0 -11.7,-5.57635 -11.7,-12.45512c0,-6.87877 5.23827,-12.45512 11.7,-12.45512c6.46173,0 11.7,5.57635 11.7,12.45512z" fill="#484855"/></g></g></svg>