<svg version="1.1" xmlns="http://www.w3.org/2000/svg" xmlns:xlink="http://www.w3.org/1999/xlink" width="29.37263" height="28.19386" viewBox="0,0,29.37263,28.19386"><g transform="translate(-223.2272,-165.90307)"><g data-paper-data="{&quot;isPaintingLayer&quot;:true}" fill-rule="nonzero" stroke-linecap="butt" stroke-linejoin="miter" stroke-miterlimit="10" stroke-dasharray="" stroke-dashoffset="0" style="mix-blend-mode: normal"><path d="M228.15025,180.00001c0,-6.54447 5.30532,-11.84979 11.84979,-11.84979c6.54447,0 11.8498,5.30532 11.8498,11.84979c0,6.54447 -5.30532,11.8498 -11.8498,11.8498c-6.54447,0 -11.84979,-5.30532 -11.84979,-11.8498z" fill="#fcc875" stroke="#191916" stroke-width="1.5"/><g><path d="M226.81215,179.87499c0,-7.50939 -0.72202,-13.22192 5.48033,-13.22192c6.20235,0 12.73034,6.21254 12.73034,13.72192c0,7.50939 -6.90298,12.97194 -13.10534,12.97194c-6.20235,0 -5.10533,-5.96254 -5.10533,-13.47194z" fill="#674832" stroke="#191916" stroke-width="1.5"/><path d="M226.21498,180.33212c0,-4.85057 3.24774,-8.78272 7.25405,-8.78272c4.00631,0 7.25406,3.93215 7.25406,8.78272c0,4.85057 -3.24775,8.78272 -7.25406,8.78272c-4.00631,0 -7.25405,-3.93215 -7.25405,-8.78272z" fill="#7c5839" stroke="#191916" stroke-width="1"/><path d="M223.72721,180.45082c0,-4.2616 2.85339,-7.7163 6.37325,-7.7163c3.51985,0 6.37325,3.4547 6.37325,7.7163c0,4.2616 -2.85339,7.7163 -6.37325,7.7163c-3.51985,0 -6.37325,-3.45469 -6.37325,-7.7163z" fill="#af7d51" stroke="#191916" stroke-width="1"/><path d="M224.69694,177.66271c0.82199,-2.58996 2.89598,-4.42819 5.3246,-4.42819c2.39547,0 4.44594,1.7884 5.29025,4.32256c0.26567,0.7974 -2.60034,1.41072 -5.40597,1.44018c-2.89514,0.03041 -5.45278,-0.56608 -5.20889,-1.33456z" fill="#bd9562" stroke="none" stroke-width="0"/></g></g></g></svg>