<svg version="1.1" xmlns="http://www.w3.org/2000/svg" xmlns:xlink="http://www.w3.org/1999/xlink" width="28.0097" height="28.32459" viewBox="0,0,28.0097,28.32459"><g transform="translate(-225.83774,-165.83775)"><g data-paper-data="{&quot;isPaintingLayer&quot;:true}" fill-rule="nonzero" stroke-linejoin="miter" stroke-miterlimit="10" stroke-dasharray="" stroke-dashoffset="0" style="mix-blend-mode: normal"><path d="M228.15028,180.00003c0,-6.54447 5.30532,-11.84979 11.84979,-11.84979c6.54447,0 11.8498,5.30532 11.8498,11.84979c0,6.54447 -5.30532,11.8498 -11.8498,11.8498c-6.54447,0 -11.84979,-5.30532 -11.84979,-11.8498z" fill="#fcc875" stroke="#191916" stroke-width="1.5" stroke-linecap="butt"/><path d="M244.59759,191.33279c-4.88719,0 2.39633,-3.78471 2.81956,-10.96912c0.41553,-7.05344 -8.00419,-11.73047 -3.117,-11.73047c4.88719,0 9.01596,8.98209 9.0473,12.16229c0.02772,2.8129 -3.86268,10.5373 -8.74986,10.5373z" data-paper-data="{&quot;index&quot;:null}" fill="#5b7549" stroke="#191916" stroke-width="1" stroke-linecap="butt"/><path d="M243.76529,191.2983c-2.8845,0 -0.10313,0.27417 2.60479,-1.92273c2.08144,-1.68865 3.9621,-5.37234 4.15411,-8.49466c0.23587,-3.83558 -2.53768,-8.05466 -5.06912,-10.26372c-2.12376,-1.8533 -4.32772,-2.01848 -2.00027,-2.01848c5.10168,0 9.41166,8.98209 9.44437,12.16229c0.02893,2.8129 -4.03221,10.5373 -9.13388,10.5373z" data-paper-data="{&quot;index&quot;:null}" fill="#485d3a" stroke="none" stroke-width="0" stroke-linecap="butt"/><path d="M226.33775,180.00004c0,-7.54549 6.1168,-13.66229 13.66229,-13.66229c4.66626,0 5.30108,1.88477 5.2664,3.45461c-0.00808,0.36571 -1.32891,0.83496 -1.70717,1.22515c-0.62048,0.64005 -1.85129,1.94122 -2.19159,3.48723c-0.70224,3.1903 -0.58034,7.42322 -0.58034,9.04075c0,2.19662 0.30019,3.81761 2.40141,5.65641c0.52602,0.46032 2.10949,1.36219 2.06498,1.78919c-0.09634,0.92425 -0.45471,2.67125 -5.25369,2.67125c-7.54549,0 -13.66229,-6.1168 -13.66229,-13.6623z" fill="#558850" stroke="#191916" stroke-width="1" stroke-linecap="butt"/><path d="M226.83775,179.88211c-0.09527,-6.70566 5.91102,-12.98186 12.41936,-13.10686c1.54043,-0.02959 -0.30566,1.83266 -2.63585,4.50067c-1.40045,1.60348 -4.7461,3.86656 -5.55778,6.3561c-0.8893,2.72759 0.64568,5.98463 1.49621,8.87229c0.94185,3.19769 0.84047,4.8821 0.36155,4.5752c-3.68137,-2.35909 -6.01576,-6.43015 -6.08349,-11.19739z" fill="#69a764" stroke="none" stroke-width="0" stroke-linecap="butt"/><path d="M239.25711,166.77525c4.60378,-0.08842 5.66857,1.23487 5.63434,2.78399c-0.00797,0.36088 -1.43635,0.76144 -1.80962,1.14647c-0.73729,1.0691 -1.82684,1.91558 -2.16265,3.44117c-0.69296,3.14817 -0.71977,8.84855 -0.63518,9.48386c0.29037,2.18056 -0.07878,3.39219 1.99469,5.20671c0.51907,0.45424 2.51913,1.9067 2.47521,2.32806c-0.09507,0.91205 -0.2047,2.31167 -4.9343,2.07347c-1.03472,-0.05211 -1.30888,-0.84814 -1.21343,-1.7538c0.09871,-0.9366 0.58694,-2.01361 0.68135,-3.93354c0.11801,-2.39992 -1.67403,-5.59313 -1.66216,-8.57627c0.01265,-3.18052 1.83658,-6.14505 2.23109,-8.41486c0.27205,-1.56526 -0.49536,-1.14749 -0.90815,-1.68368c-0.66912,-0.86916 -1.08456,-2.07481 0.30881,-2.10157z" fill="#456e42" stroke="none" stroke-width="0" stroke-linecap="butt"/><g fill="none" stroke="#284126" stroke-width="0.75" stroke-linecap="round"><path d="M238.77274,193.22728c0,0 -3.32492,-2.49377 -4.11467,-4.03442c-1.00592,-1.96237 -1.51123,-4.06788 -1.43079,-6.78376c0.08044,-2.71588 0.81355,-3.1083 1.75802,-4.26423c1.0701,-1.30967 4.10211,-3.19031 4.10211,-3.19031"/><path d="M233.13637,182.04546c0,0 -1.09727,-3.50323 -1,-5.81818c0.09727,-2.31495 2.57231,-3.82902 4.63636,-5.18182c2.06406,-1.35279 7.45455,-3.18182 7.45455,-3.18182"/><path d="M232.40911,191.13638c0,0 -1.67748,-2.1584 -2.18182,-4.27273c-0.50434,-2.11432 -0.50335,-3.67089 0,-5.54545c0.50335,-1.87457 1.72727,-4.45455 1.72727,-4.45455"/><path d="M245.10715,191.32144c0,0 -5.35812,-0.87429 -7.85714,-3.5c-1.87411,-1.96912 -3.85714,-5.42857 -3.85714,-5.42857"/><path d="M229.82144,182.67858c0,0 -1.15196,-1.96359 -1.07143,-3.92857c0.08053,-1.96497 1.37566,-4.65581 4,-6.78571c2.62434,-2.1299 5,-1.64286 5,-1.64286"/><path d="M231.39287,173.03572c0,0 1.07623,-2.61218 1.98208,-3.65838c0.75823,-0.8757 3.08935,-2.19877 3.08935,-2.19877"/><path d="M241.96154,168.80769c0,0 -1.91523,2.54945 -2.46154,4.46154c-0.54631,1.91208 -0.86196,3.84188 -0.61539,6.30769c0.24658,2.46581 1.69231,4.46153 1.69231,4.46153"/></g><path d="M226.33775,180.00004c0,-7.54549 6.1168,-13.66229 13.66229,-13.66229c4.66626,0 5.30108,1.88477 5.2664,3.45461c-0.00808,0.36571 -1.32891,0.83496 -1.70717,1.22515c-0.62048,0.64005 -1.85129,1.94122 -2.19159,3.48723c-0.70224,3.1903 -0.58034,7.42322 -0.58034,9.04075c0,2.19662 0.30019,3.81761 2.40141,5.65641c0.52602,0.46032 2.10949,1.36219 2.06498,1.78919c-0.09634,0.92425 -0.45471,2.67125 -5.25369,2.67125c-7.54549,0 -13.66229,-6.1168 -13.66229,-13.6623z" fill="none" stroke="#191916" stroke-width="1" stroke-linecap="butt"/></g></g></svg>