<svg version="1.1" xmlns="http://www.w3.org/2000/svg" xmlns:xlink="http://www.w3.org/1999/xlink" width="252.90169" height="263.87727" viewBox="0,0,252.90169,263.87727"><g transform="translate(-101.8918,-60.42551)"><g data-paper-data="{&quot;isPaintingLayer&quot;:true}" fill-rule="evenodd" stroke-linecap="round" stroke-linejoin="round" stroke-miterlimit="10" stroke-dasharray="" stroke-dashoffset="0" style="mix-blend-mode: normal"><path d="M183.43589,125.21569c35.38425,-35.33348 87.1559,-35.34968 122.49358,-0.08848c35.33768,35.26119 35.40872,86.97152 0.00626,122.32319c-35.40246,35.35166 -87.03095,35.37029 -122.49159,-0.0136c-35.46065,-35.38389 -35.3925,-86.88762 -0.00825,-122.22111z" data-paper-data="{&quot;origRot&quot;:0,&quot;index&quot;:null}" fill="none" stroke="#f6f6f6" stroke-width="10.5" opacity="0.42445"/><path d="M244.77733,296.30601c2.53653,-2.53289 6.24778,-2.53405 8.78097,-0.00634c2.53319,2.5277 2.53828,6.23457 0.00045,8.76876c-2.53783,2.53419 -6.23883,2.53553 -8.78083,-0.00097c-2.542,-2.5365 -2.53712,-6.22855 -0.00059,-8.76144z" data-paper-data="{&quot;origRot&quot;:0,&quot;index&quot;:null}" fill="#ffffff" stroke="none" stroke-width="0" opacity="0.42445"/><path d="M187.11066,304.97267c2.53653,-2.53289 6.24779,-2.53405 8.78097,-0.00635c2.53319,2.52771 2.53828,6.23457 0.00045,8.76876c-2.53783,2.53419 -6.23883,2.53553 -8.78083,-0.00097c-2.542,-2.5365 -2.53712,-6.22855 -0.0006,-8.76144z" data-paper-data="{&quot;origRot&quot;:0,&quot;index&quot;:null}" fill="#ffffff" stroke="none" stroke-width="0" opacity="0.42445"/><path d="M289.17833,317.03416c1.72899,-1.72651 4.25873,-1.72731 5.98545,-0.00432c1.72672,1.72298 1.73019,4.24972 0.00031,5.97712c-1.72988,1.7274 -4.25263,1.72831 -5.98535,-0.00066c-1.73272,-1.72898 -1.7294,-4.24562 -0.00041,-5.97213z" data-paper-data="{&quot;origRot&quot;:0,&quot;index&quot;:null}" fill="#ffffff" stroke="none" stroke-width="0" opacity="0.42445"/><path d="M309.43047,200.28887c2.06486,-2.06189 5.08602,-2.06284 7.14816,-0.00517c2.06214,2.05768 2.06628,5.07526 0.00036,7.13821c-2.06592,2.06296 -5.07872,2.06404 -7.14804,-0.00079c-2.06932,-2.06484 -2.06535,-5.07036 -0.00048,-7.13225z" data-paper-data="{&quot;origRot&quot;:0,&quot;index&quot;:null}" fill="#ffffff" stroke="none" stroke-width="0" opacity="0.42445"/><path d="M313.43046,192.6222c2.06486,-2.06189 5.08602,-2.06284 7.14816,-0.00516c2.06214,2.05768 2.06628,5.07526 0.00036,7.13822c-2.06592,2.06295 -5.07872,2.06404 -7.14804,-0.0008c-2.06932,-2.06484 -2.06534,-5.07036 -0.00048,-7.13226z" data-paper-data="{&quot;origRot&quot;:0,&quot;index&quot;:null}" fill="#ffffff" stroke="none" stroke-width="0" opacity="0.42445"/><path d="M346.09713,235.6222c2.06486,-2.06189 5.08602,-2.06285 7.14816,-0.00517c2.06214,2.05768 2.06628,5.07526 0.00036,7.13822c-2.06592,2.06295 -5.07872,2.06405 -7.14804,-0.00079c-2.06932,-2.06484 -2.06534,-5.07036 -0.00048,-7.13226z" data-paper-data="{&quot;origRot&quot;:0,&quot;index&quot;:null}" fill="#ffffff" stroke="none" stroke-width="0" opacity="0.42445"/><path d="M192.7638,157.6222c2.06486,-2.06189 5.08602,-2.06285 7.14816,-0.00517c2.06214,2.05768 2.06628,5.07526 0.00036,7.13822c-2.06592,2.06295 -5.07872,2.06405 -7.14804,-0.00079c-2.06932,-2.06484 -2.06535,-5.07036 -0.00049,-7.13226z" data-paper-data="{&quot;origRot&quot;:0,&quot;index&quot;:null}" fill="#ffffff" stroke="none" stroke-width="0" opacity="0.42445"/><path d="M211.60139,134.1316c2.73659,-2.73266 6.74059,-2.73392 9.47357,-0.00685c2.73299,2.72708 2.73848,6.72632 0.00048,9.46039c-2.738,2.73407 -6.73092,2.73551 -9.47341,-0.00105c-2.7425,-2.73657 -2.73724,-6.71983 -0.00064,-9.45249z" data-paper-data="{&quot;origRot&quot;:0,&quot;index&quot;:null}" fill="#ffffff" stroke="none" stroke-width="0" opacity="0.42445"/><path d="M215.98631,90.50675c1.458,-1.45591 3.59124,-1.45658 5.04733,-0.00365c1.45608,1.45293 1.45901,3.58365 0.00026,5.0403c-1.45875,1.45666 -3.5861,1.45742 -5.04724,-0.00056c-1.46114,-1.45799 -1.45834,-3.58019 -0.00034,-5.03609z" data-paper-data="{&quot;origRot&quot;:0,&quot;index&quot;:null}" fill="#ffffff" stroke="none" stroke-width="0" opacity="0.42445"/><path d="M280.98631,96.17341c1.458,-1.45591 3.59125,-1.45657 5.04733,-0.00364c1.45608,1.45293 1.459,3.58365 0.00026,5.0403c-1.45875,1.45665 -3.58609,1.45742 -5.04724,-0.00056c-1.46114,-1.45798 -1.45835,-3.58019 -0.00035,-5.0361z" data-paper-data="{&quot;origRot&quot;:0,&quot;index&quot;:null}" fill="#ffffff" stroke="none" stroke-width="0" opacity="0.42445"/><path d="M323.61108,97.47461c2.73429,-2.73036 6.73493,-2.73162 9.46562,-0.00684c2.73069,2.72478 2.73617,6.72067 0.00048,9.45243c-2.73569,2.73177 -6.72526,2.73321 -9.46545,-0.00105c-2.74019,-2.73426 -2.73494,-6.71419 -0.00065,-9.44455z" data-paper-data="{&quot;origRot&quot;:0,&quot;index&quot;:null}" fill="#ffffff" stroke="none" stroke-width="0" opacity="0.42445"/><path d="M244.67263,61.11297c1.92821,-0.91603 4.74945,-0.91645 6.67512,-0.00229c1.92567,0.91415 1.92954,2.25476 0.00034,3.17125c-1.9292,0.9165 -4.74263,0.91698 -6.675,-0.00035c-1.93237,-0.91734 -1.92867,-2.25258 -0.00046,-3.16861z" data-paper-data="{&quot;origRot&quot;:0,&quot;index&quot;:null}" fill="#ffffff" stroke="none" stroke-width="0" opacity="0.42445"/><path d="M102.98631,153.50674c1.458,-1.45591 3.59125,-1.45657 5.04733,-0.00365c1.45608,1.45293 1.459,3.58365 0.00026,5.0403c-1.45874,1.45666 -3.58609,1.45743 -5.04724,-0.00056c-1.46114,-1.45798 -1.45835,-3.58019 -0.00035,-5.03609z" data-paper-data="{&quot;origRot&quot;:0,&quot;index&quot;:null}" fill="#ffffff" stroke="none" stroke-width="0" opacity="0.42445"/><path d="M135.08716,183.60863c1.59235,-1.59006 3.92216,-1.59079 5.51241,-0.00398c1.59025,1.58681 1.59344,3.91386 0.00028,5.50474c-1.59316,1.59088 -3.91653,1.59172 -5.51231,-0.00061c-1.59578,-1.59233 -1.59272,-3.91008 -0.00038,-5.50014z" data-paper-data="{&quot;origRot&quot;:0,&quot;index&quot;:null}" fill="#ffffff" stroke="none" stroke-width="0" opacity="0.42445"/><path d="M148.48205,178.94196c0.78627,-1.59006 1.93668,-1.59079 2.72191,-0.00398c0.78523,1.58681 0.78681,3.91385 0.00014,5.50473c-0.78667,1.59088 -1.9339,1.59172 -2.72187,-0.00061c-0.78796,-1.59233 -0.78645,-3.91009 -0.00019,-5.50015z" data-paper-data="{&quot;origRot&quot;:0,&quot;index&quot;:null}" fill="#ffffff" stroke="none" stroke-width="0" opacity="0.42445"/><path d="M204.10682,276.63187c2.06256,-2.0596 5.08036,-2.06054 7.1402,-0.00516c2.05984,2.05539 2.06398,5.0696 0.00036,7.13026c-2.06361,2.06066 -5.07307,2.06175 -7.14008,-0.00079c-2.06701,-2.06254 -2.06304,-5.06472 -0.00049,-7.12431z" data-paper-data="{&quot;origRot&quot;:0,&quot;index&quot;:null}" fill="#ffffff" stroke="none" stroke-width="0" opacity="0.42445"/><path d="M203.65298,215.17341c1.458,-1.45591 3.59125,-1.45658 5.04733,-0.00364c1.45608,1.45293 1.459,3.58364 0.00026,5.0403c-1.45875,1.45666 -3.5861,1.45743 -5.04724,-0.00056c-1.46114,-1.45799 -1.45834,-3.58019 -0.00034,-5.03609z" data-paper-data="{&quot;origRot&quot;:0,&quot;index&quot;:null}" fill="#ffffff" stroke="none" stroke-width="0" opacity="0.42445"/><path d="M274.98631,232.84008c1.458,-1.45591 3.59124,-1.45658 5.04733,-0.00365c1.45608,1.45293 1.459,3.58364 0.00026,5.0403c-1.45875,1.45666 -3.5861,1.45743 -5.04725,-0.00056c-1.46114,-1.45799 -1.45834,-3.58018 -0.00034,-5.03609z" data-paper-data="{&quot;origRot&quot;:0,&quot;index&quot;:null}" fill="#ffffff" stroke="none" stroke-width="0" opacity="0.42445"/><path d="M243.31965,235.20416c1.45799,-1.05272 3.59125,-1.0532 5.04732,-0.00264c1.45608,1.05057 1.45901,2.59122 0.00026,3.64448c-1.45874,1.05326 -3.5861,1.05382 -5.04724,-0.0004c-1.46114,-1.05422 -1.45833,-2.58872 -0.00034,-3.64144z" data-paper-data="{&quot;origRot&quot;:0,&quot;index&quot;:null}" fill="#ffffff" stroke="none" stroke-width="0" opacity="0.42445"/><path d="M270.98632,257.20416c1.458,-1.05273 3.59124,-1.0532 5.04733,-0.00263c1.45608,1.05057 1.459,2.59122 0.00026,3.64448c-1.45875,1.05326 -3.5861,1.05383 -5.04725,-0.0004c-1.46114,-1.05423 -1.45834,-2.58872 -0.00034,-3.64145z" data-paper-data="{&quot;origRot&quot;:0,&quot;index&quot;:null}" fill="#ffffff" stroke="none" stroke-width="0" opacity="0.42445"/><path d="M325.45128,243.7589c1.1893,-1.7919 2.92942,-1.79272 4.11716,-0.00449c1.18774,1.78823 1.19013,4.41066 0.00021,6.20348c-1.18991,1.79281 -2.92522,1.79378 -4.11709,-0.00068c-1.19187,-1.79446 -1.18958,-4.40641 -0.00028,-6.19831z" data-paper-data="{&quot;origRot&quot;:0,&quot;index&quot;:null}" fill="#ffffff" stroke="none" stroke-width="0" opacity="0.42445"/></g></g></svg>