<svg version="1.1" xmlns="http://www.w3.org/2000/svg" xmlns:xlink="http://www.w3.org/1999/xlink" width="183.81688" height="173.54951" viewBox="0,0,183.81688,173.54951"><g transform="translate(-150.64967,-104.21467)"><g data-paper-data="{&quot;isPaintingLayer&quot;:true}" fill-rule="nonzero" stroke="none" stroke-width="0" stroke-linecap="butt" stroke-linejoin="miter" stroke-miterlimit="10" stroke-dasharray="" stroke-dashoffset="0" style="mix-blend-mode: normal"><path d="M231.39967,125.80905c0,10.83859 -8.73045,19.625 -19.5,19.625c-10.76955,0 -19.5,-8.78641 -19.5,-19.625c0,-10.83859 8.73045,-19.625 19.5,-19.625c10.76955,0 19.5,8.78641 19.5,19.625z" fill="#ffffff"/><path d="M263.14967,128.80905c0,10.83859 -8.73045,19.625 -19.5,19.625c-10.76955,0 -19.5,-8.78641 -19.5,-19.625c0,-10.83859 8.73045,-19.625 19.5,-19.625c10.76956,0 19.5,8.78641 19.5,19.625z" fill="#ffffff"/><path d="M217.39967,134.30905c0,10.83859 -8.73045,19.625 -19.5,19.625c-10.76955,0 -19.5,-8.78641 -19.5,-19.625c0,-10.83859 8.73045,-19.625 19.5,-19.625c10.76955,0 19.5,8.78641 19.5,19.625z" fill="#ffffff"/><path d="M209.64967,154.80905c0,10.83859 -8.73045,19.625 -19.5,19.625c-10.76955,0 -19.5,-8.78641 -19.5,-19.625c0,-10.83859 8.73045,-19.625 19.5,-19.625c10.76955,0 19.5,8.78641 19.5,19.625z" fill="#ffffff"/><path d="M202.14967,180.09911c0,14.3125 -11.52866,25.91506 -25.75,25.91506c-14.22134,0 -25.75,-11.60257 -25.75,-25.91506c0,-14.3125 11.52866,-25.91506 25.75,-25.91506c14.22134,0 25.75,11.60257 25.75,25.91506z" fill="#ffffff"/><path d="M245.89967,243.59912c0,14.31249 -11.52866,25.91507 -25.75,25.91507c-14.22134,0 -25.75,-11.60257 -25.75,-25.91506c0,-14.3125 11.52866,-25.91506 25.75,-25.91506c14.22134,0 25.75,11.60257 25.75,25.91507z" fill="#ffffff"/><path d="M216.21655,219.09912c0,11.413 -9.19313,20.66506 -20.53344,20.66506c-11.34031,0 -20.53344,-9.25206 -20.53344,-20.66506c0,-11.413 9.19313,-20.66506 20.53344,-20.66506c11.34031,0 20.53344,9.25206 20.53344,20.66506z" fill="#ffffff"/><path d="M213.46655,207.84912c0,11.413 -9.19313,20.66506 -20.53344,20.66506c-11.34031,0 -20.53344,-9.25206 -20.53344,-20.66506c0,-11.413 9.19313,-20.66506 20.53344,-20.66506c11.34031,0 20.53344,9.25206 20.53344,20.66506z" fill="#ffffff"/><path d="M271.96655,257.09912c0,11.413 -10.14452,20.66506 -22.65844,20.66506c-12.51392,0 -22.65844,-9.25207 -22.65844,-20.66506c0,-11.413 10.14452,-20.66506 22.65844,-20.66506c12.51392,0 22.65844,9.25206 22.65844,20.66506z" fill="#ffffff"/><path d="M286.71655,246.59911c0,11.413 -10.14452,20.66507 -22.65844,20.66507c-12.51391,0 -22.65844,-9.25207 -22.65844,-20.66507c0,-11.413 10.14453,-20.66506 22.65844,-20.66506c12.51391,0 22.65844,9.25206 22.65844,20.66506z" fill="#ffffff"/><path d="M295.46655,239.09912c0,11.413 -10.14452,20.66506 -22.65844,20.66506c-12.51391,0 -22.65844,-9.25207 -22.65844,-20.66506c0,-11.413 10.14453,-20.66506 22.65844,-20.66506c12.51391,0 22.65844,9.25206 22.65844,20.66506z" fill="#ffffff"/><path d="M323.71655,226.84912c0,11.413 -10.14452,20.66506 -22.65844,20.66506c-12.51391,0 -22.65844,-9.25206 -22.65844,-20.66506c0,-11.413 10.14452,-20.66506 22.65844,-20.66506c12.51391,0 22.65844,9.25206 22.65844,20.66506z" fill="#ffffff"/><path d="M334.46655,212.59912c0,12.24143 -10.14452,22.16506 -22.65844,22.16506c-12.51391,0 -22.65844,-9.92364 -22.65844,-22.16506c0,-12.24143 10.14452,-22.16506 22.65844,-22.16506c12.51391,0 22.65844,9.92364 22.65844,22.16506z" fill="#ffffff"/><path d="M331.21655,193.59912c0,12.24142 -10.14452,22.16507 -22.65844,22.16507c-12.51391,0 -22.65844,-9.92364 -22.65844,-22.16506c0,-12.24142 10.14452,-22.16506 22.65844,-22.16506c12.51391,0 22.65844,9.92364 22.65844,22.16507z" fill="#ffffff"/><path d="M330.71655,170.34912c0,12.24142 -10.14452,22.16507 -22.65844,22.16507c-12.51391,0 -22.65844,-9.92364 -22.65844,-22.16506c0,-12.24142 10.14452,-22.16506 22.65844,-22.16506c12.51391,0 22.65844,9.92364 22.65844,22.16507z" fill="#ffffff"/><path d="M315.21655,131.34912c0,12.24142 -10.14452,22.16507 -22.65844,22.16507c-12.51391,0 -22.65844,-9.92364 -22.65844,-22.16506c0,-12.24142 10.14452,-22.16506 22.65844,-22.16506c12.51391,0 22.65844,9.92364 22.65844,22.16507z" fill="#ffffff"/><path d="M302.00815,132.63089c11.86853,-2.99841 23.97468,4.40639 27.03984,16.53911c3.06516,12.13272 -4.07139,24.39892 -15.93992,27.39734c-11.86853,2.99841 -23.97468,-4.40639 -27.03984,-16.53911c-3.06516,-12.13272 4.07139,-24.39892 15.93992,-27.39734z" data-paper-data="{&quot;index&quot;:null}" fill="#ffffff"/><path d="M268.75815,104.88089c11.86853,-2.99841 23.97468,4.4064 27.03984,16.53912c3.06516,12.13272 -4.07139,24.39892 -15.93992,27.39734c-11.86853,2.99841 -23.97468,-4.4064 -27.03984,-16.53912c-3.06516,-12.13272 4.07139,-24.39892 15.93992,-27.39733z" data-paper-data="{&quot;index&quot;:null}" fill="#ffffff"/><path d="M254.75815,107.88089c11.86853,-2.99841 23.97468,4.4064 27.03984,16.53912c3.06516,12.13272 -4.07139,24.39892 -15.93992,27.39734c-11.86853,2.99841 -23.97468,-4.4064 -27.03984,-16.53912c-3.06516,-12.13272 4.07139,-24.39892 15.93992,-27.39733z" data-paper-data="{&quot;index&quot;:null}" fill="#ffffff"/><path d="M233.3521,124.31134c30.64671,-7.74245 61.90699,11.37811 69.82179,42.70701c7.9148,31.32889 -10.51307,63.00245 -41.15978,70.74491c-30.64671,7.74245 -61.90699,-11.37811 -69.82179,-42.70701c-7.9148,-31.32889 10.51307,-63.00245 41.15978,-70.74491z" data-paper-data="{&quot;index&quot;:null}" fill="#ffffff"/><path d="M222.39967,187.93405c0,4.00406 -3.24594,7.25 -7.25,7.25c-4.00406,0 -7.25,-3.24594 -7.25,-7.25c0,-4.00406 3.24594,-7.25 7.25,-7.25c4.00406,0 7.25,3.24594 7.25,7.25z" fill="#fcb400"/><path d="M252.64967,161.43405c0,5.10863 -4.14137,9.25 -9.25,9.25c-5.10863,0 -9.25,-4.14137 -9.25,-9.25c0,-5.10863 4.14137,-9.25 9.25,-9.25c5.10863,0 9.25,4.14137 9.25,9.25z" fill="#484855"/><path d="M276.39967,171.93405c0,5.10863 -4.14137,9.25 -9.25,9.25c-5.10864,0 -9.25,-4.14137 -9.25,-9.25c0,-5.10863 4.14136,-9.25 9.25,-9.25c5.10863,0 9.25,4.14137 9.25,9.25z" fill="#484855"/><path d="M263.64967,172.68405c0,5.10863 -4.14137,9.25 -9.25,9.25c-5.10863,0 -9.25,-4.14137 -9.25,-9.25c0,-5.10863 4.14137,-9.25 9.25,-9.25c5.10863,0 9.25,4.14137 9.25,9.25z" fill="#484855"/><path d="M266.14967,186.43405c0,5.10863 -4.14137,9.25 -9.25,9.25c-5.10864,0 -9.25,-4.14137 -9.25,-9.25c0,-5.10863 4.14137,-9.25 9.25,-9.25c5.10863,0 9.25,4.14137 9.25,9.25z" fill="#484855"/><path d="M255.89967,176.93405c0,5.10863 -4.14137,9.25 -9.25,9.25c-5.10863,0 -9.25,-4.14137 -9.25,-9.25c0,-5.10863 4.14137,-9.25 9.25,-9.25c5.10863,0 9.25,4.14137 9.25,9.25z" fill="#484855"/><path d="M244.89967,165.43405c0,5.10863 -4.14137,9.25 -9.25,9.25c-5.10863,0 -9.25,-4.14137 -9.25,-9.25c0,-5.10863 4.14137,-9.25 9.25,-9.25c5.10863,0 9.25,4.14137 9.25,9.25z" fill="#484855"/><path d="M232.39967,164.80905c0,2.96853 -2.40647,5.375 -5.375,5.375c-2.96853,0 -5.375,-2.40647 -5.375,-5.375c0,-2.96853 2.40647,-5.375 5.375,-5.375c2.96853,0 5.375,2.40647 5.375,5.375z" fill="#484855"/><path d="M234.39967,177.93405c0,4.55635 -3.69365,8.25 -8.25,8.25c-4.55635,0 -8.25,-3.69365 -8.25,-8.25c0,-4.55635 3.69365,-8.25 8.25,-8.25c4.55635,0 8.25,3.69365 8.25,8.25z" fill="#484855"/><path d="M245.64967,180.43405c0,4.55635 -3.69365,8.25 -8.25,8.25c-4.55635,0 -8.25,-3.69365 -8.25,-8.25c0,-4.55635 3.69365,-8.25 8.25,-8.25c4.55635,0 8.25,3.69365 8.25,8.25z" fill="#484855"/><path d="M275.39967,188.43405c0,4.55635 -3.69365,8.25 -8.25,8.25c-4.55635,0 -8.25,-3.69365 -8.25,-8.25c0,-4.55635 3.69365,-8.25 8.25,-8.25c4.55635,0 8.25,3.69365 8.25,8.25z" fill="#484855"/><path d="M272.64967,197.18405c0,4.55635 -3.69365,8.25 -8.25,8.25c-4.55635,0 -8.25,-3.69365 -8.25,-8.25c0,-4.55635 3.69365,-8.25 8.25,-8.25c4.55635,0 8.25,3.69365 8.25,8.25z" fill="#484855"/><path d="M263.39967,202.80905c0,5.59188 -4.53312,10.125 -10.125,10.125c-5.59188,0 -10.125,-4.53312 -10.125,-10.125c0,-5.59188 4.53312,-10.125 10.125,-10.125c5.59188,0 10.125,4.53312 10.125,10.125z" fill="#484855"/><path d="M251.14967,206.80905c0,6.14417 -4.98083,11.125 -11.125,11.125c-6.14417,0 -11.125,-4.98083 -11.125,-11.125c0,-6.14417 4.98083,-11.125 11.125,-11.125c6.14417,0 11.125,4.98083 11.125,11.125z" fill="#484855"/><path d="M240.89967,199.05905c0,4.76346 -3.86154,8.625 -8.625,8.625c-4.76346,0 -8.625,-3.86154 -8.625,-8.625c0,-4.76346 3.86154,-8.625 8.625,-8.625c4.76346,0 8.625,3.86154 8.625,8.625z" fill="#484855"/><path d="M241.39967,186.80905c0,4.76346 -3.86154,8.625 -8.625,8.625c-4.76346,0 -8.625,-3.86154 -8.625,-8.625c0,-4.76346 3.86154,-8.625 8.625,-8.625c4.76346,0 8.625,3.86154 8.625,8.625z" fill="#484855"/></g></g></svg>