<svg version="1.1" xmlns="http://www.w3.org/2000/svg" xmlns:xlink="http://www.w3.org/1999/xlink" width="27.72281" height="28.11413" viewBox="0,0,27.72281,28.11413"><g transform="translate(-306.1386,-165.90016)"><g stroke="none" stroke-miterlimit="10"><path d="M333.86141,171.7202c0,5.56909 0,13.84629 0,16.97314c0,2.38497 -3.3389,5.32095 -5.9406,5.32095c-3.09057,0 -10.72948,0 -16.08408,0c-3.2768,0 -5.69813,-2.39025 -5.69813,-5.64424c0,-5.4742 0,-13.39291 0,-16.4882c0,-2.48034 2.50224,-5.57826 5.85936,-5.56341c5.3183,0.02351 12.78207,0.05388 15.84202,0.05388c2.6293,0 6.02143,2.20126 6.02143,5.34789z" fill="#009bff" stroke-width="0"/><text transform="translate(330.07601,172.19766) rotate(-180) scale(0.5038,0.5038)" font-size="40" xml:space="preserve" fill="#ffffff" stroke-width="1" font-family="Sans Serif" font-weight="normal" text-anchor="start"><tspan x="0" dy="0">←</tspan></text></g></g></svg>