<svg version="1.1" xmlns="http://www.w3.org/2000/svg" xmlns:xlink="http://www.w3.org/1999/xlink" width="575.87612" height="342.0874" viewBox="0,0,575.87612,342.0874"><g transform="translate(-54.72342,-13.32256)"><g fill-opacity="0.74902" fill="#ffffff" stroke="#000000" stroke-width="0" stroke-miterlimit="10"><path d="M221.72749,116.85347c0,-21.75546 0,-85.19554 0,-96.80935c0,-3.57323 4.15366,-6.72156 8.20152,-6.72156c8.50834,0 40.7062,0 57.03762,0c5.81982,0 9.62475,3.25395 9.62475,6.922c0,11.22988 0,70.99753 0,95.00545c0,3.88111 -4.98888,8.92871 -9.62475,8.92871c-9.06497,0 -41.31415,0 -56.80856,0c-5.13563,0 -8.43059,-2.73461 -8.43059,-7.32525z"/><path d="M138.22546,116.85347c0,-21.75546 0,-85.19554 0,-96.80935c0,-3.57323 4.15365,-6.72156 8.20152,-6.72156c8.50834,0 40.7062,0 57.03762,0c5.81982,0 9.62475,3.25395 9.62475,6.922c0,11.22988 0,70.99753 0,95.00545c0,3.88111 -4.98888,8.92871 -9.62475,8.92871c-9.06497,0 -41.31415,0 -56.80856,0c-5.13562,0 -8.43058,-2.73461 -8.43058,-7.32525z"/><path d="M54.72342,116.85347c0,-21.75546 0,-85.19554 0,-96.80935c0,-3.57323 4.15366,-6.72156 8.20152,-6.72156c8.50834,0 40.70619,0 57.03762,0c5.81982,0 9.62475,3.25395 9.62475,6.922c0,11.22988 0,70.99753 0,95.00545c0,3.88111 -4.98888,8.92871 -9.62475,8.92871c-9.06497,0 -41.31415,0 -56.80856,0c-5.13562,0 -8.43058,-2.73461 -8.43058,-7.32525z"/><path d="M388.73157,116.85347c0,-21.75546 0,-85.19554 0,-96.80935c0,-3.57323 4.15366,-6.72156 8.20152,-6.72156c8.50835,0 40.70619,0 57.03762,0c5.81981,0 9.62475,3.25395 9.62475,6.922c0,11.22988 0,70.99753 0,95.00545c0,3.88111 -4.98888,8.92871 -9.62475,8.92871c-9.06497,0 -41.31415,0 -56.80856,0c-5.13563,0 -8.43059,-2.73461 -8.43059,-7.32525z"/><path d="M305.22953,116.85347c0,-21.75546 0,-85.19554 0,-96.80935c0,-3.57323 4.15365,-6.72156 8.20152,-6.72156c8.50835,0 40.70619,0 57.03763,0c5.81981,0 9.62475,3.25395 9.62475,6.922c0,11.22988 0,70.99753 0,95.00545c0,3.88111 -4.98888,8.92871 -9.62475,8.92871c-9.06497,0 -41.31415,0 -56.80856,0c-5.13563,0 -8.43058,-2.73461 -8.43058,-7.32525z"/><path d="M555.73565,116.85347c0,-21.75546 0,-85.19554 0,-96.80935c0,-3.57323 4.15366,-6.72156 8.20152,-6.72156c8.50834,0 40.70619,0 57.03762,0c5.81982,0 9.62475,3.25395 9.62475,6.922c0,11.22988 0,70.99753 0,95.00545c0,3.88111 -4.98888,8.92871 -9.62475,8.92871c-9.06497,0 -41.31415,0 -56.80856,0c-5.13563,0 -8.43059,-2.73461 -8.43059,-7.32525z"/><path d="M472.23361,116.85347c0,-21.75546 0,-85.19554 0,-96.80935c0,-3.57323 4.15366,-6.72156 8.20152,-6.72156c8.50835,0 40.70619,0 57.03763,0c5.81981,0 9.62475,3.25395 9.62475,6.922c0,11.22988 0,70.99753 0,95.00545c0,3.88111 -4.98888,8.92871 -9.62475,8.92871c-9.06497,0 -41.31415,0 -56.80856,0c-5.13563,0 -8.43059,-2.73461 -8.43059,-7.32525z"/><path d="M54.72342,232.46909c0,-21.75546 0,-85.19554 0,-96.80935c0,-3.57323 4.15366,-6.72156 8.20152,-6.72156c8.50834,0 40.70619,0 57.03762,0c5.81982,0 9.62475,3.25395 9.62475,6.922c0,11.22988 0,70.99753 0,95.00545c0,3.88111 -4.98888,8.92871 -9.62475,8.92871c-9.06497,0 -41.31415,0 -56.80856,0c-5.13562,0 -8.43058,-2.73461 -8.43058,-7.32525z"/><path d="M54.72342,348.0847c0,-21.75546 0,-85.19554 0,-96.80935c0,-3.57323 4.15366,-6.72156 8.20152,-6.72156c8.50834,0 40.70619,0 57.03762,0c5.81982,0 9.62475,3.25395 9.62475,6.922c0,11.22988 0,70.99753 0,95.00545c0,3.88111 -4.98888,8.92871 -9.62475,8.92871c-9.06497,0 -41.31415,0 -56.80856,0c-5.13562,0 -8.43058,-2.73461 -8.43058,-7.32525z"/><path d="M138.22546,232.46909c0,-21.75546 0,-85.19554 0,-96.80935c0,-3.57323 4.15366,-6.72156 8.20152,-6.72156c8.50834,0 40.70619,0 57.03762,0c5.81982,0 9.62475,3.25395 9.62475,6.922c0,11.22988 0,70.99753 0,95.00545c0,3.88111 -4.98888,8.92871 -9.62475,8.92871c-9.06497,0 -41.31415,0 -56.80856,0c-5.13562,0 -8.43058,-2.73461 -8.43058,-7.32525z"/><path d="M138.22546,348.08471c0,-21.75546 0,-85.19554 0,-96.80935c0,-3.57323 4.15366,-6.72156 8.20152,-6.72156c8.50834,0 40.70619,0 57.03762,0c5.81982,0 9.62475,3.25395 9.62475,6.922c0,11.22988 0,70.99753 0,95.00545c0,3.88111 -4.98888,8.92871 -9.62475,8.92871c-9.06497,0 -41.31415,0 -56.80856,0c-5.13562,0 -8.43058,-2.73461 -8.43058,-7.32525z"/><path d="M221.72747,232.46908c0,-21.75546 0,-85.19554 0,-96.80935c0,-3.57323 4.15366,-6.72156 8.20152,-6.72156c8.50834,0 40.70619,0 57.03762,0c5.81982,0 9.62475,3.25395 9.62475,6.922c0,11.22988 0,70.99753 0,95.00545c0,3.88111 -4.98888,8.92871 -9.62475,8.92871c-9.06497,0 -41.31415,0 -56.80856,0c-5.13562,0 -8.43058,-2.73461 -8.43058,-7.32525z"/><path d="M221.72747,348.08471c0,-21.75546 0,-85.19554 0,-96.80935c0,-3.57323 4.15366,-6.72156 8.20152,-6.72156c8.50834,0 40.70619,0 57.03762,0c5.81982,0 9.62475,3.25395 9.62475,6.922c0,11.22988 0,70.99753 0,95.00545c0,3.88111 -4.98888,8.92871 -9.62475,8.92871c-9.06497,0 -41.31415,0 -56.80856,0c-5.13562,0 -8.43058,-2.73461 -8.43058,-7.32525z"/><path d="M305.22952,232.46909c0,-21.75546 0,-85.19554 0,-96.80935c0,-3.57323 4.15366,-6.72156 8.20152,-6.72156c8.50834,0 40.70619,0 57.03762,0c5.81982,0 9.62475,3.25395 9.62475,6.922c0,11.22988 0,70.99753 0,95.00545c0,3.88111 -4.98888,8.92871 -9.62475,8.92871c-9.06497,0 -41.31415,0 -56.80856,0c-5.13562,0 -8.43058,-2.73461 -8.43058,-7.32525z"/><path d="M305.22952,348.08471c0,-21.75546 0,-85.19554 0,-96.80935c0,-3.57323 4.15366,-6.72156 8.20152,-6.72156c8.50834,0 40.70619,0 57.03762,0c5.81982,0 9.62475,3.25395 9.62475,6.922c0,11.22988 0,70.99753 0,95.00545c0,3.88111 -4.98888,8.92871 -9.62475,8.92871c-9.06497,0 -41.31415,0 -56.80856,0c-5.13562,0 -8.43058,-2.73461 -8.43058,-7.32525z"/><path d="M388.73157,232.46909c0,-21.75546 0,-85.19554 0,-96.80935c0,-3.57323 4.15366,-6.72156 8.20152,-6.72156c8.50834,0 40.70619,0 57.03762,0c5.81982,0 9.62475,3.25395 9.62475,6.922c0,11.22988 0,70.99753 0,95.00545c0,3.88111 -4.98888,8.92871 -9.62475,8.92871c-9.06497,0 -41.31415,0 -56.80856,0c-5.13562,0 -8.43058,-2.73461 -8.43058,-7.32525z"/><path d="M388.73157,348.08471c0,-21.75546 0,-85.19554 0,-96.80935c0,-3.57323 4.15366,-6.72156 8.20152,-6.72156c8.50834,0 40.70619,0 57.03762,0c5.81982,0 9.62475,3.25395 9.62475,6.922c0,11.22988 0,70.99753 0,95.00545c0,3.88111 -4.98888,8.92871 -9.62475,8.92871c-9.06497,0 -41.31415,0 -56.80856,0c-5.13562,0 -8.43058,-2.73461 -8.43058,-7.32525z"/><path d="M472.23361,232.46909c0,-21.75546 0,-85.19554 0,-96.80935c0,-3.57323 4.15366,-6.72156 8.20152,-6.72156c8.50834,0 40.70619,0 57.03762,0c5.81982,0 9.62475,3.25395 9.62475,6.922c0,11.22988 0,70.99753 0,95.00545c0,3.88111 -4.98888,8.92871 -9.62475,8.92871c-9.06497,0 -41.31415,0 -56.80856,0c-5.13562,0 -8.43058,-2.73461 -8.43058,-7.32525z"/><path d="M472.23361,348.08471c0,-21.75546 0,-85.19554 0,-96.80935c0,-3.57323 4.15366,-6.72156 8.20152,-6.72156c8.50834,0 40.70619,0 57.03762,0c5.81982,0 9.62475,3.25395 9.62475,6.922c0,11.22988 0,70.99753 0,95.00545c0,3.88111 -4.98888,8.92871 -9.62475,8.92871c-9.06497,0 -41.31415,0 -56.80856,0c-5.13562,0 -8.43058,-2.73461 -8.43058,-7.32525z"/><path d="M555.73564,232.46909c0,-21.75546 0,-85.19554 0,-96.80935c0,-3.57323 4.15366,-6.72156 8.20152,-6.72156c8.50834,0 40.70619,0 57.03762,0c5.81982,0 9.62475,3.25395 9.62475,6.922c0,11.22988 0,70.99753 0,95.00545c0,3.88111 -4.98888,8.92871 -9.62475,8.92871c-9.06497,0 -41.31415,0 -56.80856,0c-5.13562,0 -8.43058,-2.73461 -8.43058,-7.32525z"/><path d="M555.73564,348.08471c0,-21.75546 0,-85.19554 0,-96.80935c0,-3.57323 4.15366,-6.72156 8.20152,-6.72156c8.50834,0 40.70619,0 57.03762,0c5.81982,0 9.62475,3.25395 9.62475,6.922c0,11.22988 0,70.99753 0,95.00545c0,3.88111 -4.98888,8.92871 -9.62475,8.92871c-9.06497,0 -41.31415,0 -56.80856,0c-5.13562,0 -8.43058,-2.73461 -8.43058,-7.32525z"/></g></g></svg>