<svg version="1.1" xmlns="http://www.w3.org/2000/svg" xmlns:xlink="http://www.w3.org/1999/xlink" width="244" height="258" viewBox="0,0,244,258"><g transform="translate(-198,-51)"><g stroke="none" stroke-miterlimit="10"><path d="M198,309v-258h244v258z" fill="none" stroke-width="0"/><g><path d="M310.1754,243.5c28.55312,0 51.7,5.46213 51.7,12.2c0,6.73787 -23.14688,12.2 -51.7,12.2c-28.55312,0 -51.7,-5.46213 -51.7,-12.2c0,-6.73787 23.14688,-12.2 51.7,-12.2z" fill="#3a3a3a" stroke-width="0"/><path d="M357.18874,158.6125c0.39806,4.05159 13.37686,41.16829 -8.75634,68.4773c-0.05435,0.06705 -3.64097,3.15467 -3.64097,3.15467c0,0 1.1678,4.66579 -1.66466,10.58121c-1.60232,3.34636 -7.42605,6.18375 -7.42605,6.18375c0,0 -0.0043,2.08553 -0.0588,4.5199c-0.07697,3.43833 -0.56018,7.77665 -3.92822,9.68784c-4.16243,2.36196 -11.87525,2.89751 -18.62458,1.79547c-3.71911,-0.60726 -7.21973,-1.64443 -10.30125,-2.5757c-1.6652,-0.50324 -3.7833,-14.07241 -8.69268,-22.56375c-4.96636,-8.5899 -12.71489,-12.10016 -12.71489,-12.10016c0,0 -9.76556,0.91292 -17.49524,-2.14683c-4.61933,-1.82854 -7.71936,-8.77718 -8.15825,-11.78881c-0.87727,-6.01977 -2.19005,-14.99701 -1.5659,-26.07946c0.6175,-10.96423 0.61415,-24.23265 2.82532,-31.62066c1.96496,-7.08128 7.79289,-8.37142 13.13742,-9.3535c8.3514,-1.23088 13.72256,0.67551 13.72256,0.67551c0,0 -0.24356,-3.58436 10.65424,-8.87503c5.49261,-2.66656 16.72814,-3.46212 23.20345,-3.5475c25.88098,1.3368 38.27273,13.23832 39.48485,25.57575z" fill="#020134" stroke-width="0"/><g stroke-width="0"><path d="M301.70732,142.95983c7.55551,-1.44445 8.82913,-1.70916 15.44187,-1.8719c12.03407,-0.29618 27.51737,2.73094 31.67641,17.77155c0.48084,1.73889 6.03002,20.41781 4.29049,39.26726c-0.49554,5.36962 -2.12168,8.60473 -3.44684,12.41513c-2.46447,7.08637 -7.69507,13.6308 -14.36436,15.81893c-0.25513,0.08371 -1.48448,0.64551 -2.37043,0.47459c-0.56246,-0.10851 -0.87709,-0.75442 -1.55772,-0.73841c-1.45455,0.03422 -2.83605,0.33202 -4.0731,2.19881c-1.54429,2.33042 0.0014,6.34568 0.07791,10.20396c0.03721,1.87608 0.30007,3.77352 0.34019,5.56725c0.12227,5.46696 0.0174,9.97065 0.0174,9.97065c0,0 -0.99407,1.61668 -3.90999,1.67372c-2.22441,0.04351 -5.01217,0.49748 -7.559,0.21242c-3.52875,-0.39497 -6.92833,-1.70663 -7.3928,-1.89044c-0.74529,-0.29495 -3.21225,-9.1286 -5.67624,-14.38009c-3.86629,-8.24019 -8.05017,-14.15899 -8.05017,-14.15899c0,0 -0.35844,-1.28251 -0.98394,-2.30515c-0.41388,-0.67667 -1.00716,-1.1771 -1.46673,-1.34103c-1.91768,-0.68401 -4.54817,-0.3056 -4.54817,-0.3056c0,0 -1.46453,-1.38987 -1.9456,-1.86365c-1.07896,-1.0626 -2.05024,-2.32072 -2.8431,-3.81227c-3.10398,-5.83935 -3.54715,-15.33257 -3.51407,-23.99933c0.02838,-7.43827 0.2027,-14.00436 1.68084,-20.13023c6.47234,-26.82346 17.20407,-28.20877 20.17717,-28.77716z" fill="#0c1390"/><path d="M301.70732,142.95983c7.55551,-1.44445 8.82913,-1.70916 15.44187,-1.8719c12.03407,-0.29618 27.51737,2.73094 31.67641,17.77155c0.41548,1.5025 4.61496,15.65241 4.62687,31.63163c0.00059,0.78841 -1.56581,26.42359 -44.02028,18.97241c-3.80005,-0.66694 -7.44306,-2.40897 -9.78908,-4.91593c-10.07033,-14.0818 -9.25457,-34.53343 -6.20236,-47.80227c1.72026,-7.47848 4.58764,-12.78446 5.54438,-13.11424c1.16688,-0.40221 2.10936,-0.55408 2.72219,-0.67124z" fill="#162ed0"/></g><g><path d="M304.43674,158.6794c6.15998,-5.0618 13.56983,-6.40169 16.11615,-6.57677c8.80173,-0.60522 22.76223,-0.49878 31.35519,1.03521c2.18263,0.38964 9.23671,2.78137 11.60039,6.82903c1.80905,3.09789 8.62395,13.34762 -1.41948,22.70836c-10.60233,9.88164 -39.63506,7.73408 -47.93272,6.17188c-3.70239,-0.84378 -10.28978,-4.28175 -12.526,-10.24372c-2.70213,-7.20416 -0.44384,-17.25315 2.80645,-19.92399z" fill="#10293a" stroke-width="0"/><g><path d="M308.07536,172.75247c0,-2.94835 -1.67859,-9.6655 6.10114,-12.74817c6.6197,-2.62301 22.43665,-1.90187 26.79872,-1.62267c4.90128,0.3137 10.32574,0.98676 13.8145,2.59983c4.14656,1.91722 5.14419,11.01215 4.7788,12.55698c-3.07005,12.98 -33.56174,10.55457 -39.49204,9.31946c-6.41657,-1.33638 -12.00112,-4.64839 -12.00112,-10.10545z" fill="#4a7b9c" stroke-width="0"/><path d="M317.46598,171.24181c-8.15581,-3.36957 -2.38465,-11.55929 -2.19715,-11.61643c7.12509,-2.17103 21.56882,-1.50858 25.70639,-1.24375c4.90128,0.3137 10.32574,0.98676 13.8145,2.59983c1.66477,0.76973 2.82197,2.69642 3.58717,4.82697c0.30297,0.84357 1.22276,7.16653 -3.94373,8.47507c-7.35713,1.86337 -20.97499,3.56548 -36.96718,-3.04169z" fill="#8cc5de" stroke-width="0"/><path d="M350.72282,160.14029c2.23609,0.65884 5.70281,1.92545 4.9907,4.22455c-1.50599,4.86223 -8.1849,2.11841 -12.8319,1.47812c-0.74902,-0.1032 -4.23108,-0.13832 -6.35614,-1.08778c-1.36545,-0.61007 -1.80699,-2.10971 -1.80699,-2.55251c0,-1.66642 1.67893,-3.01732 3.75,-3.01732c0.06008,0 3.07448,-0.10512 6.11843,0.06664c2.41709,0.13638 4.79561,0.49338 6.1359,0.88827z" fill="#ffffff" stroke-width="0.5"/></g></g><path d="M334.61004,238.91199l-0.16326,-4.32653c0,0 1.04587,-0.30713 1.55102,-0.40816c0.43747,-0.08749 1.30613,-0.16326 1.30613,-0.16326c0,0 -0.30809,1.99242 -0.76886,2.83019c-0.4358,0.79236 -1.92502,2.06777 -1.92502,2.06777z" fill="#0c1390" stroke-width="0"/><g stroke-width="0"><path d="M272.23305,184.11691c0.08281,4.50927 -0.47029,11.3069 0.31642,16.67893c1.11358,7.60398 3.4458,16.35558 3.4458,16.35558c0,0 -1.00189,0.51694 -3.8772,0.58726c-2.60782,0.06377 -3.32484,-0.10527 -5.68108,-1.85369c-0.89918,-0.66721 -3.70468,-5.36858 -4.30559,-12.50396c-0.51827,-6.15413 -1.22932,-8.44413 -0.7403,-24.09317c0.17558,-5.61861 0.0156,-12.65269 0.51559,-17.11894c1.05964,-9.46549 6.54684,-9.56474 8.03589,-9.72612c4.58042,-0.42688 10.9818,-0.45419 10.9818,-0.45419c0,0 -5.97993,0.15582 -7.45261,2.51682c-0.826,1.32423 2.19618,6.17206 2.19618,6.17206c0,0 -3.63414,12.58995 -3.43489,23.43945z" fill="#0c1390"/><path d="M261.83489,162.8751c0,0 0.04617,-0.47735 0.07179,-0.70619c1.05964,-9.46549 6.54684,-9.56474 8.03589,-9.72612c4.58042,-0.42688 10.9818,-0.45419 10.9818,-0.45419c0,0 -2.11351,1.89544 -2.90091,3.19637c-0.92829,1.53369 -2.31606,5.42296 -2.31606,5.42296c0,0 -6.83219,-0.01278 -8.69826,0.34204c-2.08434,0.39631 -5.17424,1.92514 -5.17424,1.92514z" fill="#162ed0"/></g></g></g></g></svg>