<svg version="1.1" xmlns="http://www.w3.org/2000/svg" xmlns:xlink="http://www.w3.org/1999/xlink" width="706.59434" height="320.52168" viewBox="0,0,706.59434,320.52168"><g transform="translate(37.25494,-12.69307)"><g data-paper-data="{&quot;isPaintingLayer&quot;:true}" fill-rule="nonzero" stroke-linecap="butt" stroke-linejoin="miter" stroke-miterlimit="10" stroke-dasharray="" stroke-dashoffset="0" style="mix-blend-mode: normal"><g><path d="M-22.52252,120.86766c14.94222,12.19863 91.75664,12.75773 91.75664,12.75773c0,0 -17.42436,-19.9785 -28.17159,-29.91592c-10.67301,-9.8688 -36.09074,-29.50414 -36.09074,-29.50414c0,0 34.72301,15.34332 75.74865,18.22779c25.40306,1.78606 43.99858,-14.22039 69.21838,-12.44722c18.76245,1.31916 44.1019,30.28275 73.94868,30.4895c23.58192,0.16335 34.32032,6.19724 51.38591,7.11575c9.27496,0.4992 -14.03371,-12.46972 -27.80713,-17.7512c-13.77342,-5.28149 -24.99995,-2.37193 -41.47408,-8.81502c-15.61768,-6.10813 -26.62111,-25.22164 -26.62111,-25.22164c0,0 36.95508,14.29381 80.21087,19.11278c31.48805,3.50796 58.00465,25.70235 75.81163,27.51212c18.36323,1.86631 51.90686,-12.5907 86.17917,-11.42126c19.9302,0.68006 109.87938,14.37067 109.87938,14.37067c0,0 -38.34057,-21.96478 -53.54087,-37.62953c-11.32258,-11.66854 -21.82083,-27.12267 -21.82083,-27.12267c0,0 23.33968,20.60677 64.12461,29.00012c29.36931,6.04407 81.79036,42.427 81.79036,42.427c0,0 -13.06583,-25.86626 -15.55154,-43.17922c-1.23328,-8.5897 -0.59608,-20.1855 0.35913,-29.69007c0.97007,-9.65236 2.26811,-17.14795 2.26811,-17.14795c0,0 13.2814,33.70645 21.95766,48.14693c7.09553,11.8096 37.47053,38.20143 37.47053,38.20143c0,0 -10.1814,-18.71288 -14.46755,-38.05491c-4.80272,-21.67316 -9.20496,-44.13628 -6.2791,-41.94754c4.42686,3.31159 16.6969,20.41932 29.36238,39.02738c0,9.87282 0,19.74564 0,29.61845c0,6.81342 -1.16019,13.98996 0.10444,20.74135c0.22881,1.22151 0.74605,2.40224 1.23602,3.58764c0.0999,1.49277 0.61111,2.78558 1.01777,3.6009c0.05985,1.72829 -0.51026,3.49935 -0.08501,5.20346c0.38879,1.55795 1.59378,2.96286 2.09321,4.5045c0.48784,1.50588 0.25884,3.91466 0.04312,6.01869c-0.01149,0.03902 -0.02198,0.07723 -0.03142,0.11461c-0.09537,0.37769 -0.10924,0.76078 -0.0947,1.14587c-0.05684,0.61231 -0.097,1.16843 -0.097,1.62953c0,0.3932 -0.00107,0.78444 -0.00321,1.17383c-0.73706,3.29704 -2.21851,6.50777 -2.72575,9.82779c-0.69987,4.58086 -0.0475,9.21652 -0.0475,13.8248c0,4.74068 -0.79757,9.52552 0.10444,14.22183c0.12987,0.67613 0.34279,1.34117 0.59555,2.00078c0.24954,4.74443 0.8517,10.20021 1.3356,14.31678c-0.27348,1.33076 -0.522,2.6259 -0.61458,3.83924c-0.26977,3.53517 -0.01796,7.08092 -0.02693,10.62138c0,6.45721 -1.14511,13.20461 0.18,19.60182c0.19626,0.94743 1.34363,1.75156 1.33442,2.70937c-0.06156,6.40551 -2.20122,12.80123 -1.49713,19.18695c0.42708,3.87332 0.8656,7.75272 1.6851,11.59341c0.55844,2.61716 2.09552,5.10381 2.52732,7.73327c0.63722,3.8804 -1.14182,7.77509 -1.42427,11.67705c-0.09523,1.31554 -0.17465,2.6329 -0.24026,3.95177c-7.60838,0.62493 -29.25141,2.28702 -38.90433,1.81812c-9.31659,-0.45256 -23.59695,-5.21398 -23.59695,-5.21398c0,0 -2.98536,4.36568 -4.78726,9.30922c-1.76118,4.83179 -2.32949,10.21561 -3.20395,12.61471c-0.87959,2.41319 -1.97539,5.41949 -1.97539,5.41949c0,0 -7.98543,-1.64364 -19.30815,-14.76238c-7.24647,-8.39589 -11.59168,-22.95687 -11.59168,-22.95687c0,0 -79.73525,29.40853 -106.92485,26.75111c-17.0865,-1.66998 29.43982,-44.36708 15.62741,-43.49839c-34.00527,2.13866 -136.70829,37.68398 -180.51372,51.30118c-12.69354,3.94587 -13.98921,-0.84169 -6.6365,-4.26975c16.18703,-7.5469 42.92673,-20.50281 48.23033,-26.10681c5.67191,-5.99318 5.00603,-11.60084 5.00603,-11.60084c0,0 -53.07777,5.55073 -75.79656,10.51437c-27.8719,6.0895 -91.70453,25.34037 -91.70453,25.34037c0,0 5.672,-9.50992 7.78262,-13.21514c2.07351,-3.64005 4.77173,-8.82412 4.77173,-8.82412l-33.32489,13.34754c0,0 19.77654,-14.3153 26.99488,-20.39785c5.84164,-4.92248 13.06558,-13.35919 13.06558,-13.35919c0,0 -133.75328,47.62521 -155.65325,55.20128c-7.57902,2.62188 -13.40661,-2.75061 -8.0657,-5.90076c7.00942,-4.13427 17.55073,-10.17296 28.82152,-15.99399c12.18289,-6.29212 38.10954,-13.70629 45.07158,-18.02417c14.72759,-9.13412 18.94889,-23.72139 18.94889,-23.72139c0,0 -36.25465,7.14277 -53.67792,12.42328c-18.39456,5.57488 -53.93371,20.19082 -53.93371,20.19082l6.33478,-32.99615l-25.53982,14.31644c-0.09845,-0.54462 -0.23489,-1.09709 -0.41518,-1.65912c-0.72574,-2.26226 -2.44967,-4.56506 -4.01235,-6.81171c0.1021,-1.27445 0.17769,-2.54986 0.21762,-3.82654c0.165,-5.27514 -1.77214,-10.26266 -1.39954,-15.55038c0.49102,-6.9685 2.58895,-14.00583 1.22085,-20.91387c-0.20669,-1.04361 -1.16004,-1.95936 -1.39408,-3c-0.79803,-3.54833 0.40552,-7.19171 0.16974,-10.78194c-0.67536,-10.28359 -1.3838,-17.37786 -1.3838,-27.61623c0,-4.73289 0.67731,-10.891 -0.0475,-15.82481c-0.76934,-5.2369 -2.18619,-10.42343 -2.75796,-15.67333c-0.36289,-3.33197 0.60053,-6.78869 -0.1627,-10.10369c-0.75935,-3.29815 -3.44708,-6.31141 -4.10667,-9.62001c-0.61436,-3.08169 -0.77767,-8.05448 -0.07556,-11.17634c0.23404,-1.04064 1.21975,-1.95335 1.39408,-3c0.14744,-0.88517 0.24463,-1.6454 0.29658,-2.32134c0.71137,0.3321 1.35773,0.72523 1.92358,1.18718z" fill="#cb2411" stroke="#000000" stroke-width="10.5"/><path d="M-22.52252,120.86766c14.94222,12.19863 91.75664,12.75773 91.75664,12.75773c0,0 -17.42436,-19.9785 -28.17159,-29.91592c-10.67301,-9.8688 -36.09074,-29.50414 -36.09074,-29.50414c0,0 34.72301,15.34332 75.74865,18.22779c25.40306,1.78606 43.99858,-14.22039 69.21838,-12.44722c18.76245,1.31916 44.1019,30.28275 73.94868,30.4895c23.58192,0.16335 34.32032,6.19724 51.38591,7.11575c9.27496,0.4992 -14.03371,-12.46972 -27.80713,-17.7512c-13.77342,-5.28149 -24.99995,-2.37193 -41.47408,-8.81502c-15.61768,-6.10813 -26.62111,-25.22164 -26.62111,-25.22164c0,0 36.95508,14.29381 80.21087,19.11278c31.48805,3.50796 58.00465,25.70235 75.81163,27.51212c18.36323,1.86631 51.90686,-12.5907 86.17917,-11.42126c19.9302,0.68006 109.87938,14.37067 109.87938,14.37067c0,0 -38.34057,-21.96478 -53.54087,-37.62953c-11.32258,-11.66854 -21.82083,-27.12267 -21.82083,-27.12267c0,0 23.33968,20.60677 64.12461,29.00012c29.36931,6.04407 81.79036,42.427 81.79036,42.427c0,0 -13.06583,-25.86626 -15.55154,-43.17922c-1.23328,-8.5897 -0.59608,-20.1855 0.35913,-29.69007c0.97007,-9.65236 2.26811,-17.14795 2.26811,-17.14795c0,0 13.2814,33.70645 21.95766,48.14693c7.09553,11.8096 37.47053,38.20143 37.47053,38.20143c0,0 -10.1814,-18.71288 -14.46755,-38.05491c-4.80272,-21.67316 -9.20496,-44.13628 -6.2791,-41.94754c4.42686,3.31159 16.6969,20.41932 29.36238,39.02738c0,9.87282 0,19.74564 0,29.61845c0,6.81342 -1.16019,13.98996 0.10444,20.74135c0.22881,1.22151 0.74605,2.40224 1.23602,3.58764c0.0999,1.49277 0.61111,2.78558 1.01777,3.6009c0.05985,1.72829 -0.51026,3.49935 -0.08501,5.20346c0.38879,1.55795 1.59378,2.96286 2.09321,4.5045c0.48784,1.50588 0.25884,3.91466 0.04312,6.01869c-0.01149,0.03902 -0.02198,0.07723 -0.03142,0.11461c-0.09537,0.37769 -0.10924,0.76078 -0.0947,1.14587c-0.05684,0.61231 -0.097,1.16843 -0.097,1.62953c0,0.3932 -0.00107,0.78444 -0.00321,1.17383c-0.73706,3.29704 -2.21851,6.50777 -2.72575,9.82779c-0.69987,4.58086 -0.0475,9.21652 -0.0475,13.8248c0,4.74068 -0.79757,9.52552 0.10444,14.22183c0.12987,0.67613 0.34279,1.34117 0.59555,2.00078c0.24954,4.74443 0.8517,10.20021 1.3356,14.31678c-0.27348,1.33076 -0.522,2.6259 -0.61458,3.83924c-0.26977,3.53517 -0.01796,7.08092 -0.02693,10.62138c0,6.45721 -1.14511,13.20461 0.18,19.60182c0.19626,0.94743 1.34363,1.75156 1.33442,2.70937c-0.06156,6.40551 -2.20122,12.80123 -1.49713,19.18695c0.42708,3.87332 0.8656,7.75272 1.6851,11.59341c0.55844,2.61716 2.09552,5.10381 2.52732,7.73327c0.63722,3.8804 -1.14182,7.77509 -1.42427,11.67705c-0.09523,1.31554 -0.17465,2.6329 -0.24026,3.95177c-7.60838,0.62493 -29.25141,2.28702 -38.90433,1.81812c-9.31659,-0.45256 -23.59695,-5.21398 -23.59695,-5.21398c0,0 -2.98536,4.36568 -4.78726,9.30922c-1.76118,4.83179 -2.32949,10.21561 -3.20395,12.61471c-0.87959,2.41319 -1.97539,5.41949 -1.97539,5.41949c0,0 -7.98543,-1.64364 -19.30815,-14.76238c-7.24647,-8.39589 -11.59168,-22.95687 -11.59168,-22.95687c0,0 -79.73525,29.40853 -106.92485,26.75111c-17.0865,-1.66998 29.43982,-44.36708 15.62741,-43.49839c-34.00527,2.13866 -136.70829,37.68398 -180.51372,51.30118c-12.69354,3.94587 -13.98921,-0.84169 -6.6365,-4.26975c16.18703,-7.5469 42.92673,-20.50281 48.23033,-26.10681c5.67191,-5.99318 5.00603,-11.60084 5.00603,-11.60084c0,0 -53.07777,5.55073 -75.79656,10.51437c-27.8719,6.0895 -91.70453,25.34037 -91.70453,25.34037c0,0 5.672,-9.50992 7.78262,-13.21514c2.07351,-3.64005 4.77173,-8.82412 4.77173,-8.82412l-33.32489,13.34754c0,0 19.77654,-14.3153 26.99488,-20.39785c5.84164,-4.92248 13.06558,-13.35919 13.06558,-13.35919c0,0 -133.75328,47.62521 -155.65325,55.20128c-7.57902,2.62188 -13.40661,-2.75061 -8.0657,-5.90076c7.00942,-4.13427 17.55073,-10.17296 28.82152,-15.99399c12.18289,-6.29212 38.10954,-13.70629 45.07158,-18.02417c14.72759,-9.13412 18.94889,-23.72139 18.94889,-23.72139c0,0 -36.25465,7.14277 -53.67792,12.42328c-18.39456,5.57488 -53.93371,20.19082 -53.93371,20.19082l6.33478,-32.99615l-25.53982,14.31644c-0.09845,-0.54462 -0.23489,-1.09709 -0.41518,-1.65912c-0.72574,-2.26226 -2.44967,-4.56506 -4.01235,-6.81171c0.1021,-1.27445 0.17769,-2.54986 0.21762,-3.82654c0.165,-5.27514 -1.77214,-10.26266 -1.39954,-15.55038c0.49102,-6.9685 2.58895,-14.00583 1.22085,-20.91387c-0.20669,-1.04361 -1.16004,-1.95936 -1.39408,-3c-0.79803,-3.54833 0.40552,-7.19171 0.16974,-10.78194c-0.67536,-10.28359 -1.3838,-17.37786 -1.3838,-27.61623c0,-4.73289 0.67731,-10.891 -0.0475,-15.82481c-0.76934,-5.2369 -2.18619,-10.42343 -2.75796,-15.67333c-0.36289,-3.33197 0.60053,-6.78869 -0.1627,-10.10369c-0.75935,-3.29815 -3.44708,-6.31141 -4.10667,-9.62001c-0.61436,-3.08169 -0.77767,-8.05448 -0.07556,-11.17634c0.23404,-1.04064 1.21975,-1.95335 1.39408,-3c0.14744,-0.88517 0.24463,-1.6454 0.29658,-2.32134c0.71137,0.3321 1.35773,0.72523 1.92358,1.18718z" fill="#cb2411" stroke="#95392c" stroke-width="4.5"/><path d="M-22.52253,120.86765c14.94222,12.19863 91.75664,12.75773 91.75664,12.75773c0,0 -17.42436,-19.9785 -28.17159,-29.91592c-10.67301,-9.8688 -36.09074,-29.50414 -36.09074,-29.50414c0,0 34.72301,15.34332 75.74865,18.22779c25.40306,1.78606 43.99858,-14.22039 69.21838,-12.44722c18.76245,1.31916 44.1019,30.28275 73.94868,30.4895c23.58192,0.16335 34.32032,6.19724 51.38591,7.11575c9.27496,0.4992 -14.03371,-12.46972 -27.80713,-17.7512c-13.77342,-5.28149 -24.99995,-2.37193 -41.47408,-8.81502c-15.61768,-6.10813 -26.62111,-25.22164 -26.62111,-25.22164c0,0 36.95508,14.29381 80.21087,19.11278c31.48805,3.50796 58.00465,25.70235 75.81163,27.51212c18.36323,1.86631 51.90686,-12.5907 86.17917,-11.42126c19.9302,0.68006 109.87938,14.37067 109.87938,14.37067c0,0 -38.34057,-21.96478 -53.54087,-37.62953c-11.32258,-11.66854 -21.82083,-27.12267 -21.82083,-27.12267c0,0 23.33968,20.60677 64.12461,29.00012c29.36931,6.04407 81.79036,42.427 81.79036,42.427c0,0 -13.06583,-25.86626 -15.55154,-43.17922c-1.23328,-8.5897 -0.59608,-20.1855 0.35913,-29.69007c0.97007,-9.65236 2.26811,-17.14795 2.26811,-17.14795c0,0 13.2814,33.70645 21.95766,48.14693c7.09553,11.8096 37.47053,38.20143 37.47053,38.20143c0,0 -10.1814,-18.71288 -14.46755,-38.05491c-4.80272,-21.67316 -9.20496,-44.13628 -6.2791,-41.94754c4.42688,3.31159 16.69691,20.41934 29.36239,39.02741c0,9.87282 0,19.74563 0,29.61844c0,6.81342 -1.16019,13.98996 0.10444,20.74135c0.22881,1.22151 0.74605,2.40224 1.23602,3.58764c0.0999,1.49277 0.61111,2.78558 1.01777,3.6009c0.05985,1.72829 -0.51026,3.49935 -0.08501,5.20346c0.38879,1.55795 1.59378,2.96286 2.09321,4.5045c0.48784,1.50588 0.25884,3.91466 0.04312,6.01869c-0.01149,0.03902 -0.02198,0.07723 -0.03142,0.11461c-0.09537,0.37769 -0.10924,0.76078 -0.0947,1.14587c-0.05684,0.61231 -0.097,1.16843 -0.097,1.62953c0,0.3932 -0.00107,0.78444 -0.00321,1.17383c-0.73706,3.29704 -2.21851,6.50777 -2.72575,9.82779c-0.69987,4.58086 -0.0475,9.21652 -0.0475,13.8248c0,4.74068 -0.79757,9.52552 0.10444,14.22183c0.12987,0.67613 0.34279,1.34117 0.59555,2.00078c0.24954,4.74443 0.8517,10.20021 1.3356,14.31678c-0.27348,1.33076 -0.522,2.6259 -0.61458,3.83924c-0.26977,3.53517 -0.01796,7.08092 -0.02693,10.62138c0,6.45721 -1.14511,13.20461 0.18,19.60182c0.19626,0.94743 1.34363,1.75156 1.33442,2.70937c-0.06156,6.40551 -2.20122,12.80123 -1.49713,19.18695c0.42708,3.87332 0.8656,7.75272 1.6851,11.59341c0.55844,2.61716 2.09552,5.10381 2.52732,7.73327c0.63722,3.8804 -1.14182,7.77509 -1.42427,11.67705c-0.09523,1.31554 -0.17465,2.63288 -0.24026,3.95176c-7.60838,0.62493 -29.25144,2.28704 -38.90436,1.81813c-9.31659,-0.45257 -23.59695,-5.21398 -23.59695,-5.21398c0,0 -2.98536,4.36568 -4.78726,9.30922c-1.76118,4.83179 -2.32949,10.21561 -3.20395,12.61471c-0.87961,2.41319 -1.97539,5.4195 -1.97539,5.4195c0,0 -7.98541,-1.64365 -19.30815,-14.76238c-7.24645,-8.39589 -11.59168,-22.95687 -11.59168,-22.95687c0,0 -79.73525,29.40853 -106.92485,26.75111c-17.0865,-1.66998 29.43982,-44.36708 15.62741,-43.49839c-34.00527,2.13865 -136.70829,37.68398 -180.51372,51.30118c-12.69354,3.94587 -13.98921,-0.84169 -6.6365,-4.26975c16.18703,-7.5469 42.92673,-20.50282 48.23033,-26.10681c5.67191,-5.99318 5.00603,-11.60084 5.00603,-11.60084c0,0 -53.07777,5.55073 -75.79656,10.51437c-27.8719,6.08951 -91.70453,25.34037 -91.70453,25.34037c0,0 5.672,-9.50992 7.78262,-13.21514c2.07351,-3.64005 4.77173,-8.82412 4.77173,-8.82412l-33.32489,13.34754c0,0 19.77654,-14.3153 26.99488,-20.39785c5.84164,-4.92247 13.06558,-13.35919 13.06558,-13.35919c0,0 -133.75328,47.62521 -155.65325,55.20128c-7.57902,2.62188 -13.40661,-2.75061 -8.0657,-5.90076c7.00942,-4.13427 17.55073,-10.17296 28.82152,-15.994c12.18289,-6.29211 38.10954,-13.70628 45.07158,-18.02416c14.72759,-9.13412 18.94889,-23.72139 18.94889,-23.72139c0,0 -36.25465,7.14277 -53.67792,12.42328c-18.39456,5.57488 -53.93371,20.19083 -53.93371,20.19083l6.33478,-32.99615l-25.53979,14.31642c-0.09845,-0.54461 -0.23489,-1.09708 -0.41518,-1.65911c-0.72574,-2.26226 -2.44967,-4.56506 -4.01235,-6.81171c0.1021,-1.27445 0.17769,-2.54986 0.21762,-3.82654c0.165,-5.27514 -1.77214,-10.26266 -1.39954,-15.55038c0.49102,-6.9685 2.58895,-14.00583 1.22085,-20.91387c-0.20669,-1.04361 -1.16004,-1.95936 -1.39408,-3c-0.79803,-3.54833 0.40552,-7.19171 0.16974,-10.78194c-0.67536,-10.28359 -1.3838,-17.37786 -1.3838,-27.61623c0,-4.73289 0.67731,-10.891 -0.0475,-15.82481c-0.76934,-5.2369 -2.18619,-10.42343 -2.75796,-15.67333c-0.36289,-3.33197 0.60053,-6.78869 -0.1627,-10.10369c-0.75935,-3.29815 -3.44708,-6.31141 -4.10667,-9.62001c-0.61436,-3.08169 -0.77767,-8.05448 -0.07556,-11.17634c0.23404,-1.04064 1.21975,-1.95335 1.39408,-3c0.14744,-0.88517 0.24463,-1.6454 0.29658,-2.32135c0.71137,0.3321 1.35773,0.72523 1.92356,1.18717z" fill="#cb2411" stroke="none" stroke-width="0"/><path d="M32.72326,160.67395c20.00885,-1.55979 38.41228,-6.62193 45.90618,-6.81154c9.43885,-0.23881 21.14268,0.84206 21.14268,0.84206c0,0 -1.14769,-4.64257 -2.47927,-7.0636c-0.75347,-1.36994 -2.31247,-3.51887 -3.64051,-5.27243c-1.23616,-1.63225 -0.34128,-2.95205 2.11345,-2.94334c2.77166,0.00983 5.14219,-0.26571 8.29285,0.27716c3.15066,0.54287 12.30698,3.27227 12.30698,3.27227c0,0 -5.72494,-10.42103 -7.21684,-13.13671c-0.67055,-1.22058 -0.1915,-2.15132 2.08113,-1.27842c15.21813,5.84515 75.55645,28.30072 102.91065,27.72734c1.70193,-0.03567 -12.42882,-4.08482 -23.90387,-10.04046c-4.5865,-2.38043 -12.36842,-6.3328 -15.29684,-8.99825c-3.61644,-3.29169 -1.68237,-5.01811 0.6276,-4.15915c1.15399,0.4291 39.94995,20.53754 77.7386,29.92824c15.75832,3.91604 31.32162,2.28523 43.24838,2.09672c18.21371,-0.28788 29.19552,6.59112 41.59566,5.4156c1.85202,-0.17557 -8.59432,-4.04393 -22.65057,-7.43945c-9.59811,-2.31858 -21.51236,-3.81075 -29.84951,-6.14376c-3.62981,-1.01574 -6.66027,-2.28375 -8.9605,-3.41735c-3.21929,-1.58653 -7.13838,-2.76787 -4.30365,-3.03891c4.33964,-0.41493 40.12175,-1.42191 60.09833,-3.33196c19.99823,-1.91212 102.45844,12.81019 130.40312,14.13728c24.83572,1.17945 60.09793,0.95088 60.09793,0.95088c0,0 -59.04605,-12.81963 -52.32685,-15.66691c0.8607,-0.36473 5.65167,-0.75319 3.76544,-2.91432c-3.04376,-3.48739 -11.87299,-5.07418 -18.78061,-10.27332c-5.06819,-3.81466 -9.72429,-8.46101 -13.12891,-12.17387c-3.45525,-3.76806 -2.51418,-6.54978 1.41695,-6.51833c6.42504,0.05141 87.03312,44.84732 135.87614,39.05366c14.47772,-1.71732 -17.9251,-17.63053 -17.9251,-17.63053c0,0 39.7936,8.54035 58.10932,10.0371c12.30472,1.00554 32.63478,-0.40744 41.59918,-1.13548c0.35371,1.51177 0.14309,3.71564 -0.05621,5.6594c-0.01149,0.03902 -0.02198,0.07723 -0.03142,0.11461c-0.09537,0.37769 -0.10924,0.76078 -0.0947,1.14587c-0.05684,0.61231 -0.097,1.16843 -0.097,1.62953c0,0.3932 -0.00107,0.78444 -0.00321,1.17383c-0.73706,3.29704 -2.21851,6.50777 -2.72575,9.82779c-0.69987,4.58086 -0.0475,9.21652 -0.0475,13.8248c0,4.74068 -0.79757,9.52552 0.10444,14.22183c0.12987,0.67613 0.34279,1.34117 0.59555,2.00078c0.24954,4.74443 0.8517,10.20021 1.3356,14.31678c-0.27348,1.33076 -0.522,2.6259 -0.61458,3.83924c-0.26977,3.53517 -0.01796,7.08092 -0.02693,10.62138c0,4.56999 -0.57357,9.28533 -0.43909,13.919c-14.32291,1.95849 -48.21833,6.74966 -62.56745,10.12245c-26.58259,6.2483 -90.39675,24.88638 -90.39675,24.88638c0,0 12.18469,-14.01482 22.76968,-21.17526c10.58499,-7.16045 28.76137,-13.68404 28.76137,-13.68404c0,0 -41.42951,4.35194 -63.54652,7.20905c-24.15934,3.12095 -75.82437,10.79513 -75.82437,10.79513c0,0 3.44262,-6.18869 4.71315,-9.05256c1.14742,-2.58636 2.57846,-7.38314 2.57846,-7.38314c0,0 -56.82295,4.70568 -104.83481,12.42503c-47.09682,7.57223 -106.20534,17.1576 -116.91012,17.49557c-9.51554,0.30042 0.99565,-16.45926 0.99565,-16.45926c0,0 -31.96547,7.88227 -38.53035,9.50108c-2.25382,0.55576 -3.52608,-0.29166 -2.34645,-2.23072c1.27615,-2.09774 2.74463,-4.81291 3.32794,-7.02631c0.68543,-2.60084 0.30282,-5.0937 -0.09906,-6.64071c-0.25627,-0.98652 -2.06933,-1.59936 -4.83195,-1.60806c-14.64058,-0.04608 -63.36747,-0.02863 -96.28282,2.01986c-30.63032,1.90628 -68.67671,6.88508 -83.75548,8.95741c-0.26971,-1.89844 -0.44659,-3.80823 -0.30914,-5.75886c0.49102,-6.9685 2.58895,-14.00583 1.22085,-20.91387c-0.20669,-1.04361 -1.16004,-1.95936 -1.39408,-3c-0.79803,-3.54833 0.40552,-7.19171 0.16974,-10.78194c-0.67536,-10.28359 -1.3838,-17.37786 -1.3838,-27.61623c0,-4.73289 0.67731,-10.891 -0.0475,-15.82481c-0.44712,-3.04363 -1.11298,-6.07025 -1.70452,-9.10219c11.38959,-1.76624 33.21166,-0.22047 53.46163,-1.79906z" data-paper-data="{&quot;index&quot;:null}" fill="#eec0b1" stroke="none" stroke-width="0"/><path d="M294.66296,314.91952v-225.96697h83.64461v225.96697z" fill="none" stroke="none" stroke-width="NaN"/></g></g></g></svg>