<svg version="1.1" xmlns="http://www.w3.org/2000/svg" xmlns:xlink="http://www.w3.org/1999/xlink" width="369.36936" height="369.36936" viewBox="0,0,369.36936,369.36936"><g transform="translate(-135.31533,4.68466)"><g stroke-miterlimit="10"><path d="M135.31533,180.00002c0,-101.99853 82.68615,-184.68468 184.68468,-184.68468c101.99853,0 184.68468,82.68615 184.68468,184.68468c0,101.99853 -82.68615,184.68468 -184.68468,184.68468c-101.99853,0 -184.68468,-82.68615 -184.68468,-184.68468z" fill="none" stroke="none" stroke-width="0" stroke-linecap="butt"/><g><path d="M309.41335,289.28087l0.49828,-118.59082l136.27978,-13.95186l-4.98281,102.14755z" fill="#de9659" stroke="none" stroke-width="0" stroke-linecap="butt"/><path d="M439.35811,147.20853c0,0 -1.95485,-10.15997 -1.52406,-17.56617c0.13793,-2.37125 -1.17477,-8.33489 -0.40528,-9.71773c2.14066,-3.84698 7.98035,-6.03118 7.98035,-6.03118l13.73759,2.1795l-6.47764,32.63739z" fill="#e9d092" stroke="none" stroke-width="0" stroke-linecap="butt"/><path d="M462.88381,142.92475v-14.201l19.18381,5.97937l0.74742,8.22163z" fill="#69371f" stroke="none" stroke-width="0" stroke-linecap="butt"/><path d="M307.66936,288.03515l0.99657,-19.68209c0,0 7.88742,7.25319 14.00609,8.44039c9.2458,1.79396 35.07456,3.02006 35.07456,3.02006l-28.15286,8.22163z" fill="#b55e36" stroke="none" stroke-width="0" stroke-linecap="butt"/><path d="M347.03354,224.00608c0,0 -6.89451,-14.69646 -11.6186,-22.3247c-5.33349,-8.61229 -18.77653,-26.75596 -18.77653,-26.75596l125.3176,15.94499v24.41575c0,0 -14.801,-3.03153 -29.86188,-0.5364c-7.03449,1.1654 -14.90484,8.4062 -19.93318,8.86812c-15.84659,1.45572 -45.1274,0.38818 -45.1274,0.38818z" fill="#b55e36" stroke="none" stroke-width="0" stroke-linecap="butt"/><path d="M360.98539,204.26864l-31.88997,-35.37793l119.58737,-15.94499l25.9106,27.40544c0,0 -8.52697,3.62191 -9.6626,3.81117c-8.20394,1.36732 -103.94541,20.1063 -103.94541,20.1063z" fill="#e9d092" stroke="none" stroke-width="0" stroke-linecap="butt"/><path d="M216.60856,255.36823l3.48797,-102.14755l90.6871,16.94154l-7.47421,118.09253z" fill="#bc6332" stroke="none" stroke-width="0" stroke-linecap="butt"/><path d="M218.60168,230.2881c0,0 -4.4006,-16.75248 -4.5074,-27.58236c-0.15303,-15.51744 3.67694,-56.62709 3.67694,-56.62709c0,0 -25.58766,-28.37822 -24.10081,-28.03253c6.07857,1.41323 46.3399,-7.57949 70.19112,3.37085c27.11388,12.44827 38.07008,45.03726 43.84423,47.20939c3.48428,1.31072 0.25428,10.17273 0.25428,10.17273c0,0 -27.36952,21.28411 -26.85946,22.53918c2.00151,4.92494 6.72638,8.38227 6.53861,11.69168c-0.5032,8.86897 -11.40303,21.90876 -11.40303,21.90876c0,0 -24.2659,-4.25325 -34.98543,-7.35078c-7.35791,-2.12615 -0.16445,-3.70777 -7.07549,-2.9956c-5.30084,0.54623 -8.22429,7.76245 -10.25649,7.88844c-2.48789,0.15424 -5.31706,-2.19267 -5.31706,-2.19267z" fill="#a94b23" stroke="none" stroke-width="0" stroke-linecap="butt"/><path d="M235.29409,227.09081c0,0 -25.52003,-22.28202 -27.40544,-23.91748c-0.40504,-0.35135 9.46733,-12.45702 9.46733,-12.45702l-1.49484,-39.86245c0,0 -38.8675,-43.04592 -37.37105,-41.85558c0.69836,0.5555 29.8214,7.60468 44.3461,9.97107c15.02313,2.44759 45.84272,1.98767 45.84272,1.98767l40.36074,45.84183l16.94154,3.48797c0,0 10.62389,7.1325 14.74769,11.92338c6.25599,7.26799 19.1354,27.44079 19.1354,27.44079l39.36418,-9.96561" fill="none" stroke="#311108" stroke-width="13" stroke-linecap="round"/><path d="M324.48634,166.30056l124.57018,-15.4467l34.87965,35.87621l-67.2679,8.96905" fill="none" stroke="#311108" stroke-width="13" stroke-linecap="round"/><path d="M449.5548,114.97765l17.93811,10.4639c0,0 -8.95089,7.94608 -11.68779,11.92702c-2.74417,3.99152 -4.75547,11.99046 -4.75547,11.99046" fill="none" stroke="#311108" stroke-width="13" stroke-linecap="round"/><path d="M446.06683,196.69568c0,0 0.62511,64.52352 0,64.27822c-83.96593,22.22079 -132.2188,33.26143 -139.02033,31.88997c-21.12514,-1.12575 -91.18537,-38.36762 -91.18537,-38.36762l0.99657,-21.42607l-4.98281,-8.47078l1.99312,-4.48452" fill="none" stroke="#311108" stroke-width="13" stroke-linecap="round"/><path d="M310.53447,171.28337l-4.48452,114.60457" fill="none" stroke="#311108" stroke-width="9" stroke-linecap="round"/><path d="M304.55511,166.79884l-87.69741,-21.92435" fill="none" stroke="#311108" stroke-width="9" stroke-linecap="round"/><path d="M472.97399,125.44154l16.94154,21.92435l-30.89341,-3.98624" fill="none" stroke="#311108" stroke-width="9" stroke-linecap="round"/><path d="M403.21469,198.6888l-5.48109,-14.94842l16.44327,13.95186" fill="none" stroke="#311108" stroke-width="9" stroke-linecap="round"/></g></g></g></svg>