<svg version="1.1" xmlns="http://www.w3.org/2000/svg" xmlns:xlink="http://www.w3.org/1999/xlink" width="334.46086" height="350.79848" viewBox="0,0,334.46086,350.79848"><g transform="translate(-152.76957,-4.60075)"><g stroke-miterlimit="10"><path d="M153.76957,349.87195c0,-39.2095 0,-320.35678 0,-340.53126c0,-2.25819 1.6135,-3.73994 4.03519,-3.73994c20.24362,0 284.94108,0 323.70154,0c3.07141,0 4.72413,1.72129 4.72413,4.92096c0,40.51692 0,318.08915 0,339.54706c0,2.59591 -1.51177,4.33046 -4.33045,4.33046c-37.372,0 -304.48974,0 -323.89836,0c-2.19653,0 -4.23203,-1.58028 -4.23203,-4.5273z" fill="#000000" stroke="#ffffff" stroke-width="2"/><path d="M157.05979,346.4934c0,-38.40999 0,-313.82446 0,-333.58756c0,-2.21214 1.58059,-3.66368 3.95292,-3.66368c19.83083,0 279.13091,0 317.101,0c3.00878,0 4.6278,1.68619 4.6278,4.82063c0,39.69075 0,311.60307 0,332.62343c0,2.54298 -1.48095,4.24215 -4.24215,4.24215c-36.60995,0 -298.28096,0 -317.29383,0c-2.15174,0 -4.14574,-1.54805 -4.14574,-4.43498z" fill="#000000" stroke="#ffffff" stroke-width="1.5"/><path d="M323.97498,234.85912c-0.2571,-6.52956 0,6.13678 0,-13.62632c0,-2.21215 1.58059,-3.66368 3.95292,-3.66368c19.83083,0 103.14579,0 141.11589,0c3.00878,0 4.6278,1.68619 4.6278,4.82063c0,7.81032 0,-8.35818 0,12.66219c0,2.54298 -1.48095,4.24215 -4.24215,4.24215c-36.60995,0 -122.29584,0 -141.30872,0c-2.15174,0 -4.03216,-1.5503 -4.14574,-4.43498z" fill="#000000" stroke="#ffffff" stroke-width="3"/><text transform="translate(345.41201,233.83296) scale(0.31085,0.31085)" font-size="40" xml:space="preserve" fill="#ffffff" stroke="none" stroke-width="1" font-family="Sans Serif" font-weight="normal" text-anchor="start"><tspan x="0" dy="0">好友与大厅邀请: 关</tspan></text><path d="M323.97498,264.93985c-0.2571,-6.52957 0,6.13678 0,-13.62632c0,-2.21215 1.58059,-3.66368 3.95292,-3.66368c19.83083,0 103.14579,0 141.11589,0c3.00878,0 4.6278,1.68619 4.6278,4.82063c0,7.81032 0,-8.35818 0,12.66219c0,2.54298 -1.48095,4.24215 -4.24215,4.24215c-36.60995,0 -122.29584,0 -141.30872,0c-2.15174,0 -4.03216,-1.5503 -4.14574,-4.43498z" fill="#000000" stroke="#ffffff" stroke-width="3"/><text transform="translate(363.56286,263.38864) scale(0.2671,0.2671)" font-size="40" xml:space="preserve" fill="#ffffff" stroke="none" stroke-width="1" font-family="Sans Serif" font-weight="normal" text-anchor="start"><tspan x="0" dy="0">直播主模式: 关</tspan></text><text transform="translate(172.40124,61.64632) scale(0.32332,0.32332)" font-size="40" xml:space="preserve" fill="#ffffff" stroke="#ffffff" stroke-width="1" font-family="Sans Serif" font-weight="normal" text-anchor="start"><tspan x="0" dy="0">操作</tspan></text><text transform="translate(172.40128,167.71156) scale(0.32332,0.32332)" font-size="40" xml:space="preserve" fill="#ffffff" stroke="#ffffff" stroke-width="1" font-family="Sans Serif" font-weight="normal" text-anchor="start"><tspan x="0" dy="0">声音</tspan></text><text transform="translate(172.40128,119.87952) scale(0.32332,0.32332)" font-size="40" xml:space="preserve" fill="#ffffff" stroke="#ffffff" stroke-width="1" font-family="Sans Serif" font-weight="normal" text-anchor="start"><tspan x="0" dy="0">键盘选项</tspan></text><text transform="translate(194.25516,210.68425) scale(0.31537,0.31537)" font-size="40" xml:space="preserve" fill="#ffffff" stroke="none" stroke-width="1" font-family="Sans Serif" font-weight="normal" text-anchor="start"><tspan x="0" dy="0">音乐</tspan></text><text transform="translate(194.33741,190.24479) scale(0.31537,0.31537)" font-size="40" xml:space="preserve" fill="#ffffff" stroke="none" stroke-width="1" font-family="Sans Serif" font-weight="normal" text-anchor="start"><tspan x="0" dy="0">音效</tspan></text><path d="M284.0575,33.93399c-0.25652,-6.51498 0,7.40571 0,-12.31325c0,-2.20721 1.57707,-3.6555 3.94409,-3.6555c19.78654,0 24.54674,0 62.43204,0c3.00206,0 4.61747,1.68243 4.61747,4.80986c0,7.79288 0,-9.62215 0,11.35128c0,2.5373 -1.47764,4.23268 -4.23268,4.23268c-36.5282,0 -43.65402,0 -62.62443,0c-2.14693,0 -4.02315,-1.54683 -4.13648,-4.42508z" fill="#000000" stroke="#ffffff" stroke-width="2"/><path d="M366.78717,34.31878c-0.25652,-6.51498 0,7.40571 0,-12.31325c0,-2.20721 1.57707,-3.6555 3.94409,-3.6555c19.78654,0 24.54674,0 62.43204,0c3.00206,0 4.61747,1.68243 4.61747,4.80986c0,7.79288 0,-9.62215 0,11.35128c0,2.5373 -1.47764,4.23268 -4.23268,4.23268c-36.5282,0 -43.65402,0 -62.62443,0c-2.14693,0 -4.02315,-1.54683 -4.13648,-4.42508z" fill="#000000" stroke="#4e4e4e" stroke-width="2"/><path d="M201.71262,33.5492c-0.25652,-6.51498 0,7.40571 0,-12.31325c0,-2.20721 1.57707,-3.6555 3.94409,-3.6555c19.78654,0 24.54674,0 62.43204,0c3.00206,0 4.61747,1.68243 4.61747,4.80986c0,7.79288 0,-9.62215 0,11.35128c0,2.5373 -1.47764,4.23268 -4.23268,4.23268c-36.5282,0 -43.65402,0 -62.62443,0c-2.14693,0 -4.02315,-1.54683 -4.13648,-4.42508z" fill="#000000" stroke="#4e4e4e" stroke-width="2"/><text transform="translate(226.12179,32.70082) scale(0.25011,0.25011)" font-size="40" xml:space="preserve" fill="#ffffff" stroke="none" stroke-width="1" font-family="Sans Serif" font-weight="normal" text-anchor="start"><tspan x="0" dy="0">一般</tspan></text><text transform="translate(309.23625,32.44429) scale(0.25011,0.25011)" font-size="40" xml:space="preserve" fill="#ffffff" stroke="none" stroke-width="1" font-family="Sans Serif" font-weight="normal" text-anchor="start"><tspan x="0" dy="0">图像</tspan></text><text transform="translate(392.09418,32.70082) scale(0.25011,0.25011)" font-size="40" xml:space="preserve" fill="#ffffff" stroke="none" stroke-width="1" font-family="Sans Serif" font-weight="normal" text-anchor="start"><tspan x="0" dy="0">数据</tspan></text><path d="M196.23914,89.48963c-0.2571,-6.52956 0,6.13678 0,-13.62632c0,-2.21215 1.5806,-3.66368 3.95292,-3.66368c19.83083,0 73.06507,0 111.03517,0c3.00878,0 4.6278,1.68619 4.6278,4.82063c0,7.81032 0,-8.35817 0,12.66219c0,2.54298 -1.48095,4.24215 -4.24215,4.24215c-36.60995,0 -92.21511,0 -111.22798,0c-2.15174,0 -4.03215,-1.55029 -4.14574,-4.43498z" fill="#000000" stroke="#ffffff" stroke-width="3"/><text transform="translate(237.06777,88.38915) scale(0.31537,0.31537)" font-size="40" xml:space="preserve" fill="#ffffff" stroke="none" stroke-width="1" font-family="Sans Serif" font-weight="normal" text-anchor="start"><tspan x="0" dy="0">操作杆</tspan></text><path d="M181.67,147.5527c-0.2571,-6.52957 0,6.13678 0,-13.62632c0,-2.21215 1.58059,-3.66368 3.95292,-3.66368c19.83083,0 84.63458,0 122.60467,0c3.00878,0 4.6278,1.6862 4.6278,4.82063c0,7.81032 0,-8.35818 0,12.66219c0,2.54298 -1.48095,4.24215 -4.24215,4.24215c-36.60995,0 -103.78463,0 -122.7975,0c-2.15174,0 -4.03216,-1.5503 -4.14574,-4.43498z" fill="#000000" stroke="#ffffff" stroke-width="3"/><text transform="translate(212.30678,146.45222) scale(0.31537,0.31537)" font-size="40" xml:space="preserve" fill="#ffffff" stroke="none" stroke-width="1" font-family="Sans Serif" font-weight="normal" text-anchor="start"><tspan x="0" dy="0">触摸移动: 关</tspan></text><path d="M325.04635,89.48963c-0.2571,-6.52956 0,6.13678 0,-13.62631c0,-2.21215 1.58059,-3.66368 3.95292,-3.66368c19.83083,0 73.06507,0 111.03516,0c3.00878,0 4.62781,1.68619 4.62781,4.82063c0,7.81032 0,-8.35817 0,12.66219c0,2.54298 -1.48094,4.24215 -4.24215,4.24215c-36.60995,0 -92.21512,0 -111.22799,0c-2.15174,0 -4.03216,-1.55029 -4.14574,-4.43498z" fill="#000000" stroke="#ffffff" stroke-width="3"/><text transform="translate(353.26022,88.38915) scale(0.31537,0.31537)" font-size="40" xml:space="preserve" fill="#ffffff" stroke="none" stroke-width="1" font-family="Sans Serif" font-weight="normal" text-anchor="start"><tspan x="0" dy="0">触摸与键盘</tspan></text><path d="M323.58933,147.5527c-0.2571,-6.52957 0,6.13678 0,-13.62632c0,-2.21215 1.58059,-3.66368 3.95291,-3.66368c19.83083,0 84.63458,0 122.60468,0c3.00878,0 4.6278,1.6862 4.6278,4.82063c0,7.81032 0,-8.35818 0,12.66219c0,2.54298 -1.48095,4.24215 -4.24215,4.24215c-36.60995,0 -103.78463,0 -122.7975,0c-2.15174,0 -4.03216,-1.5503 -4.14574,-4.43498z" fill="#000000" stroke="#ffffff" stroke-width="3"/><text transform="translate(351.28056,146.45222) scale(0.31537,0.31537)" font-size="40" xml:space="preserve" fill="#ffffff" stroke="none" stroke-width="1" font-family="Sans Serif" font-weight="normal" text-anchor="start"><tspan x="0" dy="0">更改按键绑定</tspan></text><path d="M244.85238,334.61182c-0.2571,-6.52957 0,-0.49864 0,-20.26174c0,-2.21215 1.5806,-3.66368 3.95292,-3.66368c19.83083,0 103.1458,0 141.11589,0c3.00878,0 4.6278,1.68619 4.6278,4.82063c0,7.81032 0,-1.72275 0,19.29762c0,2.54298 -1.48095,4.24215 -4.24215,4.24215c-36.60995,0 -122.29584,0 -141.30871,0c-2.15174,0 -4.03216,-1.5503 -4.14574,-4.43498z" fill="#000000" stroke="#ffffff" stroke-width="3"/><text transform="translate(293.07717,331.61948) scale(0.33177,0.33177)" font-size="40" xml:space="preserve" fill="#ffffff" stroke="none" stroke-width="1" font-family="Sans Serif" font-weight="normal" text-anchor="start"><tspan x="0" dy="0">返回游戏</tspan></text><path d="M163.54443,265.19695c-0.2571,-6.52957 0,6.13678 0,-13.62632c0,-2.21215 1.5806,-3.66368 3.95292,-3.66368c19.83083,0 103.1458,0 141.11589,0c3.00878,0 4.6278,1.68619 4.6278,4.82063c0,7.81032 0,-8.35817 0,12.66219c0,2.54298 -1.48095,4.24215 -4.24215,4.24215c-36.60995,0 -122.29585,0 -141.30872,0c-2.15174,0 -4.03216,-1.5503 -4.14574,-4.43498z" fill="#000000" stroke="#ffffff" stroke-width="3"/><text transform="translate(203.13232,264.22502) scale(0.31537,0.31537)" font-size="40" xml:space="preserve" fill="#ffffff" stroke="none" stroke-width="1" font-family="Sans Serif" font-weight="normal" text-anchor="start"><tspan x="0" dy="0">色盲文字: 关</tspan></text><path d="M163.54443,234.85912c-0.2571,-6.52956 0,6.13678 0,-13.62632c0,-2.21215 1.5806,-3.66368 3.95292,-3.66368c19.83083,0 103.1458,0 141.11589,0c3.00878,0 4.6278,1.68619 4.6278,4.82063c0,7.81032 0,-8.35818 0,12.66219c0,2.54298 -1.48095,4.24215 -4.24215,4.24215c-36.60995,0 -122.29585,0 -141.30872,0c-2.15174,0 -4.03216,-1.5503 -4.14574,-4.43498z" fill="#000000" stroke="#ffffff" stroke-width="3"/><text transform="translate(209.43972,233.88719) scale(0.31537,0.31537)" font-size="40" xml:space="preserve" fill="#ffffff" stroke="none" stroke-width="1" font-family="Sans Serif" font-weight="normal" text-anchor="start"><tspan x="0" dy="0">语言: 中文</tspan></text><path d="M245.20883,299.11229c-0.2571,-6.52957 0,-0.49864 0,-20.26174c0,-2.21215 1.5806,-3.66368 3.95291,-3.66368c19.83083,0 103.14581,0 141.11589,0c3.00878,0 4.6278,1.68619 4.6278,4.82063c0,7.81032 0,-1.72275 0,19.29762c0,2.54298 -1.48095,4.24215 -4.24215,4.24215c-36.60995,0 -122.29584,0 -141.30871,0c-2.15174,0 -4.03216,-1.5503 -4.14574,-4.43498z" fill="#000000" stroke="#ffffff" stroke-width="3"/><text transform="translate(293.43362,296.11995) scale(0.33177,0.33177)" font-size="40" xml:space="preserve" fill="#ffffff" stroke="none" stroke-width="1" font-family="Sans Serif" font-weight="normal" text-anchor="start"><tspan x="0" dy="0">离开游戏</tspan></text></g></g></svg>