<svg version="1.1" xmlns="http://www.w3.org/2000/svg" xmlns:xlink="http://www.w3.org/1999/xlink" width="346.48648" height="346.48648" viewBox="0,0,346.48648,346.48648"><g transform="translate(-146.60002,-8.31728)"><g stroke-miterlimit="10"><path d="M146.60002,181.56052c0,-95.6796 77.56364,-173.24324 173.24324,-173.24324c95.6796,0 173.24324,77.56364 173.24324,173.24324c0,95.6796 -77.56364,173.24324 -173.24324,173.24324c-95.6796,0 -173.24324,-77.56364 -173.24324,-173.24324z" fill="#f28b3d" stroke="none" stroke-width="0"/><path d="M297.90323,233.00475c0,-9.17247 20.79197,-31.89933 21.93979,-51.42943c0.97194,23.01492 22.25376,46.58559 22.25376,52.03432c0,3.05226 -2.566,4.8054 -5.03795,4.8054c-5.31187,0 -25.69825,0 -34.76458,0c-2.696,0 -4.39102,-1.9852 -4.39102,-5.41028z" fill="#f17111" stroke="#000000" stroke-width="3"/><path d="M319.84301,181.57532c-0.00042,-0.00986 -0.00083,-0.01972 -0.00124,-0.02958c0.00098,0.00002 0.00197,0.00004 0.00296,0.00006c-0.00057,0.00984 -0.00114,0.01968 -0.00172,0.02953z" fill="#f17111" stroke="#000000" stroke-width="3"/><path d="M221.91569,253.82789c-0.41525,-11.99397 -1.19269,-36.81578 -1.2595,-56.2621c-0.06191,-18.01961 -2.4805,-35.97566 3.30618,-47.82823c4.6078,-9.43792 18.19268,-19.53522 31.02349,-30.23586c17.46192,-14.56289 35.29056,-29.14114 43.52776,-34.48676c1.29903,-0.84302 2.77555,-1.6603 4.16409,-1.7028c1.24514,-0.03811 2.41955,0.62151 3.33179,1.20619c3.64163,2.334 6.89431,6.51331 2.65998,10.45563c-9.82534,9.14777 -28.1669,23.29048 -45.34603,38.04592c-9.64482,8.2841 -20.32059,16.20752 -23.68402,24.71569c-4.7403,11.9911 -2.76351,25.96464 -2.64079,35.66544c0.17226,13.6167 -0.40842,24.56516 0.72525,28.91514c0.09252,0.35501 0.57845,2.12754 2.75922,2.23438c0.67256,0.03295 2.29254,0.59371 3.40362,0.11545c0.81961,-0.35279 1.2571,-1.63919 1.37475,-2.22412c1.7486,-8.69404 3.84128,-40.64788 4.20745,-56.52727c0.11668,-5.0599 8.40102,-4.40487 12.7716,-3.75302c1.56994,0.23415 2.84381,1.67249 3.16787,3.68692c1.53735,9.55637 5.66602,39.45327 2.37384,69.68849c-0.5673,5.21002 -26.85731,17.27975 -39.25909,22.69663c-3.84087,1.67762 -6.45372,0.0349 -6.60746,-4.40573z" fill="#f17111" stroke="#000000" stroke-width="3"/><path d="M411.92371,258.2336c-12.40178,-5.41688 -38.69179,-17.48661 -39.25909,-22.69663c-3.29218,-30.23522 0.83649,-60.13213 2.37384,-69.68849c0.32407,-2.01442 1.59794,-3.45277 3.16788,-3.68692c4.37057,-0.65185 12.65491,-1.30688 12.77159,3.75302c0.36617,15.87939 2.45885,47.83324 4.20745,56.52728c0.11765,0.58494 0.55513,1.87133 1.37474,2.22412c1.11109,0.47825 2.73107,-0.0825 3.40363,-0.11545c2.18077,-0.10684 2.6667,-1.87937 2.75923,-2.23438c1.13367,-4.34999 0.55298,-15.29844 0.72524,-28.91514c0.12272,-9.7008 2.0995,-23.67434 -2.6408,-35.66544c-3.36343,-8.50816 -14.03919,-16.43159 -23.68401,-24.71569c-17.17914,-14.75544 -35.52069,-28.89816 -45.34604,-38.04592c-4.23433,-3.94232 -0.98165,-8.12163 2.65998,-10.45563c0.91225,-0.58468 2.08665,-1.2443 3.33179,-1.20619c1.38854,0.0425 2.86505,0.85978 4.16409,1.7028c8.2372,5.34562 26.06584,19.92387 43.52776,34.48676c12.83081,10.70064 26.41569,20.79794 31.02349,30.23585c5.78668,11.85258 3.3681,29.80862 3.30618,47.82823c-0.06681,19.44633 -0.84425,44.26813 -1.2595,56.2621c-0.15374,4.44063 -2.7666,6.08335 -6.60746,4.40573z" fill="#f17111" stroke="#000000" stroke-width="3"/><path d="M302.29425,126.0722c9.06633,0 29.45271,0 34.76458,0c2.47195,0 5.03795,1.75314 5.03795,4.8054c0,5.44873 -21.28182,29.0194 -22.25376,52.03432c-1.14782,-19.5301 -21.93979,-42.25696 -21.93979,-51.42943c0,-3.42508 1.69502,-5.41028 4.39102,-5.41028z" fill="#f17111" stroke="#000000" stroke-width="3"/></g></g></svg>