<svg version="1.1" xmlns="http://www.w3.org/2000/svg" xmlns:xlink="http://www.w3.org/1999/xlink" width="498.5043" height="427.5645" viewBox="0,0,498.5043,427.5645"><g transform="translate(-73.24805,44.18449)"><g stroke-miterlimit="10"><path d="M571.75213,175.14436c0.00014,0.09256 0.00022,0.18512 0.00022,0.2777c0,114.85201 -110.47474,207.95796 -246.75225,207.95796c-136.2775,0 -246.75225,-93.10595 -246.75225,-207.95796c0,-114.85201 110.47475,-207.95796 246.75225,-207.95796c125.2106,0 228.63907,78.59795 244.6119,180.44548" fill="none" stroke="none" stroke-width="0"/><path d="M571.72572,175.23468c-1.9588,115.24167 -111.67141,208.14534 -246.72561,208.14534c-136.2775,0 -246.75225,-94.59431 -246.75225,-211.28231v-0.00001c0,-116.688 110.47475,-211.28231 246.75225,-211.28231c126.91774,0 231.45535,82.04672 245.21631,187.57545" fill="none" stroke="none" stroke-width="0"/><path d="M562.49298,206.11984c-19.06565,98.43364 -119.48121,173.51403 -240.49285,173.51403c-134.62065,0 -243.75225,-92.91711 -243.75225,-207.53617v-0.00001c0,-114.61906 109.1316,-207.53617 243.75225,-207.53617c124.22791,0 226.75038,79.12445 241.83951,181.41113" fill="none" stroke="none" stroke-width="0"/><path d="M566.75232,170.14451c0.00014,0.09256 0.00022,0.18512 0.00022,0.2777c0,114.85201 -110.47474,207.95796 -246.75225,207.95796c-136.2775,0 -246.75225,-93.10595 -246.75225,-207.95796c0,-114.85201 110.47475,-207.95796 246.75225,-207.95796c125.2106,0 228.63907,78.59795 244.6119,180.44548" fill="none" stroke="none" stroke-width="0"/><path d="M566.72592,170.23481c-1.9588,115.24167 -111.67141,208.14534 -246.72561,208.14534c-136.2775,0 -246.75225,-94.59431 -246.75225,-211.28231v-0.00001c0,-116.688 110.47475,-211.28231 246.75225,-211.28231c126.91774,0 231.45535,82.04672 245.21631,187.57545" fill="none" stroke="none" stroke-width="0"/><path d="M557.49319,201.12c-19.06565,98.43364 -119.48121,173.51403 -240.49285,173.51403c-134.62065,0 -243.75225,-92.91711 -243.75225,-207.53617v-0.00001c0,-114.61906 109.1316,-207.53617 243.75225,-207.53617c124.22791,0 226.75038,79.12445 241.83951,181.41113" fill="none" stroke="none" stroke-width="0"/><path d="M427.84197,91.09201c0.94022,9.56988 31.59624,97.23979 -20.68254,161.74386c-0.12838,0.15837 -8.6,7.45135 -8.6,7.45135c0,0 2.75835,11.02063 -3.93194,24.99289c-3.78469,7.90413 -17.54038,14.60606 -17.54038,14.60606c0,0 -0.01016,4.92604 -0.13889,10.67604c-0.1818,8.12136 -1.32315,18.3685 -9.27848,22.88275c-9.83169,5.57897 -28.04942,6.84394 -43.99139,4.24091c-8.78456,-1.43435 -17.05305,-3.88416 -24.33162,-6.08382c-3.93321,-1.18866 -8.93618,-33.23913 -20.53217,-53.29573c-11.73058,-20.2894 -30.03266,-28.58066 -30.03266,-28.58066c0,0 -23.06632,2.15632 -41.32388,-5.07083c-10.91089,-4.31902 -18.23318,-20.73176 -19.26984,-27.84525c-2.07212,-14.21874 -5.17291,-35.42304 -3.69867,-61.59987c1.45854,-25.89759 1.45063,-57.23769 6.67343,-74.68822c4.64125,-16.72603 18.40686,-19.77335 31.03068,-22.09303c19.72606,-2.90735 32.41278,1.59556 32.41278,1.59556c0,0 -0.57529,-8.46628 25.16539,-20.96288c12.97358,-6.29843 39.51198,-8.17755 54.80671,-8.37922c61.13105,3.15753 90.40045,31.269 93.26349,60.4101z" fill="#ff0000" stroke="#ff0000" stroke-width="20"/><path d="M303.24136,91.25002c14.54992,-11.95601 32.05203,-15.12084 38.06646,-15.53438c20.78975,-1.42953 53.76454,-1.17812 74.06118,2.44517c5.15539,0.92033 21.81717,6.56962 27.4002,16.13022c4.27299,7.31724 20.36983,31.52717 -3.35282,53.6373c-25.04278,23.3405 -93.61829,18.26795 -113.21742,14.57802c-8.74507,-1.99301 -24.30453,-10.11352 -29.5865,-24.19574c-6.38245,-17.01628 -1.04835,-40.75206 6.62885,-47.0606z" fill="#ff0000" stroke="#ff0000" stroke-width="20"/></g></g></svg>