<svg version="1.1" xmlns="http://www.w3.org/2000/svg" xmlns:xlink="http://www.w3.org/1999/xlink" width="621.50506" height="160.07326" viewBox="0,0,621.50506,160.07326"><g transform="translate(-27.35904,-88.47094)"><g fill="none" stroke="#000000" stroke-width="13" stroke-linecap="round" stroke-miterlimit="10"><path d="M59.77584,101.31924l-25.91679,51.41557"/><path d="M34.69507,191.19198l31.57638,-1.54511"/><path d="M59.27677,151.70853l-24.01932,39.71557"/><path d="M33.88149,152.76098l25.47801,-1.15556"/><path d="M143.9299,97.9008l-41.74622,-2.92986"/><path d="M81.93051,115.53167l84.43858,-1.25404"/><path d="M166.70253,117.2883l-0.00162,26.33966"/><path d="M166.19347,144.37455l-77.15674,0.25048"/><path d="M81.85079,115.6992c0,0 6.82801,81.76924 -6.36018,95.84397c-8.08472,8.62819 -40.87688,11.66827 -40.87688,11.66827"/><path d="M98.69069,240.07728v-71.63842"/><path d="M168.32524,167.43692l-69.76628,0.75145"/><path d="M168.65298,168.09255c0,0 1.25238,55.1683 -1.47008,67.51646c-0.6646,3.01441 -4.01656,2.35968 -7.10089,2.28427"/><path d="M250.48162,169.44315c0,0 -53.06647,23.77068 -79.5022,34.83782c-8.53036,3.57118 -71.472,2.74408 -71.472,2.74408"/><path d="M120.87662,171.7341l1.14596,54.49697"/><path d="M144.49377,172.4132l0.53645,55.03273"/><path d="M206.28368,108.19734l0.35813,59.44981"/><path d="M206.6652,108.01827l108.69287,-1.07439"/><path d="M315.23294,168.00528v-60.16607"/><path d="M313.45135,137.20599l-105.60308,1.43252"/><path d="M261.99649,162.99145l-0.71626,-53.36158"/><path d="M207.2188,167.4804l105.60309,0.66447"/><path d="M345.20176,207.91232c0,0 -23.52355,-4.5509 -39.4241,-13.36534c-14.80711,-8.2083 -31.85132,-22.77432 -31.85132,-22.77432"/><path d="M234.27311,197.37158c0,0 2.81588,12.552 -5.88627,26.03727c-7.80473,12.09459 -23.72817,17.12953 -23.72817,17.12953"/><path d="M288.48258,197.87352c0,0 1.50582,15.49331 1.50582,22.58728c0,7.59533 0.50194,21.58341 0.50194,21.58341"/><path d="M356.74638,113.04572l118.95968,-0.50194"/><path d="M485.74486,160.72999h-141.04503"/><path d="M416.47719,117.06124c0,0 -0.2169,42.82162 -15.83563,73.65218c-15.18575,29.97588 -45.75455,47.95767 -47.86625,49.80354"/><path d="M512.59084,237.28008c-0.28051,0.09009 -16.61786,0.0595 -32.38474,0.56208c-18.73145,0.59708 -36.77535,-0.37439 -40.12899,-0.67121c-0.28699,0.01719 -8.29733,-3.80177 -9.4868,-10.19587c-2.34048,-12.58148 -2.19347,-42.52372 -3.104,-47.21104"/><path d="M510.34442,109.53214l2.00776,126.99073"/><path d="M547.25245,109.53215l-35.90415,-0.00001"/><path d="M547.23313,109.81395c0,0 -4.39706,19.9147 -6.94738,28.11691c-2.28555,7.35065 -7.23049,20.59449 -7.23049,20.59449"/><path d="M533.04364,160.94617c0,0 9.20456,10.80432 12.56872,22.25409c1.48664,5.0597 2.62005,19.44962 -1.00945,25.51572c-4.57922,7.6534 -14.58072,6.49904 -16.90721,6.24313"/><path d="M567.56553,112.04184h61.73857"/><path d="M629.13446,171.81028l0.3865,-57.93991"/><path d="M625.92957,139.23141l-54.99907,0.50194"/><path d="M574.71514,170.21262l51.81778,1.02047"/><path d="M575.4444,236.1676c-0.71607,0.37526 -8.65324,6.58028 -9.33354,0.70785c-3.28624,-28.36726 1.28501,-124.28703 1.28501,-124.28703"/><path d="M639.43729,187.52604c0,0 -7.87831,7.00793 -12.24637,10.05452c-4.29243,2.99384 -13.73905,8.06952 -13.73905,8.06952"/><path d="M642.36411,234.97943c0,0 -7.27115,-2.84245 -14.69436,-8.41779c-6.12059,-4.59699 -12.21651,-11.07993 -16.62285,-15.88216c-10.15013,-11.06208 -22.037,-37.62042 -22.037,-37.62042"/></g></g></svg>