<svg version="1.1" xmlns="http://www.w3.org/2000/svg" xmlns:xlink="http://www.w3.org/1999/xlink" width="718.6191" height="443.6925" viewBox="0,0,718.6191,443.6925"><g transform="translate(53.43418,-24.35288)"><g stroke-miterlimit="10"><path d="M-53.43418,293.4638v-110h15.82194c0,0 -2.95116,4.63095 -2.95116,10.73743c0,0.97924 0.0897,3.37585 0.83829,4.37022c0.54365,0.72214 2.11287,0.84309 2.11287,1.55536c0,18.48218 0,93.33699 0,93.33699z" fill="#9a0000" stroke="#9a0000" stroke-width="0"/><path d="M323.09972,148.46804c-12.94689,0 -23.4424,-8.02855 -23.4424,-17.93225c0,-9.9037 10.49552,-17.93225 23.4424,-17.93225c12.94688,0 23.4424,8.02855 23.4424,17.93225c0,9.9037 -10.49553,17.93225 -23.4424,17.93225z" fill="#9a0000" stroke="#9a0000" stroke-width="0"/><path d="M268.68125,45.60288v-21.25h111.4458v21.25z" fill="#9a0000" stroke="#9a0000" stroke-width="0"/><path d="M274.25737,219.28013h34.47817v58.89571h-33.26414c0,0 -1.80703,-23.36577 -17.27137,-27.67238c-29.34223,-8.17142 -83.44161,-0.72251 -96.2055,-7.06677c-8.09428,-4.02324 -13.34377,-26.32614 -13.34377,-26.32614l15.81963,22.07003l86.96622,-0.18266l0.2454,-13.7719l-27.79049,-28.16349l-16.8142,0.01619l-0.4911,-41.8777l-4.41584,-1.75754l-0.17808,-15.71795l34.11257,-0.00547l-0.11511,42.97434z" fill="#9a0000" stroke="#9a0000" stroke-width="0"/><path d="M343.04234,238.62817v-19.21428h37.59569l26.85408,-29.5l0.27348,36.19315l31.81622,0.20556l39.32758,12.74415l-71.41728,-0.42857z" fill="#9a0000" stroke="#9a0000" stroke-width="0"/><path d="M309.22637,277.65522v-58.33334h4.57244c0,0 0,5.67003 0,10.40017c0,10.1548 0,47.93317 0,47.93317z" fill="#9a0000" stroke="#9a0000" stroke-width="0"/><path d="M342.66912,236.98876v-0.5h0.50805v0.5z" fill="#9a0000" stroke="#9a0000" stroke-width="0"/><path d="M339.12146,252.82204v-33h49.61954v33z" fill="#9a0000" stroke="#9a0000" stroke-width="0"/><path d="M390.96861,256.82187v-19.4256h47.24608v19.4256z" fill="#9a0000" stroke="#9a0000" stroke-width="0"/><path d="M434.62615,251.73874v-25.41666h26.41859v25.41666z" fill="#9a0000" stroke="#9a0000" stroke-width="0"/><path d="M450.73853,294.32187v-59.33334h19.95914v59.33334z" fill="#9a0000" stroke="#9a0000" stroke-width="0"/><path d="M390.3466,296.01725v-18.49767h41.94767v18.49767z" fill="#9a0000" stroke="#9a0000" stroke-width="0"/><path d="M455.86853,245.03685v-19h17.07047v19z" fill="#9a0000" stroke="#9a0000" stroke-width="0"/><path d="M465.59064,239.01112v-25.14089h19.3059v25.1409z" fill="#9a0000" stroke="#9a0000" stroke-width="0"/><path d="M479.03558,242.02108v-28.15083h40.82541v28.15085z" fill="#9a0000" stroke="#9a0000" stroke-width="0"/><path d="M543.9547,280.23671v-44.56666h49.61471v44.56667z" fill="#9a0000" stroke="#9a0000" stroke-width="0"/><path d="M503.42197,294.43665v-31.8h40.44077v31.8z" fill="#9a0000" stroke="#9a0000" stroke-width="0"/><path d="M593.44837,274.83673v-17.80845l29.26367,-0.16288c0,0 10.43921,-5.33984 14.75415,-8.14327c4.60753,-2.99354 12.07088,-11.1854 12.07088,-11.1854l-8.73846,37.3z" fill="#9a0000" stroke="#9a0000" stroke-width="0"/><path d="M647.708,244.23688v-51.4h17.47691v51.4z" fill="#9a0000" stroke="#9a0000" stroke-width="0"/><path d="M644.11777,163.10344l8.73846,45.8l-26.82503,-21.4l-29.26367,-0.2v-24.2z" fill="#9a0000" stroke="#9a0000" stroke-width="0"/><path d="M544.88612,217.03685v-50.39999h48.69198v50.4z" fill="#9a0000" stroke="#9a0000" stroke-width="0"/><path d="M585.31961,190.63686v-23.6h13.00607v23.6z" fill="#9a0000" stroke="#9a0000" stroke-width="0"/><path d="M503.42197,194.53685v-34.70001h38.20534v34.70001z" fill="#9a0000" stroke="#9a0000" stroke-width="0"/><path d="M503.45583,173.47022c0,0 -1.47886,-3.73866 -1.46047,-6.98959c0.04242,-7.50181 -0.03953,-32.01939 -0.03953,-32.01939c0,0 6.52387,-4.31613 8.21745,-6.36323c2.68908,-3.09126 1.32125,-11.44446 1.32125,-11.44446l26.71192,-0.05l-1.55933,56.86667z" fill="#9a0000" stroke="#9a0000" stroke-width="0"/><path d="M474.36152,83.3701v-18.4h24.99605l31.93187,55.05288l-36.40271,-36.25288z" fill="#9a0000" stroke="#9a0000" stroke-width="0"/><path d="M417.83081,119.1702v-36.8l53.48759,-1.36593l-0.05023,22.27949c0,0 -5.1304,3.34762 -6.69023,5.87476c-1.69712,2.74956 -2.51542,10.01167 -2.51542,10.01167z" fill="#9a0000" stroke="#9a0000" stroke-width="0"/><path d="M500.98091,118.35532c0,3.54961 -4.84185,7.97528 -10.62572,7.97528c-5.78387,0 -12.57252,-3.24593 -12.57252,-6.79554c0,-3.54961 2.12223,-9.96635 7.9061,-9.96635c2.7739,0 7.15808,-0.91896 10.24141,0.72631c3.34575,1.7853 5.05073,6.21305 5.05073,8.0603z" fill="#9a0000" stroke="#9a0000" stroke-width="0"/><path d="M463.25097,187.60767l-28.21272,-0.18103c0,0 -11.0008,-36.43348 -13.19196,-43.69035c-0.72706,-2.40796 -1.45248,-4.97711 -1.45248,-4.97711l46.59355,0.36405c0,0 2.38406,2.33132 3.96967,3.66688c1.44173,1.21437 4.19019,2.86257 4.19019,2.86257l0.19166,44.27318h-10.98901z" fill="#9a0000" stroke="#9a0000" stroke-width="0"/><path d="M403.37413,237.42581v-24.5l2.46814,-21.27615l13.94028,-14.57844l0.37332,-38.6133l19.71316,47.88456l-11.14326,12.16735l-9.59681,1.9087l-0.02669,9.041l-7.00664,7.79962h3.49016c0,0 1.52627,5.66667 5.00272,5.66667c8.51256,0 46.3765,-1.33333 46.3765,-1.33333l0.6774,15.83333z" fill="#9a0000" stroke="#9a0000" stroke-width="0"/><path d="M34.02191,98.10289v-32.25h66.80856v32.25z" fill="#9a0000" stroke="#9a0000" stroke-width="0"/><path d="M21.5747,149.37868v-36.82591h58.65472v36.82591z" fill="#9a0000" stroke="#9a0000" stroke-width="0"/><path d="M12.35231,155.24878v-8.5446h26.67261l-5.58478,8.76258z" fill="#9a0000" stroke="#9a0000" stroke-width="0"/><path d="M11.15966,132.35271v-37.75h19.81395c0,0 0,7.79126 0,12.75c0,6.94364 0,25 0,25z" fill="#9a0000" stroke="#9a0000" stroke-width="0"/><path d="M29.70349,107.10289c0,0 0,-2.78724 0,-3.75c0,-2.50133 0,-13.5 0,-13.5h12.1932l-0.25402,7.5z" fill="#9a0000" stroke="#9a0000" stroke-width="0"/><path d="M11.70148,170.16407v-18.14286h2.83297v18.14286z" fill="#9a0000" stroke="#9a0000" stroke-width="0"/><path d="M11.79398,188.58657v-16.5h20.61231v16.5z" fill="#9a0000" stroke="#9a0000" stroke-width="0"/><path d="M93.22578,118.51957v-48.41667h143.065v48.41667z" fill="#9a0000" stroke="#9a0000" stroke-width="0"/><path d="M93.13982,182.08251v-44.6h62.07138v44.6z" fill="#9a0000" stroke="#9a0000" stroke-width="0"/><path d="M155.46498,155.40734v-17.925h18.89527v17.925z" fill="#9a0000" stroke="#9a0000" stroke-width="0"/><path d="M203.77398,155.68243v-17.97857h8.59259v17.97857z" fill="#9a0000" stroke="#9a0000" stroke-width="0"/><path d="M153.20038,202.98253v-44.65h20.52521v44.65z" fill="#9a0000" stroke="#9a0000" stroke-width="0"/><path d="M142.59186,271.48234v-93.4h9.18186v93.4z" fill="#9a0000" stroke="#9a0000" stroke-width="0"/><path d="M159.12295,248.4825v-10h12.39641v10z" fill="#9a0000" stroke="#9a0000" stroke-width="0"/><path d="M255.65241,279.08235v-31.8h26.41859v31.8z" fill="#9a0000" stroke="#9a0000" stroke-width="0"/><path d="M160.54549,259.36861v-13.8863h102.42285v13.8863z" fill="#9a0000" stroke="#9a0000" stroke-width="0"/><path d="M173.75478,270.97794v-19.00034h27.84113v19.00034z" fill="#9a0000" stroke="#9a0000" stroke-width="0"/><path d="M193.14117,275.00238v-22.39725h63.73057v22.39726z" fill="#9a0000" stroke="#9a0000" stroke-width="0"/><path d="M279.89043,293.3157v-19.53333h34.42467v19.53333z" fill="#9a0000" stroke="#9a0000" stroke-width="0"/><path d="M266.01665,293.08243v-17.6h17.27369v17.6z" fill="#9a0000" stroke="#9a0000" stroke-width="0"/><path d="M98.63113,311.41571v-44.6h59.54344v44.6z" fill="#9a0000" stroke="#9a0000" stroke-width="0"/><path d="M71.93117,224.47729v-52.99476h26.203v52.99477z" fill="#9a0000" stroke="#9a0000" stroke-width="0"/><path d="M71.8334,298.64905v-53.16667h26.15131v53.16667z" fill="#9a0000" stroke="#9a0000" stroke-width="0"/><path d="M102.50518,188.90065v-17h49.1115v17z" fill="#9a0000" stroke="#9a0000" stroke-width="0"/><path d="M103.52129,200.90065v-15.33334l17.61239,0.33334z" fill="#9a0000" stroke="#9a0000" stroke-width="0"/><path d="M131.52036,188.63354l21.11241,-0.39959v18.38043z" fill="#9a0000" stroke="#9a0000" stroke-width="0"/><path d="M122.27696,224.234c0,0 0.84741,-2.65116 3.6559,-2.65116c2.13969,0 7.89203,-0.27874 12.04554,-0.57161c4.59715,-0.32415 8.75129,-2.96328 8.75129,-2.96328l-2,40.35271c0,0 -5.36196,-5.28969 -20.5068,-14.09695c-4.36652,-2.53929 -1.94592,-20.06971 -1.94592,-20.06971z" fill="#9a0000" stroke="#9a0000" stroke-width="0"/><path d="M-21.3495,168.56729v-24.66667h36.43464v24.66667z" fill="#9a0000" stroke="#9a0000" stroke-width="0"/><path d="M-36.04486,298.4638l0.50805,-14l22.86224,14z" fill="#9a0000" stroke="#9a0000" stroke-width="0"/><path d="M-2.04835,162.63057l-34.29336,21l-0.76207,-21z" fill="#9a0000" stroke="#9a0000" stroke-width="0"/><path d="M235.96611,75.18276v-35.548h34.92953z" fill="#9a0000" stroke="#9a0000" stroke-width="2"/><path d="M371.5913,43.46815h48.22448v46.75728z" fill="#9a0000" stroke="#9a0000" stroke-width="1.5"/><path d="M-39.01791,248.94711v-19.37986c0,0 13.13149,0 16.37027,0c0.60573,0 1.07637,0.18868 1.60289,0.73102c0.66153,0.68141 1.31247,1.82466 1.31247,2.7625c0,2.7303 -3.66667,10.3267 -3.66667,10.3267l1,9.51313c0,0 -3.58892,4 -6.7677,4c-1.75327,0 -4.13041,-4.79157 -6.27254,-6.92447c-1.82656,-1.8187 -3.57872,-1.02902 -3.57872,-1.02902z" fill="#9a0000" stroke="#9a0000" stroke-width="0"/><path d="M466.37594,190.12804l-16.139,-0.21014l-0.34725,-51.09884l25.86003,0.00072l5.09701,2.60537l0.23315,51.39392h-13.36722z" fill="#9a0000" stroke="#9a0000" stroke-width="0"/><path d="M428.58766,221.39832c0,0 -0.51351,-6.11843 4.95457,-5.66667c5.73728,0.474 5.10503,5.66667 5.10503,5.66667z" fill="#9a0000" stroke="none" stroke-width="0"/><path d="M619.68862,199.22748c0,-4.55632 4.95315,-13.99578 4.95315,-13.99578l17.40105,-0.83334v25.66667c0,0 -10.64445,0.24542 -14.75274,0c-8.3699,-0.5 -7.60145,-6.94242 -7.60145,-10.83756z" fill="#9a0000" stroke="none" stroke-width="0"/><path d="M623.38244,216.89411c0.45462,-3.61416 18.4462,-17.82911 18.4462,-17.82911l8.00426,2v21c0,0 -13.6846,4.64234 -21.26153,1.88513c-3.09498,-1.12625 -5.8824,-1.54311 -5.18893,-7.05602z" fill="#9a0000" stroke="none" stroke-width="0"/><path d="M639.33318,236.06505c0,0 -3.58676,-5.30718 -3.58676,-7.17089c0,-2.19345 3.58676,-5.16245 3.58676,-5.16245h10.8384v12.33334z" fill="#9a0000" stroke="none" stroke-width="0"/><path d="M620.36604,260.39815c0,0 3.92267,-2.47338 2.4246,-5.17927c-1.81846,-3.2846 -2.4246,-7.9664 -2.4246,-9.90747c0,-1.09276 0.99626,-3.2149 2.42728,-4.0174c1.35014,-0.75715 3.407,-0.68577 4.53523,-0.19056c3.3538,1.47209 11.22969,7.16913 11.22969,7.16913l-1.36384,12.12555z" fill="#9a0000" stroke="none" stroke-width="0"/><path d="M362.54171,189.46816c-12.94689,0 -23.4424,-8.02855 -23.4424,-17.93225c0,-9.9037 10.49552,-17.93225 23.4424,-17.93225c12.94689,0 23.44239,8.02855 23.44239,17.93225c0,9.9037 -10.49552,17.93225 -23.44239,17.93225z" fill="#9a0000" stroke="#9a0000" stroke-width="0"/><path d="M281.60817,189.46816c-12.94689,0 -23.4424,-8.02855 -23.4424,-17.93225c0,-9.9037 10.49552,-17.93225 23.4424,-17.93225c12.94689,0 23.44241,8.02855 23.44241,17.93225c0,9.9037 -10.49553,17.93225 -23.44241,17.93225z" fill="#9a0000" stroke="#9a0000" stroke-width="0"/><path d="M281.10817,107.46819c-12.94689,0 -23.4424,-8.46323 -23.4424,-18.90315c0,-10.43992 10.49552,-18.90315 23.4424,-18.90315c12.94688,0 23.44241,8.46323 23.44241,18.90315c0,10.43992 -10.49553,18.90315 -23.44241,18.90315z" fill="#9a0000" stroke="#9a0000" stroke-width="0"/><path d="M363.04171,106.90998c-12.94689,0 -23.44241,-8.46323 -23.44241,-18.90315c0,-10.43992 10.49552,-18.90315 23.44241,-18.90315c12.94687,0 23.44239,8.46323 23.44239,18.90315c0,10.43992 -10.49552,18.90315 -23.44239,18.90315z" fill="#9a0000" stroke="#9a0000" stroke-width="0"/><path d="M420.19737,176.79544c0,0 0,-7.72476 0,-12.7544c0,-7.28339 0,-26.7456 0,-26.7456h36.2092v39.5z" fill="#9a0000" stroke="none" stroke-width="0"/><path d="M436.0816,192.62851v-7.96875h39.11278v7.96875z" fill="#9a0000" stroke="none" stroke-width="0"/><path d="M453.49146,220.06505c0,0 -0.33918,-3.00064 1.98678,-4.64405c0.99539,-0.70329 2.47886,-1.15802 4.6859,-1.02263c7.72681,0.474 6.87533,5.66667 6.87533,5.66667z" fill="#9a0000" stroke="none" stroke-width="0"/><path d="M592.61811,190.72748v-8.33333h31.08526v8.33333z" fill="#9a0000" stroke="none" stroke-width="0"/><path d="M461.57424,397.04872v-3.91755c1.22098,0.56911 2.56237,0.88364 3.97003,0.88364c2.30453,0 4.43139,-0.843 6.14318,-2.26591h14.18893v5.29984z" fill="#9a0000" stroke="#9a0000" stroke-width="0"/><path d="M457.6215,395.58856c0,0 3.59919,-2.27777 6.00234,-1.77287v1.77287z" fill="#9a0000" stroke="#9a0000" stroke-width="0"/><path d="M457.6215,374.82182h0.5052c-0.1753,0.20373 -0.34384,0.41466 -0.5052,0.63238z" fill="#9a0000" stroke="#9a0000" stroke-width="0"/><path d="M432.60991,380.6894v-23.55185c0,0 22.15396,0 27.6974,0c2.37819,0 5.09768,0 5.09768,0v15.3717c-1.87192,0.21308 -7.35502,0.63736 -8.83449,1.65727c-2.14761,1.48051 -0.0108,3.93931 -0.7384,6.52289z" fill="#9a0000" stroke="#9a0000" stroke-width="0"/><path d="M447.51999,432.41699v-55.97284h9.44499c-1.05508,1.78542 -1.66858,3.92019 -1.66858,6.21376c0,2.81545 -0.9543,5.95947 0.57659,7.94387c1.45294,1.88338 5.33092,2.66587 7.60444,3.18186v38.63335z" fill="#9a0000" stroke="#9a0000" stroke-width="0"/><path d="M483.69719,412.88278v-21.12367h23.98006v21.12367z" fill="#9a0000" stroke="#9a0000" stroke-width="0"/><path d="M366.87123,386.67247v-29.36228h41.48628c0,0 -1.73876,8.94243 -1.99628,14.08212c-0.22967,4.58404 -3.97487,14.53017 -3.97487,14.53017z" fill="#9a0000" stroke="#9a0000" stroke-width="0"/><path d="M402.4913,374.95779v-17.59192h5.16994v17.59192z" fill="#9a0000" stroke="#9a0000" stroke-width="0"/><path d="M352.45125,451.95024v-94.64007h19.39019c0,0 -8.31628,17.70683 -9.7054,32.5599c-0.33598,3.59241 4.2054,7.01788 4.2054,9.98551c0,16.24468 5.5,52.09466 5.5,52.09466z" fill="#9a0000" stroke="#9a0000" stroke-width="0"/><path d="M367.28113,460.12717v-21.80508h82.59799v21.80508z" fill="#9a0000" stroke="#9a0000" stroke-width="0"/><path d="M367.07615,439.00348v-18.62516l17.42141,19.07944z" fill="#9a0000" stroke="#9a0000" stroke-width="0"/><path d="M430.6131,438.77639l17.42141,-19.07944v18.62516z" fill="#9a0000" stroke="#9a0000" stroke-width="0"/><path d="M385.38573,444.45479c0,0 -9,-8.41298 -9,-10.84921c0,-1.42219 2.57415,-7.10095 5.21773,-7.59338c1.55137,-0.28898 6.03227,-0.4277 6.03227,-0.4277l16.74276,4.75v14.12031z" fill="#9a0000" stroke="#9a0000" stroke-width="0"/><path d="M437.58167,428.32807c0,0 0,-9.79669 0,-14.06036c0,-2.04885 3.05654,-9.82609 6.0836,-14.76974c0.826,-1.34897 1.3404,-5.42026 2.09076,-6.19856c1.27457,-1.32205 2.58592,1.14751 2.58592,1.14751l2.56197,10.03185v23.8493z" fill="#9a0000" stroke="#9a0000" stroke-width="0"/><path d="M362.77208,420.67029v-16.4187h16.80654v16.4187z" fill="#9a0000" stroke="#9a0000" stroke-width="0"/><path d="M287.61269,468.04538v-33.5277h84.28889v33.5277z" fill="#9a0000" stroke="#9a0000" stroke-width="0"/><path d="M124.06324,455.20006v-59.05541h129.66081l-0.10387,7.43854l42.69164,38.9887l-42.58777,12.62817z" fill="#9a0000" stroke="#9a0000" stroke-width="0"/><path d="M32.85704,413.17986v-40.12741h66.61128v40.12741z" fill="#9a0000" stroke="#9a0000" stroke-width="0"/><path d="M32.04123,374.53331l0.25619,8.51761h-12.29747c0,0 0,-12.49098 0,-15.33169c0,-1.09339 0,-4.2588 0,-4.2588z" fill="#9a0000" stroke="#9a0000" stroke-width="0"/><path d="M457.19737,399.38107l-2.39118,-9.1864c1.59641,2.47872 6.4606,3.26992 9.30851,3.71045v5.47595z" fill="#9a0000" stroke="#9a0000" stroke-width="0"/><path d="M433.97878,319.22785l16.66403,-18.39803v-5.6784h19.10267v22.71362z" fill="#9a0000" stroke="#9a0000" stroke-width="0"/><path d="M356.38645,336.99085v-21.12517l85.6369,0.60897l4.40356,-5.9944l32.4232,0.04126l-0.05504,17.4341c0,0 -6.81688,1.37262 -9.66639,5.20571c-2.84951,3.83309 -3.44668,3.82953 -3.44668,3.82953z" fill="#9a0000" stroke="#9a0000" stroke-width="0"/><path d="M464.77408,317.42359v-92.59585h14.28942v92.59585z" fill="#9a0000" stroke="#9a0000" stroke-width="0"/><path d="M541.22214,325.19705v10.17521c0,0 1.97754,59.71596 -3.63923,66.23976c-7.40689,8.603 -68.68605,-6.99391 -68.68605,-6.99391l21.05168,0.3078l11.02192,-11.66036l-0.03586,-17.94064c0,0 8.62764,-6.96165 8.48869,-16.60258c-0.06945,-7.99475 -2.67026,-13.72344 -5.08573,-17.33159c-0.13955,-0.20846 -0.63294,-0.60417 -0.63294,-0.60417l0.05469,-4.09416z" fill="#9a0000" stroke="#9a0000" stroke-width="0"/><path d="M452.11004,373.44667l0.39351,-19.69903l15.01165,-0.15224c0,0 0.03556,5.6399 4.7736,10.99588c4.85077,5.48341 7.61137,4.60912 7.61137,4.60912c0,0 0.55851,2.35479 0.57515,3.19503c0.01004,0.50745 -0.48469,1.37308 -0.48469,1.37308l-11.1819,-0.12907c-1.21112,-0.76943 -2.57889,-1.20257 -4.02666,-1.20257c-1.3895,0 -2.70531,0.39899 -3.87966,1.11131z" fill="#9a0000" stroke="#9a0000" stroke-width="0"/><path d="M153.33923,340.94637v-93.12584h16.93166v93.12584z" fill="#9a0000" stroke="#9a0000" stroke-width="0"/><path d="M168.53547,316.22132v-17.38229h44.70839v17.3823z" fill="#9a0000" stroke="#9a0000" stroke-width="0"/><path d="M149.54243,372.624v-65.29378h20.74454v65.29379z" fill="#9a0000" stroke="#9a0000" stroke-width="0"/><path d="M192.65113,373.85108v-23.6364h53.73669v23.6364z" fill="#9a0000" stroke="#9a0000" stroke-width="0"/><path d="M232.22076,373.69972v-70.35716l21.96385,-13.15326v83.51041z" fill="#9a0000" stroke="#9a0000" stroke-width="0"/><path d="M215.6181,351.1675l20.11877,-21.12366l1.0161,1.13568v19.53371z" fill="#9a0000" stroke="#9a0000" stroke-width="0"/><path d="M231.69216,302.81712l23.27409,-30.54171l40.51724,13.32532c0,0 -3.39293,10.19016 -8.42926,14.94064c-3.48386,3.28613 -8.30131,0.84037 -11.07987,3.46123c-7.43479,7.01281 -23.35385,22.02838 -23.35385,22.02838z" fill="#9a0000" stroke="#9a0000" stroke-width="0"/><path d="M93.00719,430.33657v-81.16182h32.57428v81.16182z" fill="#9a0000" stroke="#9a0000" stroke-width="0"/><path d="M93.00718,327.96083v-54.46996h65.11117v54.46998z" fill="#9a0000" stroke="#9a0000" stroke-width="0"/><path d="M8.41302,424.53667v-146.12428h15.93469c0,0 -9.62134,6.0333 -9.62134,18.24732c0,0.71434 1.8446,7.10672 1.8446,7.92299c0,0.18923 -0.62433,1.33881 0.25733,1.89396c2.25892,1.42239 7.51942,2.87665 7.51942,3.40835c0,30.47591 0,114.65166 0,114.65166z" fill="#9a0000" stroke="#9a0000" stroke-width="0"/><path d="M25.63909,351.10767v-38.02061h53.61924v38.02061z" fill="#9a0000" stroke="#9a0000" stroke-width="0"/><path d="M3.63881,357.02365l-0.03877,-10.53285l39.30053,-6.66661l-12.58924,17.14752z" fill="#9a0000" stroke="#9a0000" stroke-width="0"/><path d="M-25.91863,330.92958v-35.77395h35.05544v35.77395z" fill="#9a0000" stroke="#9a0000" stroke-width="0"/><path d="M405.87431,442.51273v-14.196c0,0 7.17015,2.08208 10.3093,2.08208c1.71104,0 4.2833,-0.82254 5.9582,-1.43363c0.98987,-0.36116 1.64314,1.27664 1.62581,2.71736c-0.03109,2.58434 -0.1303,10.83018 -0.1303,10.83018z" fill="#9a0000" stroke="none" stroke-width="0"/><path d="M422.27094,440.99846v-10.97824c0,0 0.93923,0 1.59859,0c1.06984,0 4.20855,3.31402 4.20855,5.06831c0,1.89435 0,5.90994 0,5.90994z" fill="#9a0000" stroke="none" stroke-width="0"/><path d="M503.4686,312.02198v-8.51761h37.74639v8.51761z" fill="#9a0000" stroke="none" stroke-width="0"/><path d="M503.46146,307.419v-15.71026h40.47917v15.71026z" fill="#9a0000" stroke="none" stroke-width="0"/><path d="M527.971,328.80764v-29.90626h14.17625v29.90626z" fill="#9a0000" stroke="none" stroke-width="0"/><path d="M456.15038,374.32965v-3.21776h23.98611v3.21776z" fill="#9a0000" stroke="none" stroke-width="0"/><path d="M458.71235,396.09686v-4.35344h15.20105v4.35344z" fill="#9a0000" stroke="none" stroke-width="0"/><path d="M339.12145,292.32491v-16.50608h21.84614v16.50608z" fill="#9a0000" stroke="#9a0000" stroke-width="0"/><path d="M339.10484,288.28247v-15.70687h32.04174v15.70687z" fill="#9966ff" stroke="none" stroke-width="0"/><path d="M351.38645,336.69402v-63.31831h19.73344v63.31831z" fill="#9a0000" stroke="#9a0000" stroke-width="0"/><path d="M417.68499,187.29104v-50h15.5v50z" fill="#9a0000" stroke="none" stroke-width="0"/><path d="M201.68499,204.34226v-61.89209h32.5v61.89209z" fill="#9a0000" stroke="none" stroke-width="0"/><path d="M199.37203,162.95005v-25.5h36.81295v25.5z" fill="#9a0000" stroke="none" stroke-width="0"/><path d="M218.18499,198.95016l34,6.5l11,35.5z" fill="#9a0000" stroke="none" stroke-width="0"/><path d="M-3.04049,200.40064v-43.83334c0,0 11.50539,0 16.47325,0c2.26394,0 -1.46134,11.82041 0.9411,16.70887c1.95204,3.97203 10.29838,0.84198 10.29838,3.38985c0,7.58285 0,23.73462 0,23.73462z" fill="#9a0000" stroke="#9a0000" stroke-width="0"/><path d="M22.96219,224.53899v-52.94273h24.42402v52.94273z" fill="#9a0000" stroke="#9a0000" stroke-width="0"/><path d="M-2.67371,304.4638v-37h32.30122c0,0 -0.38882,21.76622 -2.8031,27.53083c-1.3666,3.26306 -10.42625,4.05716 -10.42625,4.05716z" fill="#9a0000" stroke="#9a0000" stroke-width="0"/><path d="M22.73084,299.53882v-53.44273h25.32395v53.44273z" fill="#9a0000" stroke="#9a0000" stroke-width="0"/><path d="M-23.49999,174.45016v-11.5h25v11.5z" fill="#9a0000" stroke="none" stroke-width="0"/><path d="M-26.83332,238.05412v-4h11.33334v4z" fill="#9a0000" stroke="none" stroke-width="0"/><path d="M-46.83332,189.73158l4,-13.33333l13.66667,-3.66667c0,0 -1.11914,13.38107 -2.57333,15.32c-1.54079,2.05439 -15.09333,1.68 -15.09333,1.68z" fill="#fff7a1" stroke="none" stroke-width="0"/><path d="M-44.53684,236.00595v-28.97133c0,0 1.80183,-3.66121 4.77209,-3.66121c1.18671,0 1.61151,-2.23974 3.83186,-1.74525c4.85792,1.08192 12.25185,5.40645 12.25185,5.40645v28.97133z" fill="#9a0000" stroke="none" stroke-width="0"/><path d="M113.20728,210.73158v-9.90232h11.66511v9.90232z" fill="#9a0000" stroke="none" stroke-width="0"/><path d="M282.72096,371.26673l-3.00719,-39.64026l21.27782,-5.00123c0,0 8.62955,-2.21833 11.47155,-0.56635c1.61318,0.9377 5.07515,-0.9583 7.71914,-0.5717c6.03602,0.88258 12.02066,3.13209 12.02066,3.13209l0.27338,57.13665c0,0 -25.32979,0 -34.99278,0c-3.58016,0 -3.3608,-6.43836 -6.2448,-10.22559c-2.62013,-3.44072 -8.51777,-4.2636 -8.51777,-4.2636z" fill="#9a0000" stroke="none" stroke-width="0"/><path d="M296.39,384.6624l1.09352,-9.02157h17.22301l-6.28777,16.94962z" fill="#9a0000" stroke="none" stroke-width="0"/><path d="M268.50514,362.51853v-16.94963h12.30215v16.94963z" fill="#9a0000" stroke="none" stroke-width="0"/><path d="M522.73114,134.98054v-9.5h32.5v9.5z" fill="#9a0000" stroke="none" stroke-width="0"/><path d="M503.74899,328.35546v-7.25h33v7.25z" fill="#9a0000" stroke="none" stroke-width="0"/><path d="M453.10614,377.85558v-5.5h27.25v5.5z" fill="#9a0000" stroke="none" stroke-width="0"/><path d="M406.23114,441.10558v-12.75h38.5v12.75z" fill="#9a0000" stroke="none" stroke-width="0"/><path d="M433.23114,432.60558v-33h14.5v33z" fill="#9a0000" stroke="none" stroke-width="0"/><path d="M437.23114,408.60558v-34.75h13.25v34.75z" fill="#9a0000" stroke="none" stroke-width="0"/><path d="M632.94855,240.5293v-24.75h16.25v24.75z" fill="#9a0000" stroke="none" stroke-width="0"/><path d="M631.69855,223.0293v-3.75h0.75v3.75z" fill="#9a0000" stroke="none" stroke-width="0"/><path d="M633.44855,250.2793v-13.5h12.75v13.5z" fill="#9a0000" stroke="none" stroke-width="0"/><path d="M622.69855,246.2793v-5.75h5.25v5.75z" fill="#9a0000" stroke="none" stroke-width="0"/><path d="M454.44859,393.35557v-5h26.5v5z" fill="#9a0000" stroke="none" stroke-width="0"/><path d="M307.82358,336.73057v-12h24.5v12z" fill="#9a0000" stroke="none" stroke-width="0"/><path d="M296.32358,330.48046l8,-9.75l11,6.5l1.5,3.5z" fill="#9a0000" stroke="none" stroke-width="0"/><path d="M122.88868,413.33131v-19.25h130.75v19.25z" fill="#9a0000" stroke="none" stroke-width="0"/><path d="M449.75257,364.48055c0,0 0,-7.08743 0,-8.9375c0,-0.83314 1.23584,-1.8125 2.0625,-1.8125c1.24623,0 4.6875,0 4.6875,0v10.75z" fill="#9a0000" stroke="none" stroke-width="0"/><path d="M457.09585,81.98441v-18.2h21v18.2z" fill="#9a0000" stroke="none" stroke-width="0"/><path d="M111.55991,188.53001v-4.8h25.2v4.8z" fill="none" stroke="#ffffff" stroke-width="5"/><path d="M393.68491,446.22501v-32.25h7.5v32.25z" fill="#9a0000" stroke="none" stroke-width="0"/><path d="M405.90991,432.68001l-5.8,-11c0,0 6.2731,4.79795 9.40772,3.79753c3.13204,-0.99959 9.39228,-4.99753 9.39228,-4.99753l3.8,10.8z" fill="#9a0000" stroke="none" stroke-width="0"/></g></g></svg>