<svg viewBox="0,0,101.04424,71.25" height="71.25" width="101.04424" version="1.1" xmlns:xlink="http://www.w3.org/1999/xlink" xmlns="http://www.w3.org/2000/svg"><g><g style="mix-blend-mode: normal" stroke-dashoffset="0" stroke-dasharray="" stroke-miterlimit="10" stroke-linejoin="miter" fill-rule="nonzero" data-paper-data="{&quot;isPaintingLayer&quot;:true}"><g><path transform="matrix(1,0,0,1,-189.47788,-144.375)" stroke="none" stroke-width="0" stroke-linecap="round" fill="#000000" d="M190.81498,215.375v-71h40.63512v71.25z"></path><path transform="matrix(1,0,0,1,-189.47788,-144.375)" stroke="none" stroke-width="0" stroke-linecap="butt" fill="#b2d2d0" d="M190.61677,213.025v-50.25h38.45469v50.25z"></path><path transform="matrix(1,0,0,1,-189.47788,-144.375)" stroke="none" stroke-width="0" stroke-linecap="butt" fill="#3a4443" d="M190.81498,160.275v-13h38.25647v13z"></path></g><g stroke-linecap="round"><path transform="matrix(1,0,0,1,-189.47788,-144.375)" stroke-width="0" stroke="none" fill="#c9e6e5" d="M229.38761,210.26389h-37.6875l-1.48354,-1.73353l0.20813,-40.11607l1.9629,-2.2129h37"></path><path stroke-width="1.5" stroke="#739595" fill="#c9e6e5" data-paper-data="{&quot;index&quot;:null}" d="M 39.9097 65.9861 L 2.9097 65.9861 L 0.75 63.8264"></path><g><path stroke-width="1.5" stroke="#739595" fill="#c9e6e5" d="M 0.75 23.9861 L 2.9097 21.8264 L 39.9097 21.8264"></path><path stroke-width="1.5" stroke="#b1d1cf" fill="none" d="M 27.7222 47.775 C 27.7222 47.775 27.2594 49.7066 27.9151 51.6235 C 28.4486 53.183 30.0606 54.7327 30.5257 55.2244 C 32.1408 56.9318 36.4722 57.025 36.4722 57.025 L 36.4722 61.15 L 4.0972 61.15 L 1.2956 58.3484 L 1.2932 48.011 Z"></path><path stroke-width="1.5" stroke="#b1d1cf" fill="none" data-paper-data="{&quot;index&quot;:null}" d="M 1.2763 32.6101 L 6.2448 27.275 L 36.9722 27.275 L 36.9722 31.986 C 36.9722 31.986 32.5936 32.0925 30.961 34.0424 C 30.4908 34.6039 28.8613 36.3738 28.322 38.1548 C 27.6591 40.344 28.127 42.55 28.127 42.55 L 1.0072 42.2764 Z"></path></g></g><g stroke-linecap="round"><path stroke-width="1.5" stroke="#739595" fill="#aed2cf" d="M 39.5 52.775 L 36 52.775 L 33 49.775 L 33 38.275 L 36.5 34.775 L 39.5 34.775 Z"></path><path stroke-width="1.5" stroke="#739595" fill="#aed2cf" d="M 39.4444 50.025 L 37.2222 50.025 L 35.7222 48.525 L 35.7222 40.525 L 37.4722 38.775 L 39.4722 38.775 Z"></path><path transform="matrix(1,0,0,1,-189.47788,-144.375)" stroke-width="0" stroke="none" fill="#f2ffff" d="M224.42511,184.55611h-1.2v-1.6l2.8,-3h2.3l-0.2,2.2h-0.9l-2.75,2.45"></path><path transform="matrix(1,0,0,1,-189.47788,-144.375)" stroke-width="0" stroke="none" fill="#9abbb9" d="M223.12509,193.85611l1.4875,-0.5l1.80625,1.6l1.80625,0.1v1.6h-2.125z"></path></g><g data-paper-data="{&quot;index&quot;:null}"><path transform="matrix(1,0,0,1,-189.47788,-144.375)" stroke="none" stroke-width="0" stroke-linecap="round" fill="#000000" d="M248.5499,215.625v-71.25h40.63512v71z"></path><path transform="matrix(1,0,0,1,-189.47788,-144.375)" stroke="none" stroke-width="0" stroke-linecap="butt" fill="#b2d2d0" d="M250.92855,213.025v-50.25h38.45469v50.25z"></path><path transform="matrix(1,0,0,1,-189.47788,-144.375)" stroke="none" stroke-width="0" stroke-linecap="butt" fill="#3a4443" d="M250.92855,160.275v-13h38.25647v13z"></path></g><g stroke-linecap="round" data-paper-data="{&quot;index&quot;:null}"><path transform="matrix(1,0,0,1,-189.47788,-144.375)" stroke-width="0" stroke="none" fill="#c9e6e5" d="M250.6124,166.20139h37l1.9629,2.2129l0.20813,40.11607l-1.48354,1.73353h-37.6875"></path><path stroke-width="1.5" stroke="#739595" fill="#c9e6e5" data-paper-data="{&quot;index&quot;:null}" d="M 100.2942 63.8264 L 98.1345 65.9861 L 61.1345 65.9861"></path><g><path stroke-width="1.5" stroke="#739595" fill="#c9e6e5" d="M 61.1345 21.8264 L 98.1345 21.8264 L 100.2942 23.9861"></path><path stroke-width="1.5" stroke="#b1d1cf" fill="none" d="M 99.7511 48.011 L 99.7486 58.3484 L 96.947 61.15 L 64.572 61.15 L 64.572 57.025 C 64.572 57.025 68.9035 56.9318 70.5185 55.2244 C 70.9836 54.7327 72.5957 53.183 73.1292 51.6235 C 73.7849 49.7066 73.322 47.775 73.322 47.775 Z"></path><path stroke-width="1.5" stroke="#b1d1cf" fill="none" data-paper-data="{&quot;index&quot;:null}" d="M 100.037 42.2764 L 72.9173 42.55 C 72.9173 42.55 73.3852 40.344 72.7223 38.1548 C 72.183 36.3738 70.5534 34.6039 70.0833 34.0424 C 68.4506 32.0925 64.072 31.986 64.072 31.986 L 64.072 27.275 L 94.7994 27.275 L 99.7679 32.6101 Z"></path></g></g><g stroke-linecap="round" data-paper-data="{&quot;index&quot;:null}"><path stroke-width="1.5" stroke="#739595" fill="#aed2cf" d="M 61.5443 34.775 L 64.5443 34.775 L 68.0443 38.275 L 68.0443 49.775 L 65.0443 52.775 L 61.5443 52.775 Z"></path><path stroke-width="1.5" stroke="#739595" fill="#aed2cf" d="M 61.572 38.775 L 63.572 38.775 L 65.322 40.525 L 65.322 48.525 L 63.822 50.025 L 61.5998 50.025 Z"></path><path transform="matrix(1,0,0,1,-189.47788,-144.375)" stroke-width="0" stroke="none" fill="#f2ffff" d="M255.52491,184.60611l-2.75,-2.45h-0.9l-0.2,-2.2h2.3l2.8,3v1.6h-1.2"></path><path transform="matrix(1,0,0,1,-189.47788,-144.375)" stroke-width="0" stroke="none" fill="#9abbb9" d="M253.89992,196.65611h-2.125v-1.6l1.80625,-0.1l1.80625,-1.6l1.4875,0.5z"></path></g></g></g></svg>