<svg version="1.1" xmlns="http://www.w3.org/2000/svg" xmlns:xlink="http://www.w3.org/1999/xlink" width="435.11056" height="372.56464" viewBox="0,0,435.11056,372.56464"><defs><linearGradient x1="321.43576" y1="283.5956" x2="321.43576" y2="323.28467" gradientUnits="userSpaceOnUse" id="color-1"><stop offset="0" stop-color="#3b3b3b"/><stop offset="1" stop-color="#3b3b3b" stop-opacity="0"/></linearGradient><linearGradient x1="321.43576" y1="283.5956" x2="321.43576" y2="323.28467" gradientUnits="userSpaceOnUse" id="color-2"><stop offset="0" stop-color="#3b3b3b" stop-opacity="0"/><stop offset="1" stop-color="#3b3b3b"/></linearGradient></defs><g transform="translate(-102.44477,19.18465)"><g stroke-miterlimit="10"><g stroke="none"><path d="M316.34142,3.45861c64.76663,-1.75111 91.27822,34.17279 97.87603,64.67466c1.18452,5.47607 9.60678,42.40367 10.85267,88.44234c0.36357,13.43477 -1.41718,48.91874 -5.51206,78.45141c-3.29595,23.77055 -8.78499,43.06879 -10.55989,48.62344c-4.95497,16.54476 -29.50486,16.88645 -35.0735,17.18691c-21.54777,1.16267 -26.83336,-4.39983 -29.46892,-7.25561c-8.13779,-8.8178 -7.15811,-23.73025 -8.54253,-32.86382c-0.36149,-2.38469 -0.80822,-4.18877 -1.54696,-5.18792c-1.26613,-1.71254 -3.8415,-1.48488 -4.37254,-0.83063c-0.33803,0.41644 -0.28432,5.20834 -0.41678,7.6502c-0.35099,6.47129 -0.25715,15.56691 -0.95371,23.4135c-0.84686,9.53945 -3.84401,16.67852 -6.45409,18.72944c-7.11017,5.58676 -24.94835,11.14774 -36.65153,11.37328c-18.13325,0.34953 -30.28321,-7.40088 -32.65676,-11.26796c-4.4904,-7.31579 -6.23416,-18.26824 -7.41692,-28.01024c-1.6635,-13.70146 -1.47586,-25.95851 -1.47586,-25.95851c0,0 -35.29921,6.52887 -42.33185,-19.9176c-1.57759,-5.93256 -4.48555,-21.26901 -5.27307,-39.74373c-0.91915,-21.56154 0.52826,-47.39769 2.3655,-67.54856c1.28708,-14.11709 2.6489,-25.4438 6.42071,-30.55562c4.66539,-6.32285 12.40275,-8.79043 19.88999,-10.63575c10.69056,-2.63481 20.87117,-3.00316 20.87117,-3.00316c0,0 0.06814,-41.513 26.52767,-63.4668c9.74672,-8.087 27.64046,-11.85957 43.90328,-12.29927z" fill="#020134" stroke-width="0"/><path d="M396.46018,78.6069c0,0.70941 2.15303,8.0553 12.68366,54.94685c8.25737,36.76908 -11.06531,134.88769 -13.45782,141.3563c-4.40395,11.90695 -20.18778,10.24728 -27.96496,9.91185c-3.55859,-0.15348 -6.60595,-0.96433 -8.69898,-2.71953c-3.80519,-3.19098 -5.19475,-8.76473 -5.99748,-13.95475c-1.23061,-7.95648 -0.33606,-15.76413 -0.33606,-15.76413c0,0 12.2435,-3.5281 19.37175,-7.9639c7.96735,-4.95797 10.66922,-9.29128 10.66922,-9.29128c0,0 -10.0142,2.4857 -21.86044,2.99486c-5.4132,0.23268 -11.90276,0.81889 -18.30185,0.37369c-8.34429,-0.58052 -16.53475,-2.24167 -21.98423,-1.86961c-5.83931,0.39868 -6.50594,3.85123 -6.65395,4.77028c-2.1606,13.41601 1.5823,37.81623 -1.75009,47.48405c-2.33988,6.78838 -9.13681,9.5346 -16.8409,10.75564c-11.17668,1.77143 -23.90878,-0.02105 -24.75987,-0.28947c-2.52496,-0.79631 -4.33791,0.19779 -6.76891,-6.63641c-3.95963,-11.13167 -4.26257,-39.37438 -4.88808,-64.99941c-0.89114,-36.50703 -3.53114,-72.84546 -1.91256,-106.04637c1.27599,-26.17347 6.65387,-52.82255 7.62034,-59.39847c5.44659,-37.05863 37.77029,-41.24575 68.15833,-41.24575c30.38806,0 63.67291,29.49778 63.67291,57.58553z" fill="#0c1390" stroke-width="0"/><path d="M396.46018,78.6069c0,0.70941 2.15303,8.05528 12.68366,54.94685c1.25633,5.59422 1.87423,6.84159 2.01045,14.73722c0.15249,8.83803 -8.80213,47.64944 -30.21686,60.00319c-26.67261,15.38692 -68.4356,8.2143 -86.67399,-6.8086c-40.89176,-33.68238 -21.21543,-161.41846 -18.0233,-164.71005c13.31127,-13.72603 35.398,-15.75416 56.54715,-15.75416c30.38804,0 63.67291,29.49777 63.67291,57.58553z" fill="#162ed0" stroke-width="0"/><g><path d="M305.22435,62.29259c12.8283,-13.10102 28.25947,-16.56892 33.56224,-17.02207c18.3298,-1.56643 47.40285,-1.29096 65.29788,2.67935c4.54538,1.00846 19.23565,7.19878 24.15807,17.67499c3.76739,8.018 17.95957,34.54648 -2.9561,58.77404c-22.07959,25.57578 -82.5409,20.01743 -99.82096,15.97413c-7.71031,-2.18388 -21.42869,-11.08208 -26.08567,-26.51293c-5.62725,-18.64588 -0.9243,-44.65481 5.84449,-51.56752z" fill="#10293a" stroke-width="0"/><g><path d="M312.80186,98.71667c0,-7.63094 -3.4957,-25.01636 12.70576,-32.99496c13.78567,-6.78891 46.72482,-4.92244 55.80893,-4.19982c10.20703,0.81193 21.50358,2.55394 28.769,6.72893c8.6353,4.96217 10.71289,28.5018 9.95196,32.50013c-6.39345,33.595 -69.89307,27.31746 -82.24305,24.12075c-13.36265,-3.45884 -24.9926,-12.03102 -24.9926,-26.15504z" fill="#4a7b9c" stroke-width="0"/><path d="M332.35802,94.80675c-16.98466,-8.72117 -4.96609,-29.91791 -4.57561,-30.06579c14.83816,-5.61908 44.91755,-3.90452 53.53413,-3.21908c10.20703,0.81193 21.50358,2.55394 28.769,6.72893c3.46692,1.99222 5.87681,6.97891 7.47036,12.49322c0.63094,2.18334 2.54643,18.54851 -8.21291,21.93527c-15.32139,4.82279 -43.68088,9.22822 -76.98498,-7.87254z" fill="#8cc5de" stroke-width="0"/><path d="M401.61617,66.07368c4.65671,1.70521 11.87623,4.98347 10.39325,10.93403c-3.13626,12.5845 -17.04524,5.48289 -26.72272,3.82569c-1.55985,-0.2671 -8.81132,-0.358 -13.23681,-2.8154c-2.84358,-1.57899 -3.76309,-5.46037 -3.76309,-6.60643c0,-4.31305 3.49641,-7.80946 7.80946,-7.80946c0.12512,0 6.40267,-0.27206 12.74176,0.17247c5.03364,0.35299 9.98696,1.27697 12.77815,2.29904z" fill="#ffffff" stroke-width="0.5"/></g></g><g stroke-width="0"><path d="M241.10642,97.90607c0.31583,0.15152 1.73963,1.54754 1.86061,4.35957c0.38918,9.04587 -1.25162,30.45443 -1.165,53.13356c0.14564,38.12605 0.92147,80.8511 0.92147,80.8511c0,0 -4.13752,0.58988 -9.04094,0.31063c-4.85554,-0.27654 -10.45734,-1.40056 -14.4974,-5.75457c-7.753,-8.35549 -8.22465,-28.41801 -8.22042,-43.31646c0.004,-14.0453 0.19478,-33.16762 0.5083,-50.20961c0.24064,-13.08099 -0.15099,-24.83566 3.77734,-32.73879c4.33306,-8.71739 22.78534,-8.10845 25.85602,-6.6354z" fill="#0c1390"/><path d="M241.10642,97.90607c0.31583,0.15152 1.73963,1.54754 1.86061,4.35957c0.11316,2.63016 0.05471,6.30548 -0.08301,10.75331c-0.02708,0.87406 -0.08968,2.70961 -0.08968,2.70961c0,0 -10.81379,-1.34952 -15.21539,-0.69348c-5.60702,0.8357 -15.69434,5.30044 -15.69434,5.30044c0,0 0.09376,-1.39565 0.1513,-2.07852c0.44399,-5.26938 1.33458,-9.93349 3.2145,-13.71553c4.33306,-8.71739 22.78534,-8.10845 25.85602,-6.6354z" fill="#162ed0"/></g></g><path d="M537.55513,169.78382c0.00012,0.08161 0.00019,0.16322 0.00019,0.24484c0,101.26214 -97.40281,183.35131 -217.55527,183.35131c-120.15245,0 -217.55527,-82.08918 -217.55527,-183.35131c0,-101.26214 97.40281,-183.35131 217.55527,-183.35131c110.39504,0 201.58533,69.29784 215.66817,159.09425" fill="none" stroke="none" stroke-width="0"/><path d="M537.53181,169.86345c-1.72702,101.60569 -98.45788,183.51652 -217.53178,183.51652c-120.15245,0 -217.55527,-83.40143 -217.55527,-186.28231v-0.00001c0,-102.88088 97.40281,-186.28231 217.55527,-186.28231c111.90019,0 204.06837,72.33853 216.20107,165.38057" fill="none" stroke="none" stroke-width="0"/><path d="M529.39158,197.09412c-16.80971,86.78647 -105.34358,152.98297 -212.03651,152.98297c-118.69165,0 -214.91024,-81.92268 -214.91024,-182.97943v-0.00001c0,-101.05675 96.21859,-182.97943 214.91024,-182.97943c109.52863,0 199.92012,69.76204 213.22383,159.94564" fill="none" stroke="none" stroke-width="0"/><path d="M437.05171,303.44011c0,10.95982 -51.76303,19.84453 -115.61596,19.84453c-63.85293,0 -115.61593,-8.88471 -115.61593,-19.84453c0,-10.95982 51.763,-19.84452 115.61593,-19.84452c63.85293,0 115.61596,8.88468 115.61596,19.84452z" fill="url(#color-1)" stroke="none" stroke-width="0"/><path d="M437.05171,303.44011c0,10.95982 -51.76303,19.84453 -115.61596,19.84453c-63.85293,0 -115.61593,-8.88471 -115.61593,-19.84453c0,-10.95982 51.763,-19.84452 115.61593,-19.84452c63.85293,0 115.61596,8.88468 115.61596,19.84452z" fill="url(#color-2)" stroke="none" stroke-width="0"/><path d="M537.55514,169.78384c0.00012,0.08161 0.00019,0.16322 0.00019,0.24484c0,101.26214 -97.40281,183.35131 -217.55527,183.35131c-120.15245,0 -217.55527,-82.08918 -217.55527,-183.35131c0,-101.26214 97.40281,-183.35131 217.55527,-183.35131c110.39504,0 201.58533,69.29784 215.66817,159.09425" fill="none" stroke="none" stroke-width="0"/><path d="M537.53185,169.86347c-1.72702,101.60569 -98.45788,183.51652 -217.53178,183.51652c-120.15245,0 -217.55527,-83.40143 -217.55527,-186.28231v-0.00001c0,-102.88088 97.40281,-186.28231 217.55527,-186.28231c111.90019,0 204.06837,72.33853 216.20107,165.38057" fill="none" stroke="none" stroke-width="0"/><path d="M529.39158,197.09414c-16.80971,86.78647 -105.34358,152.98297 -212.03651,152.98297c-118.69165,0 -214.91024,-81.92268 -214.91024,-182.97943v-0.00001c0,-101.05675 96.21859,-182.97943 214.91024,-182.97943c109.52863,0 199.92012,69.76204 213.22383,159.94564" fill="none" stroke="none" stroke-width="0"/><path d="M198.46984,117.68887c0.70933,-6.94122 12.26926,-25.35609 18.05063,-26.57321c7.25182,-1.5267 29.79952,-0.94068 29.79952,-0.94068v153.04311c0,0 -32.88513,11.6291 -43.32318,-22.2238c-10.43804,-33.8529 -6.03633,-88.53515 -4.52697,-103.30543z" fill="#5d0000" stroke="none" stroke-width="0"/><path d="M243.89585,181.84972c-1.14227,-35.79543 -1.93066,-56.99374 3.37045,-92.89659c5.30111,-35.90285 22.27407,-61.21199 22.27407,-61.21199c0,0 13.67204,-12.13156 29.91344,-12.13156c12.24978,0 25.61036,-1.1304 48.62538,1.33611c21.23174,2.27539 43.89567,31.90485 43.89567,31.90485c0,0 42.14581,37.84759 35.83782,57.35257c-3.1609,9.77384 -17.4254,25.82172 -17.4254,25.82172c0,0 0.52309,32.04197 -0.70212,65.87188c-0.79525,21.95826 -2.93052,43.24706 -4.37108,61.85478c-1.25256,16.1793 0.02729,25.67742 -2.78053,30.52648c-4.23372,7.31158 -43.68018,15.25817 -52.79399,1.34141c-2.58556,-3.94814 -5.0961,-24.0185 -0.42619,-32.84088c5.05048,-9.54136 17.42523,-7.71717 17.42523,-7.71717l-47.00707,-3.62676c0,0 -4.54946,6.86262 -5.3361,17.67187c-0.86538,11.89104 1.71374,28.1145 -5.80268,34.94589c-9.94932,9.04257 -32.48839,9.09738 -45.37488,8.28084c-5.69856,-0.36108 -10.04376,-5.21007 -10.8685,-12.70171c0,0 -6.98329,-67.70907 -8.45352,-113.78174z" fill="#5d0000" stroke="none" stroke-width="0"/><path d="M271.82508,22.82408c0,0 55.70175,-8.36769 74.77423,-7.11996c18.55855,1.21411 47.35077,19.6118 47.35077,19.6118l7.84617,91.80047c0,0 10.58006,52.6233 -13.26335,78.014c-23.84342,25.3907 -63.82418,20.79147 -86.96711,13.51334c-49.32858,-15.51316 -38.35826,-111.17844 -38.35826,-129.68534c0,-18.5069 8.61756,-66.13431 8.61756,-66.13431z" fill="#aa0000" stroke="none" stroke-width="0"/><path d="M201.7462,131.51209l4.60083,-36.05976h36.80658l-0.26853,28.14756c0,0 -14.34388,-5.53276 -22.56912,-3.91615c-8.22525,1.6166 -18.56975,11.82836 -18.56975,11.82836z" fill="#aa0000" stroke="none" stroke-width="0"/><path d="M246.31998,243.21809c0,0 -32.89949,6.10189 -38.91479,-13.40706c-6.01531,-19.50894 -11.32639,-44.45139 -10.6987,-62.74837c0.50904,-14.83847 -4.48256,-71.20318 19.81398,-75.94701c5.78977,-1.17649 29.79952,-0.94068 29.79952,-0.94068" fill="none" stroke="#490000" stroke-width="16"/><path d="M243.89585,181.84972c-1.14227,-35.79543 -1.93066,-56.99374 3.37045,-92.89659c7.19162,-48.70675 18.82285,-76.89707 68.05766,-76.87025c70.56001,0.03843 78.14787,21.24 85.46765,41.17603c9.54575,25.99865 9.59567,78.76592 9.59567,78.76592c0,0 0.52309,33.80532 -0.70212,67.63523c-0.79525,21.95826 -0.2855,37.95701 -1.72605,56.56474c-1.44056,18.60772 0.17142,22.34434 -7.1889,33.1715c-7.36033,10.82716 -41.11305,12.5004 -49.26729,1.34141c-6.56148,-8.97931 -4.68113,-26.60415 -4.15157,-33.86362c0.29784,-4.0829 -1.48234,11.25192 0.19868,8.07613c4.66991,-8.82238 9.49015,-13.88889 9.49015,-13.88889l-42.5987,-0.98174c0,0 0.7406,4.2176 -0.04606,15.02684c-0.86538,11.89103 1.71374,30.75952 -5.80268,37.59092c-7.51642,6.8314 -27.19834,6.45235 -40.08483,5.63582c-12.88649,-0.81654 -17.93637,-10.66057 -19.68525,-17.99176c-3.46977,-14.54503 -3.45658,-62.41903 -4.92681,-108.4917z" fill="none" stroke="#490000" stroke-width="16"/><path d="M381.42014,54.12789c30.85086,11.80948 52.70051,32.57023 46.39253,52.07523c-3.1609,9.77384 -17.4254,25.82172 -17.4254,25.82172c0,0 -56.37343,20.42131 -84.26845,3.10422c-15.5751,-9.66895 -37.16001,-43.90095 -23.25316,-63.68791c15.04756,-21.41002 62.52136,-23.45062 78.5545,-17.31325z" fill="#960000" stroke="none" stroke-width="0"/><path d="M321.61864,74.81473c5.26464,-17.5418 22.95738,-22.42476 40.10785,-22.42476c16.97457,0 34.05911,8.31796 34.05911,8.31796c0,0 29.61547,18.50618 18.96791,42.53149c-7.61775,17.18883 -53.65374,15.9636 -70.97002,8.93661c-17.31627,-7.02698 -27.4295,-19.81951 -22.16486,-37.36131z" fill="#db0000" stroke="none" stroke-width="0"/><path d="M393.41489,64.4741c23.0736,5.53817 16.20806,29.79717 2.23502,24.48427c-16.70521,-6.35174 -30.00772,-4.7322 -32.13467,-15.49716c-2.98593,-15.11241 13.46468,-12.93186 29.89965,-8.98712z" fill="#f10000" stroke="none" stroke-width="0"/><path d="M411.26894,132.9065c-22.12975,9.27471 -66.01801,16.92653 -94.84855,-0.42248c-16.71759,-10.05995 -23.05321,-42.1376 -9.14636,-61.92456c13.90684,-19.78696 45.67822,-18.79576 75.0278,-16.43157c46.692,3.76116 60.27199,65.65855 28.96711,78.77861z" fill="none" stroke="#6c0000" stroke-width="16"/></g></g></svg>