<svg version="1.1" xmlns="http://www.w3.org/2000/svg" xmlns:xlink="http://www.w3.org/1999/xlink" width="244" height="258" viewBox="0,0,244,258"><g transform="translate(-198,-51)"><g stroke="none" stroke-miterlimit="10"><path d="M198,309v-258h244v258z" fill="none" stroke-width="0"/><g><path d="M310.1754,243.5c28.55312,0 51.7,5.46213 51.7,12.2c0,6.73787 -23.14688,12.2 -51.7,12.2c-28.55312,0 -51.7,-5.46213 -51.7,-12.2c0,-6.73787 23.14688,-12.2 51.7,-12.2z" fill="#3a3a3a" stroke-width="0"/><path d="M317.27502,97.21358c31.10009,-0.84086 43.83061,16.40933 46.99879,31.05593c0.56879,2.62954 2.53305,18.76169 3.13131,40.86886c0.09828,3.63195 0.34903,22.49305 -3.34418,38.46614c-2.8668,12.39888 -7.04749,24.21246 -11.10333,27.05478c-8.11115,5.68428 -23.36405,4.07654 -26.08855,4.58818c-5.92155,1.11201 -13.01405,13.40089 -23.84978,13.79815c-8.70735,0.16784 -18.35978,-8.64471 -19.49953,-10.50163c-0.67032,-1.09209 -3.48231,-5.33028 -11.05306,-7.4705c-3.50639,-0.99124 -14.77677,-1.50088 -23.87325,-5.4611c-10.09031,-4.39288 -17.96665,-12.30725 -19.52453,-14.2451c-4.40633,-5.48103 1.01431,-6.85663 2.84102,-7.05688c10.88432,-1.19322 36.12205,6.66321 33.48514,-3.25297c-0.75754,-2.84874 -5.3539,-8.9331 -5.73206,-17.80442c-0.44136,-10.35357 0.25366,-22.75975 1.13588,-32.43594c0.61804,-6.77884 1.27197,-12.21778 3.08314,-14.67241c2.24026,-3.03615 5.95564,-4.22105 9.55091,-5.10715c5.13347,-1.2652 10.02206,-1.44208 10.02206,-1.44208c0,0 0.03272,-19.934 12.73824,-30.47593c4.68025,-3.88327 13.27259,-5.69481 21.08178,-5.90595z" fill="#020134" stroke-width="0"/><path d="M355.74699,133.29881c0,0.34065 -0.96614,-0.66528 4.09053,21.85143c0.3003,1.33722 0.92541,6.53215 0.78708,13.93465c-0.05557,2.97364 -0.19684,12.6626 -1.74053,24.26907c-1.78431,13.41561 -5.20511,28.99774 -8.70387,33.35053c-4.13169,5.14023 -25.06156,3.07742 -29.95052,6.68925c-5.16078,3.81264 -10.59335,11.65371 -16.52036,12.2434c-4.01958,0.39992 -9.26266,-1.62403 -13.37995,-5.24968c-3.88466,-3.42079 -6.61028,-8.3615 -11.46056,-10.97752c-9.22716,-4.9767 -21.60381,-3.6757 -24.7434,-4.92537c-8.51248,-3.38827 -15.27263,-9.55631 -14.47778,-9.76102c4.03793,-1.03996 18.34593,0.49197 26.5738,-0.45325c4.9425,-0.56779 11.33385,-5.17291 15.14847,-13.42883c6.62761,-14.34401 6.92098,-36.74777 7.41427,-46.86644c0.61271,-12.56816 3.1951,-25.3647 3.65919,-28.52237c2.61538,-17.79507 18.1368,-19.80567 32.72874,-19.80567c14.59195,0 30.5749,14.16445 30.5749,27.65182z" fill="#0c1390" stroke-width="0"/><path d="M355.74699,133.29881c0,0.34065 4.09053,24.78476 4.09053,24.78476c0,0 0.48494,1.97233 0.75459,4.45117c0.29939,2.75218 -0.55303,13.18756 -0.51861,15.18231c-0.20884,2.9723 -7.45458,11.36222 -10.69373,19.73635c-2.92427,7.56009 -1.47819,10.73159 -4.62443,14.5247c-3.59536,4.33457 -11.67885,3.61094 -15.41008,7.51043c-3.52111,3.67989 -6.45985,6.28581 -8.78159,6.28914c-0.3329,0.00048 -3.46264,1.06631 -3.56883,-2.15711c-0.0112,-0.33985 0.17174,-1.90948 0.65107,-2.44104c1.17478,-1.30279 2.45555,-2.81986 2.87632,-5.63124c0.75003,-5.01131 -0.89569,-7.5633 -3.9154,-11.16182c-3.90365,-4.65189 -9.33834,-6.33454 -11.38792,-8.08292c-19.63569,-16.17384 -8.73282,-81.51104 -7.2,-83.09162c6.3919,-6.59106 16.99766,-7.56494 27.1532,-7.56494c14.59194,0 30.5749,14.16444 30.5749,27.65182z" fill="#162ed0" stroke-width="0"/><g><path d="M311.93675,125.46489c6.15998,-6.29094 13.56983,-7.95618 16.11615,-8.17378c8.80173,-0.75218 22.76223,-0.6199 31.35519,1.28659c2.18263,0.48425 9.23671,3.45676 11.60039,8.4873c1.80905,3.85014 8.62395,16.58877 -1.41948,28.22253c-10.60233,12.28116 -39.63506,9.61211 -47.93272,7.67057c-3.70239,-1.04867 -10.28978,-5.32147 -12.526,-12.73116c-2.70213,-8.95351 -0.44384,-21.44266 2.80645,-24.76205z" fill="#10293a" stroke-width="0"/><g><path d="M315.57537,142.95526c0,-3.66428 -1.67859,-12.01253 6.10114,-15.84375c6.6197,-3.25995 22.43665,-2.36369 26.79872,-2.0167c4.90128,0.38988 10.32574,1.22637 13.8145,3.23114c4.14656,2.38277 5.14419,13.68619 4.7788,15.60614c-3.07005,16.13188 -33.56174,13.11749 -39.49204,11.58247c-6.41657,-1.66089 -12.00112,-5.77714 -12.00112,-12.55931z" fill="#4a7b9c" stroke-width="0"/><path d="M324.96599,141.07777c-8.15581,-4.18779 -2.38465,-14.36619 -2.19715,-14.4372c7.12509,-2.69821 21.56882,-1.8749 25.70639,-1.54576c4.90128,0.38988 10.32574,1.22637 13.8145,3.23114c1.66477,0.95664 2.82197,3.35118 3.58717,5.99908c0.30297,1.04841 1.22276,8.90675 -3.94373,10.53303c-7.35713,2.31584 -20.97499,4.43127 -36.96718,-3.78029z" fill="#8cc5de" stroke-width="0"/><path d="M358.22283,127.28052c2.23609,0.81882 5.70281,2.393 4.9907,5.25038c-1.50599,6.04291 -8.1849,2.63281 -12.8319,1.83705c-0.74902,-0.12826 -4.23108,-0.17191 -6.35614,-1.35192c-1.36545,-0.75821 -1.80699,-2.622 -1.80699,-3.17232c0,-2.07107 1.67893,-3.75 3.75,-3.75c0.06008,0 3.07448,-0.13064 6.11843,0.08282c2.41709,0.1695 4.79561,0.61318 6.1359,1.10397z" fill="#ffffff" stroke-width="0.5"/></g></g><g stroke-width="0"><path d="M281.14815,142.56602c0.15166,0.07276 0.83535,0.74311 0.89344,2.09341c0.18688,4.34371 -0.60101,14.62382 -0.55942,25.51404c0.03615,9.46335 -1.28187,21.51026 -3.86228,28.5913c-1.21957,3.3467 -6.67203,4.83359 -9.12778,1.52895c-2.40029,-3.23002 -1.8186,-11.17455 -1.8176,-14.71072c0.00192,-6.74437 0.09353,-15.92666 0.24408,-24.11c0.11555,-6.28132 -0.0725,-11.92576 1.81383,-15.72074c2.08068,-4.18598 10.94122,-3.89357 12.41572,-3.18623z" fill="#0c1390"/><path d="M281.14815,142.56602c0.15166,0.07276 0.83535,0.74311 0.89344,2.09341c0.05434,1.26297 0.02627,3.02781 -0.03986,5.1636c-0.013,0.41971 -0.04306,1.30112 -0.04306,1.30112c0,0 -5.19264,-0.64802 -7.30623,-0.333c-2.69242,0.40129 -7.53622,2.5452 -7.53622,2.5452c0,0 0.04502,-0.67017 0.07265,-0.99808c0.2132,-2.53029 0.64085,-4.76993 1.54356,-6.58602c2.08068,-4.18598 10.94122,-3.89357 12.41572,-3.18623z" fill="#162ed0"/></g></g></g></g></svg>