<svg viewBox="0,0,100.25,71.5" height="71.5" width="100.25" version="1.1" xmlns:xlink="http://www.w3.org/1999/xlink" xmlns="http://www.w3.org/2000/svg"><g><g style="mix-blend-mode: normal" stroke-dashoffset="0" stroke-dasharray="" stroke-miterlimit="10" stroke-linejoin="miter" fill-rule="nonzero" data-paper-data="{&quot;isPaintingLayer&quot;:true}"><g><path transform="matrix(1,0,0,1,-189.875,-144.25)" stroke="none" stroke-width="0" stroke-linecap="round" fill="#000000" d="M190.125,215.5v-71h51.25v71.25z"></path><path transform="matrix(1,0,0,1,-189.875,-144.25)" stroke="none" stroke-width="0" stroke-linecap="butt" fill="#b2d2d0" d="M189.875,213.15v-50.25h48.5v50.25z"></path><path transform="matrix(1,0,0,1,-189.875,-144.25)" stroke="none" stroke-width="0" stroke-linecap="butt" fill="#3a4443" d="M190.125,160.4v-13h48.25v13z"></path></g><g stroke-linecap="round"><path stroke-width="1.5" stroke="#739595" fill="#c9e6e5" d="M 48.4375 66.1389 L 10.75 66.1389 L 3.5625 58.9514 L 3.5625 29.9514 L 11.4375 22.0764 L 48.4375 22.0764"></path><path stroke-width="1.5" stroke="#b1d1cf" fill="none" d="M 36.25 48.025 C 36.25 48.025 35.7871 49.9566 36.4429 51.8735 C 36.9764 53.433 38.5884 54.9827 39.0535 55.4744 C 40.6686 57.1818 45 57.275 45 57.275 L 45 61.4 L 12.625 61.4 L 8.25 57.025 L 8.25 48.275 Z"></path><path stroke-width="1.5" stroke="#b1d1cf" fill="none" data-paper-data="{&quot;index&quot;:null}" d="M 8.35 42.5145 L 8.35 34.4215 L 14.7726 27.525 L 45.5 27.525 L 45.5 32.236 C 45.5 32.236 41.1214 32.3425 39.4888 34.2924 C 39.0186 34.8539 37.389 36.6238 36.8497 38.4048 C 36.1869 40.594 36.6548 42.8 36.6548 42.8 Z"></path></g><g stroke-linecap="round"><path stroke-width="1.5" stroke="#739595" fill="#aed2cf" d="M 48.0278 53.025 L 44.5278 53.025 L 41.5278 50.025 L 41.5278 38.525 L 45.0278 35.025 L 48.0278 35.025 Z"></path><path stroke-width="1.5" stroke="#739595" fill="#aed2cf" d="M 47.9722 50.275 L 45.75 50.275 L 44.25 48.775 L 44.25 40.775 L 46 39.025 L 48 39.025 Z"></path><path transform="matrix(1,0,0,1,-189.875,-144.25)" stroke-width="0" stroke="none" fill="#f2ffff" d="M233.35,184.68111h-1.2v-1.6l2.8,-3h2.3l-0.2,2.2h-0.9l-2.75,2.45"></path><path transform="matrix(1,0,0,1,-189.875,-144.25)" stroke-width="0" stroke="none" fill="#9abbb9" d="M232.05,193.98111l1.4875,-0.5l1.80625,1.6l1.80625,0.1v1.6h-2.125z"></path></g><g data-paper-data="{&quot;index&quot;:null}"><path transform="matrix(1,0,0,1,-189.875,-144.25)" stroke="none" stroke-width="0" stroke-linecap="round" fill="#000000" d="M238.625,215.5v-71.25h51.25v71z"></path><path transform="matrix(1,0,0,1,-189.875,-144.25)" stroke="none" stroke-width="0" stroke-linecap="butt" fill="#b2d2d0" d="M241.625,212.9v-50.25h48.5v50.25z"></path><path transform="matrix(1,0,0,1,-189.875,-144.25)" stroke="none" stroke-width="0" stroke-linecap="butt" fill="#3a4443" d="M241.625,160.15v-13h48.25v13z"></path></g><g stroke-linecap="round" data-paper-data="{&quot;index&quot;:null}"><path stroke-width="1.5" stroke="#739595" fill="#c9e6e5" d="M 51.8125 21.8264 L 88.8125 21.8264 L 96.6875 29.7014 L 96.6875 58.7014 L 89.5 65.8889 L 51.8125 65.8889"></path><path stroke-width="1.5" stroke="#b1d1cf" fill="none" d="M 92 48.025 L 92 56.775 L 87.625 61.15 L 55.25 61.15 L 55.25 57.025 C 55.25 57.025 59.5814 56.9318 61.1965 55.2244 C 61.6616 54.7327 63.2736 53.183 63.8071 51.6235 C 64.4629 49.7066 64 47.775 64 47.775 Z"></path><path stroke-width="1.5" stroke="#b1d1cf" fill="none" data-paper-data="{&quot;index&quot;:null}" d="M 63.5952 42.55 C 63.5952 42.55 64.0631 40.344 63.4003 38.1548 C 62.861 36.3738 61.2314 34.6039 60.7612 34.0424 C 59.1286 32.0925 54.75 31.986 54.75 31.986 L 54.75 27.275 L 85.4774 27.275 L 91.9 34.1715 L 91.9 42.2645 Z"></path></g><g stroke-linecap="round" data-paper-data="{&quot;index&quot;:null}"><path stroke-width="1.5" stroke="#739595" fill="#aed2cf" d="M 52.2222 34.775 L 55.2222 34.775 L 58.7222 38.275 L 58.7222 49.775 L 55.7222 52.775 L 52.2222 52.775 Z"></path><path stroke-width="1.5" stroke="#739595" fill="#aed2cf" d="M 52.25 38.775 L 54.25 38.775 L 56 40.525 L 56 48.525 L 54.5 50.025 L 52.2778 50.025 Z"></path><path transform="matrix(1,0,0,1,-189.875,-144.25)" stroke-width="0" stroke="none" fill="#f2ffff" d="M246.6,184.48111l-2.75,-2.45h-0.9l-0.2,-2.2h2.3l2.8,3v1.6h-1.2"></path><path transform="matrix(1,0,0,1,-189.875,-144.25)" stroke-width="0" stroke="none" fill="#9abbb9" d="M244.975,196.53111h-2.125v-1.6l1.80625,-0.1l1.80625,-1.6l1.4875,0.5z"></path></g></g></g></svg>