<svg viewBox="0,0,100.5339,71.25" height="71.25" width="100.5339" version="1.1" xmlns:xlink="http://www.w3.org/1999/xlink" xmlns="http://www.w3.org/2000/svg"><g><g style="mix-blend-mode: normal" stroke-dashoffset="0" stroke-dasharray="" stroke-miterlimit="10" stroke-linejoin="miter" fill-rule="nonzero" data-paper-data="{&quot;isPaintingLayer&quot;:true}"><g><path transform="matrix(1,0,0,1,-189.73305,-144.375)" stroke="none" stroke-width="0" stroke-linecap="round" fill="#000000" d="M190.95473,215.375v-71h23.05421v71.25z"></path><path transform="matrix(1,0,0,1,-189.73305,-144.375)" stroke="none" stroke-width="0" stroke-linecap="butt" fill="#b2d2d0" d="M190.84227,213.025v-50.25h21.81715v50.25z"></path><path transform="matrix(1,0,0,1,-189.73305,-144.375)" stroke="none" stroke-width="0" stroke-linecap="butt" fill="#3a4443" d="M190.95473,160.275v-13h21.70469v13z"></path></g><g stroke-linecap="round"><path transform="matrix(1,0,0,1,-189.73305,-144.375)" stroke-width="0" stroke="none" fill="#c9e6e5" d="M212.51786,210.26389h-21.88393v-44.0625h22.02677"></path><path stroke-width="1.5" stroke="#739595" fill="#c9e6e5" data-paper-data="{&quot;index&quot;:null}" d="M 0.9009 65.9861 L 22.2134 65.9861"></path><g><path stroke-width="1.5" stroke="#739595" fill="#c9e6e5" d="M 0.9009 21.8264 L 22.2134 21.8264"></path><path stroke-width="1.5" stroke="#b1d1cf" fill="none" d="M 10.0259 47.775 C 10.0259 47.775 9.563 49.7066 10.2188 51.6235 C 10.7523 53.183 12.3643 54.7327 12.8294 55.2244 C 14.4445 56.9318 18.7759 57.025 18.7759 57.025 L 18.7759 61.15 L 0.758 61.15 L 0.8993 47.8565 Z"></path><path stroke-width="1.5" stroke="#b1d1cf" fill="none" data-paper-data="{&quot;index&quot;:null}" d="M 0.9009 27.275 L 19.2759 27.275 L 19.2759 31.986 C 19.2759 31.986 14.8973 32.0925 13.2646 34.0424 C 12.7945 34.6039 11.1649 36.3738 10.6256 38.1548 C 9.9627 40.344 10.4306 42.55 10.4306 42.55 L 0.8981 42.4539 Z"></path></g></g><g stroke-linecap="round"><path stroke-width="1.5" stroke="#739595" fill="#aed2cf" d="M 22.2322 52.775 L 18.7322 52.775 L 15.7322 49.775 L 15.7322 38.275 L 19.2322 34.775 L 22.2322 34.775 Z"></path><path stroke-width="1.5" stroke="#739595" fill="#aed2cf" d="M 22.1767 50.025 L 19.9545 50.025 L 18.4545 48.525 L 18.4545 40.525 L 20.2045 38.775 L 22.2045 38.775 Z"></path><path transform="matrix(1,0,0,1,-189.73305,-144.375)" stroke-width="0" stroke="none" fill="#f2ffff" d="M207.41251,184.55611h-1.2v-1.6l2.8,-3h2.3l-0.2,2.2h-0.9l-2.75,2.45"></path><path transform="matrix(1,0,0,1,-189.73305,-144.375)" stroke-width="0" stroke="none" fill="#9abbb9" d="M206.11249,193.85611l1.4875,-0.5l1.80625,1.6l1.80625,0.1v1.6h-2.125z"></path></g><g data-paper-data="{&quot;index&quot;:null}"><path transform="matrix(1,0,0,1,-189.73305,-144.375)" stroke="none" stroke-width="0" stroke-linecap="round" fill="#000000" d="M265.99106,215.625v-71.25h23.05421v71z"></path><path transform="matrix(1,0,0,1,-189.73305,-144.375)" stroke="none" stroke-width="0" stroke-linecap="butt" fill="#b2d2d0" d="M267.34058,213.025v-50.25h21.81715v50.25z"></path><path transform="matrix(1,0,0,1,-189.73305,-144.375)" stroke="none" stroke-width="0" stroke-linecap="butt" fill="#3a4443" d="M267.34058,160.275v-13h21.70469v13z"></path></g><g stroke-linecap="round" data-paper-data="{&quot;index&quot;:null}"><path transform="matrix(1,0,0,1,-189.73305,-144.375)" stroke-width="0" stroke="none" fill="#c9e6e5" d="M267.3393,166.20139h22.02677v44.0625h-21.88393"></path><path stroke-width="1.5" stroke="#739595" fill="#c9e6e5" data-paper-data="{&quot;index&quot;:null}" d="M 99.633 65.9861 L 78.3205 65.9861"></path><g><path stroke-width="1.5" stroke="#739595" fill="#c9e6e5" d="M 78.3205 21.8264 L 99.633 21.8264"></path><path stroke-width="1.5" stroke="#b1d1cf" fill="none" d="M 99.6346 47.8565 L 99.7759 61.15 L 81.758 61.15 L 81.758 57.025 C 81.758 57.025 86.0895 56.9318 87.7045 55.2244 C 88.1696 54.7327 89.7816 53.183 90.3151 51.6235 C 90.9709 49.7066 90.508 47.775 90.508 47.775 Z"></path><path stroke-width="1.5" stroke="#b1d1cf" fill="none" data-paper-data="{&quot;index&quot;:null}" d="M 99.6358 42.4539 L 90.1033 42.55 C 90.1033 42.55 90.5712 40.344 89.9083 38.1548 C 89.369 36.3738 87.7394 34.6039 87.2692 34.0424 C 85.6366 32.0925 81.258 31.986 81.258 31.986 L 81.258 27.275 L 99.633 27.275 Z"></path></g></g><g stroke-linecap="round" data-paper-data="{&quot;index&quot;:null}"><path stroke-width="1.5" stroke="#739595" fill="#aed2cf" d="M 78.3017 34.775 L 81.3017 34.775 L 84.8017 38.275 L 84.8017 49.775 L 81.8017 52.775 L 78.3017 52.775 Z"></path><path stroke-width="1.5" stroke="#739595" fill="#aed2cf" d="M 78.3295 38.775 L 80.3295 38.775 L 82.0795 40.525 L 82.0795 48.525 L 80.5795 50.025 L 78.3572 50.025 Z"></path><path transform="matrix(1,0,0,1,-189.73305,-144.375)" stroke-width="0" stroke="none" fill="#f2ffff" d="M272.53749,184.60611l-2.75,-2.45h-0.9l-0.2,-2.2h2.3l2.8,3v1.6h-1.2"></path><path transform="matrix(1,0,0,1,-189.73305,-144.375)" stroke-width="0" stroke="none" fill="#9abbb9" d="M270.91251,196.65611h-2.125v-1.6l1.80625,-0.1l1.80625,-1.6l1.4875,0.5z"></path></g></g></g></svg>