<svg version="1.1" xmlns="http://www.w3.org/2000/svg" xmlns:xlink="http://www.w3.org/1999/xlink" width="247" height="247" viewBox="0,0,247,247"><g transform="translate(-196.49195,-56.40688)"><g stroke-miterlimit="10"><path d="M337.1227,165.95855c2.98706,0.49532 5.07139,-0.10279 8.1008,0.21973c0.90436,0.09628 5.66974,1.08924 6.11256,1.11262c1.73991,0.09189 3.06534,1.61961 4.99329,3.66467c0.51598,0.54732 0.83165,1.27778 1.50105,1.85303c2.29692,1.97385 6.26644,8.21547 5.48917,13.86204c-0.43386,3.15186 -4.40607,6.26754 -6.0097,7.99238c-3.81783,4.10637 -9.83553,7.54104 -12.71711,8.80138c-3.78491,1.65544 -7.40884,2.06706 -8.91233,2.20215c-1.7968,0.16144 -7.22516,0.17687 -11.81224,-1.05115c-3.6061,-0.9654 -6.52593,-3.08743 -7.88051,-3.87955c-1.47168,-0.86059 -2.99035,-1.55147 -4.33854,-2.54047c-0.37934,-0.27828 -0.7636,-0.96049 -1.16351,-1.01268c-1.59195,-0.20773 -3.2387,0.01778 -4.87423,-0.23877c-2.14669,-0.33673 -4.27405,-1.18915 -6.23277,-1.78647c-4.78914,-1.46047 -7.74715,-4.92894 -9.21366,-6.30036c-1.97894,-1.85062 -5.08039,-6.17285 -7.49875,-11.0893c-0.50654,-1.02976 -3.98977,-9.12956 -3.75996,-11.48051c0.23151,-2.36831 1.26254,-6.67226 3.73355,-10.73294c1.15183,-1.89282 3.1109,-3.73279 4.55094,-5.2992c4.27611,-4.6514 9.56344,-7.71698 11.06017,-8.14731c0.43528,-0.12515 3.77133,-0.63202 7.51766,-0.98916c2.57685,-0.24565 5.50348,0.53838 7.42556,0.81199c1.13325,0.16132 6.61485,2.89367 9.67226,6.41696c1.96697,2.26669 2.12479,4.79707 3.19435,6.87107c0.98697,1.91385 3.43082,7.08194 4.58154,7.97444c2.82904,2.1942 5.73037,2.64106 6.48041,2.76543z" fill="#db3116" stroke="none" stroke-width="0"/><path d="M291.54189,168.23446c-1.40963,-2.15078 -2.53703,-5.76331 -1.4526,-9.36608c1.03805,-3.44869 4.17775,-6.88376 7.74944,-9.22467c7.30297,-4.78641 16.55636,-2.26676 20.14955,1.25764c1.45921,1.43127 3.06923,3.74813 3.20872,6.29981c0.24101,4.40877 -2.57774,9.63052 -7.20346,12.66225c-7.30297,4.78641 -19.69267,2.58062 -22.45165,-1.62895z" fill="#fc553c" stroke="none" stroke-width="0"/><path d="M304.56361,155.39147c0,-2.37469 1.92507,-4.29975 4.29975,-4.29975c2.37469,0 4.29975,1.92507 4.29975,4.29975c0,2.37469 -1.92507,4.29975 -4.29975,4.29975c-2.37469,0 -4.29975,-1.92507 -4.29975,-4.29975z" fill="#ffffff" stroke="none" stroke-width="0"/><path d="M326.60026,187.40893c-0.77899,-1.0345 -2.07349,-2.2716 -2.43349,-3.6102c-0.94493,-3.51351 0.53249,-7.72639 4.62886,-10.81101c2.47338,-1.86248 5.74064,-3.44863 8.87075,-3.83161c1.73864,-0.21273 4.6658,-0.16162 6.81108,0.71585c2.82602,1.1559 4.72988,3.31114 5.09227,3.86666c1.16602,1.78746 1.5316,4.48516 1.56358,5.33656c0.06668,1.77485 -1.95533,6.18439 -5.78792,8.66994c-3.83915,2.48981 -9.49064,3.05387 -11.47822,2.77922c-2.90738,-0.40176 -6.07353,-1.5306 -7.26691,-3.11541z" fill="#fc553c" stroke="none" stroke-width="0"/><path d="M340.04171,204.57182c-0.30661,0.07109 2.62468,-0.81059 5.73589,-2.40034c0.92667,-0.47351 5.33985,-2.20194 8.77483,-5.44866c4.36924,-4.12976 8.28599,-9.33454 8.58988,-9.18881c0.67233,0.32241 -1.58094,6.70344 -5.72901,11.67873c-2.98692,3.58259 -7.83128,6.03858 -9.1568,6.84987c-3.34896,2.04974 -7.99676,3.99745 -12.12063,5.28218c-8.91898,2.77858 -18.1719,1.81448 -18.77942,1.81448c-1.84664,0 -7.19244,-1.43447 -11.62051,-3.15629c-1.8495,-0.71917 -9.14595,-5.32888 -14.24579,-10.48091c-1.60669,-1.62314 -4.7729,-5.30028 -7.09832,-9.90208c-0.76724,-1.5183 -0.99362,-3.13726 -1.6376,-4.81631c-0.60057,-1.56589 -1.43808,-3.23638 -1.97881,-4.91278c-1.40698,-4.36192 -2.25547,-8.76381 -2.50427,-11.46693c-0.1327,-1.44176 0.90014,-4.00003 0.88822,-4.13711c-0.08338,-0.95871 0.97671,9.39995 4.74583,15.72342c3.67014,6.1574 9.69609,11.41801 10.47841,11.98389c1.59381,1.15288 3.15949,1.91437 4.89172,2.56022c0.98041,0.36554 5.82377,1.86533 6.1508,1.93261c3.1552,0.64907 4.6823,0.07791 5.41323,0.38912c0.4238,0.18044 0.69132,0.87048 1.03726,1.18525c0.98425,0.89557 2.85854,1.57485 4.07357,2.19633c0.48029,0.24566 5.06849,3.93001 11.02457,4.92932c7.21334,1.21026 14.98,-1.05874 13.06694,-0.61521z" fill="#b52610" stroke="none" stroke-width="0"/><path d="M333.89482,211.88572c1.71247,-0.48745 5.91949,-1.80267 9.43145,-3.42731c1.5638,-0.72342 6.3491,-3.40461 9.74361,-6.00726c3.11392,-2.38751 4.8037,-5.11505 5.72207,-5.56682c0.33792,-0.16624 3.61693,-6.68144 3.70056,-6.53551c0.23581,0.41148 -0.69618,4.19335 -2.24351,7.45413c-1.11596,2.35173 -2.89638,4.43241 -3.16006,4.78215c-0.2916,0.38677 -2.63407,2.78824 -5.29068,5.06318c-2.47942,2.12321 -4.35046,4.13621 -4.51487,4.29827c-0.88026,0.86764 -4.76636,2.81175 -7.79509,4.11536c-2.61008,1.12341 -5.37205,1.66957 -5.83647,1.83436c-0.93305,0.33108 -6.72874,1.07108 -11.30227,1.00215c-3.27182,-0.04931 -5.97412,-0.62934 -6.08236,-0.62934c-0.20182,0 -2.29511,-0.01268 -5.03302,-0.89932c-1.70961,-0.55364 -3.61735,-1.76729 -5.63656,-2.54927c-5.43932,-2.10649 -11.05979,-4.8467 -12.06064,-5.52129c-0.21182,-0.14278 -1.60776,-1.31608 -1.94051,-1.51513c-0.85669,-0.51248 -1.89652,-1.69402 -3.02501,-2.69413c-1.16602,-1.03336 -2.49649,-2.38765 -3.40175,-3.42745c-0.53235,-0.61147 -0.97908,-1.32501 -1.46409,-1.96066c-1.873,-2.45477 -4.55972,-7.71875 -5.60648,-11.2678c-0.70637,-2.39495 -1.57038,-7.46553 -1.4124,-11.85749c0.17103,-4.75482 1.39787,-8.7513 1.43197,-8.71035c0.16103,0.1934 0.15948,0.6253 0.23272,0.92303c0.2035,0.82719 0.44724,1.93252 0.64814,3.10926c0.11806,0.6915 1.95883,8.15424 2.30589,8.85312c1.54583,3.11288 2.51235,7.20673 4.32687,10.21174c1.54289,2.55516 3.11089,5.33547 5.25091,7.63934c3.7957,4.08631 8.31279,7.1358 9.99134,8.06716c1.12768,0.62571 2.99548,2.27506 5.40854,3.25598c1.65937,0.67454 5.93605,2.39997 10.0247,2.89891c5.03312,0.61419 14.32852,-0.01147 17.58701,-0.93899z" fill="#911a08" stroke="none" stroke-width="0"/><path d="M357.66235,205.20555c-2.11338,2.12938 -4.50126,3.96568 -8.42446,7.32741c-2.99819,2.50119 -6.26943,4.43263 -10.40536,6.03299c-4.58703,1.77492 -3.79818,1.12299 -11.48482,2.3101c-6.87379,0.19579 -11.9587,0.00309 -18.09413,-2.27386c-5.0948,-1.89076 -15.57603,-6.2277 -21.58076,-11.58106c-2.55635,-2.27905 -6.20867,-5.97304 -8.7388,-11.12343c-2.48199,-5.05241 -3.8633,-11.55206 -4.19426,-14.8207c-0.70984,-7.01049 1.5797,-15.93852 4.0722,-22.06431c2.2286,-5.4772 6.06458,-10.26437 10.32068,-13.50875c6.15986,-4.6956 13.19973,-6.62431 17.52015,-6.62431c2.5454,0 6.00864,0.42367 8.81727,1.97319c1.99276,1.09941 5.99304,3.8065 8.31349,6.86108c3.84434,5.06059 5.82191,11.07492 6.61376,12.31254c0.66205,1.03474 1.63699,2.5297 4.90285,3.42915c3.42935,0.94447 8.93867,0.70466 12.36467,0.98499c4.04983,0.33139 9.06438,3.35875 12.27373,7.47298c4.33348,5.55533 5.42372,12.0105 5.43516,12.94209c0.10055,8.19095 -4.95381,17.57148 -7.71137,20.3499z" fill="none" stroke="#000000" stroke-width="4.5"/><path d="M196.49195,179.90688c0,-68.20717 55.29283,-123.5 123.5,-123.5c68.20717,0 123.5,55.29283 123.5,123.5c0,68.20717 -55.29283,123.5 -123.5,123.5c-68.20717,0 -123.5,-55.29283 -123.5,-123.5z" fill="none" stroke="none" stroke-width="0"/></g></g></svg>