<svg version="1.1" xmlns="http://www.w3.org/2000/svg" xmlns:xlink="http://www.w3.org/1999/xlink" width="593.07645" height="73.57777" viewBox="0,0,593.07645,73.57777"><g transform="translate(-43.94368,-143.58311)"><g stroke-miterlimit="10"><path d="M78.48136,196.9682c0,0 -13.29457,3.49604 -21.78404,-1.27252c-6.53064,-3.66828 -8.7814,-15.25124 -8.75338,-18.54372c0.02694,-3.16629 0.6801,-17.15879 7.76063,-21.93812c8.26868,-5.58133 23.14716,-1.76415 23.14716,-1.76415" fill="none" stroke="#000000" stroke-width="8" stroke-linecap="round"/><path d="M94.93639,180.90753c0,-4.70702 1.33114,-8.97491 3.82446,-12.09353c2.56668,-3.21037 6.36492,-5.20288 11.21043,-5.20288c9.55254,0 14.53233,7.49259 14.53233,17.04513c0,9.55254 -4.97979,17.54769 -14.53233,17.54769c-9.55254,0 -15.03489,-7.74385 -15.03489,-17.2964z" fill="none" stroke="#000000" stroke-width="8" stroke-linecap="butt"/><path d="M165.96491,180.90753c0,9.55254 -5.54314,17.2964 -12.38095,17.2964c-6.83781,0 -13.33333,-7.50577 -13.33333,-17.05831c0,-9.55254 6.49552,-17.5345 13.33333,-17.5345c6.83781,0 12.38095,7.74387 12.38095,17.29641z" fill="none" stroke="#000000" stroke-width="8" stroke-linecap="butt"/><path d="M169.06015,198.30828c0,0 -1.10151,-4.13195 -1.20749,-9.775c-0.1752,-9.32937 0.25511,-40.93928 0.25511,-40.93928" fill="none" stroke="#000000" stroke-width="8" stroke-linecap="round"/><path d="M188.28697,163.93865l0.33334,34.33334" fill="none" stroke="#000000" stroke-width="8" stroke-linecap="round"/><path d="M183.89808,150.6053c0,-2.51596 2.03959,-4.55555 4.55555,-4.55555c2.51596,0 4.55556,2.03959 4.55556,4.55555c0,2.51596 -2.0396,4.55556 -4.55556,4.55556c-2.51596,0 -4.55555,-2.03959 -4.55555,-4.55556z" fill="#000000" stroke="none" stroke-width="0.5" stroke-linecap="butt"/><path d="M207.84253,162.27199l0.22222,35.44444" fill="none" stroke="#000000" stroke-width="8" stroke-linecap="round"/><path d="M208.39808,174.71642c0,0 6.09065,-7.66427 11.7707,-9.65443c0.74584,-0.26132 10.79212,-2.09647 13.58146,4.10151c1.9018,4.22582 1.80209,10.19023 1.82357,15.66378c0.02926,7.45549 -0.28684,14.00026 -0.28684,14.00026" fill="none" stroke="#000000" stroke-width="8" stroke-linecap="round"/><path d="M281.28697,181.01864c0,9.32747 -5.92184,16.88889 -13.22682,16.88889c-7.30498,0 -13.22683,-7.56142 -13.22683,-16.88889c0,-9.32747 5.92185,-16.88889 13.22683,-16.88889c7.30498,0 13.22682,7.56142 13.22682,16.88889z" fill="none" stroke="#000000" stroke-width="8" stroke-linecap="butt"/><path d="M281.95364,163.93865c0,0 2.52123,37.94006 -2.17538,46.90815c-1.38903,2.65232 -8.0002,5.03808 -13.82792,4.91609c-5.21164,-0.10909 -9.77448,-2.60201 -9.77448,-2.60201" fill="none" stroke="#000000" stroke-width="8" stroke-linecap="round"/><path d="M303.17586,198.27198c0,0 0.22697,-13.38822 0.27535,-24.11087c0.04028,-8.92726 -0.24779,-15.01814 1.00455,-19.17157c0.68316,-2.26574 1.18644,-5.43381 4.47967,-6.83209c3.45235,-1.46584 8.9071,0.33675 8.9071,0.33675" fill="none" stroke="#000000" stroke-width="8" stroke-linecap="round"/><path d="M296.17586,164.82754l18.22222,-0.55555" fill="none" stroke="#000000" stroke-width="8" stroke-linecap="round"/><path d="M347.28697,194.49421c0,0 -6.72918,4.18122 -15.34249,3.85066c-5.13232,-0.19697 -6.51165,-5.8872 -6.4566,-7.08912c0.04224,-0.92214 0.15629,-6.56303 5.4515,-8.79536c6.27907,-2.6471 17.90315,-1.85507 17.90315,-1.85507" fill="none" stroke="#000000" stroke-width="8" stroke-linecap="round"/><path d="M329.6203,166.16087c0,0 5.24566,-2.49357 10.25043,-2.25267c4.35951,0.20984 8.45585,1.67044 9.77004,3.49102c3.39123,4.69794 2.2429,20.31231 1.22424,27.19297c-0.3236,2.18577 0.97751,4.45756 0.97751,4.45756" fill="none" stroke="#000000" stroke-width="8" stroke-linecap="round"/><path d="M370.17586,163.04976l1.11111,35.11111" fill="none" stroke="#000000" stroke-width="8" stroke-linecap="round"/><path d="M370.5092,175.16088c0,0 1.71553,-2.76116 4.25651,-5.17435c1.82139,-1.72979 4.39102,-3.11873 5.55666,-3.93392c2.87257,-2.00892 9.29794,-1.22507 9.29794,-1.22507" fill="none" stroke="#000000" stroke-width="8" stroke-linecap="round"/><path d="M445.95364,152.82754c0,0 -13.8734,-3.11747 -20.63684,0.15834c-1.36973,0.66341 -4.54614,4.23568 -4.69803,8.17065c-0.15735,4.07632 2.79289,8.55001 6.24403,11.05981c2.9427,2.14005 14.20665,4.67286 17.67733,9.46616c1.65544,2.28629 2.66992,12.13559 -3.0727,15.06788c-3.76264,1.92128 -9.79482,1.93296 -14.58551,1.32319c-4.15281,-0.52858 -8.26162,-2.24604 -8.26162,-2.24604" fill="none" stroke="#000000" stroke-width="8" stroke-linecap="round"/><path d="M456.54156,164.97857h20.45454" fill="none" stroke="#000000" stroke-width="8" stroke-linecap="round"/><path d="M476.54156,197.40282c0,0 -9.79069,4.57462 -11.97252,-3.56531c-1.45373,-5.42358 0.15434,-40.5256 0.15434,-40.5256" fill="none" stroke="#000000" stroke-width="8" stroke-linecap="round"/><path d="M518.75368,163.91797c0,0 -0.0618,4.91441 -0.08387,10.75726c-0.023,6.08704 -0.04167,13.20762 -1.87825,18.14613c-1.4089,3.78852 -6.38223,5.47883 -11.84155,5.61503c-5.14288,0.12831 -10.78527,-1.07138 -12.12821,-4.81327c-1.53171,-4.26786 -1.42702,-10.58672 -1.35471,-16.52535c0.08614,-7.07476 0.31689,-13.48283 0.31689,-13.48283" fill="none" stroke="#000000" stroke-width="8" stroke-linecap="round"/><path d="M520.11732,197.55433c0,0 -2.16275,-7.79192 -2.19805,-9.39225" fill="none" stroke="#000000" stroke-width="8" stroke-linecap="round"/><path d="M564.05671,181.01118c0,9.32747 -6.11877,16.88889 -13.66666,16.88889c-7.54789,0 -13.66667,-7.56142 -13.66667,-16.88889c0,-9.32747 6.11878,-16.88889 13.66667,-16.88889c7.54789,0 13.66666,7.56142 13.66666,16.88889z" fill="none" stroke="#000000" stroke-width="8" stroke-linecap="butt"/><path d="M565.20822,197.85736c0,0 -0.72497,-11.60487 -0.79282,-19.09059c-0.08124,-8.96369 0.33828,-31.06092 0.33828,-31.06092" fill="none" stroke="#000000" stroke-width="8" stroke-linecap="round"/><path d="M584.93682,198.89272l-0.33334,-34.33334" fill="none" stroke="#000000" stroke-width="8" stroke-linecap="round"/><path d="M580.21459,151.22605c0,-2.51596 2.03959,-4.55555 4.55555,-4.55555c2.51597,0 4.55556,2.03959 4.55556,4.55555c0,2.51596 -2.03959,4.55555 -4.55556,4.55555c-2.51597,0 -4.55555,-2.03959 -4.55555,-4.55555z" fill="#000000" stroke="none" stroke-width="0.5" stroke-linecap="butt"/><path d="M602.81879,180.90753c0,-8.66692 5.64417,-16.48243 14.31109,-16.48243c8.66692,0 15.89025,8.0129 15.89025,16.67983c0,8.66692 -7.02593,17.4694 -15.69285,17.4694c-8.66692,0 -14.50849,-8.99987 -14.50849,-17.6668z" fill="none" stroke="#000000" stroke-width="8" stroke-linecap="butt"/></g></g></svg>