<svg version="1.1" xmlns="http://www.w3.org/2000/svg" xmlns:xlink="http://www.w3.org/1999/xlink" width="225.59384" height="149.57166" viewBox="0,0,225.59384,149.57166"><defs><radialGradient cx="305.93433" cy="19.56732" r="105.44533" gradientUnits="userSpaceOnUse" id="color-1"><stop offset="0" stop-color="#ff7a00"/><stop offset="1" stop-color="#ff0000"/></radialGradient></defs><g transform="translate(-222.99851,94.91871)"><g stroke-miterlimit="10"><path d="M257.46939,-57.42989c23.49692,-8.77807 49.90435,-2.735 82.78002,-2.91722c17.4066,-2.57078 38.55418,-10.70125 66.38812,-0.66316c41.06162,22.89788 48.28001,82.414 19.77313,99.9023c-2.39818,1.47122 -49.06937,11.02592 -94.02904,10.75528c-73.11381,0.4749 -90.50378,-13.52492 -91.58566,-14.91731c-16.10093,-20.72197 -14.26783,-30.96852 -9.23891,-53.84958c3.43415,-15.62494 13.77291,-29.7194 25.91234,-38.3103z" fill="url(#color-1)" stroke="#330000" stroke-width="10" stroke-linecap="butt"/><path d="M320.0463,-50.96821c0,0 -1.75249,-15.52724 -1.06213,-22.57808c0.60836,-6.21336 4.98951,-17.53306 4.98951,-17.53306c0,0 5.8299,-1.59715 8.68656,-1.62447c4.89127,-0.04678 9.2296,1.35376 9.2296,1.35376c0,0 -1.54534,13.21117 -1.95714,19.40546c-0.45635,6.8641 -1.55863,20.97639 -1.55863,20.97639z" fill="#804d00" stroke="#332e00" stroke-width="7.5" stroke-linecap="butt"/><path d="M342.81088,-48.73719c0,1.31114 -6.82132,2.37402 -15.23582,2.37402c-8.41451,0 -15.23582,-1.06288 -15.23582,-2.37402c0,-1.31113 6.82132,-2.37402 15.23582,-2.37402c8.4145,0 15.23582,1.06289 15.23582,2.37402z" fill="none" stroke="#000000" stroke-width="10" stroke-linecap="butt"/><path d="M386.06512,-58.97017c5.43249,2.51339 15.52102,-4.40278 33.42039,18.0916c11.64191,15.24673 11.73104,38.13192 12.35627,41.05684c-1.02985,0.74733 -4.04647,-21.56476 -16.03771,-37.01987c-13.5977,-17.52564 -25.17257,-18.86474 -29.73895,-22.12857z" fill-opacity="0.50196" fill="#ffffff" stroke="none" stroke-width="0" stroke-linecap="butt"/><path d="M265.90466,-4.53562c0,-2.76143 2.00918,-5 4.48765,-5c2.47847,0 4.48765,2.23857 4.48765,5c0,2.76143 -2.00919,5 -4.48765,5c-2.47847,0 -4.48765,-2.23857 -4.48765,-5z" fill-opacity="0.50196" fill="#ffffff" stroke="none" stroke-width="0.5" stroke-linecap="butt"/><path d="M359.78682,10.97488c-4.48765,0 -4.93642,-4.5 -4.93642,-4.5c0,0 0.71026,-4.20892 2.89112,-5.49802c2.17631,-1.28641 4.9252,-2.15268 5.42893,-2.47711c0,0 4.01388,-2.23607 6.02082,2.23607c2.00694,4.47214 -2.00694,6.7082 -2.00694,6.7082c-1.17309,0.60572 -5.40285,3.53087 -7.39751,3.53087z" fill-opacity="0.50196" fill="#ffffff" stroke="none" stroke-width="0.5" stroke-linecap="butt"/><path d="M331.71343,10.47937c0,-2.07107 1.50689,-3.75 3.36574,-3.75c1.85885,0 3.36574,1.67893 3.36574,3.75c0,2.07107 -1.50689,3.75 -3.36574,3.75c-1.85885,0 -3.36574,-1.67893 -3.36574,-3.75z" fill-opacity="0.50196" fill="#ffffff" stroke="none" stroke-width="0.5" stroke-linecap="butt"/><path d="M283.19829,1.47039c0,-2.07107 1.50689,-3.75 3.36574,-3.75c1.85885,0 3.36574,1.67893 3.36574,3.75c0,2.07107 -1.50689,3.75 -3.36574,3.75c-1.85885,0 -3.36574,-1.67893 -3.36574,-3.75z" fill-opacity="0.50196" fill="#ffffff" stroke="none" stroke-width="0.5" stroke-linecap="butt"/><path d="M332.83871,-58.33816c-0.25644,-2.51559 -2.74922,-7.15375 -2.94863,-12.01911c-0.29292,-7.14701 1.14864,-14.17571 1.14864,-14.17571l4.32455,-2.59439c0,0 -0.79735,6.3618 -1.28513,11.95193c-0.74548,8.54319 -0.95152,19.01819 -1.23942,16.83728z" fill-opacity="0.50196" fill="#ffffff" stroke="none" stroke-width="0" stroke-linecap="butt"/><g><path d="M320.60794,-68.85068c-1.71853,8.98458 -10.88232,18.00373 -30.71522,13.29449c-19.8329,-4.70924 -42.8246,-24.44568 -41.10605,-33.43025c0.86925,-4.54449 30.18569,-1.81083 48.33712,2.55435c17.7344,4.2649 24.33344,13.1413 23.48415,17.58139z" fill="#198000" stroke="#0a3300" stroke-width="7.5" stroke-linecap="butt"/><path d="M276.07915,-77.4781c0,0 13.25159,0.93459 20.28386,3.88754c7.42818,3.1192 19.55041,7.20799 19.55041,7.20799" fill="none" stroke="#0a3300" stroke-width="5" stroke-linecap="round"/><path d="M254.20955,-85.87845c1.19519,-0.88465 12.23394,-2.13554 35.70411,2.21396c10.05647,1.86367 18.83584,5.75383 18.68967,6.51805c0,0 -11.02764,-0.05549 -28.0289,-3.84343c-13.15729,-2.93149 -26.02848,-2.98581 -26.36488,-4.88858z" fill-opacity="0.50196" fill="#ffffff" stroke="none" stroke-width="0" stroke-linecap="butt"/></g></g></g></svg>