<svg version="1.1" xmlns="http://www.w3.org/2000/svg" xmlns:xlink="http://www.w3.org/1999/xlink" width="493.50454" height="441.42149" viewBox="0,0,493.50454,441.42149"><g transform="translate(-73.2478,63.04152)"><g stroke="none" stroke-miterlimit="10"><path d="M566.75213,170.14431c0.00014,0.09256 0.00022,0.18512 0.00022,0.2777c0,114.85201 -110.47474,207.95796 -246.75225,207.95796c-136.2775,0 -246.75225,-93.10595 -246.75225,-207.95796c0,-114.85201 110.47475,-207.95796 246.75225,-207.95796c125.2106,0 228.63907,78.59795 244.6119,180.44548" fill="none" stroke-width="0"/><path d="M566.72566,170.23463c-1.9588,115.24167 -111.67141,208.14534 -246.72561,208.14534c-136.2775,0 -246.75225,-94.59431 -246.75225,-211.28231v-0.00001c0,-116.688 110.47475,-211.28231 246.75225,-211.28231c126.91774,0 231.45535,82.04672 245.21631,187.57545" fill="none" stroke-width="0"/><path d="M557.49295,201.11978c-19.06565,98.43364 -119.48121,173.51403 -240.49285,173.51403c-134.62065,0 -243.75225,-92.91711 -243.75225,-207.53617v-0.00001c0,-114.61906 109.1316,-207.53617 243.75225,-207.53617c124.22791,0 226.75038,79.12445 241.83951,181.41113" fill="none" stroke-width="0"/><g><path d="M424.22904,9.87249c0.20938,1.39978 5.77375,55.49323 6.82132,55.99526c1.31155,0.62852 -0.58161,37.90892 -3.01979,67.02628c-1.61327,25.43128 -16.15406,45.58034 -14.53009,47.9198c15.92903,6.60405 47.7878,44.96592 48.93116,73.19198c0.5971,14.74038 -10.90148,21.41691 -15.36309,25.26797c-6.8117,5.87952 -14.62995,9.14076 -21.6843,11.1813c-13.075,3.78208 -24.12632,2.76999 -25.51472,2.22852c-17.17741,-7.41598 -23.23395,-33.00454 -37.65428,-49.17278c-14.50261,-16.2605 -37.32641,-23.07756 -39.53992,-22.23127c-5.56735,2.12858 -44.53641,26.70739 -48.18352,27.31699c-47.89254,8.00505 -70.52292,-21.9501 -75.77524,-27.07888c-7.21476,-7.04501 -10.14058,-11.58804 -11.41075,-15.60644c-1.69223,-5.3536 -0.25461,-9.0115 -0.25461,-9.0115c0,0 -12.10564,-7.09206 -10.32673,-76.49917c0.48556,-18.94434 0.67209,-39.94065 5.49377,-68.45906c2.08487,-9.08174 1.65421,-18.63237 18.02875,-27.0166c13.44841,-6.886 34.74322,-7.88461 34.74322,-7.88461c0,0 3.40212,-17.14359 8.83713,-35.45044c7.79567,-24.2656 36.92585,-44.63136 72.8574,-44.63136c42.13189,0 99.64402,20.10045 107.54433,72.91405z" fill="#020134" stroke-width="0"/><path d="M286.52405,-35.09486c77.85365,-27.39612 120.0766,32.51851 120.0766,55.37515c0,12.91113 14.30381,121.62366 -11.50788,152.38584c-1.55724,1.85587 -3.3132,3.93968 -4.85522,5.60471c-1.48071,1.59884 -2.78683,2.78882 -2.45386,4.09641c0.52812,2.07384 8.63804,5.18988 16.2774,11.01451c9.38049,7.15217 19.23536,17.94429 27.95278,30.47533c8.558,13.6135 10.39615,23.06953 11.25807,30.16823c2.0188,16.62677 -26.78217,23.37216 -29.57243,23.49395c-4.23176,0.18471 -7.03176,0.3321 -11.27743,-0.61602c-15.78918,-3.52593 -18.01168,-38.11502 -31.5731,-50.38431c-4.93496,-4.46477 -16.44528,-10.51371 -28.58071,-15.39108c-13.90797,-5.58976 -28.2715,-9.73202 -28.2924,-9.7388c-18.84564,-6.1053 -42.42598,-15.5919 -51.18553,-28.12608c-10.57745,-15.13546 -14.34103,-34.601 -15.95864,-52.40157c-0.86998,-9.57342 -0.45057,-28.45018 0.72744,-49.86423c1.33069,-24.18958 3.87076,-51.61683 11.12442,-72.52907c8.2145,-23.68235 20.13918,-30.85289 27.84051,-33.56292z" fill="#0c1390" stroke-width="0"/><path d="M286.52405,-35.09486c77.85365,-27.39612 120.0766,32.51851 120.0766,55.37515c0,7.26042 4.52322,44.81554 3.89254,81.76799c-0.14092,8.25648 -21.25565,58.17857 -82.09892,48.38715c-17.09983,-2.75184 -43.71964,-14.17657 -52.60219,-38.4219c-18.60559,-50.78487 -7.48367,-132.99691 -5.48844,-135.41234c5.79397,-7.01418 11.72629,-10.11457 16.22042,-11.69602z" fill="#162ed0" stroke-width="0"/><g><path d="M298.14482,12.27884c14.81134,-15.12623 32.62793,-19.1302 38.75042,-19.65341c21.16329,-1.80857 54.73056,-1.49052 75.39187,3.09354c5.24802,1.16436 22.20918,8.3116 27.89252,20.40726c4.34976,9.25746 20.73583,39.88681 -3.41306,67.85957c-25.49273,29.52939 -95.30038,23.1118 -115.25166,18.44347c-8.9022,-2.52147 -24.74123,-12.79519 -30.1181,-30.61139c-6.49712,-21.52823 -1.06719,-51.55773 6.74796,-59.53902z" fill="#10293a" stroke-width="0"/><g><path d="M306.89367,54.3335c0,-8.81056 -4.03608,-28.88348 14.66987,-38.09545c15.91672,-7.83837 53.94773,-5.68337 64.43609,-4.84905c11.78487,0.93745 24.82769,2.94874 33.21622,7.7691c9.97018,5.72924 12.36893,32.90771 11.49037,37.52413c-7.38177,38.78825 -80.6974,31.54031 -94.9565,27.84943c-15.4283,-3.99352 -28.85606,-13.89083 -28.85606,-30.19819z" fill="#4a7b9c" stroke-width="0"/><path d="M329.47292,49.81918c-19.61021,-10.06932 -5.73376,-34.54273 -5.28293,-34.71348c17.1319,-6.4877 51.86108,-4.50809 61.80964,-3.71669c11.78487,0.93745 24.82769,2.94874 33.21622,7.7691c4.00285,2.30019 6.78528,8.05774 8.62516,14.42447c0.72848,2.52085 2.94006,21.4158 -9.48249,25.32611c-17.68982,5.56831 -50.43324,10.65475 -88.8856,-9.08951z" fill="#8cc5de" stroke-width="0"/><path d="M409.43723,16.64442c5.37656,1.96881 13.7121,5.75385 11.99987,12.62426c-3.62107,14.52985 -19.68016,6.33044 -30.85362,4.41709c-1.80098,-0.30839 -10.1734,-0.41335 -15.28299,-3.25062c-3.28315,-1.82307 -4.34482,-6.30446 -4.34482,-7.62767c0,-4.97977 4.0369,-9.01667 9.01668,-9.01667c0.14446,0 7.39243,-0.31412 14.71144,0.19914c5.81176,0.40756 11.53079,1.47436 14.75345,2.65444z" fill="#ffffff" stroke-width="0.5"/></g></g><path d="M294.07934,213.01658c0,0 -0.26233,1.36523 -1.5859,2.72367c-0.81453,0.836 -2.23699,1.46336 -3.63576,2.38023c-3.80484,2.49401 -9.81445,4.74963 -14.46035,7.64622c-6.54666,4.08167 -11.87782,8.45548 -14.30032,8.02457c-2.85213,-0.50732 -18.51058,-3.1076 -31.54588,-10.72962c-11.98703,-7.00906 -21.55105,-19.03262 -21.41013,-20.6618c0.39774,-4.59841 6.30143,-9.05733 10.50397,-12.81207c5.32996,-4.762 9.33627,-8.39135 11.43143,-9.73596c1.15646,-0.74218 12.61652,4.1779 24.98105,11.42432c7.91453,4.63842 15.80811,11.01301 22.89016,14.89995c11.98687,6.57888 17.13175,6.84051 17.13175,6.84051z" fill="#0c1390" stroke-width="0"/><path d="M231.72957,38.23818c0,0 -2.39636,13.9568 -3.09293,34.13309c-0.82853,23.99861 0.05997,55.2833 0.6611,61.25912c1.48456,14.75815 5.74833,27.31747 5.74833,27.31747c0,0 -12.70986,0.5077 -19.75318,4.76877c-9.28645,5.61811 -13.61998,15.31212 -14.55332,14.68537c-1.04504,-0.70179 -4.74628,-13.08088 -6.08277,-36.94261c-0.9172,-16.37579 -0.75343,-36.49329 -0.37031,-54.15393c0.37394,-17.23697 0.92538,-32.13353 3.41321,-38.92662c5.96498,-16.28746 34.02992,-12.14068 34.02992,-12.14068z" fill="#0c1390" stroke-width="0"/><path d="M231.72957,38.23818c0,0 -0.89382,5.20578 -1.74839,13.85479c-0.20253,2.04984 -0.58856,6.70621 -0.58856,6.70621c0,0 -10.79582,-2.1702 -18.40779,-0.7428c-7.72635,1.44882 -15.67141,6.41454 -15.67141,6.41454c0,0 0.32689,-3.6028 0.52929,-5.2232c0.45792,-3.66567 1.05745,-6.68571 1.85695,-8.86883c5.96498,-16.28746 34.02991,-12.14068 34.02991,-12.14068z" fill="#162ed0" stroke-width="0"/></g></g></g></svg>