<svg version="1.1" xmlns="http://www.w3.org/2000/svg" xmlns:xlink="http://www.w3.org/1999/xlink" width="338.25344" height="202.95545" viewBox="0,0,338.25344,202.95545"><g transform="translate(-150.87327,-78.52227)"><g stroke-miterlimit="10"><g><path d="M292.57485,271.16129l0.5144,-122.42674l140.68787,-14.40315l-5.14398,105.4516z" fill="#de9659" stroke="none" stroke-width="0" stroke-linecap="butt"/><path d="M426.72279,124.4935c0,0 -2.01808,-10.4886 -1.57336,-18.13436c0.14239,-2.44795 -1.21277,-8.60449 -0.41839,-10.03206c2.2099,-3.97141 8.23848,-6.22626 8.23848,-6.22626l14.18194,2.25l-6.68717,33.69307z" fill="#e9d092" stroke="none" stroke-width="0" stroke-linecap="butt"/><path d="M451.00945,120.07116v-14.66034l19.80433,6.17278l0.7716,8.48757z" fill="#69371f" stroke="none" stroke-width="0" stroke-linecap="butt"/><path d="M290.77445,269.87529l1.0288,-20.31872c0,0 8.14255,7.4878 14.45913,8.7134c9.54486,1.85199 36.20908,3.11775 36.20908,3.11775l-29.06349,8.48757z" fill="#b55e36" stroke="none" stroke-width="0" stroke-linecap="butt"/><path d="M331.4119,203.77513c0,0 -7.11752,-15.17183 -11.99441,-23.04681c-5.50601,-8.89086 -19.38387,-27.6214 -19.38387,-27.6214l129.37111,16.46074v25.2055c0,0 -15.27975,-3.12959 -30.82779,-0.55375c-7.26203,1.2031 -15.38695,8.67811 -20.57794,9.15497c-16.35916,1.50281 -46.58709,0.40074 -46.58709,0.40074z" fill="#b55e36" stroke="none" stroke-width="0" stroke-linecap="butt"/><path d="M345.81504,183.39927l-32.92148,-36.52226l123.45553,-16.46074l26.7487,28.29189c0,0 -8.80278,3.73906 -9.97515,3.93445c-8.4693,1.41155 -107.30761,20.75666 -107.30761,20.75666z" fill="#e9d092" stroke="none" stroke-width="0" stroke-linecap="butt"/><path d="M196.76821,236.15172l3.60079,-105.4516l93.62045,17.48953l-7.71597,121.91234z" fill="#bc6332" stroke="none" stroke-width="0" stroke-linecap="butt"/><path d="M198.8258,210.26035c0,0 -4.54294,-17.29435 -4.6532,-28.47454c-0.15798,-16.01937 3.79587,-58.45874 3.79587,-58.45874c0,0 -26.41531,-29.29614 -24.88037,-28.93927c6.27519,1.45894 47.8388,-7.82466 72.46151,3.47988c27.9909,12.85092 39.30149,46.49403 45.26241,48.73642c3.59698,1.35312 0.2625,10.50178 0.2625,10.50178c0,0 -28.25481,21.97256 -27.72825,23.26823c2.06625,5.08424 6.94395,8.6534 6.75011,12.06986c-0.51948,9.15584 -11.77187,22.61742 -11.77187,22.61742c0,0 -25.0508,-4.39083 -36.11706,-7.58855c-7.59591,-2.19492 -0.16977,-3.8277 -7.30435,-3.0925c-5.4723,0.5639 -8.49031,8.01353 -10.58825,8.1436c-2.56836,0.15923 -5.48905,-2.26359 -5.48905,-2.26359z" fill="#a94b23" stroke="none" stroke-width="0" stroke-linecap="butt"/><path d="M216.05814,206.95964c0,0 -26.3455,-23.00275 -28.29189,-24.69111c-0.41814,-0.36271 9.77356,-12.85995 9.77356,-12.85995l-1.54319,-41.15184c0,0 -40.1247,-44.43828 -38.57985,-43.20944c0.72095,0.57347 30.786,7.85066 45.78051,10.29359c15.50907,2.52676 47.32554,2.05196 47.32554,2.05196l41.66624,47.32462l17.48953,3.60079c0,0 10.96753,7.36321 15.22472,12.30905c6.45835,7.50308 19.75435,28.32839 19.75435,28.32839l40.63745,-10.28796" fill="none" stroke="#311108" stroke-width="13" stroke-linecap="round"/><path d="M308.13539,144.20308l128.59951,-15.94634l36.00786,37.03666l-69.44374,9.25916" fill="none" stroke="#311108" stroke-width="13" stroke-linecap="round"/><path d="M437.2493,91.22008l18.51833,10.80236c0,0 -9.24041,8.2031 -12.06584,12.31281c-2.83293,4.12063 -4.90929,12.3783 -4.90929,12.3783" fill="none" stroke="#311108" stroke-width="13" stroke-linecap="round"/><path d="M433.64851,175.58135c0,0 0.64533,66.61059 0,66.35735c-86.68188,22.93954 -136.49553,34.3373 -143.51706,32.92148c-21.80845,-1.16216 -94.13484,-39.60865 -94.13484,-39.60865l1.0288,-22.11912l-5.14398,-8.74477l2.05759,-4.62958" fill="none" stroke="#311108" stroke-width="13" stroke-linecap="round"/><path d="M293.73224,149.34706l-4.62958,118.31155" fill="none" stroke="#311108" stroke-width="9" stroke-linecap="round"/><path d="M287.55947,144.71747l-90.53406,-22.63351" fill="none" stroke="#311108" stroke-width="9" stroke-linecap="round"/><path d="M461.42601,102.02244l17.48953,22.63351l-31.89268,-4.11518" fill="none" stroke="#311108" stroke-width="9" stroke-linecap="round"/><path d="M389.41028,177.63894l-5.65838,-15.43194l16.97514,14.40315" fill="none" stroke="#311108" stroke-width="9" stroke-linecap="round"/></g></g></g></svg>