<svg version="1.1" xmlns="http://www.w3.org/2000/svg" xmlns:xlink="http://www.w3.org/1999/xlink" width="498.5043" height="427.5645" viewBox="0,0,498.5043,427.5645"><g transform="translate(-73.24805,44.18449)"><g stroke-miterlimit="10"><path d="M571.75213,175.14436c0.00014,0.09256 0.00022,0.18512 0.00022,0.2777c0,114.85201 -110.47474,207.95796 -246.75225,207.95796c-136.2775,0 -246.75225,-93.10595 -246.75225,-207.95796c0,-114.85201 110.47475,-207.95796 246.75225,-207.95796c125.2106,0 228.63907,78.59795 244.6119,180.44548" fill="none" stroke="none" stroke-width="0"/><path d="M571.72572,175.23468c-1.9588,115.24167 -111.67141,208.14534 -246.72561,208.14534c-136.2775,0 -246.75225,-94.59431 -246.75225,-211.28231v-0.00001c0,-116.688 110.47475,-211.28231 246.75225,-211.28231c126.91774,0 231.45535,82.04672 245.21631,187.57545" fill="none" stroke="none" stroke-width="0"/><path d="M562.49298,206.11984c-19.06565,98.43364 -119.48121,173.51403 -240.49285,173.51403c-134.62065,0 -243.75225,-92.91711 -243.75225,-207.53617v-0.00001c0,-114.61906 109.1316,-207.53617 243.75225,-207.53617c124.22791,0 226.75038,79.12445 241.83951,181.41113" fill="none" stroke="none" stroke-width="0"/><path d="M566.75232,170.14451c0.00014,0.09256 0.00022,0.18512 0.00022,0.2777c0,114.85201 -110.47474,207.95796 -246.75225,207.95796c-136.2775,0 -246.75225,-93.10595 -246.75225,-207.95796c0,-114.85201 110.47475,-207.95796 246.75225,-207.95796c125.2106,0 228.63907,78.59795 244.6119,180.44548" fill="none" stroke="none" stroke-width="0"/><path d="M566.72592,170.23481c-1.9588,115.24167 -111.67141,208.14534 -246.72561,208.14534c-136.2775,0 -246.75225,-94.59431 -246.75225,-211.28231v-0.00001c0,-116.688 110.47475,-211.28231 246.75225,-211.28231c126.91774,0 231.45535,82.04672 245.21631,187.57545" fill="none" stroke="none" stroke-width="0"/><path d="M557.49319,201.12c-19.06565,98.43364 -119.48121,173.51403 -240.49285,173.51403c-134.62065,0 -243.75225,-92.91711 -243.75225,-207.53617v-0.00001c0,-114.61906 109.1316,-207.53617 243.75225,-207.53617c124.22791,0 226.75038,79.12445 241.83951,181.41113" fill="none" stroke="none" stroke-width="0"/><path d="M427.84197,91.09201c0.94022,9.56988 31.59624,97.23979 -20.68254,161.74386c-0.64204,0.79217 0.12526,11.7075 1.5828,24.20965c1.70643,14.63686 3.82834,31.44868 -2.24544,36.73726c-6.71771,5.84925 -17.37192,7.51806 -25.82191,8.50741c-7.83355,0.91719 -28.77012,0.33675 -37.30216,-1.81445c-2.01477,-0.508 -3.73365,-9.10457 -5.72673,-9.7501c-1.75547,-0.56858 -6.93762,18.00532 -57.91769,16.21546c-10.56948,-0.37107 -31.28563,-5.80832 -38.29052,-19.20342c-7.79673,-14.90932 -6.53463,-28.48592 -3.03012,-38.66438c0.31353,-0.9106 -0.43562,-2.38121 -2.69103,-2.8808c-6.62871,-1.46834 -21.0324,0.82751 -35.67797,-9.38085c-3.22945,-1.71458 -11.22641,-15.83192 -13.99775,-34.84862c-2.07212,-14.21874 -3.02564,-40.57652 -1.55139,-66.75334c1.45854,-25.89759 5.32675,-51.66578 6.67343,-56.51893c4.64125,-16.72603 15.2575,-21.46915 27.88132,-23.78883c13.18512,-2.42283 28.29441,-2.03829 28.29441,-2.03829c0,0 6.69244,-21.30592 32.43309,-33.80252c12.97358,-6.29843 39.51198,-8.17755 54.80671,-8.37922c61.13105,3.15753 90.40045,31.269 93.26349,60.4101z" fill="#ff0000" stroke="#ff0000" stroke-width="20"/><path d="M303.24136,91.25002c14.54992,-11.95601 32.05203,-15.12084 38.06646,-15.53438c20.78975,-1.42953 53.76454,-1.17812 74.06118,2.44517c5.15539,0.92033 21.81717,6.56962 27.4002,16.13022c4.27299,7.31724 20.36983,31.52717 -3.35282,53.6373c-25.04278,23.3405 -93.61829,18.26795 -113.21742,14.57802c-8.74507,-1.99301 -24.30453,-10.11352 -29.5865,-24.19574c-6.38245,-17.01628 -1.04835,-40.75206 6.62885,-47.0606z" fill="#ff0000" stroke="#ff0000" stroke-width="20"/></g></g></svg>