<svg version="1.1" xmlns="http://www.w3.org/2000/svg" xmlns:xlink="http://www.w3.org/1999/xlink" width="252.5" height="152" viewBox="0,0,252.5,152"><g transform="translate(-193.75,-104)"><g stroke-miterlimit="10"><path d="M195,243c0,-22.83707 0,-115.52599 0,-127.5c0,-5.14874 6.00302,-10.25 13.0488,-10.25c25.46865,0 178.22902,0 224,0c8.18719,0 12.9512,3.94802 12.9512,10.25c0,21.55744 0,114.15965 0,127c0,5.99838 -4.18639,12.25 -11.4512,12.25c-43.36312,0 -196.40437,0 -223.5,0c-8.00628,0 -15.0488,-4.57406 -15.0488,-11.75z" fill="#000000" stroke="#ffffff" stroke-width="2.5"/><path d="M200,240c0,-22.83707 0,-110.02599 0,-122c0,-5.14874 3.00303,-7.75 10.0488,-7.75c25.46865,0 173.22902,0 219,0c8.18719,0 10.4512,1.44802 10.4512,7.75c0,21.55744 0,109.15965 0,122c0,5.99838 -1.68639,9.75 -8.9512,9.75c-43.36312,0 -190.90437,0 -218,0c-8.00628,0 -12.5488,-2.57406 -12.5488,-9.75z" fill="#000000" stroke="#ffffff" stroke-width="2.5"/><text transform="translate(230,144.5) scale(0.5,0.5)" font-size="40" xml:space="preserve" fill="#ffffff" stroke="none" stroke-width="1" font-family="Sans Serif" font-weight="normal" text-anchor="start"><tspan x="0" dy="0">是否确认购买此商品</tspan></text><text transform="translate(250,169.5) scale(0.5,0.5)" font-size="40" xml:space="preserve" fill="#ffffff" stroke="none" stroke-width="1" font-family="Sans Serif" font-weight="normal" text-anchor="start"><tspan x="0" dy="0">购买此商品需要</tspan></text><g><path d="M293.0025,190.57716c0.87368,0.14488 1.48332,-0.03007 2.36939,0.06427c0.26452,0.02816 1.65833,0.31859 1.78785,0.32543c0.50891,0.02687 0.89658,0.47372 1.46048,1.07187c0.15092,0.16009 0.24325,0.37374 0.43904,0.54199c0.67183,0.57733 1.83287,2.40293 1.60552,4.05448c-0.1269,0.92189 -1.28872,1.83318 -1.75777,2.33768c-1.11667,1.20106 -2.87678,2.20567 -3.71961,2.57431c-1.10705,0.48419 -2.167,0.60459 -2.60676,0.6441c-0.52555,0.04722 -2.11327,0.05174 -3.45495,-0.30745c-1.05475,-0.28237 -1.90876,-0.90304 -2.30496,-1.13473c-0.43045,-0.25171 -0.87464,-0.45379 -1.26897,-0.74306c-0.11095,-0.08139 -0.22335,-0.28093 -0.34032,-0.29619c-0.46562,-0.06076 -0.94728,0.0052 -1.42566,-0.06984c-0.62788,-0.09849 -1.25011,-0.34781 -1.82301,-0.52252c-1.40077,-0.42717 -2.26595,-1.44166 -2.69489,-1.84278c-0.57882,-0.54128 -1.48596,-1.80549 -2.1933,-3.24349c-0.14815,-0.3012 -1.16696,-2.67029 -1.09974,-3.35792c0.06772,-0.6927 0.36928,-1.95156 1.09202,-3.13926c0.3369,-0.55363 0.9099,-1.0918 1.3311,-1.54996c1.25072,-1.36048 2.7972,-2.25713 3.23497,-2.38299c0.12732,-0.03661 1.10307,-0.18486 2.19883,-0.28932c0.7537,-0.07185 1.60971,0.15747 2.1719,0.2375c0.33146,0.04719 1.93477,0.84636 2.82903,1.87688c0.57531,0.66298 0.62147,1.40309 0.93431,2.00971c0.28868,0.55978 1.00348,2.07138 1.34005,2.33243c0.82746,0.64178 1.67606,0.77249 1.89544,0.80886z" fill="#db3116" stroke="none" stroke-width="0"/><path d="M279.67064,191.24284c-0.4123,-0.62908 -0.74205,-1.6857 -0.42487,-2.73947c0.30362,-1.0087 1.22194,-2.01342 2.26662,-2.69811c2.13603,-1.39997 4.84255,-0.663 5.89351,0.36785c0.4268,0.41863 0.89772,1.09628 0.93852,1.84262c0.07049,1.28951 -0.75396,2.81682 -2.10693,3.70357c-2.13603,1.39997 -5.75988,0.7548 -6.56685,-0.47645z" fill="#fc553c" stroke="none" stroke-width="0"/><path d="M283.47934,187.48641c0,-0.69457 0.56306,-1.25762 1.25763,-1.25762c0.69457,0 1.25763,0.56306 1.25763,1.25762c0,0.69457 -0.56306,1.25763 -1.25763,1.25763c-0.69457,0 -1.25763,-0.56306 -1.25763,-1.25763z" fill="#ffffff" stroke="none" stroke-width="0"/><path d="M289.92481,196.85115c-0.22785,-0.30258 -0.60647,-0.66442 -0.71177,-1.05594c-0.27638,-1.02766 0.15575,-2.25988 1.35389,-3.1621c0.72343,-0.54476 1.67907,-1.00869 2.59459,-1.1207c0.50853,-0.06222 1.36469,-0.04727 1.99216,0.20938c0.82658,0.33809 1.38343,0.96847 1.48943,1.13096c0.34105,0.52281 0.44797,1.31186 0.45733,1.56088c0.0195,0.51913 -0.57191,1.80886 -1.6929,2.53586c-1.12291,0.72824 -2.7759,0.89322 -3.35725,0.81289c-0.85037,-0.11751 -1.77644,-0.44768 -2.12549,-0.91122z" fill="#fc553c" stroke="none" stroke-width="0"/><path d="M293.85628,201.8711c-0.08968,0.02079 0.76769,-0.23708 1.67768,-0.70207c0.27104,-0.1385 1.56185,-0.64404 2.56654,-1.59367c1.27796,-1.20791 2.42355,-2.73025 2.51244,-2.68762c0.19665,0.0943 -0.4624,1.96068 -1.67567,3.4159c-0.87364,1.04787 -2.29056,1.76621 -2.67826,2.00351c-0.97953,0.59952 -2.33896,1.16921 -3.54514,1.54498c-2.6087,0.8127 -5.31507,0.53071 -5.49277,0.53071c-0.54012,0 -2.1037,-0.41956 -3.39887,-0.92317c-0.54096,-0.21035 -2.67508,-1.55864 -4.16673,-3.06555c-0.46994,-0.47475 -1.39602,-1.55027 -2.07618,-2.89625c-0.22441,-0.44409 -0.29062,-0.91761 -0.47897,-1.40872c-0.17566,-0.45801 -0.42062,-0.9466 -0.57878,-1.43693c-0.41152,-1.27581 -0.6597,-2.56332 -0.73247,-3.35395c-0.03881,-0.4217 0.26328,-1.16996 0.25979,-1.21006c-0.02439,-0.28041 0.28568,2.74938 1.3881,4.59892c1.07347,1.80097 2.836,3.33964 3.06482,3.50516c0.46617,0.33721 0.92411,0.55993 1.43077,0.74883c0.28676,0.10691 1.70338,0.54559 1.79904,0.56527c0.92286,0.18984 1.36951,0.02278 1.5833,0.11381c0.12396,0.05277 0.20221,0.25461 0.30339,0.34668c0.28788,0.26194 0.83609,0.46062 1.19147,0.6424c0.14048,0.07185 1.48248,1.14949 3.22456,1.44177c2.10982,0.35398 4.38148,-0.30967 3.82193,-0.17994z" fill="#b52610" stroke="none" stroke-width="0"/><path d="M292.05838,204.01033c0.50088,-0.14257 1.73138,-0.52726 2.75859,-1.00245c0.4574,-0.21159 1.85704,-0.99581 2.84989,-1.75706c0.91078,-0.69832 1.40503,-1.49609 1.67364,-1.62823c0.09884,-0.04862 1.05791,-1.95425 1.08237,-1.91156c0.06897,0.12035 -0.20362,1.22651 -0.6562,2.18025c-0.32641,0.68786 -0.84715,1.29643 -0.92428,1.39873c-0.08529,0.11312 -0.77043,0.81553 -1.54746,1.48092c-0.7252,0.62101 -1.27246,1.20979 -1.32055,1.25719c-0.25747,0.25377 -1.3941,0.82241 -2.27997,1.2037c-0.76342,0.32859 -1.57126,0.48833 -1.7071,0.53653c-0.2729,0.09683 -1.96808,0.31328 -3.30578,0.29312c-0.95697,-0.01442 -1.74736,-0.18407 -1.77902,-0.18407c-0.05903,0 -0.6713,-0.00371 -1.4721,-0.26305c-0.50004,-0.16193 -1.05803,-0.51691 -1.64863,-0.74563c-1.59094,-0.61613 -3.23487,-1.41761 -3.5276,-1.61491c-0.06196,-0.04176 -0.47025,-0.38494 -0.56758,-0.44316c-0.25057,-0.14989 -0.55471,-0.49548 -0.88478,-0.788c-0.34105,-0.30224 -0.73019,-0.69836 -0.99497,-1.00249c-0.15571,-0.17885 -0.28637,-0.38755 -0.42823,-0.57347c-0.54783,-0.71799 -1.33366,-2.25764 -1.63983,-3.2957c-0.20661,-0.70049 -0.45932,-2.18358 -0.41312,-3.46818c0.05003,-1.39073 0.40886,-2.55965 0.41884,-2.54768c0.0471,0.05657 0.04665,0.18289 0.06807,0.26997c0.05952,0.24194 0.13081,0.56524 0.18957,0.90942c0.03453,0.20226 0.57294,2.38502 0.67445,2.58944c0.45214,0.91048 0.73483,2.10789 1.26556,2.98682c0.45128,0.74735 0.9099,1.56056 1.53583,2.23442c1.1102,1.1952 2.4314,2.08714 2.92236,2.35956c0.32984,0.18302 0.87615,0.66542 1.58193,0.95234c0.48534,0.19729 1.73622,0.70196 2.93211,0.8479c1.47213,0.17964 4.19092,-0.00335 5.144,-0.27464z" fill="#911a08" stroke="none" stroke-width="0"/><path d="M299.01011,202.05646c-0.61814,0.62282 -1.31657,1.15991 -2.46406,2.14318c-0.87694,0.73157 -1.83373,1.2965 -3.04344,1.76458c-1.34166,0.51915 -1.11093,0.32846 -3.35918,0.67567c-2.01051,0.05727 -3.49778,0.0009 -5.29233,-0.66508c-1.49017,-0.55302 -4.55581,-1.82153 -6.31212,-3.38733c-0.7477,-0.6666 -1.81597,-1.74705 -2.556,-3.25348c-0.72595,-1.47777 -1.12998,-3.37884 -1.22678,-4.33488c-0.20762,-2.05049 0.46204,-4.66183 1.19108,-6.45355c0.65184,-1.60202 1.77382,-3.00221 3.01868,-3.95115c1.80169,-1.37341 3.86077,-1.93754 5.12444,-1.93754c0.7445,0 1.75746,0.12392 2.57895,0.57713c0.58286,0.32156 1.7529,1.11336 2.4316,2.00679c1.12442,1.48016 1.70284,3.23929 1.93445,3.60128c0.19364,0.30265 0.4788,0.7399 1.43403,1.00298c1.00304,0.27624 2.61446,0.20611 3.61653,0.2881c1.18453,0.09693 2.65123,0.98239 3.58992,2.18576c1.26749,1.62487 1.58637,3.51293 1.58972,3.78541c0.02941,2.39576 -1.44893,5.13946 -2.25549,5.95211z" fill="none" stroke="#000000" stroke-width="2"/></g><text transform="translate(215.12001,232.5) scale(0.5,0.5)" font-size="40" xml:space="preserve" fill="#ffffff" stroke="none" stroke-width="1" font-family="Sans Serif" font-weight="normal" text-anchor="start"><tspan x="0" dy="0">[按下空格确认 x键关闭]</tspan></text></g></g></svg>