<svg version="1.1" xmlns="http://www.w3.org/2000/svg" xmlns:xlink="http://www.w3.org/1999/xlink" width="590.5369" height="421.0056" viewBox="0,0,590.5369,421.0056"><defs><radialGradient cx="241.36029" cy="350.99101" r="40.66868" gradientUnits="userSpaceOnUse" id="color-1"><stop offset="0" stop-color="#f28b3d"/><stop offset="1" stop-color="#f28b3d" stop-opacity="0"/></radialGradient></defs><g transform="translate(-25.23215,29.3459)"><g stroke-miterlimit="10"><text transform="translate(30.2367,372.01096) scale(1.00091,1.00091)" font-size="40" xml:space="preserve" fill="#ffd33e" stroke="#000000" stroke-width="10" stroke-linecap="butt" font-family="Sans Serif" font-weight="normal" text-anchor="start"><tspan x="0" dy="0">Made by         Codingfar Studio</tspan></text><text transform="translate(30.2367,372.01096) scale(1.00091,1.00091)" font-size="40" xml:space="preserve" fill="#ffd33e" stroke="#000000" stroke-width="0" stroke-linecap="butt" font-family="Sans Serif" font-weight="normal" text-anchor="start"><tspan x="0" dy="0">Made by         Codingfar Studio</tspan></text><g fill="none"><path d="M85.82637,-22.4383l-14.07035,35.02712" stroke="#020200" stroke-width="12.5" stroke-linecap="round"/><path d="M98.25098,12.49882l-12.50495,-34.84712" stroke="#020200" stroke-width="12.5" stroke-linecap="round"/><path d="M77.90844,-1.47802h13.27211" stroke="#020200" stroke-width="12.5" stroke-linecap="round"/><path d="M108.76132,12.31308v-23.45766" stroke="#020200" stroke-width="12.5" stroke-linecap="round"/><path d="M126.84793,-7.11845v19.44517" stroke="#020200" stroke-width="12.5" stroke-linecap="round"/><path d="M143.25241,-7.84783l0.42385,20.02773" stroke="#020200" stroke-width="12.5" stroke-linecap="round"/><path d="M109.36305,-7.90752c0,0 2.35137,-4.07642 9.43359,-3.56607c6.85331,0.15886 7.88674,4.79129 7.88674,4.79129" stroke="#020200" stroke-width="12.5" stroke-linecap="round"/><path d="M126.91275,-6.94271c0,0 2.80732,-4.18209 9.8067,-4.42015c4.58409,-0.15591 6.46828,3.3908 6.46828,3.3908" stroke="#020200" stroke-width="12.5" stroke-linecap="round"/><path d="M165.10348,-12.01868c6.16204,0 10.37092,5.05458 10.37092,11.53223c0,6.47765 -4.20889,11.92544 -10.37092,11.92544c-3.26212,0 -9.24842,-2.24882 -10.30544,-9.32125c-0.02704,-0.18087 0.0652,-6.4172 1.26268,-8.52454c2.2095,-3.88831 7.29914,-5.61188 9.04277,-5.61188z" stroke="#020200" stroke-width="12.5" stroke-linecap="butt"/><path d="M187.4673,11.93162c0,0 -0.2949,-12.7517 -0.2949,-17.17596c0,-2.78579 0.2949,-6.80986 0.2949,-6.80986" stroke="#020200" stroke-width="12.5" stroke-linecap="round"/><path d="M187.369,-4.19002c0,0 0.13537,-0.46113 1.87795,-2.78217c1.71189,-2.28016 4.81258,-4.25785 7.26068,-4.3075c3.77872,-0.0766 5.48865,0.21369 6.63133,1.14739c3.08152,2.51798 1.92603,4.34383 2.20208,8.63638c0.41115,6.39345 -0.37589,13.82072 -0.37589,13.82072" stroke="#020200" stroke-width="12.5" stroke-linecap="round"/><path d="M234.63524,-0.19026c0,3.01743 -0.41309,6.47611 -1.62053,8.69853c-1.30177,2.39604 -4.65946,3.44183 -7.0254,3.44183c-2.41563,0 -5.403,-1.60729 -6.93893,-3.95859c-1.36374,-2.08769 -1.98959,-5.52756 -1.98959,-8.47667c0,-2.65804 0.59215,-5.18211 1.72526,-7.0557c1.54,-2.54639 3.78951,-4.00333 6.41683,-4.00333c2.85697,0 6.08019,0.7558 7.56275,3.78792c0.88397,1.80791 1.86961,5.22376 1.86961,7.56603z" stroke="#020200" stroke-width="12.5" stroke-linecap="butt"/><path d="M237.04801,-11.34476c0.16602,8.19942 0.50902,28.27292 -2.08159,31.55553c-4.13211,5.23588 -16.59006,1.74565 -16.59006,1.74565" stroke="#020200" stroke-width="12.5" stroke-linecap="round"/><path d="M286.29434,-20.04261c0,0 2.19349,16.88605 -1.20533,26.33589c-1.71341,4.76387 -9.00778,5.55804 -10.2974,5.55804c-1.29574,0 -8.27196,-0.64924 -10.00637,-5.61275c-3.29937,-9.44212 -1.32207,-26.28118 -1.32207,-26.28118" stroke="#020200" stroke-width="12.5" stroke-linecap="round"/><path d="M312.95973,-10.80556c0,0 -7.68514,-0.57307 -11.67349,0.4917c-1.44387,0.38547 -4.93333,2.64483 -1.73859,7.51578c1.31468,1.06677 11.37732,3.76554 13.23192,6.66973c0.95308,1.49248 0.40551,5.78794 -2.74574,7.02781c-2.32722,0.91565 -6.05089,1.41738 -8.63953,0.89171c-2.15942,-0.4385 -3.42297,-1.85697 -3.42297,-1.85697" stroke="#020200" stroke-width="12.5" stroke-linecap="round"/><path d="M353.08056,-18.82264c0,0 -8.9984,-2.44036 -13.65524,0.24247c-1.40206,0.80773 -2.59899,3.16897 -2.74781,5.18455c-0.1503,2.03574 0.75457,3.72236 0.75235,3.81089c-0.03541,1.41601 4.17735,2.8884 8.22039,4.76796c2.45866,1.143 4.85455,2.43656 6.19414,3.95958c0.59661,0.67831 4.40118,6.84995 -1.05606,10.47594c-4.54138,3.01747 -14.7876,0.83827 -14.7876,0.83827" stroke="#020200" stroke-width="12.5" stroke-linecap="round"/><path d="M379.57168,10.63134c0,0 -7.06081,3.11079 -11.50901,0.009c-3.02717,-2.1109 -4.00225,-9.40891 -4.00225,-10.98887c0,-1.41742 0.58858,-7.44165 3.7206,-9.31335c4.40296,-2.63123 11.79066,-0.96939 11.79066,-0.96939" stroke="#020200" stroke-width="12.5" stroke-linecap="round"/><path d="M390.02871,12.19989v-24.05115" stroke="#020200" stroke-width="12.5" stroke-linecap="round"/><path d="M390.203,-3.31136c0,0 3.40911,-5.68103 5.46775,-7.0438c2.06604,-1.36767 6.73212,-0.79897 6.73212,-0.79897" stroke="#020200" stroke-width="12.5" stroke-linecap="round"/><path d="M424.62186,6.70536c0,0 -1.27728,2.14867 -3.36104,3.53261c-2.02498,1.34489 -4.82473,1.92813 -7.06006,1.79746c-1.18349,-0.06917 -4.77174,-1.77943 -5.6467,-4.54455c-0.71832,-2.2701 1.12461,-5.67525 1.38037,-5.84979c1.51189,-1.03181 3.80282,-2.08097 6.21779,-2.39837c3.9904,-0.52445 8.11486,0.13059 8.11486,0.13059" stroke="#020200" stroke-width="12.5" stroke-linecap="round"/><path d="M411.02207,-10.56044c0,0 11.39886,-2.40352 13.58261,0.36737c2.07325,2.63068 0.95635,7.62104 1.12658,11.45126c0.27097,6.0971 0.901,10.88709 0.901,10.88709" stroke="#020200" stroke-width="12.5" stroke-linecap="round"/><path d="M448.39189,-11.15174h-13.12674" stroke="#020200" stroke-width="12.5" stroke-linecap="round"/><path d="M448.74666,11.43572c0,0 -3.36719,0.78338 -5.67166,0.33052c-1.56962,-0.30846 -2.26586,-1.50741 -2.55643,-2.67877c-0.51703,-2.08431 -0.5924,-5.85139 -0.48259,-10.65931c0.18631,-8.15664 0.55082,-16.79369 0.55082,-16.79369" stroke="#020200" stroke-width="12.5" stroke-linecap="round"/><path d="M472.40497,10.27657c0,0 -7.06081,3.11079 -11.50901,0.009c-3.02717,-2.1109 -4.00224,-9.40891 -4.00224,-10.98887c0,-1.41742 0.58858,-7.44165 3.7206,-9.31335c4.40296,-2.63123 11.79066,-0.96939 11.79066,-0.96939" stroke="#020200" stroke-width="12.5" stroke-linecap="round"/><path d="M483.35729,-23.0959v34.8864" stroke="#020200" stroke-width="12.5" stroke-linecap="round"/><path d="M483.94858,-5.12055c0,0 3.23224,-6.63006 7.90522,-6.62628c3.94551,0.00319 7.62877,-0.92597 9.05624,6.29486c1.40567,7.11059 0.65913,17.36071 0.65913,17.36071" stroke="#020200" stroke-width="12.5" stroke-linecap="round"/><path d="M526.55968,-4.47012c0,-5.39819 2.20207,-10.50943 5.46093,-13.186c2.21128,-1.81618 8.23149,-2.95844 8.31624,-2.95634c4.77377,0.11826 4.94076,0.52621 7.92527,2.34099c4.33334,2.63498 6.67971,8.17183 6.67971,13.68309c0,4.67606 -0.82475,9.0554 -3.35803,12.13814c-2.50887,3.05302 -6.70713,4.83204 -10.65566,4.83204c-3.13972,0 -6.99031,-1.06285 -9.35424,-3.06688c-3.61077,-3.06106 -5.01423,-8.16036 -5.01423,-13.78502z" stroke="#020200" stroke-width="12.5" stroke-linecap="butt"/><path d="M567.95035,-21.20375c0,0 0.35955,7.22938 0.28297,15.7278c-0.07875,8.73922 0.10446,18.57033 -0.74733,22.49739c-1.06507,4.9104 -8.40507,3.87501 -8.40507,3.87501" stroke="#020200" stroke-width="12.5" stroke-linecap="round"/><path d="M85.82637,-22.4383l-14.07035,35.02712" stroke="#ffd33e" stroke-width="7.5" stroke-linecap="round"/><path d="M98.25098,12.49882l-12.50495,-34.84712" stroke="#ffd33e" stroke-width="7.5" stroke-linecap="round"/><path d="M77.90844,-1.47802h13.27211" stroke="#ffd33e" stroke-width="7.5" stroke-linecap="round"/><path d="M108.76132,12.31308v-23.45766" stroke="#ffd33e" stroke-width="7.5" stroke-linecap="round"/><path d="M126.84793,-7.11845v19.44517" stroke="#ffd33e" stroke-width="7.5" stroke-linecap="round"/><path d="M143.25241,-7.84783l0.42385,20.02773" stroke="#ffd33e" stroke-width="7.5" stroke-linecap="round"/><path d="M109.36305,-7.90752c0,0 2.35137,-4.07642 9.43359,-3.56607c6.85331,0.15886 7.88674,4.79129 7.88674,4.79129" stroke="#ffd33e" stroke-width="7.5" stroke-linecap="round"/><path d="M126.91275,-6.94271c0,0 2.80732,-4.18209 9.8067,-4.42015c4.58409,-0.15591 6.46828,3.3908 6.46828,3.3908" stroke="#ffd33e" stroke-width="7.5" stroke-linecap="round"/><path d="M165.10348,-12.01868c6.16204,0 10.37092,5.05458 10.37092,11.53223c0,6.47765 -4.20889,11.92544 -10.37092,11.92544c-3.26212,0 -9.24842,-2.24882 -10.30544,-9.32125c-0.02704,-0.18087 0.0652,-6.4172 1.26268,-8.52454c2.2095,-3.88831 7.29914,-5.61188 9.04277,-5.61188z" stroke="#ffd33e" stroke-width="7.5" stroke-linecap="butt"/><path d="M187.4673,11.93162c0,0 -0.2949,-12.7517 -0.2949,-17.17596c0,-2.78579 0.2949,-6.80986 0.2949,-6.80986" stroke="#ffd33e" stroke-width="7.5" stroke-linecap="round"/><path d="M187.369,-4.19002c0,0 0.13537,-0.46113 1.87795,-2.78217c1.71189,-2.28016 4.81258,-4.25785 7.26068,-4.3075c3.77872,-0.0766 5.48865,0.21369 6.63133,1.14739c3.08152,2.51798 1.92603,4.34383 2.20208,8.63638c0.41115,6.39345 -0.37589,13.82072 -0.37589,13.82072" stroke="#ffd33e" stroke-width="7.5" stroke-linecap="round"/><path d="M234.63524,-0.19026c0,3.01743 -0.41309,6.47611 -1.62053,8.69853c-1.30177,2.39604 -4.65946,3.44183 -7.0254,3.44183c-2.41563,0 -5.403,-1.60729 -6.93893,-3.95859c-1.36374,-2.08769 -1.98959,-5.52756 -1.98959,-8.47667c0,-2.65804 0.59215,-5.18211 1.72526,-7.0557c1.54,-2.54639 3.78951,-4.00333 6.41683,-4.00333c2.85697,0 6.08019,0.7558 7.56275,3.78792c0.88397,1.80791 1.86961,5.22376 1.86961,7.56603z" stroke="#ffd33e" stroke-width="7.5" stroke-linecap="butt"/><path d="M237.04801,-11.34476c0.16602,8.19942 0.50902,28.27292 -2.08159,31.55553c-4.13211,5.23588 -16.59006,1.74565 -16.59006,1.74565" stroke="#ffd33e" stroke-width="7.5" stroke-linecap="round"/><path d="M286.29434,-20.04261c0,0 2.19349,16.88605 -1.20533,26.33589c-1.71341,4.76387 -9.00778,5.55804 -10.2974,5.55804c-1.29574,0 -8.27196,-0.64924 -10.00637,-5.61275c-3.29937,-9.44212 -1.32207,-26.28118 -1.32207,-26.28118" stroke="#ffd33e" stroke-width="7.5" stroke-linecap="round"/><path d="M312.95973,-10.80556c0,0 -7.68514,-0.57307 -11.67349,0.4917c-1.44387,0.38547 -4.93333,2.64483 -1.73859,7.51578c1.31468,1.06677 11.37732,3.76554 13.23192,6.66973c0.95308,1.49248 0.40551,5.78794 -2.74574,7.02781c-2.32722,0.91565 -6.05089,1.41738 -8.63953,0.89171c-2.15942,-0.4385 -3.42297,-1.85697 -3.42297,-1.85697" stroke="#ffd33e" stroke-width="7.5" stroke-linecap="round"/><path d="M353.08056,-18.82264c0,0 -8.9984,-2.44036 -13.65524,0.24247c-1.40206,0.80773 -2.59899,3.16897 -2.74781,5.18455c-0.1503,2.03574 0.75457,3.72236 0.75235,3.81089c-0.03541,1.41601 4.17735,2.8884 8.22039,4.76796c2.45866,1.143 4.85455,2.43656 6.19414,3.95958c0.59661,0.67831 4.40118,6.84995 -1.05606,10.47594c-4.54138,3.01747 -14.7876,0.83827 -14.7876,0.83827" stroke="#ffd33e" stroke-width="7.5" stroke-linecap="round"/><path d="M379.57168,10.63134c0,0 -7.06081,3.11079 -11.50901,0.009c-3.02717,-2.1109 -4.00225,-9.40891 -4.00225,-10.98887c0,-1.41742 0.58858,-7.44165 3.7206,-9.31335c4.40296,-2.63123 11.79066,-0.96939 11.79066,-0.96939" stroke="#ffd33e" stroke-width="7.5" stroke-linecap="round"/><path d="M390.02871,12.19989v-24.05115" stroke="#ffd33e" stroke-width="7.5" stroke-linecap="round"/><path d="M390.203,-3.31136c0,0 3.40911,-5.68103 5.46775,-7.0438c2.06604,-1.36767 6.73212,-0.79897 6.73212,-0.79897" stroke="#ffd33e" stroke-width="7.5" stroke-linecap="round"/><path d="M424.62186,6.70536c0,0 -1.27728,2.14867 -3.36104,3.53261c-2.02498,1.34489 -4.82473,1.92813 -7.06006,1.79746c-1.18349,-0.06917 -4.77174,-1.77943 -5.6467,-4.54455c-0.71832,-2.2701 1.12461,-5.67525 1.38037,-5.84979c1.51189,-1.03181 3.80282,-2.08097 6.21779,-2.39837c3.9904,-0.52445 8.11486,0.13059 8.11486,0.13059" stroke="#ffd33e" stroke-width="7.5" stroke-linecap="round"/><path d="M411.02207,-10.56044c0,0 11.39886,-2.40352 13.58261,0.36737c2.07325,2.63068 0.95635,7.62104 1.12658,11.45126c0.27097,6.0971 0.901,10.88709 0.901,10.88709" stroke="#ffd33e" stroke-width="7.5" stroke-linecap="round"/><path d="M448.39189,-11.15174h-13.12674" stroke="#ffd33e" stroke-width="7.5" stroke-linecap="round"/><path d="M448.74666,11.43572c0,0 -3.36719,0.78338 -5.67166,0.33052c-1.56962,-0.30846 -2.26586,-1.50741 -2.55643,-2.67877c-0.51703,-2.08431 -0.5924,-5.85139 -0.48259,-10.65931c0.18631,-8.15664 0.55082,-16.79369 0.55082,-16.79369" stroke="#ffd33e" stroke-width="7.5" stroke-linecap="round"/><path d="M472.40497,10.27657c0,0 -7.06081,3.11079 -11.50901,0.009c-3.02717,-2.1109 -4.00224,-9.40891 -4.00224,-10.98887c0,-1.41742 0.58858,-7.44165 3.7206,-9.31335c4.40296,-2.63123 11.79066,-0.96939 11.79066,-0.96939" stroke="#ffd33e" stroke-width="7.5" stroke-linecap="round"/><path d="M483.35729,-23.0959v34.8864" stroke="#ffd33e" stroke-width="7.5" stroke-linecap="round"/><path d="M483.94858,-5.12055c0,0 3.23224,-6.63006 7.90522,-6.62628c3.94551,0.00319 7.62877,-0.92597 9.05624,6.29486c1.40567,7.11059 0.65913,17.36071 0.65913,17.36071" stroke="#ffd33e" stroke-width="7.5" stroke-linecap="round"/><path d="M526.55968,-4.47012c0,-5.39819 2.20207,-10.50943 5.46093,-13.186c2.21128,-1.81618 8.23149,-2.95844 8.31624,-2.95634c4.77377,0.11826 4.94076,0.52621 7.92527,2.34099c4.33334,2.63498 6.67971,8.17183 6.67971,13.68309c0,4.67606 -0.82475,9.0554 -3.35803,12.13814c-2.50887,3.05302 -6.70713,4.83204 -10.65566,4.83204c-3.13972,0 -6.99031,-1.06285 -9.35424,-3.06688c-3.61077,-3.06106 -5.01423,-8.16036 -5.01423,-13.78502z" stroke="#ffd33e" stroke-width="7.5" stroke-linecap="butt"/><path d="M567.95035,-21.20375c0,0 0.35955,7.22938 0.28297,15.7278c-0.07875,8.73922 0.10446,18.57033 -0.74733,22.49739c-1.06507,4.9104 -8.40507,3.87501 -8.40507,3.87501" stroke="#ffd33e" stroke-width="7.5" stroke-linecap="round"/></g><g stroke-linecap="butt"><path d="M200.6916,350.99102c0,-22.46069 18.20799,-40.66869 40.66869,-40.66869c22.46069,0 40.66868,18.208 40.66868,40.66869c0,22.46069 -18.20799,40.66868 -40.66868,40.66868c-22.46069,0 -40.66869,-18.20799 -40.66869,-40.66868z" fill="url(#color-1)" stroke="none" stroke-width="0"/><g fill="#f17111" stroke="#000000" stroke-width="1"><path d="M236.12064,365.52443c0,-2.15323 4.88091,-7.48833 5.15035,-12.073c0.22816,5.40273 5.22404,10.93592 5.22404,12.215c0,0.71652 -0.60237,1.12807 -1.18266,1.12807c-1.24696,0 -6.03265,0 -8.16096,0c-0.63288,0 -1.03078,-0.46604 -1.03078,-1.27007z"/><path d="M241.27098,353.45143c-0.00009,-0.00232 -0.00019,-0.00463 -0.00029,-0.00695c0.00023,0 0.00046,0.00001 0.00069,0.00002c-0.00014,0.00231 -0.00027,0.00462 -0.00041,0.00693z"/><path d="M218.28264,370.41264c-0.09748,-2.81557 -0.27998,-8.64247 -0.29566,-13.20747c-0.01454,-4.23008 -0.5823,-8.44525 0.77612,-11.22763c1.08167,-2.21554 4.27071,-4.58587 7.28274,-7.09785c4.09917,-3.41863 8.28444,-6.84085 10.21811,-8.09573c0.30495,-0.1979 0.65155,-0.38975 0.97751,-0.39973c0.29229,-0.00894 0.56798,0.1459 0.78213,0.28315c0.85487,0.54791 1.61844,1.52899 0.62444,2.45445c-2.30649,2.14743 -6.61216,5.46742 -10.64494,8.93124c-2.26411,1.94468 -4.77024,3.8047 -5.55981,5.80199c-1.11279,2.8149 -0.64872,6.09517 -0.61991,8.37242c0.04044,3.19651 -0.09588,5.76664 0.17025,6.7878c0.02172,0.08334 0.13577,0.49944 0.64771,0.52452c0.15788,0.00774 0.53818,0.13938 0.799,0.02711c0.1924,-0.08281 0.2951,-0.3848 0.32272,-0.52211c0.41048,-2.04092 0.90173,-9.54206 0.9877,-13.26972c0.02739,-1.18781 1.97214,-1.03404 2.99813,-0.88101c0.36854,0.05496 0.66757,0.39261 0.74365,0.8655c0.36088,2.24334 1.33009,9.26162 0.55725,16.35931c-0.13317,1.22305 -6.30472,4.0564 -9.21603,5.32801c-0.90164,0.39382 -1.51501,0.0082 -1.5511,-1.03424z"/><path d="M262.88684,371.44688c-2.9113,-1.27161 -9.08285,-4.10497 -9.21602,-5.32801c-0.77284,-7.09769 0.19636,-14.11596 0.55725,-16.3593c0.07608,-0.47288 0.37512,-0.81054 0.74365,-0.8655c1.02598,-0.15303 2.97073,-0.3068 2.99812,0.88101c0.08596,3.72767 0.57721,11.22881 0.98769,13.26972c0.02762,0.13732 0.13032,0.4393 0.32272,0.52211c0.26082,0.11226 0.64112,-0.01937 0.799,-0.02711c0.51194,-0.02508 0.626,-0.44118 0.64773,-0.52452c0.26613,-1.02116 0.1298,-3.59129 0.17024,-6.7878c0.0288,-2.27725 0.49286,-5.55752 -0.61992,-8.37242c-0.78956,-1.99728 -3.29568,-3.8573 -5.5598,-5.80199c-4.03278,-3.46382 -8.33845,-6.78382 -10.64494,-8.93124c-0.994,-0.92546 -0.23045,-1.90654 0.62443,-2.45445c0.21415,-0.13725 0.48985,-0.29209 0.78214,-0.28315c0.32596,0.00997 0.67256,0.20183 0.97751,0.39973c1.93367,1.25488 6.11894,4.6771 10.21811,8.09573c3.01202,2.51197 6.20106,4.8823 7.28274,7.09784c1.35842,2.78238 0.79066,6.99755 0.77612,11.22764c-0.01569,4.56501 -0.19818,10.3919 -0.29566,13.20747c-0.03609,1.04244 -0.64946,1.42806 -1.5511,1.03424z"/><path d="M237.15143,340.42211c2.12831,0 6.914,0 8.16096,0c0.58029,0 1.18266,0.41155 1.18266,1.12806c0,1.27908 -4.99588,6.81228 -5.22404,12.21501c-0.26944,-4.58468 -5.15035,-9.91979 -5.15035,-12.07301c0,-0.80403 0.3979,-1.27006 1.03078,-1.27006z"/></g></g><path d="M247.34156,180c0,-40.12815 32.53029,-72.65844 72.65844,-72.65844c40.12815,0 72.65844,32.53029 72.65844,72.65844c0,40.12815 -32.53029,72.65844 -72.65843,72.65844c-40.12815,0 -72.65844,-32.53029 -72.65844,-72.65844z" fill="#fd484e" stroke="none" stroke-width="0" stroke-linecap="butt"/><path d="M285.58288,161.15297c0,-7.57754 1.94684,-15.10368 6.10912,-20.99845c7.20089,-10.19814 21.27301,-15.27319 35.37804,-15.27319c22.25808,0 39.11647,15.58472 39.11647,36.27164c0,11.22489 -5.07543,22.48191 -13.4911,29.34699c-7.09399,5.78692 -16.63005,8.10999 -26.81072,8.10999c-9.99885,0 -21.28086,-2.14939 -28.32509,-7.75264c-8.63669,-6.86995 -11.97672,-18.31047 -11.97672,-29.70434z" fill="#fd484e" stroke="#330000" stroke-width="5" stroke-linecap="butt"/><path d="M320.83368,131.40919c4.5074,-2.3807 12.03693,-4.15716 17.97129,-4.15716c0.37325,0 14.32591,6.68216 19.1984,13.67823c3.10973,4.46505 6.76071,9.01479 6.76071,15.12572c0,8.5971 -2.69301,16.28364 -8.46322,20.90576c-4.99481,4.00099 -12.47366,5.5275 -20.34072,5.5275c-8.97726,0 -20.61061,-1.2742 -26.22434,-7.08488c-0.79073,-0.81847 -7.7439,-9.28406 -5.64351,-18.74427c0.62345,-17.51399 14.42588,-24.02789 16.7414,-25.25089z" fill="#330000" stroke="#330000" stroke-width="5" stroke-linecap="butt"/><path d="M331.0756,161.16372c-4.61111,0.2497 -7.90339,-0.03639 -7.98778,-0.03885c-6.85301,-0.2001 -10.22939,-1.85648 -11.73572,-5.59872c-1.15009,-2.8572 -0.18607,-7.39774 0.0954,-8.05407c0.57403,-1.33853 1.83052,-3.13147 2.58097,-3.97278c1.76046,-1.97357 5.14603,-3.81366 8.23384,-4.59265c1.35945,-0.34296 8.50513,-1.89643 15.25817,-1.79787c6.73575,0.09831 11.56413,2.27291 13.85171,3.56974c4.09499,2.32146 5.73898,6.21263 5.73898,9.79031c0,0 1.16555,5.35143 -4.25095,7.86383c-5.89495,2.73433 -18.53372,2.655 -21.78463,2.83105z" fill="#06a8e1" stroke="#330000" stroke-width="5" stroke-linecap="butt"/><path d="M327.02209,143.97934c0.65975,-0.66637 1.31903,-1.12429 1.70116,-1.46229c0.70778,-0.62604 1.79469,-0.81714 2.71014,-0.90589c1.5539,-0.15063 2.89056,0.31001 2.89056,0.31001c0,0 1.91462,0.63449 1.92964,1.67778c0.02879,2.00001 -1.98206,3.43899 -4.21966,5.72749c-2.04488,2.0914 -4.06838,4.40654 -5.44243,5.76693c-0.34202,0.33862 -0.62513,0.8603 -0.82983,1.10866c-0.03856,0.04679 -0.41201,0.48853 -0.43205,1.06626c-0.02335,0.67317 0.30992,1.49249 0.30992,1.49249c0,0 -2.47613,-0.00972 -4.54568,-0.22776c-1.73451,-0.18275 -3.07862,-0.55436 -3.2676,-0.59079c-1.85393,-0.35734 -2.52951,-1.20558 -2.52951,-1.20558c0,0 3.14213,-2.98388 6.29054,-6.42938c2.00683,-2.19621 3.83993,-4.71707 5.43478,-6.32793z" fill="#e0e0e0" stroke="none" stroke-width="5" stroke-linecap="butt"/><g stroke-width="5"><path d="M309.88902,233.83009c0,0 -1.04626,-2.51847 0.26486,-4.66936c1.29072,-2.11741 4.75345,-2.38866 6.6897,-4.86469c1.96789,-2.51649 2.40276,-7.236 2.86842,-9.15213c1.19383,-4.91251 -1.85171,-16.491 -1.85171,-16.491h13.70655l7.17414,-2.28778c0,0 7.65939,-4.62252 12.68369,-0.32355c6.4763,5.54135 10.68362,20.63279 10.60905,24.19492c-0.02609,1.2461 -24.94283,10.80271 -25.38949,11.56132c-0.18971,0.32219 -12.3332,2.04682 -12.51556,2.24248c-3.89585,4.18006 -14.23966,-0.2102 -14.23966,-0.2102z" fill="#fd484e" stroke="none" stroke-linecap="butt"/><path d="M276.52699,196.49714l2.65709,-8.60629c0,0 6.5512,-2.78994 8.9674,-2.78994c2.11144,0 8.59193,8.10412 8.59193,8.10412l-2.65709,5.01922c0,0 -4.30057,16.35779 -7.40206,21.78373c-0.81812,1.43127 -11.30303,-12.14126 -11.41119,-12.47821c-0.73406,-2.28676 1.25392,-11.03263 1.25392,-11.03263z" fill="#d92b31" stroke="none" stroke-linecap="butt"/><path d="M310.55329,208.18917l-5.18133,-11.13052l9.72092,1.06283l3.58707,11.52908c0,0 -0.38773,6.37547 -2.76253,12.47755c-1.53476,3.94359 -4.73875,4.02959 -5.4419,4.12313c-1.47658,0.19643 0.07776,-18.06208 0.07776,-18.06208z" fill="#d92b31" stroke="none" stroke-linecap="butt"/><path d="M293.81363,201.94501l2.9228,-9.00485l8.65808,6.11131l5.04847,10.46625c0,0 0.84738,16.51124 -1.87311,22.38359c-1.15763,2.49881 -5.13726,-2.4064 -6.55545,-1.39425c-4.06207,2.89907 -9.05181,-8.37598 -11.61457,-7.93577c-4.80153,0.82477 -0.85465,-9.26157 -0.16938,-11.59118c1.36763,-4.64935 3.58316,-9.0351 3.58316,-9.0351z" fill="#fd484e" stroke="none" stroke-linecap="butt"/><path d="M347.63932,194.14984c0,0 4.33574,9.63829 5.34656,14.60318c1.02621,5.0405 0.76522,15.41642 0.76522,15.41642" fill="none" stroke="#000000" stroke-linecap="round"/><path d="M314.7436,197.745c0,0 2.26236,3.02433 3.51456,8.19568c0.84914,3.50676 0.76271,6.73203 0.49466,8.88811c-0.17515,1.40883 -0.6215,5.44102 -1.46589,7.19639c-2.58535,5.37455 -6.49801,6.27868 -6.49801,6.27868" fill="none" stroke="#000000" stroke-linecap="round"/><path d="M299.2844,195.22839c0,0 8.50338,4.35513 10.15013,10.40319c0.46737,1.71653 1.33876,6.56872 1.31714,9.54969c-0.04307,5.93674 -1.58057,17.4368 -1.58057,17.4368" fill="none" stroke="#000000" stroke-linecap="round"/><path d="M287.95964,221.47306c0,0 1.54617,-10.92636 3.47343,-16.00146c1.61087,-4.24195 6.77278,-12.40031 6.77278,-12.40031" fill="none" stroke="#000000" stroke-linecap="round"/><path d="M282.16834,187.81926l6.47129,6.29153" fill="none" stroke="#000000" stroke-linecap="round"/><path d="M331.33855,233.86587c-0.33569,0.05593 -15.67928,3.5188 -26.73452,-1.72015c-3.55259,-1.68353 -7.88757,-3.5551 -11.07955,-5.72297c-10.40314,-7.0654 -16.77413,-16.62696 -17.56397,-17.46948c-1.38224,-1.47444 -0.94345,-2.7151 -0.94345,-4.91674c0,-3.68689 0.68264,-7.95007 1.57118,-11.28934c0.65679,-2.46832 0.93684,-4.08899 3.6759,-5.62506c1.10683,-0.62071 6.17862,-3.66431 9.21121,-2.75982c0.6291,0.18763 4.90004,4.95848 10.01557,8.29681c4.30064,2.80654 9.61987,4.28437 9.71048,4.29777c6.94143,1.02767 15.87423,2.19562 22.6242,1.18082c8.36623,-1.25779 17.62124,-4.47196 17.76794,-4.42173c7.95744,2.72436 12.62823,27.08689 12.67631,27.44939c0.01414,0.10662 -15.63227,10.15145 -30.93131,12.70049z" fill="none" stroke="#000000" stroke-linecap="butt"/></g></g></g></svg>