<svg version="1.1" xmlns="http://www.w3.org/2000/svg" xmlns:xlink="http://www.w3.org/1999/xlink" width="493.47786" height="422.56463" viewBox="0,0,493.47786,422.56463"><g transform="translate(-73.26107,31.28232)"><g stroke-miterlimit="10"><path d="M315.85042,-11.50256c73.45863,-1.98612 103.5282,38.75895 111.01147,73.35432c1.34349,6.21099 10.89606,48.09445 12.30915,100.31174c0.41236,15.23778 -1.60737,55.48387 -6.25181,88.97997c-3.73828,26.96068 -9.96398,48.84883 -11.97708,55.14894c-5.61995,18.76515 -33.46456,19.15269 -39.78054,19.49348c-24.43959,1.31871 -30.43453,-4.99031 -33.42379,-8.22935c-9.22992,-10.00119 -8.11876,-26.91497 -9.68898,-37.27431c-0.41,-2.70473 -0.91669,-4.75092 -1.75457,-5.88416c-1.43605,-1.94237 -4.35705,-1.68416 -4.95936,-0.94211c-0.3834,0.47233 -0.32248,5.90733 -0.47271,8.6769c-0.39809,7.33977 -0.29166,17.65607 -1.0817,26.55571c-0.96051,10.81969 -4.35989,18.91686 -7.32026,21.24302c-8.06439,6.33653 -28.29654,12.64382 -41.57035,12.89963c-20.56682,0.39644 -34.34736,-8.39412 -37.03946,-12.78018c-5.09303,-8.29761 -7.07081,-20.71993 -8.41231,-31.76935c-1.88675,-15.54026 -1.67393,-29.44227 -1.67393,-29.44227c0,0 -40.03654,7.40508 -48.01299,-22.59064c-1.78931,-6.72874 -5.08753,-24.12341 -5.98074,-45.07753c-1.0425,-24.4552 0.59915,-53.75869 2.68296,-76.61391c1.45981,-16.01167 3.0044,-28.85848 7.2824,-34.65633c5.29151,-7.17141 14.06726,-9.97015 22.55932,-12.06312c12.12529,-2.98841 23.67218,-3.4062 23.67218,-3.4062c0,0 0.07728,-47.08425 30.08781,-71.98436c11.05478,-9.17231 31.34995,-13.45118 49.79531,-13.94989z" fill="#42d576" stroke="none" stroke-width="0" stroke-linecap="butt"/><path d="M406.72157,73.73101c0,0.80462 2.44198,9.13636 14.38587,62.32099c9.36555,41.70367 -12.55033,152.99028 -15.26393,160.32701c-4.99498,13.50492 -22.89708,11.62251 -31.718,11.24207c-4.03617,-0.17408 -7.4925,-1.09375 -9.86643,-3.0845c-4.31586,-3.61923 -5.89191,-9.941 -6.80237,-15.82755c-1.39576,-9.02428 -0.38116,-17.87975 -0.38116,-17.87975c0,0 13.88664,-4.00159 21.97153,-9.03269c9.03661,-5.62335 12.10108,-10.53821 12.10108,-10.53821c0,0 -11.35816,2.81929 -24.79422,3.39678c-6.13968,0.26391 -13.50017,0.92879 -20.75805,0.42384c-9.46414,-0.65843 -18.75379,-2.54251 -24.93462,-2.12052c-6.62297,0.45218 -7.37907,4.36808 -7.54694,5.41048c-2.45056,15.2165 1.79465,42.89135 -1.98496,53.85664c-2.6539,7.69941 -10.36302,10.81419 -19.10103,12.1991c-12.67665,2.00917 -27.11745,-0.02388 -28.08277,-0.32832c-2.86382,-0.90318 -4.92008,0.22434 -7.67733,-7.52705c-4.49103,-12.62559 -4.83463,-44.65861 -5.54408,-73.72265c-1.01073,-41.40645 -4.00504,-82.62168 -2.16924,-120.27831c1.44723,-29.68608 7.54685,-59.9116 8.64303,-67.37004c6.17755,-42.03208 42.83925,-46.78113 77.30551,-46.78113c34.46629,0 72.21813,33.45653 72.21813,65.31379z" fill="#9deeba" stroke="none" stroke-width="0" stroke-linecap="butt"/><path d="M406.72157,73.73101c0,0.80462 2.44198,9.13634 14.38587,62.32099c1.42493,6.34499 2.12576,7.75976 2.28026,16.71503c0.17295,10.02414 -9.98342,54.04423 -34.27211,68.05591c-30.25221,17.45192 -77.61999,9.3167 -98.30607,-7.72235c-46.37964,-38.20272 -24.06264,-183.08161 -20.44211,-186.81495c15.09771,-15.56813 40.14859,-17.86844 64.13605,-17.86844c34.46626,0 72.21813,33.45651 72.21813,65.31379z" fill="#9deeba" stroke="none" stroke-width="0" stroke-linecap="butt"/><g stroke="none" stroke-width="0" stroke-linecap="butt"><path d="M303.24138,55.22724c14.54992,-14.85924 32.05203,-18.79255 38.06646,-19.30652c20.78975,-1.77665 53.76454,-1.46421 74.06118,3.03893c5.15539,1.1438 21.81717,8.16489 27.4002,20.04706c4.27299,9.09406 20.36983,39.18279 -3.35282,66.66181c-25.04278,29.00818 -93.61829,22.70387 -113.21742,18.11794c-8.74507,-2.47697 -24.30453,-12.56935 -29.5865,-30.07109c-6.38245,-21.14825 -1.04835,-50.64771 6.62885,-58.48813z" fill="#42d576"/><g fill="#9deeba"><path d="M311.83583,96.53961c0,-8.65505 -3.96484,-28.37368 14.41093,-37.42305c15.63578,-7.70002 52.99552,-5.58305 63.29876,-4.76346c11.57686,0.9209 24.38947,2.89669 32.62994,7.63198c9.7942,5.62812 12.15061,32.32688 11.28756,36.86181c-7.25148,38.10361 -79.27306,30.9836 -93.28047,27.35787c-15.15598,-3.92303 -28.34673,-13.64564 -28.34673,-29.66518z"/></g></g><g fill="#9deeba" stroke="none" stroke-width="0" stroke-linecap="butt"><path d="M230.51857,95.62023c0.35822,0.17186 1.9731,1.75523 2.11031,4.94465c0.44141,10.25987 -1.41959,34.54156 -1.32135,60.26434c0.16518,43.24275 1.04514,91.70171 1.04514,91.70171c0,0 -4.69279,0.66904 -10.25428,0.35232c-5.50718,-0.31365 -11.86077,-1.58852 -16.44302,-6.52686c-8.79349,-9.47684 -9.32844,-32.23185 -9.32364,-49.12974c0.00454,-15.93025 0.22092,-37.61888 0.57652,-56.94799c0.27293,-14.83652 -0.17125,-28.16873 4.28428,-37.1325c4.91458,-9.88731 25.84324,-9.19664 29.32602,-7.5259z"/><path d="M230.51857,95.62023c0.35822,0.17186 1.9731,1.75523 2.11031,4.94465c0.12835,2.98314 0.06205,7.15171 -0.09415,12.19646c-0.03071,0.99136 -0.10171,3.07325 -0.10171,3.07325c0,0 -12.26505,-1.53063 -17.25737,-0.78655c-6.35951,0.94785 -17.8006,6.01178 -17.8006,6.01178c0,0 0.10634,-1.58295 0.1716,-2.35747c0.50358,-5.97656 1.51369,-11.26661 3.6459,-15.55622c4.91458,-9.88731 25.84324,-9.19664 29.32602,-7.5259z"/></g><path d="M566.73893,183.13697c-1.9588,115.24167 -111.67141,208.14534 -246.72561,208.14534c-136.2775,0 -246.75225,-94.59431 -246.75225,-211.28231v-0.00001c0,-116.688 110.47475,-211.28231 246.75225,-211.28231c126.91774,0 231.45535,82.04672 245.21631,187.57545" fill="none" stroke="none" stroke-width="0" stroke-linecap="butt"/><path d="M423.42096,186.84661c0,0 -37.55775,10.37665 -93.2309,8.13924c-55.31805,-2.22314 -88.99479,-12.80591 -88.99479,-12.80591" fill="none" stroke="#41d375" stroke-width="8.5" stroke-linecap="round"/><path d="M426.80918,164.96475c0,0 -37.55775,10.37665 -93.2309,8.13924c-55.31805,-2.22314 -88.99479,-12.80591 -88.99479,-12.80591" fill="none" stroke="#41d375" stroke-width="8.5" stroke-linecap="round"/><path d="M438.19524,97.6248c0,0 -40.80893,14.33058 -101.30141,11.24063c-12.73058,-0.65028 -24.40632,-1.81846 -34.90295,-3.25598c-2.64025,-0.36158 1.81713,-8.32756 -0.69496,-8.13192c-33.3368,2.59632 -61.10067,-6.2976 -61.10067,-6.2976" fill="none" stroke="#41d375" stroke-width="8.5" stroke-linecap="round"/><path d="M433.19526,72.11721c0,0 -40.78321,7.13236 -62.03641,7.75289c-24.06355,0.70259 -74.96359,-3.75289 -74.96359,-3.75289" fill="none" stroke="#41d375" stroke-width="8.5" stroke-linecap="round"/><path d="M322.19525,53.11721c0,0 12.02237,14.67097 15.77968,34.19379c7.91648,41.13378 -4.77968,47.80621 -4.77968,47.80621" fill="none" stroke="#41d375" stroke-width="8.5" stroke-linecap="round"/><path d="M357.19526,47.11721c0,0 13.8224,19.1837 18.20175,36.17636c8.02678,31.14534 0.79825,49.82364 0.79825,49.82364" fill="none" stroke="#41d375" stroke-width="8.5" stroke-linecap="round"/><path d="M386.19526,46.11721c0,0 18.64262,29.41967 21.8869,42.75724c4.62238,25.78088 -2.8869,43.24276 -2.8869,43.24276" fill="none" stroke="#41d375" stroke-width="8.5" stroke-linecap="round"/><path d="M312.19525,266.11723c0,0 -6.62306,-18.39613 -12.80183,-61.00816c-1.82171,-12.56346 -3.57816,-45.45051 -3.69914,-68.02131c-0.34584,-64.52024 5.50098,-137.97053 5.50098,-137.97053" fill="none" stroke="#41d375" stroke-width="8.5" stroke-linecap="round"/><path d="M345.19528,137.11721c0,0 -0.35583,51.24964 -8.09981,76.43056c-5.30161,17.2391 -23.90019,41.56944 -23.90019,41.56944" fill="none" stroke="#41d375" stroke-width="8.5" stroke-linecap="round"/><path d="M379.19528,143.11721c0,0 -0.95798,46.44059 -5.89622,66.01717c-4.30909,17.08246 -22.10378,44.98283 -22.10378,44.98283" fill="none" stroke="#41d375" stroke-width="8.5" stroke-linecap="round"/><path d="M406.19528,131.11721c0,0 1.56966,65.84798 -7.30317,88.88322c-8.43871,21.90821 -44.69683,40.11678 -44.69683,40.11678" fill="none" stroke="#41d375" stroke-width="8.5" stroke-linecap="round"/><path d="M237.19524,242.11723c0,0 48.75266,15.42914 92.01969,13.5342c18.05905,-0.79092 32.82701,-1.87739 46.55571,-4.12622c21.40713,-3.5066 37.4246,-8.40798 37.4246,-8.40798l-33,77" fill="none" stroke="#41d375" stroke-width="8.5" stroke-linecap="round"/><path d="M281.19525,325.30089c0,0 -16.12064,-14.62231 -13.65536,-148.04457c2.04901,-110.89344 18.65536,-174.02278 18.65536,-174.02278" fill="none" stroke="#41d375" stroke-width="8.5" stroke-linecap="round"/><path d="M423.42097,221.84662c0,0 -37.55775,10.37665 -93.2309,8.13924c-55.31805,-2.22314 -88.99479,-12.80591 -88.99479,-12.80591" fill="none" stroke="#41d375" stroke-width="8.5" stroke-linecap="round"/><path d="M415.19528,137.84661c0,0 -35.86239,10.37665 -89.02245,8.13924c-52.82099,-2.22314 -84.97755,-12.80591 -84.97755,-12.80591" fill="none" stroke="#41d375" stroke-width="8.5" stroke-linecap="round"/><path d="M299.19525,59.11721c0,0 -17.70339,-0.29008 -25.64301,-1.44794c-8.05861,-1.17521 -22.35699,-5.55206 -22.35699,-5.55206" fill="none" stroke="#41d375" stroke-width="8.5" stroke-linecap="round"/><path d="M390.19526,21.11721c0,0 -55.18766,8.25762 -76.88747,7.02267c-18.9171,-1.07659 -53.11253,-5.02267 -53.11253,-5.02267" fill="none" stroke="#41d375" stroke-width="8.5" stroke-linecap="round"/><path d="M341.19524,38.11721l-7,-42" fill="none" stroke="#41d375" stroke-width="8.5" stroke-linecap="round"/><path d="M370.19527,257.11723c0,0 0.5715,18.39237 -0.71007,27.04295c-1.37808,9.30207 -7.28993,26.95705 -7.28993,26.95705" fill="none" stroke="#41d375" stroke-width="8.5" stroke-linecap="round"/><path d="M241.19523,247.11723c0,0 12.78512,31.95997 16.17961,45.89525c2.83907,11.65512 2.82039,32.10475 2.82039,32.10475" fill="none" stroke="#41d375" stroke-width="8.5" stroke-linecap="round"/><path d="M315.19525,288.11723c0,0 -21.27578,4 -32,4c-13.35897,0 -44,-7 -44,-7" fill="none" stroke="#41d375" stroke-width="8.5" stroke-linecap="round"/><path d="M301.62232,336.11723c0,0 -1.28091,-29.17896 -0.21541,-43.3914c0.81686,-10.89577 6.06307,-34.6086 6.06307,-34.6086" fill="none" stroke="#41d375" stroke-width="8.5" stroke-linecap="round"/><path d="M411.19527,278.11723c0,0 -22.3118,4.66704 -31.97415,4.50045c-9.67097,-0.16675 -26.02585,-3.50045 -26.02585,-3.50045" fill="none" stroke="#41d375" stroke-width="8.5" stroke-linecap="round"/><path d="M221.21923,253.11721c0,0 -16.9497,-42.37291 -11.65784,-82.90069c2.43883,-18.67784 22.36709,-26.09931 22.36709,-26.09931" fill="none" stroke="#41d375" stroke-width="7" stroke-linecap="round"/><path d="M201.19525,247.11721c0,0 -15.54664,-85.66951 -4.0554,-123.44643c7.64319,-25.12663 37.0554,-28.55357 37.0554,-28.55357" fill="none" stroke="#41d375" stroke-width="7" stroke-linecap="round"/><path d="M233.19522,119.11721c0,0 -18.95164,0.83137 -26.90769,-1.33846c-6.34103,-1.72937 -17.09231,-4.66154 -17.09231,-4.66154" fill="none" stroke="#41d375" stroke-width="7" stroke-linecap="round"/><path d="M226.19522,148.11721c0,0 -18.95164,0.83137 -26.90769,-1.33846c-6.34103,-1.72937 -17.09231,-4.66154 -17.09231,-4.66154" fill="none" stroke="#41d375" stroke-width="7" stroke-linecap="round"/><path d="M230.19522,186.11721c0,0 -18.95164,0.83137 -26.90769,-1.33846c-6.34103,-1.72937 -17.09231,-4.66154 -17.09231,-4.66154" fill="none" stroke="#41d375" stroke-width="7" stroke-linecap="round"/><path d="M237.19522,230.11721c0,0 -18.95164,0.83137 -26.90769,-1.33846c-2.64551,-0.7215 -6.05867,-1.65236 -9.13847,-2.49231c-4.30218,-1.17332 -7.95385,-2.16923 -7.95385,-2.16923" fill="none" stroke="#41d375" stroke-width="7" stroke-linecap="round"/></g></g></svg>