<svg version="1.1" xmlns="http://www.w3.org/2000/svg" xmlns:xlink="http://www.w3.org/1999/xlink" width="175.30545" height="34.03135" viewBox="0,0,175.30545,34.03135"><g transform="translate(-364.42985,-185.50711)"><g stroke="none" stroke-width="0" stroke-miterlimit="10"><path d="M364.42986,216.52463c0,-6.84528 0,-24.02347 0,-27.87807c0,-1.58227 1.40855,-3.13944 3.39057,-3.13944c12.90807,0 146.00968,0 168.64989,0c2.11407,0 3.26499,1.77166 3.26499,3.51615c0,3.95359 0,20.56096 0,27.37578c0,1.93354 -1.05993,3.13942 -3.01384,3.13942c-6.00759,0 -20.46635,0 -38.55213,0c-47.8042,0 -120.94862,0 -130.34891,0c-1.98203,0 -3.39057,-1.15295 -3.39057,-3.01385z" fill="#2be9c6" stroke-linecap="butt"/><path d="M436.62008,185.75828h39.88862l-22.07276,33.52906h-40.36161z" fill="#93f4e2" stroke-linecap="round"/><path d="M482.49988,185.88384h20.02313l-23.01873,33.40349h-20.33847z" fill="#93f4e2" stroke-linecap="round"/></g></g></svg>