<svg version="1.1" xmlns="http://www.w3.org/2000/svg" xmlns:xlink="http://www.w3.org/1999/xlink" width="4539.37502" height="241.16667" viewBox="0,0,4539.37502,241.16667"><g transform="translate(1274.04166,0.25)"><g fill="none" stroke-opacity="0.16863" stroke="#ffffff" stroke-width="0.5" stroke-linecap="round" stroke-miterlimit="10"><g><g><g><g><path d="M345.25001,70.66667h-59.66667"/><path d="M356.58334,68.77212h60.33333"/><path d="M428.25001,66.49866h93.33333"/><path d="M525.58334,69.15102h92"/><path d="M627.50001,61.95174h-100.33333"/><path d="M520.16668,60.05719h-90.33333"/><path d="M423.50001,65.74084h-111.33333"/><path d="M217.50001,62.70957h73"/><path d="M206.16668,70.66667h57.33333"/><path d="M202.83335,61.95174h-68.66667"/><path d="M101.83334,69.15102h61.66667"/><path d="M35.16668,58.92046h65.33333"/><path d="M-5.16666,66.49866h45"/><path d="M9.50001,51.72118h51.66667"/><path d="M57.83334,38.45933h82.33333"/><path d="M77.83334,50.20554h80.33333"/><path d="M162.83335,54.75246h74.33333"/><path d="M170.50001,44.9008h66.66667"/><path d="M235.50002,33.91242h-85.66667"/><path d="M241.16668,48.6899h56"/><path d="M261.16668,55.88919h75.66667"/><path d="M417.83334,60.05719h-70.33333"/><path d="M412.83335,44.9008h-89.66667"/><path d="M257.50001,36.56479h106.33333"/><path d="M393.16668,52.85791h103"/><path d="M471.16668,38.45933h115.66667"/><path d="M634.16668,54.37354h-115"/><path d="M612.83335,41.86952h34"/><path d="M638.83335,26.71314h-32"/><path d="M607.50001,43.38517h-75.33333"/><path d="M430.16668,22.16622h-60.33333"/><path d="M174.50001,25.57641h128.66667"/><path d="M446.41668,29.3655h-125"/><path d="M428.41668,45.65863h93"/><path d="M468.75001,27.84987h110"/><path d="M447.66668,21.4084h191.66667"/><path d="M138.83335,29.74442h-64.33333"/><path d="M8.83335,30.50223h52"/><path d="M40.50001,40.73279h-36.66667"/><path d="M24.83335,15.72475h128.66667"/><path d="M170.50001,15.34584h123.66667"/><path d="M363.50002,17.2404h-50.66667"/><path d="M533.50002,8.90438h-170.66667"/><path d="M650.08335,13.64075h-89"/><path d="M38.08335,0h85"/><path d="M309.08335,5.68365h-146"/><path d="M352.08335,3.41019h200"/></g><g><path d="M981.25002,70.66667h-59.66667"/><path d="M992.58335,68.77212h60.33333"/><path d="M1157.58335,66.49866h-93.33333"/><path d="M1161.58335,69.15102h92"/><path d="M1163.16669,61.95174h100.33333"/><path d="M1065.83336,60.05719h90.33333"/><path d="M948.16668,65.74084h111.33333"/><path d="M853.50002,62.70957h73"/><path d="M899.50002,70.66667h-57.33333"/><path d="M838.83336,61.95174h-68.66667"/><path d="M737.83335,69.15102h61.66667"/><path d="M736.50002,58.92046h-65.33333"/><path d="M675.83335,66.49866h-45"/><path d="M645.50001,51.72118h51.66667"/><path d="M776.16668,38.45933h-82.33333"/><path d="M713.83335,50.20554h80.33333"/><path d="M873.16669,54.75246h-74.33333"/><path d="M873.16669,44.9008h-66.66667"/><path d="M871.50003,33.91242h-85.66667"/><path d="M933.16669,48.6899h-56"/><path d="M897.16669,55.88919h75.66667"/><path d="M983.50002,60.05719h70.33333"/><path d="M1048.83335,44.9008h-89.66667"/><path d="M999.83335,36.56479h-106.33333"/><path d="M1132.16668,52.85791h-103"/><path d="M1222.83335,38.45933h-115.66667"/><path d="M1270.16669,54.37354h-115"/><path d="M1282.83336,41.86952h-34"/><path d="M1274.83336,26.71314h-32"/><path d="M1243.50002,43.38517h-75.33333"/><path d="M1066.16669,22.16622h-60.33333"/><path d="M939.16668,25.57641h-128.66667"/><path d="M957.41668,29.3655h125"/><path d="M1064.41668,45.65863h93"/><path d="M1214.75002,27.84987h-110"/><path d="M1275.33335,21.4084h-191.66667"/><path d="M774.83336,29.74442h-64.33333"/><path d="M696.83336,30.50223h-52"/><path d="M676.50002,40.73279h-36.66667"/><path d="M660.83336,15.72475h128.66667"/><path d="M806.50002,15.34584h123.66667"/><path d="M948.83336,17.2404h50.66667"/><path d="M1169.50003,8.90438h-170.66667"/><path d="M1197.08336,13.64075h89"/><path d="M674.08336,0h85"/><path d="M945.08336,5.68365h-146"/><path d="M988.08336,3.41019h200"/></g></g><g><g><path d="M-923.37499,70.66667h-59.66667"/><path d="M-851.70833,68.77212h-60.33333"/><path d="M-840.37499,66.49866h93.33333"/><path d="M-743.04166,69.15102h92"/><path d="M-741.45832,61.95174h100.33333"/><path d="M-838.79165,60.05719h90.33333"/><path d="M-845.12499,65.74084h-111.33333"/><path d="M-1051.12499,62.70957h73"/><path d="M-1062.45832,70.66667h57.33333"/><path d="M-1134.45832,61.95174h68.66667"/><path d="M-1166.79166,69.15102h61.66667"/><path d="M-1233.45832,58.92046h65.33333"/><path d="M-1228.79166,66.49866h-45"/><path d="M-1259.12499,51.72118h51.66667"/><path d="M-1210.79166,38.45933h82.33333"/><path d="M-1190.79166,50.20554h80.33333"/><path d="M-1105.79165,54.75246h74.33333"/><path d="M-1098.12499,44.9008h66.66667"/><path d="M-1118.79165,33.91242h85.66667"/><path d="M-971.45832,48.6899h-56"/><path d="M-931.79165,55.88919h-75.66667"/><path d="M-921.12499,60.05719h70.33333"/><path d="M-945.45832,44.9008h89.66667"/><path d="M-904.79166,36.56479h-106.33333"/><path d="M-875.45832,52.85791h103"/><path d="M-681.79165,38.45933h-115.66667"/><path d="M-634.45832,54.37354h-115"/><path d="M-621.79165,41.86952h-34"/><path d="M-661.79165,26.71314h32"/><path d="M-736.45832,43.38517h75.33333"/><path d="M-898.79165,22.16622h60.33333"/><path d="M-965.45832,25.57641h-128.66667"/><path d="M-947.20832,29.3655h125"/><path d="M-747.20832,45.65863h-93"/><path d="M-799.87499,27.84987h110"/><path d="M-820.95832,21.4084h191.66667"/><path d="M-1194.12498,29.74442h64.33333"/><path d="M-1259.79165,30.50223h52"/><path d="M-1228.12499,40.73279h-36.66667"/><path d="M-1243.79165,15.72475h128.66667"/><path d="M-1098.12499,15.34584h123.66667"/><path d="M-955.79165,17.2404h50.66667"/><path d="M-735.12498,8.90438h-170.66667"/><path d="M-618.54165,13.64075h-89"/><path d="M-1230.54165,0h85"/><path d="M-1105.54165,5.68365h146"/><path d="M-916.54165,3.41019h200"/></g><g><path d="M-347.04166,70.66667h59.66667"/><path d="M-276.04166,68.77212h60.33333"/><path d="M-111.04166,66.49866h-93.33333"/><path d="M-107.04166,69.15102h92"/><path d="M-105.45832,61.95174h100.33333"/><path d="M-202.79165,60.05719h90.33333"/><path d="M-209.12499,65.74084h-111.33333"/><path d="M-342.12499,62.70957h-73"/><path d="M-369.12499,70.66667h-57.33333"/><path d="M-498.45832,61.95174h68.66667"/><path d="M-469.12499,69.15102h-61.66667"/><path d="M-597.45832,58.92046h65.33333"/><path d="M-637.79166,66.49866h45"/><path d="M-571.45832,51.72118h-51.66667"/><path d="M-574.79166,38.45933h82.33333"/><path d="M-474.45833,50.20554h-80.33333"/><path d="M-469.79165,54.75246h74.33333"/><path d="M-462.12499,44.9008h66.66667"/><path d="M-397.12498,33.91242h-85.66667"/><path d="M-335.45832,48.6899h-56"/><path d="M-371.45832,55.88919h75.66667"/><path d="M-285.12499,60.05719h70.33333"/><path d="M-309.45832,44.9008h89.66667"/><path d="M-268.79166,36.56479h-106.33333"/><path d="M-239.45832,52.85791h103"/><path d="M-45.79165,38.45933h-115.66667"/><path d="M-113.45832,54.37354h115"/><path d="M14.20835,41.86952h-34"/><path d="M-25.79165,26.71314h32"/><path d="M-100.45832,43.38517h75.33333"/><path d="M-202.45832,22.16622h-60.33333"/><path d="M-329.45832,25.57641h-128.66667"/><path d="M-186.20832,29.3655h-125"/><path d="M-111.20832,45.65863h-93"/><path d="M-163.87499,27.84987h110"/><path d="M-184.95832,21.4084h191.66667"/><path d="M-558.12498,29.74442h64.33333"/><path d="M-571.79165,30.50223h-52"/><path d="M-628.79166,40.73279h36.66667"/><path d="M-479.12498,15.72475h-128.66667"/><path d="M-338.45832,15.34584h-123.66667"/><path d="M-319.79165,17.2404h50.66667"/><path d="M-99.12498,8.90438h-170.66667"/><path d="M17.45835,13.64075h-89"/><path d="M-509.54165,0h-85"/><path d="M-323.54165,5.68365h-146"/><path d="M-280.54165,3.41019h200"/></g></g></g><g><g><g><path d="M285.58335,118.5h59.66667"/><path d="M356.58335,121.77525h60.33333"/><path d="M521.58335,125.70555h-93.33333"/><path d="M617.58335,121.12021h-92"/><path d="M627.50001,133.56614h-100.33333"/><path d="M520.16669,136.84139h-90.33333"/><path d="M423.50001,127.01565h-111.33333"/><path d="M217.50002,132.25603h73"/><path d="M263.50002,118.5h-57.33333"/><path d="M202.83336,133.56614h-68.66667"/><path d="M163.50001,121.12021h-61.66667"/><path d="M100.50001,138.80654h-65.33333"/><path d="M-5.16666,125.70555h45"/><path d="M61.16668,151.25246h-51.66667"/><path d="M140.16668,174.17919h-82.33333"/><path d="M77.83334,153.87265h80.33333"/><path d="M237.16669,146.01206h-74.33333"/><path d="M237.16669,163.04335h-66.66667"/><path d="M149.83336,182.03978h85.66667"/><path d="M297.16668,156.49286h-56"/><path d="M336.83336,144.04692h-75.66667"/><path d="M417.83335,136.84139h-70.33333"/><path d="M323.16669,163.04335h89.66667"/><path d="M363.83335,177.45442h-106.33333"/><path d="M496.16669,149.28732h-103"/><path d="M471.16669,174.17919h115.66667"/><path d="M634.16669,146.66713h-115"/><path d="M612.83336,168.28375h34"/><path d="M638.83336,194.48571h-32"/><path d="M532.16668,165.66354h75.33333"/><path d="M430.16669,202.3463h-60.33333"/><path d="M174.50001,196.45085h128.66667"/><path d="M321.41668,189.90037h125"/><path d="M428.41669,161.73324h93"/><path d="M468.75001,192.52056h110"/><path d="M639.33336,203.6564h-191.66667"/><path d="M74.50003,189.24531h64.33333"/><path d="M8.83335,187.93522h52"/><path d="M40.50001,170.24889h-36.66667"/><path d="M153.50003,213.48214h-128.66667"/><path d="M170.50002,214.13718h123.66667"/><path d="M363.50003,210.86193h-50.66667"/><path d="M362.83336,225.27302h170.66667"/><path d="M650.08336,217.0849h-89"/><path d="M123.08335,240.66667h-85"/><path d="M309.08336,230.84093h-146"/><path d="M552.08336,234.77123h-200"/></g><g><path d="M981.25002,118.5h-59.66667"/><path d="M1052.91668,121.77525h-60.33333"/><path d="M1064.25002,125.70555h93.33333"/><path d="M1253.58335,121.12021h-92"/><path d="M1263.50002,133.56614h-100.33333"/><path d="M1156.16668,136.84139h-90.33333"/><path d="M1059.50002,127.01565h-111.33333"/><path d="M853.50002,132.25603h73"/><path d="M899.50002,118.5h-57.33333"/><path d="M838.83336,133.56614h-68.66667"/><path d="M737.83335,121.12021h61.66667"/><path d="M671.16669,138.80654h65.33333"/><path d="M630.83335,125.70555h45"/><path d="M697.16668,151.25246h-51.66667"/><path d="M776.16668,174.17919h-82.33333"/><path d="M794.16668,153.87265h-80.33333"/><path d="M873.16669,146.01206h-74.33333"/><path d="M873.16669,163.04335h-66.66667"/><path d="M785.83336,182.03978h85.66667"/><path d="M933.16669,156.49286h-56"/><path d="M897.16669,144.04692h75.66667"/><path d="M983.50002,136.84139h70.33333"/><path d="M1048.83336,163.04335h-89.66667"/><path d="M893.50002,177.45442h106.33333"/><path d="M1132.16668,149.28732h-103"/><path d="M1222.83336,174.17919h-115.66667"/><path d="M1155.16668,146.66713h115"/><path d="M1282.83336,168.28375h-34"/><path d="M1274.83336,194.48571h-32"/><path d="M1168.16669,165.66354h75.33333"/><path d="M1005.83336,202.3463h60.33333"/><path d="M810.50002,196.45085h128.66667"/><path d="M1082.41669,189.90037h-125"/><path d="M1157.41668,161.73324h-93"/><path d="M1214.75002,192.52056h-110"/><path d="M1083.66668,203.6564h191.66667"/><path d="M774.83336,189.24531h-64.33333"/><path d="M644.83336,187.93522h52"/><path d="M676.50002,170.24889h-36.66667"/><path d="M789.50003,213.48214h-128.66667"/><path d="M806.50002,214.13718h123.66667"/><path d="M948.83336,210.86193h50.66667"/><path d="M1169.50003,225.27302h-170.66667"/><path d="M1286.08336,217.0849h-89"/><path d="M674.08336,240.66667h85"/><path d="M799.08336,230.84093h146"/><path d="M1188.08336,234.77123h-200"/></g></g><g><g><path d="M-983.04166,118.5h59.66667"/><path d="M-851.70833,121.77525h-60.33333"/><path d="M-747.04166,125.70555h-93.33333"/><path d="M-651.04166,121.12021h-92"/><path d="M-741.45832,133.56614h100.33333"/><path d="M-838.79165,136.84139h90.33333"/><path d="M-956.45832,127.01565h111.33333"/><path d="M-1051.12499,132.25603h73"/><path d="M-1005.12499,118.5h-57.33333"/><path d="M-1065.79165,133.56614h-68.66667"/><path d="M-1105.12499,121.12021h-61.66667"/><path d="M-1168.12499,138.80654h-65.33333"/><path d="M-1228.79166,125.70555h-45"/><path d="M-1259.12499,151.25246h51.66667"/><path d="M-1210.79166,174.17919h82.33333"/><path d="M-1190.79166,153.87265h80.33333"/><path d="M-1031.45832,146.01206h-74.33333"/><path d="M-1098.12499,163.04335h66.66667"/><path d="M-1118.79165,182.03978h85.66667"/><path d="M-1027.45832,156.49286h56"/><path d="M-931.79165,144.04692h-75.66667"/><path d="M-921.12499,136.84139h70.33333"/><path d="M-855.79165,163.04335h-89.66667"/><path d="M-1011.12499,177.45442h106.33333"/><path d="M-772.45832,149.28732h-103"/><path d="M-797.45832,174.17919h115.66667"/><path d="M-749.45832,146.66713h115"/><path d="M-621.79165,168.28375h-34"/><path d="M-661.79165,194.48571h32"/><path d="M-736.45832,165.66354h75.33333"/><path d="M-838.45832,202.3463h-60.33333"/><path d="M-1094.12499,196.45085h128.66667"/><path d="M-947.20832,189.90037h125"/><path d="M-840.20832,161.73324h93"/><path d="M-799.87499,192.52056h110"/><path d="M-629.29165,203.6564h-191.66667"/><path d="M-1129.79165,189.24531h-64.33333"/><path d="M-1259.79165,187.93522h52"/><path d="M-1264.79166,170.24889h36.66667"/><path d="M-1115.12498,213.48214h-128.66667"/><path d="M-1098.12499,214.13718h123.66667"/><path d="M-955.79165,210.86193h50.66667"/><path d="M-735.12498,225.27302h-170.66667"/><path d="M-707.54165,217.0849h89"/><path d="M-1230.54165,240.66667h85"/><path d="M-959.54165,230.84093h-146"/><path d="M-716.54165,234.77123h-200"/></g><g><path d="M-287.37499,118.5h-59.66667"/><path d="M-215.70833,121.77525h-60.33333"/><path d="M-204.37499,125.70555h93.33333"/><path d="M-15.04166,121.12021h-92"/><path d="M-105.45832,133.56614h100.33333"/><path d="M-202.79165,136.84139h90.33333"/><path d="M-320.45832,127.01565h111.33333"/><path d="M-415.12499,132.25603h73"/><path d="M-426.45832,118.5h57.33333"/><path d="M-498.45832,133.56614h68.66667"/><path d="M-530.79166,121.12021h61.66667"/><path d="M-532.12499,138.80654h-65.33333"/><path d="M-637.79166,125.70555h45"/><path d="M-571.45832,151.25246h-51.66667"/><path d="M-492.45833,174.17919h-82.33333"/><path d="M-474.45833,153.87265h-80.33333"/><path d="M-395.45832,146.01206h-74.33333"/><path d="M-462.12499,163.04335h66.66667"/><path d="M-397.12498,182.03978h-85.66667"/><path d="M-391.45832,156.49286h56"/><path d="M-295.79165,144.04692h-75.66667"/><path d="M-285.12499,136.84139h70.33333"/><path d="M-309.45832,163.04335h89.66667"/><path d="M-268.79166,177.45442h-106.33333"/><path d="M-239.45832,149.28732h103"/><path d="M-45.79165,174.17919h-115.66667"/><path d="M-113.45832,146.66713h115"/><path d="M14.20835,168.28375h-34"/><path d="M6.20835,194.48571h-32"/><path d="M-100.45832,165.66354h75.33333"/><path d="M-262.79165,202.3463h60.33333"/><path d="M-458.12499,196.45085h128.66667"/><path d="M-311.20832,189.90037h125"/><path d="M-111.20832,161.73324h-93"/><path d="M-53.87499,192.52056h-110"/><path d="M6.70835,203.6564h-191.66667"/><path d="M-558.12498,189.24531h64.33333"/><path d="M-623.79165,187.93522h52"/><path d="M-628.79166,170.24889h36.66667"/><path d="M-479.12498,213.48214h-128.66667"/><path d="M-462.12499,214.13718h123.66667"/><path d="M-319.79165,210.86193h50.66667"/><path d="M-269.79165,225.27302h170.66667"/><path d="M17.45835,217.0849h-89"/><path d="M-509.54165,240.66667h-85"/><path d="M-323.54165,230.84093h-146"/><path d="M-280.54165,234.77123h200"/></g></g></g><g><g><g><path d="M285.58335,132.5h59.66667"/><path d="M356.58335,134.78329h60.33333"/><path d="M428.25002,137.52324h93.33333"/><path d="M525.58335,134.32664h92"/><path d="M527.16668,143.00313h100.33333"/><path d="M429.83336,145.28643h90.33333"/><path d="M312.16668,138.43656h111.33333"/><path d="M217.50002,142.08981h73"/><path d="M263.50002,132.5h-57.33333"/><path d="M134.16669,143.00313h68.66667"/><path d="M101.83334,134.32664h61.66667"/><path d="M35.16668,146.6564h65.33333"/><path d="M39.83334,137.52324h-45"/><path d="M9.50001,155.33289h51.66667"/><path d="M57.83335,171.31592h82.33333"/><path d="M77.83334,157.15952h80.33333"/><path d="M162.83336,151.67963h74.33333"/><path d="M170.50002,163.55273h66.66667"/><path d="M149.83336,176.79581h85.66667"/><path d="M297.16668,158.98616h-56"/><path d="M336.83336,150.30965h-75.66667"/><path d="M417.83335,145.28643h-70.33333"/><path d="M412.83336,163.55273h-89.66667"/><path d="M363.83335,173.59919h-106.33333"/><path d="M496.16669,153.96292h-103"/><path d="M471.16669,171.31592h115.66667"/><path d="M519.16669,152.13629h115"/><path d="M612.83336,167.20599h34"/><path d="M638.83336,185.4723h-32"/><path d="M607.50001,165.37936h-75.33333"/><path d="M369.83336,190.95219h60.33333"/><path d="M303.16668,186.84227h-128.66667"/><path d="M321.41668,182.2757h125"/><path d="M428.41669,162.63941h93"/><path d="M468.75001,184.10233h110"/><path d="M639.33336,191.86551h-191.66667"/><path d="M74.50003,181.81903h64.33333"/><path d="M60.83335,180.90573h-52"/><path d="M40.50001,168.57597h-36.66667"/><path d="M153.50003,198.71538h-128.66667"/><path d="M170.50002,199.17203h123.66667"/><path d="M363.50003,196.88874h-50.66667"/><path d="M533.50003,206.93522h-170.66667"/><path d="M650.08336,201.22699h-89"/><path d="M123.08335,217.66667h-85"/><path d="M163.08336,210.81681h146"/><path d="M352.08336,213.55675h200"/></g><g><path d="M921.58335,132.5h59.66667"/><path d="M992.58335,134.78329h60.33333"/><path d="M1064.25002,137.52324h93.33333"/><path d="M1161.58335,134.32664h92"/><path d="M1263.50002,143.00313h-100.33333"/><path d="M1156.16668,145.28643h-90.33333"/><path d="M1059.50002,138.43656h-111.33333"/><path d="M853.50002,142.08981h73"/><path d="M899.50002,132.5h-57.33333"/><path d="M770.16669,143.00313h68.66667"/><path d="M737.83335,134.32664h61.66667"/><path d="M671.16669,146.6564h65.33333"/><path d="M675.83335,137.52324h-45"/><path d="M645.50001,155.33289h51.66667"/><path d="M693.83335,171.31592h82.33333"/><path d="M713.83335,157.15952h80.33333"/><path d="M798.83336,151.67963h74.33333"/><path d="M873.16669,163.55273h-66.66667"/><path d="M871.50003,176.79581h-85.66667"/><path d="M933.16669,158.98616h-56"/><path d="M972.83336,150.30965h-75.66667"/><path d="M983.50002,145.28643h70.33333"/><path d="M1048.83336,163.55273h-89.66667"/><path d="M893.50002,173.59919h106.33333"/><path d="M1029.16668,153.96292h103"/><path d="M1222.83336,171.31592h-115.66667"/><path d="M1155.16668,152.13629h115"/><path d="M1248.83336,167.20599h34"/><path d="M1274.83336,185.4723h-32"/><path d="M1168.16669,165.37936h75.33333"/><path d="M1066.16669,190.95219h-60.33333"/><path d="M810.50002,186.84227h128.66667"/><path d="M1082.41669,182.2757h-125"/><path d="M1064.41668,162.63941h93"/><path d="M1214.75002,184.10233h-110"/><path d="M1083.66668,191.86551h191.66667"/><path d="M774.83336,181.81903h-64.33333"/><path d="M696.83336,180.90573h-52"/><path d="M676.50002,168.57597h-36.66667"/><path d="M789.50003,198.71538h-128.66667"/><path d="M930.16669,199.17203h-123.66667"/><path d="M948.83336,196.88874h50.66667"/><path d="M1169.50003,206.93522h-170.66667"/><path d="M1197.08336,201.22699h89"/><path d="M759.08336,217.66667h-85"/><path d="M945.08336,210.81681h-146"/><path d="M1188.08336,213.55675h-200"/></g></g><g><g><path d="M-923.37499,132.5h-59.66667"/><path d="M-912.04166,134.78329h60.33333"/><path d="M-747.04166,137.52324h-93.33333"/><path d="M-651.04166,134.32664h-92"/><path d="M-641.12499,143.00313h-100.33333"/><path d="M-748.45832,145.28643h-90.33333"/><path d="M-845.12499,138.43656h-111.33333"/><path d="M-978.12499,142.08981h-73"/><path d="M-1062.45832,132.5h57.33333"/><path d="M-1134.45832,143.00313h68.66667"/><path d="M-1105.12499,134.32664h-61.66667"/><path d="M-1168.12499,146.6564h-65.33333"/><path d="M-1228.79166,137.52324h-45"/><path d="M-1259.12499,155.33289h51.66667"/><path d="M-1210.79166,171.31592h82.33333"/><path d="M-1190.79166,157.15952h80.33333"/><path d="M-1105.79165,151.67963h74.33333"/><path d="M-1098.12499,163.55273h66.66667"/><path d="M-1033.12498,176.79581h-85.66667"/><path d="M-1027.45832,158.98616h56"/><path d="M-931.79165,150.30965h-75.66667"/><path d="M-921.12499,145.28643h70.33333"/><path d="M-945.45832,163.55273h89.66667"/><path d="M-1011.12499,173.59919h106.33333"/><path d="M-772.45832,153.96292h-103"/><path d="M-797.45832,171.31592h115.66667"/><path d="M-634.45832,152.13629h-115"/><path d="M-621.79165,167.20599h-34"/><path d="M-629.79165,185.4723h-32"/><path d="M-736.45832,165.37936h75.33333"/><path d="M-898.79165,190.95219h60.33333"/><path d="M-965.45832,186.84227h-128.66667"/><path d="M-947.20832,182.2757h125"/><path d="M-840.20832,162.63941h93"/><path d="M-689.87499,184.10233h-110"/><path d="M-629.29165,191.86551h-191.66667"/><path d="M-1194.12498,181.81903h64.33333"/><path d="M-1207.79165,180.90573h-52"/><path d="M-1228.12499,168.57597h-36.66667"/><path d="M-1243.79165,198.71538h128.66667"/><path d="M-974.45832,199.17203h-123.66667"/><path d="M-955.79165,196.88874h50.66667"/><path d="M-905.79165,206.93522h170.66667"/><path d="M-707.54165,201.22699h89"/><path d="M-1230.54165,217.66667h85"/><path d="M-1105.54165,210.81681h146"/><path d="M-916.54165,213.55675h200"/></g><g><path d="M-347.04166,132.5h59.66667"/><path d="M-276.04166,134.78329h60.33333"/><path d="M-204.37499,137.52324h93.33333"/><path d="M-107.04166,134.32664h92"/><path d="M-105.45832,143.00313h100.33333"/><path d="M-112.45832,145.28643h-90.33333"/><path d="M-320.45832,138.43656h111.33333"/><path d="M-415.12499,142.08981h73"/><path d="M-426.45832,132.5h57.33333"/><path d="M-498.45832,143.00313h68.66667"/><path d="M-469.12499,134.32664h-61.66667"/><path d="M-532.12499,146.6564h-65.33333"/><path d="M-637.79166,137.52324h45"/><path d="M-571.45832,155.33289h-51.66667"/><path d="M-492.45833,171.31592h-82.33333"/><path d="M-474.45833,157.15952h-80.33333"/><path d="M-395.45832,151.67963h-74.33333"/><path d="M-395.45832,163.55273h-66.66667"/><path d="M-482.79165,176.79581h85.66667"/><path d="M-335.45832,158.98616h-56"/><path d="M-371.45832,150.30965h75.66667"/><path d="M-285.12499,145.28643h70.33333"/><path d="M-309.45832,163.55273h89.66667"/><path d="M-268.79166,173.59919h-106.33333"/><path d="M-136.45832,153.96292h-103"/><path d="M-45.79165,171.31592h-115.66667"/><path d="M1.54168,152.13629h-115"/><path d="M-19.79165,167.20599h34"/><path d="M-25.79165,185.4723h32"/><path d="M-100.45832,165.37936h75.33333"/><path d="M-262.79165,190.95219h60.33333"/><path d="M-329.45832,186.84227h-128.66667"/><path d="M-311.20832,182.2757h125"/><path d="M-111.20832,162.63941h-93"/><path d="M-53.87499,184.10233h-110"/><path d="M-184.95832,191.86551h191.66667"/><path d="M-493.79165,181.81903h-64.33333"/><path d="M-623.79165,180.90573h52"/><path d="M-592.12499,168.57597h-36.66667"/><path d="M-479.12498,198.71538h-128.66667"/><path d="M-462.12499,199.17203h123.66667"/><path d="M-319.79165,196.88874h50.66667"/><path d="M-99.12498,206.93522h-170.66667"/><path d="M-71.54165,201.22699h89"/><path d="M-594.54165,217.66667h85"/><path d="M-323.54165,210.81681h-146"/><path d="M-80.54165,213.55675h-200"/></g></g></g></g><g><g><g><g><path d="M2324.25001,70.66667h-59.66667"/><path d="M2335.58334,68.77212h60.33333"/><path d="M2407.25001,66.49866h93.33333"/><path d="M2504.58334,69.15102h92"/><path d="M2606.50001,61.95174h-100.33333"/><path d="M2499.16668,60.05719h-90.33333"/><path d="M2402.50001,65.74084h-111.33333"/><path d="M2196.50001,62.70957h73"/><path d="M2185.16668,70.66667h57.33333"/><path d="M2181.83335,61.95174h-68.66667"/><path d="M2080.83334,69.15102h61.66667"/><path d="M2014.16668,58.92046h65.33333"/><path d="M1973.83334,66.49866h45"/><path d="M1988.50001,51.72118h51.66667"/><path d="M2036.83334,38.45933h82.33333"/><path d="M2056.83334,50.20554h80.33333"/><path d="M2141.83335,54.75246h74.33333"/><path d="M2149.50001,44.9008h66.66667"/><path d="M2214.50002,33.91242h-85.66667"/><path d="M2220.16668,48.6899h56"/><path d="M2240.16668,55.88919h75.66667"/><path d="M2396.83334,60.05719h-70.33333"/><path d="M2391.83335,44.9008h-89.66667"/><path d="M2236.50001,36.56479h106.33333"/><path d="M2372.16668,52.85791h103"/><path d="M2450.16668,38.45933h115.66667"/><path d="M2613.16668,54.37354h-115"/><path d="M2591.83335,41.86952h34"/><path d="M2617.83335,26.71314h-32"/><path d="M2586.50001,43.38517h-75.33333"/><path d="M2409.16668,22.16622h-60.33333"/><path d="M2153.50001,25.57641h128.66667"/><path d="M2425.41668,29.3655h-125"/><path d="M2407.41668,45.65863h93"/><path d="M2447.75001,27.84987h110"/><path d="M2426.66668,21.4084h191.66667"/><path d="M2117.83335,29.74442h-64.33333"/><path d="M1987.83335,30.50223h52"/><path d="M2019.50001,40.73279h-36.66667"/><path d="M2003.83335,15.72475h128.66667"/><path d="M2149.50001,15.34584h123.66667"/><path d="M2342.50002,17.2404h-50.66667"/><path d="M2512.50002,8.90438h-170.66667"/><path d="M2629.08335,13.64075h-89"/><path d="M2017.08335,0h85"/><path d="M2288.08335,5.68365h-146"/><path d="M2331.08335,3.41019h200"/></g><g><path d="M2960.25002,70.66667h-59.66667"/><path d="M2971.58335,68.77212h60.33333"/><path d="M3136.58335,66.49866h-93.33333"/><path d="M3140.58335,69.15102h92"/><path d="M3142.16669,61.95174h100.33333"/><path d="M3044.83336,60.05719h90.33333"/><path d="M2927.16668,65.74084h111.33333"/><path d="M2832.50002,62.70957h73"/><path d="M2878.50002,70.66667h-57.33333"/><path d="M2817.83336,61.95174h-68.66667"/><path d="M2716.83335,69.15102h61.66667"/><path d="M2715.50002,58.92046h-65.33333"/><path d="M2654.83335,66.49866h-45"/><path d="M2624.50001,51.72118h51.66667"/><path d="M2755.16668,38.45933h-82.33333"/><path d="M2692.83335,50.20554h80.33333"/><path d="M2852.16669,54.75246h-74.33333"/><path d="M2852.16669,44.9008h-66.66667"/><path d="M2850.50003,33.91242h-85.66667"/><path d="M2912.16669,48.6899h-56"/><path d="M2876.16669,55.88919h75.66667"/><path d="M2962.50002,60.05719h70.33333"/><path d="M3027.83335,44.9008h-89.66667"/><path d="M2978.83335,36.56479h-106.33333"/><path d="M3111.16668,52.85791h-103"/><path d="M3201.83335,38.45933h-115.66667"/><path d="M3249.16669,54.37354h-115"/><path d="M3261.83336,41.86952h-34"/><path d="M3253.83336,26.71314h-32"/><path d="M3222.50002,43.38517h-75.33333"/><path d="M3045.16669,22.16622h-60.33333"/><path d="M2918.16668,25.57641h-128.66667"/><path d="M2936.41668,29.3655h125"/><path d="M3043.41668,45.65863h93"/><path d="M3193.75002,27.84987h-110"/><path d="M3254.33335,21.4084h-191.66667"/><path d="M2753.83336,29.74442h-64.33333"/><path d="M2675.83336,30.50223h-52"/><path d="M2655.50002,40.73279h-36.66667"/><path d="M2639.83336,15.72475h128.66667"/><path d="M2785.50002,15.34584h123.66667"/><path d="M2927.83336,17.2404h50.66667"/><path d="M3148.50003,8.90438h-170.66667"/><path d="M3176.08336,13.64075h89"/><path d="M2653.08336,0h85"/><path d="M2924.08336,5.68365h-146"/><path d="M2967.08336,3.41019h200"/></g></g><g><g><path d="M1055.62501,70.66667h-59.66667"/><path d="M1127.29167,68.77212h-60.33333"/><path d="M1138.62501,66.49866h93.33333"/><path d="M1235.95834,69.15102h92"/><path d="M1237.54168,61.95174h100.33333"/><path d="M1140.20835,60.05719h90.33333"/><path d="M1133.87501,65.74084h-111.33333"/><path d="M927.87501,62.70957h73"/><path d="M916.54168,70.66667h57.33333"/><path d="M844.54168,61.95174h68.66667"/><path d="M812.20834,69.15102h61.66667"/><path d="M745.54168,58.92046h65.33333"/><path d="M750.20834,66.49866h-45"/><path d="M719.87501,51.72118h51.66667"/><path d="M768.20834,38.45933h82.33333"/><path d="M788.20834,50.20554h80.33333"/><path d="M873.20835,54.75246h74.33333"/><path d="M880.87501,44.9008h66.66667"/><path d="M860.20835,33.91242h85.66667"/><path d="M1007.54168,48.6899h-56"/><path d="M1047.20835,55.88919h-75.66667"/><path d="M1057.87501,60.05719h70.33333"/><path d="M1033.54168,44.9008h89.66667"/><path d="M1074.20834,36.56479h-106.33333"/><path d="M1103.54168,52.85791h103"/><path d="M1297.20835,38.45933h-115.66667"/><path d="M1344.54168,54.37354h-115"/><path d="M1357.20835,41.86952h-34"/><path d="M1317.20835,26.71314h32"/><path d="M1242.54168,43.38517h75.33333"/><path d="M1080.20835,22.16622h60.33333"/><path d="M1013.54168,25.57641h-128.66667"/><path d="M1031.79168,29.3655h125"/><path d="M1231.79168,45.65863h-93"/><path d="M1179.12501,27.84987h110"/><path d="M1158.04168,21.4084h191.66667"/><path d="M784.87502,29.74442h64.33333"/><path d="M719.20835,30.50223h52"/><path d="M750.87501,40.73279h-36.66667"/><path d="M735.20835,15.72475h128.66667"/><path d="M880.87501,15.34584h123.66667"/><path d="M1023.20835,17.2404h50.66667"/><path d="M1243.87502,8.90438h-170.66667"/><path d="M1360.45835,13.64075h-89"/><path d="M748.45835,0h85"/><path d="M873.45835,5.68365h146"/><path d="M1062.45835,3.41019h200"/></g><g><path d="M1631.95834,70.66667h59.66667"/><path d="M1702.95834,68.77212h60.33333"/><path d="M1867.95834,66.49866h-93.33333"/><path d="M1871.95834,69.15102h92"/><path d="M1873.54168,61.95174h100.33333"/><path d="M1776.20835,60.05719h90.33333"/><path d="M1769.87501,65.74084h-111.33333"/><path d="M1636.87501,62.70957h-73"/><path d="M1609.87501,70.66667h-57.33333"/><path d="M1480.54168,61.95174h68.66667"/><path d="M1509.87501,69.15102h-61.66667"/><path d="M1381.54168,58.92046h65.33333"/><path d="M1341.20834,66.49866h45"/><path d="M1407.54168,51.72118h-51.66667"/><path d="M1404.20834,38.45933h82.33333"/><path d="M1504.54167,50.20554h-80.33333"/><path d="M1509.20835,54.75246h74.33333"/><path d="M1516.87501,44.9008h66.66667"/><path d="M1581.87502,33.91242h-85.66667"/><path d="M1643.54168,48.6899h-56"/><path d="M1607.54168,55.88919h75.66667"/><path d="M1693.87501,60.05719h70.33333"/><path d="M1669.54168,44.9008h89.66667"/><path d="M1710.20834,36.56479h-106.33333"/><path d="M1739.54168,52.85791h103"/><path d="M1933.20835,38.45933h-115.66667"/><path d="M1865.54168,54.37354h115"/><path d="M1993.20835,41.86952h-34"/><path d="M1953.20835,26.71314h32"/><path d="M1878.54168,43.38517h75.33333"/><path d="M1776.54168,22.16622h-60.33333"/><path d="M1649.54168,25.57641h-128.66667"/><path d="M1792.79168,29.3655h-125"/><path d="M1867.79168,45.65863h-93"/><path d="M1815.12501,27.84987h110"/><path d="M1794.04168,21.4084h191.66667"/><path d="M1420.87502,29.74442h64.33333"/><path d="M1407.20835,30.50223h-52"/><path d="M1350.20834,40.73279h36.66667"/><path d="M1499.87502,15.72475h-128.66667"/><path d="M1640.54168,15.34584h-123.66667"/><path d="M1659.20835,17.2404h50.66667"/><path d="M1879.87502,8.90438h-170.66667"/><path d="M1996.45835,13.64075h-89"/><path d="M1469.45835,0h-85"/><path d="M1655.45835,5.68365h-146"/><path d="M1698.45835,3.41019h200"/></g></g></g><g><g><g><path d="M2264.58335,118.5h59.66667"/><path d="M2335.58335,121.77525h60.33333"/><path d="M2500.58335,125.70555h-93.33333"/><path d="M2596.58335,121.12021h-92"/><path d="M2606.50001,133.56614h-100.33333"/><path d="M2499.16669,136.84139h-90.33333"/><path d="M2402.50001,127.01565h-111.33333"/><path d="M2196.50002,132.25603h73"/><path d="M2242.50002,118.5h-57.33333"/><path d="M2181.83336,133.56614h-68.66667"/><path d="M2142.50001,121.12021h-61.66667"/><path d="M2079.50001,138.80654h-65.33333"/><path d="M1973.83334,125.70555h45"/><path d="M2040.16668,151.25246h-51.66667"/><path d="M2119.16668,174.17919h-82.33333"/><path d="M2056.83334,153.87265h80.33333"/><path d="M2216.16669,146.01206h-74.33333"/><path d="M2216.16669,163.04335h-66.66667"/><path d="M2128.83336,182.03978h85.66667"/><path d="M2276.16668,156.49286h-56"/><path d="M2315.83336,144.04692h-75.66667"/><path d="M2396.83335,136.84139h-70.33333"/><path d="M2302.16669,163.04335h89.66667"/><path d="M2342.83335,177.45442h-106.33333"/><path d="M2475.16669,149.28732h-103"/><path d="M2450.16669,174.17919h115.66667"/><path d="M2613.16669,146.66713h-115"/><path d="M2591.83336,168.28375h34"/><path d="M2617.83336,194.48571h-32"/><path d="M2511.16668,165.66354h75.33333"/><path d="M2409.16669,202.3463h-60.33333"/><path d="M2153.50001,196.45085h128.66667"/><path d="M2300.41668,189.90037h125"/><path d="M2407.41669,161.73324h93"/><path d="M2447.75001,192.52056h110"/><path d="M2618.33336,203.6564h-191.66667"/><path d="M2053.50003,189.24531h64.33333"/><path d="M1987.83335,187.93522h52"/><path d="M2019.50001,170.24889h-36.66667"/><path d="M2132.50003,213.48214h-128.66667"/><path d="M2149.50002,214.13718h123.66667"/><path d="M2342.50003,210.86193h-50.66667"/><path d="M2341.83336,225.27302h170.66667"/><path d="M2629.08336,217.0849h-89"/><path d="M2102.08335,240.66667h-85"/><path d="M2288.08336,230.84093h-146"/><path d="M2531.08336,234.77123h-200"/></g><g><path d="M2960.25002,118.5h-59.66667"/><path d="M3031.91668,121.77525h-60.33333"/><path d="M3043.25002,125.70555h93.33333"/><path d="M3232.58335,121.12021h-92"/><path d="M3242.50002,133.56614h-100.33333"/><path d="M3135.16668,136.84139h-90.33333"/><path d="M3038.50002,127.01565h-111.33333"/><path d="M2832.50002,132.25603h73"/><path d="M2878.50002,118.5h-57.33333"/><path d="M2817.83336,133.56614h-68.66667"/><path d="M2716.83335,121.12021h61.66667"/><path d="M2650.16669,138.80654h65.33333"/><path d="M2609.83335,125.70555h45"/><path d="M2676.16668,151.25246h-51.66667"/><path d="M2755.16668,174.17919h-82.33333"/><path d="M2773.16668,153.87265h-80.33333"/><path d="M2852.16669,146.01206h-74.33333"/><path d="M2852.16669,163.04335h-66.66667"/><path d="M2764.83336,182.03978h85.66667"/><path d="M2912.16669,156.49286h-56"/><path d="M2876.16669,144.04692h75.66667"/><path d="M2962.50002,136.84139h70.33333"/><path d="M3027.83336,163.04335h-89.66667"/><path d="M2872.50002,177.45442h106.33333"/><path d="M3111.16668,149.28732h-103"/><path d="M3201.83336,174.17919h-115.66667"/><path d="M3134.16668,146.66713h115"/><path d="M3261.83336,168.28375h-34"/><path d="M3253.83336,194.48571h-32"/><path d="M3147.16669,165.66354h75.33333"/><path d="M2984.83336,202.3463h60.33333"/><path d="M2789.50002,196.45085h128.66667"/><path d="M3061.41669,189.90037h-125"/><path d="M3136.41668,161.73324h-93"/><path d="M3193.75002,192.52056h-110"/><path d="M3062.66668,203.6564h191.66667"/><path d="M2753.83336,189.24531h-64.33333"/><path d="M2623.83336,187.93522h52"/><path d="M2655.50002,170.24889h-36.66667"/><path d="M2768.50003,213.48214h-128.66667"/><path d="M2785.50002,214.13718h123.66667"/><path d="M2927.83336,210.86193h50.66667"/><path d="M3148.50003,225.27302h-170.66667"/><path d="M3265.08336,217.0849h-89"/><path d="M2653.08336,240.66667h85"/><path d="M2778.08336,230.84093h146"/><path d="M3167.08336,234.77123h-200"/></g></g><g><g><path d="M995.95834,118.5h59.66667"/><path d="M1127.29167,121.77525h-60.33333"/><path d="M1231.95834,125.70555h-93.33333"/><path d="M1327.95834,121.12021h-92"/><path d="M1237.54168,133.56614h100.33333"/><path d="M1140.20835,136.84139h90.33333"/><path d="M1022.54168,127.01565h111.33333"/><path d="M927.87501,132.25603h73"/><path d="M973.87501,118.5h-57.33333"/><path d="M913.20835,133.56614h-68.66667"/><path d="M873.87501,121.12021h-61.66667"/><path d="M810.87501,138.80654h-65.33333"/><path d="M750.20834,125.70555h-45"/><path d="M719.87501,151.25246h51.66667"/><path d="M768.20834,174.17919h82.33333"/><path d="M788.20834,153.87265h80.33333"/><path d="M947.54168,146.01206h-74.33333"/><path d="M880.87501,163.04335h66.66667"/><path d="M860.20835,182.03978h85.66667"/><path d="M951.54168,156.49286h56"/><path d="M1047.20835,144.04692h-75.66667"/><path d="M1057.87501,136.84139h70.33333"/><path d="M1123.20835,163.04335h-89.66667"/><path d="M967.87501,177.45442h106.33333"/><path d="M1206.54168,149.28732h-103"/><path d="M1181.54168,174.17919h115.66667"/><path d="M1229.54168,146.66713h115"/><path d="M1357.20835,168.28375h-34"/><path d="M1317.20835,194.48571h32"/><path d="M1242.54168,165.66354h75.33333"/><path d="M1140.54168,202.3463h-60.33333"/><path d="M884.87501,196.45085h128.66667"/><path d="M1031.79168,189.90037h125"/><path d="M1138.79168,161.73324h93"/><path d="M1179.12501,192.52056h110"/><path d="M1349.70835,203.6564h-191.66667"/><path d="M849.20835,189.24531h-64.33333"/><path d="M719.20835,187.93522h52"/><path d="M714.20834,170.24889h36.66667"/><path d="M863.87502,213.48214h-128.66667"/><path d="M880.87501,214.13718h123.66667"/><path d="M1023.20835,210.86193h50.66667"/><path d="M1243.87502,225.27302h-170.66667"/><path d="M1271.45835,217.0849h89"/><path d="M748.45835,240.66667h85"/><path d="M1019.45835,230.84093h-146"/><path d="M1262.45835,234.77123h-200"/></g><g><path d="M1691.62501,118.5h-59.66667"/><path d="M1763.29167,121.77525h-60.33333"/><path d="M1774.62501,125.70555h93.33333"/><path d="M1963.95834,121.12021h-92"/><path d="M1873.54168,133.56614h100.33333"/><path d="M1776.20835,136.84139h90.33333"/><path d="M1658.54168,127.01565h111.33333"/><path d="M1563.87501,132.25603h73"/><path d="M1552.54168,118.5h57.33333"/><path d="M1480.54168,133.56614h68.66667"/><path d="M1448.20834,121.12021h61.66667"/><path d="M1446.87501,138.80654h-65.33333"/><path d="M1341.20834,125.70555h45"/><path d="M1407.54168,151.25246h-51.66667"/><path d="M1486.54167,174.17919h-82.33333"/><path d="M1504.54167,153.87265h-80.33333"/><path d="M1583.54168,146.01206h-74.33333"/><path d="M1516.87501,163.04335h66.66667"/><path d="M1581.87502,182.03978h-85.66667"/><path d="M1587.54168,156.49286h56"/><path d="M1683.20835,144.04692h-75.66667"/><path d="M1693.87501,136.84139h70.33333"/><path d="M1669.54168,163.04335h89.66667"/><path d="M1710.20834,177.45442h-106.33333"/><path d="M1739.54168,149.28732h103"/><path d="M1933.20835,174.17919h-115.66667"/><path d="M1865.54168,146.66713h115"/><path d="M1993.20835,168.28375h-34"/><path d="M1985.20835,194.48571h-32"/><path d="M1878.54168,165.66354h75.33333"/><path d="M1716.20835,202.3463h60.33333"/><path d="M1520.87501,196.45085h128.66667"/><path d="M1667.79168,189.90037h125"/><path d="M1867.79168,161.73324h-93"/><path d="M1925.12501,192.52056h-110"/><path d="M1985.70835,203.6564h-191.66667"/><path d="M1420.87502,189.24531h64.33333"/><path d="M1355.20835,187.93522h52"/><path d="M1350.20834,170.24889h36.66667"/><path d="M1499.87502,213.48214h-128.66667"/><path d="M1516.87501,214.13718h123.66667"/><path d="M1659.20835,210.86193h50.66667"/><path d="M1709.20835,225.27302h170.66667"/><path d="M1996.45835,217.0849h-89"/><path d="M1469.45835,240.66667h-85"/><path d="M1655.45835,230.84093h-146"/><path d="M1698.45835,234.77123h200"/></g></g></g><g><g><g><path d="M2264.58335,132.5h59.66667"/><path d="M2335.58335,134.78329h60.33333"/><path d="M2407.25002,137.52324h93.33333"/><path d="M2504.58335,134.32664h92"/><path d="M2506.16668,143.00313h100.33333"/><path d="M2408.83336,145.28643h90.33333"/><path d="M2291.16668,138.43656h111.33333"/><path d="M2196.50002,142.08981h73"/><path d="M2242.50002,132.5h-57.33333"/><path d="M2113.16669,143.00313h68.66667"/><path d="M2080.83334,134.32664h61.66667"/><path d="M2014.16668,146.6564h65.33333"/><path d="M2018.83334,137.52324h-45"/><path d="M1988.50001,155.33289h51.66667"/><path d="M2036.83335,171.31592h82.33333"/><path d="M2056.83334,157.15952h80.33333"/><path d="M2141.83336,151.67963h74.33333"/><path d="M2149.50002,163.55273h66.66667"/><path d="M2128.83336,176.79581h85.66667"/><path d="M2276.16668,158.98616h-56"/><path d="M2315.83336,150.30965h-75.66667"/><path d="M2396.83335,145.28643h-70.33333"/><path d="M2391.83336,163.55273h-89.66667"/><path d="M2342.83335,173.59919h-106.33333"/><path d="M2475.16669,153.96292h-103"/><path d="M2450.16669,171.31592h115.66667"/><path d="M2498.16669,152.13629h115"/><path d="M2591.83336,167.20599h34"/><path d="M2617.83336,185.4723h-32"/><path d="M2586.50001,165.37936h-75.33333"/><path d="M2348.83336,190.95219h60.33333"/><path d="M2282.16668,186.84227h-128.66667"/><path d="M2300.41668,182.2757h125"/><path d="M2407.41669,162.63941h93"/><path d="M2447.75001,184.10233h110"/><path d="M2618.33336,191.86551h-191.66667"/><path d="M2053.50003,181.81903h64.33333"/><path d="M2039.83335,180.90573h-52"/><path d="M2019.50001,168.57597h-36.66667"/><path d="M2132.50003,198.71538h-128.66667"/><path d="M2149.50002,199.17203h123.66667"/><path d="M2342.50003,196.88874h-50.66667"/><path d="M2512.50003,206.93522h-170.66667"/><path d="M2629.08336,201.22699h-89"/><path d="M2102.08335,217.66667h-85"/><path d="M2142.08336,210.81681h146"/><path d="M2331.08336,213.55675h200"/></g><g><path d="M2900.58335,132.5h59.66667"/><path d="M2971.58335,134.78329h60.33333"/><path d="M3043.25002,137.52324h93.33333"/><path d="M3140.58335,134.32664h92"/><path d="M3242.50002,143.00313h-100.33333"/><path d="M3135.16668,145.28643h-90.33333"/><path d="M3038.50002,138.43656h-111.33333"/><path d="M2832.50002,142.08981h73"/><path d="M2878.50002,132.5h-57.33333"/><path d="M2749.16669,143.00313h68.66667"/><path d="M2716.83335,134.32664h61.66667"/><path d="M2650.16669,146.6564h65.33333"/><path d="M2654.83335,137.52324h-45"/><path d="M2624.50001,155.33289h51.66667"/><path d="M2672.83335,171.31592h82.33333"/><path d="M2692.83335,157.15952h80.33333"/><path d="M2777.83336,151.67963h74.33333"/><path d="M2852.16669,163.55273h-66.66667"/><path d="M2850.50003,176.79581h-85.66667"/><path d="M2912.16669,158.98616h-56"/><path d="M2951.83336,150.30965h-75.66667"/><path d="M2962.50002,145.28643h70.33333"/><path d="M3027.83336,163.55273h-89.66667"/><path d="M2872.50002,173.59919h106.33333"/><path d="M3008.16668,153.96292h103"/><path d="M3201.83336,171.31592h-115.66667"/><path d="M3134.16668,152.13629h115"/><path d="M3227.83336,167.20599h34"/><path d="M3253.83336,185.4723h-32"/><path d="M3147.16669,165.37936h75.33333"/><path d="M3045.16669,190.95219h-60.33333"/><path d="M2789.50002,186.84227h128.66667"/><path d="M3061.41669,182.2757h-125"/><path d="M3043.41668,162.63941h93"/><path d="M3193.75002,184.10233h-110"/><path d="M3062.66668,191.86551h191.66667"/><path d="M2753.83336,181.81903h-64.33333"/><path d="M2675.83336,180.90573h-52"/><path d="M2655.50002,168.57597h-36.66667"/><path d="M2768.50003,198.71538h-128.66667"/><path d="M2909.16669,199.17203h-123.66667"/><path d="M2927.83336,196.88874h50.66667"/><path d="M3148.50003,206.93522h-170.66667"/><path d="M3176.08336,201.22699h89"/><path d="M2738.08336,217.66667h-85"/><path d="M2924.08336,210.81681h-146"/><path d="M3167.08336,213.55675h-200"/></g></g><g><g><path d="M1055.62501,132.5h-59.66667"/><path d="M1066.95834,134.78329h60.33333"/><path d="M1231.95834,137.52324h-93.33333"/><path d="M1327.95834,134.32664h-92"/><path d="M1337.87501,143.00313h-100.33333"/><path d="M1230.54168,145.28643h-90.33333"/><path d="M1133.87501,138.43656h-111.33333"/><path d="M1000.87501,142.08981h-73"/><path d="M916.54168,132.5h57.33333"/><path d="M844.54168,143.00313h68.66667"/><path d="M873.87501,134.32664h-61.66667"/><path d="M810.87501,146.6564h-65.33333"/><path d="M750.20834,137.52324h-45"/><path d="M719.87501,155.33289h51.66667"/><path d="M768.20834,171.31592h82.33333"/><path d="M788.20834,157.15952h80.33333"/><path d="M873.20835,151.67963h74.33333"/><path d="M880.87501,163.55273h66.66667"/><path d="M945.87502,176.79581h-85.66667"/><path d="M951.54168,158.98616h56"/><path d="M1047.20835,150.30965h-75.66667"/><path d="M1057.87501,145.28643h70.33333"/><path d="M1033.54168,163.55273h89.66667"/><path d="M967.87501,173.59919h106.33333"/><path d="M1206.54168,153.96292h-103"/><path d="M1181.54168,171.31592h115.66667"/><path d="M1344.54168,152.13629h-115"/><path d="M1357.20835,167.20599h-34"/><path d="M1349.20835,185.4723h-32"/><path d="M1242.54168,165.37936h75.33333"/><path d="M1080.20835,190.95219h60.33333"/><path d="M1013.54168,186.84227h-128.66667"/><path d="M1031.79168,182.2757h125"/><path d="M1138.79168,162.63941h93"/><path d="M1289.12501,184.10233h-110"/><path d="M1349.70835,191.86551h-191.66667"/><path d="M784.87502,181.81903h64.33333"/><path d="M771.20835,180.90573h-52"/><path d="M750.87501,168.57597h-36.66667"/><path d="M735.20835,198.71538h128.66667"/><path d="M1004.54168,199.17203h-123.66667"/><path d="M1023.20835,196.88874h50.66667"/><path d="M1073.20835,206.93522h170.66667"/><path d="M1271.45835,201.22699h89"/><path d="M748.45835,217.66667h85"/><path d="M873.45835,210.81681h146"/><path d="M1062.45835,213.55675h200"/></g><g><path d="M1631.95834,132.5h59.66667"/><path d="M1702.95834,134.78329h60.33333"/><path d="M1774.62501,137.52324h93.33333"/><path d="M1871.95834,134.32664h92"/><path d="M1873.54168,143.00313h100.33333"/><path d="M1866.54168,145.28643h-90.33333"/><path d="M1658.54168,138.43656h111.33333"/><path d="M1563.87501,142.08981h73"/><path d="M1552.54168,132.5h57.33333"/><path d="M1480.54168,143.00313h68.66667"/><path d="M1509.87501,134.32664h-61.66667"/><path d="M1446.87501,146.6564h-65.33333"/><path d="M1341.20834,137.52324h45"/><path d="M1407.54168,155.33289h-51.66667"/><path d="M1486.54167,171.31592h-82.33333"/><path d="M1504.54167,157.15952h-80.33333"/><path d="M1583.54168,151.67963h-74.33333"/><path d="M1583.54168,163.55273h-66.66667"/><path d="M1496.20835,176.79581h85.66667"/><path d="M1643.54168,158.98616h-56"/><path d="M1607.54168,150.30965h75.66667"/><path d="M1693.87501,145.28643h70.33333"/><path d="M1669.54168,163.55273h89.66667"/><path d="M1710.20834,173.59919h-106.33333"/><path d="M1842.54168,153.96292h-103"/><path d="M1933.20835,171.31592h-115.66667"/><path d="M1980.54168,152.13629h-115"/><path d="M1959.20835,167.20599h34"/><path d="M1953.20835,185.4723h32"/><path d="M1878.54168,165.37936h75.33333"/><path d="M1716.20835,190.95219h60.33333"/><path d="M1649.54168,186.84227h-128.66667"/><path d="M1667.79168,182.2757h125"/><path d="M1867.79168,162.63941h-93"/><path d="M1925.12501,184.10233h-110"/><path d="M1794.04168,191.86551h191.66667"/><path d="M1485.20835,181.81903h-64.33333"/><path d="M1355.20835,180.90573h52"/><path d="M1386.87501,168.57597h-36.66667"/><path d="M1499.87502,198.71538h-128.66667"/><path d="M1516.87501,199.17203h123.66667"/><path d="M1659.20835,196.88874h50.66667"/><path d="M1879.87502,206.93522h-170.66667"/><path d="M1907.45835,201.22699h89"/><path d="M1384.45835,217.66667h85"/><path d="M1655.45835,210.81681h-146"/><path d="M1898.45835,213.55675h-200"/></g></g></g></g></g></g></svg>