<svg version="1.1" xmlns="http://www.w3.org/2000/svg" xmlns:xlink="http://www.w3.org/1999/xlink" width="51.5" height="51.5" viewBox="0,0,51.5,51.5"><g transform="translate(-291.75,-150.95001)"><g stroke-miterlimit="10"><path d="M304.375,180.00003c0,-8.62945 6.99555,-15.625 15.625,-15.625c8.62945,0 15.625,6.99555 15.625,15.625c0,8.62945 -6.99555,15.625 -15.625,15.625c-8.62945,0 -15.625,-6.99555 -15.625,-15.625z" fill="#ffffff" stroke="#000000" stroke-width="7.5" stroke-linecap="butt"/><path d="M304.375,180.00003c0,-8.62945 6.99555,-15.625 15.625,-15.625c8.62945,0 15.625,6.99555 15.625,15.625c0,8.62945 -6.99555,15.625 -15.625,15.625c-8.62945,0 -15.625,-6.99555 -15.625,-15.625z" fill="#f07173" stroke="#f0f0f0" stroke-width="3.5" stroke-linecap="butt"/><path d="M303.3125,180c0,-9.21625 7.47125,-16.6875 16.6875,-16.6875c9.21625,0 16.6875,7.47125 16.6875,16.6875c0,9.21625 -7.47125,16.6875 -16.6875,16.6875c-9.21625,0 -16.6875,-7.47125 -16.6875,-16.6875z" fill="#f07173" stroke="#cd3400" stroke-width="2" stroke-linecap="butt"/><path d="M291.75,202.45001v-51.5h51.5v51.5z" fill="none" stroke="none" stroke-width="0" stroke-linecap="butt"/><path d="M306.42049,171.81802h11.53401v16.36395h-11.53401" fill="#858585" stroke="#000000" stroke-width="0.5" stroke-linecap="round"/><path d="M305.54279,174.57944h10.91407v10.84112h-10.91407" fill="#f07173" stroke="#000000" stroke-width="0.5" stroke-linecap="round"/><path d="M304.40342,178.8119h12.06841v2.25004h-12.06841" fill="#858585" stroke="#000000" stroke-width="0.5" stroke-linecap="round"/><path d="M333.55409,188.18198h-11.53401v-16.36395h11.53401" fill="#858585" stroke="#000000" stroke-width="0.5" stroke-linecap="round"/><path d="M334.4318,185.42056h-10.91407v-10.84112h10.91407" fill="#f07173" stroke="#000000" stroke-width="0.5" stroke-linecap="round"/><path d="M335.57117,181.06194h-12.06842v-2.25004h12.06842" fill="#858585" stroke="#000000" stroke-width="0.5" stroke-linecap="round"/><g fill="none" stroke="#ffffff" stroke-width="3.5" stroke-linecap="round"><path d="M328.02857,188.02857l-16.05713,-16.05713"/><path d="M311.97144,188.02857l16.05712,-16.05713"/></g></g></g></svg>