<svg version="1.1" xmlns="http://www.w3.org/2000/svg" xmlns:xlink="http://www.w3.org/1999/xlink" width="498.50431" height="427.5645" viewBox="0,0,498.50431,427.5645"><g transform="translate(-73.24805,44.18449)"><g stroke-miterlimit="10"><g><path d="M315.85042,-18.50257c73.45863,-1.98612 103.5282,38.75895 111.01147,73.35432c1.34349,6.21099 10.89606,48.09445 12.30915,100.31174c0.41236,15.23778 -1.60737,55.48387 -6.25181,88.97997c-3.73828,26.96068 -9.96398,48.84883 -11.97708,55.14894c-5.61995,18.76515 -33.46456,19.15269 -39.78054,19.49348c-24.43959,1.31871 -30.43453,-4.99031 -33.42379,-8.22935c-9.22992,-10.00119 -8.11876,-26.91497 -9.68898,-37.27431c-0.41,-2.70473 -0.91669,-4.75092 -1.75457,-5.88416c-1.43605,-1.94237 -4.35705,-1.68416 -4.95936,-0.94211c-0.3834,0.47233 -0.32248,5.90733 -0.47271,8.6769c-0.39809,7.33977 -0.29166,17.65607 -1.0817,26.55571c-0.96051,10.81969 -4.35989,18.91686 -7.32026,21.24302c-8.06439,6.33653 -28.29654,12.64382 -41.57035,12.89963c-20.56682,0.39644 -34.34736,-8.39412 -37.03946,-12.78018c-5.09303,-8.29761 -7.07081,-20.71993 -8.41231,-31.76935c-1.88675,-15.54026 -1.67393,-29.44227 -1.67393,-29.44227c0,0 -40.03654,7.40508 -48.01299,-22.59064c-1.78931,-6.72874 -5.08753,-24.12341 -5.98074,-45.07753c-1.0425,-24.4552 0.59915,-53.75869 2.68296,-76.61391c1.45981,-16.01167 3.0044,-28.85848 7.2824,-34.65633c5.29151,-7.17141 14.06726,-9.97015 22.55932,-12.06312c12.12529,-2.98841 23.67218,-3.4062 23.67218,-3.4062c0,0 0.07728,-47.08425 30.08781,-71.98436c11.05478,-9.17231 31.34995,-13.45118 49.79531,-13.94989z" fill="#ff0000" stroke="#ff0000" stroke-width="20"/><g><path d="M303.24138,48.22722c14.54992,-14.85924 32.05203,-18.79255 38.06646,-19.30652c20.78975,-1.77665 53.76454,-1.46421 74.06118,3.03893c5.15539,1.1438 21.81717,8.16489 27.4002,20.04706c4.27299,9.09406 20.36983,39.18279 -3.35282,66.66181c-25.04278,29.00818 -93.61829,22.70387 -113.21742,18.11794c-8.74507,-2.47697 -24.30453,-12.56935 -29.5865,-30.07109c-6.38245,-21.14825 -1.04835,-50.64771 6.62885,-58.48813z" fill="#ff0000" stroke="#ff0000" stroke-width="20"/><g fill="none" stroke="none" stroke-width="1" font-family="sans-serif" font-weight="normal" font-size="12" text-anchor="start"/></g><g fill="none" stroke="none" stroke-width="1" font-family="sans-serif" font-weight="normal" font-size="12" text-anchor="start"/></g><path d="M571.75213,175.14435c0.00014,0.09256 0.00022,0.18512 0.00022,0.2777c0,114.85201 -110.47474,207.95796 -246.75225,207.95796c-136.2775,0 -246.75225,-93.10595 -246.75225,-207.95796c0,-114.85201 110.47475,-207.95796 246.75225,-207.95796c125.2106,0 228.63907,78.59795 244.6119,180.44548" fill="none" stroke="none" stroke-width="0"/><path d="M571.72572,175.23467c-1.9588,115.24167 -111.67141,208.14534 -246.72561,208.14534c-136.2775,0 -246.75225,-94.59431 -246.75225,-211.28231v-0.00001c0,-116.688 110.47475,-211.28231 246.75225,-211.28231c126.91774,0 231.45535,82.04672 245.21631,187.57545" fill="none" stroke="none" stroke-width="0"/><path d="M562.49299,206.11983c-19.06565,98.43364 -119.48121,173.51403 -240.49285,173.51403c-134.62065,0 -243.75225,-92.91711 -243.75225,-207.53617v-0.00001c0,-114.61906 109.1316,-207.53617 243.75225,-207.53617c124.22791,0 226.75038,79.12445 241.83951,181.41113" fill="none" stroke="none" stroke-width="0"/><path d="M566.75233,170.1445c0.00014,0.09256 0.00022,0.18512 0.00022,0.2777c0,114.85201 -110.47474,207.95796 -246.75225,207.95796c-136.2775,0 -246.75225,-93.10595 -246.75225,-207.95796c0,-114.85201 110.47475,-207.95796 246.75225,-207.95796c125.2106,0 228.63907,78.59795 244.6119,180.44548" fill="none" stroke="none" stroke-width="0"/><path d="M566.72592,170.2348c-1.9588,115.24167 -111.67141,208.14534 -246.72561,208.14534c-136.2775,0 -246.75225,-94.59431 -246.75225,-211.28231v-0.00001c0,-116.688 110.47475,-211.28231 246.75225,-211.28231c126.91774,0 231.45535,82.04672 245.21631,187.57545" fill="none" stroke="none" stroke-width="0"/><path d="M557.49319,201.11999c-19.06565,98.43364 -119.48121,173.51403 -240.49285,173.51403c-134.62065,0 -243.75225,-92.91711 -243.75225,-207.53617v-0.00001c0,-114.61906 109.1316,-207.53617 243.75225,-207.53617c124.22791,0 226.75038,79.12445 241.83951,181.41113" fill="none" stroke="none" stroke-width="0"/></g></g></svg>