<svg version="1.1" xmlns="http://www.w3.org/2000/svg" xmlns:xlink="http://www.w3.org/1999/xlink" width="703.32506" height="95.9817" viewBox="0,0,703.32506,95.9817"><g transform="translate(30.69614,-130.17335)"><g data-paper-data="{&quot;isPaintingLayer&quot;:true}" fill-rule="nonzero" stroke-linecap="butt" stroke-linejoin="miter" stroke-miterlimit="10" stroke-dasharray="" stroke-dashoffset="0" style="mix-blend-mode: normal"><g><path d="M-25.44614,213.9273v-50.76674c0,0 19.86953,-1.65515 26.78691,0.06872c13.88283,3.45968 85.25119,3.61826 85.25119,3.61826c0,0 -16.18899,-5.66616 -26.17425,-8.48455c-9.9163,-2.79891 -33.53194,-8.36775 -33.53194,-8.36775c0,0 32.26118,4.35156 70.37814,5.16963c23.60201,0.50655 40.87913,-4.03308 64.31087,-3.5302c17.43221,0.37414 40.97512,8.58857 68.70578,8.64723c21.90999,0.04633 31.88704,1.75761 47.7427,2.01812c8.61737,0.14159 -13.03874,-3.53658 -25.83564,-5.03448c-12.7969,-1.4979 -23.22748,-0.67271 -38.5336,-2.50005c-14.5104,-1.73235 -24.7337,-7.15319 -24.7337,-7.15319c0,0 34.335,4.0539 74.52399,5.42064c29.25559,0.99491 53.89218,7.28952 70.43665,7.8028c17.06129,0.52931 48.22671,-3.57089 80.06915,-3.23921c18.51717,0.19287 102.08903,4.0757 102.08903,4.0757c0,0 -35.62226,-6.22951 -49.74487,-10.67223c-10.51982,-3.30936 -20.27375,-7.69234 -20.27375,-7.69234c0,0 21.68492,5.84434 59.57823,8.22482c27.28705,1.71417 75.9915,12.03285 75.9915,12.03285c0,0 -12.13947,-7.33601 -14.44895,-12.24619c-1.14584,-2.43615 -0.55381,-5.72487 0.33367,-8.4205c0.90129,-2.73753 2.1073,-4.86337 2.1073,-4.86337c0,0 12.33976,9.55959 20.40088,13.6551c6.59246,3.34936 34.8139,10.83442 34.8139,10.83442c0,0 -9.45955,-5.30721 -13.44182,-10.79288c-4.46221,-6.14679 -8.55234,-12.51763 -5.83392,-11.89688c9.69949,2.21488 59.92482,26.18995 59.92482,26.18995l-25.13989,47.90233c0,0 -27.68093,0.74319 -38.66183,0.58038c-8.65605,-0.12835 -21.92396,-1.47874 -21.92396,-1.47874c0,0 -2.77371,1.23816 -4.44785,2.64022c-1.63631,1.37036 -2.16433,2.89727 -2.9768,3.57769c-0.81723,0.68441 -1.83534,1.53704 -1.83534,1.53704c0,0 -7.41927,-0.46616 -17.93921,-4.18681c-6.7327,-2.38118 -10.76985,-6.51086 -10.76985,-6.51086c0,0 -74.0821,8.34063 -99.34399,7.58696c-15.87509,-0.47363 27.35257,-12.58308 14.51944,-12.33671c-31.59433,0.60656 -127.0158,10.68768 -167.71547,14.54969c-11.79359,1.11909 -12.99739,-0.23871 -6.16598,-1.21096c15.03939,-2.14039 39.88327,-5.81486 44.81084,-7.40424c5.26978,-1.69974 4.65111,-3.29014 4.65111,-3.29014c0,0 -49.31461,1.57427 -70.42265,2.98201c-25.89581,1.72706 -85.20277,7.18686 -85.20277,7.18686c0,0 5.26986,-2.69713 7.23084,-3.74798c1.9265,-1.03237 4.43342,-2.50263 4.43342,-2.50263l-30.96219,3.78553c0,0 18.3744,-4.06 25.08097,-5.7851c5.42748,-1.39608 12.13925,-3.78884 12.13925,-3.78884c0,0 -124.2703,13.50714 -144.61758,15.6558c-7.04168,0.7436 -12.4561,-0.78011 -7.49385,-1.67353c6.51246,-1.17252 16.3064,-2.88519 26.7781,-4.5361c11.31914,-1.78453 35.40762,-3.88727 41.87604,-5.11188c13.68341,-2.59056 17.60544,-6.72769 17.60544,-6.72769c0,0 -33.68424,2.02579 -49.87221,3.5234c-17.09041,1.58111 -50.10986,5.72637 -50.10986,5.72637l5.88566,-9.35814z" fill="#cb2411" stroke="#000000" stroke-width="10.5"/><path d="M-25.44614,213.9273v-50.76674c0,0 19.86953,-1.65515 26.78691,0.06872c13.88283,3.45968 85.25119,3.61826 85.25119,3.61826c0,0 -16.18899,-5.66616 -26.17425,-8.48455c-9.9163,-2.79891 -33.53194,-8.36775 -33.53194,-8.36775c0,0 32.26118,4.35156 70.37814,5.16963c23.60201,0.50655 40.87913,-4.03308 64.31087,-3.5302c17.43221,0.37414 40.97512,8.58857 68.70578,8.64723c21.90999,0.04633 31.88704,1.75761 47.7427,2.01812c8.61737,0.14159 -13.03874,-3.53658 -25.83564,-5.03448c-12.7969,-1.4979 -23.22748,-0.67271 -38.5336,-2.50005c-14.5104,-1.73235 -24.7337,-7.15319 -24.7337,-7.15319c0,0 34.335,4.0539 74.52399,5.42064c29.25559,0.99491 53.89218,7.28952 70.43665,7.8028c17.06129,0.52931 48.22671,-3.57089 80.06915,-3.23921c18.51717,0.19287 102.08903,4.0757 102.08903,4.0757c0,0 -35.62226,-6.22951 -49.74487,-10.67223c-10.51982,-3.30936 -20.27375,-7.69234 -20.27375,-7.69234c0,0 21.68492,5.84434 59.57823,8.22482c27.28705,1.71417 75.9915,12.03285 75.9915,12.03285c0,0 -12.13947,-7.33601 -14.44895,-12.24619c-1.14584,-2.43615 -0.55381,-5.72487 0.33367,-8.4205c0.90129,-2.73753 2.1073,-4.86337 2.1073,-4.86337c0,0 12.33976,9.55959 20.40088,13.6551c6.59246,3.34936 34.8139,10.83442 34.8139,10.83442c0,0 -9.45955,-5.30721 -13.44182,-10.79288c-4.46221,-6.14679 -8.55234,-12.51763 -5.83392,-11.89688c9.69949,2.21488 59.92482,26.18995 59.92482,26.18995l-25.13989,47.90233c0,0 -27.68093,0.74319 -38.66183,0.58038c-8.65605,-0.12835 -21.92396,-1.47874 -21.92396,-1.47874c0,0 -2.77371,1.23816 -4.44785,2.64022c-1.63631,1.37036 -2.16433,2.89727 -2.9768,3.57769c-0.81723,0.68441 -1.83534,1.53704 -1.83534,1.53704c0,0 -7.41927,-0.46616 -17.93921,-4.18681c-6.7327,-2.38118 -10.76985,-6.51086 -10.76985,-6.51086c0,0 -74.0821,8.34063 -99.34399,7.58696c-15.87509,-0.47363 27.35257,-12.58308 14.51944,-12.33671c-31.59433,0.60656 -127.0158,10.68768 -167.71547,14.54969c-11.79359,1.11909 -12.99739,-0.23871 -6.16598,-1.21096c15.03939,-2.14039 39.88327,-5.81486 44.81084,-7.40424c5.26978,-1.69974 4.65111,-3.29014 4.65111,-3.29014c0,0 -49.31461,1.57427 -70.42265,2.98201c-25.89581,1.72706 -85.20277,7.18686 -85.20277,7.18686c0,0 5.26986,-2.69713 7.23084,-3.74798c1.9265,-1.03237 4.43342,-2.50263 4.43342,-2.50263l-30.96219,3.78553c0,0 18.3744,-4.06 25.08097,-5.7851c5.42748,-1.39608 12.13925,-3.78884 12.13925,-3.78884c0,0 -124.2703,13.50714 -144.61758,15.6558c-7.04168,0.7436 -12.4561,-0.78011 -7.49385,-1.67353c6.51246,-1.17252 16.3064,-2.88519 26.7781,-4.5361c11.31914,-1.78453 35.40762,-3.88727 41.87604,-5.11188c13.68341,-2.59056 17.60544,-6.72769 17.60544,-6.72769c0,0 -33.68424,2.02579 -49.87221,3.5234c-17.09041,1.58111 -50.10986,5.72637 -50.10986,5.72637l5.88566,-9.35814z" fill="#cb2411" stroke="#95392c" stroke-width="4.5"/><path d="M-25.44615,213.9273v-50.76674c0,0 19.86953,-1.65515 26.78691,0.06872c13.88283,3.45968 85.25119,3.61826 85.25119,3.61826c0,0 -16.18899,-5.66616 -26.17425,-8.48455c-9.9163,-2.79891 -33.53194,-8.36775 -33.53194,-8.36775c0,0 32.26118,4.35156 70.37814,5.16963c23.60201,0.50655 40.87913,-4.03308 64.31087,-3.5302c17.43221,0.37414 40.97512,8.58857 68.70578,8.64723c21.90999,0.04633 31.88704,1.75761 47.7427,2.01812c8.61737,0.14159 -13.03874,-3.53658 -25.83564,-5.03448c-12.7969,-1.4979 -23.22748,-0.67271 -38.5336,-2.50005c-14.5104,-1.73235 -24.7337,-7.15319 -24.7337,-7.15319c0,0 34.335,4.0539 74.52399,5.42064c29.25559,0.99491 53.89218,7.28952 70.43665,7.8028c17.06129,0.52931 48.22671,-3.57089 80.06915,-3.23921c18.51717,0.19287 102.08903,4.0757 102.08903,4.0757c0,0 -35.62226,-6.22951 -49.74487,-10.67223c-10.51982,-3.30936 -20.27375,-7.69234 -20.27375,-7.69234c0,0 21.68492,5.84434 59.57823,8.22482c27.28705,1.71417 75.9915,12.03285 75.9915,12.03285c0,0 -12.13947,-7.33601 -14.44895,-12.24619c-1.14584,-2.43615 -0.55381,-5.72487 0.33367,-8.4205c0.90129,-2.73753 2.1073,-4.86337 2.1073,-4.86337c0,0 12.33976,9.55959 20.40088,13.6551c6.59246,3.34936 34.8139,10.83442 34.8139,10.83442c0,0 -9.45955,-5.30721 -13.44182,-10.79288c-4.46221,-6.14679 -8.55234,-12.51763 -5.83392,-11.89688c9.69949,2.21488 59.92482,26.18995 59.92482,26.18995l-25.13989,47.90233c0,0 -27.68093,0.74319 -38.66184,0.58038c-8.65605,-0.12835 -21.92396,-1.47874 -21.92396,-1.47874c0,0 -2.77371,1.23816 -4.44785,2.64022c-1.63631,1.37036 -2.16433,2.89727 -2.9768,3.57769c-0.81724,0.68441 -1.83534,1.53704 -1.83534,1.53704c0,0 -7.41925,-0.46616 -17.93921,-4.18681c-6.73269,-2.38118 -10.76985,-6.51086 -10.76985,-6.51086c0,0 -74.0821,8.34063 -99.34399,7.58696c-15.87509,-0.47363 27.35257,-12.58308 14.51944,-12.33671c-31.59433,0.60656 -127.0158,10.68768 -167.71547,14.54969c-11.79359,1.11909 -12.99739,-0.23871 -6.16598,-1.21096c15.03939,-2.14039 39.88327,-5.81486 44.81084,-7.40424c5.26978,-1.69974 4.65111,-3.29014 4.65111,-3.29014c0,0 -49.31461,1.57427 -70.42265,2.98201c-25.89581,1.72706 -85.20277,7.18686 -85.20277,7.18686c0,0 5.26986,-2.69713 7.23084,-3.74798c1.9265,-1.03237 4.43342,-2.50263 4.43342,-2.50263l-30.96219,3.78553c0,0 18.3744,-4.06 25.08097,-5.7851c5.42748,-1.39608 12.13925,-3.78884 12.13925,-3.78884c0,0 -124.2703,13.50714 -144.61758,15.6558c-7.04168,0.7436 -12.4561,-0.78011 -7.49385,-1.67353c6.51246,-1.17252 16.3064,-2.88519 26.7781,-4.5361c11.31914,-1.78452 35.40762,-3.88727 41.87604,-5.11188c13.68341,-2.59056 17.60544,-6.72769 17.60544,-6.72769c0,0 -33.68424,2.02579 -49.87221,3.5234c-17.09041,1.58111 -50.10986,5.72637 -50.10986,5.72637l5.88566,-9.35814z" fill="#cb2411" stroke="none" stroke-width="0"/><path d="M0.07229,201.66715l-0.52241,-23.95839c0,0 -2.41294,-2.32599 1.94808,-2.59805c10.06945,-0.62818 31.42507,-0.12196 51.1717,-0.59185c18.59024,-0.44237 35.68888,-1.87806 42.65148,-1.93185c8.76965,-0.06772 19.64369,0.23881 19.64369,0.23881c0,0 -1.06632,-1.31669 -2.30349,-2.00332c-1.35168,-0.75019 -5.49351,-2.32403 -5.49351,-2.32403c0,0 8.13247,-0.03871 11.77961,0.07253c3.08959,0.09423 11.43443,0.92806 11.43443,0.92806l-8.05971,-4.47838c0,0 69.69229,8.44081 98.90248,8.25391c1.58127,-0.01011 -11.54763,-1.15851 -22.20911,-2.84762c-4.26132,-0.67512 -11.4915,-1.79607 -14.21231,-2.55203c-3.36005,-0.93356 -1.56309,-1.4232 0.5831,-1.17958c1.07217,0.1217 37.11753,5.82471 72.227,8.48805c14.64108,1.11065 29.10094,0.64812 40.1821,0.59465c16.92238,-0.08164 27.12559,1.86933 38.64656,1.53593c1.72071,-0.0498 -7.98499,-1.14691 -21.04467,-2.10993c-8.91761,-0.65758 -19.98716,-1.08077 -27.73322,-1.74244c-3.37246,-0.28808 -6.18806,-0.64771 -8.32521,-0.9692c-2.99105,-0.44996 -6.63227,-0.78501 -3.99853,-0.86187c4.03196,-0.11767 37.27716,-0.40327 55.83742,-0.945c18.58037,-0.54229 95.19424,3.63314 121.15766,4.00952c23.07489,0.33451 55.83704,0.26968 55.83704,0.26968c0,0 -54.85974,-3.63581 -48.61693,-4.44333c0.79968,-0.10344 5.25098,-0.21361 3.49847,-0.82654c-2.82796,-0.98906 -11.03121,-1.4391 -17.44909,-2.91366c-4.70886,-1.08189 -9.03484,-2.39965 -12.19808,-3.45267c-3.21027,-1.06867 -2.33592,-1.8576 1.3165,-1.84868c5.9695,0.01458 80.86255,12.71929 126.24265,11.07613c13.45126,-0.48706 -16.65422,-5.00025 -16.65422,-5.00025c0,0 36.97227,2.42216 53.98942,2.84666c14.99415,0.37404 42.81464,-0.43185 42.81464,-0.43185l-0.01136,26.03458c0,0 -47.10778,1.89308 -64.23678,3.1221c-24.69791,1.7721 -83.98771,7.0581 -83.98771,7.0581c0,0 11.32081,-3.97478 21.15533,-6.00558c9.83452,-2.03079 26.72221,-3.88098 26.72221,-3.88098c0,0 -38.4922,1.23427 -59.04114,2.04458c-22.44646,0.88515 -70.4485,3.06163 -70.4485,3.06163c0,0 3.19854,-1.75519 4.37899,-2.56742c1.06607,-0.73352 2.39565,-2.09396 2.39565,-2.09396c0,0 -52.79425,1.3346 -97.40213,3.52391c-43.75771,2.14759 -98.67548,4.86611 -108.62131,4.96197c-8.8409,0.0852 0.92506,-4.66806 0.92506,-4.66806l-40.01798,3.01223c0,0 4.33342,-2.01883 5.13131,-2.94302c0.71054,-0.82302 -0.57553,-2.33389 -0.57553,-2.33389c0,0 -57.11,-0.12332 -93.46233,0.56728c-36.35232,0.6906 -83.94734,2.80306 -83.94734,2.80306z" data-paper-data="{&quot;index&quot;:null}" fill="#eec0b1" stroke="none" stroke-width="0"/></g></g></g></svg>