<svg version="1.1" xmlns="http://www.w3.org/2000/svg" xmlns:xlink="http://www.w3.org/1999/xlink" width="315.3003" height="315.30025" viewBox="0,0,315.3003,315.30025"><defs><radialGradient cx="290.05014" cy="218.27299" r="109.77067" gradientUnits="userSpaceOnUse" id="color-1"><stop offset="0" stop-color="#ff7a00"/><stop offset="1" stop-color="#d96900"/></radialGradient></defs><g transform="translate(-162.34985,-22.3499)"><g stroke-miterlimit="10"><path d="M169.84985,270.23519c0,-59.99896 0,-148.11906 0,-181.81815c0,-26.16557 22.73163,-58.56714 54.69562,-58.56714c60.91162,0 155.35022,0 189.899,0c25.1397,0 55.70568,31.10369 55.70568,56.54696c0,34.37139 0,127.20919 0,187.87876c0,32.57375 -30.56593,55.87453 -55.70568,55.87453c-33.79375,0 -124.88841,0 -185.85858,0c-34.07175,0 -58.73599,-25.26921 -58.73599,-59.91496z" fill="#8fb5b5" stroke="#6b999a" stroke-width="15" stroke-linecap="butt"/><path d="M239.59716,146.33089c24.46076,-8.20176 44.77594,2.98924 79.00017,2.81898c18.12061,-2.402 47.31114,-15.54335 76.28682,-6.16431c42.74596,21.39456 35.86936,78.07209 32.16958,80.48178c-1.8804,1.22472 -30.98227,20.81279 -104.77484,21.57297c-40.35725,1.72963 -95.18732,-9.03028 -103.29127,-17.80676c-8.10395,-8.77648 -11.60094,-23.72872 -6.36572,-45.10756c3.57501,-14.59911 14.33786,-27.76822 26.97526,-35.7951z" fill="url(#color-1)" stroke="#330000" stroke-width="10" stroke-linecap="butt"/><path d="M310.07917,160.74892c0,0 -1.95258,-15.52724 -1.1834,-22.57808c0.67782,-6.21336 5.55916,-17.53306 5.55916,-17.53306c0,0 6.49549,-1.59715 9.67829,-1.62447c5.4497,-0.04678 10.28334,1.35376 10.28334,1.35376c0,0 -1.72177,13.21117 -2.18059,19.40546c-0.50845,6.8641 -1.73658,20.97639 -1.73658,20.97639z" fill="#804d00" stroke="#332e00" stroke-width="7.5" stroke-linecap="butt"/><path d="M338.15544,165.43344c0,1.31114 -7.6001,2.37402 -16.97527,2.37402c-9.37518,0 -16.97527,-1.06288 -16.97527,-2.37402c0,-1.31113 7.60009,-2.37402 16.97527,-2.37402c9.37517,0 16.97527,1.06289 16.97527,2.37402z" fill="none" stroke="#000000" stroke-width="10" stroke-linecap="butt"/><path d="M373.88413,144.31894c6.05271,2.51339 17.29304,-4.40278 37.23595,18.0916c12.97105,15.24673 13.07036,38.13192 13.76697,41.05684c-1.14742,0.74733 -4.50845,-21.56476 -17.86871,-37.01987c-15.15013,-17.52564 -28.04649,-18.86474 -33.13421,-22.12857z" fill-opacity="0.50196" fill="#ffffff" stroke="none" stroke-width="0" stroke-linecap="butt"/><path d="M240.0051,198.75349c0,-2.76143 2.23857,-5 5,-5c2.76143,0 5,2.23857 5,5c0,2.76143 -2.23857,5 -5,5c-2.76143,0 -5,-2.23857 -5,-5z" fill-opacity="0.50196" fill="#ffffff" stroke="none" stroke-width="0.5" stroke-linecap="butt"/><path d="M344.60567,214.26399c-5,0 -5.5,-4.5 -5.5,-4.5c0,0 0.79135,-4.20892 3.2212,-5.49802c2.42478,-1.28641 5.4875,-2.15268 6.04874,-2.47711c0,0 4.47214,-2.23607 6.70821,2.23607c2.23607,4.47214 -2.23607,6.7082 -2.23607,6.7082c-1.30702,0.60572 -6.01968,3.53087 -8.24207,3.53087z" fill-opacity="0.50196" fill="#ffffff" stroke="none" stroke-width="0.5" stroke-linecap="butt"/><path d="M313.32718,213.76849c0,-2.07107 1.67893,-3.75 3.75,-3.75c2.07107,0 3.75,1.67893 3.75,3.75c0,2.07107 -1.67893,3.75 -3.75,3.75c-2.07107,0 -3.75,-1.67893 -3.75,-3.75z" fill-opacity="0.50196" fill="#ffffff" stroke="none" stroke-width="0.5" stroke-linecap="butt"/><path d="M259.27312,204.7595c0,-2.07107 1.67893,-3.75 3.75,-3.75c2.07107,0 3.75,1.67893 3.75,3.75c0,2.07107 -1.67893,3.75 -3.75,3.75c-2.07107,0 -3.75,-1.67893 -3.75,-3.75z" fill-opacity="0.50196" fill="#ffffff" stroke="none" stroke-width="0.5" stroke-linecap="butt"/><path d="M312.89577,150.42084c0.27453,-2.51659 -1.42539,-7.5563 -0.57054,-12.36492c1.25574,-7.06366 4.3797,-13.66814 4.3797,-13.66814l5.29497,-1.68738c0,0 -2.27336,6.07824 -4.03851,11.46132c-2.69762,8.22676 -5.232,18.45388 -5.06562,16.25912z" fill-opacity="0.50196" fill="#ffffff" stroke="none" stroke-width="0" stroke-linecap="butt"/><g><path d="M303.68105,137.25268c-1.91474,8.98458 -12.12474,18.00373 -34.22194,13.29449c-22.09719,-4.70924 -47.71383,-24.44568 -45.79908,-33.43025c0.96849,-4.54449 33.63196,-1.81083 53.85571,2.55435c19.75912,4.2649 27.11156,13.1413 26.1653,17.58139z" fill="#198000" stroke="#0a3300" stroke-width="7.5" stroke-linecap="butt"/><path d="M254.06847,128.62527c0,0 14.76451,0.93459 22.59965,3.88754c8.27624,3.1192 21.78245,7.20799 21.78245,7.20799" fill="none" stroke="#0a3300" stroke-width="5" stroke-linecap="round"/><path d="M229.70204,120.22493c1.33165,-0.88465 13.63068,-2.13554 39.78041,2.21396c11.20461,1.86367 20.9863,5.75383 20.82344,6.51805c0,0 -12.28665,-0.05549 -31.22892,-3.84343c-14.65944,-2.93149 -29.00012,-2.98581 -29.37493,-4.88858z" fill-opacity="0.50196" fill="#ffffff" stroke="none" stroke-width="0" stroke-linecap="butt"/></g></g></g></svg>