<svg version="1.1" xmlns="http://www.w3.org/2000/svg" xmlns:xlink="http://www.w3.org/1999/xlink" width="244" height="258" viewBox="0,0,244,258"><g transform="translate(-198,-51)"><g stroke="none" stroke-miterlimit="10"><path d="M198,309v-258h244v258z" fill="none" stroke-width="0"/><g><path d="M310.1754,243.5c28.55312,0 51.7,5.46213 51.7,12.2c0,6.73787 -23.14688,12.2 -51.7,12.2c-28.55312,0 -51.7,-5.46213 -51.7,-12.2c0,-6.73787 23.14688,-12.2 51.7,-12.2z" fill="#3a3a3a" stroke-width="0"/><path d="M309.77502,112.21358c31.10009,-0.84086 43.83061,16.40933 46.99879,31.05593c0.56879,2.62954 4.61305,20.36169 5.21131,42.46886c0.17458,6.4512 -0.68051,23.49014 -2.64682,37.67134c-1.58267,11.41431 -4.21844,20.68107 -5.07072,23.34834c-2.37931,7.94458 -14.16785,8.10865 -16.84184,8.25293c-10.34696,0.5583 -12.88503,-2.11274 -14.15059,-3.48405c-3.90766,-4.23419 -3.43723,-11.39496 -4.10201,-15.78078c-0.17358,-1.1451 -0.3881,-2.01139 -0.74283,-2.49117c-0.60798,-0.82234 -1.84464,-0.71302 -2.09964,-0.39886c-0.16232,0.19997 -0.13653,2.50098 -0.20013,3.67353c-0.16854,3.10743 -0.12348,7.47503 -0.45796,11.24286c-0.40665,4.58072 -1.84584,8.00881 -3.09917,8.99363c-3.41421,2.68269 -11.97987,5.353 -17.59959,5.4613c-8.70735,0.16784 -14.5416,-3.55381 -15.68135,-5.41073c-2.15623,-3.51295 -2.99356,-8.77217 -3.56151,-13.45015c-0.79879,-6.57926 -0.70869,-12.46494 -0.70869,-12.46494c0,0 -16.95022,3.13508 -20.3272,-9.56417c-0.75754,-2.84874 -2.1539,-10.2131 -2.53206,-19.08442c-0.44136,-10.35357 0.25366,-22.75975 1.13588,-32.43594c0.61804,-6.77884 1.27197,-12.21778 3.08314,-14.67241c2.24026,-3.03615 5.95564,-4.22105 9.55091,-5.10715c5.13347,-1.2652 10.02206,-1.44208 10.02206,-1.44208c0,0 0.03272,-19.934 12.73824,-30.47593c4.68025,-3.88327 13.27259,-5.69481 21.08178,-5.90595z" fill="#150302" stroke-width="0"/><path d="M348.24699,148.29881c0,0.34065 1.03386,3.86805 6.09053,26.38476c3.96508,17.65603 -5.31342,64.77131 -6.46227,67.87745c-2.11472,5.71756 -9.69391,4.92061 -13.42841,4.75954c-1.70879,-0.0737 -3.17209,-0.46306 -4.17714,-1.30588c-1.8272,-1.53227 -2.49445,-4.20871 -2.87991,-6.70089c-0.59092,-3.8206 -0.16137,-7.56973 -0.16137,-7.56973c0,0 5.87917,-1.69415 9.30206,-3.82416c3.82582,-2.38075 5.12322,-4.46155 5.12322,-4.46155c0,0 -4.80869,1.1936 -10.4971,1.43809c-2.59935,0.11173 -5.71555,0.39322 -8.78831,0.17944c-4.00682,-0.27876 -7.93977,-1.07642 -10.55654,-0.89776c-2.80396,0.19144 -3.12407,1.84931 -3.19514,2.29063c-1.03749,6.44219 0.7598,18.15886 -0.84037,22.80122c-1.12358,3.25969 -4.38738,4.57839 -8.08678,5.16472c-5.3669,0.85062 -11.48068,-0.01011 -11.88937,-0.139c-1.21245,-0.38238 -2.08301,0.09498 -3.25034,-3.18672c-1.90136,-5.34528 -2.04683,-18.90706 -2.34719,-31.21187c-0.42791,-17.5302 -1.69561,-34.97944 -0.91839,-50.92208c0.61271,-12.56816 3.1951,-25.3647 3.65919,-28.52237c2.61538,-17.79507 18.1368,-19.80567 32.72874,-19.80567c14.59195,0 30.5749,14.16445 30.5749,27.65182z" fill="#770d3a" stroke-width="0"/><path d="M348.24699,148.29881c0,0.34065 1.03386,3.86804 6.09053,26.38476c0.60327,2.68627 0.89998,3.28524 0.96539,7.07662c0.07322,4.24391 -4.22667,22.88064 -14.50974,28.81275c-12.80784,7.3886 -32.86188,3.9444 -41.61972,-3.2694c-19.63569,-16.17384 -10.18737,-77.51104 -8.65455,-79.09162c6.3919,-6.59106 16.99766,-7.56494 27.1532,-7.56494c14.59194,0 30.5749,14.16444 30.5749,27.65182z" fill="#c41409" stroke-width="0"/><g><path d="M304.43675,140.46489c6.15998,-6.29094 13.56983,-7.95618 16.11615,-8.17378c8.80173,-0.75218 22.76223,-0.6199 31.35519,1.28659c2.18263,0.48425 9.23671,3.45676 11.60039,8.4873c1.80905,3.85014 8.62395,16.58877 -1.41948,28.22253c-10.60233,12.28116 -39.63506,9.61211 -47.93272,7.67057c-3.70239,-1.04867 -10.28978,-5.32147 -12.526,-12.73116c-2.70213,-8.95351 -0.44384,-21.44266 2.80645,-24.76205z" fill="#10293a" stroke-width="0"/><g><path d="M308.07537,157.95526c0,-3.66428 -1.67859,-12.01253 6.10114,-15.84375c6.6197,-3.25995 22.43665,-2.36369 26.79872,-2.0167c4.90128,0.38988 10.32574,1.22637 13.8145,3.23114c4.14656,2.38277 5.14419,13.68619 4.7788,15.60614c-3.07005,16.13188 -33.56174,13.11749 -39.49204,11.58247c-6.41657,-1.66089 -12.00112,-5.77714 -12.00112,-12.55931z" fill="#4a7b9c" stroke-width="0"/><path d="M317.46599,156.07777c-8.15581,-4.18779 -2.38465,-14.36619 -2.19715,-14.4372c7.12509,-2.69821 21.56882,-1.8749 25.70639,-1.54576c4.90128,0.38988 10.32574,1.22637 13.8145,3.23114c1.66477,0.95664 2.82197,3.35118 3.58717,5.99908c0.30297,1.04841 1.22276,8.90675 -3.94373,10.53303c-7.35713,2.31584 -20.97499,4.43127 -36.96718,-3.78029z" fill="#8cc5de" stroke-width="0"/><path d="M350.72283,142.28052c2.23609,0.81882 5.70281,2.393 4.9907,5.25038c-1.50599,6.04291 -8.1849,2.63281 -12.8319,1.83705c-0.74902,-0.12826 -4.23108,-0.17191 -6.35614,-1.35192c-1.36545,-0.75821 -1.80699,-2.622 -1.80699,-3.17232c0,-2.07107 1.67893,-3.75 3.75,-3.75c0.06008,0 3.07448,-0.13064 6.11843,0.08282c2.41709,0.1695 4.79561,0.61318 6.1359,1.10397z" fill="#ffffff" stroke-width="0.5"/></g></g><g stroke-width="0"><path d="M273.64815,157.56602c0.15166,0.07276 0.83535,0.74311 0.89344,2.09341c0.18688,4.34371 -0.60101,14.62382 -0.55942,25.51404c0.06993,18.30763 0.44248,38.82364 0.44248,38.82364c0,0 -1.98678,0.28325 -4.34134,0.14916c-2.33157,-0.13279 -5.02148,-0.67253 -6.96146,-2.76327c-3.72289,-4.0122 -3.94937,-13.64596 -3.94734,-20.8c0.00192,-6.74437 0.09353,-15.92666 0.24408,-24.11c0.11555,-6.28132 -0.0725,-11.92576 1.81383,-15.72074c2.08068,-4.18598 10.94122,-3.89357 12.41572,-3.18623z" fill="#770d3a"/><path d="M273.64815,157.56602c0.15166,0.07276 0.83535,0.74311 0.89344,2.09341c0.05434,1.26297 0.02627,3.02781 -0.03986,5.1636c-0.013,0.41971 -0.04306,1.30112 -0.04306,1.30112c0,0 -5.19264,-0.64802 -7.30623,-0.333c-2.69242,0.40129 -7.53622,2.5452 -7.53622,2.5452c0,0 0.04502,-0.67017 0.07265,-0.99808c0.2132,-2.53029 0.64085,-4.76993 1.54356,-6.58602c2.08068,-4.18598 10.94122,-3.89357 12.41572,-3.18623z" fill="#c41409"/></g></g></g></g></svg>