<svg version="1.1" xmlns="http://www.w3.org/2000/svg" xmlns:xlink="http://www.w3.org/1999/xlink" width="379.05096" height="369.36936" viewBox="0,0,379.05096,369.36936"><g transform="translate(-135.31533,4.68466)"><g stroke-miterlimit="10"><path d="M135.31533,180.00002c0,-101.99853 82.68615,-184.68468 184.68468,-184.68468c101.99853,0 184.68468,82.68615 184.68468,184.68468c0,101.99853 -82.68615,184.68468 -184.68468,184.68468c-101.99853,0 -184.68468,-82.68615 -184.68468,-184.68468z" fill="none" stroke="none" stroke-width="0" stroke-linecap="butt"/><g><path d="M279.79463,303.71521l30.36666,-124.89499l147.17911,19.58419l-30.95665,106.43177z" fill="#de9659" stroke="none" stroke-width="0" stroke-linecap="butt"/><path d="M457.79708,189.10422l-4.08928,-0.78829c0,0 -1.19525,1.02066 -0.89261,-1.38015c0.33754,-2.67771 2.1318,-9.36767 1.1612,-21.45823c-0.41519,-8.06784 0.37034,-19.36237 0.37034,-19.36237l26.88405,12.67927l-15.04147,32.77687z" fill="#e9d092" stroke="none" stroke-width="0" stroke-linecap="butt"/><path d="M478.4137,188.04245l3.57344,-14.97093l18.71929,11.13083l-1.28089,8.85546z" fill="#69371f" stroke="none" stroke-width="0" stroke-linecap="butt"/><path d="M278.26955,301.9631l6.00326,-20.49841c0,0 6.4899,9.63117 12.64157,12.42239c9.29564,4.21778 36.21624,12.00971 36.21624,12.00971l-31.74804,1.58319z" fill="#b55e36" stroke="none" stroke-width="0" stroke-linecap="butt"/><path d="M335.87973,244.36795c0,0 -3.57019,-17.22813 -6.63088,-26.45868c-3.45553,-10.4213 -13.06183,-32.93135 -13.06183,-32.93135l128.09957,48.3435l-6.14381,25.73948c0,0 -14.84061,-6.9203 -31.3459,-8.07971c-7.70913,-0.54153 -17.8282,5.11141 -23.24539,4.33307c-17.07204,-2.45287 -47.67173,-10.94632 -47.67173,-10.94632z" fill="#b55e36" stroke="none" stroke-width="0" stroke-linecap="butt"/><path d="M355.55459,227.07116l-24.71667,-45.32056l130.08325,13.28266l20.41926,35.41122c0,0 -9.90066,1.6726 -11.14549,1.58637c-8.99279,-0.62293 -114.64034,-4.9597 -114.64034,-4.9597z" fill="#e9d092" stroke="none" stroke-width="0" stroke-linecap="butt"/><path d="M190.49185,244.61121l29.38076,-106.80791l91.34076,40.67991l-37.5954,122.61431z" fill="#bc6332" stroke="none" stroke-width="0" stroke-linecap="butt"/><path d="M198.90401,218.67286c0,0 -0.4237,-18.76806 2.18886,-30.21198c3.74337,-16.39726 18.12552,-58.77195 18.12552,-58.77195c0,0 -19.83402,-36.35549 -18.35356,-35.61692c6.05252,3.01942 50.75953,3.67022 73.1484,21.216c25.4515,19.94591 28.80124,57.0587 34.34186,60.80156c3.34336,2.25854 -2.29174,10.78824 -2.29174,10.78824c0,0 -34.20918,15.55098 -33.98728,17.00246c0.87075,5.6956 4.9818,10.5293 3.9511,13.97089c-2.76221,9.22319 -17.53423,20.22719 -17.53423,20.22719c0,0 -24.51125,-10.58995 -35.03251,-16.5528c-7.22182,-4.09291 0.75962,-3.95018 -6.7053,-4.93845c-5.72568,-0.75802 -10.62347,6.1138 -12.79755,5.73525c-2.66159,-0.46343 -5.05359,-3.6495 -5.05359,-3.6495z" fill="#a94b23" stroke="none" stroke-width="0" stroke-linecap="butt"/><path d="M217.30597,219.50259c0,0 -21.29674,-29.91175 -22.87282,-32.11031c-0.33859,-0.47232 13.11521,-10.75009 13.11521,-10.75009l8.45482,-42.3998c0,0 -30.14297,-55.16005 -28.86493,-53.52862c0.59644,0.76135 29.52462,15.52102 44.24133,21.67059c15.22173,6.3606 47.82798,13.63097 47.82798,13.63097l31.01363,58.48329l16.98236,7.94012c0,0 9.40511,10.19252 12.54694,16.28083c4.7663,9.23625 13.26784,33.74362 13.26784,33.74362l44.00603,-0.60058" fill="none" stroke="#311108" stroke-width="13" stroke-linecap="round"/><path d="M326.6307,177.86024l135.21081,15.06179l27.74306,46.59816l-73.17183,-7.47151" fill="none" stroke="#311108" stroke-width="13" stroke-linecap="round"/><path d="M457.79575,143.87905l29.87629,26.89211c0,0 -11.43567,6.12454 -15.32269,9.63263c-3.89735,3.5174 -8.03049,11.44389 -8.03049,11.44389" fill="none" stroke="#311108" stroke-width="13" stroke-linecap="round"/><path d="M447.15443,240.49692c0,0 -15.57724,68.17904 -16.17451,67.76313c-94.10973,2.29692 -147.75687,1.79415 -154.58205,-1.36317c-21.98719,-6.50255 -86.47454,-63.39301 -86.47454,-63.39301l6.44211,-22.33694l-3.12143,-10.18387l3.22963,-4.22612" fill="none" stroke="#311108" stroke-width="13" stroke-linecap="round"/><path d="M277.10264,299.29199l33.56595,-119.68955" fill="none" stroke="#311108" stroke-width="9" stroke-linecap="round"/><path d="M218.55836,128.18962l86.93515,45.18055" fill="none" stroke="#311108" stroke-width="9" stroke-linecap="round"/><path d="M493.4503,172.15039l12.34316,27.37606l-31.56526,-11.97616" fill="none" stroke="#311108" stroke-width="9" stroke-linecap="round"/><path d="M401.47748,231.81509l-2.01674,-17.13809l13.82402,18.84595" fill="none" stroke="#311108" stroke-width="9" stroke-linecap="round"/></g></g></g></svg>