<svg version="1.1" xmlns="http://www.w3.org/2000/svg" xmlns:xlink="http://www.w3.org/1999/xlink" width="107" height="32.5" viewBox="0,0,107,32.5"><g transform="translate(-266.5,-163.75)"><g stroke-miterlimit="10"><path d="M267.5,191.5c0,-6.62482 0,-20.02853 0,-23.5c0,-1.61048 1.89944,-3.25 4.25,-3.25c9.89439,0 77.98555,0 96.25,0c2.86152,0 4.5,1.36974 4.5,3.5c0,6.38614 0,19.60707 0,23.25c0,1.81896 -1.35392,3.75 -3.75,3.75c-17.12037,0 -87.4463,0 -97.25,0c-2.22406,0 -4,-1.47545 -4,-3.75z" fill="#7cc8c0" stroke="#ffffff" stroke-width="2" stroke-linecap="butt"/><path d="M286.275,171.33896c0,4.53688 0,15.54002 0,18.58107c0,1.51447 -1.06594,2.1704 -2.01718,1.28486c-1.66698,-1.55187 -7.1116,-6.62049 -9.97971,-9.29054c-1.0877,-1.01259 -1.22225,-2.13913 -0.31045,-2.85737c2.77895,-2.18903 8.61582,-6.78685 10.33702,-8.14268c0.93286,-0.73483 1.97032,-0.79883 1.97032,0.42465z" fill="#b0e8db" stroke="none" stroke-width="0" stroke-linecap="round"/></g></g></svg>