<svg version="1.1" xmlns="http://www.w3.org/2000/svg" xmlns:xlink="http://www.w3.org/1999/xlink" width="334.46086" height="350.79848" viewBox="0,0,334.46086,350.79848"><g transform="translate(-152.76957,-4.60075)"><g stroke-miterlimit="10"><g><path d="M153.76957,349.87195c0,-39.2095 0,-320.35678 0,-340.53126c0,-2.25819 1.6135,-3.73994 4.03519,-3.73994c20.24362,0 284.94108,0 323.70154,0c3.07141,0 4.72413,1.72129 4.72413,4.92096c0,40.51692 0,318.08915 0,339.54706c0,2.59591 -1.51177,4.33046 -4.33045,4.33046c-37.372,0 -304.48974,0 -323.89836,0c-2.19653,0 -4.23203,-1.58028 -4.23203,-4.5273z" fill="#000000" stroke="#ffffff" stroke-width="2"/><path d="M157.05979,346.4934c0,-38.40999 0,-313.82446 0,-333.58756c0,-2.21214 1.58059,-3.66368 3.95292,-3.66368c19.83083,0 279.13091,0 317.101,0c3.00878,0 4.6278,1.68619 4.6278,4.82063c0,39.69075 0,311.60307 0,332.62343c0,2.54298 -1.48095,4.24215 -4.24215,4.24215c-36.60995,0 -298.28096,0 -317.29383,0c-2.15174,0 -4.14574,-1.54805 -4.14574,-4.43498z" fill="#000000" stroke="#ffffff" stroke-width="1.5"/><path d="M323.97498,234.85912c-0.2571,-6.52956 0,6.13678 0,-13.62632c0,-2.21215 1.58059,-3.66368 3.95292,-3.66368c19.83083,0 103.14579,0 141.11589,0c3.00878,0 4.6278,1.68619 4.6278,4.82063c0,7.81032 0,-8.35818 0,12.66219c0,2.54298 -1.48095,4.24215 -4.24215,4.24215c-36.60995,0 -122.29584,0 -141.30872,0c-2.15174,0 -4.03216,-1.5503 -4.14574,-4.43498z" fill="#000000" stroke="#ffffff" stroke-width="3"/><text transform="translate(345.41201,233.83296) scale(0.31085,0.31085)" font-size="40" xml:space="preserve" fill="#ffffff" stroke="none" stroke-width="1" font-family="Sans Serif" font-weight="normal" text-anchor="start"><tspan x="0" dy="0">好友与大厅邀请: 关</tspan></text><path d="M323.97498,264.93985c-0.2571,-6.52957 0,6.13678 0,-13.62632c0,-2.21215 1.58059,-3.66368 3.95292,-3.66368c19.83083,0 103.14579,0 141.11589,0c3.00878,0 4.6278,1.68619 4.6278,4.82063c0,7.81032 0,-8.35818 0,12.66219c0,2.54298 -1.48095,4.24215 -4.24215,4.24215c-36.60995,0 -122.29584,0 -141.30872,0c-2.15174,0 -4.03216,-1.5503 -4.14574,-4.43498z" fill="#000000" stroke="#ffffff" stroke-width="3"/><text transform="translate(363.56286,263.38864) scale(0.2671,0.2671)" font-size="40" xml:space="preserve" fill="#ffffff" stroke="none" stroke-width="1" font-family="Sans Serif" font-weight="normal" text-anchor="start"><tspan x="0" dy="0">直播主模式: 关</tspan></text><text transform="translate(172.40124,61.64632) scale(0.32332,0.32332)" font-size="40" xml:space="preserve" fill="#ffffff" stroke="#ffffff" stroke-width="1" font-family="Sans Serif" font-weight="normal" text-anchor="start"><tspan x="0" dy="0">操作</tspan></text><text transform="translate(172.40128,167.71156) scale(0.32332,0.32332)" font-size="40" xml:space="preserve" fill="#ffffff" stroke="#ffffff" stroke-width="1" font-family="Sans Serif" font-weight="normal" text-anchor="start"><tspan x="0" dy="0">声音</tspan></text><text transform="translate(172.40128,119.87952) scale(0.32332,0.32332)" font-size="40" xml:space="preserve" fill="#ffffff" stroke="#ffffff" stroke-width="1" font-family="Sans Serif" font-weight="normal" text-anchor="start"><tspan x="0" dy="0">键盘选项</tspan></text><text transform="translate(194.25516,210.68425) scale(0.31537,0.31537)" font-size="40" xml:space="preserve" fill="#ffffff" stroke="none" stroke-width="1" font-family="Sans Serif" font-weight="normal" text-anchor="start"><tspan x="0" dy="0">音乐</tspan></text><text transform="translate(194.33741,190.24479) scale(0.31537,0.31537)" font-size="40" xml:space="preserve" fill="#ffffff" stroke="none" stroke-width="1" font-family="Sans Serif" font-weight="normal" text-anchor="start"><tspan x="0" dy="0">音效</tspan></text></g></g></g></svg>