<svg version="1.1" xmlns="http://www.w3.org/2000/svg" xmlns:xlink="http://www.w3.org/1999/xlink" width="141.56317" height="173.52172" viewBox="0,0,141.56317,173.52172"><g transform="translate(-246.1969,-93)"><g stroke="none" stroke-miterlimit="10"><path d="M316.32716,93.47588l0.1483,-0.00077c1.14182,-0.01116 2.27177,-0.19686 3.41056,-0.26203c1.12914,-0.06461 2.28596,-0.01541 3.41766,-0.00848c1.85747,0.01137 3.81114,0.30444 5.60499,0.27199c3.95047,0.59782 7.99214,1.28792 11.80618,2.50335c1.14507,0.36491 2.26165,0.88217 3.36904,1.35024c6.61747,2.79703 12.8931,6.84572 17.53539,12.39604l0.07793,0.07688c1.68882,1.64765 6.0458,2.54173 8.34758,3.68238c2.1657,1.07285 4.10459,2.64245 5.95043,4.17961c7.85094,6.53896 11.52518,14.37163 11.75663,24.55703c0.12213,5.39761 -1.09797,11.00597 -4.98156,15.01436c-0.91187,0.9249 -1.93191,1.73616 -3.03802,2.41599c0.15004,1.38758 0.37103,2.7747 0.46291,4.16786c0.21169,3.25366 0.15818,6.54745 0.16283,9.80715c0.00349,2.87507 0.06281,5.7898 -0.10235,8.65906c-0.63738,11.03539 -3.32298,22.85832 -7.6881,33.01359c-2.78214,6.47382 -6.89836,11.63567 -11.31465,17.02664c-3.72472,4.54656 -7.55283,9.25015 -11.76256,13.35241c-6.97698,6.79949 -19.00066,14.77953 -28.08216,18.38515c-5.32573,2.11568 -10.07095,3.15201 -15.74677,1.94471c-1.13961,-0.24309 -2.27886,-0.46989 -3.35066,-0.94328c-1.22928,-0.54433 -2.33318,-1.34338 -3.44592,-2.08777c-4.14774,-2.77865 -5.34852,-4.22206 -7.16622,-8.93029c-0.62365,0.56062 -1.38874,0.99794 -2.1543,1.33175c-4.01712,1.75512 -13.19202,2.91241 -17.49119,2.47392c-1.93366,-0.19656 -3.98327,-0.79672 -5.78841,-1.50156c-5.84668,-2.28549 -10.80963,-8.32199 -13.25312,-13.96885c-2.21614,-5.11997 -1.89784,-9.51998 0.12721,-14.61204c0.57122,-1.43643 1.39088,-2.58557 2.36622,-3.77078c3.39702,-4.12669 5.72986,-4.16274 10.40029,-6.08186c2.36621,-0.97352 4.6445,-2.12615 6.99373,-3.13921c-1.52041,-0.31171 -3.0892,-0.28845 -4.63554,-0.35126c-4.27975,-0.17447 -8.11042,-0.74555 -11.81946,-3.0229c-9.01147,-5.53322 -9.24431,-15.05077 -6.99135,-24.40792c0.2173,-0.90245 0.43394,-1.82246 0.7542,-2.69502c0.5024,-1.36885 1.18312,-2.71747 1.47464,-4.15123c0.32479,-1.59729 0.19347,-3.42859 0.14033,-5.05833c-0.09583,-2.93881 -1.22198,-5.71385 -2.13755,-8.47529c-1.06897,-3.224 -2.22797,-6.50279 -3.00291,-9.81006c-0.40853,-1.74361 -0.45534,-3.49629 -0.47993,-5.27839c-0.08463,-6.13315 0.99024,-12.34574 4.29073,-17.62692c1.35632,-2.17035 3.13918,-4.3714 5.11158,-6.01079c2.83302,-2.3547 7.94625,-4.71021 11.46022,-5.86052c1.27999,-0.41906 2.60639,-0.7003 3.91721,-1.00573c1.47598,-0.38289 2.99952,-0.33648 4.51295,-0.35893c0.62761,-0.2075 1.52355,-0.23076 2.19896,-0.3423c0.83371,-2.82017 5.88332,-10.13143 7.93421,-12.54068c8.53647,-10.02845 17.90281,-13.23239 30.69983,-14.30691z" fill="#00002c"/><path d="M299.67179,108.40237c1.09855,-1.34548 2.56359,-1.95145 4.05527,-2.74597c4.31918,-2.30072 5.18767,-2.9582 10.18039,-3.84006c2.19698,-0.38803 4.38594,-0.41579 6.61014,-0.4216c6.81101,-0.01781 11.84689,0.78743 18.27,3.06479c1.47912,0.52437 3.09083,0.96077 4.38327,1.86706c3.06826,0.75218 6.29773,0.93386 9.40682,1.54576c2.54905,0.50165 5.01506,1.40921 7.56563,1.86713c0.53503,0.09596 0.94618,0.14318 1.47598,-0.01326l0.07793,0.07688c1.68882,1.64765 6.0458,2.54173 8.34758,3.68238c2.1657,1.07285 4.10459,2.64245 5.95043,4.17961c7.85094,6.53896 11.52518,14.37163 11.75663,24.55703c0.12213,5.39761 -1.09797,11.00597 -4.98156,15.01436c-0.91187,0.9249 -1.93191,1.73616 -3.03802,2.41599l-0.10235,0.02338c-0.66762,0.15772 -1.28639,0.45036 -1.95052,0.62191c-2.03194,0.52456 -4.39303,0.56178 -6.44707,0.12143c-0.08491,1.30209 0.08374,2.63314 0.13608,3.93663c0.11747,2.9145 0.37685,10.1726 -0.65017,12.62756c-2.29945,5.26164 -3.00895,12.16244 -6.00975,16.91068c-0.79091,1.25231 -1.80513,2.35982 -2.8496,3.40405c-3.84382,3.84289 -8.46098,6.21038 -13.75286,7.40012c-2.63791,0.59295 -9.77785,0.62901 -12.54987,0.28031c-4.8342,-0.60807 -19.37169,-4.67625 -23.28006,-7.19437c-1.46062,-0.94106 -2.52661,-2.52032 -3.48581,-3.93954c-1.55774,-2.30515 -3.76985,-7.15168 -4.32546,-9.85066c-0.37103,-1.80281 -0.45791,-3.66191 -0.74206,-5.4803c-0.29171,-1.86631 -0.72007,-3.72716 -0.8422,-5.61522c-0.11294,-1.74593 -0.04385,-3.51059 -0.10282,-5.26001c-0.07048,-2.09288 -0.29485,-4.21485 -0.55422,-6.29296c-0.3901,-3.12537 -0.70205,-6.31425 -1.33059,-9.40089c-0.61365,-3.01336 -1.52285,-5.97043 -2.1893,-8.97484c-0.61226,-2.76004 -1.04819,-5.56835 -1.54635,-8.35107c-0.96014,-5.36411 -1.9832,-9.93033 -1.49493,-15.45553c0.11654,-1.31965 0.26146,-2.67269 0.62121,-3.95187c0.68193,-2.4253 2.0459,-4.70184 3.38823,-6.80891z" fill="#fe100f"/><path d="M343.17086,106.32659c3.06826,0.75218 6.29773,0.93386 9.40682,1.54576c2.54905,0.50165 5.01506,1.40921 7.56563,1.86713c0.53503,0.09596 0.94618,0.14318 1.47598,-0.01326l0.07793,0.07688c1.68882,1.64765 6.0458,2.54173 8.34758,3.68238c2.1657,1.07285 4.10459,2.64245 5.95043,4.17961c7.85094,6.53896 11.52518,14.37163 11.75663,24.55703c0.12213,5.39761 -1.09797,11.00597 -4.98156,15.01436c-0.91187,0.9249 -1.93191,1.73616 -3.03802,2.41599l-0.10235,0.02338c-0.66762,0.15772 -1.28639,0.45036 -1.95052,0.62191c-2.03194,0.52456 -4.39303,0.56178 -6.44707,0.12143c-1.5225,-0.46082 -2.75771,-1.42643 -4.09993,-2.24362c-2.38552,-1.45283 -5.14323,-2.26188 -7.89537,-2.65583c-4.0819,-0.58457 -8.47506,-0.55666 -12.5993,-0.37859c-1.92133,0.08293 -3.83533,0.31973 -5.75642,0.40138c-2.24002,0.09526 -4.49922,0.03885 -6.74192,0.04106c-1.63067,0.00163 -3.29413,0.06153 -4.9205,-0.04757c-5.30514,-0.35603 -10.61179,-1.98693 -14.70474,-5.46541c-5.0888,-4.32476 -9.24235,-11.58926 -9.77575,-18.30547c-0.42255,-5.32096 1.74779,-10.40208 5.16103,-14.40106c3.15456,-3.69599 9.05893,-7.38872 13.66633,-8.96286c3.0671,-1.04784 6.38868,-1.63264 9.61594,-1.86817c3.31763,-0.24204 6.68086,0.05618 9.98918,-0.20645z" fill="#002600"/><path d="M326.42242,118.51775c2.37215,-0.92071 5.91926,-1.7521 8.45005,-2.10743c3.29751,-0.46291 14.33558,-0.75637 17.35452,0.00198c4.25544,0.4771 9.27364,2.21583 13.14212,4.06853c1.09331,-0.26333 1.89004,0.29089 2.7961,0.8472c5.08392,3.12153 10.54933,8.90703 11.95901,14.86711c0.10352,0.44523 0.19307,0.89361 0.26868,1.34443c0.67227,3.50698 -0.0756,8.46133 -2.12615,11.42945c-0.10468,0.15341 -0.22099,0.29822 -0.34893,0.43314c-0.23727,0.24937 -0.51642,0.4678 -0.85953,0.54294c-1.20381,0.26344 -3.72193,-0.47548 -4.98738,-0.78207c-2.24711,-0.55038 -4.45933,-1.23498 -6.62387,-2.0502c-1.32943,-0.49641 -2.65536,-1.09936 -4.01037,-1.50959c-4.41595,-1.33675 -9.33296,-1.13798 -13.86859,-0.83231c-1.26394,0.08526 -2.55836,0.12759 -3.81288,0.3038c-1.38886,0.19505 -2.76551,0.56469 -4.14576,0.81999c-1.93843,0.35847 -3.82172,0.39464 -5.78713,0.39673c-5.13416,0.00581 -8.60346,-0.57748 -12.92636,-3.57235c-3.42382,-2.37203 -6.18445,-5.51287 -6.92848,-9.71387c-0.4336,-2.44868 -0.08223,-5.16522 1.37932,-7.22647c2.89589,-4.08423 6.11233,-6.38787 11.07564,-7.26101z" fill="#00fe00"/><path d="M380.3929,137.53958c0.67227,3.50698 -0.0756,8.46133 -2.12615,11.42945c-0.10468,0.15341 -0.22099,0.29822 -0.34893,0.43314c-0.23727,0.24937 -0.51642,0.4678 -0.85953,0.54294c-1.20381,0.26344 -3.72193,-0.47548 -4.98738,-0.78207c-2.24711,-0.55038 -4.45933,-1.23498 -6.62387,-2.0502c-1.32943,-0.49641 -2.65536,-1.09936 -4.01037,-1.50959c-4.41595,-1.33675 -9.33296,-1.13798 -13.86859,-0.83231c-1.26394,0.08526 -2.55836,0.12759 -3.81288,0.3038c-1.38886,0.19505 -2.76551,0.56469 -4.14576,0.81999c-1.93843,0.35847 -3.82172,0.39464 -5.78713,0.39673c-5.13416,0.00581 -8.60346,-0.57748 -12.92636,-3.57235c-3.42382,-2.37203 -6.18445,-5.51287 -6.92848,-9.71387c-0.4336,-2.44868 -0.08223,-5.16522 1.37932,-7.22647c2.89589,-4.08423 6.11233,-6.38787 11.07564,-7.26101c-0.01175,0.03862 -0.02315,0.07735 -0.03524,0.11584c-0.24972,0.79056 -0.73124,1.52041 -1.13077,2.24537c-1.10716,2.00891 -1.90795,4.07155 -1.91691,6.40253c-0.00337,0.90489 0.07002,1.94622 0.48943,2.76457c1.30593,2.54801 5.27943,5.5145 8.02238,6.35612c2.47462,0.75927 5.37039,0.57364 7.94992,0.82289c9.41507,0.90978 19.11499,1.10343 28.27326,3.66156l5.84342,1.63276c1.00957,0.27589 2.1215,0.67623 3.16712,0.74718c0.28845,0.01942 0.54898,-0.03303 0.80138,-0.17621c1.25499,-0.7124 2.00402,-2.943 2.32039,-4.30627c0.09421,-0.40615 0.14073,-0.83069 0.1861,-1.24452z" fill="#008000"/><path d="M365.36911,120.48084c1.05144,0.53328 2.10638,1.06121 3.09153,1.7122c1.69929,1.12274 4.88968,3.46907 5.28513,5.56346c0.13492,0.71217 -0.10235,1.32536 -0.50711,1.89725c-0.49548,0.69809 -1.32477,1.46551 -2.21106,1.57612c-1.50738,0.18819 -3.66144,-1.60776 -4.80128,-2.47973c-1.84701,-1.41294 -3.4358,-3.11595 -5.54288,-4.15774c-1.34838,-0.66646 -2.80354,-1.27895 -4.22927,-1.75954c-2.00286,-0.67506 -4.48911,-0.87628 -6.17211,-2.23409c-0.44023,-0.35521 -0.84185,-0.82173 -0.87768,-1.4127c-0.03513,-0.57911 0.30322,-1.09227 0.6689,-1.50889c0.57504,-0.65494 1.25638,-1.20928 2.15372,-1.26487c4.25544,0.4771 9.27364,2.21583 13.14212,4.06853z" fill="#fefefe"/><path d="M286.40218,216.28993c0.1512,-1.28406 0.52409,-2.46694 0.76683,-3.72658c0.39336,-2.04241 -1.48516,-2.16337 -2.75981,-3.06361c-0.4728,-0.33299 -0.87768,-0.82522 -1.19916,-1.30093c-1.82316,-2.69793 -2.17035,-6.56501 -2.31108,-9.72283c-0.18482,-4.14902 0.077,-8.36154 0.58202,-12.4802c0.36533,-2.9787 0.93955,-5.86261 0.98724,-8.88156c0.03175,-2.00728 -0.09793,-4.02189 -0.11654,-6.03045c-0.03757,-4.03596 -0.02129,-8.03552 -0.23088,-12.06962c-0.2603,-5.01332 -0.47827,-9.99639 -0.56957,-15.01564c-0.05409,-2.97998 -0.26147,-6.29285 0.32218,-9.21549c0.33323,-1.6687 1.18218,-3.2254 1.82014,-4.7943c2.98719,-7.34638 5.7249,-12.54963 11.43073,-18.23208c1.10774,-1.10332 2.23385,-2.34761 3.54351,-3.20888c0.41034,-0.26984 0.53445,-0.24576 1.00399,-0.14539c-1.34234,2.10707 -2.70631,4.38361 -3.38823,6.80891c-0.35975,1.27918 -0.50467,2.63222 -0.62121,3.95187c-0.48827,5.5252 0.53479,10.09142 1.49493,15.45553c0.49816,2.78272 0.93409,5.59103 1.54635,8.35107c0.66646,3.00441 1.57565,5.96148 2.1893,8.97484c0.62854,3.08664 0.94049,6.27552 1.33059,9.40089c0.25937,2.07811 0.48373,4.20008 0.55422,6.29296c0.05897,1.74942 -0.01012,3.51408 0.10282,5.26001c0.12213,1.88806 0.55049,3.74891 0.8422,5.61522c0.28415,1.81839 0.37103,3.67749 0.74206,5.4803c0.55561,2.69898 2.76772,7.54551 4.32546,9.85066c0.95921,1.41922 2.02519,2.99848 3.48581,3.93954c3.90837,2.51812 18.44586,6.5863 23.28006,7.19437c2.77202,0.3487 9.91195,0.31264 12.54987,-0.28031c5.29188,-1.18974 9.90904,-3.55723 13.75286,-7.40012c1.04447,-1.04423 2.05869,-2.15174 2.8496,-3.40405c3.0008,-4.74824 3.7103,-11.64904 6.00975,-16.91068c0.20122,0.12666 0.40127,0.17795 0.4571,0.41872c0.23727,1.03237 -0.2396,4.03213 -0.3373,5.31631c-0.25356,3.35078 -0.73857,6.67329 -1.25848,9.99186c-0.56759,3.62841 -1.18869,7.33196 -2.24013,10.85627c-0.93513,3.137 -2.20757,6.19142 -3.49396,9.19804c-0.98631,2.3041 -1.95168,4.66985 -3.33159,6.7739c-1.96622,2.99731 -4.63031,5.53985 -6.8573,8.34293c-1.78873,2.2506 -3.21516,4.71172 -5.13277,6.87742c-0.69565,0.78858 -1.42736,1.54344 -2.19303,2.26339c-0.89559,0.84092 -7.6617,6.85416 -8.06378,6.93441c-0.02233,0.00349 -0.04513,0.00581 -0.06746,0.0093c-0.01326,0.00233 -0.02617,0.00581 -0.03931,0.0093c-0.81429,1.78652 -9.11092,6.73087 -11.16531,7.82768c-1.57065,0.8386 -3.19318,1.576 -4.85758,2.20757c-1.0804,0.40592 -2.13115,0.67576 -3.26866,0.86418c-0.05187,0.04885 -0.07363,0.07328 -0.13004,0.11049c-0.5862,0.38731 -6.16874,1.67836 -7.06421,1.7621c-0.89187,0.08723 -1.79176,0.04071 -2.6699,-0.13841c-3.63446,-0.74787 -7.4342,-4.2523 -9.42659,-7.25543c4.55761,-3.14154 10.00931,-7.47874 13.70634,-11.57519c0.86581,-0.96305 1.68534,-1.9668 2.45601,-3.00778c0.65611,-0.88861 1.28441,-2.07962 2.10905,-2.79726c1.16403,-1.0119 4.21136,0.39778 5.54009,0.67344c0.7894,0.164 1.62055,0.20122 2.42355,0.25356c2.29305,0.14888 11.89469,0.30357 13.43836,-1.05377c0.09689,-0.29659 0.10189,-0.41174 -0.02478,-0.71647c-0.51874,-1.25034 -3.13654,-1.30384 -4.33488,-1.59578c-2.31911,-0.56527 -4.50911,-1.38525 -6.75239,-2.17732c-2.63745,-0.93164 -5.22907,-1.82723 -7.76312,-3.02174c-1.51843,-0.71531 -2.83483,-1.88539 -4.39257,-2.49369c-3.67622,0.77346 -5.41878,3.14735 -7.18006,6.17956c-0.44605,0.76765 -0.93746,1.67021 -1.61857,2.25293c-1.36897,1.74465 -3.02988,3.54746 -4.71847,4.98505c-2.07579,1.76675 -4.54436,3.21016 -6.81171,4.72103c-2.05753,1.3713 -4.1011,2.90659 -6.26097,4.10226c-1.17962,0.65366 -2.70177,1.46435 -4.04678,1.63648c-0.16737,0.02094 -0.33474,0.03257 -0.50316,0.04071l-0.07548,0.18842c-1.13798,0.76532 -6.80624,1.73302 -8.31688,1.90516c-3.86394,0.43849 -6.69097,-0.26635 -9.7333,-2.71119c-2.68025,-2.15406 -5.20453,-5.72479 -5.56614,-9.21642c-0.15609,-1.50622 0.0043,-3.27878 1.08773,-4.4384c1.28383,-1.37246 4.27882,-2.11917 5.99614,-3.03802c3.27762,-1.75396 16.32204,-9.84682 18.07844,-12.04741z" fill="#0101fe"/><path d="M284.84387,245.75944c-0.43035,-0.13492 -0.85511,-0.29427 -1.24696,-0.52107c-1.30139,-0.7502 -2.37994,-2.30759 -2.74631,-3.751c-0.42023,-1.65509 0.21738,-3.54979 1.05959,-4.97226c0.51432,-0.86884 1.17578,-1.61438 1.91202,-2.29945c1.60845,-1.49691 3.52838,-2.70654 5.2514,-4.07435c1.52913,-1.21428 2.89787,-2.66583 4.56203,-3.70099c1.18811,-0.73973 2.51509,-1.2736 3.86801,-1.62369c2.2499,-0.58271 4.63194,-0.42453 6.65387,0.78858c2.26188,1.35734 2.42704,2.339 3.02744,4.66869c-1.36897,1.74465 -3.02988,3.54746 -4.71847,4.98505c-2.07579,1.76675 -4.54436,3.21016 -6.81171,4.72103c-2.05753,1.3713 -4.1011,2.90659 -6.26097,4.10226c-1.17962,0.65366 -2.70177,1.46435 -4.04678,1.63648c-0.16737,0.02094 -0.33474,0.03257 -0.50316,0.04071z" fill="#fe100f"/><path d="M318.86866,254.87467c-0.3601,-0.32916 -0.66622,-0.71065 -0.96886,-1.09099c-1.2087,-1.52017 -2.08742,-3.04849 -1.83887,-5.05716c0.24972,-2.01914 1.43585,-3.55677 3.01022,-4.7757c1.10483,-0.85604 2.37249,-1.46783 3.52478,-2.2506c2.94137,-1.99705 4.5789,-3.96385 8.5716,-3.45557c2.38843,0.30473 5.39202,1.46318 6.88289,3.38812c0.09945,0.76648 0.08351,1.56902 0.1098,2.34248c-0.81429,1.78652 -9.11092,6.73087 -11.16531,7.82768c-1.57065,0.8386 -3.19318,1.576 -4.85758,2.20757c-1.0804,0.40592 -2.13115,0.67576 -3.26866,0.86418z" fill="#fe100f"/><path d="M256.64725,145.73549c-0.02756,-0.10968 -0.05118,-0.21134 -0.06013,-0.32427c-0.24838,-3.11955 2.24246,-7.59482 4.27056,-9.86171c3.60724,-4.03201 7.75986,-4.72591 12.90217,-5.01785c-0.51467,2.17384 -0.67227,4.5183 -0.75509,6.74587c0.04257,1.51494 -0.23622,3.03011 -0.22622,4.54668c0.02466,3.76717 0.33474,7.59656 0.51409,11.36536c0.17923,3.76589 0.60214,7.51399 0.81068,11.27604c0.11852,2.13801 0.06537,4.30499 0.07339,6.44649c0.00756,2.0324 0.07572,4.07958 0.01035,6.11035c-0.07677,2.38971 -0.51898,4.74836 -0.75753,7.124c-0.68228,6.79356 -1.46423,13.7581 -1.18915,20.58469c-4.97796,-0.00756 -8.74792,0.46966 -12.59953,-3.39498c-1.69848,-1.70418 -3.01499,-3.91756 -2.98638,-6.37543c0.05315,-4.55098 1.7621,-9.20223 2.96591,-13.56048c0.53316,-1.9304 1.15868,-4.0562 1.16334,-6.07174c0.00581,-2.5672 -1.35874,-5.16952 -1.94889,-7.65228c-0.50653,-2.13069 -0.69111,-4.32337 -1.05365,-6.47976c-0.2446,-1.45504 -0.64424,-2.87856 -0.92455,-4.32627c-0.56678,-2.92729 -0.83063,-5.96531 -0.65073,-8.94402c0.03787,-0.62691 0.04058,-1.69789 0.44138,-2.1907z" fill="#0101fe"/><path d="M256.64725,145.73549c-0.02756,-0.10968 -0.05118,-0.21134 -0.06013,-0.32427c-0.24838,-3.11955 2.24246,-7.59482 4.27056,-9.86171c3.60724,-4.03201 7.75986,-4.72591 12.90217,-5.01785c-0.51467,2.17384 -0.67227,4.5183 -0.75509,6.74587c-5.0945,0.56794 -9.58547,2.59081 -13.55409,5.84435c-0.967,0.79289 -1.79187,1.90877 -2.80342,2.61361z" fill="#fe100f"/><path d="M319.0829,93h7.07015c0.89315,0.23347 1.90725,0.17207 2.75562,0.47659c-1.79385,0.03245 -3.74751,-0.26063 -5.60499,-0.27199c-1.1317,-0.00693 -2.28852,-0.05613 -3.41766,0.00848c-1.13879,0.06517 -2.26874,0.25087 -3.41056,0.26203l-0.1483,0.00077c0.8429,-0.26847 1.87294,-0.29483 2.75574,-0.47588z" fill-opacity="0.40392" fill="#00002c"/></g></g></svg>