<svg version="1.1" xmlns="http://www.w3.org/2000/svg" xmlns:xlink="http://www.w3.org/1999/xlink" width="493.5045" height="430.91276" viewBox="0,0,493.5045,430.91276"><g transform="translate(-73.24783,52.53277)"><g stroke-miterlimit="10"><path d="M566.75211,170.14433c0.00014,0.09256 0.00022,0.18512 0.00022,0.2777c0,114.85201 -110.47474,207.95796 -246.75225,207.95796c-136.2775,0 -246.75225,-93.10595 -246.75225,-207.95796c0,-114.85201 110.47475,-207.95796 246.75225,-207.95796c125.2106,0 228.63907,78.59795 244.6119,180.44548" fill="none" stroke="none" stroke-width="0"/><path d="M566.72569,170.23466c-1.9588,115.24167 -111.67141,208.14534 -246.72561,208.14534c-136.2775,0 -246.75225,-94.59431 -246.75225,-211.28231v-0.00001c0,-116.688 110.47475,-211.28231 246.75225,-211.28231c126.91774,0 231.45535,82.04672 245.21631,187.57545" fill="none" stroke="none" stroke-width="0"/><path d="M557.49297,202.04081c-19.06565,98.43364 -119.48121,173.51403 -240.49285,173.51403c-134.62065,0 -243.75225,-92.91711 -243.75225,-207.53617v-0.00001c0,-114.61906 109.1316,-207.53617 243.75225,-207.53617c124.22791,0 226.75038,79.12445 241.83951,181.41113" fill="none" stroke="none" stroke-width="0"/><g><g stroke="none"><path d="M311.66051,301.21445c68.7502,0 124.48324,13.15172 124.48324,29.37516c0,16.22344 -55.73304,29.37516 -124.48324,29.37516c-68.7502,0 -124.48325,-13.15172 -124.48325,-29.37516c0,-16.22344 55.73305,-29.37516 124.48325,-29.37516z" fill="#3a3a3a" stroke-width="0"/><path d="M424.10302,20.94349c0.20968,1.40172 5.7818,55.57062 6.83083,56.07334c1.31338,0.6294 0.65236,35.73919 -1.78923,64.89716c-1.61552,19.2929 -5.55758,36.7536 -4.67221,37.12066c19.96382,8.27686 40.26171,19.57553 47.28476,30.29489c5.43534,8.29604 8.89431,15.83303 9.64914,22.21727c2.85637,24.15909 -33.24475,42.79275 -38.60818,44.12183c-6.46052,1.60092 -14.64132,2.98854 -22.09751,0.08067c-9.06461,-3.53519 -17.17245,-10.55979 -25.3339,-16.77666c-14.3455,-10.92749 -26.70034,-21.51559 -29.27981,-21.69964c-8.61376,-0.61459 -53.33498,2.57254 -57.75559,4.26267c-5.57512,2.13156 -10.52221,13.23729 -16.38062,16.78355c-15.88864,9.61781 -31.9222,13.91235 -35.5744,14.5228c-47.95932,8.01621 -71.60907,-31.36496 -76.86874,-36.50089c-16.85026,-16.45382 13.38419,-56.13888 13.38419,-56.13888c0,0 -19.03725,-13.76969 -17.25584,-83.2736c0.48623,-18.97076 0.4261,-39.99634 5.25449,-68.55454c2.08778,-9.0944 1.90348,-18.65835 18.30085,-27.05428c13.46715,-6.89559 43.55852,-6.29043 43.55852,-6.29043c0,0 0.44342,-1.60939 0.7,-2.40807c7.80655,-24.29945 36.97735,-44.69359 72.959,-44.69359c42.19064,0 99.78296,20.12848 107.69431,73.01574z" fill="#020134" stroke-width="0"/><path d="M196.22685,31.48489c1.44852,-16.70213 18.39214,-17.90016 19.70062,-17.98266c6.28034,-0.39605 20.95094,-0.22017 20.95094,-0.22017c0,0 -2.70182,7.61556 -4.39893,17.86546c-2.52096,15.22572 -4.42783,36.66501 -4.937,50.83229c-0.46846,13.0339 -1.02628,34.12564 -0.07024,51.86406c1.09441,20.30567 2.43185,37.19058 2.43185,37.19058c0,0 -11.69856,0.91383 -16.60549,0.3321c-1.50744,-0.17871 -12.76876,-4.72907 -16.89989,-26.28558c-5.89527,-30.7619 -3.10135,-79.8179 -0.17184,-113.59605z" fill="#0c1390" stroke-width="0"/><path d="M196.22685,31.48489c1.44852,-16.70213 18.39214,-17.90016 19.70062,-17.98266c6.28034,-0.39605 20.95094,-0.22017 20.95094,-0.22017c0,0 -2.70182,7.61556 -4.39893,17.86546c-0.17461,1.05457 -0.51472,3.24865 -0.51472,3.24865c0,0 -9.39493,-2.2903 -19.60568,-0.97581c-5.8349,0.75114 -16.69386,4.7674 -16.69386,4.7674c0,0 0.37311,-4.52887 0.56167,-6.70288z" fill="#162ed0" stroke-width="0"/><path d="M279.71684,-20.56013c13.2745,-7.40099 25.55627,-11.45727 44.53391,-10.90594c39.20445,1.13898 66.99879,21.30753 79.01534,49.57264c18.01752,42.38049 9.28101,81.4984 8.07711,114.42924c-0.43961,12.02518 -0.95204,55.69282 -38.42699,82.31249c-18.48899,13.13335 -35.78672,13.39539 -66.02938,12.50772c-13.45067,-0.39478 -17.19333,12.55078 -32.56912,20.5431c-10.07979,5.23946 -19.53081,6.92085 -30.69055,7.43039c-13.37487,0.61066 -26.32198,-6.70854 -35.9568,-14.86058c-8.11122,-6.86292 -13.87489,-14.09462 -15.57003,-19.88867c-0.62188,-2.12565 1.30919,-7.50538 5.71867,-14.9407c4.34215,-7.32181 11.0876,-16.7137 20.16515,-17.12181c5.31707,-0.23906 13.31465,2.69859 20.02892,7.47875c4.01308,2.85707 5.27944,9.47026 8.7296,12.39863c5.09736,4.32646 11.96371,4.50687 15.08337,4.38612c3.80541,0.0498 1.65047,-1.84116 -1.53341,-7.11993c-1.14936,-1.9056 -2.21242,-4.69357 -3.48789,-7.37042c-4.30811,-9.04147 -8.76191,-23.05212 -10.28453,-38.82483c-1.78743,-18.51589 -1.97326,-67.43041 2.89584,-107.70307c2.80571,-23.20632 7.20688,-43.87805 14.41374,-56.93899c4.78433,-8.67063 12.36444,-13.42008 15.88709,-15.3841z" fill="#0c1390" stroke-width="NaN"/><path d="M279.71684,-20.56013c13.2745,-7.40099 25.55627,-11.45727 44.53391,-10.90594c39.20445,1.13898 66.99879,21.30753 79.01534,49.57264c18.01752,42.38049 9.28101,81.4984 8.07711,114.42924c-0.10132,2.7717 -7.48886,35.71227 -37.96674,48.25518c-8.10869,3.33706 -19.59649,2.657 -31.00071,2.30978c-20.17156,-0.61416 -41.05806,-4.09199 -49.49162,-10.33452c-20.07587,-14.86023 -26.32938,-66.70183 -28.82371,-109.98452c-1.21834,-21.14135 -0.31747,-44.23829 4.30991,-61.3011c3.11683,-11.4928 9.92872,-21.25028 11.34648,-22.04073z" fill="#162ed0" stroke-width="NaN"/><g><path d="M297.84296,22.80284c14.832,-15.14732 32.67342,-19.15689 38.80446,-19.68082c21.19281,-1.81109 54.80689,-1.4926 75.49703,3.09786c5.25534,1.16598 22.24014,8.32319 27.93142,20.43573c4.35584,9.27037 20.76475,39.94244 -3.41782,67.95421c-25.52828,29.57057 -95.43328,23.14403 -115.41238,18.4692c-8.91462,-2.52498 -24.77574,-12.81303 -30.1601,-30.65408c-6.50618,-21.55826 -1.06868,-51.62962 6.75737,-59.62205z" fill="#10293a" stroke-width="0"/><g><path d="M306.60402,64.91616c0,-8.82286 -4.04171,-28.92376 14.69033,-38.14857c15.93891,-7.84932 54.02296,-5.69129 64.52595,-4.85581c11.80131,0.93876 24.86231,2.95286 33.26256,7.77994c9.98408,5.73723 12.38618,32.95361 11.50639,37.57645c-7.39206,38.84233 -80.80995,31.58429 -95.08892,27.88827c-15.44981,-3.99909 -28.89629,-13.91019 -28.89629,-30.2403z" fill="#4a7b9c" stroke-width="0"/><path d="M329.21477,60.39553c-19.63756,-10.08335 -5.74175,-34.59091 -5.29029,-34.76189c17.1558,-6.49675 51.93339,-4.51439 61.89585,-3.72188c11.80131,0.93876 24.86231,2.95286 33.26256,7.77994c4.00842,2.30341 6.79474,8.06897 8.63718,14.44459c0.72949,2.52437 2.94415,21.44568 -9.49572,25.36142c-17.7145,5.57608 -50.50357,10.66961 -89.00956,-9.10218z" fill="#8cc5de" stroke-width="0"/><path d="M409.29059,27.17452c5.38407,1.97155 13.73124,5.76186 12.01661,12.64187c-3.62613,14.55011 -19.7076,6.33927 -30.89664,4.42325c-1.80348,-0.30883 -10.18759,-0.41393 -15.30432,-3.25515c-3.28773,-1.82561 -4.35087,-6.31325 -4.35087,-7.63831c0,-4.98672 4.04252,-9.02924 9.02924,-9.02924c0.14466,0 7.40273,-0.31456 14.73195,0.19942c5.81987,0.40811 11.54688,1.47641 14.77402,2.65814z" fill="#ffffff" stroke-width="0.5"/></g></g><path d="M414.67902,198.02229c9.27504,-0.3538 11.49496,0.12959 15.91173,2.58832c5.40008,3.00609 12.36032,8.55939 18.08899,14.10469c5.80257,5.61686 10.07049,9.4521 12.26655,12.77523c1.74365,2.63853 2.10543,5.02997 1.43141,7.19474c-3.80433,12.21869 -19.78283,23.649 -22.72368,24.14659c-3.41321,0.57752 -8.72637,0.86479 -12.17332,0.22108c-8.91472,-1.66476 -18.40472,-12.82498 -25.32265,-18.44465c-5.65999,-4.59782 -9.55654,-8.03175 -12.26167,-9.80907c-2.15262,-1.4143 -3.70112,-1.62924 -3.70112,-1.62924c0,0 9.28889,-6.77908 17.20862,-15.57797c5.7292,-6.36521 10.64423,-15.54566 11.27512,-15.56972z" fill="#0c1390" stroke-width="0"/></g><g fill="none" stroke="#009dec" stroke-width="0.921"><path d="M174.39939,359.96476v-206.01851v-206.01851h153.58381h153.5838v206.01851v206.01851h-153.5838z"/><path d="M326.45887,161.56774v-6.09718h-6.09719c-0.84186,0 -1.52429,-0.68246 -1.52429,-1.52429c0,-0.84186 0.68246,-1.5243 1.52429,-1.5243h6.09719v-6.09718c0,-0.84186 0.68246,-1.52429 1.52429,-1.52429c0.84186,0 1.52429,0.68246 1.52429,1.52429v6.09718h6.09719c0.84186,0 1.52429,0.68246 1.52429,1.5243c0,0.84186 -0.68246,1.52429 -1.52429,1.52429h-6.09719v6.09718c0,0.84186 -0.68246,1.52429 -1.52429,1.52429c-0.84186,0 -1.52429,-0.68246 -1.52429,-1.52429z"/></g></g></g></g></svg>