<svg version="1.1" xmlns="http://www.w3.org/2000/svg" xmlns:xlink="http://www.w3.org/1999/xlink" width="315.3003" height="315.30025" viewBox="0,0,315.3003,315.30025"><defs><linearGradient x1="319.39665" y1="137.89985" x2="319.39665" y2="229.82803" gradientUnits="userSpaceOnUse" id="color-1"><stop offset="0" stop-color="#669949"/><stop offset="1" stop-color="#7bb758"/></linearGradient><linearGradient x1="337.45287" y1="204.10599" x2="337.45287" y2="264.29326" gradientUnits="userSpaceOnUse" id="color-2"><stop offset="0" stop-color="#669949"/><stop offset="1" stop-color="#7bb758"/></linearGradient><linearGradient x1="380.43562" y1="203.9642" x2="380.43562" y2="264.44075" gradientUnits="userSpaceOnUse" id="color-3"><stop offset="0" stop-color="#669949"/><stop offset="1" stop-color="#7bb758"/></linearGradient></defs><g transform="translate(-167.34994,-27.3499)"><g stroke-miterlimit="10"><path d="M174.84995,275.23519c0,-59.99896 0,-148.11906 0,-181.81815c0,-26.16557 22.73163,-58.56714 54.69562,-58.56714c60.91162,0 155.35022,0 189.899,0c25.1397,0 55.70568,31.10369 55.70568,56.54696c0,34.37139 0,127.20919 0,187.87876c0,32.57375 -30.56593,55.87453 -55.70568,55.87453c-33.79375,0 -124.88841,0 -185.85858,0c-34.07175,0 -58.73599,-25.26921 -58.73599,-59.91496z" fill="#8fb5b5" stroke="#6b999a" stroke-width="15"/><path d="M270.29576,167.52409c0,59.23636 39.57318,58.21919 31.04463,60.65677c-42.13112,12.03745 -52.98291,-45.85071 -56.96128,-45.85071c-14.31253,0 -33.31971,-2.54591 -33.31971,-14.80609c0,-12.27218 14.80609,-29.62421 37.02122,-29.62421c14.31858,0 22.21513,17.352 22.21513,29.62421zM427.73383,219.98338c0,6.64469 -21.1739,-4.45988 -30.09367,0c-12.03745,6.01874 -12.03745,-5.39279 -12.03745,-12.03745c0,-6.64469 8.08316,-6.01874 18.05619,-6.01874c9.97303,0 24.07493,11.40549 24.07493,18.05619z" fill="#77b255" stroke="#000000" stroke-width="20"/><path d="M311.66256,247.09778c0,16.61772 -7.69795,17.19551 -17.19551,17.19551c-9.49756,0 -17.20153,-0.5838 -17.20153,-17.19551c0,-2.94317 0.51161,-6.19328 1.40838,-9.55173c4.15293,-15.58852 16.57558,-33.44007 24.38791,-33.44007c9.49756,0 8.60078,26.37408 8.60078,42.9918zM363.24911,247.09778c0,16.61772 7.69194,17.19551 17.18949,17.19551c9.50357,0 17.20153,-0.5838 17.20153,-17.19551c0,-2.94317 -0.51161,-6.19328 -1.40838,-9.55173c-4.15894,-15.58852 -16.57558,-33.44007 -24.38791,-33.44007c-9.49756,0 -8.59476,26.37408 -8.59476,42.9918z" fill="#77b255" stroke="#000000" stroke-width="20"/><path d="M403.65889,210.12469c0,24.07493 -30.99045,24.07493 -69.21541,24.07493c-38.22496,0 -69.21541,0 -69.21541,-24.07493c0,-39.88615 30.99045,-72.22479 69.21541,-72.22479c38.22496,0 69.21541,32.33864 69.21541,72.22479z" fill="#3e721d" stroke="#000000" stroke-width="20"/><path d="M235.13441,155.95608c0,-3.32407 2.69467,-6.01874 6.01874,-6.01874c3.32407,0 6.01874,2.69467 6.01874,6.01874c0,3.32407 -2.69467,6.01874 -6.01874,6.01874c-3.32407,0 -6.01874,-2.69467 -6.01874,-6.01874z" fill="#292f33" stroke="#000000" stroke-width="20"/><path d="M353.50481,198.68906c0,21.61328 -8.53457,23.47305 -19.06132,23.47305c-10.52676,0 -19.06132,-1.86581 -19.06132,-23.47305c0,-21.60723 8.52855,-48.75174 19.06132,-48.75174c10.53277,0 19.06132,27.14448 19.06132,48.75174zM391.62144,192.06848c5.24232,20.95722 -4.71868,24.07493 -15.24544,24.07493c-10.52676,0 -15.24544,4.15293 -15.24544,-17.45434c0,-21.60723 -6.71692,-39.12177 3.80987,-39.12177c10.52074,0 20.6623,8.42621 26.68104,32.50114zM307.76245,198.68906c0,21.61328 -4.7247,17.45434 -15.25145,17.45434c-10.52676,0 -20.48776,-3.11771 -15.24544,-24.07493c6.01874,-24.07493 19.56688,-32.50114 30.09367,-32.50114c10.53277,0 0.40325,17.5145 0.40325,39.12177z" fill="#5c913b" stroke="#000000" stroke-width="20"/><path d="M270.29576,167.52413c0,59.23636 39.57318,58.21919 31.04463,60.65677c-42.13112,12.03745 -52.98291,-45.85071 -56.96128,-45.85071c-14.31253,0 -33.31971,-2.54591 -33.31971,-14.80609c0,-12.27218 14.80609,-29.62421 37.02122,-29.62421c14.31858,0 22.21513,17.352 22.21513,29.62421zM427.73385,219.9834c0,6.64469 -21.1739,-4.45988 -30.09367,0c-12.03745,6.01874 -12.03745,-5.39279 -12.03745,-12.03745c0,-6.64469 8.08316,-6.01874 18.05619,-6.01874c9.97303,0 24.07493,11.40549 24.07493,18.05619z" fill="url(#color-1)" stroke="none" stroke-width="20"/><path d="M311.66256,247.0978c0,16.61772 -7.69795,17.19551 -17.19551,17.19551c-9.49756,0 -17.20153,-0.5838 -17.20153,-17.19551c0,-2.94317 0.51161,-6.19328 1.40838,-9.55173c4.15293,-15.58852 16.57558,-33.44007 24.38791,-33.44007c9.49756,0 8.60078,26.37408 8.60078,42.9918zM363.24916,247.0978c0,16.61772 7.69194,17.19551 17.18949,17.19551c9.50357,0 17.20153,-0.5838 17.20153,-17.19551c0,-2.94317 -0.51161,-6.19328 -1.40838,-9.55173c-4.15894,-15.58852 -16.57558,-33.44007 -24.38791,-33.44007c-9.49756,0 -8.59476,26.37408 -8.59476,42.9918z" fill="url(#color-2)" stroke="none" stroke-width="20"/><path d="M363.13118,247.1863c0,-16.61772 -0.82532,-43.22214 8.67224,-43.22214c7.81233,0 20.4137,18.0239 24.57265,33.61242c0.89678,3.35846 1.38211,6.66645 1.38211,9.60963c0,16.61171 -7.81592,17.25453 -17.3195,17.25453c-9.49756,0 -17.30746,-0.63671 -17.30746,-17.25444z" fill="url(#color-3)" stroke="none" stroke-width="20"/><path d="M403.65892,210.1247c0,24.07493 -30.99045,24.07493 -69.21541,24.07493c-38.22496,0 -69.21541,0 -69.21541,-24.07493c0,-39.88615 30.99045,-72.22479 69.21541,-72.22479c38.22496,0 69.21541,32.33864 69.21541,72.22479z" fill="#89cc62" stroke="none" stroke-width="20"/><path d="M235.13441,155.9561c0,-3.32407 2.69467,-6.01874 6.01874,-6.01874c3.32407,0 6.01874,2.69467 6.01874,6.01874c0,3.32407 -2.69467,6.01874 -6.01874,6.01874c-3.32407,0 -6.01874,-2.69467 -6.01874,-6.01874z" fill="#292f33" stroke="none" stroke-width="20"/><path d="M353.50484,198.68906c0,21.61328 -8.53457,23.47305 -19.06132,23.47305c-10.52676,0 -19.06132,-1.86581 -19.06132,-23.47305c0,-21.60723 8.52855,-48.75174 19.06132,-48.75174c10.53277,0 19.06132,27.14448 19.06132,48.75174zM391.62147,192.06852c5.24232,20.95722 -4.71868,24.07493 -15.24544,24.07493c-10.52676,0 -15.24544,4.15293 -15.24544,-17.45434c0,-21.60723 -6.71692,-39.12177 3.80987,-39.12177c10.52074,0 20.6623,8.42621 26.68104,32.50114zM307.76245,198.68906c0,21.61328 -4.7247,17.45434 -15.25145,17.45434c-10.52676,0 -20.48776,-3.11771 -15.24544,-24.07493c6.01874,-24.07493 19.56688,-32.50114 30.09367,-32.50114c10.53277,0 0.40325,17.5145 0.40325,39.12177z" fill="#97e26c" stroke="none" stroke-width="20"/></g></g></svg>