<svg version="1.1" xmlns="http://www.w3.org/2000/svg" xmlns:xlink="http://www.w3.org/1999/xlink" width="574.81171" height="63.52641" viewBox="0,0,574.81171,63.52641"><g transform="translate(-30.14591,-149.1445)"><g fill="none" stroke-miterlimit="10"><path d="M52.33205,156.13929l-15.93613,39.67184" stroke="#020200" stroke-width="12.5" stroke-linecap="round"/><path d="M66.40421,195.7092l-14.16315,-39.46798" stroke="#020200" stroke-width="12.5" stroke-linecap="round"/><path d="M43.36418,179.87898h15.03203" stroke="#020200" stroke-width="12.5" stroke-linecap="round"/><path d="M78.30825,195.49883v-26.56823" stroke="#020200" stroke-width="12.5" stroke-linecap="round"/><path d="M98.79321,195.51428v-22.02367" stroke="#020200" stroke-width="12.5" stroke-linecap="round"/><path d="M117.85306,195.34799l-0.48005,-22.68348" stroke="#020200" stroke-width="12.5" stroke-linecap="round"/><path d="M78.98977,172.59691c0,0 2.66316,-4.61696 10.68451,-4.03894c7.76208,0.17992 8.93255,5.42663 8.93255,5.42663" stroke="#020200" stroke-width="12.5" stroke-linecap="round"/><path d="M98.86663,173.68966c0,0 3.17957,-4.73665 11.1071,-5.00628c5.19196,-0.17658 7.326,3.84043 7.326,3.84043" stroke="#020200" stroke-width="12.5" stroke-linecap="round"/><path d="M142.12158,167.9406c6.97914,0 11.74614,5.72483 11.74614,13.06144c0,7.33661 -4.767,13.5068 -11.74614,13.5068c-3.69469,0 -10.4748,-2.54703 -11.67198,-10.55728c-0.03062,-0.20486 0.07385,-7.26815 1.43012,-9.65493c2.50248,-4.40392 8.26703,-6.35603 10.24187,-6.35603z" stroke="#020200" stroke-width="12.5" stroke-linecap="butt"/><path d="M167.45093,195.06679c0,0 -0.33401,-14.44262 -0.33401,-19.45355c0,-3.1552 0.33401,-7.71287 0.33401,-7.71287" stroke="#020200" stroke-width="12.5" stroke-linecap="round"/><path d="M167.33959,176.80739c0,0 0.15332,-0.52228 2.12697,-3.1511c1.93889,-2.58252 5.45074,-4.82246 8.22347,-4.87868c4.27979,-0.08676 6.21647,0.24202 7.51067,1.29954c3.49014,2.85188 2.18143,4.91983 2.49408,9.78159c0.46567,7.24124 -0.42573,15.6534 -0.42573,15.6534" stroke="#020200" stroke-width="12.5" stroke-linecap="round"/><path d="M220.8735,181.3375c0,3.41755 -0.46787,7.33486 -1.83542,9.85198c-1.47439,2.71377 -5.27732,3.89823 -7.957,3.89823c-2.73595,0 -6.11945,-1.82043 -7.85905,-4.48352c-1.54458,-2.36453 -2.25341,-6.26053 -2.25341,-9.60071c0,-3.01051 0.67067,-5.86928 1.95403,-7.99131c1.74421,-2.88405 4.29202,-4.53419 7.26773,-4.53419c3.23581,0 6.88645,0.85602 8.5656,4.29021c1.00119,2.04764 2.11753,5.91644 2.11753,8.56931z" stroke="#020200" stroke-width="12.5" stroke-linecap="butt"/><path d="M223.60621,168.70388c0.18804,9.28669 0.57652,32.02201 -2.35761,35.7399c-4.68005,5.93017 -18.78996,1.97713 -18.78996,1.97713" stroke="#020200" stroke-width="12.5" stroke-linecap="round"/><path d="M279.38277,158.85268c0,0 2.48435,19.1252 -1.36516,29.82812c-1.94062,5.39557 -10.20225,6.29505 -11.66287,6.29505c-1.46756,0 -9.36886,-0.73533 -11.33326,-6.35702c-3.73688,-10.69418 -1.49738,-29.76616 -1.49738,-29.76616" stroke="#020200" stroke-width="12.5" stroke-linecap="round"/><path d="M309.5841,169.31458c0,0 -8.70422,-0.64906 -13.22144,0.55691c-1.63533,0.43659 -5.58751,2.99554 -1.96913,8.51239c1.48901,1.20822 12.886,4.26486 14.98652,7.55417c1.07947,1.69039 0.45929,6.55544 -3.10984,7.95972c-2.63581,1.03707 -6.85326,1.60533 -9.78516,1.00996c-2.44576,-0.49665 -3.87687,-2.10321 -3.87687,-2.10321" stroke="#020200" stroke-width="12.5" stroke-linecap="round"/><path d="M355.02509,160.23443c0,0 -10.19162,-2.76396 -15.46598,0.27463c-1.58797,0.91484 -2.94362,3.58919 -3.11217,5.87204c-0.17023,2.30568 0.85462,4.21595 0.85211,4.31622c-0.0401,1.60378 4.73129,3.27142 9.31045,5.40021c2.78469,1.29456 5.49828,2.75966 7.01551,4.48463c0.67572,0.76825 4.9848,7.75827 -1.19609,11.86509c-5.14358,3.4176 -16.74849,0.94943 -16.74849,0.94943" stroke="#020200" stroke-width="12.5" stroke-linecap="round"/><path d="M385.02903,193.59409c0,0 -7.99709,3.5233 -13.03514,0.01019c-3.42858,-2.39081 -4.53296,-10.65657 -4.53296,-12.44604c0,-1.60538 0.66663,-8.42844 4.21396,-10.54834c4.98681,-2.98014 13.35415,-1.09793 13.35415,-1.09793" stroke="#020200" stroke-width="12.5" stroke-linecap="round"/><path d="M396.8727,195.37063v-27.24042" stroke="#020200" stroke-width="12.5" stroke-linecap="round"/><path d="M397.0701,177.80254c0,0 3.86116,-6.43436 6.19279,-7.97784c2.34001,-1.54902 7.62482,-0.90491 7.62482,-0.90491" stroke="#020200" stroke-width="12.5" stroke-linecap="round"/><path d="M436.05302,189.14751c0,0 -1.44665,2.43359 -3.80673,4.00104c-2.2935,1.52323 -5.46451,2.18381 -7.99625,2.03582c-1.34042,-0.07835 -5.40449,-2.01539 -6.39547,-5.14718c-0.81357,-2.57112 1.27374,-6.42781 1.56341,-6.6255c1.71237,-1.16863 4.30708,-2.35692 7.04229,-2.7164c4.51954,-0.59399 9.19092,0.14791 9.19092,0.14791" stroke="#020200" stroke-width="12.5" stroke-linecap="round"/><path d="M420.64985,169.5922c0,0 12.91039,-2.72223 15.38371,0.41609c2.34817,2.97951 1.08317,8.63162 1.27597,12.96974c0.3069,6.9056 1.02047,12.33075 1.02047,12.33075" stroke="#020200" stroke-width="12.5" stroke-linecap="round"/><path d="M448.10765,168.92249h14.8674" stroke="#020200" stroke-width="12.5" stroke-linecap="round"/><path d="M463.37686,194.50513c0,0 -3.81369,0.88726 -6.42374,0.37435c-1.77776,-0.34936 -2.56632,-1.7073 -2.89542,-3.03399c-0.58559,-2.36069 -0.67095,-6.6273 -0.54658,-12.07277c0.21101,-9.23824 0.62386,-19.0206 0.62386,-19.0206" stroke="#020200" stroke-width="12.5" stroke-linecap="round"/><path d="M490.17235,193.19227c0,0 -7.99709,3.5233 -13.03514,0.01019c-3.42858,-2.39081 -4.53296,-10.65657 -4.53296,-12.44604c0,-1.60538 0.66663,-8.42844 4.21396,-10.54834c4.98681,-2.98014 13.35415,-1.09793 13.35415,-1.09793" stroke="#020200" stroke-width="12.5" stroke-linecap="round"/><path d="M502.57698,194.90696v-39.51246" stroke="#020200" stroke-width="12.5" stroke-linecap="round"/><path d="M503.24668,175.75346c0,0 3.66084,-7.50923 8.95348,-7.50495c4.4687,0.00362 8.64037,-1.04875 10.25712,7.12958c1.59207,8.05348 0.74654,19.6628 0.74654,19.6628" stroke="#020200" stroke-width="12.5" stroke-linecap="round"/><path d="M551.50819,176.49013c0,-6.11401 2.49407,-11.90302 6.18507,-14.93452c2.50451,-2.05701 9.32302,-3.35074 9.419,-3.34836c5.40679,0.13394 5.59593,0.59599 8.97619,2.65142c4.90795,2.98438 7.56546,9.25544 7.56546,15.49752c0,5.29612 -0.93411,10.25617 -3.80332,13.74769c-2.84156,3.45786 -7.59651,5.47278 -12.06863,5.47278c-3.55606,0 -7.91725,-1.20378 -10.59464,-3.47356c-4.08957,-3.46697 -5.67913,-9.24246 -5.67913,-15.61297z" stroke="#020200" stroke-width="12.5" stroke-linecap="butt"/><path d="M598.38738,157.53755c0,0 0.40723,8.18802 0.3205,17.81336c-0.08919,9.89808 0.11831,21.03282 -0.84643,25.48062c-1.2063,5.56153 -9.51961,4.38885 -9.51961,4.38885" stroke="#020200" stroke-width="12.5" stroke-linecap="round"/><path d="M52.33205,156.13929l-15.93613,39.67184" stroke="#ffd33e" stroke-width="7.5" stroke-linecap="round"/><path d="M66.40421,195.7092l-14.16315,-39.46798" stroke="#ffd33e" stroke-width="7.5" stroke-linecap="round"/><path d="M43.36418,179.87898h15.03203" stroke="#ffd33e" stroke-width="7.5" stroke-linecap="round"/><path d="M78.30825,195.49883v-26.56823" stroke="#ffd33e" stroke-width="7.5" stroke-linecap="round"/><path d="M98.79321,195.51428v-22.02367" stroke="#ffd33e" stroke-width="7.5" stroke-linecap="round"/><path d="M117.85306,195.34799l-0.48005,-22.68348" stroke="#ffd33e" stroke-width="7.5" stroke-linecap="round"/><path d="M78.98977,172.59691c0,0 2.66316,-4.61696 10.68451,-4.03894c7.76208,0.17992 8.93255,5.42663 8.93255,5.42663" stroke="#ffd33e" stroke-width="7.5" stroke-linecap="round"/><path d="M98.86663,173.68966c0,0 3.17957,-4.73665 11.1071,-5.00628c5.19196,-0.17658 7.326,3.84043 7.326,3.84043" stroke="#ffd33e" stroke-width="7.5" stroke-linecap="round"/><path d="M142.12158,167.9406c6.97914,0 11.74614,5.72483 11.74614,13.06144c0,7.33661 -4.767,13.5068 -11.74614,13.5068c-3.69469,0 -10.4748,-2.54703 -11.67198,-10.55728c-0.03062,-0.20486 0.07385,-7.26815 1.43012,-9.65493c2.50248,-4.40392 8.26703,-6.35603 10.24187,-6.35603z" stroke="#ffd33e" stroke-width="7.5" stroke-linecap="butt"/><path d="M167.45093,195.06679c0,0 -0.33401,-14.44262 -0.33401,-19.45355c0,-3.1552 0.33401,-7.71287 0.33401,-7.71287" stroke="#ffd33e" stroke-width="7.5" stroke-linecap="round"/><path d="M167.33959,176.80739c0,0 0.15332,-0.52228 2.12697,-3.1511c1.93889,-2.58252 5.45074,-4.82246 8.22347,-4.87868c4.27979,-0.08676 6.21647,0.24202 7.51067,1.29954c3.49014,2.85188 2.18143,4.91983 2.49408,9.78159c0.46567,7.24124 -0.42573,15.6534 -0.42573,15.6534" stroke="#ffd33e" stroke-width="7.5" stroke-linecap="round"/><path d="M220.8735,181.3375c0,3.41755 -0.46787,7.33486 -1.83542,9.85198c-1.47439,2.71377 -5.27732,3.89823 -7.957,3.89823c-2.73595,0 -6.11945,-1.82043 -7.85905,-4.48352c-1.54458,-2.36453 -2.25341,-6.26053 -2.25341,-9.60071c0,-3.01051 0.67067,-5.86928 1.95403,-7.99131c1.74421,-2.88405 4.29202,-4.53419 7.26773,-4.53419c3.23581,0 6.88645,0.85602 8.5656,4.29021c1.00119,2.04764 2.11753,5.91644 2.11753,8.56931z" stroke="#ffd33e" stroke-width="7.5" stroke-linecap="butt"/><path d="M223.60621,168.70388c0.18804,9.28669 0.57652,32.02201 -2.35761,35.7399c-4.68005,5.93017 -18.78996,1.97713 -18.78996,1.97713" stroke="#ffd33e" stroke-width="7.5" stroke-linecap="round"/><path d="M279.38277,158.85268c0,0 2.48435,19.1252 -1.36516,29.82812c-1.94062,5.39557 -10.20225,6.29505 -11.66287,6.29505c-1.46756,0 -9.36886,-0.73533 -11.33326,-6.35702c-3.73688,-10.69418 -1.49738,-29.76616 -1.49738,-29.76616" stroke="#ffd33e" stroke-width="7.5" stroke-linecap="round"/><path d="M309.5841,169.31458c0,0 -8.70422,-0.64906 -13.22144,0.55691c-1.63533,0.43659 -5.58751,2.99554 -1.96913,8.51239c1.48901,1.20822 12.886,4.26486 14.98652,7.55417c1.07947,1.69039 0.45929,6.55544 -3.10984,7.95972c-2.63581,1.03707 -6.85326,1.60533 -9.78516,1.00996c-2.44576,-0.49665 -3.87687,-2.10321 -3.87687,-2.10321" stroke="#ffd33e" stroke-width="7.5" stroke-linecap="round"/><path d="M355.02509,160.23443c0,0 -10.19162,-2.76396 -15.46598,0.27463c-1.58797,0.91484 -2.94362,3.58919 -3.11217,5.87204c-0.17023,2.30568 0.85462,4.21595 0.85211,4.31622c-0.0401,1.60378 4.73129,3.27142 9.31045,5.40021c2.78469,1.29456 5.49828,2.75966 7.01551,4.48463c0.67572,0.76825 4.9848,7.75827 -1.19609,11.86509c-5.14358,3.4176 -16.74849,0.94943 -16.74849,0.94943" stroke="#ffd33e" stroke-width="7.5" stroke-linecap="round"/><path d="M385.02903,193.59409c0,0 -7.99709,3.5233 -13.03514,0.01019c-3.42858,-2.39081 -4.53296,-10.65657 -4.53296,-12.44604c0,-1.60538 0.66663,-8.42844 4.21396,-10.54834c4.98681,-2.98014 13.35415,-1.09793 13.35415,-1.09793" stroke="#ffd33e" stroke-width="7.5" stroke-linecap="round"/><path d="M396.8727,195.37063v-27.24042" stroke="#ffd33e" stroke-width="7.5" stroke-linecap="round"/><path d="M397.0701,177.80254c0,0 3.86116,-6.43436 6.19279,-7.97784c2.34001,-1.54902 7.62482,-0.90491 7.62482,-0.90491" stroke="#ffd33e" stroke-width="7.5" stroke-linecap="round"/><path d="M436.05302,189.14751c0,0 -1.44665,2.43359 -3.80673,4.00104c-2.2935,1.52323 -5.46451,2.18381 -7.99625,2.03582c-1.34042,-0.07835 -5.40449,-2.01539 -6.39547,-5.14718c-0.81357,-2.57112 1.27374,-6.42781 1.56341,-6.6255c1.71237,-1.16863 4.30708,-2.35692 7.04229,-2.7164c4.51954,-0.59399 9.19092,0.14791 9.19092,0.14791" stroke="#ffd33e" stroke-width="7.5" stroke-linecap="round"/><path d="M420.64985,169.5922c0,0 12.91039,-2.72223 15.38371,0.41609c2.34817,2.97951 1.08317,8.63162 1.27597,12.96974c0.3069,6.9056 1.02047,12.33075 1.02047,12.33075" stroke="#ffd33e" stroke-width="7.5" stroke-linecap="round"/><path d="M448.10765,168.92249h14.8674" stroke="#ffd33e" stroke-width="7.5" stroke-linecap="round"/><path d="M463.37686,194.50513c0,0 -3.81369,0.88726 -6.42374,0.37435c-1.77776,-0.34936 -2.56632,-1.7073 -2.89542,-3.03399c-0.58559,-2.36069 -0.67095,-6.6273 -0.54658,-12.07277c0.21101,-9.23824 0.62386,-19.0206 0.62386,-19.0206" stroke="#ffd33e" stroke-width="7.5" stroke-linecap="round"/><path d="M490.17235,193.19227c0,0 -7.99709,3.5233 -13.03514,0.01019c-3.42858,-2.39081 -4.53296,-10.65657 -4.53296,-12.44604c0,-1.60538 0.66663,-8.42844 4.21396,-10.54834c4.98681,-2.98014 13.35415,-1.09793 13.35415,-1.09793" stroke="#ffd33e" stroke-width="7.5" stroke-linecap="round"/><path d="M502.57698,194.90696v-39.51246" stroke="#ffd33e" stroke-width="7.5" stroke-linecap="round"/><path d="M503.24668,175.75346c0,0 3.66084,-7.50923 8.95348,-7.50495c4.4687,0.00362 8.64037,-1.04875 10.25712,7.12958c1.59207,8.05348 0.74654,19.6628 0.74654,19.6628" stroke="#ffd33e" stroke-width="7.5" stroke-linecap="round"/><path d="M551.50819,176.49013c0,-6.11401 2.49407,-11.90302 6.18507,-14.93452c2.50451,-2.05701 9.32302,-3.35074 9.419,-3.34836c5.40679,0.13394 5.59593,0.59599 8.97619,2.65142c4.90795,2.98438 7.56546,9.25544 7.56546,15.49752c0,5.29612 -0.93411,10.25617 -3.80332,13.74769c-2.84156,3.45786 -7.59651,5.47278 -12.06863,5.47278c-3.55606,0 -7.91725,-1.20378 -10.59464,-3.47356c-4.08957,-3.46697 -5.67913,-9.24246 -5.67913,-15.61297z" stroke="#ffd33e" stroke-width="7.5" stroke-linecap="butt"/><path d="M598.38738,157.53755c0,0 0.40723,8.18802 0.3205,17.81336c-0.08919,9.89808 0.11831,21.03282 -0.84643,25.48062c-1.2063,5.56153 -9.51961,4.38885 -9.51961,4.38885" stroke="#ffd33e" stroke-width="7.5" stroke-linecap="round"/></g></g></svg>