<svg version="1.1" xmlns="http://www.w3.org/2000/svg" xmlns:xlink="http://www.w3.org/1999/xlink" width="415" height="308.5045" viewBox="0,0,415,308.5045"><defs><linearGradient x1="320" y1="53" x2="320" y2="78" gradientUnits="userSpaceOnUse" id="color-1"><stop offset="0" stop-color="#1a1a1a"/><stop offset="1" stop-color="#1a1a1a" stop-opacity="0"/></linearGradient></defs><g transform="translate(-112.5,-28)"><g stroke-miterlimit="10"><path d="M112.5,336.5045v-308.5045h415v308.5045z" fill="#ffffff" stroke="none" stroke-width="0"/><path d="M121.92192,220.89249v-153.01201h396.15616v153.01201z" fill="#efefef" stroke="none" stroke-width="0"/><path d="M112.5,78v-25h415v25z" fill="url(#color-1)" stroke="none" stroke-width="0"/><path d="M112.5,71v-43h415v43z" fill="#ffffff" stroke="none" stroke-width="0"/><text transform="translate(264.378,56.17464) scale(0.55622,0.55622)" font-size="40" xml:space="preserve" fill="#1a1a1a" stroke="#000000" stroke-width="0" font-family="Sans Serif" font-weight="normal" text-anchor="start"><tspan x="0" dy="0">管理员面板</tspan></text><text transform="translate(128.00337,242.64138) scale(0.33389,0.33389)" font-size="40" xml:space="preserve" fill="#1a1a1a" stroke="none" stroke-width="1" font-family="Sans Serif" font-weight="normal" text-anchor="start"><tspan x="0" dy="0">[i] 在下一局成为伪装者</tspan><tspan x="0" dy="46.150000000000006px">[k] 踢掉一个玩家</tspan><tspan x="0" dy="46.150000000000006px">[c] 关闭房间（踢掉所有人）</tspan><tspan x="0" dy="46.150000000000006px">[h] 隐藏管理员面板</tspan><tspan x="0" dy="46.150000000000006px">[e] 隐藏而不断开连接</tspan><tspan x="0" dy="46.150000000000006px">[f] 更改用户名</tspan></text><text transform="translate(292.0976,96.93401) scale(0.34878,0.34878)" font-size="40" xml:space="preserve" fill="#000000" stroke="#000000" stroke-width="1" font-family="Sans Serif" font-weight="normal" text-anchor="start"><tspan x="0" dy="0">开发信息</tspan></text><path d="M395.16553,325.39999v-111.66667h123.26051v111.66667z" fill="#efefef" stroke="none" stroke-width="0"/><text transform="translate(296.50337,242.14138) scale(0.33389,0.33389)" font-size="40" xml:space="preserve" fill="#1a1a1a" stroke="none" stroke-width="1" font-family="Sans Serif" font-weight="normal" text-anchor="start"><tspan x="0" dy="0">[y] 复活/去世</tspan><tspan x="0" dy="46.150000000000006px">[o] 完成任务</tspan><tspan x="0" dy="46.150000000000006px">[u] 发送指令(OJ)</tspan></text></g></g></svg>