<svg version="1.1" xmlns="http://www.w3.org/2000/svg" xmlns:xlink="http://www.w3.org/1999/xlink" width="192.49923" height="174.73185" viewBox="0,0,192.49923,174.73185"><g transform="translate(-214.01864,133.90347)"><g stroke-miterlimit="10"><path d="M371.49636,-23.61346c0.32845,1.65416 -23.71733,-0.84126 -44.49327,0.62276c-14.67544,1.03415 -26.64189,5.98336 -31.97312,7.23544c-12.67764,2.97745 -22.96677,7.98965 -23.58688,8.60813c-0.89935,0.89696 -11.47025,-8.26701 -19.07601,-17.88221c-5.44442,-6.88282 -8.4607,-14.20659 -9.50849,-17.27084c-2.84777,-8.32821 -3.50729,-31.71363 -0.70721,-40.67892c2.72583,-8.72755 10.12679,-14.18603 11.43639,-16.38409c2.79316,-4.68806 25.36728,-18.3237 26.1432,-14.194c0.60027,3.19493 -17.9712,23.6528 -17.06016,23.6528c1.17377,0 -6.71979,8.31619 -6.07199,20.06879c0.80711,14.64296 7.57412,33.79349 8.47883,35.00514c0.49434,0.66204 4.60197,6.12245 13.67405,7.67389c4.53174,0.77498 13.03804,3.31315 23.45686,0.66452c14.57962,-3.70637 31.80537,-13.17357 37.44752,-13.12837c0.94501,0.00757 12.10199,0.62492 22.98806,-0.85668c10.6522,-1.44977 21.02062,-5.01291 23.50509,-3.78597c9.25794,4.57193 -14.74797,20.17045 -14.65283,20.64962z" fill="#f7f4ec" stroke="none" stroke-width="0" stroke-linecap="butt"/><path d="M285.6325,0.91403c0,0 29.06191,-12.0408 44.80765,-13.33054c14.23482,-1.16599 42.1982,1.29783 42.1982,1.29783" fill="none" stroke="#ce6921" stroke-width="17" stroke-linecap="round"/><path d="M255.18945,25.49205l-3.86621,-14.9106l38.21859,-20.3142l8.18565,13.98501z" fill="#ad3418" stroke="none" stroke-width="0" stroke-linecap="butt"/><path d="M326.67079,-48.12813c-6.67564,1.68444 -13.83721,5.70161 -20.98883,8.01855c-6.82903,2.21242 -13.7306,2.7657 -16.80989,2.7657c-5.47051,0 -16.20381,-4.26434 -20.37373,-11.91504c-3.55832,-6.52855 -0.99549,-16.36164 -0.97094,-18.94889c0.04951,-5.21679 6.18377,-23.14429 16.51724,-35.07691c3.85023,-4.44607 7.6841,-12.65033 19.31863,-14.68555c22.2302,-3.88871 56.58196,1.65887 59.15436,7.14803c1.35809,2.89797 13.15961,7.17249 19.7082,17.21685c9.19332,14.10089 13.42557,35.08014 11.10645,40.22793c-3.1126,6.90908 -15.29101,1.1323 -28.70751,1.72036c-16.00253,0.70142 -33.63605,2.43944 -37.95398,3.52896z" fill="#37434f" stroke="none" stroke-width="NaN" stroke-linecap="butt"/><path d="M362.82621,-106.12774c0,0.23027 2.48643,2.81481 2.88274,5.93741c0.45259,3.56619 -1.278,7.80025 -3.12427,9.44159c-2.61106,2.32124 -19.83223,-5.14199 -27.85256,-6.49036c-8.59745,-1.4454 -18.54041,-0.54997 -19.4465,-0.93823c-1.47933,-0.63393 -1.66054,-2.59644 -2.4024,-3.9767c-0.80961,-1.5063 -1.48787,-4.93391 -0.80195,-7.89148c0.5703,-2.45903 2.35905,-4.5587 3.26486,-5.2758c1.80743,-1.43089 5.21521,-1.66887 6.53849,-1.98268c1.23521,-0.29294 13.26003,-1.62221 23.24441,1.13722c9.86444,2.72629 17.69719,9.53687 17.69719,10.03904z" fill="#7b92ad" stroke="none" stroke-width="0" stroke-linecap="butt"/><g fill="none" stroke="#1b1810"><path d="M302.55684,-123.15364c3.82752,0 41.66643,-2.66708 64.14426,9.67244c24.87952,13.65795 34.17503,43.06754 28.65144,57.07795c-3.77978,11.41322 -43.14696,11.11815 -46.34193,11.11815c-0.10215,0 -10.20936,0.13282 -22.04445,3.3883c-8.80417,2.42176 -18.41527,7.91489 -26.36936,9.21816c-8.53424,1.39834 -20.12343,-0.25759 -20.2042,-0.26194c-10.89963,-0.58805 -18.94232,-19.5364 -18.94232,-35.40429c0,-16.24247 29.84761,-54.80877 41.10659,-54.80877z" stroke-width="16" stroke-linecap="butt"/><path d="M228.33415,-19.5398c-4.09081,-9.58998 -4.29961,-11.49204 -5.96692,-20.20694c-1.96051,-10.24747 3.84497,-25.50101 10.52171,-39.0092c2.87514,-5.81693 5.91185,-11.31021 8.55956,-15.94073c1.0357,-1.81129 17.27206,-20.21747 38.77924,-26.83436c21.76874,-6.69736 48.87776,-4.92172 58.13775,-3.92159c5.85518,0.63241 21.58751,5.94528 33.149,14.41492c9.38927,6.87834 15.34489,17.0093 16.5024,19.01697c6.14011,10.64966 9.93775,23.38312 10.00097,31.84246c0.18464,24.69874 -19.53787,38.88731 -17.70905,41.24088c6.64203,8.54788 4.3961,10.58009 3.843,18.07286c-0.37544,5.08607 -47.92489,-2.22925 -74.39453,4.62809c-27.40939,7.10079 -52.41334,26.6026 -53.88785,28.56481c-1.62711,2.16529 -9.57581,-28.42361 -11.84223,-28.42361c0,0 -10.81141,-12.00069 -15.69305,-23.44457z" stroke-width="17" stroke-linecap="butt"/><path d="M250.45991,8.62731c0,0 33.44971,-20.34574 53.96525,-24.80999c21.50128,-4.67877 72.53263,-4.80902 72.53263,-4.80902" stroke-width="13" stroke-linecap="round"/></g><path d="M271.76985,-7.74848c0.02142,0.05712 -17.4043,11.69591 -20.08926,9.81843c-3.29199,-2.30198 -6.59466,-7.68023 -10.01971,-13.03021c-4.7364,-7.39834 -9.29053,-15.24218 -10.63195,-19.31239c-2.06843,-6.27617 -1.77603,-12.18051 -1.77603,-12.99249c0,-0.94408 -0.05832,-8.13061 2.2506,-15.33658c3.11132,-9.71019 8.9577,-19.97684 10.26333,-19.97684c1.27257,0 -0.51691,8.70554 -0.49128,17.96956c0.0089,3.21838 0.82421,11.34941 3.74379,18.27386c2.30265,5.46129 4.06808,9.38196 6.62657,12.98569c0.78258,1.10233 4.91822,6.05153 9.64718,10.10262c4.63574,3.97121 9.49432,8.87873 10.47675,11.49837z" fill="#c6baad" stroke="none" stroke-width="0" stroke-linecap="butt"/></g></g></svg>