<svg version="1.1" xmlns="http://www.w3.org/2000/svg" xmlns:xlink="http://www.w3.org/1999/xlink" width="315.3003" height="315.30025" viewBox="0,0,315.3003,315.30025"><g transform="translate(-162.34985,-22.3499)"><g stroke-miterlimit="10"><path d="M169.84985,270.23519c0,-59.99896 0,-148.11906 0,-181.81815c0,-26.16557 22.73163,-58.56714 54.69562,-58.56714c60.91162,0 155.35022,0 189.899,0c25.1397,0 55.70568,31.10369 55.70568,56.54696c0,34.37139 0,127.20919 0,187.87876c0,32.57375 -30.56593,55.87453 -55.70568,55.87453c-33.79375,0 -124.88841,0 -185.85858,0c-34.07175,0 -58.73599,-25.26921 -58.73599,-59.91496z" fill="#8fb5b5" stroke="#6b999a" stroke-width="15"/><path d="M217.14715,180.00004c0,-56.80406 46.04879,-102.85285 102.85285,-102.85285c56.80406,0 102.85285,46.04879 102.85285,102.85285c0,56.80406 -46.04879,102.85285 -102.85285,102.85285c-56.80406,0 -102.85285,-46.04879 -102.85285,-102.85285z" fill="#ffffff" stroke="none" stroke-width="0"/><text transform="translate(315.13524,226.49696) rotate(-10.8179) scale(3.70833,3.70833)" font-size="40" xml:space="preserve" fill="#000000" stroke="none" stroke-width="1" font-family="&quot;Brook&quot;, Sans Serif" font-weight="normal" text-anchor="start"><tspan x="0" dy="0">?</tspan></text></g></g></svg>