<svg version="1.1" xmlns="http://www.w3.org/2000/svg" xmlns:xlink="http://www.w3.org/1999/xlink" width="274.25006" height="137.06418" viewBox="0,0,274.25006,137.06418"><g transform="translate(-274.42615,-248.95911)"><g data-paper-data="{&quot;isPaintingLayer&quot;:true}" fill-rule="nonzero" stroke="none" stroke-linecap="butt" stroke-linejoin="miter" stroke-miterlimit="10" stroke-dasharray="" stroke-dashoffset="0" style="mix-blend-mode: normal"><path d="M548.67621,298.07266c0,27.12466 -61.39297,49.11355 -137.12503,49.11355c-75.73207,0 -137.12503,-21.98888 -137.12503,-49.11355c0,-27.12466 61.39297,-49.11355 137.12503,-49.11355c75.73206,0 137.12503,21.98888 137.12503,49.11355z" fill="none" stroke-width="NaN"/><path d="M323.28952,382.58602c0,-5.00608 0,-14.02014 0,-16.89984c0,-1.73854 1.6057,-3.72369 3.72369,-3.72369c0.69948,0 75.78285,0 94.74437,0c2.57125,0 4.01014,3.08734 4.01014,5.44232c0,2.69722 0,9.19313 0,13.74902c0,2.80151 -1.76142,4.86946 -4.86945,4.86946c-21.90925,0 -83.74198,0 -94.1715,0c-1.96671,0 -3.43726,-1.38029 -3.43726,-3.43726z" fill="#4a7f79" stroke-width="0"/></g></g></svg>