<svg version="1.1" xmlns="http://www.w3.org/2000/svg" xmlns:xlink="http://www.w3.org/1999/xlink" width="418.41592" height="319.31682" viewBox="0,0,418.41592,319.31682"><g transform="translate(-110.79204,-20.34159)"><g fill="#000000" stroke="#ffffff" stroke-width="2.5" stroke-miterlimit="10"><path d="M112.04204,327c0,-52.47207 0,-269.2073 0,-296c0,-5.33836 3.8917,-9.40841 9.25045,-9.40841c31.93564,0 335.00108,0 396,0c6.86633,0 10.66547,3.37068 10.66547,9.40841c0,48.46016 0,268.73219 0,297c0,5.85907 -2.88328,10.40841 -8.16547,10.40841c-54.43948,0 -363.68746,0 -397.5,0c-5.89635,0 -10.25045,-4.1193 -10.25045,-11.40841z"/><path d="M117.04204,322c0,-52.47207 0,-259.20731 0,-286c0,-5.33835 3.8917,-9.40841 9.25045,-9.40841c31.93564,0 325.00108,0 386,0c6.86632,0 10.66547,3.37068 10.66547,9.40841c0,48.46016 0,258.73219 0,287c0,5.85907 -2.88328,10.40841 -8.16547,10.40841c-54.43948,0 -353.68746,0 -387.5,0c-5.89635,0 -10.25045,-4.1193 -10.25045,-11.40841z"/></g></g></svg>