<svg version="1.1" xmlns="http://www.w3.org/2000/svg" xmlns:xlink="http://www.w3.org/1999/xlink" width="315.3003" height="315.30025" viewBox="0,0,315.3003,315.30025"><g transform="translate(-167.34986,-27.34989)"><g stroke-miterlimit="10"><path d="M174.84987,275.23519c0,-59.99896 0,-148.11906 0,-181.81815c0,-26.16557 22.73163,-58.56714 54.69562,-58.56714c60.91162,0 155.35022,0 189.899,0c25.1397,0 55.70568,31.10369 55.70568,56.54696c0,34.37139 0,127.20919 0,187.87876c0,32.57375 -30.56593,55.87453 -55.70568,55.87453c-33.79375,0 -124.88841,0 -185.85858,0c-34.07175,0 -58.73599,-25.26921 -58.73599,-59.91496z" fill="#8fb5b5" stroke="#6b999a" stroke-width="15"/><g><path d="M303.09157,232.54601l-0.00225,-111.45646c0,0 23.79508,-27.67092 88.23229,-8.05143c4.69593,1.42979 15.57429,6.64754 19.40649,26.15016c2.18777,11.13386 3.07435,61.2451 3.3597,82.89176c0.08116,6.15655 -16.34187,16.55025 -59.533,17.08559c-25.58764,0.31715 -51.46325,-6.61961 -51.46325,-6.61961z" fill="#dee9f5" stroke="#000000" stroke-width="10.5"/><path d="M229.48838,232.39918c4.1374,-5.44484 9.70245,-14.09867 7.69879,-19.06923c-1.38925,-3.44637 -20.64758,3.15562 -21.05039,-1.11421c-0.22724,-2.40877 22.24824,-15.82598 21.87696,-18.37763c-0.29194,-2.00634 -23.73023,1.44905 -23.85194,-9.20053c-0.04683,-4.09779 23.49444,-12.10155 22.92281,-15.67348c-0.70908,-4.43081 -21.23437,-4.78846 -21.40679,-8.07989c-0.14761,-2.81784 20.17696,-8.75168 19.98802,-10.33877c-0.24673,-2.07248 -12.48523,-7.42849 -14.87823,-8.18638c-2.99723,-0.94925 2.41494,-1.65406 5.99291,-2.47273c9.04221,-2.06892 26.21442,-5.91998 34.85912,-7.34729c18.77424,-3.09977 38.03667,-12.24138 38.03667,-12.24138v111.10993c0,0 -24.6192,-2.73546 -36.57163,-1.7822c-8.70669,0.6944 -23.10071,4.03737 -31.34083,6.08414c-3.81631,0.94794 -4.5005,-0.38221 -2.27548,-3.31036z" fill="#dee9f5" stroke="#000000" stroke-width="10.5"/><path d="M303.09002,232.81806c0,0 -6.71023,-0.53877 -11.22942,-6.81723c-3.23771,-4.49811 -4.31649,-13.71539 -5.7761,-19.59922c-4.56412,-18.3985 -11.22802,-74.54672 -11.22802,-74.54672c0,0 35.5304,-32.45527 55.29224,-13.64084c1.44017,1.37112 7.50859,6.37477 8.68386,25.07712c0.67096,10.677 -1.78937,58.73197 -1.70185,79.49039c0.02489,5.90392 -5.01178,15.87113 -18.25779,16.38451c-7.84731,0.30413 -15.78293,-6.34798 -15.78293,-6.34798z" fill="#9ab1cf" stroke="none" stroke-width="10.5"/><path d="M299.67631,231.4076c0,0 -24.6192,-2.73546 -36.57163,-1.7822c-8.70669,0.6944 -23.10071,4.03737 -31.34082,6.08414c-3.81631,0.94794 -4.5005,-0.38221 -2.27548,-3.31036h-0.00001c4.1374,-5.44484 9.70245,-14.09867 7.69879,-19.06923c-1.38925,-3.44637 -20.64758,3.15562 -21.05039,-1.11421c-0.22724,-2.40877 22.24824,-15.82598 21.87696,-18.37763c-0.29194,-2.00634 -23.73023,1.44906 -23.85194,-9.20053c-0.04683,-4.09779 23.49444,-12.10155 22.92281,-15.67348c-0.70908,-4.43081 -21.23437,-4.78846 -21.40679,-8.07989c-0.14761,-2.81784 20.17696,-8.75168 19.98802,-10.33877c-0.24673,-2.07248 -12.48523,-7.42849 -14.87823,-8.18638c-2.99723,-0.94925 2.41494,-1.65406 5.99291,-2.47273c9.04221,-2.06892 26.21442,-5.91998 34.85912,-7.34729c18.77424,-3.09977 38.03667,-12.24138 38.03667,-12.24138" fill="none" stroke="#000000" stroke-width="12.5"/><path d="M349.76685,104.35975c22.50864,0 53.05044,9.41919 53.05044,19.35317c0,9.93398 -30.5418,14.34411 -53.05044,14.34411c-22.50864,0 -40.75549,-5.77624 -40.75549,-15.71022c0,-9.93398 18.24685,-17.98706 40.75549,-17.98706z" fill="#feffff" stroke="#9ab1cf" stroke-width="10.5"/><path d="M307.0417,230.4908c-0.80127,-7.59148 -2.49641,-24.82443 -1.5224,-44.29567c1.70384,-34.0611 -2.42997,-65.10558 -2.42997,-65.10558c0,0 23.79508,-27.67092 88.2323,-8.05143c4.69593,1.42979 15.57429,6.64754 19.4065,26.15016c2.18777,11.13387 3.07434,61.2451 3.3597,82.89176c0.08116,6.15655 -16.34187,16.55025 -59.533,17.08559c-25.58764,0.31715 -47.31666,-6.81349 -47.51312,-8.67483z" fill="none" stroke="#000000" stroke-width="12.5"/><path d="M367.74429,123.83835c-0.03742,0.87943 -6.17849,1.33231 -13.71647,1.01155c-7.53797,-0.32076 -13.61837,-1.29371 -13.58095,-2.17314c0.03742,-0.87943 6.17849,-1.33231 13.71647,-1.01155c7.53797,0.32076 13.61837,1.29371 13.58095,2.17314z" fill="#feffff" stroke="#000000" stroke-width="10.5"/><path d="M183.36336,265.19696v-170.39392h273.27327v170.39392z" fill="none" stroke="none" stroke-width="NaN"/></g></g></g></svg>