<svg version="1.1" xmlns="http://www.w3.org/2000/svg" xmlns:xlink="http://www.w3.org/1999/xlink" width="309.91398" height="415.72104" viewBox="0,0,309.91398,415.72104"><g transform="translate(-173.10595,55.12042)"><g stroke="none" stroke-miterlimit="10"><path d="M311.59433,301.32503c69.36489,0 125.59625,13.2693 125.59625,29.6378c0,16.36849 -56.23136,29.6378 -125.59625,29.6378c-69.36489,0 -125.59625,-13.2693 -125.59625,-29.6378c0,-16.36849 56.23136,-29.6378 125.59625,-29.6378z" fill="#3a3a3a" stroke-width="0"/><path d="M425.04219,18.54817c0.21155,1.41426 5.8335,56.06748 6.89191,56.57469c1.32513,0.63503 0.65818,36.05873 -1.80523,65.4774c-1.62996,19.4654 -5.60728,37.08221 -4.71399,37.45256c20.14231,8.35086 40.62169,19.75056 47.70753,30.56575c5.48394,8.37022 8.97384,15.9746 9.73541,22.41592c2.88191,24.3751 -33.542,43.17535 -38.95337,44.51631c-6.51828,1.61524 -14.77223,3.01526 -22.29508,0.08138c-9.14567,-3.56679 -17.32599,-10.65421 -25.56041,-16.92666c-14.47376,-11.02519 -26.93908,-21.70796 -29.5416,-21.89366c-8.69077,-0.62009 -53.81184,2.59554 -58.27199,4.30078c-5.62496,2.15061 -10.61628,13.35564 -16.52708,16.9336c-16.0307,9.7038 -32.20761,14.03675 -35.89247,14.65266c-48.38813,8.08789 -72.24933,-31.6454 -77.55602,-36.82725c-17.00092,-16.60093 13.50386,-56.64082 13.50386,-56.64082c0,0 -19.20746,-13.89282 -17.41012,-84.01815c0.49058,-19.14038 0.42989,-40.35395 5.30147,-69.16748c2.10645,-9.17572 1.92051,-18.82518 18.46447,-27.29617c13.58757,-6.95725 43.94797,-6.34667 43.94797,-6.34667c0,0 0.44738,-1.62379 0.70625,-2.42959c7.87634,-24.5167 37.30796,-45.09321 73.61133,-45.09321c42.56787,0 100.67513,20.30845 108.6572,73.66856z" fill="#020134" stroke-width="0"/><path d="M195.12857,29.18382c1.46148,-16.85147 18.55659,-18.06021 19.87676,-18.14346c6.33649,-0.3996 21.13826,-0.22214 21.13826,-0.22214c0,0 -2.72597,7.68365 -4.43826,18.0252c-2.54351,15.36185 -4.46741,36.99283 -4.98114,51.28678c-0.47265,13.15044 -1.03545,34.43077 -0.07086,52.32777c1.1042,20.48723 2.4536,37.52311 2.4536,37.52311c0,0 -11.80316,0.922 -16.75396,0.33508c-1.52093,-0.1803 -12.88292,-4.77135 -17.05099,-26.52061c-5.94799,-31.03695 -3.12907,-80.53156 -0.17338,-114.61172z" fill="#0c1390" stroke-width="0"/><path d="M195.12857,29.18382c1.46148,-16.85147 18.55659,-18.06021 19.87676,-18.14346c6.33649,-0.3996 21.13826,-0.22214 21.13826,-0.22214c0,0 -2.72597,7.68365 -4.43826,18.0252c-0.17617,1.064 -0.51932,3.2777 -0.51932,3.2777c0,0 -9.47892,-2.31078 -19.78097,-0.98453c-5.88706,0.75785 -16.84311,4.81002 -16.84311,4.81002c0,0 0.37645,-4.56937 0.56669,-6.76281z" fill="#162ed0" stroke-width="0"/><path d="M279.36504,-23.32654c13.3932,-7.46717 25.78476,-11.55971 44.93209,-11.00345c39.55497,1.14917 67.59784,21.49804 79.72182,50.01587c18.17861,42.75942 9.36399,82.22708 8.14933,115.45234c-0.44355,12.13269 -0.96056,56.19076 -38.77056,83.04844c-18.6543,13.25077 -36.10669,13.51515 -66.61975,12.61956c-13.57093,-0.39831 -17.34705,12.66299 -32.86033,20.72678c-10.16992,5.28631 -19.70544,6.98274 -30.96496,7.49683c-13.49445,0.61613 -26.55731,-6.76852 -36.27829,-14.99345c-8.18375,-6.92429 -13.99895,-14.22063 -15.70925,-20.06649c-0.62745,-2.14466 1.3209,-7.57248 5.7698,-15.07429c4.38098,-7.38727 11.18674,-16.86313 20.34545,-17.2749c5.36461,-0.24118 13.4337,2.72272 20.208,7.54561c4.04896,2.88262 5.32664,9.55493 8.80765,12.50948c5.14294,4.36514 12.07067,4.54717 15.21823,4.42534c3.83943,0.05024 1.66523,-1.85763 -1.54712,-7.1836c-1.15964,-1.92264 -2.23221,-4.73554 -3.51908,-7.43632c-4.34663,-9.12232 -8.84025,-23.25824 -10.37648,-39.17196c-1.80341,-18.68143 -1.99091,-68.0333 2.92173,-108.66604c2.8308,-23.41381 7.27132,-44.27037 14.54261,-57.44809c4.8271,-8.74816 12.47499,-13.54008 16.02914,-15.52166z" fill="#0c1390" stroke-width="NaN"/><path d="M279.36504,-23.32654c13.3932,-7.46717 25.78476,-11.55971 44.93209,-11.00345c39.55497,1.14917 67.59784,21.49804 79.72182,50.01587c18.17861,42.75942 9.36399,82.22708 8.14933,115.45234c-0.10223,2.79647 -7.55582,36.03157 -38.3062,48.68662c-8.1812,3.3669 -19.77169,2.68076 -31.27789,2.33043c-20.35191,-0.61965 -41.42516,-4.12857 -49.93413,-10.42692c-20.25537,-14.99311 -26.5648,-67.29821 -29.08143,-110.9679c-1.22924,-21.33037 -0.32031,-44.63382 4.34845,-61.8492c3.14469,-11.59557 10.0175,-21.44028 11.44794,-22.2378z" fill="#162ed0" stroke-width="NaN"/><g><path d="M297.65324,20.42415c14.96461,-15.28276 32.96556,-19.32817 39.15141,-19.85679c21.38229,-1.82729 55.29692,-1.50594 76.17203,3.12555c5.30232,1.1764 22.439,8.3976 28.18115,20.61843c4.39478,9.35325 20.9504,40.29956 -3.44838,68.56178c-25.75653,29.83496 -96.28655,23.35097 -116.44429,18.63433c-8.99432,-2.54756 -24.99725,-12.92759 -30.42976,-30.92816c-6.56436,-21.75101 -1.07823,-52.09125 6.81779,-60.15514z" fill="#10293a" stroke-width="0"/><g><path d="M306.49264,62.91399c0,-8.90174 -4.07785,-29.18237 14.82167,-38.48966c16.08142,-7.91949 54.50598,-5.74218 65.10287,-4.89923c11.90682,0.94715 25.08461,2.97925 33.55995,7.8495c10.07335,5.78853 12.49692,33.24824 11.60927,37.91243c-7.45816,39.18962 -81.53247,31.86668 -95.93911,28.13762c-15.58795,-4.03485 -29.15465,-14.03457 -29.15465,-30.51068z" fill="#4a7b9c" stroke-width="0"/><path d="M329.30554,58.35295c-19.81314,-10.17351 -5.7931,-34.90018 -5.3376,-35.07269c17.30918,-6.55484 52.39773,-4.55475 62.44925,-3.75516c11.90682,0.94715 25.08461,2.97925 33.55995,7.8495c4.04427,2.32399 6.85549,8.14111 8.71441,14.57373c0.73601,2.54693 2.97048,21.63742 -9.58061,25.58818c-17.87288,5.62593 -50.95513,10.76501 -89.8054,-9.18356z" fill="#8cc5de" stroke-width="0"/><path d="M410.0973,24.83491c5.4322,1.98918 13.85399,5.81338 12.12405,12.75489c-3.65854,14.68021 -19.8838,6.39596 -31.17289,4.4628c-1.81962,-0.31159 -10.27868,-0.41763 -15.44115,-3.28426c-3.31713,-1.84194 -4.38977,-6.3697 -4.38977,-7.70661c0,-5.03131 4.07867,-9.10998 9.10998,-9.10998c0.14595,0 7.46892,-0.31737 14.86367,0.2012c5.8719,0.41177 11.65011,1.48962 14.90611,2.6819z" fill="#ffffff" stroke-width="0.5"/></g></g><path d="M415.53392,197.21021c9.35796,-0.35697 11.59773,0.13075 16.05399,2.61145c5.44837,3.03297 12.47083,8.63592 18.25071,14.23081c5.85446,5.66709 10.16054,9.53662 12.37623,12.88945c1.75925,2.66213 2.12425,5.07494 1.44421,7.25907c-3.83834,12.32794 -19.9597,23.86044 -22.92685,24.36249c-3.44372,0.5827 -8.80439,0.87252 -12.28217,0.22306c-8.99442,-1.67964 -18.56927,-12.93964 -25.54905,-18.60957c-5.7106,-4.63892 -9.64198,-8.10356 -12.3713,-9.89677c-2.17187,-1.42694 -3.73422,-1.6438 -3.73422,-1.6438c0,0 9.37193,-6.8397 17.36248,-15.71726c5.78044,-6.42212 10.7394,-15.68464 11.37593,-15.70893z" fill="#0c1390" stroke-width="0"/></g></g></svg>