<svg version="1.1" xmlns="http://www.w3.org/2000/svg" xmlns:xlink="http://www.w3.org/1999/xlink" width="238.06815" height="23.1634" viewBox="0,0,238.06815,23.1634"><g transform="translate(-200.7126,-16.58045)"><g stroke-miterlimit="10"><path d="M284.05749,33.93399c-0.25652,-6.51498 0,7.40571 0,-12.31325c0,-2.20721 1.57707,-3.6555 3.94409,-3.6555c19.78654,0 24.54674,0 62.43204,0c3.00206,0 4.61747,1.68243 4.61747,4.80986c0,7.79288 0,-9.62215 0,11.35128c0,2.5373 -1.47764,4.23268 -4.23268,4.23268c-36.5282,0 -43.65402,0 -62.62443,0c-2.14693,0 -4.02315,-1.54683 -4.13648,-4.42508z" fill="#000000" stroke="#ffffff" stroke-width="2"/><path d="M366.78716,34.31878c-0.25652,-6.51498 0,7.40571 0,-12.31325c0,-2.20721 1.57707,-3.6555 3.94409,-3.6555c19.78654,0 24.54674,0 62.43204,0c3.00206,0 4.61747,1.68243 4.61747,4.80986c0,7.79288 0,-9.62215 0,11.35128c0,2.5373 -1.47764,4.23268 -4.23268,4.23268c-36.5282,0 -43.65402,0 -62.62443,0c-2.14693,0 -4.02315,-1.54683 -4.13648,-4.42508z" fill="#000000" stroke="#4e4e4e" stroke-width="2"/><path d="M201.71261,33.5492c-0.25652,-6.51498 0,7.40571 0,-12.31325c0,-2.20721 1.57707,-3.6555 3.94409,-3.6555c19.78654,0 24.54674,0 62.43204,0c3.00206,0 4.61747,1.68243 4.61747,4.80986c0,7.79288 0,-9.62215 0,11.35128c0,2.5373 -1.47764,4.23268 -4.23268,4.23268c-36.5282,0 -43.65402,0 -62.62443,0c-2.14693,0 -4.02315,-1.54683 -4.13648,-4.42508z" fill="#000000" stroke="#4e4e4e" stroke-width="2"/><text transform="translate(226.12178,32.70082) scale(0.25011,0.25011)" font-size="40" xml:space="preserve" fill="#ffffff" stroke="none" stroke-width="1" font-family="Sans Serif" font-weight="normal" text-anchor="start"><tspan x="0" dy="0">一般</tspan></text><text transform="translate(309.23624,32.44429) scale(0.25011,0.25011)" font-size="40" xml:space="preserve" fill="#ffffff" stroke="none" stroke-width="1" font-family="Sans Serif" font-weight="normal" text-anchor="start"><tspan x="0" dy="0">图像</tspan></text><text transform="translate(392.09417,32.70082) scale(0.25011,0.25011)" font-size="40" xml:space="preserve" fill="#ffffff" stroke="none" stroke-width="1" font-family="Sans Serif" font-weight="normal" text-anchor="start"><tspan x="0" dy="0">数据</tspan></text></g></g></svg>