<svg version="1.1" xmlns="http://www.w3.org/2000/svg" xmlns:xlink="http://www.w3.org/1999/xlink" width="100.73614" height="72" viewBox="0,0,100.73614,72"><g transform="translate(-269.63194,-144)"><g stroke-miterlimit="10"><g stroke="none" stroke-width="0"><path d="M270.4311,215.75v-71h6.63432v71.25z" fill="#000000" stroke-linecap="round"/><path d="M270.39873,213.4v-50.25h4.66294v50.25z" fill="#b2d2d0" stroke-linecap="butt"/><path d="M270.4311,160.65v-13h4.71849v13z" fill="#3a4443" stroke-linecap="butt"/></g><g stroke-linecap="round"><path d="M275.07432,210.63889h-4.63974l-0.25,-44.0625h5.03258" fill="#c9e6e5" stroke="none" stroke-width="0"/><path d="M270.81536,210.7361h3.6875" fill="#c9e6e5" stroke="#739595" stroke-width="1.5"/><g stroke-width="1.5"><path d="M270.89036,166.5764h3.8625" fill="#c9e6e5" stroke="#739595"/><path d="M270.91195,201.7273l0.1534,0.0477v4.125h-0.1308z" fill="none" stroke="#b1d1cf"/><path d="M270.93456,172.025h0.6308v4.711l-0.691,0.0843z" fill="none" stroke="#b1d1cf"/></g></g><g stroke-linecap="round"><path d="M274.52176,197.525h-3.5l-0.6358,-0.5108l0.1844,-16.5378l0.9514,-0.9514h3z" fill="#aed2cf" stroke="#739595" stroke-width="1.5"/><path d="M274.46616,194.775h-2.2222l-1.5,-1.5v-8l1.75,-1.75h2z" fill="#aed2cf" stroke="#739595" stroke-width="1.5"/><path d="M270.83717,181.13304l0.7318,-0.80193h2.3l-0.2,2.45h-0.9l-1.92309,1.36557" fill="#f2ffff" stroke="none" stroke-width="0"/><path d="M270.75491,194.26123l1.2078,1.06988l1.80625,0.1v1.6h-2.125l-0.84944,-0.79948z" fill="#9abbb9" stroke="none" stroke-width="0"/></g><g stroke="none" stroke-width="0"><path d="M362.93458,215.25v-71.25h6.63432v71z" fill="#000000" stroke-linecap="round"/><path d="M364.93833,212.65v-50.25h4.66294v50.25z" fill="#b2d2d0" stroke-linecap="butt"/><path d="M364.85041,159.9v-13h4.71849v13z" fill="#3a4443" stroke-linecap="butt"/></g><g stroke-linecap="round"><path d="M364.78284,165.82639h5.03258l-0.25,44.0625h-4.63974" fill="#c9e6e5" stroke="none" stroke-width="0"/><path d="M369.18466,209.9861h-3.6875" fill="#c9e6e5" stroke="#739595" stroke-width="1.5"/><g stroke-width="1.5"><path d="M369.10956,165.8264h-3.8625" fill="#c9e6e5" stroke="#739595"/><path d="M369.06546,205.15h-0.1309v-4.125l0.1535,-0.0477z" fill="none" stroke="#b1d1cf"/><path d="M369.12566,176.0703l-0.6911,-0.0843v-4.711h0.6309z" fill="none" stroke="#b1d1cf"/></g></g><g stroke-linecap="round"><path d="M365.47826,178.775h3l0.9514,0.9514l0.1844,16.5378l-0.6358,0.5108h-3.5z" fill="#aed2cf" stroke="#739595" stroke-width="1.5"/><path d="M365.50606,182.775h2l1.75,1.75v8l-1.5,1.5h-2.2222z" fill="#aed2cf" stroke="#739595" stroke-width="1.5"/><path d="M369.15412,183.39668l-1.92308,-1.36557h-0.9l-0.2,-2.45h2.3l0.7318,0.80193" fill="#f2ffff" stroke="none" stroke-width="0"/><path d="M369.20548,195.48164l-0.84945,0.79947h-2.125v-1.6l1.80625,-0.1l1.20779,-1.06988z" fill="#9abbb9" stroke="none" stroke-width="0"/></g></g></g></svg>