<svg version="1.1" xmlns="http://www.w3.org/2000/svg" xmlns:xlink="http://www.w3.org/1999/xlink" width="67.5" height="16.16667" viewBox="0,0,67.5,16.16667"><defs><linearGradient x1="92.28458" y1="310.84353" x2="92.28458" y2="325.51018" gradientUnits="userSpaceOnUse" id="color-1"><stop offset="0" stop-color="#a4b3be"/><stop offset="1" stop-color="#677681"/></linearGradient></defs><g transform="translate(-58.53462,-310.09353)"><g stroke-miterlimit="10"><path d="M59.28463,322.84353c0,-3.10179 0,-8.00924 0,-9.66666c0,-1.08404 1.02773,-2.33334 2.33334,-2.33334c5.8733,0 48.8492,0 60.66666,0c1.90473,0 3,1.45845 3,2.66667c0,1.74897 0,6.69884 0,9.66667c0,0.63212 -0.22937,1.17432 -0.6607,1.57654c-0.51125,0.47673 -1.30622,0.75679 -2.3393,0.75679c-12.12142,0 -57.02268,0 -61,0c-1.13304,0 -2,-1.10426 -2,-2.66667z" fill="url(#color-1)" stroke="#333944" stroke-width="1.5"/><text transform="translate(72.28463,321.72791) scale(0.25,0.25)" font-size="40" xml:space="preserve" fill="#232e34" stroke="#232e34" stroke-width="1" font-family="Sans Serif" font-weight="normal" text-anchor="start"><tspan x="0" dy="0">跳过投票</tspan></text></g></g></svg>