<svg version="1.1" xmlns="http://www.w3.org/2000/svg" xmlns:xlink="http://www.w3.org/1999/xlink" width="380.0692" height="441.75022" viewBox="0,0,380.0692,441.75022"><g transform="translate(-127.57393,102.02524)"><g stroke-miterlimit="10"><path d="M140.3368,249.97858c0,-6.84774 7.019,-35.15022 13.86674,-35.15022c0.87625,0 43.56441,-9.08305 44.38928,-8.91017c5.62133,1.17818 2.50354,20.10804 2.50354,26.07949c0,1.23791 13.40131,5.22176 28.611,11.68975c17.80727,7.57265 38.63773,17.8703 51.53358,20.91432c8.77073,2.07028 38.55388,9.216 72.16188,3.11677c18.68256,-3.39053 53.29398,-11.99062 78.54201,-23.21296c26.96181,-11.98413 44.1215,-26.49506 48.34906,-25.73337c17.29152,3.11551 32.79331,24.07456 19.74785,33.59989c-8.02632,5.86053 -87.85884,44.91151 -153.53905,51.22537c-50.70537,4.87434 -103.41079,-9.50572 -129.47533,-15.8557c-45.46126,-11.07551 -76.69061,-34.80644 -76.69061,-37.76316z" fill="#ff8800" stroke="none" stroke-width="0"/><path d="M134.555,258.96972c0,-2.03892 42.5507,24.24835 95.62468,34.46347c25.2614,4.86207 70.98644,13.93641 113.91882,10.16217c27.23177,-2.394 70.59169,-11.20684 102.30937,-23.10002c31.51821,-11.8184 51.47526,-26.7331 53.12217,-24.20468c2.36801,3.63551 4.18966,16.05746 -5.06581,28.45499c-9.21408,12.342 -29.48907,24.65983 -34.43029,28.26028c-9.18727,6.69437 -59.47159,18.63584 -112.04786,21.26337c-36.51167,1.8247 -74.69248,-3.52095 -98.63845,-7.10088c-40.16825,-6.00514 -74.66329,-20.2449 -89.20457,-27.67045c-29.30509,-14.96476 -25.58801,-39.87012 -25.58801,-40.5282z" fill="#cc6600" stroke="none" stroke-width="0"/><path d="M361.08182,202.9486c28.38553,-14.042 69.09076,-42.34398 80.96463,-40.7109c6.80903,0.93649 7.51843,25.29196 16.3147,40.63612c4.68149,8.16637 -33.92092,34.2911 -65.73838,36.02667c-35.33075,1.9272 -72.89894,-3.0693 -74.16477,-3.0693c-3.78224,0 18.6478,-21.02199 42.62381,-32.88264z" fill="#ff8800" stroke="none" stroke-width="0"/><path d="M219.5574,232.7928c0,-3.87633 84.80494,5.43923 143.36649,-0.26854c39.44452,-3.84451 63.5396,-16.50526 79.97337,-22.42366c5.20641,-1.87501 5.35912,-20.21252 9.27209,-20.23932c5.77186,-0.03957 17.03976,25.76337 18.80426,26.75124c4.53846,2.54094 -53.79113,29.3851 -102.12185,42.84959c-24.9801,6.95921 -50.09821,6.82773 -60.91886,5.32396c-41.90565,-5.8237 -88.37545,-27.83213 -88.37545,-31.99322z" fill="#cc6300" stroke="none" stroke-width="0"/><path d="M238.06373,171.47584c0.32346,-0.54128 2.65696,-0.06126 6.44336,-0.4252c1.6127,-0.15499 3.48898,-0.31961 5.58581,-0.49741c13.321,-1.12948 35.54199,-2.79068 55.62267,-5.89965c29.55048,-4.57514 54.16146,-14.10772 54.85232,-13.94923c0.03157,0.00725 36.59562,-20.04577 46.69218,-19.25834c25.51763,1.99013 40.84457,26.58034 40.01975,30.69288c-3.56523,17.77667 -100.60233,55.69036 -112.70994,69.2917c-5.34093,5.99987 -49.68492,5.07392 -51.50688,5.07392c-0.46868,0 -14.39683,-9.61881 -26.09529,-25.0181c-12.18873,-16.04464 -19.70346,-38.67239 -18.90387,-40.01052z" fill="#ffcc40" stroke="none" stroke-width="0"/><path d="M409.37803,131.46132c0.22395,-0.05715 14.65503,-9.92824 14.89671,-9.92824c0.61384,0 3.35238,-2.16914 5.66511,-0.98751c3.56179,1.81983 6.99873,7.38239 6.99873,8.32775c0,1.5592 3.57572,19.11683 2.01652,19.11683c-1.5592,0 -30.61263,-16.26454 -29.57718,-16.52882z" fill="#cc9e21" stroke="none" stroke-width="NaN"/><path d="M203.14714,225.65403c0,-0.15626 -1.94549,-30.72855 5.06834,-44.36025c2.32357,-4.51596 2.89297,-7.08654 4.67972,-8.3016c0.85274,-0.57989 16.77522,-9.5987 26.71152,-1.28311c0.77618,0.64956 0.09708,-0.42282 0.79417,0.43807c3.43208,4.23881 2.52594,14.50556 10.90157,27.23258c10.58641,16.08649 30.40469,34.8599 30.40469,36.54901c0,1.38368 -49.71289,0.94784 -66.86801,-2.52655c-8.00509,-1.62127 -11.69198,-5.72429 -11.69198,-7.74821z" fill="#cc9e21" stroke="none" stroke-width="0"/><path d="M287.74916,78.00034c0,1.65648 -1.56259,18.67582 2.00502,31.89508c2.23364,8.27637 8.67259,13.76216 17.90805,17.0844c32.14776,11.5643 88.59651,7.72399 88.48053,7.72399c-2.99852,0 -32.30189,18.2229 -66.84303,26.84325c-40.33049,10.06514 -91.85551,12.67706 -91.85551,9.17597c0,0 -7.09779,-95.29139 -4.58948,-95.29139c0,0 54.89442,2.08285 54.89442,2.5687z" fill="#ff8800" stroke="none" stroke-width="0"/><path d="M232.38074,83.61118c0,-2.9857 8.13708,85.24879 8.13708,88.23449c0,0.64515 -6.90525,0.14319 -12.71486,0.32954c-7.41583,0.23783 -14.20414,1.06286 -15.05475,1.06286c-2.15571,0 7.61358,-45.16718 14.00243,-71.40217c2.45972,-10.10051 5.63015,-17.39479 5.63015,-18.22472z" fill="#cc6300" stroke="none" stroke-width="0"/><path d="M360.9631,-7.24035c1.02435,1.02435 3.14748,39.97653 3.14748,41.53958c0,1.62775 -23.4509,1.31164 -39.8041,6.06077c-15.05348,4.37166 -21.85517,14.49522 -23.35356,14.49522c-0.17815,0 -5.6605,-0.30401 -12.39231,24.14008c-1.44945,5.26316 -50.45507,-1.91179 -52.92335,-3.13304c-9.14562,-4.52503 0.44279,-33.10122 10.27273,-46.79042c3.87248,-5.39282 51.72369,-2.88563 54.2783,-4.95297c4.71757,-3.81776 17.59057,-6.15623 29.46723,-12.26083c15.78487,-8.11342 30.72308,-19.68289 31.30758,-19.09839z" fill="#ffcc40" stroke="none" stroke-width="0"/><path d="M250.30759,26.40454c0,-2.99365 7.07539,-31.00358 21.3496,-51.86626c10.43801,-15.2558 28.74506,-25.44229 30.93421,-25.44229c3.18487,0 29.31351,-2.81429 30.39232,0.32975c0.28708,0.83657 27.55189,43.78841 27.55189,44.20835c0,2.18763 -13.73587,13.30266 -29.30008,20.56608c-6.04435,2.82072 -18.27291,8.77945 -32.72881,11.4124c-22.46394,4.09152 -48.19914,3.9455 -48.19914,0.79204z" fill="#ff8800" stroke="none" stroke-width="0"/><path d="M323.12718,-91.10561c3.3654,0 17.54466,19.85916 17.65714,22.83153c0.03167,0.83668 -11.71711,3.44966 -14.7971,5.92741c-2.62682,2.1132 -3.26802,10.67356 -9.85051,12.22658c-14.53885,3.4302 -33.27623,13.85722 -34.71286,13.85722c-1.90546,0 9.82113,-20.65672 21.46057,-35.27471c8.91818,-11.20035 18.78278,-19.56803 20.24277,-19.56803z" fill="#ffebb5" stroke="none" stroke-width="0"/><path d="M318.59653,-52.51844c0,-1.23624 3.01209,-7.60548 7.29129,-10.551c4.69335,-3.23057 13.31097,-6.8445 14.66684,-6.8445c2.59216,0 34.26273,55.49711 34.26273,58.08922c0,2.59216 -11.13408,5.75621 -13.72624,5.75621c-1.26766,0 -10.34316,-14.69237 -20.19144,-26.02796c-10.28955,-11.84348 -22.30317,-19.09747 -22.30317,-20.42198z" fill="#ffd375" stroke="none" stroke-width="0"/><path d="M360.117,-5.71429c0,-4.40176 8.35039,-4.42785 12.75215,-4.42785c4.40176,0 24.79587,43.06457 24.79587,47.46633c0,4.40176 -29.9582,-2.12536 -34.35996,-2.12536c-4.40176,0 -3.18806,-36.51141 -3.18806,-40.91317z" fill="#ffeab5" stroke="none" stroke-width="0"/><g fill="none" stroke="#bd1900" stroke-width="11"><path d="M252.38811,329.39314c-56.07072,-7.8387 -96.09275,-28.66273 -108.61482,-40.61215c-25.0715,-23.92494 1.10826,-71.4275 6.13728,-74.9294c4.03655,-2.81084 50.26891,-10.3689 50.68444,-11.28173c6.19048,-13.59851 17.59578,-106.78526 46.27295,-180.27813c26.88845,-68.90886 71.17553,-118.81697 75.95203,-118.81697c8.13789,0 55.61213,78.96777 89.09077,156.60262c28.09368,65.14749 43.23492,129.87251 47.22095,141.17248c6.09082,17.2669 39.2311,14.86393 42.64109,29.7722c3.78797,16.5609 9.58988,59.92208 -46.04632,82.82708c-64.98971,26.7558 -160.46092,21.53824 -203.33837,15.544z"/><path d="M502.14313,250.92688c0,5.31428 -92.6172,53.93847 -185.05255,54.21806c-90.86409,0.27482 -181.57319,-47.70528 -181.57319,-52.85003c0,-2.24367 2.63102,-26.36779 16.62985,-37.6981c6.49722,-5.2587 46.51155,-14.59778 48.1127,-12.94641c0.46604,0.48068 -3.77495,28.83647 0.48474,29.48314c18.34673,2.7852 69.70242,41.12876 123.09596,38.65197c69.25583,-3.21259 141.94014,-48.14021 150.4662,-50.00342c7.67363,-1.67695 20.07906,1.17407 25.14477,8.99747c4.98484,7.69855 2.69147,20.34349 2.69147,22.14727z"/></g><g stroke="none"><path d="M296.18326,48.67862c15.05769,-15.3778 33.17053,-19.44835 39.39486,-19.98026c21.51524,-1.83863 55.64076,-1.51532 76.64572,3.145c5.33531,1.1837 22.57855,8.4498 28.35639,20.74666c4.42213,9.41143 21.08066,40.55014 -3.46983,68.9881c-25.91669,30.02047 -96.88529,23.49619 -117.16839,18.7502c-9.05027,-2.56343 -25.15267,-13.00797 -30.61901,-31.12047c-6.6052,-21.88628 -1.08495,-52.4152 6.86016,-60.52918z" fill="#10293a" stroke-width="0"/><path d="M305.07767,91.4327c0,-8.95709 -4.10322,-29.36382 14.91384,-38.72899c16.18145,-7.96871 54.84492,-5.77789 65.50769,-4.92972c11.98084,0.95306 25.24058,2.99776 33.76862,7.89834c10.13598,5.82451 12.57461,33.45498 11.68144,38.14818c-7.50455,39.43332 -82.03945,32.06486 -96.53569,28.31256c-15.6849,-4.05995 -29.33595,-14.12185 -29.33595,-30.70043z" fill="#4a7b9c" stroke-width="0"/><path d="M328.03238,86.84327c-19.93633,-10.23675 -5.82912,-35.11719 -5.37078,-35.29078c17.41683,-6.59562 52.72356,-4.5831 62.8376,-3.77849c11.98084,0.95306 25.24058,2.99776 33.76862,7.89834c4.06943,2.33847 6.89811,8.19175 8.76861,14.66435c0.74061,2.56277 2.98894,21.77197 -9.64019,25.74731c-17.984,5.6609 -51.27198,10.83195 -90.36385,-9.24068z" fill="#8cc5de" stroke-width="0"/><path d="M409.3266,53.11681c5.46598,2.00158 13.94016,5.84954 12.19942,12.83418c-3.68131,14.77151 -20.00747,6.43571 -31.36676,4.49053c-1.83093,-0.31353 -10.3426,-0.42024 -15.53715,-3.30465c-3.33774,-1.85337 -4.41706,-6.40931 -4.41706,-7.75454c0,-5.06262 4.10403,-9.16665 9.16665,-9.16665c0.14689,0 7.51534,-0.31936 14.9561,0.20247c5.90841,0.41431 11.72253,1.4989 14.99881,2.69856z" fill="#ffffff" stroke-width="0.5"/></g></g></g></svg>