<svg version="1.1" xmlns="http://www.w3.org/2000/svg" xmlns:xlink="http://www.w3.org/1999/xlink" width="1814.69721" height="37.35416" viewBox="0,0,1814.69721,37.35416"><g transform="translate(808.08609,-323.25722)"><g fill="#ffd600" stroke="none" stroke-width="0" stroke-linecap="round" stroke-miterlimit="10"><g><path d="M56.77779,360.42388l30.01218,-37.16666h54.82115l-29.80584,37z"/><path d="M164.77779,360.50721l30.01218,-37.16666h54.82115l-29.80584,37z"/><path d="M272.77779,360.46554l30.01218,-37.16666h54.82116l-29.80585,37z"/><path d="M380.77779,360.54887l30.01218,-37.16666h54.82115l-29.80584,37z"/><path d="M488.77779,360.50721l30.01218,-37.16666h54.82115l-29.80584,36.99999z"/><g><path d="M489.77779,360.48637l30.01218,-37.16666h54.82115l-29.80584,37z"/><path d="M597.77779,360.56971l30.01218,-37.16666h54.82115l-29.80584,37z"/><path d="M705.77779,360.52804l30.01218,-37.16666h54.82115l-29.80584,36.99999z"/><path d="M813.77779,360.61137l30.01218,-37.16666h54.82115l-29.80584,37z"/><path d="M921.77779,360.56971l30.01218,-37.16666h54.82115l-29.80584,36.99999z"/></g></g><g><path d="M-808.08609,360.42388l30.01218,-37.16666h54.82115l-29.80584,37z"/><path d="M-700.08609,360.50721l30.01218,-37.16666h54.82115l-29.80584,37z"/><path d="M-592.08609,360.46555l30.01218,-37.16666h54.82115l-29.80585,36.99999z"/><path d="M-484.08609,360.54888l30.01218,-37.16666h54.82116l-29.80585,37z"/><path d="M-376.08609,360.50721l30.01218,-37.16666h54.82115l-29.80584,36.99999z"/><g><path d="M-375.08609,360.48638l30.01218,-37.16666h54.82115l-29.80584,37z"/><path d="M-267.08609,360.56971l30.01218,-37.16666h54.82115l-29.80584,37z"/><path d="M-159.08609,360.52805l30.01218,-37.16666h54.82116l-29.80585,36.99999z"/><path d="M-51.08609,360.61138l30.01218,-37.16666h54.82116l-29.80585,37z"/><path d="M56.91391,360.56971l30.01218,-37.16666h54.82116l-29.80585,36.99999z"/></g></g></g></g></svg>