<svg version="1.1" xmlns="http://www.w3.org/2000/svg" xmlns:xlink="http://www.w3.org/1999/xlink" width="493.50451" height="422.56463" viewBox="0,0,493.50451,422.56463"><g transform="translate(-73.24785,44.18465)"><g stroke="none" stroke-miterlimit="10"><path d="M566.75214,170.14432c0.00014,0.09256 0.00022,0.18512 0.00022,0.2777c0,114.85201 -110.47474,207.95796 -246.75225,207.95796c-136.2775,0 -246.75225,-93.10595 -246.75225,-207.95796c0,-114.85201 110.47475,-207.95796 246.75225,-207.95796c125.2106,0 228.63907,78.59795 244.6119,180.44548" fill="none" stroke-width="0"/><path d="M566.72571,170.23464c-1.9588,115.24167 -111.67141,208.14534 -246.72561,208.14534c-136.2775,0 -246.75225,-94.59431 -246.75225,-211.28231v-0.00001c0,-116.688 110.47475,-211.28231 246.75225,-211.28231c126.91774,0 231.45535,82.04672 245.21631,187.57545" fill="none" stroke-width="0"/><path d="M557.49296,201.1198c-19.06565,98.43364 -119.48121,173.51403 -240.49285,173.51403c-134.62065,0 -243.75225,-92.91711 -243.75225,-207.53617v-0.00001c0,-114.61906 109.1316,-207.53617 243.75225,-207.53617c124.22791,0 226.75038,79.12445 241.83951,181.41113" fill="none" stroke-width="0"/><g><path d="M311.643,301.34352c68.80158,0 124.57628,13.16155 124.57628,29.39712c0,16.23557 -55.7747,29.39711 -124.57628,29.39711c-68.80158,0 -124.57628,-13.16154 -124.57628,-29.39711c0,-16.23557 55.7747,-29.39712 124.57628,-29.39712z" fill="#000000" stroke-width="0"/><path d="M424.92631,96.79867c0.95917,9.76271 32.23287,99.19908 -21.09927,165.00284c-0.13097,0.16156 -8.77328,7.60149 -8.77328,7.60149c0,0 2.81393,11.24268 -4.01117,25.49647c-3.86095,8.06339 -17.89381,14.90037 -17.89381,14.90037c0,0 -0.01036,5.02529 -0.14168,10.89115c-0.18546,8.285 -1.34982,18.73861 -9.46543,23.34381c-10.02979,5.69138 -28.6146,6.98184 -44.87778,4.32636c-8.96156,-1.46326 -17.39666,-3.96242 -24.82188,-6.2064c-4.01246,-1.21261 -9.11624,-33.90887 -20.94587,-54.36959c-11.96693,-20.69822 -30.63779,-29.15653 -30.63779,-29.15653c0,0 -23.53109,2.19976 -42.15652,-5.173c-11.13073,-4.40605 -18.60056,-21.14949 -19.65811,-28.4063c-2.11387,-14.50523 -5.27715,-36.13678 -3.77319,-62.84105c1.48792,-26.4194 1.47985,-58.39098 6.80789,-76.19312c4.73476,-17.06305 18.77774,-20.17177 31.65591,-22.53819c20.12353,-2.96593 33.06587,1.62771 33.06587,1.62771c0,0 -0.58689,-8.63687 25.67245,-21.38526c13.23498,-6.42534 40.30811,-8.34232 55.91102,-8.54805c62.36279,3.22115 92.22193,31.89904 95.14266,61.62731z" fill="#020134" stroke-width="0"/><g stroke-width="0"><path d="M291.23832,59.08201c18.20575,-3.48055 21.27467,-4.1184 37.20871,-4.51052c28.99729,-0.71367 66.30584,6.58047 76.32746,42.82232c1.15863,4.19003 14.52993,49.19874 10.33836,94.61837c-1.19406,12.93864 -5.1124,20.73394 -8.3055,29.91548c-5.93839,17.07532 -18.54204,32.84476 -34.61235,38.11728c-0.61476,0.2017 -3.577,1.55541 -5.71179,1.14358c-1.35531,-0.26146 -2.11343,-1.81785 -3.75348,-1.77926c-3.50488,0.08246 -6.83374,0.80004 -9.81453,5.29826c-3.72112,5.61538 0.00337,15.29055 0.18773,24.58745c0.08967,4.5206 0.72305,9.09267 0.81972,13.41484c0.29462,13.17318 0.04193,24.02528 0.04193,24.02528c0,0 -2.39531,3.89554 -9.42151,4.03299c-5.35993,0.10484 -12.07732,1.19872 -18.21416,0.51184c-8.50287,-0.95172 -16.69451,-4.11229 -17.81369,-4.5552c-1.79585,-0.71071 -7.74023,-21.99627 -13.67746,-34.65025c-9.3162,-19.85555 -19.39768,-34.11749 -19.39768,-34.11749c0,0 -0.86369,-3.09033 -2.3709,-5.55448c-0.99729,-1.6305 -2.42685,-2.83634 -3.53423,-3.23135c-4.62084,-1.64819 -10.95927,-0.73637 -10.95927,-0.73637c0,0 -3.52893,-3.34903 -4.68811,-4.49065c-2.59986,-2.56043 -4.94026,-5.592 -6.85073,-9.18604c-7.47935,-14.07049 -8.5472,-36.94535 -8.46749,-57.82877c0.06839,-17.92325 0.48842,-33.7449 4.05015,-48.50579c15.59574,-64.63378 41.45491,-67.97183 48.6189,-69.34141z" fill="#0c1390"/><path d="M291.23832,59.08201c18.20575,-3.48055 21.27467,-4.1184 37.20871,-4.51052c28.99729,-0.71367 66.30584,6.58047 76.32746,42.82232c1.00113,3.62042 11.1202,37.71603 11.1489,76.21955c0.00142,1.89975 -3.77297,63.67026 -106.07123,45.71591c-9.1566,-1.60705 -17.93479,-5.80466 -23.58776,-11.84542c-24.26546,-33.93149 -22.29981,-83.21173 -14.9452,-115.18431c4.14514,-18.02014 11.05437,-30.80542 13.35974,-31.60007c2.81171,-0.96917 5.08272,-1.3351 6.55939,-1.61742z" fill="#162ed0"/></g><g><path d="M297.81514,96.95988c14.84308,-12.19691 32.69785,-15.42551 38.83346,-15.84738c21.20864,-1.45833 54.84785,-1.20187 75.55344,2.49444c5.25927,0.93888 22.25676,6.70199 27.95229,16.45523c4.35909,7.46467 20.78026,32.16241 -3.42037,54.71804c-25.54736,23.8108 -95.50461,18.63603 -115.49865,14.87176c-8.92128,-2.03317 -24.79425,-10.31731 -30.18264,-24.68326c-6.51105,-17.35914 -1.06948,-41.57318 6.76241,-48.00883z" fill="#10293a" stroke-width="0"/><g><path d="M306.58275,130.87034c0,-7.10434 -4.04473,-23.28998 14.7013,-30.71798c15.95082,-6.32041 54.06333,-4.58275 64.57417,-3.90998c11.81012,0.75588 24.8809,2.3777 33.28741,6.26455c9.99155,4.61973 12.39544,26.53486 11.515,30.25728c-7.39759,31.2766 -80.87035,25.43228 -95.15999,22.45617c-15.46136,-3.22014 -28.91789,-11.20075 -28.91789,-24.35008z" fill="#4a7b9c" stroke-width="0"/><path d="M329.21038,127.23025c-19.65223,-8.11931 -5.74605,-27.85326 -5.29425,-27.99094c17.16861,-5.23131 51.97221,-3.63507 61.94209,-2.99694c11.81012,0.75588 24.8809,2.3777 33.28741,6.26455c4.01143,1.85475 6.79982,6.49729 8.64364,11.63106c0.73004,2.03266 2.94637,17.26847 -9.50281,20.42152c-17.72774,4.48997 -50.54132,8.59138 -89.07609,-7.32925z" fill="#8cc5de" stroke-width="0"/><path d="M409.34604,100.48004c5.38807,1.58754 13.74148,4.63956 12.02558,10.17947c-3.62884,11.71602 -19.72233,5.10452 -30.91973,3.56168c-1.80484,-0.24866 -10.19521,-0.3333 -15.31575,-2.62111c-3.29019,-1.47002 -4.35412,-5.08356 -4.35412,-6.15053c0,-4.01541 4.04554,-7.27053 9.03599,-7.27053c0.14477,0 7.40827,-0.25329 14.74297,0.16058c5.82422,0.32862 11.5555,1.18884 14.78506,2.14037z" fill="#ffffff" stroke-width="0.5"/></g></g><path d="M370.52069,290.28826l-0.3934,-10.42521c0,0 2.52012,-0.74006 3.73734,-0.9835c1.05413,-0.21081 3.14725,-0.39339 3.14725,-0.39339c0,0 -0.74238,4.80094 -1.85265,6.81962c-1.0501,1.90927 -4.63852,4.9825 -4.63852,4.9825z" fill="#0c1390" stroke-width="0"/><g stroke-width="0"><path d="M220.21715,158.25408c0.19955,10.86553 -1.13322,27.24509 0.76244,40.18954c2.68329,18.32255 8.303,39.41039 8.303,39.41039c0,0 -2.41415,1.24562 -9.3425,1.41506c-6.28379,0.15366 -8.01153,-0.25366 -13.68913,-4.46665c-2.16666,-1.60771 -8.92679,-12.93612 -10.37475,-30.12952c-1.24882,-14.82898 -2.96216,-20.34697 -1.78382,-58.05489c0.42308,-13.53859 0.03759,-30.48792 1.24237,-41.24979c2.55331,-22.80803 15.77526,-23.04719 19.36328,-23.43605c11.03697,-1.0286 26.46174,-1.09442 26.46174,-1.09442c0,0 -14.40923,0.37546 -17.9578,6.06453c-1.99033,3.19087 5.29191,14.87219 5.29191,14.87219c0,0 -8.75682,30.33674 -8.2767,56.47969z" fill="#0c1390"/><path d="M195.16175,107.06983c0,0 0.11126,-1.15022 0.17299,-1.70163c2.55331,-22.80803 15.77526,-23.04719 19.36328,-23.43605c11.03697,-1.0286 26.46174,-1.09442 26.46174,-1.09442c0,0 -5.09272,4.56726 -6.99003,7.70197c-2.23681,3.69558 -5.58078,13.06716 -5.58078,13.06716c0,0 -16.46284,-0.03079 -20.95932,0.82418c-5.02243,0.95495 -12.46784,4.63881 -12.46784,4.63881z" fill="#162ed0"/></g></g></g></g></svg>